<svg width="632" height="361" viewBox="0 0 632 361" fill="none" xmlns="http://www.w3.org/2000/svg">
<path d="M392.5 147C392 151.5 391.5 155 391 158C390.5 155.5 389.5 148 389.5 146C389.5 143.5 390.5 136.609 391 134C391.5 136.609 392.776 144.515 392.5 147Z" fill="white"/>
<path d="M391 144.5C394.536 144.5 400 145.5 403 146C400.5 146.5 393 147.5 391 147.5C388.5 147.5 381.609 146.5 379 146C381.609 145.5 388.5 144.5 391 144.5Z" fill="white"/>
<path d="M492.5 13C492 17.5 491.5 21 491 24C490.5 21.5 489.5 14 489.5 12C489.5 9.5 490.5 2.6087 491 0C491.5 2.6087 492.776 10.5153 492.5 13Z" fill="white"/>
<path d="M491 10.5C494.536 10.5 500 11.5 503 12C500.5 12.5 493 13.5 491 13.5C488.5 13.5 481.609 12.5 479 12C481.609 11.5 488.5 10.5 491 10.5Z" fill="white"/>
<path d="M543.5 81C543 85.5 542.5 89 542 92C541.5 89.5 540.5 82 540.5 80C540.5 77.5 541.5 70.6087 542 68C542.5 70.6087 543.776 78.5153 543.5 81Z" fill="white"/>
<path d="M542 78.5C545.536 78.5 551 79.5 554 80C551.5 80.5 544 81.5 542 81.5C539.5 81.5 532.609 80.5 530 80C532.609 79.5 539.5 78.5 542 78.5Z" fill="white"/>
<path d="M296.5 193C296 197.5 295.5 201 295 204C294.5 201.5 293.5 194 293.5 192C293.5 189.5 294.5 182.609 295 180C295.5 182.609 296.776 190.515 296.5 193Z" fill="white"/>
<path d="M295 190.5C298.536 190.5 304 191.5 307 192C304.5 192.5 297 193.5 295 193.5C292.5 193.5 285.609 192.5 283 192C285.609 191.5 292.5 190.5 295 190.5Z" fill="white"/>
<path d="M107.5 187C107 191.5 106.5 195 106 198C105.5 195.5 104.5 188 104.5 186C104.5 183.5 105.5 176.609 106 174C106.5 176.609 107.776 184.515 107.5 187Z" fill="white"/>
<path d="M106 184.5C109.536 184.5 115 185.5 118 186C115.5 186.5 108 187.5 106 187.5C103.5 187.5 96.6087 186.5 94 186C96.6087 185.5 103.5 184.5 106 184.5Z" fill="white"/>
<path d="M201.5 285C201 289.5 200.5 293 200 296C199.5 293.5 198.5 286 198.5 284C198.5 281.5 199.5 274.609 200 272C200.5 274.609 201.776 282.515 201.5 285Z" fill="white"/>
<path d="M200 282.5C203.536 282.5 209 283.5 212 284C209.5 284.5 202 285.5 200 285.5C197.5 285.5 190.609 284.5 188 284C190.609 283.5 197.5 282.5 200 282.5Z" fill="white"/>
<path d="M288.5 350C288 354.5 287.5 358 287 361C286.5 358.5 285.5 351 285.5 349C285.5 346.5 286.5 339.609 287 337C287.5 339.609 288.776 347.515 288.5 350Z" fill="white"/>
<path d="M287 347.5C290.536 347.5 296 348.5 299 349C296.5 349.5 289 350.5 287 350.5C284.5 350.5 277.609 349.5 275 349C277.609 348.5 284.5 347.5 287 347.5Z" fill="white"/>
<path d="M89.5 335C89 339.5 88.5 343 88 346C87.5 343.5 86.5 336 86.5 334C86.5 331.5 87.5 324.609 88 322C88.5 324.609 89.7761 332.515 89.5 335Z" fill="white"/>
<path d="M88 332.5C91.5355 332.5 97 333.5 100 334C97.5 334.5 90 335.5 88 335.5C85.5 335.5 78.6087 334.5 76 334C78.6087 333.5 85.5 332.5 88 332.5Z" fill="white"/>
<path d="M24.5 283C24 287.5 23.5 291 23 294C22.5 291.5 21.5 284 21.5 282C21.5 279.5 22.5 272.609 23 270C23.5 272.609 24.7761 280.515 24.5 283Z" fill="white"/>
<path d="M23 280.5C26.5355 280.5 32 281.5 35 282C32.5 282.5 25 283.5 23 283.5C20.5 283.5 13.6087 282.5 11 282C13.6087 281.5 20.5 280.5 23 280.5Z" fill="white"/>
<path d="M222 150C221 154.5 220.5 155.5 220 158C219.5 155.5 219 154.5 218 150C219 146 219.5 144.5 220 142C220.5 144 221 146 222 150Z" fill="#DB2B27"/>
<path d="M220 148C224.5 149 225.5 149.5 228 150C225.5 150.5 224.5 151 220 152C216 151 214.5 150.5 212 150C214 149.5 216 149 220 148Z" fill="#DB2B27"/>
<path d="M52 176C51 180.5 50.5 181.5 50 184C49.5 181.5 49 180.5 48 176C49 172 49.5 170.5 50 168C50.5 170 51 172 52 176Z" fill="#DB2B27"/>
<path d="M50 174C54.5 175 55.5 175.5 58 176C55.5 176.5 54.5 177 50 178C46 177 44.5 176.5 42 176C44 175.5 46 175 50 174Z" fill="#DB2B27"/>
<path d="M10 221C9 225.5 8.5 226.5 8 229C7.5 226.5 7 225.5 6 221C7 217 7.5 215.5 8 213C8.5 215 9 217 10 221Z" fill="#DB2B27"/>
<path d="M8 219C12.5 220 13.5 220.5 16 221C13.5 221.5 12.5 222 8 223C4 222 2.5 221.5 0 221C2 220.5 4 220 8 219Z" fill="#DB2B27"/>
<path d="M78 255C77 259.5 76.5 260.5 76 263C75.5 260.5 75 259.5 74 255C75 251 75.5 249.5 76 247C76.5 249 77 251 78 255Z" fill="#DB2B27"/>
<path d="M76 253C80.5 254 81.5 254.5 84 255C81.5 255.5 80.5 256 76 257C72 256 70.5 255.5 68 255C70 254.5 72 254 76 253Z" fill="#DB2B27"/>
<path d="M24 329C23 333.5 22.5 334.5 22 337C21.5 334.5 21 333.5 20 329C21 325 21.5 323.5 22 321C22.5 323 23 325 24 329Z" fill="#DB2B27"/>
<path d="M22 327C26.5 328 27.5 328.5 30 329C27.5 329.5 26.5 330 22 331C18 330 16.5 329.5 14 329C16 328.5 18 328 22 327Z" fill="#DB2B27"/>
<path d="M148 323C147 327.5 146.5 328.5 146 331C145.5 328.5 145 327.5 144 323C145 319 145.5 317.5 146 315C146.5 317 147 319 148 323Z" fill="#DB2B27"/>
<path d="M146 321C150.5 322 151.5 322.5 154 323C151.5 323.5 150.5 324 146 325C142 324 140.5 323.5 138 323C140 322.5 142 322 146 321Z" fill="#DB2B27"/>
<path d="M254 323C253 327.5 252.5 328.5 252 331C251.5 328.5 251 327.5 250 323C251 319 251.5 317.5 252 315C252.5 317 253 319 254 323Z" fill="#DB2B27"/>
<path d="M252 321C256.5 322 257.5 322.5 260 323C257.5 323.5 256.5 324 252 325C248 324 246.5 323.5 244 323C246 322.5 248 322 252 321Z" fill="#DB2B27"/>
<path d="M469 347C468 351.5 467.5 352.5 467 355C466.5 352.5 466 351.5 465 347C466 343 466.5 341.5 467 339C467.5 341 468 343 469 347Z" fill="#DB2B27"/>
<path d="M467 345C471.5 346 472.5 346.5 475 347C472.5 347.5 471.5 348 467 349C463 348 461.5 347.5 459 347C461 346.5 463 346 467 345Z" fill="#DB2B27"/>
<path d="M626 345C625 349.5 624.5 350.5 624 353C623.5 350.5 623 349.5 622 345C623 341 623.5 339.5 624 337C624.5 339 625 341 626 345Z" fill="#DB2B27"/>
<path d="M624 343C628.5 344 629.5 344.5 632 345C629.5 345.5 628.5 346 624 347C620 346 618.5 345.5 616 345C618 344.5 620 344 624 343Z" fill="#DB2B27"/>
<path d="M618 172C617 176.5 616.5 177.5 616 180C615.5 177.5 615 176.5 614 172C615 168 615.5 166.5 616 164C616.5 166 617 168 618 172Z" fill="#DB2B27"/>
<path d="M616 170C620.5 171 621.5 171.5 624 172C621.5 172.5 620.5 173 616 174C612 173 610.5 172.5 608 172C610 171.5 612 171 616 170Z" fill="#DB2B27"/>
<path d="M607 79C606 83.5 605.5 84.5 605 87C604.5 84.5 604 83.5 603 79C604 75 604.5 73.5 605 71C605.5 73 606 75 607 79Z" fill="#DB2B27"/>
<path d="M605 77C609.5 78 610.5 78.5 613 79C610.5 79.5 609.5 80 605 81C601 80 599.5 79.5 597 79C599 78.5 601 78 605 77Z" fill="#DB2B27"/>
<path d="M577 16C576 20.5 575.5 21.5 575 24C574.5 21.5 574 20.5 573 16C574 12 574.5 10.5 575 8C575.5 10 576 12 577 16Z" fill="#DB2B27"/>
<path d="M575 14C579.5 15 580.5 15.5 583 16C580.5 16.5 579.5 17 575 18C571 17 569.5 16.5 567 16C569 15.5 571 15 575 14Z" fill="#DB2B27"/>
<path d="M484 75C483 79.5 482.5 80.5 482 83C481.5 80.5 481 79.5 480 75C481 71 481.5 69.5 482 67C482.5 69 483 71 484 75Z" fill="#DB2B27"/>
<path d="M482 73C486.5 74 487.5 74.5 490 75C487.5 75.5 486.5 76 482 77C478 76 476.5 75.5 474 75C476 74.5 478 74 482 73Z" fill="#DB2B27"/>
<path d="M343 196C342 200.5 341.5 201.5 341 204C340.5 201.5 340 200.5 339 196C340 192 340.5 190.5 341 188C341.5 190 342 192 343 196Z" fill="#DB2B27"/>
<path d="M341 194C345.5 195 346.5 195.5 349 196C346.5 196.5 345.5 197 341 198C337 197 335.5 196.5 333 196C335 195.5 337 195 341 194Z" fill="#DB2B27"/>
<path d="M177 206C176 210.5 175.5 211.5 175 214C174.5 211.5 174 210.5 173 206C174 202 174.5 200.5 175 198C175.5 200 176 202 177 206Z" fill="#DB2B27"/>
<path d="M175 204C179.5 205 180.5 205.5 183 206C180.5 206.5 179.5 207 175 208C171 207 169.5 206.5 167 206C169 205.5 171 205 175 204Z" fill="#DB2B27"/>
</svg>
