<svg viewBox="0 0 390 286" fill="none" xmlns="http://www.w3.org/2000/svg">
<path d="M390 20.0345V48H0V8.04925C3.5 18.0369 55 18.2869 79.5 6.05195C98.5 -3.43636 123.082 -1.51611 144.5 10.047C163 20.0347 231.5 12.0446 250 6.05195C274 -1.72225 293.999 8.04925 315 15.0409C331.5 20.5341 338.5 11.4679 361 8.04925C377.015 5.61603 386.667 13.7089 390 20.0345Z" fill="#F3F3F3"/>
<path d="M0 27.5269V286H390V15.7527C386.5 25.5645 351 25.8101 326.5 13.7905C307.5 4.46929 291.418 4.39279 270 15.7523C251.5 25.5642 202.5 16.6791 184 10.792C160 3.15463 139.001 13.7474 118 20.6159C101.5 26.0124 70.5 19.1108 48 15.7523C31.9855 13.362 3.33333 21.3127 0 27.5269Z" fill="#FAFAFA"/>
</svg>
