<svg width="626" height="371" viewBox="0 0 626 371" fill="none" xmlns="http://www.w3.org/2000/svg">
<path d="M298 142L299.81 148.19L306 150L299.81 151.81L298 158L296.19 151.81L290 150L296.19 148.19L298 142Z" fill="#F2F1F1"/>
<path d="M114 106L115.81 112.19L122 114L115.81 115.81L114 122L112.19 115.81L106 114L112.19 112.19L114 106Z" fill="#F2F1F1"/>
<path d="M8 274L9.81019 280.19L16 282L9.81019 283.81L8 290L6.18981 283.81L0 282L6.18981 280.19L8 274Z" fill="#F2F1F1"/>
<path d="M131 295L132.81 301.19L139 303L132.81 304.81L131 311L129.19 304.81L123 303L129.19 301.19L131 295Z" fill="#F2F1F1"/>
<path d="M56 340L57.8102 346.19L64 348L57.8102 349.81L56 356L54.1898 349.81L48 348L54.1898 346.19L56 340Z" fill="#F2F1F1"/>
<path d="M299 346L300.81 352.19L307 354L300.81 355.81L299 362L297.19 355.81L291 354L297.19 352.19L299 346Z" fill="#F2F1F1"/>
<path d="M465 314L466.81 320.19L473 322L466.81 323.81L465 330L463.19 323.81L457 322L463.19 320.19L465 314Z" fill="#F2F1F1"/>
<path d="M496 232L497.81 238.19L504 240L497.81 241.81L496 248L494.19 241.81L488 240L494.19 238.19L496 232Z" fill="#F2F1F1"/>
<path d="M613 281L614.81 287.19L621 289L614.81 290.81L613 297L611.19 290.81L605 289L611.19 287.19L613 281Z" fill="#F2F1F1"/>
<path d="M465 353L466.81 359.19L473 361L466.81 362.81L465 369L463.19 362.81L457 361L463.19 359.19L465 353Z" fill="#F2F1F1"/>
<path d="M479 40L480.81 46.1898L487 48L480.81 49.8102L479 56L477.19 49.8102L471 48L477.19 46.1898L479 40Z" fill="#F2F1F1"/>
<path d="M608 15L609.81 21.1898L616 23L609.81 24.8102L608 31L606.19 24.8102L600 23L606.19 21.1898L608 15Z" fill="#F2F1F1"/>
<path d="M409 0L410.81 6.18981L417 8L410.81 9.81019L409 16L407.19 9.81019L401 8L407.19 6.18981L409 0Z" fill="#F2F1F1"/>
<path d="M307 105L308.81 111.19L315 113L308.81 114.81L307 121L305.19 114.81L299 113L305.19 111.19L307 105Z" fill="#F2F1F1"/>
<path d="M168 85L169.81 91.1898L176 93L169.81 94.8102L168 101L166.19 94.8102L160 93L166.19 91.1898L168 85Z" fill="#F2F1F1"/>
<path d="M181 355L182.81 361.19L189 363L182.81 364.81L181 371L179.19 364.81L173 363L179.19 361.19L181 355Z" fill="#F2F1F1"/>
<path d="M31 112L32.5443 122.456L43 124L32.5443 125.544L31 136L29.4557 125.544L19 124L29.4557 122.456L31 112Z" fill="#EBEBEB"/>
<path d="M266 95L267.544 105.456L278 107L267.544 108.544L266 119L264.456 108.544L254 107L264.456 105.456L266 95Z" fill="#EBEBEB"/>
<path d="M12 323L13.5443 333.456L24 335L13.5443 336.544L12 347L10.4557 336.544L0 335L10.4557 333.456L12 323Z" fill="#EBEBEB"/>
<path d="M241 155L242.544 165.456L253 167L242.544 168.544L241 179L239.456 168.544L229 167L239.456 165.456L241 155Z" fill="#EBEBEB"/>
<path d="M415 253L416.544 263.456L427 265L416.544 266.544L415 277L413.456 266.544L403 265L413.456 263.456L415 253Z" fill="#EBEBEB"/>
<path d="M377 339L378.544 349.456L389 351L378.544 352.544L377 363L375.456 352.544L365 351L375.456 349.456L377 339Z" fill="#EBEBEB"/>
<path d="M564 3L565.544 13.4557L576 15L565.544 16.5443L564 27L562.456 16.5443L552 15L562.456 13.4557L564 3Z" fill="#EBEBEB"/>
<path d="M614 230L615.544 240.456L626 242L615.544 243.544L614 254L612.456 243.544L602 242L612.456 240.456L614 230Z" fill="#EBEBEB"/>
<path d="M110 341L111.544 351.456L122 353L111.544 354.544L110 365L108.456 354.544L98 353L108.456 351.456L110 341Z" fill="#EBEBEB"/>
<path d="M357 101L358.544 111.456L369 113L358.544 114.544L357 125L355.456 114.544L345 113L355.456 111.456L357 101Z" fill="#EBEBEB"/>
</svg>
