<svg width="234" height="170" viewBox="0 0 234 170" fill="none" xmlns="http://www.w3.org/2000/svg">
<path d="M21.6863 141.609L23.4402 115.651L9.32024 35.333L110.612 25.9292L211.102 4.05136L210.329 64.4907L222.829 126.682L46.5077 157.429L21.6863 141.609Z" fill="white"/>
<path d="M21.4451 62.5363C20.3807 56.6378 24.2747 50.9978 30.1426 49.9389L184.659 22.0549C190.527 20.9959 196.146 24.9191 197.211 30.8176L210.875 106.535C211.939 112.433 208.045 118.073 202.177 119.132L47.6612 147.016C41.7933 148.075 36.1735 144.152 35.1091 138.253L21.4451 62.5363Z" fill="#D3093E"/>
<path d="M20.6439 60.6987C19.5794 54.8003 23.4982 49.1558 29.3966 48.0913L184.717 20.0622C190.615 18.9978 196.26 22.9165 197.324 28.815L210.988 104.532C212.053 110.43 208.134 116.075 202.235 117.139L46.9152 145.168C41.0168 146.233 35.3722 142.314 34.3078 136.416L20.6439 60.6987Z" fill="#EA003D"/>
<g filter="url(#filter0_d_377_2220)">
<path d="M86.9387 90.9475L84.5037 91.3869L85.0703 94.5268L81.6954 95.1359L81.1288 91.9959L73.076 93.4491L72.6559 91.1209L77.9932 80.3649L81.6245 79.7096L76.7111 89.8818L80.7268 89.1571L80.2218 86.3589L83.4899 85.7692L83.9949 88.5674L86.4299 88.1279L86.9387 90.9475Z" fill="white"/>
<path d="M91.9406 83.6487C94.0481 83.2683 95.6761 83.4083 96.8245 84.0686C97.9872 84.7263 98.6957 85.76 98.9501 87.1698C99.1146 88.0812 99.0371 88.9553 98.7176 89.7923C98.3955 90.615 97.8057 91.339 96.9481 91.9643C96.1021 92.5728 94.9956 93.0004 93.6286 93.2471C92.5748 93.4372 91.5109 93.4896 90.4368 93.404C89.3743 93.3017 88.4409 93.0584 87.6363 92.6743L88.5254 89.7789C89.1721 90.1033 89.8875 90.3197 90.6717 90.4282C91.4533 90.5224 92.2357 90.4989 93.0189 90.3575C93.8876 90.2008 94.5403 89.9065 94.977 89.4748C95.4137 89.0431 95.5768 88.5211 95.4663 87.9088C95.3507 87.268 94.9999 86.8314 94.4139 86.5989C93.8421 86.3639 92.9155 86.362 91.6338 86.5933L87.8104 87.2833L87.0606 78.7286L96.1814 77.0827L96.6825 79.8595L90.4453 80.9851L90.723 83.8684L91.9406 83.6487Z" fill="white"/>
<path d="M120.407 85.3268L121.348 90.5387L118.25 91.0976L117.803 88.6198L109.729 90.0769L110.176 92.5547L107.079 93.1136L106.138 87.9017L106.608 87.8169C107.318 87.6742 107.733 87.1655 107.855 86.2907C107.976 85.416 107.935 84.2103 107.731 82.6738L107.164 78.6738L117.182 76.866L118.762 85.6236L120.407 85.3268ZM110.786 82.3652C110.954 83.5406 111.033 84.5114 111.024 85.2776C111.03 86.0412 110.882 86.6487 110.581 87.1L115.43 86.225L114.343 80.2014L110.584 80.8798L110.786 82.3652Z" fill="white"/>
<path d="M120.924 76.1907L124.234 75.5933L125.044 80.0789L130.042 79.1769L129.233 74.6913L132.565 74.09L134.639 85.5817L131.307 86.183L130.532 81.8897L125.533 82.7916L126.308 87.085L122.997 87.6825L120.924 76.1907Z" fill="white"/>
<path d="M147.971 77.2869C147.978 77.3297 148.011 77.6326 148.069 78.1956L139.375 79.7645C139.66 80.4482 140.132 80.9439 140.79 81.2515C141.449 81.5591 142.212 81.6345 143.081 81.4777C143.679 81.3698 144.19 81.1893 144.615 80.9362C145.052 80.6663 145.435 80.3031 145.764 79.8466L147.884 81.4491C147.025 82.8833 145.556 83.788 143.477 84.1632C142.181 84.397 140.99 84.3547 139.903 84.0362C138.814 83.7034 137.918 83.1373 137.215 82.3378C136.512 81.5384 136.057 80.569 135.852 79.4298C135.649 78.3048 135.73 77.2462 136.095 76.254C136.471 75.245 137.078 74.4078 137.913 73.7424C138.761 73.0601 139.761 72.6149 140.914 72.4068C142.039 72.2037 143.101 72.2621 144.1 72.5818C145.099 72.9015 145.937 73.4708 146.614 74.2896C147.303 75.0917 147.755 76.0908 147.971 77.2869ZM141.391 74.9234C140.636 75.0596 140.041 75.3876 139.605 75.9073C139.17 76.427 138.962 77.0674 138.981 77.8284L144.642 76.8069C144.397 76.1012 143.98 75.581 143.39 75.2464C142.797 74.8974 142.131 74.7898 141.391 74.9234Z" fill="white"/>
<path d="M149.48 71.0374L152.791 70.4399L154.025 77.2752L158.387 69.43L161.442 68.8788L163.516 80.3706L160.205 80.968L158.971 74.1328L154.63 81.9741L151.554 82.5292L149.48 71.0374ZM155.024 68.7578C152.518 69.21 151.058 68.3339 150.646 66.1292L152.824 65.736C152.929 66.2319 153.135 66.5991 153.442 66.8376C153.762 67.0593 154.178 67.124 154.69 67.0314C155.203 66.9389 155.57 66.733 155.792 66.4136C156.025 66.0774 156.097 65.6601 156.007 65.1617L158.229 64.7608C158.613 66.9706 157.544 68.3029 155.024 68.7578Z" fill="white"/>
</g>
<path d="M50.8016 66.8131L52.2818 62.6944L47.9741 63.4718L50.8016 66.8131Z" fill="white"/>
<path d="M45.446 67.7795L46.9261 63.6608L42.6196 64.438L45.446 67.7795Z" fill="white"/>
<path d="M47.4902 63.7828L50.3177 67.1241L46.01 67.9015L47.4902 63.7828Z" fill="white"/>
<path d="M52.6468 61.6777L54.127 57.5591L49.8193 58.3364L52.6468 61.6777Z" fill="white"/>
<path d="M49.4455 58.7761L52.2719 62.1176L47.9654 62.8947L49.4455 58.7761Z" fill="white"/>
<path d="M41.9231 63.6151L39.0967 60.2736L43.4043 59.4962L41.9231 63.6151Z" fill="white"/>
<path d="M43.9088 59.7766L42.4275 63.8955L46.7352 63.1181L43.9088 59.7766Z" fill="white"/>
<path d="M37.1994 61.9728L33.0806 60.4916L33.8579 64.7992L37.1994 61.9728Z" fill="white"/>
<path d="M38.2097 67.5697L34.0911 66.0896L34.8682 70.3961L38.2097 67.5697Z" fill="white"/>
<path d="M33.9752 65.4431L37.3156 62.6169L38.0928 66.9234L33.9752 65.4431Z" fill="white"/>
<path d="M36.185 56.3434L32.0662 54.8622L32.8435 59.1698L36.185 56.3434Z" fill="white"/>
<path d="M60.6599 57.741L56.541 56.2598L57.3184 60.5674L60.6599 57.741Z" fill="white"/>
<path d="M61.6697 63.3379L57.551 61.8578L58.3282 66.1643L61.6697 63.3379Z" fill="white"/>
<path d="M57.4362 61.2112L60.7766 58.3851L61.5537 62.6916L57.4362 61.2112Z" fill="white"/>
<path d="M59.6442 52.11L55.5254 50.6288L56.3027 54.9364L59.6442 52.11Z" fill="white"/>
<path d="M69.2346 57.577C69.2726 57.6246 69.3292 57.6556 69.3922 57.6631C69.455 57.6706 69.5191 57.6541 69.5701 57.6172L71.2902 56.3717L72.9523 56.5704L72.207 58.0104L70.1755 58.6991C70.1153 58.7196 70.0656 58.7616 70.0374 58.8162C70.0092 58.8707 70.0047 58.9332 70.0251 58.9898L70.0584 59.0827C70.1008 59.2007 70.2369 59.262 70.3624 59.2194L71.8407 58.7181L71.4358 59.5005C71.3771 59.6141 71.4256 59.7493 71.5443 59.8027L71.6378 59.8447C71.6948 59.8703 71.7607 59.8732 71.8209 59.8528C71.8812 59.8323 71.9309 59.7903 71.9591 59.7357L72.3641 58.9533L72.8634 60.3436C72.9017 60.4502 73.0163 60.5104 73.1306 60.4897C73.1429 60.4875 73.1552 60.4844 73.1674 60.4802L73.2661 60.4468C73.3264 60.4263 73.3761 60.3842 73.4043 60.3297C73.4326 60.2752 73.437 60.2127 73.4166 60.156L72.7304 58.2456L73.4757 56.8056L74.6773 57.8942L74.7021 59.924C74.7036 60.0494 74.8122 60.1478 74.9446 60.1438L75.0489 60.1406C75.1125 60.1387 75.1732 60.1129 75.2177 60.069C75.2621 60.0251 75.2867 59.9666 75.2859 59.9064L75.2678 58.4293L75.9207 59.0208C76.0154 59.1066 76.1673 59.102 76.2598 59.0105L76.3327 58.9385C76.3771 58.8946 76.4016 58.8361 76.401 58.7759C76.4002 58.7157 76.3742 58.6587 76.3287 58.6175L75.6759 58.026L77.2362 57.9789C77.3686 57.9749 77.4747 57.87 77.4732 57.7446L77.472 57.6459C77.4713 57.5857 77.4453 57.5287 77.3998 57.4875C77.3543 57.4463 77.293 57.4242 77.2294 57.4261L75.0853 57.4909L73.8837 56.4022L75.3715 55.6351L77.4184 56.2008C77.5448 56.2358 77.6793 56.1664 77.7188 56.0459L77.7498 55.9511C77.7688 55.8933 77.7629 55.8311 77.7333 55.7783C77.7038 55.7256 77.6531 55.6865 77.5924 55.6697L76.1028 55.258L76.9113 54.8412C76.9676 54.8122 77.0099 54.7634 77.0288 54.7055C77.0478 54.6477 77.0419 54.5855 77.0123 54.5328L76.9639 54.4463C76.9344 54.3935 76.8837 54.3544 76.8229 54.3376C76.7622 54.3209 76.6965 54.3278 76.6402 54.3568L75.8318 54.7736L76.2967 53.3542C76.3362 53.2337 76.2657 53.1077 76.1393 53.0728L76.0398 53.0452C75.979 53.0285 75.9133 53.0354 75.857 53.0644C75.8007 53.0934 75.7583 53.1423 75.7394 53.2001L75.1005 55.1507L73.6126 55.9178L73.3306 54.355L74.5708 52.6748C74.6076 52.625 74.6222 52.5638 74.6115 52.5046C74.6009 52.4454 74.5657 52.3932 74.5138 52.3593L74.4288 52.3039C74.3207 52.2334 74.1711 52.2604 74.0944 52.3642L73.192 53.5869L73.0387 52.7378C73.0165 52.6146 72.8926 52.5338 72.7621 52.5574L72.6593 52.5759C72.5287 52.5995 72.4409 52.7185 72.4631 52.8417L72.6164 53.6908L71.3434 52.8606C71.2353 52.7902 71.0857 52.8172 71.0091 52.921L70.9488 53.0027C70.912 53.0525 70.8973 53.1138 70.908 53.1729C70.9187 53.2321 70.9538 53.2843 71.0057 53.3182L72.755 54.4589L73.037 56.0217L71.3748 55.823L70.0944 54.2188C70.0564 54.1712 69.9997 54.1403 69.9368 54.1328C69.8739 54.1253 69.8099 54.1418 69.7589 54.1787L69.6752 54.2393C69.569 54.3162 69.547 54.4589 69.6261 54.558L70.5579 55.7253L69.6547 55.6174C69.5238 55.6017 69.4019 55.6899 69.3826 55.8143L69.3675 55.9123C69.3483 56.0368 69.439 56.1504 69.57 56.166L70.4732 56.274L69.2215 57.1804C69.1153 57.2573 69.0933 57.3999 69.1724 57.499L69.2346 57.577Z" fill="white" fill-opacity="0.64"/>
<path d="M45.6679 126.743C45.7059 126.79 45.7626 126.821 45.8255 126.829C45.8884 126.836 45.9525 126.82 46.0035 126.783L47.7235 125.537L49.3856 125.736L48.6404 127.176L46.6089 127.865C46.5486 127.885 46.499 127.927 46.4707 127.982C46.4425 128.036 46.4381 128.099 46.4585 128.155L46.4918 128.248C46.5342 128.366 46.6702 128.428 46.7957 128.385L48.2741 127.884L47.8691 128.666C47.8104 128.78 47.859 128.915 47.9777 128.968L48.0711 129.01C48.1282 129.036 48.1941 129.039 48.2543 129.018C48.3146 128.998 48.3642 128.956 48.3925 128.901L48.7974 128.119L49.2967 129.509C49.335 129.616 49.4497 129.676 49.5639 129.655C49.5762 129.653 49.5885 129.65 49.6007 129.646L49.6995 129.612C49.7598 129.592 49.8095 129.55 49.8377 129.495C49.8659 129.441 49.8703 129.378 49.85 129.322L49.1637 127.411L49.909 125.971L51.1106 127.06L51.1354 129.09C51.1369 129.215 51.2455 129.313 51.378 129.309L51.4822 129.306C51.5458 129.304 51.6066 129.278 51.651 129.235C51.6954 129.191 51.72 129.132 51.7193 129.072L51.7012 127.595L52.354 128.186C52.4487 128.272 52.6006 128.268 52.6931 128.176L52.766 128.104C52.8104 128.06 52.835 128.002 52.8343 127.941C52.8336 127.881 52.8076 127.824 52.7621 127.783L52.1092 127.191L53.6696 127.144C53.802 127.14 53.9081 127.036 53.9065 126.91L53.9053 126.811C53.9046 126.751 53.8786 126.694 53.8331 126.653C53.7876 126.612 53.7264 126.59 53.6627 126.592L51.5186 126.656L50.317 125.568L51.8049 124.801L53.8517 125.366C53.9782 125.401 54.1127 125.332 54.1521 125.211L54.1832 125.117C54.2021 125.059 54.1962 124.997 54.1667 124.944C54.1372 124.891 54.0865 124.852 54.0257 124.835L52.5362 124.424L53.3446 124.007C53.4009 123.978 53.4433 123.929 53.4622 123.871C53.4811 123.813 53.4752 123.751 53.4456 123.698L53.3972 123.612C53.3677 123.559 53.317 123.52 53.2563 123.503C53.1956 123.486 53.1298 123.493 53.0735 123.522L52.2651 123.939L52.73 122.52C52.7695 122.399 52.6991 122.273 52.5726 122.238L52.4731 122.211C52.4124 122.194 52.3466 122.201 52.2903 122.23C52.234 122.259 52.1917 122.308 52.1728 122.366L51.5338 124.316L50.0459 125.083L49.7639 123.521L51.0041 121.84C51.0409 121.791 51.0556 121.729 51.0449 121.67C51.0342 121.611 50.9991 121.559 50.9472 121.525L50.8621 121.469C50.754 121.399 50.6044 121.426 50.5278 121.53L49.6253 122.752L49.4721 121.903C49.4498 121.78 49.326 121.699 49.1954 121.723L49.0926 121.741C48.9621 121.765 48.8743 121.884 48.8965 122.007L49.0497 122.856L47.7767 122.026C47.6687 121.956 47.519 121.983 47.4424 122.087L47.3821 122.168C47.3454 122.218 47.3307 122.279 47.3413 122.338C47.352 122.398 47.3872 122.45 47.4391 122.484L49.1883 123.624L49.4704 125.187L47.8082 124.989L46.5278 123.384C46.4898 123.337 46.4331 123.306 46.3702 123.298C46.3072 123.291 46.2432 123.307 46.1922 123.344L46.1086 123.405C46.0024 123.482 45.9804 123.624 46.0594 123.724L46.9912 124.891L46.088 124.783C45.9571 124.767 45.8352 124.855 45.816 124.98L45.8009 125.078C45.7817 125.202 45.8724 125.316 46.0034 125.332L46.9065 125.44L45.6549 126.346C45.5486 126.423 45.5266 126.565 45.6057 126.665L45.6679 126.743Z" fill="white" fill-opacity="0.64"/>
<path d="M110.161 61.9767C110.199 62.0243 110.256 62.0552 110.319 62.0628C110.382 62.0703 110.446 62.0538 110.497 62.0169L112.217 60.7713L113.879 60.97L113.134 62.41L111.102 63.0988C111.042 63.1192 110.992 63.1613 110.964 63.2158C110.936 63.2704 110.931 63.3328 110.952 63.3895L110.985 63.4824C111.027 63.6004 111.163 63.6616 111.289 63.619L112.767 63.1178L112.362 63.9002C112.304 64.0137 112.352 64.149 112.471 64.2023L112.564 64.2443C112.621 64.27 112.687 64.2729 112.747 64.2525C112.808 64.232 112.857 64.1899 112.886 64.1354L113.291 63.353L113.79 64.7433C113.828 64.8498 113.943 64.91 114.057 64.8894C114.069 64.8872 114.082 64.884 114.094 64.8799L114.193 64.8464C114.253 64.826 114.303 64.7839 114.331 64.7294C114.359 64.6748 114.363 64.6124 114.343 64.5557L113.657 62.6452L114.402 61.2052L115.604 62.2939L115.629 64.3237C115.63 64.4491 115.739 64.5475 115.871 64.5435L115.975 64.5403C116.039 64.5384 116.1 64.5126 116.144 64.4687C116.189 64.4247 116.213 64.3663 116.212 64.306L116.194 62.8289L116.847 63.4204C116.942 63.5063 117.094 63.5017 117.186 63.4102L117.259 63.3382C117.304 63.2943 117.328 63.2358 117.327 63.1755C117.327 63.1153 117.301 63.0583 117.255 63.0171L116.602 62.4256L118.163 62.3785C118.295 62.3745 118.401 62.2696 118.4 62.1443L118.399 62.0456C118.398 61.9854 118.372 61.9284 118.326 61.8872C118.281 61.8459 118.22 61.8239 118.156 61.8258L116.012 61.8905L114.81 60.8019L116.298 60.0347L118.345 60.6005C118.471 60.6354 118.606 60.566 118.645 60.4456L118.676 60.3508C118.695 60.2929 118.689 60.2307 118.66 60.178C118.63 60.1252 118.58 60.0861 118.519 60.0694L117.029 59.6577L117.838 59.2409C117.894 59.2119 117.936 59.163 117.955 59.1052C117.974 59.0473 117.968 58.9852 117.939 58.9324L117.89 58.8459C117.861 58.7931 117.81 58.7541 117.749 58.7373C117.689 58.7205 117.623 58.7274 117.567 58.7564L116.758 59.1733L117.223 57.7538C117.263 57.6334 117.192 57.5074 117.066 57.4724L116.966 57.4449C116.906 57.4281 116.84 57.435 116.783 57.464C116.727 57.4931 116.685 57.5419 116.666 57.5998L116.027 59.5503L114.539 60.3175L114.257 58.7547L115.497 57.0745C115.534 57.0246 115.549 56.9634 115.538 56.9042C115.527 56.8451 115.492 56.7928 115.44 56.759L115.355 56.7035C115.247 56.6331 115.098 56.6601 115.021 56.7639L114.118 57.9866L113.965 57.1375C113.943 57.0143 113.819 56.9335 113.689 56.957L113.586 56.9756C113.455 56.9992 113.367 57.1181 113.39 57.2413L113.543 58.0904L112.27 57.2603C112.162 57.1898 112.012 57.2169 111.936 57.3206L111.875 57.4023C111.839 57.4522 111.824 57.5134 111.835 57.5726C111.845 57.6318 111.88 57.684 111.932 57.7178L113.681 58.8586L113.964 60.4213L112.301 60.2226L111.021 58.6185C110.983 58.5709 110.926 58.54 110.863 58.5324C110.8 58.5249 110.736 58.5414 110.685 58.5784L110.602 58.639C110.496 58.7159 110.474 58.8586 110.553 58.9576L111.484 60.125L110.581 60.017C110.45 60.0014 110.328 60.0895 110.309 60.214L110.294 60.312C110.275 60.4364 110.366 60.55 110.497 60.5657L111.4 60.6737L110.148 61.58C110.042 61.6569 110.02 61.7996 110.099 61.8987L110.161 61.9767Z" fill="white" fill-opacity="0.64"/>
<path d="M177.604 35.7745C177.642 35.8221 177.699 35.8531 177.762 35.8606C177.825 35.8681 177.889 35.8516 177.94 35.8147L179.66 34.5692L181.322 34.7679L180.577 36.2079L178.545 36.8966C178.485 36.9171 178.435 36.9592 178.407 37.0137C178.379 37.0682 178.375 37.1307 178.395 37.1874L178.428 37.2803C178.471 37.3982 178.607 37.4595 178.732 37.4169L180.211 36.9157L179.806 37.6981C179.747 37.8116 179.796 37.9468 179.914 38.0002L180.008 38.0422C180.065 38.0678 180.131 38.0707 180.191 38.0503C180.251 38.0299 180.301 37.9878 180.329 37.9332L180.734 37.1509L181.233 38.5411C181.272 38.6477 181.386 38.7079 181.5 38.6873C181.513 38.685 181.525 38.6819 181.537 38.6778L181.636 38.6443C181.696 38.6238 181.746 38.5817 181.774 38.5272C181.802 38.4727 181.807 38.4102 181.786 38.3535L181.1 36.4431L181.846 35.0031L183.047 36.0917L183.072 38.1215C183.073 38.2469 183.182 38.3453 183.315 38.3413L183.419 38.3382C183.482 38.3362 183.543 38.3104 183.588 38.2665C183.632 38.2226 183.657 38.1641 183.656 38.1039L183.638 36.6268L184.291 37.2183C184.385 37.3041 184.537 37.2995 184.63 37.208L184.703 37.136C184.747 37.0921 184.772 37.0336 184.771 36.9734C184.77 36.9132 184.744 36.8562 184.699 36.815L184.046 36.2235L185.606 36.1764C185.738 36.1724 185.845 36.0675 185.843 35.9421L185.842 35.8434C185.841 35.7832 185.815 35.7262 185.77 35.685C185.724 35.6438 185.663 35.6217 185.599 35.6236L183.455 35.6884L182.254 34.5997L183.741 33.8326L185.788 34.3983C185.915 34.4333 186.049 34.3639 186.089 34.2434L186.12 34.1486C186.139 34.0908 186.133 34.0286 186.103 33.9759C186.074 33.9231 186.023 33.884 185.962 33.8672L184.473 33.4556L185.281 33.0387C185.337 33.0097 185.38 32.9609 185.399 32.903C185.418 32.8452 185.412 32.783 185.382 32.7303L185.334 32.6438C185.304 32.591 185.254 32.5519 185.193 32.5351C185.132 32.5184 185.066 32.5253 185.01 32.5543L184.202 32.9711L184.667 31.5517C184.706 31.4312 184.636 31.3052 184.509 31.2703L184.41 31.2428C184.349 31.226 184.283 31.2329 184.227 31.2619C184.171 31.2909 184.128 31.3398 184.109 31.3976L183.47 33.3482L181.982 34.1153L181.7 32.5526L182.941 30.8723C182.977 30.8225 182.992 30.7613 182.981 30.7021C182.971 30.6429 182.936 30.5907 182.884 30.5568L182.799 30.5014C182.691 30.4309 182.541 30.4579 182.464 30.5617L181.562 31.7844L181.409 30.9353C181.386 30.8121 181.263 30.7313 181.132 30.7549L181.029 30.7734C180.899 30.797 180.811 30.916 180.833 31.0392L180.986 31.8883L179.713 31.0582C179.605 30.9877 179.456 31.0147 179.379 31.1185L179.319 31.2002C179.282 31.25 179.267 31.3113 179.278 31.3704C179.289 31.4296 179.324 31.4818 179.376 31.5157L181.125 32.6564L181.407 34.2192L179.745 34.0205L178.464 32.4163C178.426 32.3688 178.37 32.3378 178.307 32.3303C178.244 32.3228 178.18 32.3393 178.129 32.3762L178.045 32.4368C177.939 32.5137 177.917 32.6564 177.996 32.7555L178.928 33.9228L178.025 33.8149C177.894 33.7992 177.772 33.8874 177.753 34.0119L177.737 34.1098C177.718 34.2343 177.809 34.3479 177.94 34.3635L178.843 34.4715L177.591 35.3779C177.485 35.4548 177.463 35.5975 177.542 35.6965L177.604 35.7745Z" fill="white" fill-opacity="0.64"/>
<path d="M192.195 99.1774C192.233 99.225 192.29 99.2559 192.353 99.2634C192.416 99.271 192.48 99.2544 192.531 99.2175L194.251 97.972L195.913 98.1707L195.168 99.6107L193.136 100.299C193.076 100.32 193.026 100.362 192.998 100.417C192.97 100.471 192.965 100.533 192.986 100.59L193.019 100.683C193.062 100.801 193.198 100.862 193.323 100.82L194.801 100.318L194.396 101.101C194.338 101.214 194.386 101.35 194.505 101.403L194.598 101.445C194.656 101.471 194.721 101.474 194.782 101.453C194.842 101.433 194.892 101.391 194.92 101.336L195.325 100.554L195.824 101.944C195.862 102.05 195.977 102.111 196.091 102.09C196.104 102.088 196.116 102.085 196.128 102.081L196.227 102.047C196.287 102.027 196.337 101.985 196.365 101.93C196.393 101.875 196.398 101.813 196.377 101.756L195.691 99.8459L196.436 98.4059L197.638 99.4946L197.663 101.524C197.664 101.65 197.773 101.748 197.905 101.744L198.01 101.741C198.073 101.739 198.134 101.713 198.178 101.669C198.223 101.625 198.247 101.567 198.247 101.507L198.229 100.03L198.881 100.621C198.976 100.707 199.128 100.702 199.22 100.611L199.293 100.539C199.338 100.495 199.362 100.436 199.362 100.376C199.361 100.316 199.335 100.259 199.289 100.218L198.637 99.6263L200.197 99.5792C200.329 99.5752 200.435 99.4703 200.434 99.345L200.433 99.2463C200.432 99.186 200.406 99.1291 200.36 99.0878C200.315 99.0466 200.254 99.0245 200.19 99.0265L198.046 99.0912L196.844 98.0025L198.332 97.2354L200.379 97.8011C200.506 97.8361 200.64 97.7667 200.679 97.6463L200.711 97.5514C200.729 97.4936 200.724 97.4314 200.694 97.3787C200.665 97.3259 200.614 97.2868 200.553 97.2701L199.064 96.8584L199.872 96.4416C199.928 96.4125 199.971 96.3637 199.989 96.3059C200.008 96.248 200.003 96.1859 199.973 96.1331L199.925 96.0466C199.895 95.9938 199.844 95.9548 199.784 95.938C199.723 95.9212 199.657 95.9281 199.601 95.9571L198.792 96.3739L199.257 94.9545C199.297 94.834 199.226 94.7081 199.1 94.6731L199 94.6456C198.94 94.6288 198.874 94.6357 198.818 94.6647C198.761 94.6938 198.719 94.7426 198.7 94.8005L198.061 96.751L196.573 97.5182L196.291 95.9554L197.531 94.2752C197.568 94.2253 197.583 94.1641 197.572 94.1049C197.562 94.0458 197.526 93.9935 197.475 93.9597L197.389 93.9042C197.281 93.8337 197.132 93.8608 197.055 93.9645L196.153 95.1872L195.999 94.3381C195.977 94.2149 195.853 94.1342 195.723 94.1577L195.62 94.1763C195.489 94.1998 195.402 94.3188 195.424 94.442L195.577 95.2911L194.304 94.461C194.196 94.3905 194.046 94.4175 193.97 94.5213L193.909 94.603C193.873 94.6529 193.858 94.7141 193.869 94.7733C193.879 94.8324 193.915 94.8847 193.966 94.9185L195.716 96.0593L195.998 97.622L194.336 97.4233L193.055 95.8192C193.017 95.7716 192.96 95.7406 192.898 95.7331C192.835 95.7256 192.771 95.7421 192.72 95.7791L192.636 95.8396C192.53 95.9166 192.508 96.0592 192.587 96.1583L193.519 97.3257L192.615 97.2177C192.484 97.202 192.363 97.2902 192.343 97.4147L192.328 97.5127C192.309 97.6371 192.4 97.7507 192.531 97.7664L193.434 97.8743L192.182 98.7807C192.076 98.8576 192.054 99.0003 192.133 99.0994L192.195 99.1774Z" fill="white" fill-opacity="0.64"/>
<path d="M135.017 110.433C135.055 110.481 135.111 110.512 135.174 110.519C135.237 110.527 135.301 110.51 135.352 110.473L137.072 109.228L138.735 109.426L137.989 110.866L135.958 111.555C135.898 111.576 135.848 111.618 135.82 111.672C135.791 111.727 135.787 111.789 135.807 111.846L135.841 111.939C135.883 112.057 136.019 112.118 136.145 112.075L137.623 111.574L137.218 112.357C137.159 112.47 137.208 112.605 137.327 112.659L137.42 112.701C137.477 112.726 137.543 112.729 137.603 112.709C137.663 112.688 137.713 112.646 137.741 112.592L138.146 111.809L138.646 113.2C138.684 113.306 138.799 113.366 138.913 113.346C138.925 113.344 138.937 113.34 138.95 113.336L139.048 113.303C139.109 113.282 139.158 113.24 139.187 113.186C139.215 113.131 139.219 113.069 139.199 113.012L138.513 111.102L139.258 109.662L140.459 110.75L140.484 112.78C140.486 112.905 140.594 113.004 140.727 113L140.831 112.997C140.895 112.995 140.955 112.969 141 112.925C141.044 112.881 141.069 112.823 141.068 112.762L141.05 111.285L141.703 111.877C141.798 111.963 141.949 111.958 142.042 111.867L142.115 111.795C142.159 111.751 142.184 111.692 142.183 111.632C142.182 111.572 142.156 111.515 142.111 111.474L141.458 110.882L143.018 110.835C143.151 110.831 143.257 110.726 143.255 110.601L143.254 110.502C143.254 110.442 143.228 110.385 143.182 110.344C143.137 110.302 143.075 110.28 143.012 110.282L140.867 110.347L139.666 109.258L141.154 108.491L143.201 109.057C143.327 109.092 143.462 109.022 143.501 108.902L143.532 108.807C143.551 108.749 143.545 108.687 143.516 108.634C143.486 108.582 143.435 108.543 143.375 108.526L141.885 108.114L142.694 107.697C142.75 107.668 142.792 107.619 142.811 107.562C142.83 107.504 142.824 107.442 142.795 107.389L142.746 107.302C142.717 107.25 142.666 107.21 142.605 107.194C142.544 107.177 142.479 107.184 142.422 107.213L141.614 107.63L142.079 106.21C142.118 106.09 142.048 105.964 141.922 105.929L141.822 105.901C141.761 105.885 141.695 105.891 141.639 105.92C141.583 105.95 141.541 105.998 141.522 106.056L140.883 108.007L139.395 108.774L139.113 107.211L140.353 105.531C140.39 105.481 140.404 105.42 140.394 105.361C140.383 105.302 140.348 105.249 140.296 105.215L140.211 105.16C140.103 105.089 139.953 105.117 139.877 105.22L138.974 106.443L138.821 105.594C138.799 105.471 138.675 105.39 138.544 105.413L138.442 105.432C138.311 105.456 138.223 105.575 138.245 105.698L138.399 106.547L137.126 105.717C137.018 105.646 136.868 105.673 136.791 105.777L136.731 105.859C136.694 105.909 136.68 105.97 136.69 106.029C136.701 106.088 136.736 106.14 136.788 106.174L138.537 107.315L138.819 108.878L137.157 108.679L135.877 107.075C135.839 107.027 135.782 106.996 135.719 106.989C135.656 106.981 135.592 106.998 135.541 107.035L135.457 107.095C135.351 107.172 135.329 107.315 135.408 107.414L136.34 108.581L135.437 108.473C135.306 108.458 135.184 108.546 135.165 108.67L135.15 108.768C135.131 108.893 135.221 109.006 135.352 109.022L136.255 109.13L135.004 110.036C134.898 110.113 134.876 110.256 134.955 110.355L135.017 110.433Z" fill="white" fill-opacity="0.64"/>
<path d="M197.235 61.1261L196.864 60.9908C196.659 60.917 196.432 61.0224 196.358 61.2264L196.358 61.2266L196.062 61.1187L196.389 60.9662C196.488 60.9199 196.53 60.8024 196.484 60.7038C196.438 60.6051 196.321 60.5627 196.222 60.6086L195.539 60.9281L195.308 60.8435L195.361 60.7211C195.404 60.621 195.359 60.505 195.259 60.4615C195.158 60.4183 195.042 60.4641 194.999 60.5641L194.936 60.7081L194.212 60.4439L195.044 60.0554C195.142 60.0092 195.185 59.8918 195.139 59.7931C195.093 59.6943 194.975 59.6518 194.876 59.6979L193.688 60.2529L193.452 60.1667C193.525 60.0619 193.613 59.9665 193.72 59.8868L194.08 59.6169C194.139 59.5723 194.169 59.4976 194.155 59.424C194.142 59.3504 194.089 59.2909 194.017 59.2699L193.585 59.1426C193.458 59.1053 193.342 59.0468 193.237 58.9744L193.428 58.8109L194.735 58.9156C194.753 58.9169 194.77 58.916 194.786 58.913C194.872 58.8975 194.941 58.8258 194.948 58.7347C194.957 58.6261 194.875 58.5311 194.767 58.5222L193.852 58.449L194.438 57.948L194.547 58.0613C194.595 58.1106 194.662 58.1298 194.725 58.1185C194.762 58.1118 194.797 58.0946 194.826 58.0664C194.905 57.9909 194.907 57.8662 194.831 57.7876L194.739 57.6915L194.926 57.5314L195.678 57.5921C195.695 57.5933 195.712 57.5925 195.729 57.5895C195.814 57.574 195.882 57.5024 195.89 57.4112C195.899 57.3028 195.818 57.2075 195.709 57.1987L195.35 57.1697L195.589 56.9656L195.589 56.9657C195.683 57.076 195.826 57.1216 195.96 57.0975C196.026 57.0856 196.09 57.0563 196.145 57.0093L196.445 56.7533C196.611 56.6119 196.63 56.3624 196.489 56.1969L196.233 55.8969C196.092 55.7313 195.842 55.7117 195.676 55.8532L195.376 56.1096C195.211 56.2509 195.191 56.5004 195.333 56.6656L195.094 56.8697L195.121 56.5103C195.13 56.4017 195.048 56.3069 194.94 56.2987C194.832 56.2908 194.736 56.3715 194.728 56.4802L194.67 57.2314L194.465 57.4068L194.338 57.2753C194.263 57.1967 194.138 57.1943 194.059 57.2699C193.981 57.3456 193.978 57.4703 194.054 57.5489L194.164 57.6635L193.596 58.1492L193.667 57.2339C193.675 57.1253 193.594 57.0303 193.485 57.0219C193.377 57.0143 193.282 57.0948 193.273 57.2034L193.172 58.5112L192.952 58.6985C192.844 58.5522 192.767 58.3817 192.733 58.1942L192.678 57.8864C192.664 57.8118 192.609 57.7516 192.536 57.7313C192.463 57.711 192.385 57.7343 192.335 57.7919L192.246 57.8933C192.105 58.0555 191.93 58.1721 191.739 58.2402L191.686 57.9454L192.435 56.8692C192.498 56.78 192.476 56.6568 192.386 56.5946C192.297 56.5323 192.174 56.5545 192.112 56.6438L191.587 57.3972L191.462 56.7025L191.656 56.6675C191.763 56.6481 191.834 56.5456 191.815 56.4383C191.796 56.3311 191.693 56.2598 191.586 56.2792L191.392 56.3142L191.336 56.0068L191.767 55.3888C191.829 55.2994 191.808 55.1764 191.718 55.1139C191.629 55.0519 191.506 55.0733 191.443 55.1629L191.237 55.4585L191.181 55.1493C191.396 55.1106 191.538 54.905 191.5 54.6909L191.43 54.3026C191.391 54.0886 191.185 53.9457 190.971 53.9843L190.583 54.0544C190.369 54.093 190.226 54.2988 190.265 54.5128L190.335 54.9011C190.373 55.1153 190.579 55.258 190.793 55.2193L190.849 55.5286L190.553 55.3237C190.463 55.2617 190.34 55.2847 190.278 55.3739C190.216 55.4636 190.239 55.5865 190.328 55.6485L190.948 56.077L191.003 56.3843L190.809 56.4193C190.702 56.4387 190.631 56.5413 190.65 56.6485C190.67 56.7558 190.772 56.827 190.879 56.8076L191.073 56.7725L191.199 57.4672L190.444 56.9446C190.355 56.883 190.232 56.9048 190.17 56.9946C190.108 57.0841 190.13 57.2072 190.22 57.269L191.298 58.0155L191.351 58.3102C191.149 58.313 190.944 58.265 190.755 58.1626L190.636 58.0984C190.569 58.0618 190.488 58.0674 190.427 58.112C190.365 58.1565 190.334 58.2322 190.348 58.3068L190.403 58.613C190.437 58.8009 190.424 58.9881 190.374 59.1633L190.104 59.0648L189.551 57.8749C189.506 57.7762 189.388 57.734 189.289 57.7789C189.191 57.8248 189.148 57.9422 189.194 58.041L189.58 58.8738L188.877 58.6175L188.941 58.4715C188.984 58.3715 188.938 58.2554 188.838 58.212C188.738 58.1687 188.622 58.2145 188.579 58.3145L188.506 58.482L188.252 58.3894L187.936 57.7058C187.89 57.6069 187.772 57.5648 187.674 57.6097C187.575 57.6555 187.532 57.7727 187.578 57.8715L187.729 58.1986L187.434 58.0909C187.508 57.8868 187.403 57.6599 187.198 57.5851L186.828 57.4499C186.624 57.375 186.396 57.4808 186.322 57.6853L186.186 58.056C186.112 58.2604 186.218 58.4874 186.422 58.5619L186.793 58.6971C186.861 58.7218 186.931 58.7267 186.997 58.7147C187.131 58.6906 187.249 58.598 187.299 58.4617L187.299 58.4615L187.594 58.5692L187.267 58.7219C187.169 58.7682 187.126 58.8858 187.172 58.9843C187.211 59.0671 187.3 59.1104 187.386 59.0949C187.402 59.0919 187.419 59.0867 187.435 59.0795L188.117 58.76L188.349 58.8445L188.295 58.967C188.252 59.067 188.298 59.1831 188.398 59.2264C188.435 59.2425 188.474 59.2463 188.511 59.2396C188.574 59.2283 188.63 59.1869 188.657 59.124L188.72 58.9798L189.445 59.2442L188.613 59.6327C188.514 59.6789 188.471 59.7963 188.518 59.895C188.556 59.9779 188.645 60.0211 188.731 60.0057C188.748 60.0027 188.764 59.9975 188.78 59.9902L189.968 59.4352L190.203 59.521C190.13 59.6256 190.042 59.7212 189.935 59.8006L189.572 60.0718C189.512 60.1165 189.482 60.1912 189.496 60.2648C189.509 60.3384 189.563 60.3982 189.635 60.4191L190.07 60.5462C190.197 60.5835 190.314 60.6419 190.419 60.7145L190.228 60.8771L188.921 60.7725C188.813 60.7639 188.717 60.8447 188.709 60.9533C188.7 61.062 188.781 61.157 188.89 61.1659L189.805 61.2391L189.218 61.7399L189.109 61.6268C189.034 61.5482 188.909 61.5459 188.83 61.6214C188.752 61.6972 188.749 61.8219 188.825 61.9005L188.918 61.9966L188.73 62.1567L187.979 62.096C187.87 62.0877 187.775 62.1682 187.766 62.2769C187.758 62.3853 187.839 62.4806 187.947 62.4894L188.307 62.5182L188.068 62.7225L188.068 62.7223C187.926 62.5572 187.677 62.5372 187.511 62.6786L187.211 62.9348C187.046 63.0761 187.026 63.3255 187.167 63.491L187.424 63.7912C187.518 63.9019 187.661 63.9471 187.794 63.923C187.861 63.911 187.925 63.8818 187.98 63.835L188.28 63.5785C188.445 63.4371 188.465 63.1878 188.324 63.0226L188.563 62.8182L188.535 63.1777C188.527 63.2864 188.608 63.381 188.717 63.3895C188.734 63.3908 188.751 63.3898 188.767 63.3868C188.853 63.3713 188.922 63.2992 188.929 63.2077L188.986 62.4565L189.191 62.2814L189.318 62.4129C189.366 62.4622 189.433 62.4814 189.496 62.4701C189.533 62.4634 189.568 62.4462 189.597 62.4181C189.676 62.3425 189.678 62.2178 189.602 62.1393L189.492 62.0246L190.061 61.5389L189.99 62.4543C189.981 62.5629 190.063 62.6578 190.171 62.6661C190.189 62.6674 190.205 62.6666 190.222 62.6636C190.308 62.6481 190.376 62.576 190.383 62.4845L190.485 61.177L190.704 60.9899C190.812 61.1368 190.889 61.3076 190.923 61.4955L190.979 61.8016C190.992 61.8764 191.047 61.9366 191.12 61.9568C191.193 61.977 191.272 61.9536 191.321 61.8963L191.41 61.7949C191.552 61.6326 191.727 61.516 191.917 61.448L191.97 61.7425L191.221 62.8188C191.159 62.9082 191.181 63.0313 191.27 63.0934C191.36 63.1558 191.483 63.1336 191.545 63.0442L192.069 62.291L192.195 62.9855L192 63.0205C191.893 63.0399 191.822 63.1426 191.841 63.2497C191.861 63.3571 191.963 63.4282 192.071 63.4088L192.265 63.3738L192.32 63.6813L191.889 64.2994C191.827 64.3886 191.849 64.5117 191.938 64.5742C192.027 64.6359 192.151 64.6145 192.213 64.5252L192.419 64.2296L192.475 64.5387C192.261 64.5774 192.118 64.7832 192.157 64.9971L192.227 65.3854C192.265 65.5996 192.471 65.7423 192.685 65.7037L193.073 65.6336C193.288 65.595 193.43 65.3894 193.392 65.1752L193.322 64.7869C193.283 64.5729 193.077 64.43 192.863 64.4687L192.807 64.1596L193.104 64.3645C193.149 64.3953 193.202 64.4052 193.251 64.3962C193.301 64.3872 193.347 64.359 193.378 64.3143C193.44 64.2245 193.418 64.1015 193.328 64.0397L192.709 63.6113L192.653 63.3037L192.847 63.2687C192.955 63.2493 193.026 63.1469 193.006 63.0395C192.987 62.9324 192.884 62.861 192.777 62.8804L192.583 62.9154L192.458 62.2209L193.212 62.7433C193.257 62.7744 193.31 62.7843 193.36 62.7753C193.409 62.7663 193.456 62.7385 193.487 62.6934C193.549 62.604 193.527 62.4809 193.437 62.4189L192.359 61.6725L192.305 61.3779C192.508 61.3752 192.713 61.4232 192.902 61.5255L193.02 61.5898C193.061 61.6116 193.106 61.6182 193.149 61.6104C193.178 61.6052 193.205 61.5938 193.23 61.5762C193.291 61.5317 193.322 61.456 193.308 61.3812L193.253 61.0735C193.219 60.8861 193.232 60.6994 193.282 60.5244L193.553 60.6234L194.105 61.8131C194.144 61.8963 194.233 61.9399 194.319 61.9244C194.335 61.9215 194.351 61.9164 194.367 61.9091C194.466 61.8634 194.509 61.746 194.463 61.6472L194.077 60.8144L194.779 61.0707L194.716 61.2167C194.672 61.3167 194.718 61.4327 194.818 61.476C194.855 61.4922 194.895 61.4959 194.932 61.4893C194.994 61.4779 195.051 61.4365 195.078 61.3737L195.151 61.2062L195.404 61.2985L195.721 61.9822C195.759 62.0654 195.849 62.1091 195.935 62.0935C195.951 62.0906 195.967 62.0857 195.983 62.0785C196.081 62.0325 196.125 61.9155 196.079 61.8165L195.927 61.4894L196.223 61.5973C196.148 61.8014 196.254 62.0281 196.458 62.1031L196.829 62.2383C196.896 62.263 196.967 62.2679 197.033 62.2559C197.167 62.2318 197.285 62.1396 197.335 62.0029L197.47 61.632C197.544 61.4275 197.439 61.2007 197.235 61.1261ZM190.728 60.4508C190.568 60.325 190.384 60.2273 190.18 60.1677L190.125 60.1514L190.171 60.117C190.341 59.9899 190.48 59.834 190.585 59.6602L191.039 59.826C191.038 59.8781 191.042 59.9309 191.052 59.9841C191.061 60.0373 191.076 60.0884 191.095 60.1368L190.728 60.4508ZM191.846 61.0554C191.649 61.1171 191.462 61.2172 191.297 61.3546C191.245 61.1236 191.143 60.9139 191.005 60.7332L191.332 60.4531C191.455 60.5532 191.606 60.6157 191.769 60.6281L191.846 61.0554L191.846 61.0554ZM191.499 59.13C191.351 59.1986 191.231 59.31 191.151 59.4468L190.746 59.299C190.812 59.0813 190.835 58.8489 190.803 58.6144C191.005 58.6854 191.215 58.7141 191.422 58.7028L191.499 59.13L191.499 59.13ZM191.81 58.6328C192.008 58.5712 192.194 58.471 192.359 58.3336C192.411 58.5646 192.513 58.7745 192.652 58.9555L192.324 59.2351C192.201 59.135 192.05 59.0724 191.887 59.0599L191.81 58.6328ZM192.854 61.0737C192.651 61.0026 192.441 60.9739 192.235 60.9851L192.158 60.558C192.306 60.4896 192.425 60.3782 192.506 60.2414L192.91 60.3889C192.844 60.6067 192.822 60.8391 192.854 61.0737ZM193.07 60.0274L192.617 59.8622C192.618 59.8101 192.614 59.757 192.605 59.7038C192.595 59.6506 192.58 59.5998 192.561 59.5514L192.928 59.238C193.087 59.3638 193.271 59.4615 193.474 59.5211L193.528 59.5372L193.483 59.571C193.313 59.6981 193.176 59.8538 193.07 60.0274Z" fill="white"/>
<path d="M155.943 46.5608L155.572 46.4255C155.368 46.3517 155.141 46.457 155.066 46.6611L155.066 46.6613L154.771 46.5534L155.097 46.4009C155.196 46.3546 155.239 46.237 155.193 46.1385C155.146 46.0398 155.029 45.9974 154.93 46.0433L154.248 46.3628L154.016 46.2782L154.069 46.1558C154.113 46.0557 154.067 45.9397 153.967 45.8962C153.867 45.853 153.751 45.8987 153.707 45.9988L153.645 46.1428L152.92 45.8786L153.752 45.4901C153.851 45.4439 153.893 45.3265 153.847 45.2278C153.801 45.129 153.684 45.0865 153.585 45.1326L152.397 45.6876L152.16 45.6013C152.233 45.4966 152.322 45.4012 152.428 45.3215L152.788 45.0516C152.848 45.0069 152.877 44.9323 152.864 44.8587C152.851 44.7851 152.797 44.7256 152.726 44.7046L152.294 44.5773C152.166 44.5399 152.05 44.4815 151.945 44.409L152.136 44.2456L153.444 44.3503C153.461 44.3516 153.478 44.3507 153.495 44.3477C153.581 44.3322 153.649 44.2605 153.656 44.1694C153.665 44.0608 153.584 43.9658 153.475 43.9569L152.56 43.8837L153.147 43.3827L153.256 43.496C153.303 43.5453 153.37 43.5645 153.433 43.5532C153.47 43.5465 153.506 43.5293 153.535 43.5011C153.613 43.4256 153.616 43.3009 153.54 43.2223L153.447 43.1262L153.635 42.9661L154.386 43.0268C154.403 43.028 154.421 43.0271 154.437 43.0242C154.523 43.0087 154.591 42.9371 154.598 42.8459C154.607 42.7374 154.526 42.6422 154.417 42.6334L154.058 42.6044L154.297 42.4003L154.297 42.4004C154.392 42.5107 154.534 42.5563 154.668 42.5322C154.734 42.5202 154.799 42.491 154.854 42.444L155.154 42.1879C155.319 42.0466 155.339 41.7971 155.197 41.6316L154.941 41.3316C154.8 41.166 154.55 41.1464 154.385 41.2878L154.085 41.5443C153.92 41.6855 153.9 41.9351 154.041 42.1003L153.802 42.3044L153.83 41.9449C153.838 41.8364 153.757 41.7416 153.648 41.7334C153.541 41.7255 153.444 41.8062 153.436 41.9149L153.379 42.6661L153.173 42.8415L153.047 42.71C152.971 42.6314 152.846 42.629 152.768 42.7045C152.689 42.7803 152.687 42.905 152.762 42.9836L152.873 43.0982L152.304 43.5839L152.375 42.6686C152.383 42.56 152.302 42.465 152.194 42.4565C152.086 42.449 151.99 42.5295 151.982 42.6381L151.88 43.9459L151.661 44.1332C151.553 43.9869 151.476 43.8164 151.442 43.6288L151.386 43.3211C151.373 43.2465 151.318 43.1863 151.245 43.166C151.172 43.1457 151.093 43.169 151.043 43.2266L150.955 43.3279C150.813 43.4902 150.638 43.6068 150.448 43.6749L150.395 43.3801L151.144 42.3039C151.206 42.2146 151.184 42.0915 151.095 42.0293C151.005 41.967 150.883 41.9892 150.82 42.0784L150.296 42.8319L150.17 42.1372L150.364 42.1022C150.472 42.0828 150.543 41.9803 150.524 41.873C150.504 41.7658 150.402 41.6945 150.294 41.7139L150.1 41.7489L150.045 41.4415L150.476 40.8235C150.538 40.7341 150.516 40.6111 150.427 40.5486C150.337 40.4866 150.214 40.508 150.152 40.5976L149.946 40.8932L149.89 40.5839C150.104 40.5453 150.247 40.3397 150.208 40.1256L150.138 39.7373C150.1 39.5233 149.894 39.3804 149.68 39.419L149.291 39.4891C149.077 39.5277 148.935 39.7335 148.973 39.9475L149.043 40.3358C149.082 40.5499 149.288 40.6927 149.502 40.654L149.557 40.9633L149.261 40.7584C149.172 40.6964 149.049 40.7194 148.986 40.8086C148.925 40.8983 148.947 41.0212 149.037 41.0832L149.656 41.5117L149.712 41.8189L149.518 41.854C149.41 41.8734 149.339 41.976 149.359 42.0832C149.378 42.1905 149.48 42.2617 149.588 42.2423L149.782 42.2072L149.907 42.9019L149.153 42.3793C149.063 42.3177 148.94 42.3395 148.878 42.4293C148.816 42.5188 148.839 42.6419 148.928 42.7037L150.006 43.4502L150.059 43.7449C149.857 43.7477 149.652 43.6997 149.463 43.5973L149.345 43.5331C149.278 43.4965 149.196 43.5021 149.135 43.5467C149.074 43.5912 149.043 43.6669 149.056 43.7415L149.112 44.0477C149.146 44.2356 149.133 44.4228 149.082 44.598L148.812 44.4995L148.26 43.3096C148.214 43.2109 148.097 43.1687 147.998 43.2136C147.899 43.2595 147.856 43.3769 147.902 43.4757L148.288 44.3085L147.586 44.0522L147.649 43.9062C147.693 43.8062 147.647 43.6901 147.547 43.6466C147.447 43.6034 147.33 43.6492 147.287 43.7492L147.214 43.9167L146.961 43.8241L146.644 43.1405C146.598 43.0415 146.48 42.9995 146.382 43.0444C146.283 43.0902 146.24 43.2074 146.286 43.3062L146.438 43.6333L146.142 43.5256C146.217 43.3215 146.111 43.0945 145.907 43.0198L145.536 42.8846C145.332 42.8097 145.105 42.9155 145.031 43.12L144.895 43.4907C144.821 43.6951 144.926 43.9221 145.131 43.9966L145.501 44.1318C145.569 44.1565 145.639 44.1614 145.706 44.1494C145.84 44.1253 145.957 44.0327 146.007 43.8964L146.007 43.8962L146.302 44.0039L145.976 44.1566C145.877 44.2029 145.835 44.3205 145.881 44.419C145.92 44.5018 146.008 44.5451 146.094 44.5296C146.111 44.5266 146.127 44.5214 146.143 44.5141L146.826 44.1947L147.057 44.2792L147.004 44.4017C146.961 44.5017 147.006 44.6178 147.106 44.6611C147.143 44.6772 147.183 44.681 147.22 44.6743C147.282 44.663 147.339 44.6216 147.366 44.5587L147.428 44.4145L148.153 44.6789L147.321 45.0673C147.223 45.1136 147.18 45.231 147.226 45.3297C147.265 45.4125 147.354 45.4558 147.44 45.4403C147.456 45.4374 147.472 45.4322 147.488 45.4249L148.677 44.8699L148.912 44.9557C148.839 45.0603 148.75 45.1559 148.644 45.2353L148.281 45.5065C148.22 45.5512 148.191 45.6259 148.204 45.6995C148.218 45.7731 148.271 45.8329 148.343 45.8538L148.778 45.9808C148.906 46.0182 149.022 46.0766 149.127 46.1492L148.937 46.3118L147.629 46.2072C147.521 46.1986 147.426 46.2794 147.417 46.388C147.408 46.4967 147.489 46.5917 147.598 46.6005L148.513 46.6738L147.927 47.1746L147.818 47.0615C147.742 46.9829 147.617 46.9806 147.539 47.0561C147.46 47.1318 147.458 47.2566 147.533 47.3352L147.626 47.4313L147.439 47.5914L146.687 47.5307C146.579 47.5224 146.484 47.6029 146.475 47.7116C146.466 47.82 146.547 47.9152 146.656 47.9241L147.015 47.9529L146.776 48.1572L146.776 48.157C146.635 47.9919 146.385 47.9719 146.22 48.1133L145.92 48.3695C145.754 48.5108 145.735 48.7602 145.876 48.9257L146.132 49.2259C146.227 49.3366 146.369 49.3818 146.503 49.3577C146.569 49.3457 146.634 49.3165 146.688 49.2697L146.989 49.0132C147.154 48.8718 147.173 48.6224 147.032 48.4573L147.271 48.2529L147.244 48.6124C147.235 48.7211 147.317 48.8157 147.425 48.8242C147.442 48.8255 147.459 48.8245 147.476 48.8215C147.562 48.806 147.63 48.7339 147.637 48.6424L147.695 47.8912L147.9 47.7161L148.027 47.8476C148.074 47.8969 148.141 47.9161 148.204 47.9048C148.241 47.8981 148.277 47.8809 148.306 47.8528C148.384 47.7772 148.387 47.6525 148.311 47.574L148.201 47.4593L148.769 46.9736L148.698 47.889C148.69 47.9975 148.771 48.0925 148.88 48.1008C148.897 48.1021 148.914 48.1013 148.93 48.0983C149.016 48.0828 149.085 48.0107 149.092 47.9192L149.193 46.6116L149.412 46.4246C149.52 46.5714 149.598 46.7423 149.632 46.9302L149.687 47.2363C149.701 47.311 149.756 47.3713 149.829 47.3915C149.902 47.4117 149.98 47.3883 150.03 47.331L150.119 47.2296C150.26 47.0673 150.435 46.9507 150.626 46.8827L150.679 47.1772L149.93 48.2535C149.867 48.3429 149.89 48.466 149.979 48.5281C150.068 48.5905 150.191 48.5683 150.253 48.4789L150.778 47.7257L150.903 48.4202L150.709 48.4552C150.602 48.4746 150.531 48.5772 150.55 48.6844C150.569 48.7918 150.672 48.8629 150.779 48.8435L150.973 48.8085L151.029 49.116L150.598 49.7341C150.536 49.8233 150.557 49.9464 150.647 50.0089C150.736 50.0706 150.859 50.0492 150.922 49.9599L151.128 49.6643L151.183 49.9734C150.969 50.012 150.827 50.2179 150.865 50.4318L150.935 50.8201C150.974 51.0343 151.18 51.177 151.394 51.1384L151.782 51.0683C151.996 51.0297 152.139 50.8241 152.1 50.6099L152.03 50.2216C151.992 50.0076 151.786 49.8647 151.572 49.9034L151.516 49.5943L151.812 49.7992C151.857 49.83 151.91 49.8399 151.96 49.8309C152.01 49.8219 152.056 49.7937 152.087 49.749C152.149 49.6592 152.126 49.5362 152.037 49.4744L151.417 49.046L151.362 48.7384L151.556 48.7034C151.663 48.684 151.734 48.5816 151.715 48.4742C151.695 48.367 151.593 48.2957 151.486 48.3151L151.291 48.3501L151.166 47.6556L151.921 48.178C151.965 48.2091 152.018 48.219 152.068 48.21C152.118 48.201 152.164 48.1732 152.195 48.1281C152.257 48.0387 152.235 47.9156 152.145 47.8536L151.067 47.1072L151.014 46.8126C151.216 46.8098 151.421 46.8579 151.61 46.9602L151.729 47.0245C151.769 47.0463 151.815 47.0529 151.858 47.0451C151.887 47.0399 151.914 47.0285 151.938 47.0109C152 46.9663 152.03 46.8906 152.017 46.8159L151.961 46.5082C151.928 46.3208 151.94 46.1341 151.99 45.9591L152.261 46.0581L152.813 47.2478C152.852 47.331 152.941 47.3746 153.027 47.3591C153.044 47.3562 153.06 47.3511 153.075 47.3438C153.174 47.2981 153.217 47.1807 153.172 47.0819L152.785 46.2491L153.488 46.5054L153.424 46.6514C153.381 46.7514 153.427 46.8674 153.527 46.9107C153.564 46.9269 153.603 46.9306 153.64 46.924C153.703 46.9126 153.759 46.8712 153.786 46.8084L153.859 46.6409L154.113 46.7332L154.429 47.4169C154.468 47.5001 154.557 47.5438 154.643 47.5282C154.659 47.5253 154.675 47.5204 154.691 47.5132C154.79 47.4672 154.833 47.3502 154.787 47.2512L154.636 46.9241L154.931 47.032C154.857 47.2361 154.962 47.4628 155.167 47.5378L155.537 47.673C155.605 47.6977 155.675 47.7026 155.742 47.6906C155.875 47.6665 155.993 47.5743 156.043 47.4376L156.178 47.0667C156.253 46.8622 156.147 46.6354 155.943 46.5608ZM149.436 45.8855C149.277 45.7597 149.092 45.662 148.889 45.6024L148.833 45.5861L148.88 45.5517C149.05 45.4246 149.188 45.2687 149.293 45.0949L149.748 45.2607C149.747 45.3128 149.751 45.3656 149.76 45.4188C149.77 45.472 149.785 45.5231 149.804 45.5715L149.436 45.8855ZM150.555 46.4901C150.357 46.5518 150.17 46.6519 150.006 46.7893C149.954 46.5583 149.851 46.3486 149.713 46.1679L150.041 45.8878C150.164 45.9879 150.315 46.0504 150.478 46.0628L150.555 46.4901L150.555 46.4901ZM150.207 44.5647C150.059 44.6333 149.94 44.7447 149.859 44.8815L149.454 44.7337C149.521 44.516 149.543 44.2836 149.511 44.0491C149.714 44.1201 149.924 44.1487 150.13 44.1375L150.207 44.5647L150.207 44.5647ZM150.519 44.0675C150.716 44.0059 150.903 43.9057 151.068 43.7683C151.12 43.9993 151.222 44.2092 151.36 44.3901L151.033 44.6698C150.91 44.5697 150.759 44.5071 150.596 44.4946L150.519 44.0675ZM151.562 46.5084C151.36 46.4373 151.15 46.4086 150.943 46.4198L150.866 45.9927C151.014 45.9243 151.134 45.8128 151.214 45.6761L151.619 45.8236C151.552 46.0414 151.53 46.2738 151.562 46.5084ZM151.779 45.4621L151.326 45.2969C151.327 45.2447 151.323 45.1917 151.313 45.1385C151.304 45.0853 151.289 45.0345 151.27 44.986L151.636 44.6726C151.796 44.7985 151.979 44.8962 152.182 44.9558L152.237 44.9719L152.191 45.0057C152.022 45.1328 151.884 45.2885 151.779 45.4621Z" fill="white"/>
<path d="M176.675 111.943L176.305 111.808C176.1 111.734 175.873 111.839 175.799 112.043L175.799 112.044L175.503 111.936L175.83 111.783C175.929 111.737 175.971 111.619 175.925 111.521C175.879 111.422 175.762 111.38 175.663 111.426L174.98 111.745L174.749 111.661L174.802 111.538C174.845 111.438 174.8 111.322 174.699 111.279C174.599 111.235 174.483 111.281 174.44 111.381L174.377 111.525L173.653 111.261L174.485 110.872C174.583 110.826 174.626 110.709 174.58 110.61C174.534 110.511 174.416 110.469 174.317 110.515L173.129 111.07L172.893 110.984C172.966 110.879 173.054 110.784 173.16 110.704L173.521 110.434C173.58 110.389 173.61 110.315 173.596 110.241C173.583 110.167 173.53 110.108 173.458 110.087L173.026 109.96C172.899 109.922 172.783 109.864 172.678 109.791L172.869 109.628L174.176 109.733C174.194 109.734 174.211 109.733 174.227 109.73C174.313 109.715 174.382 109.643 174.389 109.552C174.397 109.443 174.316 109.348 174.208 109.339L173.293 109.266L173.879 108.765L173.988 108.878C174.036 108.928 174.103 108.947 174.166 108.935C174.203 108.929 174.238 108.912 174.267 108.883C174.346 108.808 174.348 108.683 174.272 108.605L174.18 108.508L174.367 108.348L175.118 108.409C175.136 108.41 175.153 108.409 175.169 108.406C175.255 108.391 175.323 108.319 175.331 108.228C175.34 108.12 175.259 108.025 175.15 108.016L174.791 107.987L175.03 107.783L175.03 107.783C175.124 107.893 175.267 107.939 175.4 107.915C175.467 107.903 175.531 107.873 175.586 107.826L175.886 107.57C176.052 107.429 176.071 107.179 175.93 107.014L175.674 106.714C175.532 106.548 175.283 106.529 175.117 106.67L174.817 106.927C174.652 107.068 174.632 107.317 174.774 107.483L174.535 107.687L174.562 107.327C174.571 107.219 174.489 107.124 174.38 107.116C174.273 107.108 174.177 107.189 174.169 107.297L174.111 108.048L173.906 108.224L173.779 108.092C173.704 108.014 173.579 108.011 173.5 108.087C173.422 108.163 173.419 108.287 173.495 108.366L173.605 108.481L173.037 108.966L173.108 108.051C173.116 107.942 173.035 107.847 172.926 107.839C172.818 107.831 172.723 107.912 172.714 108.02L172.613 109.328L172.393 109.516C172.285 109.369 172.208 109.199 172.174 109.011L172.119 108.703C172.105 108.629 172.05 108.569 171.977 108.548C171.904 108.528 171.826 108.551 171.776 108.609L171.687 108.71C171.546 108.873 171.371 108.989 171.18 109.057L171.127 108.762L171.876 107.686C171.939 107.597 171.916 107.474 171.827 107.412C171.738 107.349 171.615 107.372 171.552 107.461L171.028 108.214L170.903 107.52L171.097 107.484C171.204 107.465 171.275 107.363 171.256 107.255C171.237 107.148 171.134 107.077 171.027 107.096L170.833 107.131L170.777 106.824L171.208 106.206C171.27 106.116 171.249 105.993 171.159 105.931C171.07 105.869 170.947 105.89 170.884 105.98L170.678 106.276L170.622 105.966C170.837 105.928 170.979 105.722 170.941 105.508L170.871 105.12C170.832 104.906 170.626 104.763 170.412 104.801L170.024 104.871C169.81 104.91 169.667 105.116 169.706 105.33L169.776 105.718C169.814 105.932 170.02 106.075 170.234 106.036L170.29 106.346L169.994 106.141C169.904 106.079 169.781 106.102 169.719 106.191C169.657 106.281 169.68 106.403 169.769 106.466L170.389 106.894L170.444 107.201L170.25 107.236C170.143 107.256 170.072 107.358 170.091 107.465C170.11 107.573 170.213 107.644 170.32 107.625L170.514 107.59L170.64 108.284L169.885 107.762C169.796 107.7 169.673 107.722 169.611 107.812C169.549 107.901 169.571 108.024 169.661 108.086L170.739 108.833L170.792 109.127C170.59 109.13 170.385 109.082 170.195 108.98L170.077 108.915C170.01 108.879 169.929 108.884 169.868 108.929C169.806 108.974 169.775 109.049 169.789 109.124L169.844 109.43C169.878 109.618 169.865 109.805 169.815 109.98L169.545 109.882L168.992 108.692C168.946 108.593 168.829 108.551 168.73 108.596C168.632 108.642 168.589 108.759 168.634 108.858L169.021 109.691L168.318 109.434L168.382 109.289C168.425 109.188 168.379 109.072 168.279 109.029C168.179 108.986 168.063 109.032 168.02 109.132L167.947 109.299L167.693 109.206L167.377 108.523C167.331 108.424 167.213 108.382 167.115 108.427C167.016 108.472 166.973 108.59 167.018 108.689L167.17 109.016L166.875 108.908C166.949 108.704 166.844 108.477 166.639 108.402L166.269 108.267C166.065 108.192 165.837 108.298 165.763 108.502L165.627 108.873C165.553 109.077 165.659 109.304 165.863 109.379L166.234 109.514C166.302 109.539 166.372 109.544 166.438 109.532C166.572 109.508 166.69 109.415 166.74 109.279L166.74 109.278L167.035 109.386L166.708 109.539C166.61 109.585 166.567 109.703 166.613 109.801C166.652 109.884 166.741 109.927 166.827 109.912C166.843 109.909 166.86 109.904 166.876 109.896L167.558 109.577L167.79 109.662L167.736 109.784C167.693 109.884 167.739 110 167.839 110.043C167.876 110.06 167.915 110.063 167.952 110.057C168.015 110.045 168.071 110.004 168.098 109.941L168.161 109.797L168.886 110.061L168.054 110.45C167.955 110.496 167.912 110.613 167.959 110.712C167.997 110.795 168.086 110.838 168.172 110.823C168.188 110.82 168.205 110.815 168.221 110.807L169.409 110.252L169.644 110.338C169.571 110.443 169.483 110.538 169.376 110.618L169.013 110.889C168.953 110.934 168.923 111.008 168.937 111.082C168.95 111.155 169.004 111.215 169.076 111.236L169.511 111.363C169.638 111.4 169.755 111.459 169.86 111.532L169.669 111.694L168.362 111.589C168.254 111.581 168.158 111.662 168.15 111.77C168.141 111.879 168.222 111.974 168.33 111.983L169.246 112.056L168.659 112.557L168.55 112.444C168.475 112.365 168.35 112.363 168.271 112.438C168.193 112.514 168.19 112.639 168.266 112.717L168.358 112.814L168.171 112.974L167.42 112.913C167.311 112.905 167.216 112.985 167.207 113.094C167.198 113.202 167.28 113.298 167.388 113.306L167.748 113.335L167.509 113.54L167.508 113.539C167.367 113.374 167.118 113.354 166.952 113.496L166.652 113.752C166.487 113.893 166.467 114.142 166.608 114.308L166.865 114.608C166.959 114.719 167.102 114.764 167.235 114.74C167.302 114.728 167.366 114.699 167.421 114.652L167.721 114.396C167.886 114.254 167.906 114.005 167.765 113.84L168.004 113.635L167.976 113.995C167.968 114.103 168.049 114.198 168.158 114.207C168.175 114.208 168.192 114.207 168.208 114.204C168.294 114.188 168.363 114.116 168.37 114.025L168.427 113.274L168.632 113.098L168.759 113.23C168.807 113.279 168.874 113.298 168.937 113.287C168.974 113.28 169.009 113.263 169.038 113.235C169.117 113.16 169.119 113.035 169.043 112.956L168.933 112.842L169.502 112.356L169.431 113.271C169.422 113.38 169.504 113.475 169.612 113.483C169.629 113.484 169.646 113.484 169.663 113.481C169.749 113.465 169.817 113.393 169.824 113.302L169.926 111.994L170.145 111.807C170.253 111.954 170.33 112.125 170.364 112.313L170.42 112.619C170.433 112.693 170.488 112.754 170.561 112.774C170.634 112.794 170.713 112.771 170.762 112.713L170.851 112.612C170.992 112.45 171.168 112.333 171.358 112.265L171.411 112.56L170.662 113.636C170.6 113.725 170.622 113.848 170.711 113.91C170.801 113.973 170.924 113.951 170.986 113.861L171.51 113.108L171.636 113.803L171.441 113.838C171.334 113.857 171.263 113.96 171.282 114.067C171.302 114.174 171.404 114.245 171.511 114.226L171.706 114.191L171.761 114.498L171.33 115.116C171.268 115.206 171.29 115.329 171.379 115.391C171.468 115.453 171.592 115.432 171.654 115.342L171.86 115.047L171.916 115.356C171.702 115.394 171.559 115.6 171.598 115.814L171.668 116.202C171.706 116.417 171.912 116.559 172.126 116.521L172.514 116.451C172.729 116.412 172.871 116.206 172.833 115.992L172.763 115.604C172.724 115.39 172.518 115.247 172.304 115.286L172.248 114.977L172.545 115.182C172.589 115.212 172.643 115.222 172.692 115.213C172.742 115.204 172.788 115.176 172.819 115.131C172.881 115.042 172.859 114.919 172.769 114.857L172.149 114.428L172.094 114.121L172.288 114.086C172.395 114.066 172.467 113.964 172.447 113.857C172.428 113.749 172.325 113.678 172.218 113.697L172.024 113.732L171.899 113.038L172.653 113.56C172.698 113.591 172.751 113.601 172.8 113.592C172.85 113.583 172.897 113.555 172.928 113.51C172.99 113.421 172.967 113.298 172.878 113.236L171.8 112.489L171.746 112.195C171.949 112.192 172.154 112.24 172.343 112.343L172.461 112.407C172.501 112.429 172.547 112.435 172.59 112.427C172.619 112.422 172.646 112.411 172.671 112.393C172.732 112.349 172.763 112.273 172.749 112.198L172.694 111.891C172.66 111.703 172.673 111.516 172.723 111.341L172.994 111.44L173.546 112.63C173.584 112.713 173.674 112.757 173.76 112.741C173.776 112.738 173.792 112.733 173.808 112.726C173.907 112.68 173.95 112.563 173.904 112.464L173.518 111.631L174.22 111.888L174.157 112.034C174.113 112.134 174.159 112.25 174.259 112.293C174.296 112.309 174.336 112.313 174.372 112.306C174.435 112.295 174.491 112.254 174.519 112.191L174.591 112.023L174.845 112.116L175.161 112.799C175.2 112.882 175.289 112.926 175.375 112.911C175.392 112.908 175.408 112.903 175.423 112.895C175.522 112.85 175.566 112.732 175.52 112.634L175.368 112.306L175.664 112.414C175.589 112.618 175.695 112.845 175.899 112.92L176.27 113.055C176.337 113.08 176.408 113.085 176.474 113.073C176.608 113.049 176.726 112.957 176.775 112.82L176.911 112.449C176.985 112.245 176.88 112.018 176.675 111.943ZM170.169 111.268C170.009 111.142 169.825 111.044 169.621 110.985L169.566 110.968L169.612 110.934C169.782 110.807 169.921 110.651 170.026 110.477L170.48 110.643C170.479 110.695 170.483 110.748 170.493 110.801C170.502 110.854 170.517 110.905 170.536 110.954L170.169 111.268ZM171.287 111.872C171.09 111.934 170.903 112.034 170.738 112.172C170.686 111.941 170.584 111.731 170.445 111.55L170.773 111.27C170.896 111.37 171.047 111.433 171.21 111.445L171.287 111.872L171.287 111.872ZM170.94 109.947C170.792 110.016 170.672 110.127 170.592 110.264L170.187 110.116C170.253 109.898 170.276 109.666 170.244 109.431C170.446 109.502 170.656 109.531 170.863 109.52L170.94 109.947L170.94 109.947ZM171.251 109.45C171.449 109.388 171.635 109.288 171.8 109.151C171.852 109.382 171.954 109.592 172.093 109.772L171.765 110.052C171.642 109.952 171.491 109.889 171.328 109.877L171.251 109.45ZM172.295 111.891C172.092 111.82 171.882 111.791 171.676 111.802L171.598 111.375C171.747 111.307 171.866 111.195 171.947 111.058L172.351 111.206C172.285 111.424 172.263 111.656 172.295 111.891ZM172.511 110.844L172.058 110.679C172.059 110.627 172.055 110.574 172.046 110.521C172.036 110.468 172.021 110.417 172.002 110.368L172.369 110.055C172.528 110.181 172.712 110.279 172.915 110.338L172.969 110.354L172.924 110.388C172.754 110.515 172.617 110.671 172.511 110.844Z" fill="white"/>
<path d="M46.6618 85.3254L46.2909 85.19C46.0865 85.1162 45.8594 85.2216 45.7851 85.4256L45.7849 85.4259L45.4896 85.318L45.8161 85.1654C45.915 85.1191 45.9576 85.0016 45.9113 84.9031C45.8652 84.8043 45.7481 84.7619 45.6491 84.8078L44.9664 85.1273L44.7351 85.0428L44.7881 84.9203C44.8316 84.8203 44.7858 84.7042 44.6857 84.6607C44.5853 84.6175 44.4695 84.6633 44.4262 84.7633L44.3636 84.9073L43.6391 84.6431L44.4709 84.2546C44.5694 84.2084 44.6122 84.091 44.5661 83.9923C44.52 83.8935 44.4023 83.851 44.3037 83.8971L43.1154 84.4521L42.8791 84.3659C42.952 84.2611 43.0405 84.1657 43.1468 84.086L43.507 83.8161C43.5667 83.7715 43.596 83.6968 43.5827 83.6232C43.5694 83.5497 43.516 83.4901 43.4444 83.4692L43.0125 83.3418C42.8851 83.3045 42.769 83.246 42.664 83.1736L42.8552 83.0102L44.1626 83.1148C44.18 83.1161 44.1971 83.1152 44.2136 83.1122C44.2994 83.0968 44.3679 83.0251 44.3751 82.9339C44.3838 82.8253 44.3027 82.7303 44.1942 82.7214L43.2791 82.6482L43.8655 82.1472L43.9745 82.2605C44.0221 82.3098 44.0891 82.329 44.1518 82.3177C44.1889 82.311 44.2243 82.2938 44.2535 82.2657C44.3321 82.1901 44.3344 82.0654 44.2587 81.9869L44.1662 81.8907L44.3534 81.7306L45.1048 81.7913C45.1222 81.7925 45.1393 81.7917 45.1558 81.7887C45.2416 81.7732 45.3097 81.7016 45.3171 81.6104C45.326 81.502 45.2451 81.4067 45.1362 81.3979L44.7769 81.3689L45.016 81.1648L45.0162 81.165C45.1105 81.2752 45.2532 81.3209 45.3868 81.2968C45.4532 81.2848 45.5175 81.2555 45.5724 81.2085L45.8726 80.9525C46.038 80.8112 46.0575 80.5617 45.9161 80.3961L45.6599 80.0961C45.5188 79.9306 45.2689 79.9109 45.1037 80.0524L44.8034 80.3088C44.6384 80.4501 44.6187 80.6996 44.76 80.8648L44.5209 81.0689L44.5485 80.7095C44.557 80.6009 44.4755 80.5061 44.3668 80.4979C44.2595 80.49 44.1632 80.5707 44.155 80.6795L44.0974 81.4306L43.8921 81.606L43.7654 81.4745C43.6898 81.3959 43.5649 81.3936 43.4865 81.4691C43.408 81.5448 43.4056 81.6695 43.4812 81.7481L43.5914 81.8627L43.0229 82.3484L43.0939 81.4331C43.1022 81.3245 43.0209 81.2296 42.9123 81.2211C42.8043 81.2135 42.709 81.2941 42.7003 81.4027L42.5991 82.7104L42.3795 82.8978C42.2717 82.7514 42.1944 82.5809 42.1606 82.3934L42.105 82.0856C42.0916 82.011 42.0364 81.9508 41.9634 81.9305C41.8904 81.9102 41.8122 81.9336 41.7622 81.9911L41.6737 82.0925C41.5322 82.2547 41.3569 82.3714 41.1665 82.4394L41.1133 82.1447L41.8626 81.0684C41.925 80.9792 41.9028 80.8561 41.8134 80.7938C41.7242 80.7315 41.6013 80.7537 41.5388 80.843L41.0144 81.5964L40.889 80.9017L41.0832 80.8667C41.1905 80.8473 41.2617 80.7449 41.2423 80.6375C41.2229 80.5303 41.1205 80.459 41.0131 80.4784L40.819 80.5134L40.7635 80.2061L41.1944 79.588C41.2567 79.4986 41.2349 79.3756 41.1454 79.3132C41.0562 79.2511 40.933 79.2725 40.8706 79.3622L40.6645 79.6577L40.6087 79.3485C40.8229 79.3098 40.9656 79.1042 40.927 78.8901L40.8569 78.5018C40.8183 78.2878 40.6127 78.1449 40.3985 78.1835L40.0102 78.2536C39.7962 78.2922 39.6533 78.498 39.6919 78.712L39.762 79.1003C39.8007 79.3145 40.0064 79.4572 40.2204 79.4186L40.2762 79.7279L39.9798 79.5229C39.8903 79.4609 39.7673 79.4839 39.7052 79.5731C39.6434 79.6629 39.666 79.7857 39.7554 79.8477L40.3752 80.2762L40.4306 80.5835L40.2365 80.6185C40.1291 80.6379 40.058 80.7405 40.0774 80.8477C40.0967 80.9551 40.1992 81.0262 40.3066 81.0068L40.5007 80.9718L40.6261 81.6664L39.8714 81.1439C39.7821 81.0822 39.6591 81.104 39.5969 81.1938C39.5351 81.2833 39.5573 81.4064 39.6468 81.4682L40.725 82.2147L40.7782 82.5094C40.576 82.5122 40.3711 82.4642 40.1818 82.3619L40.0634 82.2976C39.9964 82.261 39.915 82.2666 39.8539 82.3112C39.7924 82.3558 39.7617 82.4315 39.7752 82.506L39.8304 82.8122C39.8643 83.0001 39.8514 83.1873 39.8012 83.3625L39.5309 83.264L38.9787 82.0742C38.9328 81.9754 38.8154 81.9332 38.7166 81.9781C38.6178 82.024 38.5749 82.1414 38.6208 82.2402L39.007 83.073L38.3046 82.8167L38.3679 82.6708C38.4114 82.5707 38.3656 82.4547 38.2655 82.4112C38.1653 82.3679 38.049 82.4137 38.0059 82.5137L37.9331 82.6813L37.6796 82.5887L37.363 81.905C37.3171 81.8061 37.199 81.764 37.1011 81.809C37.0021 81.8547 36.9591 81.9719 37.0048 82.0707L37.1564 82.3978L36.8609 82.2901C36.9356 82.086 36.8301 81.8591 36.6257 81.7843L36.2549 81.6491C36.0509 81.5743 35.8236 81.68 35.7493 81.8845L35.6137 82.2552C35.5393 82.4597 35.645 82.6866 35.8493 82.7612L36.2199 82.8964C36.2879 82.921 36.3582 82.9259 36.4246 82.914C36.5583 82.8898 36.676 82.7972 36.7259 82.6609L36.7259 82.6607L37.0212 82.7684L36.6947 82.9211C36.596 82.9674 36.5533 83.085 36.5995 83.1835C36.6383 83.2663 36.7271 83.3096 36.8131 83.2941C36.8296 83.2911 36.846 83.286 36.8619 83.2787L37.5444 82.9592L37.776 83.0438L37.7227 83.1662C37.6794 83.2663 37.7252 83.3823 37.8252 83.4256C37.8622 83.4418 37.9016 83.4455 37.9385 83.4388C38.0012 83.4275 38.0575 83.3861 38.0846 83.3233L38.1472 83.179L38.8719 83.4434L38.0401 83.8319C37.9414 83.8782 37.8986 83.9955 37.9449 84.0942C37.9835 84.1771 38.0725 84.2204 38.1583 84.2049C38.1748 84.2019 38.1911 84.1967 38.2071 84.1894L39.3954 83.6344L39.6306 83.7202C39.5575 83.8249 39.4689 83.9204 39.3623 83.9998L38.9993 84.271C38.9392 84.3157 38.9097 84.3904 38.923 84.464C38.9363 84.5376 38.99 84.5975 39.0619 84.6184L39.4968 84.7454C39.6245 84.7827 39.7408 84.8411 39.846 84.9137L39.6556 85.0764L38.3482 84.9717C38.24 84.9631 38.1445 85.0439 38.1359 85.1525C38.127 85.2612 38.2081 85.3562 38.3168 85.3651L39.2319 85.4383L38.6453 85.9391L38.5363 85.8261C38.4609 85.7474 38.3358 85.7452 38.2574 85.8206C38.1789 85.8964 38.1765 86.0211 38.2521 86.0997L38.3448 86.1958L38.1574 86.3559L37.4062 86.2952C37.2977 86.2869 37.2026 86.3675 37.1937 86.4761C37.1848 86.5846 37.2659 86.6798 37.3746 86.6886L37.7338 86.7174L37.4949 86.9218L37.4948 86.9215C37.3535 86.7564 37.1042 86.7364 36.9384 86.8778L36.6384 87.134C36.4731 87.2754 36.4533 87.5247 36.5947 87.6903L36.8511 87.9904C36.9455 88.1011 37.0882 88.1463 37.2217 88.1222C37.2881 88.1102 37.3524 88.081 37.4071 88.0342L37.7077 87.7777C37.8726 87.6363 37.8922 87.387 37.7509 87.2218L37.9901 87.0175L37.9623 87.3769C37.9541 87.4856 38.0353 87.5803 38.1441 87.5887C38.1612 87.59 38.178 87.589 38.1943 87.5861C38.2805 87.5705 38.3489 87.4984 38.3559 87.4069L38.4136 86.6558L38.6187 86.4806L38.7455 86.6121C38.7931 86.6615 38.8601 86.6806 38.9228 86.6693C38.9599 86.6626 38.9953 86.6454 39.0245 86.6173C39.1031 86.5418 39.1054 86.417 39.0297 86.3385L38.9194 86.2239L39.488 85.7382L39.4172 86.6535C39.4087 86.7621 39.49 86.857 39.5985 86.8653C39.6158 86.8666 39.6327 86.8658 39.649 86.8629C39.7352 86.8473 39.8034 86.7753 39.8105 86.6837L39.912 85.3762L40.1308 85.1891C40.2391 85.336 40.3167 85.5068 40.3506 85.6948L40.4058 86.0008C40.4193 86.0756 40.4745 86.1358 40.5477 86.1561C40.6205 86.1762 40.6989 86.1528 40.7487 86.0955L40.8373 85.9941C40.9788 85.8319 41.154 85.7152 41.3444 85.6472L41.3976 85.9417L40.6483 87.018C40.5861 87.1074 40.6083 87.2305 40.6975 87.2926C40.7869 87.355 40.9098 87.3328 40.9721 87.2434L41.4965 86.4902L41.6219 87.1847L41.4277 87.2198C41.3204 87.2391 41.2493 87.3418 41.2686 87.4489C41.288 87.5563 41.3904 87.6274 41.4978 87.608L41.6919 87.573L41.7474 87.8806L41.3165 88.4986C41.2544 88.5878 41.2762 88.711 41.3655 88.7734C41.4546 88.8351 41.5778 88.8137 41.6403 88.7245L41.8464 88.4289L41.9022 88.738C41.6882 88.7766 41.5453 88.9824 41.5839 89.1963L41.654 89.5847C41.6926 89.7988 41.8984 89.9415 42.1124 89.9029L42.5007 89.8328C42.7149 89.7942 42.8576 89.5886 42.819 89.3744L42.7489 88.9861C42.7103 88.7722 42.5047 88.6292 42.2905 88.6679L42.2347 88.3588L42.5311 88.5637C42.5758 88.5946 42.6289 88.6044 42.6784 88.5955C42.7283 88.5865 42.7747 88.5582 42.8057 88.5135C42.8677 88.4238 42.8451 88.3007 42.7556 88.2389L42.1358 87.8105L42.0803 87.503L42.2744 87.4679C42.3818 87.4485 42.4529 87.3461 42.4335 87.2387C42.4142 87.1316 42.3117 87.0603 42.2043 87.0796L42.0102 87.1147L41.8849 86.4202L42.6395 86.9425C42.6842 86.9736 42.7371 86.9835 42.7868 86.9745C42.8365 86.9655 42.883 86.9377 42.914 86.8926C42.976 86.8032 42.9538 86.6801 42.864 86.6182L41.7859 85.8717L41.7327 85.5772C41.9349 85.5744 42.1398 85.6224 42.3291 85.7247L42.4476 85.789C42.4878 85.8108 42.5335 85.8174 42.5766 85.8096C42.6053 85.8044 42.6327 85.7931 42.6572 85.7754C42.7186 85.7309 42.7492 85.6552 42.7357 85.5804L42.6802 85.2727C42.6463 85.0853 42.6592 84.8986 42.709 84.7236L42.9802 84.8226L43.5321 86.0123C43.5708 86.0955 43.6601 86.1392 43.7461 86.1236C43.7624 86.1207 43.7785 86.1156 43.7942 86.1083C43.893 86.0626 43.936 85.9452 43.8903 85.8464L43.5039 85.0136L44.2063 85.2699L44.143 85.4159C44.0997 85.5159 44.1455 85.6319 44.2455 85.6752C44.2826 85.6914 44.3219 85.6951 44.3588 85.6885C44.4215 85.6772 44.4778 85.6357 44.5049 85.5729L44.5778 85.4054L44.8314 85.4977L45.1478 86.1814C45.1865 86.2646 45.2757 86.3083 45.3618 86.2928C45.3781 86.2898 45.3942 86.2849 45.4098 86.2777C45.5087 86.2317 45.552 86.1147 45.506 86.0157L45.3546 85.6886L45.6499 85.7965C45.5753 86.0006 45.681 86.2273 45.8853 86.3023L46.256 86.4375C46.3237 86.4622 46.394 86.4671 46.4604 86.4552C46.5942 86.431 46.712 86.3388 46.7618 86.2021L46.8971 85.8312C46.9715 85.6267 46.8661 85.4 46.6618 85.3254ZM40.1549 84.65C39.9955 84.5242 39.8112 84.4265 39.6074 84.3669L39.5522 84.3506L39.5983 84.3162C39.7684 84.1891 39.9069 84.0332 40.0122 83.8594L40.4665 84.0252C40.4653 84.0773 40.4693 84.1302 40.4789 84.1834C40.4885 84.2366 40.5033 84.2876 40.5226 84.336L40.1549 84.65ZM41.2736 85.2546C41.0761 85.3163 40.8892 85.4164 40.7246 85.5538C40.6725 85.3228 40.5701 85.1132 40.4318 84.9324L40.7595 84.6523C40.8826 84.7524 41.0337 84.815 41.1965 84.8273L41.2736 85.2546L41.2736 85.2546ZM40.9261 83.3292C40.778 83.3978 40.6583 83.5092 40.578 83.646L40.173 83.4982C40.2394 83.2805 40.262 83.0481 40.2301 82.8137C40.4324 82.8846 40.6424 82.9133 40.8491 82.902L40.9262 83.3292L40.9261 83.3292ZM41.2374 82.832C41.4349 82.7705 41.6217 82.6702 41.7864 82.5328C41.8385 82.7638 41.9405 82.9737 42.0788 83.1547L41.7514 83.4343C41.6283 83.3342 41.4773 83.2717 41.3144 83.2591L41.2374 82.832ZM42.2809 85.2729C42.0786 85.2018 41.8686 85.1731 41.6619 85.1844L41.5848 84.7572C41.733 84.6888 41.8527 84.5774 41.933 84.4406L42.3374 84.5882C42.2712 84.806 42.249 85.0383 42.2809 85.2729ZM42.4976 84.2266L42.0444 84.0614C42.0456 84.0093 42.0417 83.9563 42.0321 83.9031C42.0225 83.8499 42.0077 83.799 41.9883 83.7506L42.3552 83.4372C42.5144 83.563 42.698 83.6608 42.901 83.7204L42.9555 83.7364L42.91 83.7703C42.7405 83.8973 42.6029 84.0531 42.4976 84.2266Z" fill="white"/>
<path d="M81.5517 123.133L81.1808 122.998C80.9764 122.924 80.7493 123.029 80.675 123.233L80.6748 123.233L80.3795 123.126L80.706 122.973C80.8049 122.927 80.8475 122.809 80.8012 122.711C80.7551 122.612 80.638 122.57 80.539 122.615L79.8563 122.935L79.6249 122.85L79.678 122.728C79.7215 122.628 79.6757 122.512 79.5756 122.468C79.4752 122.425 79.3594 122.471 79.3161 122.571L79.2535 122.715L78.529 122.451L79.3608 122.062C79.4593 122.016 79.5021 121.899 79.456 121.8C79.4099 121.701 79.2922 121.659 79.1936 121.705L78.0053 122.26L77.769 122.173C77.8419 122.069 77.9304 121.973 78.0367 121.894L78.3969 121.624C78.4566 121.579 78.4859 121.504 78.4726 121.431C78.4593 121.357 78.4059 121.298 78.3343 121.277L77.9024 121.149C77.7749 121.112 77.6589 121.054 77.5539 120.981L77.7451 120.818L79.0525 120.922C79.0699 120.924 79.087 120.923 79.1035 120.92C79.1893 120.904 79.2578 120.833 79.265 120.742C79.2736 120.633 79.1926 120.538 79.0841 120.529L78.169 120.456L78.7554 119.955L78.8644 120.068C78.912 120.117 78.979 120.137 79.0417 120.125C79.0788 120.119 79.1142 120.101 79.1434 120.073C79.222 119.998 79.2243 119.873 79.1486 119.794L79.0561 119.698L79.2433 119.538L79.9946 119.599C80.0121 119.6 80.0292 119.599 80.0457 119.596C80.1315 119.581 80.1996 119.509 80.207 119.418C80.2159 119.31 80.1349 119.214 80.0261 119.206L79.6668 119.177L79.9059 118.972L79.9061 118.973C80.0004 119.083 80.1431 119.128 80.2767 119.104C80.3431 119.092 80.4074 119.063 80.4623 119.016L80.7625 118.76C80.9279 118.619 80.9474 118.369 80.806 118.204L80.5498 117.904C80.4087 117.738 80.1587 117.718 79.9936 117.86L79.6933 118.116C79.5283 118.258 79.5086 118.507 79.6499 118.672L79.4108 118.877L79.4384 118.517C79.4469 118.409 79.3654 118.314 79.2567 118.306C79.1494 118.298 79.0531 118.378 79.0448 118.487L78.9873 119.238L78.782 119.414L78.6553 119.282C78.5797 119.204 78.4548 119.201 78.3764 119.277C78.2979 119.352 78.2955 119.477 78.371 119.556L78.4813 119.67L77.9128 120.156L77.9838 119.241C77.9921 119.132 77.9108 119.037 77.8022 119.029C77.6942 119.021 77.5989 119.102 77.5902 119.21L77.489 120.518L77.2694 120.705C77.1616 120.559 77.0843 120.389 77.0505 120.201L76.9949 119.893C76.9815 119.819 76.9263 119.758 76.8533 119.738C76.7802 119.718 76.7021 119.741 76.6521 119.799L76.5636 119.9C76.422 120.062 76.2468 120.179 76.0564 120.247L76.0032 119.952L76.7524 118.876C76.8149 118.787 76.7927 118.664 76.7033 118.601C76.6141 118.539 76.4912 118.561 76.4287 118.651L75.9043 119.404L75.7789 118.709L75.9731 118.674C76.0804 118.655 76.1515 118.552 76.1322 118.445C76.1128 118.338 76.0104 118.267 75.903 118.286L75.7088 118.321L75.6534 118.014L76.0843 117.396C76.1466 117.306 76.1248 117.183 76.0353 117.121C75.9461 117.059 75.8229 117.08 75.7605 117.17L75.5544 117.465L75.4986 117.156C75.7128 117.117 75.8555 116.912 75.8169 116.698L75.7468 116.309C75.7082 116.095 75.5026 115.953 75.2884 115.991L74.9001 116.061C74.6861 116.1 74.5432 116.306 74.5818 116.52L74.6519 116.908C74.6906 117.122 74.8963 117.265 75.1103 117.226L75.1661 117.535L74.8697 117.331C74.7802 117.269 74.6572 117.292 74.5951 117.381C74.5333 117.47 74.5559 117.593 74.6453 117.655L75.2651 118.084L75.3205 118.391L75.1264 118.426C75.019 118.446 74.9479 118.548 74.9673 118.655C74.9866 118.763 75.0891 118.834 75.1964 118.814L75.3906 118.779L75.516 119.474L74.7613 118.951C74.672 118.89 74.549 118.912 74.4868 119.001C74.425 119.091 74.4472 119.214 74.5367 119.276L75.6149 120.022L75.6681 120.317C75.4659 120.32 75.261 120.272 75.0717 120.169L74.9532 120.105C74.8863 120.069 74.8049 120.074 74.7438 120.119C74.6823 120.163 74.6516 120.239 74.6651 120.314L74.7203 120.62C74.7542 120.808 74.7413 120.995 74.6911 121.17L74.4207 121.072L73.8686 119.882C73.8227 119.783 73.7053 119.741 73.6065 119.786C73.5077 119.832 73.4648 119.949 73.5107 120.048L73.8969 120.881L73.1945 120.624L73.2578 120.478C73.3013 120.378 73.2555 120.262 73.1554 120.219C73.0551 120.176 72.9389 120.221 72.8958 120.321L72.823 120.489L72.5695 120.396L72.2529 119.713C72.207 119.614 72.0889 119.572 71.991 119.617C71.892 119.662 71.849 119.78 71.8947 119.878L72.0463 120.205L71.7508 120.098C71.8255 119.894 71.72 119.667 71.5156 119.592L71.1448 119.457C70.9408 119.382 70.7135 119.488 70.6391 119.692L70.5036 120.063C70.4292 120.267 70.5349 120.494 70.7392 120.569L71.1098 120.704C71.1778 120.729 71.2481 120.734 71.3145 120.722C71.4482 120.697 71.5659 120.605 71.6158 120.469L71.6158 120.468L71.9111 120.576L71.5846 120.729C71.4859 120.775 71.4432 120.893 71.4894 120.991C71.5282 121.074 71.617 121.117 71.703 121.102C71.7195 121.099 71.7358 121.094 71.7518 121.086L72.4343 120.767L72.6658 120.851L72.6126 120.974C72.5693 121.074 72.6151 121.19 72.7151 121.233C72.7521 121.249 72.7915 121.253 72.8284 121.246C72.8911 121.235 72.9474 121.194 72.9745 121.131L73.0371 120.987L73.7618 121.251L72.93 121.639C72.8313 121.686 72.7885 121.803 72.8348 121.902C72.8734 121.985 72.9624 122.028 73.0482 122.012C73.0647 122.01 73.081 122.004 73.097 121.997L74.2853 121.442L74.5205 121.528C74.4473 121.632 74.3588 121.728 74.2522 121.807L73.8891 122.079C73.8291 122.123 73.7996 122.198 73.8129 122.272C73.8262 122.345 73.8799 122.405 73.9518 122.426L74.3867 122.553C74.5144 122.59 74.6307 122.649 74.7359 122.721L74.5455 122.884L73.2381 122.779C73.1299 122.771 73.0344 122.852 73.0258 122.96C73.0169 123.069 73.098 123.164 73.2067 123.173L74.1218 123.246L73.5352 123.747L73.4262 123.634C73.3508 123.555 73.2257 123.553 73.1473 123.628C73.0688 123.704 73.0664 123.829 73.1419 123.907L73.2347 124.003L73.0473 124.164L72.2961 124.103C72.1876 124.095 72.0924 124.175 72.0836 124.284C72.0747 124.392 72.1558 124.487 72.2645 124.496L72.6237 124.525L72.3847 124.729L72.3847 124.729C72.2434 124.564 71.9941 124.544 71.8283 124.685L71.5283 124.942C71.363 125.083 71.3432 125.332 71.4846 125.498L71.741 125.798C71.8354 125.909 71.9781 125.954 72.1116 125.93C72.178 125.918 72.2423 125.889 72.297 125.842L72.5976 125.585C72.7625 125.444 72.7821 125.195 72.6408 125.029L72.88 124.825L72.8522 125.185C72.844 125.293 72.9252 125.388 73.034 125.396C73.0511 125.398 73.0679 125.397 73.0842 125.394C73.1704 125.378 73.2388 125.306 73.2458 125.215L73.3035 124.463L73.5086 124.288L73.6354 124.42C73.683 124.469 73.75 124.488 73.8127 124.477C73.8498 124.47 73.8852 124.453 73.9144 124.425C73.993 124.349 73.9953 124.225 73.9196 124.146L73.8093 124.031L74.3778 123.546L74.3071 124.461C74.2986 124.57 74.3799 124.665 74.4884 124.673C74.5057 124.674 74.5226 124.673 74.5389 124.67C74.6251 124.655 74.6933 124.583 74.7004 124.491L74.8019 123.184L75.0207 122.997C75.129 123.144 75.2066 123.314 75.2405 123.502L75.2957 123.808C75.3092 123.883 75.3644 123.943 75.4376 123.964C75.5104 123.984 75.5888 123.96 75.6386 123.903L75.7271 123.802C75.8687 123.639 76.0439 123.523 76.2343 123.455L76.2875 123.749L75.5382 124.826C75.476 124.915 75.4982 125.038 75.5874 125.1C75.6768 125.163 75.7997 125.14 75.862 125.051L76.3864 124.298L76.5118 124.992L76.3176 125.027C76.2102 125.047 76.1392 125.149 76.1585 125.257C76.1779 125.364 76.2803 125.435 76.3877 125.416L76.5818 125.381L76.6373 125.688L76.2064 126.306C76.1443 126.395 76.1661 126.519 76.2554 126.581C76.3445 126.643 76.4677 126.621 76.5302 126.532L76.7363 126.236L76.7921 126.546C76.5781 126.584 76.4352 126.79 76.4738 127.004L76.5439 127.392C76.5825 127.606 76.7883 127.749 77.0023 127.711L77.3906 127.64C77.6047 127.602 77.7475 127.396 77.7088 127.182L77.6388 126.794C77.6002 126.58 77.3945 126.437 77.1804 126.475L77.1246 126.166L77.421 126.371C77.4656 126.402 77.5188 126.412 77.5683 126.403C77.6182 126.394 77.6646 126.366 77.6956 126.321C77.7576 126.231 77.735 126.108 77.6454 126.047L77.0256 125.618L76.9702 125.311L77.1643 125.276C77.2717 125.256 77.3428 125.154 77.3234 125.046C77.3041 124.939 77.2016 124.868 77.0942 124.887L76.9001 124.922L76.7748 124.228L77.5294 124.75C77.5741 124.781 77.627 124.791 77.6767 124.782C77.7264 124.773 77.7729 124.745 77.8039 124.7C77.8659 124.611 77.8437 124.488 77.7539 124.426L76.6758 123.679L76.6226 123.385C76.8248 123.382 77.0297 123.43 77.219 123.532L77.3375 123.597C77.3777 123.618 77.4234 123.625 77.4665 123.617C77.4952 123.612 77.5226 123.601 77.5471 123.583C77.6084 123.538 77.6391 123.463 77.6256 123.388L77.5701 123.08C77.5362 122.893 77.5491 122.706 77.5989 122.531L77.8701 122.63L78.422 123.82C78.4607 123.903 78.55 123.947 78.636 123.931C78.6523 123.928 78.6684 123.923 78.6841 123.916C78.7829 123.87 78.8259 123.753 78.7802 123.654L78.3937 122.821L79.0962 123.078L79.0329 123.223C78.9896 123.324 79.0354 123.44 79.1354 123.483C79.1724 123.499 79.2118 123.503 79.2487 123.496C79.3114 123.485 79.3677 123.443 79.3948 123.381L79.4676 123.213L79.7213 123.305L80.0377 123.989C80.0764 124.072 80.1656 124.116 80.2517 124.1C80.268 124.097 80.2841 124.093 80.2997 124.085C80.3986 124.039 80.4419 123.922 80.3959 123.823L80.2445 123.496L80.5398 123.604C80.4652 123.808 80.5709 124.035 80.7752 124.11L81.1459 124.245C81.2136 124.27 81.2839 124.275 81.3503 124.263C81.4841 124.239 81.6019 124.146 81.6517 124.01L81.787 123.639C81.8614 123.434 81.756 123.208 81.5517 123.133ZM75.0448 122.458C74.8854 122.332 74.7011 122.234 74.4973 122.175L74.442 122.158L74.4882 122.124C74.6583 121.997 74.7967 121.841 74.9021 121.667L75.3564 121.833C75.3552 121.885 75.3592 121.938 75.3688 121.991C75.3784 122.044 75.3932 122.095 75.4125 122.144L75.0448 122.458ZM76.1635 123.062C75.9659 123.124 75.7791 123.224 75.6145 123.361C75.5624 123.13 75.46 122.921 75.3217 122.74L75.6494 122.46C75.7725 122.56 75.9236 122.623 76.0864 122.635L76.1635 123.062L76.1635 123.062ZM75.816 121.137C75.6678 121.205 75.5482 121.317 75.4679 121.454L75.0629 121.306C75.1293 121.088 75.1519 120.856 75.12 120.621C75.3223 120.692 75.5323 120.721 75.739 120.71L75.8161 121.137L75.816 121.137ZM76.1273 120.64C76.3248 120.578 76.5116 120.478 76.6763 120.34C76.7284 120.571 76.8304 120.781 76.9687 120.962L76.6413 121.242C76.5182 121.142 76.3672 121.079 76.2043 121.067L76.1273 120.64ZM77.1708 123.081C76.9685 123.009 76.7585 122.981 76.5518 122.992L76.4747 122.565C76.6229 122.496 76.7426 122.385 76.8229 122.248L77.2273 122.396C77.1611 122.614 77.1389 122.846 77.1708 123.081ZM77.3875 122.034L76.9343 121.869C76.9355 121.817 76.9316 121.764 76.922 121.711C76.9124 121.657 76.8976 121.607 76.8782 121.558L77.2451 121.245C77.4043 121.371 77.5879 121.468 77.7909 121.528L77.8454 121.544L77.7999 121.578C77.6304 121.705 77.4927 121.861 77.3875 122.034Z" fill="white"/>
<defs>
<filter id="filter0_d_377_2220" x="72.6558" y="64.7609" width="90.8601" height="32.4099" filterUnits="userSpaceOnUse" color-interpolation-filters="sRGB">
<feFlood flood-opacity="0" result="BackgroundImageFix"/>
<feColorMatrix in="SourceAlpha" type="matrix" values="0 0 0 0 0 0 0 0 0 0 0 0 0 0 0 0 0 0 127 0" result="hardAlpha"/>
<feOffset dy="2.03486"/>
<feComposite in2="hardAlpha" operator="out"/>
<feColorMatrix type="matrix" values="0 0 0 0 0 0 0 0 0 0 0 0 0 0 0 0 0 0 0.16 0"/>
<feBlend mode="normal" in2="BackgroundImageFix" result="effect1_dropShadow_377_2220"/>
<feBlend mode="normal" in="SourceGraphic" in2="effect1_dropShadow_377_2220" result="shape"/>
</filter>
</defs>
</svg>
