<svg viewBox="0 0 1440 106" fill="none" xmlns="http://www.w3.org/2000/svg">
<path d="M0 73.9223V97.1079H1440V29.6998C1427.08 66.5519 1236.92 67.4741 1146.46 22.3303C1076.31 -12.6791 985.544 -5.59385 906.462 37.0711C838.154 73.923 585.231 44.4415 516.923 22.3303C428.308 -6.35448 354.464 29.6998 276.923 55.4971C216 75.7657 190.154 42.3136 107.077 29.6998C47.9464 20.7219 12.3077 50.5827 0 73.9223Z" fill="#F1F1F1"/>
<path d="M1440 75.739V105.108H0V32.2951C12.9231 68.4983 144 69.4043 234.462 25.0554C304.615 -9.33768 363.994 -9.61994 443.077 32.2939C511.385 68.497 692.308 35.7133 760.615 13.9914C849.231 -14.1884 926.767 24.8961 1004.31 50.2392C1065.23 70.1509 1179.69 44.6856 1262.77 32.2939C1321.9 23.474 1427.69 52.8103 1440 75.739Z" fill="white"/>
</svg>
