<svg width="366" height="312" viewBox="0 0 366 312" fill="none" xmlns="http://www.w3.org/2000/svg">
<path d="M152 115L153.544 125.456L164 127L153.544 128.544L152 139L150.456 128.544L140 127L150.456 125.456L152 115Z" fill="#EBEBEB"/>
<path d="M109 0L110.544 10.4557L121 12L110.544 13.5443L109 24L107.456 13.5443L97 12L107.456 10.4557L109 0Z" fill="#EBEBEB"/>
<path d="M296 253L297.544 263.456L308 265L297.544 266.544L296 277L294.456 266.544L284 265L294.456 263.456L296 253Z" fill="#EBEBEB"/>
<path d="M354 188L355.544 198.456L366 200L355.544 201.544L354 212L352.456 201.544L342 200L352.456 198.456L354 188Z" fill="#EBEBEB"/>
<path d="M43 286L44.5443 296.456L55 298L44.5443 299.544L43 310L41.4557 299.544L31 298L41.4557 296.456L43 286Z" fill="#EBEBEB"/>
<path d="M12 223L13.5443 233.456L24 235L13.5443 236.544L12 247L10.4557 236.544L0 235L10.4557 233.456L12 223Z" fill="#EBEBEB"/>
<path d="M29 263L30.8102 269.19L37 271L30.8102 272.81L29 279L27.1898 272.81L21 271L27.1898 269.19L29 263Z" fill="#F7F7F7"/>
<path d="M188 147L189.81 153.19L196 155L189.81 156.81L188 163L186.19 156.81L180 155L186.19 153.19L188 147Z" fill="#F7F7F7"/>
<path d="M315 205L316.81 211.19L323 213L316.81 214.81L315 221L313.19 214.81L307 213L313.19 211.19L315 205Z" fill="#F7F7F7"/>
<path d="M249 287L250.81 293.19L257 295L250.81 296.81L249 303L247.19 296.81L241 295L247.19 293.19L249 287Z" fill="#F7F7F7"/>
<path d="M353 51L354.81 57.1898L361 59L354.81 60.8102L353 67L351.19 60.8102L345 59L351.19 57.1898L353 51Z" fill="#F7F7F7"/>
<path d="M356 289L357.81 295.19L364 297L357.81 298.81L356 305L354.19 298.81L348 297L354.19 295.19L356 289Z" fill="#F7F7F7"/>
<path d="M197 0L198.81 6.18981L205 8L198.81 9.81019L197 16L195.19 9.81019L189 8L195.19 6.18981L197 0Z" fill="#F7F7F7"/>
<path d="M282 67L283.81 73.1898L290 75L283.81 76.8102L282 83L280.19 76.8102L274 75L280.19 73.1898L282 67Z" fill="#F7F7F7"/>
<path d="M63 0L64.8102 6.18981L71 8L64.8102 9.81019L63 16L61.1898 9.81019L55 8L61.1898 6.18981L63 0Z" fill="#F7F7F7"/>
<path d="M93 296L94.8102 302.19L101 304L94.8102 305.81L93 312L91.1898 305.81L85 304L91.1898 302.19L93 296Z" fill="#F7F7F7"/>
<path d="M60 225L61.8102 231.19L68 233L61.8102 234.81L60 241L58.1898 234.81L52 233L58.1898 231.19L60 225Z" fill="#F7F7F7"/>
<path d="M268 233L269.81 239.19L276 241L269.81 242.81L268 249L266.19 242.81L260 241L266.19 239.19L268 233Z" fill="#F7F7F7"/>
</svg>
