<svg width="224" height="159" viewBox="0 0 224 159" fill="none" xmlns="http://www.w3.org/2000/svg">
<g filter="url(#filter0_d_321_1589)">
<path d="M15.6063 137.559L17.3601 111.6L3.24016 31.2821L104.532 21.8783L205.022 0.000456062L204.249 60.4398L216.749 122.632L40.4277 153.378L15.6063 137.559Z" fill="white"/>
</g>
<g filter="url(#filter1_d_321_1589)">
<path d="M14.5638 56.6479C13.4994 50.7494 17.4181 45.1049 23.3165 44.0405L178.637 16.0113C184.535 14.9469 190.18 18.8656 191.244 24.7641L204.908 100.481C205.973 106.38 202.054 112.024 196.155 113.088L40.8351 141.118C34.9367 142.182 29.2921 138.263 28.2277 132.365L14.5638 56.6479Z" fill="#EA003D"/>
</g>
<g filter="url(#filter2_d_321_1589)">
<path d="M80.8587 86.8966L78.4236 87.336L78.9902 90.476L75.6153 91.085L75.0487 87.9451L66.9959 89.3983L66.5758 87.07L71.9132 76.3141L75.5444 75.6588L70.631 85.8309L74.6467 85.1063L74.1417 82.3081L77.4098 81.7183L77.9148 84.5165L80.3499 84.0771L80.8587 86.8966Z" fill="white"/>
<path d="M85.8605 79.5978C87.968 79.2175 89.596 79.3575 90.7444 80.0177C91.9071 80.6755 92.6156 81.7092 92.87 83.119C93.0345 84.0303 92.957 84.9045 92.6375 85.7415C92.3155 86.5642 91.7256 87.2882 90.868 87.9135C90.0221 88.5219 88.9156 88.9495 87.5485 89.1962C86.4947 89.3864 85.4308 89.4387 84.3567 89.3532C83.2943 89.2508 82.3608 89.0076 81.5563 88.6234L82.4453 85.7281C83.092 86.0525 83.8075 86.2689 84.5916 86.3773C85.3732 86.4716 86.1556 86.448 86.9388 86.3067C87.8075 86.1499 88.4602 85.8557 88.8969 85.424C89.3336 84.9923 89.4967 84.4703 89.3862 83.8579C89.2706 83.2171 88.9198 82.7805 88.3338 82.5481C87.7621 82.3131 86.8354 82.3112 85.5538 82.5425L81.7303 83.2325L80.9805 74.6778L90.1013 73.0319L90.6024 75.8087L84.3653 76.9342L84.643 79.8175L85.8605 79.5978Z" fill="white"/>
<path d="M114.327 81.276L115.268 86.4878L112.17 87.0468L111.723 84.569L103.649 86.0261L104.096 88.5038L100.999 89.0628L100.058 83.8509L100.528 83.7661C101.238 83.6234 101.653 83.1146 101.775 82.2399C101.896 81.3651 101.855 80.1595 101.651 78.6229L101.084 74.623L111.102 72.8151L112.682 81.5728L114.327 81.276ZM104.706 78.3144C104.874 79.4898 104.953 80.4606 104.944 81.2268C104.95 81.9904 104.802 82.5978 104.501 83.0491L109.35 82.1741L108.263 76.1505L104.504 76.829L104.706 78.3144Z" fill="white"/>
<path d="M114.844 72.1399L118.154 71.5424L118.964 76.0281L123.962 75.1261L123.153 70.6404L126.485 70.0391L128.559 81.5309L125.226 82.1322L124.452 77.8388L119.453 78.7408L120.228 83.0342L116.917 83.6317L114.844 72.1399Z" fill="white"/>
<path d="M141.891 73.2361C141.898 73.2788 141.931 73.5817 141.988 74.1448L133.295 75.7136C133.58 76.3974 134.052 76.893 134.71 77.2006C135.368 77.5082 136.132 77.5837 137.001 77.4269C137.599 77.319 138.11 77.1384 138.535 76.8853C138.972 76.6154 139.354 76.2522 139.684 75.7958L141.804 77.3983C140.945 78.8325 139.476 79.7371 137.397 80.1123C136.101 80.3462 134.91 80.3038 133.823 79.9853C132.734 79.6526 131.838 79.0865 131.135 78.287C130.432 77.4875 129.977 76.5182 129.772 75.379C129.569 74.254 129.65 73.1954 130.015 72.2032C130.391 71.1942 130.997 70.3569 131.833 69.6915C132.68 69.0093 133.681 68.5641 134.834 68.3559C135.959 68.1529 137.021 68.2112 138.02 68.5309C139.019 68.8506 139.857 69.4199 140.534 70.2388C141.222 71.0408 141.675 72.0399 141.891 73.2361ZM135.311 70.8726C134.556 71.0087 133.961 71.3367 133.525 71.8564C133.09 72.3761 132.882 73.0165 132.901 73.7776L138.562 72.7561C138.317 72.0504 137.899 71.5302 137.31 71.1955C136.717 70.8466 136.051 70.7389 135.311 70.8726Z" fill="white"/>
<path d="M143.4 66.9866L146.711 66.3891L147.945 73.2243L152.307 65.3792L155.362 64.8279L157.436 76.3197L154.125 76.9172L152.891 70.0819L148.55 77.9232L145.474 78.4783L143.4 66.9866ZM148.944 64.7069C146.438 65.1592 144.978 64.283 144.566 62.0784L146.744 61.6852C146.849 62.181 147.055 62.5482 147.362 62.7868C147.682 63.0085 148.098 63.0731 148.61 62.9806C149.123 62.8881 149.49 62.6821 149.712 62.3627C149.945 62.0265 150.017 61.6092 149.927 61.1108L152.149 60.71C152.533 62.9197 151.464 64.2521 148.944 64.7069Z" fill="white"/>
</g>
<g filter="url(#filter3_d_321_1589)">
<path d="M44.7216 62.7622L46.2017 58.6435L41.894 59.4209L44.7216 62.7622Z" fill="white"/>
<path d="M39.3659 63.7286L40.8461 59.6099L36.5396 60.3871L39.3659 63.7286Z" fill="white"/>
<path d="M41.4101 59.7319L44.2376 63.0732L39.93 63.8505L41.4101 59.7319Z" fill="white"/>
<path d="M46.5668 57.6268L48.0469 53.5082L43.7393 54.2855L46.5668 57.6268Z" fill="white"/>
<path d="M43.3654 54.7251L46.1918 58.0666L41.8853 58.8438L43.3654 54.7251Z" fill="white"/>
<path d="M35.843 59.5642L33.0166 56.2227L37.3242 55.4453L35.843 59.5642Z" fill="white"/>
<path d="M37.8287 55.7256L36.3474 59.8445L40.6551 59.0671L37.8287 55.7256Z" fill="white"/>
<path d="M31.1193 57.9219L27.0005 56.4407L27.7778 60.7483L31.1193 57.9219Z" fill="white"/>
<path d="M32.1296 63.5189L28.011 62.0387L28.7881 66.3453L32.1296 63.5189Z" fill="white"/>
<path d="M27.8952 61.3922L31.2355 58.566L32.0127 62.8725L27.8952 61.3922Z" fill="white"/>
<path d="M30.1049 52.2925L25.9861 50.8113L26.7634 55.1189L30.1049 52.2925Z" fill="white"/>
<path d="M54.5798 53.6901L50.4609 52.2088L51.2383 56.5164L54.5798 53.6901Z" fill="white"/>
<path d="M55.5896 59.287L51.4709 57.8069L52.2481 62.1134L55.5896 59.287Z" fill="white"/>
<path d="M51.3561 57.1603L54.6965 54.3341L55.4736 58.6406L51.3561 57.1603Z" fill="white"/>
<path d="M53.5642 48.0591L49.4453 46.5778L50.2227 50.8854L53.5642 48.0591Z" fill="white"/>
</g>
<path d="M63.1542 53.5262C63.1922 53.5738 63.2489 53.6047 63.3118 53.6123C63.3747 53.6198 63.4388 53.6032 63.4898 53.5663L65.2099 52.3208L66.872 52.5195L66.1267 53.9595L64.0952 54.6483C64.035 54.6687 63.9853 54.7108 63.9571 54.7653C63.9288 54.8199 63.9244 54.8823 63.9448 54.939L63.9781 55.0319C64.0205 55.1499 64.1566 55.2111 64.2821 55.1685L65.7604 54.6673L65.3555 55.4497C65.2967 55.5632 65.3453 55.6985 65.464 55.7518L65.5575 55.7938C65.6145 55.8195 65.6804 55.8223 65.7406 55.8019C65.8009 55.7815 65.8506 55.7394 65.8788 55.6849L66.2837 54.9025L66.7831 56.2928C66.8214 56.3993 66.936 56.4595 67.0503 56.4389C67.0626 56.4367 67.0748 56.4335 67.087 56.4294L67.1858 56.3959C67.2461 56.3755 67.2958 56.3334 67.324 56.2789C67.3522 56.2243 67.3566 56.1619 67.3363 56.1052L66.65 54.1947L67.3953 52.7547L68.5969 53.8434L68.6217 55.8732C68.6233 55.9986 68.7319 56.097 68.8643 56.0929L68.9686 56.0898C69.0322 56.0879 69.0929 56.0621 69.1373 56.0182C69.1818 55.9742 69.2063 55.9158 69.2056 55.8555L69.1875 54.3784L69.8404 54.9699C69.935 55.0558 70.0869 55.0512 70.1795 54.9597L70.2523 54.8877C70.2968 54.8438 70.3213 54.7852 70.3206 54.725C70.3199 54.6648 70.2939 54.6078 70.2484 54.5666L69.5955 53.9751L71.1559 53.928C71.2883 53.924 71.3944 53.8191 71.3929 53.6938L71.3917 53.5951C71.391 53.5349 71.365 53.4779 71.3195 53.4366C71.274 53.3954 71.2127 53.3733 71.1491 53.3753L69.0049 53.44L67.8033 52.3513L69.2912 51.5842L71.3381 52.1499C71.4645 52.1849 71.599 52.1155 71.6384 51.9951L71.6695 51.9002C71.6885 51.8424 71.6826 51.7802 71.653 51.7275C71.6235 51.6747 71.5728 51.6356 71.512 51.6189L70.0225 51.2072L70.831 50.7904C70.8873 50.7613 70.9296 50.7125 70.9485 50.6547C70.9674 50.5968 70.9615 50.5347 70.932 50.4819L70.8836 50.3954C70.8541 50.3426 70.8034 50.3036 70.7426 50.2868C70.6819 50.27 70.6162 50.2769 70.5599 50.3059L69.7514 50.7228L70.2164 49.3033C70.2559 49.1828 70.1854 49.0569 70.059 49.0219L69.9595 48.9944C69.8987 48.9776 69.8329 48.9845 69.7767 49.0135C69.7203 49.0426 69.678 49.0914 69.6591 49.1493L69.0202 51.0998L67.5323 51.867L67.2503 50.3042L68.4905 48.624C68.5272 48.5741 68.5419 48.5129 68.5312 48.4537C68.5205 48.3946 68.4854 48.3423 68.4335 48.3085L68.3484 48.253C68.2404 48.1826 68.0907 48.2096 68.0141 48.3133L67.1116 49.5361L66.9584 48.687C66.9362 48.5638 66.8123 48.483 66.6817 48.5065L66.579 48.5251C66.4484 48.5486 66.3606 48.6676 66.3828 48.7908L66.536 49.6399L65.2631 48.8098C65.155 48.7393 65.0053 48.7664 64.9287 48.8701L64.8685 48.9518C64.8317 49.0017 64.817 49.0629 64.8277 49.1221C64.8383 49.1812 64.8735 49.2335 64.9254 49.2673L66.6747 50.4081L66.9567 51.9708L65.2945 51.7721L64.0141 50.168C63.9761 50.1204 63.9194 50.0894 63.8565 50.0819C63.7936 50.0744 63.7296 50.0909 63.6785 50.1279L63.5949 50.1884C63.4887 50.2654 63.4667 50.408 63.5458 50.5071L64.4775 51.6745L63.5743 51.5665C63.4435 51.5508 63.3215 51.639 63.3023 51.7635L63.2872 51.8615C63.268 51.9859 63.3587 52.0995 63.4897 52.1152L64.3929 52.2231L63.1412 53.1295C63.035 53.2064 63.013 53.3491 63.092 53.4482L63.1542 53.5262Z" fill="white" fill-opacity="0.64"/>
<path d="M39.5876 122.692C39.6256 122.739 39.6822 122.77 39.7452 122.778C39.808 122.785 39.8721 122.769 39.9231 122.732L41.6432 121.486L43.3053 121.685L42.5601 123.125L40.5286 123.814C40.4683 123.834 40.4186 123.876 40.3904 123.931C40.3622 123.985 40.3578 124.048 40.3781 124.105L40.4115 124.197C40.4539 124.315 40.5899 124.377 40.7154 124.334L42.1938 123.833L41.7888 124.615C41.7301 124.729 41.7787 124.864 41.8974 124.917L41.9908 124.959C42.0478 124.985 42.1137 124.988 42.1739 124.967C42.2342 124.947 42.2839 124.905 42.3121 124.85L42.7171 124.068L43.2164 125.458C43.2547 125.565 43.3694 125.625 43.4836 125.604C43.4959 125.602 43.5082 125.599 43.5204 125.595L43.6192 125.561C43.6795 125.541 43.7291 125.499 43.7574 125.444C43.7856 125.39 43.79 125.327 43.7696 125.271L43.0834 123.36L43.8287 121.92L45.0303 123.009L45.0551 125.039C45.0566 125.164 45.1652 125.263 45.2977 125.258L45.4019 125.255C45.4655 125.253 45.5262 125.228 45.5707 125.184C45.6151 125.14 45.6397 125.081 45.6389 125.021L45.6208 123.544L46.2737 124.135C46.3684 124.221 46.5203 124.217 46.6128 124.125L46.6857 124.053C46.7301 124.009 46.7547 123.951 46.754 123.891C46.7532 123.83 46.7273 123.773 46.6818 123.732L46.0289 123.141L47.5893 123.094C47.7216 123.09 47.8278 122.985 47.8262 122.859L47.825 122.761C47.8243 122.7 47.7983 122.643 47.7528 122.602C47.7073 122.561 47.646 122.539 47.5824 122.541L45.4383 122.606L44.2367 121.517L45.7246 120.75L47.7714 121.315C47.8979 121.35 48.0324 121.281 48.0718 121.161L48.1029 121.066C48.1218 121.008 48.1159 120.946 48.0863 120.893C48.0569 120.84 48.0061 120.801 47.9454 120.784L46.4558 120.373L47.2643 119.956C47.3206 119.927 47.363 119.878 47.3818 119.82C47.4008 119.762 47.3949 119.7 47.3653 119.647L47.3169 119.561C47.2874 119.508 47.2367 119.469 47.1759 119.452C47.1152 119.436 47.0495 119.442 46.9932 119.471L46.1848 119.888L46.6497 118.469C46.6892 118.348 46.6187 118.222 46.4923 118.187L46.3928 118.16C46.3321 118.143 46.2663 118.15 46.21 118.179C46.1537 118.208 46.1114 118.257 46.0924 118.315L45.4535 120.265L43.9656 121.033L43.6836 119.47L44.9238 117.79C44.9606 117.74 44.9752 117.678 44.9646 117.619C44.9539 117.56 44.9187 117.508 44.8669 117.474L44.7818 117.419C44.6737 117.348 44.5241 117.375 44.4475 117.479L43.545 118.702L43.3918 117.853C43.3695 117.729 43.2457 117.649 43.1151 117.672L43.0123 117.691C42.8817 117.714 42.7939 117.833 42.8162 117.956L42.9694 118.805L41.6964 117.975C41.5884 117.905 41.4387 117.932 41.3621 118.036L41.3018 118.117C41.265 118.167 41.2503 118.228 41.261 118.288C41.2717 118.347 41.3069 118.399 41.3587 118.433L43.108 119.574L43.39 121.136L41.7278 120.938L40.4475 119.334C40.4095 119.286 40.3528 119.255 40.2899 119.247C40.2269 119.24 40.1629 119.256 40.1119 119.293L40.0283 119.354C39.922 119.431 39.9 119.574 39.9791 119.673L40.9109 120.84L40.0077 120.732C39.8768 120.716 39.7549 120.805 39.7357 120.929L39.7206 121.027C39.7014 121.151 39.792 121.265 39.9231 121.281L40.8262 121.389L39.5745 122.295C39.4683 122.372 39.4463 122.515 39.5254 122.614L39.5876 122.692Z" fill="white" fill-opacity="0.64"/>
<path d="M104.081 57.9259C104.119 57.9735 104.176 58.0044 104.239 58.012C104.301 58.0195 104.366 58.003 104.417 57.966L106.137 56.7205L107.799 56.9192L107.053 58.3592L105.022 59.048C104.962 59.0684 104.912 59.1105 104.884 59.165C104.856 59.2196 104.851 59.282 104.872 59.3387L104.905 59.4316C104.947 59.5496 105.083 59.6108 105.209 59.5682L106.687 59.067L106.282 59.8494C106.223 59.9629 106.272 60.0982 106.391 60.1515L106.484 60.1935C106.541 60.2192 106.607 60.2221 106.667 60.2017C106.728 60.1812 106.777 60.1391 106.806 60.0846L107.21 59.3022L107.71 60.6925C107.748 60.799 107.863 60.8592 107.977 60.8386C107.989 60.8364 108.002 60.8332 108.014 60.8291L108.113 60.7956C108.173 60.7752 108.223 60.7331 108.251 60.6786C108.279 60.624 108.283 60.5616 108.263 60.5049L107.577 58.5944L108.322 57.1544L109.524 58.2431L109.549 60.2729C109.55 60.3983 109.659 60.4967 109.791 60.4926L109.895 60.4895C109.959 60.4876 110.02 60.4618 110.064 60.4179C110.109 60.3739 110.133 60.3155 110.132 60.2552L110.114 58.7781L110.767 59.3696C110.862 59.4555 111.014 59.4509 111.106 59.3594L111.179 59.2874C111.224 59.2435 111.248 59.185 111.247 59.1247C111.247 59.0645 111.221 59.0075 111.175 58.9663L110.522 58.3748L112.083 58.3277C112.215 58.3237 112.321 58.2188 112.32 58.0935L112.318 57.9948C112.318 57.9346 112.292 57.8776 112.246 57.8363C112.201 57.7951 112.139 57.7731 112.076 57.775L109.932 57.8397L108.73 56.751L110.218 55.9839L112.265 56.5496C112.391 56.5846 112.526 56.5152 112.565 56.3948L112.596 56.2999C112.615 56.2421 112.609 56.1799 112.58 56.1272C112.55 56.0744 112.5 56.0353 112.439 56.0186L110.949 55.6069L111.758 55.1901C111.814 55.1611 111.856 55.1122 111.875 55.0544C111.894 54.9965 111.888 54.9344 111.859 54.8816L111.81 54.7951C111.781 54.7423 111.73 54.7033 111.669 54.6865C111.609 54.6697 111.543 54.6766 111.487 54.7056L110.678 55.1225L111.143 53.703C111.183 53.5826 111.112 53.4566 110.986 53.4216L110.886 53.3941C110.825 53.3773 110.76 53.3842 110.703 53.4132C110.647 53.4423 110.605 53.4911 110.586 53.549L109.947 55.4995L108.459 56.2667L108.177 54.7039L109.417 53.0237C109.454 52.9738 109.469 52.9126 109.458 52.8534C109.447 52.7943 109.412 52.742 109.36 52.7082L109.275 52.6527C109.167 52.5823 109.018 52.6093 108.941 52.713L108.038 53.9358L107.885 53.0867C107.863 52.9635 107.739 52.8827 107.609 52.9062L107.506 52.9248C107.375 52.9483 107.287 53.0673 107.31 53.1905L107.463 54.0396L106.19 53.2095C106.082 53.139 105.932 53.1661 105.856 53.2698L105.795 53.3515C105.758 53.4014 105.744 53.4626 105.754 53.5218C105.765 53.5809 105.8 53.6332 105.852 53.667L107.601 54.8078L107.883 56.3705L106.221 56.1718L104.941 54.5677C104.903 54.5201 104.846 54.4892 104.783 54.4816C104.72 54.4741 104.656 54.4906 104.605 54.5276L104.522 54.5882C104.415 54.6651 104.393 54.8077 104.473 54.9068L105.404 56.0742L104.501 55.9662C104.37 55.9505 104.248 56.0387 104.229 56.1632L104.214 56.2612C104.195 56.3856 104.285 56.4992 104.416 56.5149L105.32 56.6228L104.068 57.5292C103.962 57.6061 103.94 57.7488 104.019 57.8479L104.081 57.9259Z" fill="white" fill-opacity="0.64"/>
<path d="M171.524 31.7237C171.562 31.7713 171.619 31.8023 171.682 31.8098C171.745 31.8173 171.809 31.8008 171.86 31.7639L173.58 30.5184L175.242 30.7171L174.497 32.157L172.465 32.8458C172.405 32.8662 172.355 32.9083 172.327 32.9629C172.299 33.0174 172.295 33.0798 172.315 33.1365L172.348 33.2294C172.391 33.3474 172.527 33.4087 172.652 33.3661L174.131 32.8648L173.726 33.6472C173.667 33.7607 173.715 33.896 173.834 33.9494L173.928 33.9914C173.985 34.017 174.051 34.0199 174.111 33.9995C174.171 33.979 174.221 33.937 174.249 33.8824L174.654 33.1L175.153 34.4903C175.191 34.5968 175.306 34.6571 175.42 34.6364C175.433 34.6342 175.445 34.6311 175.457 34.6269L175.556 34.5934C175.616 34.573 175.666 34.5309 175.694 34.4764C175.722 34.4218 175.727 34.3594 175.706 34.3027L175.02 32.3922L175.765 30.9523L176.967 32.0409L176.992 34.0707C176.993 34.1961 177.102 34.2945 177.234 34.2905L177.339 34.2873C177.402 34.2854 177.463 34.2596 177.507 34.2157C177.552 34.1718 177.576 34.1133 177.576 34.0531L177.558 32.576L178.21 33.1674C178.305 33.2533 178.457 33.2487 178.55 33.1572L178.622 33.0852C178.667 33.0413 178.691 32.9828 178.691 32.9226C178.69 32.8624 178.664 32.8054 178.619 32.7642L177.966 32.1726L179.526 32.1256C179.658 32.1216 179.765 32.0167 179.763 31.8913L179.762 31.7926C179.761 31.7324 179.735 31.6754 179.69 31.6342C179.644 31.593 179.583 31.5709 179.519 31.5728L177.375 31.6375L176.173 30.5489L177.661 29.7818L179.708 30.3475C179.835 30.3825 179.969 30.3131 180.009 30.1926L180.04 30.0978C180.059 30.0399 180.053 29.9778 180.023 29.925C179.994 29.8723 179.943 29.8332 179.882 29.8164L178.393 29.4047L179.201 28.9879C179.257 28.9589 179.3 28.91 179.319 28.8522C179.338 28.7944 179.332 28.7322 179.302 28.6795L179.254 28.5929C179.224 28.5402 179.173 28.5011 179.113 28.4843C179.052 28.4676 178.986 28.4745 178.93 28.5035L178.122 28.9203L178.586 27.5009C178.626 27.3804 178.555 27.2544 178.429 27.2195L178.33 27.1919C178.269 27.1752 178.203 27.1821 178.147 27.2111C178.09 27.2401 178.048 27.289 178.029 27.3468L177.39 29.2973L175.902 30.0645L175.62 28.5017L176.861 26.8215C176.897 26.7717 176.912 26.7104 176.901 26.6513C176.891 26.5921 176.856 26.5399 176.804 26.506L176.719 26.4505C176.61 26.3801 176.461 26.4071 176.384 26.5109L175.482 27.7336L175.329 26.8845C175.306 26.7613 175.182 26.6805 175.052 26.7041L174.949 26.7226C174.819 26.7462 174.731 26.8652 174.753 26.9884L174.906 27.8375L173.633 27.0073C173.525 26.9369 173.375 26.9639 173.299 27.0677L173.239 27.1494C173.202 27.1992 173.187 27.2605 173.198 27.3196C173.208 27.3788 173.244 27.431 173.296 27.4649L175.045 28.6056L175.327 30.1684L173.665 29.9697L172.384 28.3655C172.346 28.3179 172.29 28.287 172.227 28.2795C172.164 28.272 172.1 28.2885 172.049 28.3254L171.965 28.386C171.859 28.4629 171.837 28.6056 171.916 28.7047L172.848 29.872L171.944 29.7641C171.814 29.7484 171.692 29.8366 171.672 29.961L171.657 30.059C171.638 30.1835 171.729 30.297 171.86 30.3127L172.763 30.4207L171.511 31.327C171.405 31.404 171.383 31.5466 171.462 31.6457L171.524 31.7237Z" fill="white" fill-opacity="0.64"/>
<path d="M186.115 95.1265C186.153 95.1741 186.21 95.2051 186.273 95.2126C186.336 95.2201 186.4 95.2036 186.451 95.1667L188.171 93.9212L189.833 94.1199L189.088 95.5599L187.056 96.2486C186.996 96.2691 186.946 96.3111 186.918 96.3657C186.89 96.4202 186.885 96.4827 186.906 96.5393L186.939 96.6322C186.981 96.7502 187.118 96.8115 187.243 96.7689L188.721 96.2676L188.316 97.05C188.258 97.1636 188.306 97.2988 188.425 97.3522L188.518 97.3942C188.575 97.4198 188.641 97.4227 188.702 97.4023C188.762 97.3818 188.812 97.3398 188.84 97.2852L189.245 96.5028L189.744 97.8931C189.782 97.9997 189.897 98.0599 190.011 98.0392C190.024 98.037 190.036 98.0339 190.048 98.0297L190.147 97.9963C190.207 97.9758 190.257 97.9337 190.285 97.8792C190.313 97.8247 190.318 97.7622 190.297 97.7055L189.611 95.7951L190.356 94.3551L191.558 95.4437L191.583 97.4735C191.584 97.5989 191.693 97.6973 191.825 97.6933L191.93 97.6901C191.993 97.6882 192.054 97.6624 192.098 97.6185C192.143 97.5746 192.167 97.5161 192.167 97.4559L192.148 95.9788L192.801 96.5703C192.896 96.6561 193.048 96.6515 193.14 96.56L193.213 96.488C193.258 96.4441 193.282 96.3856 193.282 96.3254C193.281 96.2652 193.255 96.2082 193.209 96.167L192.556 95.5755L194.117 95.5284C194.249 95.5244 194.355 95.4195 194.354 95.2941L194.353 95.1954C194.352 95.1352 194.326 95.0782 194.28 95.037C194.235 94.9958 194.174 94.9737 194.11 94.9756L191.966 95.0404L190.764 93.9517L192.252 93.1846L194.299 93.7503C194.425 93.7853 194.56 93.7159 194.599 93.5954L194.63 93.5006C194.649 93.4428 194.643 93.3806 194.614 93.3278C194.584 93.2751 194.534 93.236 194.473 93.2192L192.983 92.8075L193.792 92.3907C193.848 92.3617 193.891 92.3129 193.909 92.255C193.928 92.1972 193.922 92.135 193.893 92.0823L193.845 91.9958C193.815 91.943 193.764 91.9039 193.704 91.8871C193.643 91.8704 193.577 91.8773 193.521 91.9063L192.712 92.3231L193.177 90.9037C193.217 90.7832 193.146 90.6572 193.02 90.6223L192.92 90.5947C192.86 90.578 192.794 90.5849 192.738 90.6139C192.681 90.6429 192.639 90.6918 192.62 90.7496L191.981 92.7002L190.493 93.4673L190.211 91.9045L191.451 90.2243C191.488 90.1745 191.503 90.1133 191.492 90.0541C191.481 89.9949 191.446 89.9427 191.394 89.9088L191.309 89.8534C191.201 89.7829 191.052 89.8099 190.975 89.9137L190.073 91.1364L189.919 90.2873C189.897 90.1641 189.773 90.0833 189.643 90.1069L189.54 90.1254C189.409 90.149 189.322 90.268 189.344 90.3912L189.497 91.2403L188.224 90.4101C188.116 90.3397 187.966 90.3667 187.89 90.4705L187.829 90.5522C187.793 90.602 187.778 90.6633 187.789 90.7224C187.799 90.7816 187.834 90.8338 187.886 90.8677L189.636 92.0084L189.918 93.5712L188.255 93.3725L186.975 91.7683C186.937 91.7207 186.88 91.6898 186.817 91.6823C186.754 91.6748 186.691 91.6913 186.639 91.7282L186.556 91.7888C186.45 91.8657 186.428 92.0084 186.507 92.1075L187.438 93.2748L186.535 93.1669C186.404 93.1512 186.282 93.2394 186.263 93.3638L186.248 93.4618C186.229 93.5863 186.32 93.6999 186.451 93.7155L187.354 93.8235L186.102 94.7299C185.996 94.8068 185.974 94.9494 186.053 95.0485L186.115 95.1265Z" fill="white" fill-opacity="0.64"/>
<path d="M128.937 106.382C128.975 106.43 129.031 106.461 129.094 106.468C129.157 106.476 129.221 106.459 129.272 106.422L130.992 105.177L132.654 105.376L131.909 106.816L129.878 107.504C129.817 107.525 129.768 107.567 129.74 107.621C129.711 107.676 129.707 107.738 129.727 107.795L129.761 107.888C129.803 108.006 129.939 108.067 130.065 108.025L131.543 107.523L131.138 108.306C131.079 108.419 131.128 108.555 131.246 108.608L131.34 108.65C131.397 108.676 131.463 108.678 131.523 108.658C131.583 108.638 131.633 108.595 131.661 108.541L132.066 107.759L132.566 109.149C132.604 109.255 132.718 109.316 132.833 109.295C132.845 109.293 132.857 109.29 132.87 109.285L132.968 109.252C133.029 109.232 133.078 109.189 133.106 109.135C133.135 109.08 133.139 109.018 133.119 108.961L132.433 107.051L133.178 105.611L134.379 106.699L134.404 108.729C134.406 108.855 134.514 108.953 134.647 108.949L134.751 108.946C134.815 108.944 134.875 108.918 134.92 108.874C134.964 108.83 134.989 108.772 134.988 108.712L134.97 107.235L135.623 107.826C135.718 107.912 135.869 107.907 135.962 107.816L136.035 107.744C136.079 107.7 136.104 107.641 136.103 107.581C136.102 107.521 136.076 107.464 136.031 107.423L135.378 106.831L136.938 106.784C137.071 106.78 137.177 106.675 137.175 106.55L137.174 106.451C137.173 106.391 137.147 106.334 137.102 106.293C137.056 106.252 136.995 106.229 136.932 106.231L134.787 106.296L133.586 105.207L135.074 104.44L137.121 105.006C137.247 105.041 137.381 104.972 137.421 104.851L137.452 104.756C137.471 104.698 137.465 104.636 137.435 104.584C137.406 104.531 137.355 104.492 137.295 104.475L135.805 104.063L136.613 103.646C136.67 103.617 136.712 103.569 136.731 103.511C136.75 103.453 136.744 103.391 136.714 103.338L136.666 103.251C136.637 103.199 136.586 103.16 136.525 103.143C136.464 103.126 136.399 103.133 136.342 103.162L135.534 103.579L135.999 102.159C136.038 102.039 135.968 101.913 135.841 101.878L135.742 101.85C135.681 101.834 135.615 101.841 135.559 101.87C135.503 101.899 135.46 101.947 135.442 102.005L134.803 103.956L133.315 104.723L133.033 103.16L134.273 101.48C134.31 101.43 134.324 101.369 134.314 101.31C134.303 101.251 134.268 101.198 134.216 101.165L134.131 101.109C134.023 101.039 133.873 101.066 133.797 101.169L132.894 102.392L132.741 101.543C132.719 101.42 132.595 101.339 132.464 101.363L132.361 101.381C132.231 101.405 132.143 101.524 132.165 101.647L132.319 102.496L131.046 101.666C130.937 101.595 130.788 101.622 130.711 101.726L130.651 101.808C130.614 101.858 130.599 101.919 130.61 101.978C130.621 102.037 130.656 102.09 130.708 102.123L132.457 103.264L132.739 104.827L131.077 104.628L129.797 103.024C129.759 102.976 129.702 102.946 129.639 102.938C129.576 102.93 129.512 102.947 129.461 102.984L129.377 103.045C129.271 103.121 129.249 103.264 129.328 103.363L130.26 104.531L129.357 104.423C129.226 104.407 129.104 104.495 129.085 104.62L129.07 104.718C129.05 104.842 129.141 104.956 129.272 104.971L130.175 105.079L128.924 105.986C128.817 106.062 128.795 106.205 128.875 106.304L128.937 106.382Z" fill="white" fill-opacity="0.64"/>
<path d="M191.154 57.0753L190.783 56.94C190.579 56.8662 190.352 56.9715 190.278 57.1756L190.277 57.1758L189.982 57.0679L190.309 56.9154C190.407 56.8691 190.45 56.7515 190.404 56.653C190.358 56.5543 190.241 56.5119 190.142 56.5578L189.459 56.8773L189.227 56.7927L189.281 56.6703C189.324 56.5702 189.278 56.4542 189.178 56.4107C189.078 56.3675 188.962 56.4132 188.919 56.5133L188.856 56.6573L188.131 56.3931L188.963 56.0046C189.062 55.9583 189.105 55.841 189.059 55.7422C189.012 55.6435 188.895 55.601 188.796 55.647L187.608 56.2021L187.372 56.1158C187.444 56.011 187.533 55.9157 187.639 55.836L187.999 55.5661C188.059 55.5214 188.088 55.4468 188.075 55.3732C188.062 55.2996 188.008 55.2401 187.937 55.2191L187.505 55.0918C187.377 55.0544 187.261 54.996 187.156 54.9235L187.348 54.7601L188.655 54.8648C188.672 54.8661 188.69 54.8652 188.706 54.8622C188.792 54.8467 188.86 54.775 188.868 54.6839C188.876 54.5753 188.795 54.4802 188.687 54.4714L187.771 54.3982L188.358 53.8972L188.467 54.0104C188.515 54.0598 188.582 54.079 188.644 54.0676C188.681 54.061 188.717 54.0437 188.746 54.0156C188.825 53.9401 188.827 53.8154 188.751 53.7368L188.659 53.6406L188.846 53.4806L189.597 53.5412C189.615 53.5425 189.632 53.5416 189.648 53.5386C189.734 53.5232 189.802 53.4515 189.81 53.3604C189.818 53.2519 189.737 53.1567 189.629 53.1478L189.269 53.1189L189.508 52.9147L189.509 52.9149C189.603 53.0252 189.746 53.0708 189.879 53.0467C189.946 53.0347 190.01 53.0055 190.065 52.9585L190.365 52.7024C190.53 52.5611 190.55 52.3116 190.409 52.1461L190.152 51.8461C190.011 51.6805 189.761 51.6608 189.596 51.8023L189.296 52.0588C189.131 52.2 189.111 52.4496 189.252 52.6147L189.013 52.8188L189.041 52.4594C189.049 52.3508 188.968 52.2561 188.859 52.2478C188.752 52.2399 188.656 52.3207 188.647 52.4294L188.59 53.1806L188.385 53.3559L188.258 53.2244C188.182 53.1459 188.057 53.1435 187.979 53.219C187.9 53.2948 187.898 53.4195 187.974 53.4981L188.084 53.6127L187.515 54.0984L187.586 53.183C187.595 53.0745 187.513 52.9795 187.405 52.971C187.297 52.9635 187.201 53.044 187.193 53.1526L187.092 54.4603L186.872 54.6477C186.764 54.5014 186.687 54.3309 186.653 54.1433L186.597 53.8356C186.584 53.761 186.529 53.7008 186.456 53.6805C186.383 53.6602 186.305 53.6835 186.255 53.741L186.166 53.8424C186.025 54.0047 185.849 54.1213 185.659 54.1893L185.606 53.8946L186.355 52.8184C186.417 52.7291 186.395 52.606 186.306 52.5438C186.217 52.4815 186.094 52.5037 186.031 52.5929L185.507 53.3463L185.381 52.6517L185.576 52.6166C185.683 52.5973 185.754 52.4948 185.735 52.3874C185.715 52.2803 185.613 52.209 185.506 52.2283L185.311 52.2634L185.256 51.956L185.687 51.338C185.749 51.2485 185.727 51.1256 185.638 51.0631C185.549 51.001 185.425 51.0225 185.363 51.1121L185.157 51.4077L185.101 51.0984C185.315 51.0598 185.458 50.8542 185.419 50.64L185.349 50.2517C185.311 50.0378 185.105 49.8948 184.891 49.9335L184.503 50.0036C184.289 50.0422 184.146 50.248 184.184 50.462L184.254 50.8503C184.293 51.0644 184.499 51.2071 184.713 51.1685L184.769 51.4778L184.472 51.2729C184.383 51.2109 184.26 51.2339 184.198 51.3231C184.136 51.4128 184.158 51.5356 184.248 51.5977L184.868 52.0261L184.923 52.3334L184.729 52.3685C184.622 52.3878 184.55 52.4905 184.57 52.5976C184.589 52.705 184.692 52.7761 184.799 52.7568L184.993 52.7217L185.118 53.4164L184.364 52.8938C184.274 52.8321 184.152 52.8539 184.089 52.9437C184.028 53.0333 184.05 53.1564 184.139 53.2182L185.217 53.9647L185.271 54.2594C185.068 54.2622 184.864 54.2142 184.674 54.1118L184.556 54.0476C184.489 54.0109 184.407 54.0166 184.346 54.0611C184.285 54.1057 184.254 54.1814 184.268 54.256L184.323 54.5621C184.357 54.7501 184.344 54.9373 184.294 55.1125L184.023 55.0139L183.471 53.8241C183.425 53.7253 183.308 53.6832 183.209 53.7281C183.11 53.774 183.067 53.8914 183.113 53.9902L183.499 54.823L182.797 54.5667L182.86 54.4207C182.904 54.3207 182.858 54.2046 182.758 54.1611C182.658 54.1179 182.541 54.1637 182.498 54.2637L182.426 54.4312L182.172 54.3386L181.855 53.655C181.81 53.556 181.691 53.514 181.594 53.5589C181.495 53.6046 181.452 53.7219 181.497 53.8207L181.649 54.1478L181.353 54.0401C181.428 53.836 181.322 53.609 181.118 53.5342L180.747 53.3991C180.543 53.3242 180.316 53.43 180.242 53.6344L180.106 54.0051C180.032 54.2096 180.137 54.4365 180.342 54.5111L180.712 54.6463C180.78 54.6709 180.851 54.6759 180.917 54.6639C181.051 54.6398 181.168 54.5472 181.218 54.4109L181.218 54.4106L181.514 54.5183L181.187 54.6711C181.088 54.7174 181.046 54.8349 181.092 54.9334C181.131 55.0163 181.22 55.0596 181.306 55.0441C181.322 55.0411 181.338 55.0359 181.354 55.0286L182.037 54.7092L182.268 54.7937L182.215 54.9162C182.172 55.0162 182.218 55.1323 182.318 55.1755C182.355 55.1917 182.394 55.1954 182.431 55.1888C182.494 55.1775 182.55 55.136 182.577 55.0732L182.64 54.929L183.364 55.1933L182.533 55.5818C182.434 55.6281 182.391 55.7455 182.437 55.8442C182.476 55.927 182.565 55.9703 182.651 55.9548C182.667 55.9518 182.684 55.9467 182.699 55.9394L183.888 55.3844L184.123 55.4702C184.05 55.5748 183.961 55.6704 183.855 55.7498L183.492 56.021C183.432 56.0657 183.402 56.1404 183.415 56.214C183.429 56.2875 183.482 56.3474 183.554 56.3683L183.989 56.4953C184.117 56.5326 184.233 56.591 184.338 56.6637L184.148 56.8263L182.841 56.7216C182.732 56.7131 182.637 56.7939 182.628 56.9025C182.619 57.0111 182.701 57.1062 182.809 57.115L183.724 57.1882L183.138 57.6891L183.029 57.576C182.953 57.4974 182.828 57.4951 182.75 57.5706C182.671 57.6463 182.669 57.771 182.744 57.8496L182.837 57.9458L182.65 58.1059L181.899 58.0452C181.79 58.0369 181.695 58.1174 181.686 58.2261C181.677 58.3345 181.758 58.4297 181.867 58.4386L182.226 58.4674L181.987 58.6717L181.987 58.6715C181.846 58.5063 181.597 58.4864 181.431 58.6278L181.131 58.884C180.966 59.0253 180.946 59.2746 181.087 59.4402L181.344 59.7404C181.438 59.851 181.581 59.8963 181.714 59.8722C181.781 59.8602 181.845 59.8309 181.9 59.7842L182.2 59.5277C182.365 59.3862 182.385 59.1369 182.243 58.9718L182.483 58.7674L182.455 59.1269C182.447 59.2356 182.528 59.3302 182.637 59.3387C182.654 59.34 182.67 59.3389 182.687 59.336C182.773 59.3204 182.841 59.2484 182.848 59.1569L182.906 58.4057L183.111 58.2306L183.238 58.3621C183.286 58.4114 183.353 58.4306 183.415 58.4193C183.452 58.4126 183.488 58.3954 183.517 58.3672C183.596 58.2917 183.598 58.167 183.522 58.0884L183.412 57.9738L183.98 57.4881L183.91 58.4034C183.901 58.512 183.982 58.607 184.091 58.6153C184.108 58.6166 184.125 58.6158 184.141 58.6128C184.228 58.5973 184.296 58.5252 184.303 58.4337L184.404 57.1261L184.623 56.9391C184.732 57.0859 184.809 57.2568 184.843 57.4447L184.898 57.7508C184.912 57.8255 184.967 57.8857 185.04 57.906C185.113 57.9262 185.191 57.9028 185.241 57.8455L185.33 57.7441C185.471 57.5818 185.646 57.4652 185.837 57.3972L185.89 57.6917L185.141 58.7679C185.079 58.8574 185.101 58.9804 185.19 59.0425C185.279 59.105 185.402 59.0828 185.465 58.9934L185.989 58.2402L186.114 58.9347L185.92 58.9697C185.813 58.9891 185.742 59.0917 185.761 59.1989C185.78 59.3063 185.883 59.3774 185.99 59.358L186.184 59.323L186.24 59.6305L185.809 60.2486C185.747 60.3377 185.769 60.4609 185.858 60.5234C185.947 60.5851 186.07 60.5637 186.133 60.4744L186.339 60.1788L186.395 60.4879C186.181 60.5265 186.038 60.7323 186.076 60.9463L186.146 61.3346C186.185 61.5488 186.391 61.6915 186.605 61.6529L186.993 61.5828C187.207 61.5441 187.35 61.3386 187.311 61.1244L187.241 60.7361C187.203 60.5221 186.997 60.3792 186.783 60.4178L186.727 60.1087L187.024 60.3137C187.068 60.3445 187.121 60.3544 187.171 60.3454C187.221 60.3364 187.267 60.3082 187.298 60.2635C187.36 60.1737 187.338 60.0507 187.248 59.9889L186.628 59.5604L186.573 59.2529L186.767 59.2179C186.874 59.1985 186.945 59.0961 186.926 58.9887C186.907 58.8815 186.804 58.8102 186.697 58.8296L186.503 58.8646L186.377 58.1701L187.132 58.6925C187.177 58.7235 187.23 58.7334 187.279 58.7245C187.329 58.7155 187.375 58.6877 187.406 58.6426C187.468 58.5532 187.446 58.4301 187.356 58.3681L186.278 57.6216L186.225 57.3271C186.427 57.3243 186.632 57.3723 186.822 57.4747L186.94 57.5389C186.98 57.5607 187.026 57.5673 187.069 57.5596C187.098 57.5544 187.125 57.543 187.15 57.5254C187.211 57.4808 187.242 57.4051 187.228 57.3304L187.173 57.0227C187.139 56.8353 187.152 56.6486 187.201 56.4736L187.473 56.5726L188.025 57.7622C188.063 57.8455 188.152 57.8891 188.239 57.8736C188.255 57.8707 188.271 57.8655 188.287 57.8583C188.385 57.8126 188.428 57.6952 188.383 57.5964L187.996 56.7635L188.699 57.0199L188.635 57.1658C188.592 57.2659 188.638 57.3819 188.738 57.4252C188.775 57.4414 188.814 57.4451 188.851 57.4384C188.914 57.4271 188.97 57.3857 188.997 57.3229L189.07 57.1553L189.324 57.2477L189.64 57.9314C189.679 58.0146 189.768 58.0582 189.854 58.0427C189.871 58.0398 189.887 58.0349 189.902 58.0276C190.001 57.9817 190.044 57.8647 189.998 57.7657L189.847 57.4386L190.142 57.5464C190.068 57.7506 190.173 57.9773 190.378 58.0523L190.748 58.1875C190.816 58.2121 190.886 58.2171 190.953 58.2051C191.087 58.181 191.204 58.0887 191.254 57.9521L191.39 57.5812C191.464 57.3767 191.359 57.1499 191.154 57.0753ZM184.647 56.3999C184.488 56.2742 184.304 56.1765 184.1 56.1168L184.045 56.1005L184.091 56.0662C184.261 55.939 184.399 55.7831 184.505 55.6093L184.959 55.7751C184.958 55.8273 184.962 55.8801 184.971 55.9333C184.981 55.9865 184.996 56.0376 185.015 56.086L184.647 56.3999ZM185.766 57.0046C185.568 57.0663 185.382 57.1664 185.217 57.3037C185.165 57.0728 185.063 56.8631 184.924 56.6824L185.252 56.4023C185.375 56.5024 185.526 56.5649 185.689 56.5772L185.766 57.0046L185.766 57.0046ZM185.419 55.0791C185.27 55.1478 185.151 55.2592 185.07 55.396L184.665 55.2481C184.732 55.0305 184.754 54.798 184.723 54.5636C184.925 54.6346 185.135 54.6632 185.342 54.652L185.419 55.0791L185.419 55.0791ZM185.73 54.5819C185.927 54.5204 186.114 54.4202 186.279 54.2828C186.331 54.5138 186.433 54.7237 186.571 54.9046L186.244 55.1843C186.121 55.0842 185.97 55.0216 185.807 55.0091L185.73 54.5819ZM186.773 57.0229C186.571 56.9517 186.361 56.9231 186.154 56.9343L186.077 56.5072C186.225 56.4387 186.345 56.3273 186.425 56.1905L186.83 56.3381C186.764 56.5559 186.741 56.7883 186.773 57.0229ZM186.99 55.9766L186.537 55.8114C186.538 55.7592 186.534 55.7062 186.525 55.653C186.515 55.5998 186.5 55.549 186.481 55.5005L186.848 55.1871C187.007 55.313 187.19 55.4107 187.393 55.4703L187.448 55.4864L187.402 55.5202C187.233 55.6473 187.095 55.803 186.99 55.9766Z" fill="white"/>
<path d="M149.863 42.51L149.492 42.3747C149.288 42.3009 149.061 42.4062 148.986 42.6103L148.986 42.6105L148.691 42.5026L149.017 42.3501C149.116 42.3038 149.159 42.1862 149.112 42.0877C149.066 41.989 148.949 41.9466 148.85 41.9925L148.168 42.312L147.936 42.2274L147.989 42.105C148.033 42.0049 147.987 41.8889 147.887 41.8454C147.787 41.8022 147.671 41.8479 147.627 41.948L147.565 42.092L146.84 41.8278L147.672 41.4393C147.771 41.393 147.813 41.2757 147.767 41.1769C147.721 41.0782 147.603 41.0357 147.505 41.0817L146.317 41.6368L146.08 41.5505C146.153 41.4457 146.242 41.3504 146.348 41.2707L146.708 41.0008C146.768 40.9561 146.797 40.8815 146.784 40.8079C146.771 40.7343 146.717 40.6748 146.646 40.6538L146.214 40.5265C146.086 40.4891 145.97 40.4307 145.865 40.3582L146.056 40.1948L147.364 40.2995C147.381 40.3008 147.398 40.2999 147.415 40.2969C147.501 40.2814 147.569 40.2097 147.576 40.1186C147.585 40.01 147.504 39.9149 147.395 39.9061L146.48 39.8329L147.067 39.3319L147.176 39.4451C147.223 39.4945 147.29 39.5137 147.353 39.5023C147.39 39.4957 147.425 39.4784 147.455 39.4503C147.533 39.3748 147.536 39.2501 147.46 39.1715L147.367 39.0753L147.555 38.9153L148.306 38.9759C148.323 38.9772 148.34 38.9763 148.357 38.9733C148.443 38.9579 148.511 38.8862 148.518 38.7951C148.527 38.6866 148.446 38.5914 148.337 38.5825L147.978 38.5536L148.217 38.3494L148.217 38.3496C148.312 38.4599 148.454 38.5055 148.588 38.4814C148.654 38.4694 148.719 38.4402 148.774 38.3932L149.074 38.1371C149.239 37.9958 149.259 37.7463 149.117 37.5808L148.861 37.2808C148.72 37.1152 148.47 37.0955 148.305 37.237L148.005 37.4935C147.84 37.6347 147.82 37.8843 147.961 38.0494L147.722 38.2535L147.75 37.8941C147.758 37.7855 147.677 37.6908 147.568 37.6825C147.461 37.6746 147.364 37.7554 147.356 37.8641L147.299 38.6153L147.093 38.7906L146.967 38.6591C146.891 38.5806 146.766 38.5782 146.688 38.6537C146.609 38.7295 146.607 38.8542 146.682 38.9328L146.793 39.0474L146.224 39.5331L146.295 38.6177C146.303 38.5092 146.222 38.4142 146.113 38.4057C146.005 38.3982 145.91 38.4787 145.901 38.5873L145.8 39.895L145.581 40.0824C145.473 39.9361 145.396 39.7656 145.362 39.578L145.306 39.2703C145.293 39.1957 145.238 39.1355 145.165 39.1152C145.092 39.0949 145.013 39.1182 144.963 39.1757L144.875 39.2771C144.733 39.4394 144.558 39.556 144.368 39.624L144.314 39.3293L145.064 38.2531C145.126 38.1638 145.104 38.0407 145.015 37.9785C144.925 37.9162 144.802 37.9384 144.74 38.0276L144.216 38.781L144.09 38.0864L144.284 38.0513C144.392 38.032 144.463 37.9295 144.443 37.8221C144.424 37.715 144.322 37.6437 144.214 37.663L144.02 37.6981L143.965 37.3907L144.396 36.7727C144.458 36.6832 144.436 36.5603 144.347 36.4978C144.257 36.4357 144.134 36.4572 144.072 36.5468L143.866 36.8424L143.81 36.5331C144.024 36.4945 144.167 36.2889 144.128 36.0747L144.058 35.6864C144.019 35.4725 143.814 35.3295 143.6 35.3682L143.211 35.4383C142.997 35.4769 142.855 35.6827 142.893 35.8967L142.963 36.285C143.002 36.4991 143.208 36.6418 143.422 36.6032L143.477 36.9125L143.181 36.7076C143.091 36.6456 142.968 36.6686 142.906 36.7578C142.845 36.8475 142.867 36.9703 142.957 37.0324L143.576 37.4608L143.632 37.7681L143.438 37.8032C143.33 37.8225 143.259 37.9252 143.279 38.0323C143.298 38.1397 143.4 38.2108 143.508 38.1915L143.702 38.1564L143.827 38.8511L143.073 38.3285C142.983 38.2668 142.86 38.2886 142.798 38.3784C142.736 38.468 142.758 38.5911 142.848 38.6529L143.926 39.3994L143.979 39.6941C143.777 39.6969 143.572 39.6489 143.383 39.5465L143.265 39.4823C143.198 39.4456 143.116 39.4513 143.055 39.4958C142.994 39.5404 142.963 39.6161 142.976 39.6907L143.032 39.9968C143.066 40.1848 143.053 40.372 143.002 40.5472L142.732 40.4486L142.18 39.2588C142.134 39.16 142.017 39.1179 141.918 39.1628C141.819 39.2087 141.776 39.3261 141.822 39.4249L142.208 40.2577L141.506 40.0014L141.569 39.8554C141.613 39.7554 141.567 39.6393 141.467 39.5958C141.366 39.5526 141.25 39.5984 141.207 39.6984L141.134 39.8659L140.881 39.7733L140.564 39.0897C140.518 38.9907 140.4 38.9487 140.302 38.9936C140.203 39.0393 140.16 39.1566 140.206 39.2554L140.358 39.5825L140.062 39.4748C140.137 39.2707 140.031 39.0437 139.827 38.9689L139.456 38.8338C139.252 38.7589 139.025 38.8647 138.95 39.0691L138.815 39.4398C138.74 39.6443 138.846 39.8712 139.05 39.9458L139.421 40.081C139.489 40.1056 139.559 40.1106 139.626 40.0986C139.76 40.0745 139.877 39.9819 139.927 39.8456L139.927 39.8453L140.222 39.953L139.896 40.1058C139.797 40.1521 139.754 40.2696 139.801 40.3681C139.84 40.451 139.928 40.4943 140.014 40.4788C140.031 40.4758 140.047 40.4706 140.063 40.4633L140.746 40.1439L140.977 40.2284L140.924 40.3509C140.881 40.4509 140.926 40.567 141.026 40.6102C141.063 40.6264 141.103 40.6301 141.14 40.6235C141.202 40.6122 141.259 40.5707 141.286 40.5079L141.348 40.3637L142.073 40.628L141.241 41.0165C141.143 41.0628 141.1 41.1802 141.146 41.2789C141.185 41.3617 141.274 41.405 141.359 41.3895C141.376 41.3865 141.392 41.3814 141.408 41.3741L142.597 40.8191L142.832 40.9049C142.759 41.0095 142.67 41.1051 142.563 41.1845L142.2 41.4557C142.14 41.5004 142.111 41.5751 142.124 41.6487C142.137 41.7222 142.191 41.7821 142.263 41.803L142.698 41.93C142.826 41.9673 142.942 42.0257 143.047 42.0984L142.857 42.261L141.549 42.1563C141.441 42.1478 141.346 42.2286 141.337 42.3372C141.328 42.4458 141.409 42.5409 141.518 42.5497L142.433 42.6229L141.846 43.1238L141.737 43.0107C141.662 42.9321 141.537 42.9298 141.459 43.0053C141.38 43.081 141.378 43.2057 141.453 43.2843L141.546 43.3805L141.359 43.5406L140.607 43.4799C140.499 43.4716 140.404 43.5521 140.395 43.6608C140.386 43.7692 140.467 43.8644 140.576 43.8733L140.935 43.9021L140.696 44.1064L140.696 44.1062C140.555 43.941 140.305 43.9211 140.14 44.0625L139.84 44.3187C139.674 44.46 139.655 44.7093 139.796 44.8749L140.052 45.1751C140.147 45.2857 140.289 45.331 140.423 45.3069C140.489 45.2949 140.554 45.2656 140.608 45.2189L140.909 44.9624C141.074 44.8209 141.093 44.5716 140.952 44.4065L141.191 44.2021L141.164 44.5616C141.155 44.6703 141.236 44.7649 141.345 44.7734C141.362 44.7747 141.379 44.7736 141.396 44.7707C141.482 44.7551 141.55 44.6831 141.557 44.5916L141.615 43.8404L141.82 43.6653L141.947 43.7968C141.994 43.8461 142.061 43.8653 142.124 43.854C142.161 43.8473 142.196 43.8301 142.226 43.8019C142.304 43.7264 142.307 43.6017 142.231 43.5231L142.121 43.4085L142.689 42.9228L142.618 43.8381C142.61 43.9467 142.691 44.0417 142.8 44.05C142.817 44.0513 142.834 44.0505 142.85 44.0475C142.936 44.032 143.005 43.9599 143.012 43.8684L143.113 42.5608L143.332 42.3738C143.44 42.5206 143.518 42.6915 143.552 42.8794L143.607 43.1855C143.62 43.2602 143.676 43.3204 143.749 43.3407C143.822 43.3609 143.9 43.3375 143.95 43.2802L144.038 43.1788C144.18 43.0165 144.355 42.8999 144.546 42.8319L144.599 43.1264L143.85 44.2026C143.787 44.2921 143.809 44.4151 143.899 44.4772C143.988 44.5397 144.111 44.5175 144.173 44.4281L144.698 43.6749L144.823 44.3694L144.629 44.4044C144.522 44.4238 144.45 44.5264 144.47 44.6336C144.489 44.741 144.592 44.8121 144.699 44.7927L144.893 44.7577L144.949 45.0652L144.518 45.6833C144.456 45.7724 144.477 45.8956 144.567 45.9581C144.656 46.0198 144.779 45.9984 144.841 45.9091L145.048 45.6135L145.103 45.9226C144.889 45.9612 144.746 46.167 144.785 46.381L144.855 46.7693C144.894 46.9835 145.1 47.1262 145.314 47.0876L145.702 47.0175C145.916 46.9788 146.059 46.7733 146.02 46.5591L145.95 46.1708C145.911 45.9568 145.706 45.8139 145.492 45.8525L145.436 45.5434L145.732 45.7484C145.777 45.7792 145.83 45.7891 145.88 45.7801C145.929 45.7711 145.976 45.7429 146.007 45.6982C146.069 45.6084 146.046 45.4854 145.957 45.4236L145.337 44.9951L145.281 44.6876L145.476 44.6526C145.583 44.6332 145.654 44.5308 145.635 44.4234C145.615 44.3162 145.513 44.2449 145.406 44.2643L145.211 44.2993L145.086 43.6048L145.841 44.1272C145.885 44.1582 145.938 44.1681 145.988 44.1592C146.038 44.1502 146.084 44.1224 146.115 44.0773C146.177 43.9879 146.155 43.8648 146.065 43.8028L144.987 43.0563L144.934 42.7618C145.136 42.759 145.341 42.807 145.53 42.9094L145.649 42.9736C145.689 42.9954 145.735 43.002 145.778 42.9943C145.806 42.9891 145.834 42.9777 145.858 42.9601C145.92 42.9155 145.95 42.8398 145.937 42.7651L145.881 42.4574C145.848 42.27 145.86 42.0833 145.91 41.9083L146.181 42.0073L146.733 43.1969C146.772 43.2802 146.861 43.3238 146.947 43.3083C146.964 43.3054 146.98 43.3002 146.995 43.293C147.094 43.2473 147.137 43.1299 147.091 43.0311L146.705 42.1982L147.407 42.4546L147.344 42.6005C147.301 42.7006 147.347 42.8166 147.447 42.8599C147.484 42.8761 147.523 42.8798 147.56 42.8731C147.623 42.8618 147.679 42.8204 147.706 42.7576L147.779 42.59L148.033 42.6824L148.349 43.3661C148.388 43.4493 148.477 43.4929 148.563 43.4774C148.579 43.4745 148.595 43.4696 148.611 43.4623C148.71 43.4164 148.753 43.2994 148.707 43.2004L148.556 42.8733L148.851 42.9811C148.776 43.1853 148.882 43.412 149.087 43.487L149.457 43.6222C149.525 43.6468 149.595 43.6518 149.662 43.6398C149.795 43.6157 149.913 43.5234 149.963 43.3868L150.098 43.0159C150.173 42.8114 150.067 42.5846 149.863 42.51ZM143.356 41.8346C143.197 41.7089 143.012 41.6112 142.809 41.5515L142.753 41.5352L142.799 41.5009C142.97 41.3737 143.108 41.2178 143.213 41.044L143.668 41.2098C143.667 41.262 143.67 41.3148 143.68 41.368C143.69 41.4212 143.704 41.4723 143.724 41.5207L143.356 41.8346ZM144.475 42.4393C144.277 42.501 144.09 42.6011 143.926 42.7384C143.874 42.5075 143.771 42.2978 143.633 42.1171L143.961 41.837C144.084 41.9371 144.235 41.9996 144.398 42.0119L144.475 42.4393L144.475 42.4393ZM144.127 40.5138C143.979 40.5825 143.859 40.6939 143.779 40.8307L143.374 40.6828C143.441 40.4652 143.463 40.2327 143.431 39.9983C143.634 40.0693 143.844 40.0979 144.05 40.0867L144.127 40.5138L144.127 40.5138ZM144.439 40.0166C144.636 39.9551 144.823 39.8549 144.988 39.7175C145.04 39.9485 145.142 40.1584 145.28 40.3393L144.953 40.619C144.829 40.5189 144.678 40.4563 144.516 40.4438L144.439 40.0166ZM145.482 42.4576C145.28 42.3864 145.07 42.3578 144.863 42.369L144.786 41.9419C144.934 41.8734 145.054 41.762 145.134 41.6252L145.539 41.7728C145.472 41.9906 145.45 42.223 145.482 42.4576ZM145.699 41.4113L145.246 41.2461C145.247 41.1939 145.243 41.1409 145.233 41.0877C145.224 41.0345 145.209 40.9837 145.189 40.9352L145.556 40.6218C145.716 40.7477 145.899 40.8454 146.102 40.905L146.157 40.9211L146.111 40.9549C145.942 41.082 145.804 41.2377 145.699 41.4113Z" fill="white"/>
<path d="M170.595 107.892L170.224 107.757C170.02 107.683 169.793 107.789 169.719 107.993L169.719 107.993L169.423 107.885L169.75 107.732C169.849 107.686 169.891 107.569 169.845 107.47C169.799 107.371 169.682 107.329 169.583 107.375L168.9 107.694L168.669 107.61L168.722 107.487C168.765 107.387 168.719 107.271 168.619 107.228C168.519 107.184 168.403 107.23 168.36 107.33L168.297 107.474L167.573 107.21L168.404 106.822C168.503 106.775 168.546 106.658 168.5 106.559C168.454 106.46 168.336 106.418 168.237 106.464L167.049 107.019L166.813 106.933C166.886 106.828 166.974 106.733 167.08 106.653L167.441 106.383C167.5 106.338 167.53 106.264 167.516 106.19C167.503 106.117 167.45 106.057 167.378 106.036L166.946 105.909C166.819 105.871 166.703 105.813 166.598 105.741L166.789 105.577L168.096 105.682C168.114 105.683 168.131 105.682 168.147 105.679C168.233 105.664 168.301 105.592 168.309 105.501C168.317 105.392 168.236 105.297 168.128 105.288L167.213 105.215L167.799 104.714L167.908 104.827C167.956 104.877 168.023 104.896 168.085 104.885C168.123 104.878 168.158 104.861 168.187 104.833C168.266 104.757 168.268 104.632 168.192 104.554L168.1 104.458L168.287 104.298L169.038 104.358C169.056 104.359 169.073 104.359 169.089 104.356C169.175 104.34 169.243 104.269 169.251 104.177C169.26 104.069 169.179 103.974 169.07 103.965L168.711 103.936L168.95 103.732L168.95 103.732C169.044 103.842 169.187 103.888 169.32 103.864C169.387 103.852 169.451 103.822 169.506 103.775L169.806 103.519C169.972 103.378 169.991 103.129 169.85 102.963L169.594 102.663C169.452 102.497 169.202 102.478 169.037 102.619L168.737 102.876C168.572 103.017 168.552 103.267 168.694 103.432L168.455 103.636L168.482 103.276C168.491 103.168 168.409 103.073 168.3 103.065C168.193 103.057 168.097 103.138 168.089 103.246L168.031 103.998L167.826 104.173L167.699 104.041C167.623 103.963 167.499 103.961 167.42 104.036C167.342 104.112 167.339 104.236 167.415 104.315L167.525 104.43L166.957 104.915L167.027 104C167.036 103.891 166.954 103.796 166.846 103.788C166.738 103.78 166.643 103.861 166.634 103.97L166.533 105.277L166.313 105.465C166.205 105.318 166.128 105.148 166.094 104.96L166.039 104.653C166.025 104.578 165.97 104.518 165.897 104.497C165.824 104.477 165.746 104.501 165.696 104.558L165.607 104.659C165.466 104.822 165.291 104.938 165.1 105.006L165.047 104.712L165.796 103.635C165.859 103.546 165.836 103.423 165.747 103.361C165.658 103.298 165.535 103.321 165.472 103.41L164.948 104.163L164.823 103.469L165.017 103.434C165.124 103.414 165.195 103.312 165.176 103.204C165.157 103.097 165.054 103.026 164.947 103.045L164.753 103.08L164.697 102.773L165.128 102.155C165.19 102.066 165.168 101.943 165.079 101.88C164.99 101.818 164.867 101.839 164.804 101.929L164.598 102.225L164.542 101.915C164.756 101.877 164.899 101.671 164.861 101.457L164.79 101.069C164.752 100.855 164.546 100.712 164.332 100.75L163.944 100.821C163.73 100.859 163.587 101.065 163.626 101.279L163.696 101.667C163.734 101.881 163.94 102.024 164.154 101.986L164.21 102.295L163.913 102.09C163.824 102.028 163.701 102.051 163.639 102.14C163.577 102.23 163.6 102.353 163.689 102.415L164.309 102.843L164.364 103.15L164.17 103.185C164.063 103.205 163.992 103.307 164.011 103.415C164.03 103.522 164.133 103.593 164.24 103.574L164.434 103.539L164.56 104.233L163.805 103.711C163.716 103.649 163.593 103.671 163.531 103.761C163.469 103.85 163.491 103.973 163.58 104.035L164.659 104.782L164.712 105.076C164.51 105.079 164.305 105.031 164.115 104.929L163.997 104.865C163.93 104.828 163.849 104.834 163.787 104.878C163.726 104.923 163.695 104.998 163.709 105.073L163.764 105.379C163.798 105.567 163.785 105.754 163.735 105.929L163.464 105.831L162.912 104.641C162.866 104.542 162.749 104.5 162.65 104.545C162.551 104.591 162.508 104.708 162.554 104.807L162.941 105.64L162.238 105.384L162.301 105.238C162.345 105.138 162.299 105.022 162.199 104.978C162.099 104.935 161.983 104.981 161.94 105.081L161.867 105.248L161.613 105.156L161.297 104.472C161.251 104.373 161.133 104.331 161.035 104.376C160.936 104.422 160.893 104.539 160.938 104.638L161.09 104.965L160.795 104.857C160.869 104.653 160.764 104.426 160.559 104.351L160.188 104.216C159.985 104.141 159.757 104.247 159.683 104.451L159.547 104.822C159.473 105.027 159.579 105.254 159.783 105.328L160.154 105.463C160.222 105.488 160.292 105.493 160.358 105.481C160.492 105.457 160.61 105.364 160.66 105.228L160.659 105.228L160.955 105.335L160.628 105.488C160.53 105.534 160.487 105.652 160.533 105.75C160.572 105.833 160.661 105.877 160.747 105.861C160.763 105.858 160.78 105.853 160.795 105.846L161.478 105.526L161.71 105.611L161.656 105.733C161.613 105.833 161.659 105.949 161.759 105.993C161.796 106.009 161.835 106.012 161.872 106.006C161.935 105.994 161.991 105.953 162.018 105.89L162.081 105.746L162.806 106.01L161.974 106.399C161.875 106.445 161.832 106.562 161.878 106.661C161.917 106.744 162.006 106.787 162.092 106.772C162.108 106.769 162.125 106.764 162.141 106.756L163.329 106.201L163.564 106.287C163.491 106.392 163.402 106.487 163.296 106.567L162.933 106.838C162.873 106.883 162.843 106.957 162.857 107.031C162.87 107.105 162.924 107.164 162.996 107.185L163.43 107.312C163.558 107.35 163.674 107.408 163.78 107.481L163.589 107.643L162.282 107.539C162.174 107.53 162.078 107.611 162.069 107.719C162.061 107.828 162.142 107.923 162.25 107.932L163.166 108.005L162.579 108.506L162.47 108.393C162.395 108.314 162.269 108.312 162.191 108.388C162.112 108.463 162.11 108.588 162.186 108.667L162.278 108.763L162.091 108.923L161.34 108.862C161.231 108.854 161.136 108.934 161.127 109.043C161.118 109.152 161.2 109.247 161.308 109.256L161.667 109.284L161.428 109.489L161.428 109.488C161.287 109.323 161.038 109.303 160.872 109.445L160.572 109.701C160.407 109.842 160.387 110.092 160.528 110.257L160.785 110.557C160.879 110.668 161.022 110.713 161.155 110.689C161.222 110.677 161.286 110.648 161.341 110.601L161.641 110.345C161.806 110.203 161.826 109.954 161.684 109.789L161.924 109.584L161.896 109.944C161.888 110.053 161.969 110.147 162.078 110.156C162.095 110.157 162.112 110.156 162.128 110.153C162.214 110.137 162.283 110.065 162.289 109.974L162.347 109.223L162.552 109.048L162.679 109.179C162.727 109.228 162.794 109.248 162.856 109.236C162.894 109.23 162.929 109.212 162.958 109.184C163.037 109.109 163.039 108.984 162.963 108.905L162.853 108.791L163.422 108.305L163.351 109.22C163.342 109.329 163.424 109.424 163.532 109.432C163.549 109.434 163.566 109.433 163.583 109.43C163.669 109.414 163.737 109.342 163.744 109.251L163.846 107.943L164.064 107.756C164.173 107.903 164.25 108.074 164.284 108.262L164.339 108.568C164.353 108.643 164.408 108.703 164.481 108.723C164.554 108.743 164.632 108.72 164.682 108.662L164.771 108.561C164.912 108.399 165.088 108.282 165.278 108.214L165.331 108.509L164.582 109.585C164.52 109.674 164.542 109.797 164.631 109.86C164.721 109.922 164.843 109.9 164.906 109.81L165.43 109.057L165.555 109.752L165.361 109.787C165.254 109.806 165.183 109.909 165.202 110.016C165.222 110.123 165.324 110.194 165.431 110.175L165.626 110.14L165.681 110.447L165.25 111.066C165.188 111.155 165.21 111.278 165.299 111.34C165.388 111.402 165.511 111.381 165.574 111.291L165.78 110.996L165.836 111.305C165.622 111.344 165.479 111.549 165.518 111.763L165.588 112.152C165.626 112.366 165.832 112.508 166.046 112.47L166.434 112.4C166.648 112.361 166.791 112.156 166.753 111.941L166.682 111.553C166.644 111.339 166.438 111.196 166.224 111.235L166.168 110.926L166.465 111.131C166.509 111.161 166.562 111.171 166.612 111.162C166.662 111.153 166.708 111.125 166.739 111.08C166.801 110.991 166.779 110.868 166.689 110.806L166.069 110.377L166.014 110.07L166.208 110.035C166.315 110.015 166.386 109.913 166.367 109.806C166.348 109.699 166.245 109.627 166.138 109.647L165.944 109.682L165.818 108.987L166.573 109.509C166.618 109.541 166.671 109.55 166.72 109.541C166.77 109.532 166.817 109.505 166.848 109.46C166.91 109.37 166.887 109.247 166.798 109.185L165.719 108.439L165.666 108.144C165.868 108.141 166.073 108.189 166.263 108.292L166.381 108.356C166.421 108.378 166.467 108.384 166.51 108.377C166.539 108.371 166.566 108.36 166.591 108.342C166.652 108.298 166.683 108.222 166.669 108.147L166.614 107.84C166.58 107.652 166.593 107.466 166.643 107.291L166.914 107.39L167.466 108.579C167.504 108.662 167.594 108.706 167.68 108.691C167.696 108.688 167.712 108.683 167.728 108.675C167.827 108.63 167.87 108.512 167.824 108.413L167.437 107.581L168.14 107.837L168.077 107.983C168.033 108.083 168.079 108.199 168.179 108.242C168.216 108.258 168.256 108.262 168.292 108.255C168.355 108.244 168.411 108.203 168.439 108.14L168.511 107.972L168.765 108.065L169.081 108.748C169.12 108.832 169.209 108.875 169.295 108.86C169.312 108.857 169.328 108.852 169.343 108.845C169.442 108.799 169.486 108.682 169.44 108.583L169.288 108.256L169.584 108.363C169.509 108.568 169.615 108.794 169.819 108.869L170.19 109.004C170.257 109.029 170.328 109.034 170.394 109.022C170.528 108.998 170.646 108.906 170.695 108.769L170.831 108.398C170.905 108.194 170.8 107.967 170.595 107.892ZM164.088 107.217C163.929 107.091 163.745 106.993 163.541 106.934L163.486 106.918L163.532 106.883C163.702 106.756 163.84 106.6 163.946 106.426L164.4 106.592C164.399 106.644 164.403 106.697 164.412 106.75C164.422 106.803 164.437 106.855 164.456 106.903L164.088 107.217ZM165.207 107.822C165.01 107.883 164.823 107.983 164.658 108.121C164.606 107.89 164.504 107.68 164.365 107.499L164.693 107.219C164.816 107.319 164.967 107.382 165.13 107.394L165.207 107.822L165.207 107.822ZM164.86 105.896C164.712 105.965 164.592 106.076 164.512 106.213L164.107 106.065C164.173 105.847 164.196 105.615 164.164 105.381C164.366 105.452 164.576 105.48 164.783 105.469L164.86 105.896L164.86 105.896ZM165.171 105.399C165.369 105.337 165.555 105.237 165.72 105.1C165.772 105.331 165.874 105.541 166.012 105.722L165.685 106.001C165.562 105.901 165.411 105.839 165.248 105.826L165.171 105.399ZM166.214 107.84C166.012 107.769 165.802 107.74 165.595 107.751L165.518 107.324C165.667 107.256 165.786 107.144 165.867 107.008L166.271 107.155C166.205 107.373 166.183 107.605 166.214 107.84ZM166.431 106.794L165.978 106.628C165.979 106.576 165.975 106.523 165.966 106.47C165.956 106.417 165.941 106.366 165.922 106.318L166.289 106.004C166.448 106.13 166.632 106.228 166.835 106.287L166.889 106.303L166.844 106.337C166.674 106.464 166.536 106.62 166.431 106.794Z" fill="white"/>
<path d="M40.5817 81.2745L40.2108 81.1391C40.0065 81.0653 39.7793 81.1707 39.705 81.3747L39.7049 81.375L39.4095 81.2671L39.7361 81.1145C39.8349 81.0682 39.8775 80.9507 39.8312 80.8522C39.7852 80.7534 39.668 80.711 39.5691 80.757L38.8863 81.0764L38.655 80.9919L38.7081 80.8694C38.7516 80.7694 38.7058 80.6533 38.6057 80.6098C38.5053 80.5666 38.3894 80.6124 38.3461 80.7124L38.2835 80.8564L37.559 80.5922L38.3908 80.2037C38.4893 80.1575 38.5321 80.0401 38.486 79.9414C38.4399 79.8426 38.3222 79.8002 38.2237 79.8462L37.0353 80.4013L36.7991 80.315C36.872 80.2102 36.9604 80.1149 37.0667 80.0351L37.427 79.7652C37.4867 79.7206 37.5159 79.6459 37.5026 79.5723C37.4893 79.4988 37.4359 79.4392 37.3644 79.4183L36.9324 79.2909C36.805 79.2536 36.689 79.1951 36.5839 79.1227L36.7751 78.9593L38.0825 79.0639C38.1 79.0652 38.117 79.0643 38.1335 79.0614C38.2194 79.0459 38.2878 78.9742 38.295 78.8831C38.3037 78.7744 38.2226 78.6794 38.1141 78.6705L37.199 78.5973L37.7854 78.0963L37.8945 78.2096C37.9421 78.2589 38.0091 78.2781 38.0718 78.2668C38.1089 78.2601 38.1442 78.2429 38.1734 78.2148C38.252 78.1392 38.2544 78.0145 38.1787 77.936L38.0861 77.8398L38.2734 77.6797L39.0247 77.7404C39.0421 77.7417 39.0592 77.7408 39.0757 77.7378C39.1615 77.7223 39.2296 77.6507 39.237 77.5595C39.2459 77.4511 39.165 77.3558 39.0561 77.347L38.6969 77.318L38.9359 77.1139L38.9361 77.1141C39.0304 77.2244 39.1732 77.27 39.3067 77.2459C39.3731 77.2339 39.4374 77.2046 39.4923 77.1576L39.7925 76.9016C39.9579 76.7603 39.9774 76.5108 39.8361 76.3452L39.5798 76.0452C39.4387 75.8797 39.1888 75.86 39.0236 76.0015L38.7233 76.258C38.5583 76.3992 38.5386 76.6487 38.6799 76.8139L38.4409 77.018L38.4684 76.6586C38.4769 76.55 38.3954 76.4552 38.2867 76.447C38.1794 76.4391 38.0831 76.5198 38.0749 76.6286L38.0174 77.3797L37.8121 77.5551L37.6853 77.4236C37.6098 77.345 37.4848 77.3427 37.4064 77.4182C37.3279 77.4939 37.3255 77.6186 37.4011 77.6972L37.5114 77.8118L36.9428 78.2975L37.0138 77.3822C37.0221 77.2736 36.9408 77.1787 36.8322 77.1702C36.7242 77.1626 36.6289 77.2432 36.6202 77.3518L36.519 78.6595L36.2994 78.8469C36.1916 78.7005 36.1143 78.53 36.0805 78.3425L36.025 78.0347C36.0115 77.9602 35.9563 77.9 35.8833 77.8797C35.8103 77.8594 35.7321 77.8827 35.6821 77.9402L35.5936 78.0416C35.4521 78.2039 35.2768 78.3205 35.0864 78.3885L35.0332 78.0938L35.7825 77.0175C35.845 76.9283 35.8227 76.8052 35.7333 76.7429C35.6441 76.6806 35.5212 76.7028 35.4587 76.7921L34.9343 77.5455L34.8089 76.8508L35.0031 76.8158C35.1105 76.7964 35.1816 76.694 35.1622 76.5866C35.1429 76.4794 35.0404 76.4081 34.933 76.4275L34.7389 76.4625L34.6834 76.1552L35.1144 75.5371C35.1766 75.4477 35.1548 75.3247 35.0654 75.2623C34.9762 75.2002 34.8529 75.2216 34.7905 75.3113L34.5845 75.6069L34.5286 75.2976C34.7428 75.2589 34.8855 75.0534 34.8469 74.8392L34.7768 74.4509C34.7382 74.2369 34.5326 74.094 34.3184 74.1327L33.9301 74.2027C33.7161 74.2413 33.5733 74.4472 33.6119 74.6611L33.6819 75.0494C33.7206 75.2636 33.9264 75.4063 34.1403 75.3677L34.1961 75.677L33.8998 75.4721C33.8102 75.41 33.6872 75.433 33.6251 75.5222C33.5633 75.612 33.5859 75.7348 33.6753 75.7969L34.2951 76.2253L34.3506 76.5326L34.1564 76.5676C34.049 76.587 33.978 76.6896 33.9973 76.7968C34.0167 76.9042 34.1191 76.9753 34.2265 76.9559L34.4206 76.9209L34.546 77.6156L33.7913 77.093C33.702 77.0313 33.579 77.0531 33.5168 77.1429C33.455 77.2324 33.4772 77.3555 33.5668 77.4174L34.6449 78.1638L34.6981 78.4586C34.4959 78.4614 34.291 78.4133 34.1017 78.311L33.9833 78.2467C33.9163 78.2101 33.8349 78.2158 33.7738 78.2603C33.7123 78.3049 33.6816 78.3806 33.6951 78.4551L33.7504 78.7613C33.7843 78.9492 33.7713 79.1364 33.7212 79.3117L33.4508 79.2131L32.8986 78.0233C32.8527 77.9245 32.7353 77.8824 32.6365 77.9272C32.5378 77.9731 32.4948 78.0905 32.5407 78.1893L32.927 79.0222L32.2245 78.7658L32.2878 78.6199C32.3313 78.5198 32.2855 78.4038 32.1854 78.3603C32.0852 78.317 31.969 78.3629 31.9258 78.4628L31.853 78.6304L31.5996 78.5378L31.2829 77.8541C31.237 77.7552 31.1189 77.7131 31.021 77.7581C30.922 77.8038 30.879 77.921 30.9247 78.0198L31.0763 78.3469L30.7809 78.2393C30.8555 78.0351 30.75 77.8082 30.5456 77.7334L30.1748 77.5982C29.9708 77.5234 29.7435 77.6291 29.6692 77.8336L29.5336 78.2043C29.4592 78.4088 29.5649 78.6357 29.7692 78.7103L30.1399 78.8455C30.2078 78.8701 30.2781 78.8751 30.3445 78.8631C30.4783 78.8389 30.5959 78.7463 30.6459 78.61L30.6458 78.6098L30.9411 78.7175L30.6146 78.8702C30.5159 78.9165 30.4732 79.0341 30.5194 79.1326C30.5583 79.2154 30.6471 79.2587 30.7331 79.2432C30.7496 79.2402 30.7659 79.2351 30.7818 79.2278L31.4643 78.9084L31.6959 78.9929L31.6426 79.1153C31.5993 79.2154 31.6451 79.3314 31.7451 79.3747C31.7821 79.3909 31.8215 79.3946 31.8584 79.388C31.9211 79.3766 31.9774 79.3352 32.0045 79.2724L32.0671 79.1282L32.7918 79.3925L31.96 79.781C31.8613 79.8273 31.8185 79.9447 31.8648 80.0433C31.9034 80.1262 31.9924 80.1695 32.0782 80.154C32.0947 80.151 32.1111 80.1459 32.127 80.1386L33.3153 79.5835L33.5505 79.6694C33.4774 79.774 33.3888 79.8696 33.2822 79.9489L32.9192 80.2201C32.8591 80.2649 32.8297 80.3395 32.8429 80.4131C32.8562 80.4867 32.9099 80.5466 32.9819 80.5675L33.4168 80.6945C33.5444 80.7318 33.6608 80.7902 33.7659 80.8628L33.5755 81.0255L32.2681 80.9208C32.1599 80.9122 32.0645 80.993 32.0558 81.1016C32.0469 81.2103 32.128 81.3053 32.2367 81.3142L33.1518 81.3874L32.5652 81.8882L32.4562 81.7752C32.3808 81.6966 32.2558 81.6943 32.1773 81.7698C32.0988 81.8455 32.0965 81.9702 32.172 82.0488L32.2647 82.1449L32.0773 82.305L31.3262 82.2443C31.2176 82.2361 31.1225 82.3166 31.1136 82.4252C31.1047 82.5337 31.1859 82.6289 31.2945 82.6378L31.6538 82.6665L31.4148 82.8709L31.4147 82.8707C31.2735 82.7055 31.0241 82.6855 30.8583 82.8269L30.5584 83.0832C30.393 83.2245 30.3733 83.4738 30.5146 83.6394L30.771 83.9395C30.8654 84.0502 31.0081 84.0954 31.1417 84.0713C31.2081 84.0593 31.2723 84.0301 31.3271 83.9833L31.6276 83.7268C31.7925 83.5854 31.8121 83.3361 31.6708 83.1709L31.91 82.9666L31.8823 83.326C31.874 83.4348 31.9552 83.5294 32.064 83.5378C32.0811 83.5391 32.0979 83.5381 32.1143 83.5352C32.2005 83.5196 32.2688 83.4475 32.2758 83.3561L32.3335 82.6049L32.5387 82.4297L32.6654 82.5612C32.713 82.6106 32.78 82.6297 32.8428 82.6184C32.8798 82.6117 32.9152 82.5945 32.9444 82.5664C33.023 82.4909 33.0254 82.3661 32.9496 82.2876L32.8394 82.173L33.4079 81.6873L33.3371 82.6026C33.3286 82.7112 33.4099 82.8062 33.5185 82.8145C33.5357 82.8158 33.5526 82.8149 33.5689 82.812C33.6551 82.7964 33.7233 82.7244 33.7305 82.6329L33.8319 81.3253L34.0508 81.1382C34.1591 81.2851 34.2366 81.4559 34.2705 81.6439L34.3258 81.9499C34.3392 82.0247 34.3944 82.0849 34.4676 82.1052C34.5404 82.1253 34.6188 82.1019 34.6686 82.0446L34.7572 81.9432C34.8987 81.781 35.0739 81.6644 35.2643 81.5963L35.3175 81.8909L34.5683 82.9671C34.506 83.0565 34.5282 83.1796 34.6174 83.2417C34.7069 83.3041 34.8298 83.282 34.892 83.1925L35.4165 82.4393L35.5418 83.1338L35.3476 83.1689C35.2403 83.1882 35.1692 83.2909 35.1885 83.398C35.2079 83.5054 35.3103 83.5765 35.4177 83.5572L35.6119 83.5221L35.6674 83.8297L35.2364 84.4477C35.1743 84.5369 35.1961 84.6601 35.2854 84.7226C35.3745 84.7843 35.4978 84.7628 35.5602 84.6736L35.7663 84.378L35.8221 84.6871C35.6081 84.7257 35.4652 84.9315 35.5038 85.1455L35.5739 85.5338C35.6126 85.7479 35.8184 85.8906 36.0323 85.852L36.4206 85.7819C36.6348 85.7433 36.7775 85.5377 36.7389 85.3236L36.6688 84.9352C36.6302 84.7213 36.4246 84.5783 36.2104 84.617L36.1546 84.3079L36.451 84.5128C36.4957 84.5437 36.5488 84.5535 36.5983 84.5446C36.6482 84.5356 36.6946 84.5073 36.7256 84.4626C36.7876 84.3729 36.765 84.2499 36.6755 84.188L36.0557 83.7596L36.0002 83.4521L36.1943 83.417C36.3017 83.3977 36.3728 83.2952 36.3534 83.1878C36.3341 83.0807 36.2316 83.0094 36.1243 83.0287L35.9301 83.0638L35.8048 82.3693L36.5594 82.8917C36.6041 82.9227 36.657 82.9326 36.7067 82.9236C36.7564 82.9147 36.8029 82.8868 36.8339 82.8417C36.8959 82.7523 36.8737 82.6293 36.784 82.5673L35.7058 81.8208L35.6527 81.5263C35.8548 81.5235 36.0598 81.5715 36.249 81.6739L36.3675 81.7381C36.4077 81.7599 36.4534 81.7665 36.4965 81.7587C36.5252 81.7535 36.5526 81.7422 36.5771 81.7245C36.6385 81.68 36.6691 81.6043 36.6556 81.5295L36.6001 81.2218C36.5663 81.0344 36.5791 80.8477 36.6289 80.6727L36.9002 80.7717L37.452 81.9614C37.4907 82.0446 37.58 82.0883 37.666 82.0728C37.6823 82.0698 37.6984 82.0647 37.7142 82.0574C37.813 82.0117 37.8559 81.8943 37.8102 81.7955L37.4238 80.9627L38.1262 81.2191L38.0629 81.365C38.0196 81.465 38.0654 81.5811 38.1655 81.6243C38.2025 81.6405 38.2418 81.6443 38.2787 81.6376C38.3414 81.6263 38.3977 81.5849 38.4249 81.522L38.4977 81.3545L38.7513 81.4469L39.0677 82.1305C39.1064 82.2138 39.1957 82.2574 39.2817 82.2419C39.298 82.2389 39.3142 82.234 39.3297 82.2268C39.4287 82.1809 39.4719 82.0638 39.426 81.9648L39.2745 81.6377L39.5698 81.7456C39.4952 81.9497 39.6009 82.1764 39.8053 82.2514L40.1759 82.3866C40.2437 82.4113 40.3139 82.4163 40.3803 82.4043C40.5141 82.3801 40.632 82.2879 40.6817 82.1512L40.817 81.7804C40.8915 81.5758 40.786 81.3491 40.5817 81.2745ZM34.0748 80.5991C33.9154 80.4733 33.7312 80.3757 33.5273 80.316L33.4721 80.2997L33.5182 80.2653C33.6883 80.1382 33.8268 79.9823 33.9321 79.8085L34.3865 79.9743C34.3853 80.0264 34.3892 80.0793 34.3988 80.1325C34.4084 80.1857 34.4232 80.2367 34.4426 80.2851L34.0748 80.5991ZM35.1935 81.2038C34.996 81.2655 34.8092 81.3655 34.6445 81.5029C34.5924 81.2719 34.49 81.0623 34.3517 80.8815L34.6795 80.6014C34.8026 80.7015 34.9536 80.7641 35.1164 80.7764L35.1935 81.2038L35.1935 81.2038ZM34.8461 79.2783C34.6979 79.3469 34.5782 79.4583 34.4979 79.5951L34.0929 79.4473C34.1593 79.2296 34.1819 78.9972 34.15 78.7628C34.3523 78.8337 34.5623 78.8624 34.769 78.8511L34.8461 79.2783L34.8461 79.2783ZM35.1573 78.7811C35.3549 78.7196 35.5417 78.6193 35.7063 78.4819C35.7584 78.7129 35.8605 78.9228 35.9988 79.1038L35.6713 79.3834C35.5482 79.2833 35.3972 79.2208 35.2344 79.2083L35.1573 78.7811ZM36.2008 81.222C35.9985 81.1509 35.7885 81.1223 35.5818 81.1335L35.5047 80.7063C35.653 80.6379 35.7726 80.5265 35.8529 80.3897L36.2573 80.5373C36.1911 80.7551 36.1689 80.9874 36.2008 81.222ZM36.4176 80.1757L35.9643 80.0105C35.9656 79.9584 35.9616 79.9054 35.952 79.8522C35.9424 79.799 35.9276 79.7481 35.9082 79.6997L36.2751 79.3863C36.4343 79.5121 36.618 79.6099 36.821 79.6695L36.8754 79.6855L36.83 79.7194C36.6605 79.8464 36.5228 80.0022 36.4176 80.1757Z" fill="white"/>
<path d="M75.4713 119.082L75.1005 118.947C74.8961 118.873 74.6689 118.978 74.5947 119.182L74.5945 119.183L74.2992 119.075L74.6257 118.922C74.7246 118.876 74.7671 118.758 74.7209 118.66C74.6748 118.561 74.5577 118.519 74.4587 118.565L73.776 118.884L73.5446 118.8L73.5977 118.677C73.6412 118.577 73.5954 118.461 73.4953 118.418C73.3949 118.374 73.2791 118.42 73.2358 118.52L73.1731 118.664L72.4486 118.4L73.2805 118.011C73.379 117.965 73.4217 117.848 73.3757 117.749C73.3296 117.65 73.2118 117.608 73.1133 117.654L71.925 118.209L71.6887 118.123C71.7616 118.018 71.85 117.923 71.9563 117.843L72.3166 117.573C72.3763 117.528 72.4056 117.454 72.3923 117.38C72.379 117.306 72.3255 117.247 72.254 117.226L71.8221 117.099C71.6946 117.061 71.5786 117.003 71.4735 116.93L71.6648 116.767L72.9721 116.872C72.9896 116.873 73.0067 116.872 73.0232 116.869C73.109 116.854 73.1775 116.782 73.1847 116.691C73.1933 116.582 73.1122 116.487 73.0038 116.478L72.0886 116.405L72.675 115.904L72.7841 116.017C72.8317 116.067 72.8987 116.086 72.9614 116.074C72.9985 116.068 73.0339 116.051 73.0631 116.022C73.1417 115.947 73.144 115.822 73.0683 115.744L72.9758 115.647L73.163 115.487L73.9143 115.548C73.9318 115.549 73.9489 115.548 73.9654 115.545C74.0512 115.53 74.1193 115.458 74.1267 115.367C74.1356 115.259 74.0546 115.164 73.9458 115.155L73.5865 115.126L73.8255 114.922L73.8258 114.922C73.9201 115.032 74.0628 115.078 74.1964 115.054C74.2628 115.042 74.3271 115.012 74.382 114.965L74.6822 114.709C74.8475 114.568 74.867 114.318 74.7257 114.153L74.4695 113.853C74.3284 113.687 74.0784 113.668 73.9133 113.809L73.6129 114.066C73.448 114.207 73.4283 114.456 73.5695 114.622L73.3305 114.826L73.3581 114.466C73.3666 114.358 73.2851 114.263 73.1763 114.255C73.0691 114.247 72.9728 114.327 72.9645 114.436L72.907 115.187L72.7017 115.363L72.5749 115.231C72.4994 115.153 72.3745 115.15 72.2961 115.226C72.2176 115.302 72.2152 115.426 72.2907 115.505L72.401 115.62L71.8325 116.105L71.9035 115.19C71.9117 115.081 71.8304 114.986 71.7219 114.978C71.6138 114.97 71.5185 115.051 71.5099 115.159L71.4087 116.467L71.1891 116.655C71.0813 116.508 71.004 116.338 70.9701 116.15L70.9146 115.842C70.9012 115.768 70.846 115.708 70.773 115.687C70.6999 115.667 70.6217 115.69 70.5718 115.748L70.4832 115.849C70.3417 116.012 70.1665 116.128 69.9761 116.196L69.9229 115.901L70.6721 114.825C70.7346 114.736 70.7124 114.613 70.623 114.551C70.5338 114.488 70.4108 114.51 70.3484 114.6L69.824 115.353L69.6986 114.658L69.8927 114.623C70.0001 114.604 70.0712 114.502 70.0518 114.394C70.0325 114.287 69.93 114.216 69.8227 114.235L69.6285 114.27L69.5731 113.963L70.004 113.345C70.0663 113.255 70.0445 113.132 69.955 113.07C69.8658 113.008 69.7426 113.029 69.6802 113.119L69.4741 113.415L69.4183 113.105C69.6324 113.067 69.7752 112.861 69.7365 112.647L69.6665 112.259C69.6279 112.045 69.4222 111.902 69.2081 111.94L68.8198 112.01C68.6058 112.049 68.4629 112.255 68.5015 112.469L68.5716 112.857C68.6102 113.071 68.816 113.214 69.03 113.175L69.0858 113.485L68.7894 113.28C68.6998 113.218 68.5769 113.241 68.5148 113.33C68.453 113.42 68.4756 113.542 68.5649 113.605L69.1847 114.033L69.2402 114.34L69.0461 114.375C68.9387 114.395 68.8676 114.497 68.8869 114.604C68.9063 114.712 69.0088 114.783 69.1161 114.764L69.3103 114.729L69.4356 115.423L68.681 114.901C68.5916 114.839 68.4687 114.861 68.4065 114.951C68.3447 115.04 68.3669 115.163 68.4564 115.225L69.5346 115.971L69.5878 116.266C69.3856 116.269 69.1807 116.221 68.9914 116.119L68.8729 116.054C68.806 116.018 68.7246 116.023 68.6635 116.068C68.6019 116.113 68.5713 116.188 68.5847 116.263L68.64 116.569C68.6739 116.757 68.661 116.944 68.6108 117.119L68.3404 117.021L67.7883 115.831C67.7424 115.732 67.6249 115.69 67.5262 115.735C67.4274 115.781 67.3845 115.898 67.4303 115.997L67.8166 116.83L67.1142 116.573L67.1774 116.428C67.2209 116.327 67.1751 116.211 67.0751 116.168C66.9748 116.125 66.8586 116.171 66.8155 116.271L66.7427 116.438L66.4892 116.345L66.1726 115.662C66.1266 115.563 66.0086 115.521 65.9107 115.566C65.8117 115.611 65.7687 115.729 65.8143 115.827L65.966 116.155L65.6705 116.047C65.7451 115.843 65.6396 115.616 65.4353 115.541L65.0644 115.406C64.8605 115.331 64.6332 115.437 64.5588 115.641L64.4232 116.012C64.3489 116.216 64.4546 116.443 64.6589 116.518L65.0295 116.653C65.0975 116.678 65.1678 116.683 65.2342 116.671C65.3679 116.647 65.4855 116.554 65.5355 116.418L65.5355 116.417L65.8308 116.525L65.5043 116.678C65.4056 116.724 65.3628 116.842 65.4091 116.94C65.4479 117.023 65.5367 117.066 65.6227 117.051C65.6392 117.048 65.6555 117.043 65.6715 117.035L66.354 116.716L66.5855 116.801L66.5323 116.923C66.489 117.023 66.5348 117.139 66.6348 117.182C66.6718 117.199 66.7112 117.202 66.748 117.196C66.8107 117.184 66.867 117.143 66.8942 117.08L66.9568 116.936L67.6815 117.2L66.8497 117.589C66.7509 117.635 66.7082 117.752 66.7545 117.851C66.7931 117.934 66.8821 117.977 66.9679 117.962C66.9844 117.959 67.0007 117.954 67.0166 117.946L68.2049 117.391L68.4402 117.477C68.367 117.582 68.2784 117.677 68.1719 117.757L67.8088 118.028C67.7487 118.073 67.7193 118.147 67.7326 118.221C67.7459 118.294 67.7996 118.354 67.8715 118.375L68.3064 118.502C68.434 118.539 68.5504 118.598 68.6555 118.67L68.4652 118.833L67.1578 118.728C67.0496 118.72 66.9541 118.801 66.9454 118.909C66.9366 119.018 67.0177 119.113 67.1263 119.122L68.0415 119.195L67.4548 119.696L67.3458 119.583C67.2705 119.504 67.1454 119.502 67.067 119.577C66.9885 119.653 66.9861 119.778 67.0616 119.856L67.1543 119.953L66.9669 120.113L66.2158 120.052C66.1073 120.044 66.0121 120.124 66.0033 120.233C65.9944 120.341 66.0755 120.437 66.1842 120.445L66.5434 120.474L66.3044 120.679L66.3044 120.678C66.1631 120.513 65.9137 120.493 65.748 120.635L65.448 120.891C65.2827 121.032 65.2629 121.281 65.4043 121.447L65.6607 121.747C65.7551 121.858 65.8977 121.903 66.0313 121.879C66.0977 121.867 66.162 121.838 66.2167 121.791L66.5172 121.534C66.6822 121.393 66.7017 121.144 66.5605 120.979L66.7996 120.774L66.7719 121.134C66.7637 121.242 66.8449 121.337 66.9537 121.345C66.9708 121.347 66.9876 121.346 67.0039 121.343C67.0901 121.327 67.1585 121.255 67.1655 121.164L67.2232 120.413L67.4283 120.237L67.5551 120.369C67.6027 120.418 67.6697 120.437 67.7324 120.426C67.7695 120.419 67.8049 120.402 67.8341 120.374C67.9126 120.299 67.915 120.174 67.8393 120.095L67.729 119.981L68.2975 119.495L68.2267 120.41C68.2183 120.519 68.2996 120.614 68.4081 120.622C68.4254 120.623 68.4423 120.623 68.4586 120.62C68.5448 120.604 68.613 120.532 68.6201 120.441L68.7216 119.133L68.9404 118.946C69.0487 119.093 69.1262 119.264 69.1602 119.452L69.2154 119.758C69.2289 119.832 69.2841 119.893 69.3573 119.913C69.4301 119.933 69.5085 119.91 69.5583 119.852L69.6468 119.751C69.7883 119.589 69.9636 119.472 70.154 119.404L70.2071 119.699L69.4579 120.775C69.3956 120.864 69.4179 120.987 69.5071 121.049C69.5965 121.112 69.7194 121.09 69.7817 121L70.3061 120.247L70.4314 120.941L70.2373 120.977C70.1299 120.996 70.0588 121.099 70.0782 121.206C70.0976 121.313 70.2 121.384 70.3074 121.365L70.5015 121.33L70.557 121.637L70.1261 122.255C70.064 122.345 70.0858 122.468 70.175 122.53C70.2642 122.592 70.3874 122.57 70.4499 122.481L70.656 122.186L70.7117 122.495C70.4978 122.533 70.3549 122.739 70.3935 122.953L70.4636 123.341C70.5022 123.556 70.708 123.698 70.922 123.66L71.3103 123.59C71.5244 123.551 71.6672 123.345 71.6285 123.131L71.5584 122.743C71.5198 122.529 71.3142 122.386 71.1001 122.425L71.0443 122.116L71.3407 122.32C71.3853 122.351 71.4384 122.361 71.4879 122.352C71.5378 122.343 71.5843 122.315 71.6153 122.27C71.6773 122.181 71.6547 122.058 71.5651 121.996L70.9453 121.567L70.8898 121.26L71.084 121.225C71.1913 121.205 71.2625 121.103 71.2431 120.996C71.2237 120.888 71.1213 120.817 71.0139 120.836L70.8198 120.871L70.6944 120.177L71.4491 120.699C71.4938 120.73 71.5467 120.74 71.5964 120.731C71.6461 120.722 71.6926 120.694 71.7235 120.649C71.7856 120.56 71.7634 120.437 71.6736 120.375L70.5955 119.628L70.5423 119.334C70.7445 119.331 70.9494 119.379 71.1387 119.482L71.2571 119.546C71.2974 119.568 71.3431 119.574 71.3862 119.566C71.4149 119.561 71.4423 119.55 71.4668 119.532C71.5281 119.488 71.5587 119.412 71.5453 119.337L71.4897 119.029C71.4559 118.842 71.4687 118.655 71.5185 118.48L71.7898 118.579L72.3417 119.769C72.3804 119.852 72.4696 119.896 72.5557 119.88C72.572 119.877 72.5881 119.872 72.6038 119.865C72.7026 119.819 72.7456 119.702 72.6999 119.603L72.3134 118.77L73.0159 119.027L72.9526 119.173C72.9093 119.273 72.9551 119.389 73.0551 119.432C73.0921 119.448 73.1315 119.452 73.1684 119.445C73.2311 119.434 73.2874 119.393 73.3145 119.33L73.3873 119.162L73.6409 119.255L73.9574 119.938C73.9961 120.021 74.0853 120.065 74.1713 120.05C74.1877 120.047 74.2038 120.042 74.2193 120.034C74.3183 119.989 74.3616 119.871 74.3156 119.772L74.1642 119.445L74.4595 119.553C74.3849 119.757 74.4905 119.984 74.6949 120.059L75.0655 120.194C75.1333 120.219 75.2036 120.224 75.27 120.212C75.4037 120.188 75.5216 120.096 75.5713 119.959L75.7067 119.588C75.7811 119.383 75.6757 119.157 75.4713 119.082ZM68.9645 118.407C68.805 118.281 68.6208 118.183 68.417 118.124L68.3617 118.107L68.4078 118.073C68.578 117.946 68.7164 117.79 68.8218 117.616L69.2761 117.782C69.2749 117.834 69.2788 117.887 69.2884 117.94C69.298 117.993 69.3129 118.044 69.3322 118.093L68.9645 118.407ZM70.0832 119.011C69.8856 119.073 69.6988 119.173 69.5341 119.311C69.482 119.08 69.3797 118.87 69.2414 118.689L69.5691 118.409C69.6922 118.509 69.8432 118.572 70.006 118.584L70.0832 119.011L70.0832 119.011ZM69.7357 117.086C69.5875 117.155 69.4679 117.266 69.3875 117.403L68.9826 117.255C69.0489 117.037 69.0716 116.805 69.0397 116.57C69.2419 116.641 69.452 116.67 69.6587 116.659L69.7357 117.086L69.7357 117.086ZM70.0469 116.589C70.2445 116.527 70.4313 116.427 70.596 116.29C70.6481 116.521 70.7501 116.731 70.8884 116.911L70.561 117.191C70.4379 117.091 70.2869 117.028 70.124 117.016L70.0469 116.589ZM71.0905 119.03C70.8882 118.959 70.6781 118.93 70.4715 118.941L70.3944 118.514C70.5426 118.446 70.6622 118.334 70.7426 118.197L71.1469 118.345C71.0808 118.563 71.0585 118.795 71.0905 119.03ZM71.3072 117.983L70.854 117.818C70.8552 117.766 70.8512 117.713 70.8416 117.66C70.832 117.607 70.8173 117.556 70.7979 117.507L71.1647 117.194C71.324 117.32 71.5076 117.418 71.7106 117.477L71.765 117.493L71.7196 117.527C71.5501 117.654 71.4124 117.81 71.3072 117.983Z" fill="white"/>
<defs>
<filter id="filter0_d_321_1589" x="0.52709" y="0.000455856" width="218.935" height="158.804" filterUnits="userSpaceOnUse" color-interpolation-filters="sRGB">
<feFlood flood-opacity="0" result="BackgroundImageFix"/>
<feColorMatrix in="SourceAlpha" type="matrix" values="0 0 0 0 0 0 0 0 0 0 0 0 0 0 0 0 0 0 127 0" result="hardAlpha"/>
<feOffset dy="2.71314"/>
<feGaussianBlur stdDeviation="1.35657"/>
<feComposite in2="hardAlpha" operator="out"/>
<feColorMatrix type="matrix" values="0 0 0 0 0 0 0 0 0 0 0 0 0 0 0 0 0 0 0.25 0"/>
<feBlend mode="normal" in2="BackgroundImageFix" result="effect1_dropShadow_321_1589"/>
<feBlend mode="normal" in="SourceGraphic" in2="effect1_dropShadow_321_1589" result="shape"/>
</filter>
<filter id="filter1_d_321_1589" x="14.3894" y="15.837" width="190.693" height="126.133" filterUnits="userSpaceOnUse" color-interpolation-filters="sRGB">
<feFlood flood-opacity="0" result="BackgroundImageFix"/>
<feColorMatrix in="SourceAlpha" type="matrix" values="0 0 0 0 0 0 0 0 0 0 0 0 0 0 0 0 0 0 127 0" result="hardAlpha"/>
<feOffset dy="0.678286"/>
<feComposite in2="hardAlpha" operator="out"/>
<feColorMatrix type="matrix" values="0 0 0 0 0.829167 0 0 0 0 0.0345486 0 0 0 0 0.241692 0 0 0 1 0"/>
<feBlend mode="normal" in2="BackgroundImageFix" result="effect1_dropShadow_321_1589"/>
<feBlend mode="normal" in="SourceGraphic" in2="effect1_dropShadow_321_1589" result="shape"/>
</filter>
<filter id="filter2_d_321_1589" x="66.5757" y="60.71" width="90.8601" height="32.4099" filterUnits="userSpaceOnUse" color-interpolation-filters="sRGB">
<feFlood flood-opacity="0" result="BackgroundImageFix"/>
<feColorMatrix in="SourceAlpha" type="matrix" values="0 0 0 0 0 0 0 0 0 0 0 0 0 0 0 0 0 0 127 0" result="hardAlpha"/>
<feOffset dy="2.03486"/>
<feComposite in2="hardAlpha" operator="out"/>
<feColorMatrix type="matrix" values="0 0 0 0 0 0 0 0 0 0 0 0 0 0 0 0 0 0 0.16 0"/>
<feBlend mode="normal" in2="BackgroundImageFix" result="effect1_dropShadow_321_1589"/>
<feBlend mode="normal" in="SourceGraphic" in2="effect1_dropShadow_321_1589" result="shape"/>
</filter>
<filter id="filter3_d_321_1589" x="25.9861" y="46.5778" width="29.6035" height="21.8023" filterUnits="userSpaceOnUse" color-interpolation-filters="sRGB">
<feFlood flood-opacity="0" result="BackgroundImageFix"/>
<feColorMatrix in="SourceAlpha" type="matrix" values="0 0 0 0 0 0 0 0 0 0 0 0 0 0 0 0 0 0 127 0" result="hardAlpha"/>
<feOffset dy="2.03486"/>
<feComposite in2="hardAlpha" operator="out"/>
<feColorMatrix type="matrix" values="0 0 0 0 0 0 0 0 0 0 0 0 0 0 0 0 0 0 0.16 0"/>
<feBlend mode="normal" in2="BackgroundImageFix" result="effect1_dropShadow_321_1589"/>
<feBlend mode="normal" in="SourceGraphic" in2="effect1_dropShadow_321_1589" result="shape"/>
</filter>
</defs>
</svg>
