<svg width="1379" height="221" viewBox="0 0 1379 221" fill="none" xmlns="http://www.w3.org/2000/svg">
<path d="M1341.5 86C1341 90.5 1340.5 94 1340 97C1339.5 94.5 1338.5 87 1338.5 85C1338.5 82.5 1339.5 75.6087 1340 73C1340.5 75.6087 1341.78 83.5153 1341.5 86Z" fill="white"/>
<path d="M1340 83.5C1343.54 83.5 1349 84.5 1352 85C1349.5 85.5 1342 86.5 1340 86.5C1337.5 86.5 1330.61 85.5 1328 85C1330.61 84.5 1337.5 83.5 1340 83.5Z" fill="white"/>
<path d="M1130.5 198C1130 202.5 1129.5 206 1129 209C1128.5 206.5 1127.5 199 1127.5 197C1127.5 194.5 1128.5 187.609 1129 185C1129.5 187.609 1130.78 195.515 1130.5 198Z" fill="white"/>
<path d="M1129 195.5C1132.54 195.5 1138 196.5 1141 197C1138.5 197.5 1131 198.5 1129 198.5C1126.5 198.5 1119.61 197.5 1117 197C1119.61 196.5 1126.5 195.5 1129 195.5Z" fill="white"/>
<path d="M1225.5 146C1225 150.5 1224.5 154 1224 157C1223.5 154.5 1222.5 147 1222.5 145C1222.5 142.5 1223.5 135.609 1224 133C1224.5 135.609 1225.78 143.515 1225.5 146Z" fill="white"/>
<path d="M1224 143.5C1227.54 143.5 1233 144.5 1236 145C1233.5 145.5 1226 146.5 1224 146.5C1221.5 146.5 1214.61 145.5 1212 145C1214.61 144.5 1221.5 143.5 1224 143.5Z" fill="white"/>
<path d="M1201.5 62C1201 66.5 1200.5 70 1200 73C1199.5 70.5 1198.5 63 1198.5 61C1198.5 58.5 1199.5 51.6087 1200 49C1200.5 51.6087 1201.78 59.5153 1201.5 62Z" fill="white"/>
<path d="M1200 59.5C1203.54 59.5 1209 60.5 1212 61C1209.5 61.5 1202 62.5 1200 62.5C1197.5 62.5 1190.61 61.5 1188 61C1190.61 60.5 1197.5 59.5 1200 59.5Z" fill="white"/>
<path d="M1029.5 23C1029 27.5 1028.5 31 1028 34C1027.5 31.5 1026.5 24 1026.5 22C1026.5 19.5 1027.5 12.6087 1028 10C1028.5 12.6087 1029.78 20.5153 1029.5 23Z" fill="white"/>
<path d="M1028 20.5C1031.54 20.5 1037 21.5 1040 22C1037.5 22.5 1030 23.5 1028 23.5C1025.5 23.5 1018.61 22.5 1016 22C1018.61 21.5 1025.5 20.5 1028 20.5Z" fill="white"/>
<path d="M1066.5 106C1066 110.5 1065.5 114 1065 117C1064.5 114.5 1063.5 107 1063.5 105C1063.5 102.5 1064.5 95.6087 1065 93C1065.5 95.6087 1066.78 103.515 1066.5 106Z" fill="white"/>
<path d="M1065 103.5C1068.54 103.5 1074 104.5 1077 105C1074.5 105.5 1067 106.5 1065 106.5C1062.5 106.5 1055.61 105.5 1053 105C1055.61 104.5 1062.5 103.5 1065 103.5Z" fill="white"/>
<path d="M901.5 22C901 26.5 900.5 30 900 33C899.5 30.5 898.5 23 898.5 21C898.5 18.5 899.5 11.6087 900 9C900.5 11.6087 901.776 19.5153 901.5 22Z" fill="white"/>
<path d="M900 19.5C903.536 19.5 909 20.5 912 21C909.5 21.5 902 22.5 900 22.5C897.5 22.5 890.609 21.5 888 21C890.609 20.5 897.5 19.5 900 19.5Z" fill="white"/>
<path d="M925.5 166C925 170.5 924.5 174 924 177C923.5 174.5 922.5 167 922.5 165C922.5 162.5 923.5 155.609 924 153C924.5 155.609 925.776 163.515 925.5 166Z" fill="white"/>
<path d="M924 163.5C927.536 163.5 933 164.5 936 165C933.5 165.5 926 166.5 924 166.5C921.5 166.5 914.609 165.5 912 165C914.609 164.5 921.5 163.5 924 163.5Z" fill="white"/>
<path d="M760.5 196C760 200.5 759.5 204 759 207C758.5 204.5 757.5 197 757.5 195C757.5 192.5 758.5 185.609 759 183C759.5 185.609 760.776 193.515 760.5 196Z" fill="white"/>
<path d="M759 193.5C762.536 193.5 768 194.5 771 195C768.5 195.5 761 196.5 759 196.5C756.5 196.5 749.609 195.5 747 195C749.609 194.5 756.5 193.5 759 193.5Z" fill="white"/>
<path d="M681.5 23C681 27.5 680.5 31 680 34C679.5 31.5 678.5 24 678.5 22C678.5 19.5 679.5 12.6087 680 10C680.5 12.6087 681.776 20.5153 681.5 23Z" fill="white"/>
<path d="M680 20.5C683.536 20.5 689 21.5 692 22C689.5 22.5 682 23.5 680 23.5C677.5 23.5 670.609 22.5 668 22C670.609 21.5 677.5 20.5 680 20.5Z" fill="white"/>
<path d="M278.5 78C278 82.5 277.5 86 277 89C276.5 86.5 275.5 79 275.5 77C275.5 74.5 276.5 67.6087 277 65C277.5 67.6087 278.776 75.5153 278.5 78Z" fill="white"/>
<path d="M277 75.5C280.536 75.5 286 76.5 289 77C286.5 77.5 279 78.5 277 78.5C274.5 78.5 267.609 77.5 265 77C267.609 76.5 274.5 75.5 277 75.5Z" fill="white"/>
<path d="M69.5 86C69 90.5 68.5 94 68 97C67.5 94.5 66.5 87 66.5 85C66.5 82.5 67.5 75.6087 68 73C68.5 75.6087 69.7761 83.5153 69.5 86Z" fill="white"/>
<path d="M68 83.5C71.5355 83.5 77 84.5 80 85C77.5 85.5 70 86.5 68 86.5C65.5 86.5 58.6087 85.5 56 85C58.6087 84.5 65.5 83.5 68 83.5Z" fill="white"/>
<path d="M260.5 210C260 214.5 259.5 218 259 221C258.5 218.5 257.5 211 257.5 209C257.5 206.5 258.5 199.609 259 197C259.5 199.609 260.776 207.515 260.5 210Z" fill="white"/>
<path d="M259 207.5C262.536 207.5 268 208.5 271 209C268.5 209.5 261 210.5 259 210.5C256.5 210.5 249.609 209.5 247 209C249.609 208.5 256.5 207.5 259 207.5Z" fill="white"/>
<path d="M1373 113C1372 117.5 1371.5 118.5 1371 121C1370.5 118.5 1370 117.5 1369 113C1370 109 1370.5 107.5 1371 105C1371.5 107 1372 109 1373 113Z" fill="#DB2B27"/>
<path d="M1371 111C1375.5 112 1376.5 112.5 1379 113C1376.5 113.5 1375.5 114 1371 115C1367 114 1365.5 113.5 1363 113C1365 112.5 1367 112 1371 111Z" fill="#DB2B27"/>
<path d="M1288 97C1287 101.5 1286.5 102.5 1286 105C1285.5 102.5 1285 101.5 1284 97C1285 93 1285.5 91.5 1286 89C1286.5 91 1287 93 1288 97Z" fill="#DB2B27"/>
<path d="M1286 95C1290.5 96 1291.5 96.5 1294 97C1291.5 97.5 1290.5 98 1286 99C1282 98 1280.5 97.5 1278 97C1280 96.5 1282 96 1286 95Z" fill="#DB2B27"/>
<path d="M1230 10C1229 14.5 1228.5 15.5 1228 18C1227.5 15.5 1227 14.5 1226 10C1227 6 1227.5 4.5 1228 2C1228.5 4 1229 6 1230 10Z" fill="#DB2B27"/>
<path d="M1228 8C1232.5 9 1233.5 9.5 1236 10C1233.5 10.5 1232.5 11 1228 12C1224 11 1222.5 10.5 1220 10C1222 9.5 1224 9 1228 8Z" fill="#DB2B27"/>
<path d="M1138 40C1137 44.5 1136.5 45.5 1136 48C1135.5 45.5 1135 44.5 1134 40C1135 36 1135.5 34.5 1136 32C1136.5 34 1137 36 1138 40Z" fill="#DB2B27"/>
<path d="M1136 38C1140.5 39 1141.5 39.5 1144 40C1141.5 40.5 1140.5 41 1136 42C1132 41 1130.5 40.5 1128 40C1130 39.5 1132 39 1136 38Z" fill="#DB2B27"/>
<path d="M1094 169C1093 173.5 1092.5 174.5 1092 177C1091.5 174.5 1091 173.5 1090 169C1091 165 1091.5 163.5 1092 161C1092.5 163 1093 165 1094 169Z" fill="#DB2B27"/>
<path d="M1092 167C1096.5 168 1097.5 168.5 1100 169C1097.5 169.5 1096.5 170 1092 171C1088 170 1086.5 169.5 1084 169C1086 168.5 1088 168 1092 167Z" fill="#DB2B27"/>
<path d="M993 89C992 93.5 991.5 94.5 991 97C990.5 94.5 990 93.5 989 89C990 85 990.5 83.5 991 81C991.5 83 992 85 993 89Z" fill="#DB2B27"/>
<path d="M991 87C995.5 88 996.5 88.5 999 89C996.5 89.5 995.5 90 991 91C987 90 985.5 89.5 983 89C985 88.5 987 88 991 87Z" fill="#DB2B27"/>
<path d="M988 189C987 193.5 986.5 194.5 986 197C985.5 194.5 985 193.5 984 189C985 185 985.5 183.5 986 181C986.5 183 987 185 988 189Z" fill="#DB2B27"/>
<path d="M986 187C990.5 188 991.5 188.5 994 189C991.5 189.5 990.5 190 986 191C982 190 980.5 189.5 978 189C980 188.5 982 188 986 187Z" fill="#DB2B27"/>
<path d="M826 192C825 196.5 824.5 197.5 824 200C823.5 197.5 823 196.5 822 192C823 188 823.5 186.5 824 184C824.5 186 825 188 826 192Z" fill="#DB2B27"/>
<path d="M824 190C828.5 191 829.5 191.5 832 192C829.5 192.5 828.5 193 824 194C820 193 818.5 192.5 816 192C818 191.5 820 191 824 190Z" fill="#DB2B27"/>
<path d="M726 165C725 169.5 724.5 170.5 724 173C723.5 170.5 723 169.5 722 165C723 161 723.5 159.5 724 157C724.5 159 725 161 726 165Z" fill="#DB2B27"/>
<path d="M724 163C728.5 164 729.5 164.5 732 165C729.5 165.5 728.5 166 724 167C720 166 718.5 165.5 716 165C718 164.5 720 164 724 163Z" fill="#DB2B27"/>
<path d="M681 200C680 204.5 679.5 205.5 679 208C678.5 205.5 678 204.5 677 200C678 196 678.5 194.5 679 192C679.5 194 680 196 681 200Z" fill="#DB2B27"/>
<path d="M679 198C683.5 199 684.5 199.5 687 200C684.5 200.5 683.5 201 679 202C675 201 673.5 200.5 671 200C673 199.5 675 199 679 198Z" fill="#DB2B27"/>
<path d="M792 8C791 12.5 790.5 13.5 790 16C789.5 13.5 789 12.5 788 8C789 4 789.5 2.5 790 0C790.5 2 791 4 792 8Z" fill="#DB2B27"/>
<path d="M790 6C794.5 7 795.5 7.5 798 8C795.5 8.5 794.5 9 790 10C786 9 784.5 8.5 782 8C784 7.5 786 7 790 6Z" fill="#DB2B27"/>
<path d="M632 65C631 69.5 630.5 70.5 630 73C629.5 70.5 629 69.5 628 65C629 61 629.5 59.5 630 57C630.5 59 631 61 632 65Z" fill="#DB2B27"/>
<path d="M630 63C634.5 64 635.5 64.5 638 65C635.5 65.5 634.5 66 630 67C626 66 624.5 65.5 622 65C624 64.5 626 64 630 63Z" fill="#DB2B27"/>
<path d="M532 25C531 29.5 530.5 30.5 530 33C529.5 30.5 529 29.5 528 25C529 21 529.5 19.5 530 17C530.5 19 531 21 532 25Z" fill="#DB2B27"/>
<path d="M530 23C534.5 24 535.5 24.5 538 25C535.5 25.5 534.5 26 530 27C526 26 524.5 25.5 522 25C524 24.5 526 24 530 23Z" fill="#DB2B27"/>
<path d="M562 177C561 181.5 560.5 182.5 560 185C559.5 182.5 559 181.5 558 177C559 173 559.5 171.5 560 169C560.5 171 561 173 562 177Z" fill="#DB2B27"/>
<path d="M560 175C564.5 176 565.5 176.5 568 177C565.5 177.5 564.5 178 560 179C556 178 554.5 177.5 552 177C554 176.5 556 176 560 175Z" fill="#DB2B27"/>
<path d="M392 89C391 93.5 390.5 94.5 390 97C389.5 94.5 389 93.5 388 89C389 85 389.5 83.5 390 81C390.5 83 391 85 392 89Z" fill="#DB2B27"/>
<path d="M390 87C394.5 88 395.5 88.5 398 89C395.5 89.5 394.5 90 390 91C386 90 384.5 89.5 382 89C384 88.5 386 88 390 87Z" fill="#DB2B27"/>
<path d="M346 202C345 206.5 344.5 207.5 344 210C343.5 207.5 343 206.5 342 202C343 198 343.5 196.5 344 194C344.5 196 345 198 346 202Z" fill="#DB2B27"/>
<path d="M344 200C348.5 201 349.5 201.5 352 202C349.5 202.5 348.5 203 344 204C340 203 338.5 202.5 336 202C338 201.5 340 201 344 200Z" fill="#DB2B27"/>
<path d="M147 81C146 85.5 145.5 86.5 145 89C144.5 86.5 144 85.5 143 81C144 77 144.5 75.5 145 73C145.5 75 146 77 147 81Z" fill="#DB2B27"/>
<path d="M145 79C149.5 80 150.5 80.5 153 81C150.5 81.5 149.5 82 145 83C141 82 139.5 81.5 137 81C139 80.5 141 80 145 79Z" fill="#DB2B27"/>
<path d="M10 208C9 212.5 8.5 213.5 8 216C7.5 213.5 7 212.5 6 208C7 204 7.5 202.5 8 200C8.5 202 9 204 10 208Z" fill="#DB2B27"/>
<path d="M8 206C12.5 207 13.5 207.5 16 208C13.5 208.5 12.5 209 8 210C4 209 2.5 208.5 0 208C2 207.5 4 207 8 206Z" fill="#DB2B27"/>
<path d="M846 41C845 45.5 844.5 46.5 844 49C843.5 46.5 843 45.5 842 41C843 37 843.5 35.5 844 33C844.5 35 845 37 846 41Z" fill="#DB2B27"/>
<path d="M844 39C848.5 40 849.5 40.5 852 41C849.5 41.5 848.5 42 844 43C840 42 838.5 41.5 836 41C838 40.5 840 40 844 39Z" fill="#DB2B27"/>
<path d="M1186 121C1185 125.5 1184.5 126.5 1184 129C1183.5 126.5 1183 125.5 1182 121C1183 117 1183.5 115.5 1184 113C1184.5 115 1185 117 1186 121Z" fill="#DB2B27"/>
<path d="M1184 119C1188.5 120 1189.5 120.5 1192 121C1189.5 121.5 1188.5 122 1184 123C1180 122 1178.5 121.5 1176 121C1178 120.5 1180 120 1184 119Z" fill="#DB2B27"/>
<path d="M1206 198C1205 202.5 1204.5 203.5 1204 206C1203.5 203.5 1203 202.5 1202 198C1203 194 1203.5 192.5 1204 190C1204.5 192 1205 194 1206 198Z" fill="#DB2B27"/>
<path d="M1204 196C1208.5 197 1209.5 197.5 1212 198C1209.5 198.5 1208.5 199 1204 200C1200 199 1198.5 198.5 1196 198C1198 197.5 1200 197 1204 196Z" fill="#DB2B27"/>
</svg>
