<svg width="330" height="312" viewBox="0 0 330 312" fill="none" xmlns="http://www.w3.org/2000/svg">
<path d="M303.5 41C303 45.5 302.5 49 302 52C301.5 49.5 300.5 42 300.5 40C300.5 37.5 301.5 30.6087 302 28C302.5 30.6087 303.776 38.5153 303.5 41Z" fill="white"/>
<path d="M302 38.5C305.536 38.5 311 39.5 314 40C311.5 40.5 304 41.5 302 41.5C299.5 41.5 292.609 40.5 290 40C292.609 39.5 299.5 38.5 302 38.5Z" fill="white"/>
<path d="M184.5 13C184 17.5 183.5 21 183 24C182.5 21.5 181.5 14 181.5 12C181.5 9.5 182.5 2.6087 183 0C183.5 2.6087 184.776 10.5153 184.5 13Z" fill="white"/>
<path d="M183 10.5C186.536 10.5 192 11.5 195 12C192.5 12.5 185 13.5 183 13.5C180.5 13.5 173.609 12.5 171 12C173.609 11.5 180.5 10.5 183 10.5Z" fill="white"/>
<path d="M319.5 153C319 157.5 318.5 161 318 164C317.5 161.5 316.5 154 316.5 152C316.5 149.5 317.5 142.609 318 140C318.5 142.609 319.776 150.515 319.5 153Z" fill="white"/>
<path d="M318 150.5C321.536 150.5 327 151.5 330 152C327.5 152.5 320 153.5 318 153.5C315.5 153.5 308.609 152.5 306 152C308.609 151.5 315.5 150.5 318 150.5Z" fill="white"/>
<path d="M223.5 237C223 241.5 222.5 245 222 248C221.5 245.5 220.5 238 220.5 236C220.5 233.5 221.5 226.609 222 224C222.5 226.609 223.776 234.515 223.5 237Z" fill="white"/>
<path d="M222 234.5C225.536 234.5 231 235.5 234 236C231.5 236.5 224 237.5 222 237.5C219.5 237.5 212.609 236.5 210 236C212.609 235.5 219.5 234.5 222 234.5Z" fill="white"/>
<path d="M137.5 249C137 253.5 136.5 257 136 260C135.5 257.5 134.5 250 134.5 248C134.5 245.5 135.5 238.609 136 236C136.5 238.609 137.776 246.515 137.5 249Z" fill="white"/>
<path d="M136 246.5C139.536 246.5 145 247.5 148 248C145.5 248.5 138 249.5 136 249.5C133.5 249.5 126.609 248.5 124 248C126.609 247.5 133.5 246.5 136 246.5Z" fill="white"/>
<path d="M13.5 17C13 21.5 12.5 25 12 28C11.5 25.5 10.5 18 10.5 16C10.5 13.5 11.5 6.6087 12 4C12.5 6.6087 13.7761 14.5153 13.5 17Z" fill="white"/>
<path d="M12 14.5C15.5355 14.5 21 15.5 24 16C21.5 16.5 14 17.5 12 17.5C9.5 17.5 2.6087 16.5 0 16C2.6087 15.5 9.5 14.5 12 14.5Z" fill="white"/>
<path d="M255 12C254 16.5 253.5 17.5 253 20C252.5 17.5 252 16.5 251 12C252 8 252.5 6.5 253 4C253.5 6 254 8 255 12Z" fill="#DB2B27"/>
<path d="M253 10C257.5 11 258.5 11.5 261 12C258.5 12.5 257.5 13 253 14C249 13 247.5 12.5 245 12C247 11.5 249 11 253 10Z" fill="#DB2B27"/>
<path d="M89 8C88 12.5 87.5 13.5 87 16C86.5 13.5 86 12.5 85 8C86 4 86.5 2.5 87 0C87.5 2 88 4 89 8Z" fill="#DB2B27"/>
<path d="M87 6C91.5 7 92.5 7.5 95 8C92.5 8.5 91.5 9 87 10C83 9 81.5 8.5 79 8C81 7.5 83 7 87 6Z" fill="#DB2B27"/>
<path d="M316 80C315 84.5 314.5 85.5 314 88C313.5 85.5 313 84.5 312 80C313 76 313.5 74.5 314 72C314.5 74 315 76 316 80Z" fill="#DB2B27"/>
<path d="M314 78C318.5 79 319.5 79.5 322 80C319.5 80.5 318.5 81 314 82C310 81 308.5 80.5 306 80C308 79.5 310 79 314 78Z" fill="#DB2B27"/>
<path d="M255 152C254 156.5 253.5 157.5 253 160C252.5 157.5 252 156.5 251 152C252 148 252.5 146.5 253 144C253.5 146 254 148 255 152Z" fill="#DB2B27"/>
<path d="M253 150C257.5 151 258.5 151.5 261 152C258.5 152.5 257.5 153 253 154C249 153 247.5 152.5 245 152C247 151.5 249 151 253 150Z" fill="#DB2B27"/>
<path d="M316 218C315 222.5 314.5 223.5 314 226C313.5 223.5 313 222.5 312 218C313 214 313.5 212.5 314 210C314.5 212 315 214 316 218Z" fill="#DB2B27"/>
<path d="M314 216C318.5 217 319.5 217.5 322 218C319.5 218.5 318.5 219 314 220C310 219 308.5 218.5 306 218C308 217.5 310 217 314 216Z" fill="#DB2B27"/>
<path d="M261 260C260 264.5 259.5 265.5 259 268C258.5 265.5 258 264.5 257 260C258 256 258.5 254.5 259 252C259.5 254 260 256 261 260Z" fill="#DB2B27"/>
<path d="M259 258C263.5 259 264.5 259.5 267 260C264.5 260.5 263.5 261 259 262C255 261 253.5 260.5 251 260C253 259.5 255 259 259 258Z" fill="#DB2B27"/>
<path d="M190 260C189 264.5 188.5 265.5 188 268C187.5 265.5 187 264.5 186 260C187 256 187.5 254.5 188 252C188.5 254 189 256 190 260Z" fill="#DB2B27"/>
<path d="M188 258C192.5 259 193.5 259.5 196 260C193.5 260.5 192.5 261 188 262C184 261 182.5 260.5 180 260C182 259.5 184 259 188 258Z" fill="#DB2B27"/>
<path d="M170 304C169 308.5 168.5 309.5 168 312C167.5 309.5 167 308.5 166 304C167 300 167.5 298.5 168 296C168.5 298 169 300 170 304Z" fill="#DB2B27"/>
<path d="M168 302C172.5 303 173.5 303.5 176 304C173.5 304.5 172.5 305 168 306C164 305 162.5 304.5 160 304C162 303.5 164 303 168 302Z" fill="#DB2B27"/>
</svg>
