<svg width="371" height="332" viewBox="0 0 371 332" fill="none" xmlns="http://www.w3.org/2000/svg">
<g filter="url(#filter0_d_414_1542)">
<path fill-rule="evenodd" clip-rule="evenodd" d="M14.4897 54.4448L3.30872 87.5866L16.2045 124.688L109.038 129.554L118.864 131.073L121.755 244.229L131.071 257.853L139.765 277.049L154.049 293.149L169.574 288.195L222.362 282.622L218.015 314.823L308.063 325.969L357.125 312.965L354.64 279.526L363.335 277.049L367.061 227.51L363.335 147.628L347.188 110.474L321.105 110.474L312.411 122.859L310.237 49.7886L316.758 25.6383L220.141 20.8041L222.486 11.38L124.449 14.1918L17.3103 0.626306L14.4897 54.4448Z" fill="white" fill-opacity="0.11" shape-rendering="crispEdges"/>
</g>
<defs>
<filter id="filter0_d_414_1542" x="0.364708" y="0.626343" width="369.64" height="331.231" filterUnits="userSpaceOnUse" color-interpolation-filters="sRGB">
<feFlood flood-opacity="0" result="BackgroundImageFix"/>
<feColorMatrix in="SourceAlpha" type="matrix" values="0 0 0 0 0 0 0 0 0 0 0 0 0 0 0 0 0 0 127 0" result="hardAlpha"/>
<feOffset dy="2.94413"/>
<feGaussianBlur stdDeviation="1.47206"/>
<feComposite in2="hardAlpha" operator="out"/>
<feColorMatrix type="matrix" values="0 0 0 0 0 0 0 0 0 0 0 0 0 0 0 0 0 0 0.25 0"/>
<feBlend mode="normal" in2="BackgroundImageFix" result="effect1_dropShadow_414_1542"/>
<feBlend mode="normal" in="SourceGraphic" in2="effect1_dropShadow_414_1542" result="shape"/>
</filter>
</defs>
</svg>
