<svg width="161" height="136" viewBox="0 0 161 136" fill="none" xmlns="http://www.w3.org/2000/svg">
<g clip-path="url(#clip0_752_4421)">
<path d="M9.80964 17.1123L1.27373 66.7273C-0.12156 69.2716 2.4228 72.2264 5.13131 71.1594L10.2611 66.1527" fill="#C1C1C1"/>
<path opacity="0.49" d="M9.80964 17.1123L1.27373 66.7273C-0.12156 69.2716 2.4228 72.2264 5.13131 71.1594L10.2611 66.1527" fill="#0E992F"/>
<path d="M8.98829 19.5752L1.27314 66.7279C0.862763 69.8057 2.66844 72.6374 5.13072 71.16L10.2605 66.1533" stroke="#1D1D1B" stroke-width="2.46228" stroke-miterlimit="10"/>
<path d="M150.692 17.1123L159.228 66.7273C160.623 69.2716 158.079 72.2264 155.37 71.1594L150.199 66.1527" fill="#C1C1C1"/>
<path opacity="0.49" d="M150.692 17.1123L159.228 66.7273C160.623 69.2716 158.079 72.2264 155.37 71.1594L150.199 66.1527" fill="#0E992F"/>
<path d="M151.471 19.5752L159.187 66.7279C159.597 69.8057 157.791 72.6374 155.329 71.16L150.199 66.1533" stroke="#1D1D1B" stroke-width="2.46228" stroke-miterlimit="10"/>
<path d="M151.431 17.1952H8.57812L28.4816 1.23145H131.651L151.431 17.1952Z" fill="#BCBCBC"/>
<path opacity="0.49" d="M151.431 17.1952H8.57812L28.4816 1.23145H131.651L151.431 17.1952Z" fill="#0E992F"/>
<path d="M144.865 134.769H15.2673C11.5739 134.769 8.57812 131.773 8.57812 128.08V19.8624C8.57812 16.1689 11.5739 14.4043 15.2673 14.4043H144.865C148.559 14.4043 151.555 16.1689 151.555 19.8624V128.121C151.555 131.773 148.559 134.769 144.865 134.769Z" fill="#0EC645"/>
<path d="M144.865 15.6348H15.2263C11.5329 15.6348 8.53711 16.1683 8.53711 19.8617V128.12C8.53711 131.813 11.5329 134.809 15.2263 134.809H144.865C148.559 134.809 151.555 131.813 151.555 128.12V19.8617C151.555 16.1683 148.559 15.6348 144.865 15.6348ZM141.664 126.314H18.4683V21.6263H141.664V126.314Z" fill="#E5E5E5"/>
<path d="M144.865 134.769H15.2673C11.5739 134.769 8.57812 131.773 8.57812 128.08V20.9704C8.57812 17.277 11.5739 14.2812 15.2673 14.2812H144.865C148.559 14.2812 151.555 17.277 151.555 20.9704V128.08C151.555 131.773 148.559 134.769 144.865 134.769Z" stroke="#1D1D1B" stroke-width="2.46228" stroke-miterlimit="10"/>
<path opacity="0.21" d="M8.57833 35.4562H151.432V24.417L8.20898 25.484L8.57833 35.4562Z" fill="#494949"/>
<path d="M149.502 30.9016L11.0812 31.312C9.93213 31.312 9.0293 30.4092 9.0293 29.2601V19.6162C9.0293 16.9077 11.2454 14.6916 13.9539 14.6916L146.63 14.3223C149.379 14.3223 151.595 16.5383 151.595 19.2468V28.8497C151.554 29.9988 150.61 30.9016 149.502 30.9016Z" fill="#1D1D1B"/>
<path fill-rule="evenodd" clip-rule="evenodd" d="M33.9394 63.4867C34.4729 63.1994 35.0064 62.8711 35.2526 63.0763C35.4578 63.2405 35.3758 63.7329 35.2526 64.1433C35.1706 64.5127 35.0885 64.882 35.2526 65.0051C35.4989 65.2103 36.4838 64.923 37.2225 64.6768C37.3866 64.6358 37.5097 64.5947 37.6328 64.5537C37.7149 64.5127 37.838 64.5127 37.9201 64.4716C38.4946 64.3075 38.7409 64.2254 38.9461 64.4306C38.7409 64.7589 38.4126 64.9641 38.0843 65.2103C37.6739 65.4976 37.2635 65.7438 37.0994 66.1952C36.9762 66.4825 36.8121 67.5905 36.5659 68.8627C36.1965 70.8325 35.7861 73.1717 35.4989 73.541C35.3758 73.7052 35.1295 73.8283 34.9243 73.9514C34.3908 74.2797 33.8163 74.608 34.1446 75.3057C32.7083 76.3316 32.7083 76.4547 33.2007 77.0293C33.2828 77.1524 33.9805 76.9882 34.3498 76.8651C35.0885 76.5778 37.3045 75.1826 37.5097 74.8542C37.6328 74.6491 37.6328 74.2797 37.6739 73.9514C37.6739 73.7462 37.7149 73.5821 37.7149 73.459C37.8791 72.5972 38.823 68.6575 39.0281 68.2882C39.3564 67.5905 42.065 66.0721 42.9268 65.8669C43.9117 65.6207 45.8405 65.5797 48.2617 65.8669C48.3438 65.8669 48.3848 65.8669 48.4669 65.908C50.1494 66.1132 51.832 66.3183 53.7198 65.7028C55.1971 65.2514 56.3462 64.1433 56.3462 61.9273C56.3462 60.573 56.2641 60.4499 56.2231 60.4499C56.2231 60.4499 56.2641 60.4089 56.3462 60.2857C56.5924 59.7523 56.9618 59.3419 57.2901 58.8905C57.4132 58.7263 57.5363 58.6032 57.6594 58.439C59.1778 56.3461 59.1778 53.3914 57.9877 51.5857L57.9467 51.5447C56.7976 49.78 56.5103 49.3286 56.4283 48.0564C56.3872 47.0715 56.9207 46.497 57.7415 46.5791C58.1108 46.6201 59.6703 46.2507 59.5882 45.7993C59.5061 45.471 58.8085 45.3069 58.1929 45.1838C57.9467 45.1427 57.7415 45.1017 57.5773 45.0196C57.3311 44.9375 57.1669 44.7734 56.9618 44.6503C56.6745 44.404 56.3872 44.1578 55.8127 44.1988C54.9099 44.2809 54.3353 44.8144 54.0891 45.2658C53.5556 46.2918 53.5556 47.6871 54.007 48.7541C54.2533 49.3696 54.5405 49.9031 54.7867 50.4366C55.2382 51.3395 55.6896 52.1602 55.9358 53.3503C56.182 54.3352 55.8127 55.6485 54.7457 56.264C54.3353 56.5103 53.7608 56.264 52.94 55.8536C51.7089 55.2791 49.8622 54.4173 46.9074 54.4994C43.0909 54.5815 40.9159 56.1409 39.3154 57.29C38.823 57.6183 38.4126 57.9055 38.0432 58.1107C36.2786 57.5362 33.9805 57.7414 32.421 58.6442C30.8616 59.5471 30.4102 60.9013 30.4102 62.1735C30.4102 63.4457 30.8205 64.5127 31.5182 64.2254C31.7234 64.1844 31.8875 63.8971 32.0106 63.6098C32.1748 63.2815 32.3389 62.9532 32.5852 62.9122C32.7493 62.8711 32.7493 63.1174 32.7493 63.3636C32.7493 63.6098 32.7493 63.8971 32.9545 63.9792C33.1597 63.8971 33.529 63.6919 33.9394 63.4867Z" fill="#2E2E33"/>
<path d="M48.1388 69.6833C48.1388 69.6423 48.1388 69.6013 48.1388 69.6013C48.0977 69.1088 48.385 66.5645 48.385 66.5645C48.385 66.5645 49.0006 66.6876 49.6161 66.7286C50.2317 66.7696 51.2166 66.8517 51.2166 66.8517C51.2166 66.8517 50.6831 68.7395 51.0114 69.1498C51.3808 69.6833 52.735 70.6683 53.9662 71.6121C55.0332 72.3919 56.0591 73.1305 56.4695 73.582C56.9209 74.0334 57.3723 74.4438 57.9058 74.8131C58.111 74.9773 58.5214 75.0593 58.8907 75.1414C59.3011 75.2235 59.7115 75.3466 59.8756 75.5107C60.0808 75.757 60.3681 76.4546 60.245 76.5777C60.1629 76.6598 58.2341 76.7008 57.9058 76.6598C57.5365 76.6598 57.0851 76.3315 57.0851 76.3315C57.0851 76.3315 56.7978 76.6188 56.4285 76.4136C56.0181 76.2084 55.895 75.8801 55.7718 75.5107C55.6898 75.3056 55.6077 75.0593 55.4846 74.8541C55.2794 74.6489 51.9963 72.515 49.9444 71.3659C48.2209 70.381 48.2209 70.381 48.1388 69.6833Z" fill="#2E2E33"/>
<path fill-rule="evenodd" clip-rule="evenodd" d="M36.155 79.7773H31.2305V92.2529H36.155C40.0536 92.2529 42.7622 89.7906 42.7622 86.0151C42.8032 82.2396 40.0947 79.7773 36.155 79.7773ZM36.155 89.9137H33.8979V82.1165H36.1961C38.7404 82.1165 40.0947 83.7991 40.0947 86.0151C40.0947 88.1491 38.6173 89.9137 36.155 89.9137Z" fill="#2E2E33"/>
<path fill-rule="evenodd" clip-rule="evenodd" d="M53.2687 87.9441C53.2687 84.9894 51.463 82.9785 48.7545 82.9785C46.005 82.9785 44.0762 85.0715 44.0762 87.6979C44.0762 90.6116 46.1691 92.4583 48.9187 92.4583C50.3139 92.4583 51.7503 92.0069 52.6531 91.1861L51.5861 89.6267C51.0116 90.2012 49.9446 90.5295 49.2059 90.5295C47.6875 90.5295 46.7847 89.6267 46.6205 88.5186H53.3508V87.9441H53.2687ZM46.4974 86.8771C46.5795 85.9743 47.2361 84.9483 48.7135 84.9483C50.2729 84.9483 50.8885 86.0153 50.9706 86.8771H46.4974Z" fill="#2E2E33"/>
<path fill-rule="evenodd" clip-rule="evenodd" d="M57.5365 92.4581C55.854 92.4581 54.9922 91.5963 54.9922 89.9548V79.7363H57.3724V89.2982C57.3724 89.8727 57.6597 90.3241 58.1932 90.3241C58.5625 90.3241 58.8908 90.201 59.0139 90.0369L59.5064 91.8425C59.137 92.2119 58.4804 92.4581 57.5365 92.4581Z" fill="#2E2E33"/>
<path fill-rule="evenodd" clip-rule="evenodd" d="M61.7234 82.2398C60.9437 82.2398 60.3281 81.5832 60.3281 80.8035C60.3281 80.0238 60.9847 79.4082 61.7234 79.4082C62.5031 79.4082 63.1597 80.0238 63.1597 80.8035C63.1597 81.5832 62.5031 82.2398 61.7234 82.2398Z" fill="#2E2E33"/>
<path d="M62.9115 83.2246H60.5312V92.253H62.9115V83.2246Z" fill="#2E2E33"/>
<path fill-rule="evenodd" clip-rule="evenodd" d="M70.1753 92.253H67.6309L63.9785 83.2246H66.5229L68.9031 89.5034L71.2833 83.2246H73.8276L70.1753 92.253Z" fill="#2E2E33"/>
<path fill-rule="evenodd" clip-rule="evenodd" d="M83.5128 87.9441C83.5128 84.9894 81.7072 82.9785 78.9986 82.9785C76.2491 82.9785 74.3203 85.0715 74.3203 87.6979C74.3203 90.6116 76.4132 92.4583 79.1628 92.4583C80.5581 92.4583 81.9944 92.0069 82.8973 91.1861L81.8303 89.6267C81.2557 90.2012 80.1887 90.5295 79.4501 90.5295C77.8906 90.5295 77.0288 89.6267 76.8647 88.5186H83.5949V87.9441H83.5128ZM76.7826 86.8771C76.8647 85.9743 77.5213 84.9483 78.9986 84.9483C80.5581 84.9483 81.1737 86.0153 81.2557 86.8771H76.7826Z" fill="#2E2E33"/>
<path fill-rule="evenodd" clip-rule="evenodd" d="M87.6165 92.2531H85.2363V83.2247H87.6165V84.4559C88.2731 83.6761 89.3812 83.0195 90.4892 83.0195V85.3587C90.325 85.3177 90.1199 85.3177 89.8326 85.3177C89.0529 85.3177 87.9859 85.7691 87.6165 86.3436V92.2531Z" fill="#2E2E33"/>
<path fill-rule="evenodd" clip-rule="evenodd" d="M95.6192 95.9054C94.1008 95.9054 92.8697 95.495 91.8438 94.5511L92.9107 92.8686C93.5673 93.6483 94.6754 93.9766 95.6192 93.9766C97.1377 93.9766 98.0405 92.9096 98.0405 91.6374V90.6936C97.4249 91.3502 96.3579 92.0478 94.8395 92.0478C92.8697 92.0478 91.9258 90.9808 91.9258 89.2162V83.1836H94.306V88.2723C94.306 89.5445 94.9626 89.9549 95.9886 89.9549C96.8914 89.9549 97.6301 89.4624 98.0405 88.9289V83.1836H100.421V91.6374C100.462 94.3459 98.5329 95.9054 95.6192 95.9054Z" fill="#2E2E33"/>
<path fill-rule="evenodd" clip-rule="evenodd" d="M37.0993 109.489C33.3238 109.489 30.4512 106.863 30.4512 103.046C30.4512 99.1889 33.3649 96.6035 37.0993 96.6035C39.8489 96.6035 41.4083 98.0809 42.3112 99.6403L40.013 100.748C39.4795 99.7224 38.3715 98.9427 37.0993 98.9427C34.8012 98.9427 33.1597 100.666 33.1597 103.046C33.1597 105.427 34.8012 107.15 37.0993 107.15C38.3715 107.15 39.4795 106.33 40.013 105.345L42.3112 106.453C41.4083 107.971 39.8489 109.489 37.0993 109.489Z" fill="#2E2E33"/>
<path fill-rule="evenodd" clip-rule="evenodd" d="M46.5795 109.488C44.897 109.488 44.0352 108.627 44.0352 106.985V96.7666H46.4154V106.328C46.4154 106.903 46.7026 107.354 47.2361 107.354C47.6055 107.354 47.9338 107.231 48.0569 107.067L48.5493 108.873C48.221 109.242 47.5644 109.488 46.5795 109.488Z" fill="#2E2E33"/>
<path fill-rule="evenodd" clip-rule="evenodd" d="M58.1101 109.243H55.7299V108.094C55.1143 108.751 54.0473 109.448 52.5289 109.448C50.5591 109.448 49.6152 108.381 49.6152 106.617V100.215H51.9954V105.714C51.9954 106.986 52.652 107.397 53.678 107.397C54.5808 107.397 55.3195 106.904 55.7299 106.371V100.256H58.1101V109.243Z" fill="#2E2E33"/>
<path fill-rule="evenodd" clip-rule="evenodd" d="M65.62 100.01C64.553 100.01 63.5271 100.461 62.8294 101.405V96.8086H60.4492V109.284H62.8294V108.135C63.5271 109.038 64.512 109.53 65.62 109.53C67.9181 109.53 69.6417 107.807 69.6417 104.77C69.6417 101.774 67.9181 100.01 65.62 100.01ZM64.8813 107.355C64.1016 107.355 63.2398 106.945 62.8294 106.329V103.128C63.2398 102.513 64.1016 102.061 64.8813 102.061C66.2356 102.061 67.1795 103.128 67.1795 104.688C67.1795 106.288 66.2766 107.355 64.8813 107.355Z" fill="#2E2E33"/>
<path d="M28.4805 1.23145V22.8174" stroke="#1D1D1B" stroke-width="2.46228" stroke-miterlimit="10"/>
<path d="M130.625 1.23145V22.8174" stroke="#1D1D1B" stroke-width="2.46228" stroke-miterlimit="10"/>
<path d="M150.61 17.1952H9.80859L28.4809 1.23145H131.65L150.61 17.1952Z" stroke="#1D1D1B" stroke-width="2.46228" stroke-miterlimit="10" stroke-linecap="round" stroke-linejoin="round"/>
</g>
<defs>
<clipPath id="clip0_752_4421">
<rect width="160.5" height="136" fill="white"/>
</clipPath>
</defs>
</svg>
