<svg width="260" height="287" viewBox="0 0 260 287" fill="none" xmlns="http://www.w3.org/2000/svg">
<path d="M242.479 159L244.598 166.624C245.698 170.583 248.748 173.704 252.68 174.896L257.958 176.495L252.577 178.125C248.701 179.299 245.679 182.349 244.54 186.237L242.479 193.275L240.418 186.237C239.28 182.349 236.257 179.299 232.381 178.125L227 176.495L232.278 174.896C236.21 173.704 239.26 170.583 240.36 166.624L242.479 159Z" fill="#FFDB5D"/>
<path fill-rule="evenodd" clip-rule="evenodd" d="M242.479 157.5C243.153 157.5 243.744 157.949 243.924 158.598L246.043 166.222C247.006 169.687 249.674 172.418 253.115 173.46L258.393 175.059C259.026 175.251 259.458 175.834 259.458 176.495C259.458 177.155 259.026 177.738 258.393 177.93L253.012 179.56C249.62 180.588 246.976 183.257 245.98 186.658L243.919 193.697C243.731 194.336 243.145 194.775 242.479 194.775C241.813 194.775 241.227 194.336 241.039 193.697L238.978 186.658C237.982 183.257 235.338 180.588 231.946 179.56L226.565 177.93C225.933 177.738 225.5 177.155 225.5 176.495C225.5 175.834 225.933 175.251 226.565 175.059L231.843 173.46C235.284 172.418 237.952 169.687 238.915 166.222L241.034 158.598C241.214 157.949 241.805 157.5 242.479 157.5ZM242.479 164.602L241.806 167.026C240.568 171.48 237.137 174.991 232.713 176.331L232.174 176.495L232.816 176.689C237.177 178.01 240.577 181.442 241.857 185.815L242.479 187.938L243.101 185.815C244.381 181.442 247.782 178.01 252.143 176.689L252.784 176.495L252.246 176.331C247.821 174.991 244.39 171.48 243.152 167.026L242.479 164.602Z" fill="#1D1D1B"/>
<path d="M94.0432 167.017C74.2876 204.893 50.3927 225.823 53.124 233.412C57.1402 244.576 95.8022 239.283 116.603 188.448C109.457 184.189 102.698 177.85 102.698 177.85L94.0432 167.017Z" fill="#757575"/>
<path d="M102.697 177.85C102.697 177.85 109.456 184.19 116.603 188.448C107.517 210.651 84.499 232 83.4992 231.418C71.9992 218 79.4996 191.5 79.4996 191.5C85.1189 183.342 88.3786 177.876 94.0424 167.017L102.697 177.85Z" fill="#50504F"/>
<path fill-rule="evenodd" clip-rule="evenodd" d="M93.7776 164.282L103.8 176.827C103.849 176.872 103.921 176.938 104.014 177.023C104.207 177.2 104.494 177.459 104.86 177.784C105.594 178.435 106.647 179.347 107.921 180.392C110.477 182.486 113.888 185.084 117.371 187.159L118.48 187.82L117.991 189.016C107.474 214.718 92.3766 229.057 79.2311 235.525C72.6743 238.752 66.5542 240.041 61.7187 239.742C56.9644 239.448 53.0175 237.548 51.7122 233.92C51.2139 232.536 51.3779 231.009 51.8561 229.485C52.3378 227.949 53.1921 226.245 54.2993 224.393C56.5034 220.706 59.8889 216.145 63.9017 210.738L63.9461 210.678C72.0466 199.764 82.8951 185.146 92.7128 166.323L93.7776 164.282ZM102.697 177.85L101.671 178.944L101.593 178.87L94.3005 169.742C84.6592 187.805 74.1838 201.918 66.3731 212.442L66.3551 212.466C62.2855 217.949 58.9915 222.391 56.8743 225.932C55.8168 227.701 55.098 229.173 54.7186 230.383C54.3357 231.604 54.3505 232.392 54.535 232.904C55.2378 234.858 57.6298 236.483 61.904 236.748C66.0973 237.007 71.6957 235.89 77.9066 232.834C90.1014 226.833 104.471 213.442 114.726 189.058C111.463 187.011 108.365 184.635 106.019 182.712C104.71 181.639 103.627 180.7 102.87 180.029C102.491 179.693 102.194 179.424 101.99 179.238C101.888 179.144 101.809 179.072 101.756 179.022L101.694 178.965L101.678 178.95L101.671 178.944C101.671 178.943 101.671 178.944 102.697 177.85Z" fill="#1D1D1B"/>
<path d="M157.038 151.08C172.73 136.221 178.825 129.804 187.188 112.666C189.046 108.859 190.531 106.422 191.532 102.762C191.64 102.367 191.688 101.953 191.69 101.545C191.728 92.094 192.684 90.4612 195.689 90.6662C201.383 91.0536 210.302 104.026 209.442 120.168C208.513 137.584 202.02 158.693 186.191 171.668C180.138 165.961 169.827 156.438 169.827 156.438L157.038 151.08Z" fill="#757575"/>
<path d="M169.827 156.437C169.827 156.437 180.138 165.961 186.191 171.668C190.608 168.048 189.145 169.795 192.189 165.165C192.189 165.165 188.189 147.165 170.688 138.165C166.827 142.683 164.219 144.28 157.039 151.08L169.827 156.437Z" fill="#50504F"/>
<path fill-rule="evenodd" clip-rule="evenodd" d="M154.335 151.574L169.003 157.719L169.264 157.959C169.557 158.231 169.984 158.625 170.514 159.115C171.575 160.097 173.052 161.465 174.719 163.012C178.053 166.106 182.14 169.91 185.162 172.759L186.122 173.664L187.142 172.828C203.42 159.485 209.999 137.895 210.94 120.247C211.386 111.887 209.302 104.339 206.347 98.8026C204.87 96.036 203.155 93.7329 201.388 92.0751C199.655 90.4495 197.715 89.3004 195.792 89.1694C194.93 89.1106 193.975 89.1608 193.1 89.625C192.183 90.1111 191.581 90.9255 191.183 91.932C190.796 92.9081 190.562 94.1555 190.415 95.6855C190.267 97.2311 190.2 99.1576 190.19 101.538C190.189 101.838 190.154 102.118 190.086 102.366C189.354 105.041 188.373 106.977 187.087 109.514C186.7 110.279 186.285 111.097 185.841 112.007C177.592 128.911 171.646 135.182 156.007 149.991L154.335 151.574ZM169.827 156.437L170.845 155.335L170.651 155.156L159.739 150.585C174.269 136.772 180.364 130.07 188.537 113.323C188.932 112.512 189.318 111.752 189.691 111.018C191.01 108.418 192.16 106.151 192.98 103.157C193.128 102.616 193.188 102.069 193.19 101.55C193.2 99.2057 193.266 97.3841 193.402 95.9721C193.539 94.5443 193.739 93.6244 193.972 93.0366C194.193 92.4792 194.396 92.3332 194.505 92.2755C194.655 92.1958 194.947 92.1188 195.588 92.1625C196.511 92.2253 197.821 92.843 199.335 94.2631C200.815 95.6511 202.343 97.6726 203.7 100.215C206.413 105.298 208.359 112.306 207.944 120.087C207.048 136.894 200.901 156.99 186.247 169.66C183.349 166.937 179.749 163.587 176.76 160.813C175.092 159.265 173.613 157.896 172.551 156.914C172.021 156.422 171.594 156.028 171.3 155.756L170.845 155.335C170.845 155.335 170.845 155.335 169.827 156.437Z" fill="#1D1D1B"/>
<path d="M149.618 254.338C148.595 258.401 149.311 266.529 146.508 275.62C144.746 281.333 138.524 285.607 135.09 285.182C128.738 284.397 129.066 281.747 125.88 281.353C122.694 280.959 117.208 284.583 113.792 282.548C110.386 280.515 111.515 277.249 109.913 275.62C108.312 273.981 105.61 275.622 104.565 272.177C103.52 263.349 117.727 266.928 135.047 244.995L149.618 254.338Z" fill="#757575"/>
<path fill-rule="evenodd" clip-rule="evenodd" d="M134.741 242.957L133.867 244.065C125.381 254.811 117.693 259.281 112.216 262.173C111.796 262.395 111.381 262.611 110.975 262.823C108.793 263.96 106.839 264.978 105.472 266.151C104.617 266.884 103.909 267.739 103.473 268.807C103.036 269.878 102.919 271.052 103.073 272.353L103.089 272.485L103.127 272.612C103.452 273.683 103.952 274.502 104.651 275.087C105.339 275.663 106.092 275.902 106.7 276.039C106.956 276.096 107.216 276.141 107.433 276.178C107.467 276.184 107.501 276.19 107.533 276.195C107.785 276.239 107.984 276.277 108.164 276.324C108.504 276.414 108.692 276.518 108.837 276.667L108.841 276.671C108.998 276.83 109.137 277.076 109.278 277.54C109.349 277.772 109.411 278.027 109.483 278.333C109.493 278.373 109.502 278.415 109.512 278.457C109.574 278.721 109.644 279.021 109.725 279.322C110.124 280.801 110.856 282.543 113.02 283.835L113.022 283.836C114.208 284.543 115.512 284.718 116.739 284.662C117.956 284.607 119.192 284.32 120.316 284.012C120.828 283.871 121.291 283.735 121.732 283.605C122.337 283.426 122.899 283.261 123.487 283.114C124.471 282.87 125.185 282.778 125.693 282.841C126.586 282.951 126.97 283.244 127.762 283.846C127.951 283.99 128.163 284.151 128.411 284.332C129.721 285.287 131.466 286.245 134.903 286.67C137.221 286.957 139.706 285.784 141.781 284.033C143.905 282.239 145.841 279.647 147.087 276.607C148.523 273.104 149.105 268.58 149.469 264.575C149.565 263.515 149.654 262.385 149.738 261.325C149.805 260.466 149.869 259.653 149.931 258.96C150.08 257.273 150.24 255.952 150.463 255.066L150.716 254.06L134.741 242.957ZM147.339 255.366C147.171 256.341 147.05 257.484 146.942 258.696C146.869 259.524 146.806 260.33 146.741 261.162C146.664 262.148 146.584 263.169 146.481 264.303C146.117 268.316 145.557 272.429 144.311 275.469C143.243 278.075 141.591 280.267 139.846 281.74C138.051 283.255 136.387 283.831 135.271 283.693C132.357 283.332 131.09 282.573 130.179 281.908C130.035 281.803 129.887 281.688 129.732 281.567C128.882 280.906 127.821 280.081 126.062 279.863C124.977 279.729 123.811 279.943 122.763 280.203C122.146 280.357 121.444 280.562 120.768 280.761C120.333 280.888 119.908 281.013 119.523 281.118C118.451 281.412 117.476 281.626 116.603 281.665C115.742 281.704 115.079 281.569 114.557 281.259C113.316 280.517 112.91 279.611 112.622 278.541C112.555 278.293 112.498 278.048 112.435 277.781C112.425 277.737 112.415 277.693 112.404 277.648C112.332 277.341 112.25 277.001 112.148 276.666C111.945 275.996 111.625 275.224 110.982 274.569C110.981 274.568 110.98 274.568 110.98 274.567L109.91 275.619L110.983 274.571C110.983 274.57 110.982 274.57 110.982 274.569C110.327 273.9 109.577 273.595 108.929 273.424C108.614 273.341 108.305 273.285 108.048 273.24C108.009 273.233 107.971 273.227 107.935 273.22C107.713 273.182 107.534 273.151 107.356 273.111C106.958 273.022 106.739 272.923 106.577 272.787C106.435 272.668 106.226 272.427 106.037 271.865C106.042 271.909 106.047 271.954 106.052 272L104.562 272.176L105.998 271.741C106.011 271.784 106.024 271.825 106.037 271.865C105.955 271.029 106.054 270.423 106.251 269.94C106.46 269.428 106.825 268.943 107.425 268.428C108.507 267.499 110.083 266.676 112.283 265.526C112.704 265.306 113.149 265.073 113.617 264.826C119.122 261.918 126.85 257.423 135.337 247.025L134.188 246.226L135.044 244.994L136.221 245.924C135.926 246.298 135.631 246.665 135.337 247.025L147.339 255.366Z" fill="#1D1D1B"/>
<path d="M186.764 236.224C190.796 237.365 197.481 242.042 206.758 244.15C212.588 245.475 219.397 242.216 220.743 239.029C223.232 233.133 220.773 232.094 222.021 229.137C223.27 226.18 229.148 223.234 229.09 219.259C229.028 215.292 225.634 214.641 225.022 212.439C224.401 210.234 227.172 208.712 224.709 206.087C217.58 200.775 213.591 214.873 185.941 218.934L186.764 236.224Z" fill="#757575"/>
<path fill-rule="evenodd" clip-rule="evenodd" d="M184.327 217.652L185.723 217.447C199.271 215.457 206.981 211.026 212.221 207.724C212.623 207.47 213.017 207.219 213.404 206.972C215.478 205.649 217.335 204.464 219.034 203.865C220.096 203.49 221.19 203.303 222.333 203.458C223.48 203.614 224.555 204.099 225.606 204.882L225.712 204.961L225.803 205.058C226.569 205.874 227.029 206.716 227.187 207.614C227.343 208.498 227.175 209.269 226.989 209.864C226.911 210.114 226.82 210.362 226.744 210.569C226.732 210.602 226.721 210.633 226.709 210.664C226.621 210.905 226.555 211.096 226.506 211.275C226.414 211.615 226.411 211.83 226.467 212.03L226.468 212.035C226.528 212.25 226.671 212.494 227.003 212.848C227.169 213.025 227.359 213.206 227.588 213.421C227.619 213.45 227.649 213.478 227.681 213.508C227.88 213.694 228.104 213.904 228.325 214.124C229.407 215.208 230.551 216.713 230.591 219.232L230.591 219.234C230.611 220.615 230.112 221.832 229.451 222.868C228.796 223.894 227.931 224.822 227.102 225.643C226.725 226.016 226.376 226.349 226.043 226.667C225.587 227.101 225.162 227.506 224.742 227.942C224.039 228.673 223.603 229.246 223.404 229.718C223.054 230.546 223.116 231.025 223.242 232.012C223.273 232.248 223.306 232.512 223.339 232.817C223.514 234.428 223.473 236.419 222.126 239.609C221.217 241.761 218.96 243.329 216.407 244.253C213.793 245.199 210.58 245.583 207.324 245.145C203.572 244.64 199.361 242.887 195.709 241.204C194.742 240.758 193.719 240.271 192.759 239.814C191.981 239.444 191.245 239.094 190.613 238.801C189.077 238.089 187.852 237.568 186.973 237.319L185.975 237.036L184.327 217.652ZM188.793 234.762C189.721 235.102 190.773 235.568 191.876 236.08C192.63 236.429 193.36 236.778 194.113 237.136C195.006 237.562 195.931 238.002 196.965 238.479C200.624 240.166 204.467 241.734 207.724 242.172C210.515 242.547 213.239 242.209 215.387 241.432C217.595 240.633 218.924 239.478 219.362 238.442C220.504 235.737 220.478 234.26 220.357 233.139C220.338 232.962 220.312 232.776 220.285 232.582C220.136 231.515 219.95 230.184 220.64 228.551C221.065 227.544 221.832 226.64 222.581 225.862C223.022 225.404 223.55 224.899 224.059 224.412C224.387 224.098 224.707 223.792 224.991 223.511C225.781 222.729 226.452 221.99 226.922 221.254C227.386 220.527 227.6 219.885 227.591 219.278C227.568 217.832 226.985 217.028 226.202 216.244C226.021 216.063 225.837 215.891 225.636 215.703C225.604 215.673 225.571 215.642 225.537 215.61C225.307 215.395 225.053 215.154 224.813 214.898C224.335 214.388 223.825 213.725 223.579 212.841C223.578 212.84 223.578 212.839 223.578 212.838L225.023 212.437L223.579 212.843C223.579 212.842 223.579 212.842 223.579 212.841C223.325 211.939 223.435 211.138 223.611 210.49C223.696 210.176 223.802 209.88 223.891 209.635C223.905 209.598 223.918 209.562 223.931 209.527C224.008 209.316 224.071 209.145 224.125 208.971C224.246 208.582 224.27 208.343 224.233 208.135C224.201 207.952 224.096 207.65 223.703 207.207C223.74 207.233 223.776 207.26 223.813 207.287L224.709 206.084L223.615 207.111C223.646 207.144 223.676 207.176 223.703 207.207C223.02 206.718 222.445 206.501 221.929 206.431C221.381 206.356 220.778 206.431 220.032 206.694C218.687 207.168 217.187 208.123 215.093 209.455C214.692 209.71 214.269 209.979 213.821 210.262C208.554 213.581 200.801 218.034 187.555 220.199L187.436 218.804L185.941 218.931L186.159 220.415C186.631 220.346 187.096 220.274 187.555 220.199L188.793 234.762Z" fill="#1D1D1B"/>
<path d="M198.8 193.931C205.079 230.958 181.024 249.689 150.804 254.814C120.584 259.939 91.6984 250.187 85.4189 213.16C79.1395 176.133 109.868 139.028 130.572 135.517C151.277 132.006 192.521 156.905 198.8 193.931Z" fill="#757575"/>
<path d="M186.578 205.594C191.716 235.889 173.666 250.937 150.804 254.814C127.942 258.691 105.94 250.435 100.803 220.141C95.665 189.846 118.588 159.864 134.251 157.208C149.914 154.551 181.44 175.299 186.578 205.594Z" fill="white"/>
<path fill-rule="evenodd" clip-rule="evenodd" d="M99.1281 162.598C89.7878 176.722 83.8392 194.873 86.898 212.909C89.9715 231.032 98.5242 242.3 109.852 248.477C121.244 254.689 135.648 255.863 150.553 253.335C165.459 250.807 178.671 244.95 187.377 235.329C196.035 225.763 200.395 212.305 197.321 194.182C194.263 176.146 182.662 160.971 169.187 150.716C162.459 145.595 155.303 141.734 148.587 139.371C141.849 137.001 135.66 136.176 130.823 136.996C125.986 137.816 120.416 140.636 114.836 145.095C109.275 149.54 103.792 155.545 99.1281 162.598ZM112.963 142.752C118.772 138.109 124.807 134.974 130.322 134.038C135.837 133.103 142.568 134.073 149.583 136.541C156.619 139.017 164.049 143.036 171.004 148.329C184.897 158.902 197.058 174.69 200.279 193.681C203.485 212.585 198.957 227.006 189.602 237.342C180.296 247.625 166.369 253.695 151.055 256.293C135.741 258.89 120.592 257.75 108.416 251.111C96.1759 244.436 87.1462 232.315 83.9403 213.411C80.7196 194.42 86.9955 175.506 96.6258 160.943C101.447 153.652 107.136 147.409 112.963 142.752Z" fill="#1D1D1B"/>
<path d="M152.067 83.6556C152.067 83.6556 144.152 91.0097 115.237 96.1019C85.2781 101.378 76.3714 96.9861 76.3714 96.9861L66.3744 40.2197C66.3744 40.2197 71.4468 25.1281 101.959 19.6696C132.472 14.2112 142.07 26.8891 142.07 26.8891L152.067 83.6556Z" fill="#E3302B"/>
<path d="M83.527 94.7209L72.8693 32.1018L66.428 40.8705L73.2789 79.7718L83.527 94.7209Z" fill="#9E221F"/>
<path fill-rule="evenodd" clip-rule="evenodd" d="M137.474 24.7752C132.807 21.6842 122.412 17.5619 102.222 21.1466C82.2963 24.6842 73.7319 31.9729 70.2024 36.5009C68.4141 38.7953 68.198 41.9258 68.7841 45.254L77.48 94.6322C78.7206 94.0073 80.6157 93.1572 83.3694 92.16C89.096 90.0861 98.5548 87.3694 113.598 84.7202C128.122 82.1624 137.763 81.5159 143.806 81.517C146.742 81.5175 148.832 81.671 150.223 81.8333L141.473 32.1525C140.918 28.9999 139.753 26.2848 137.474 24.7752ZM151.671 85.1026L151.673 85.103L151.675 85.1037L151.676 85.1039C151.675 85.1035 151.673 85.103 151.671 85.1026ZM151.677 85.1041C152.171 85.2369 152.698 85.1091 153.077 84.7647C153.457 84.4185 153.633 83.9018 153.544 83.3955L144.428 31.6322C143.821 28.1869 142.437 24.4636 139.131 22.274C133.697 18.675 122.484 14.5023 101.697 18.1928C81.1888 21.8339 71.9055 29.4362 67.8363 34.6566C65.272 37.9465 65.1877 42.1297 65.8296 45.7744L74.8942 97.2463C74.9841 97.7567 75.3311 98.1846 75.812 98.3779C76.2901 98.5701 76.8331 98.5034 77.2503 98.2017C77.2502 98.2018 77.25 98.2019 77.2499 98.202L77.2523 98.2003L77.2532 98.1997C77.2594 98.1954 77.2734 98.1857 77.2958 98.1707C77.3406 98.1408 77.4187 98.0901 77.5338 98.02C77.7641 97.8797 78.1422 97.662 78.6978 97.3783C79.8093 96.8109 81.6284 95.9811 84.3909 94.9807C89.9179 92.9792 99.2024 90.3016 114.118 87.6747C128.509 85.1404 137.972 84.5159 143.805 84.517C146.721 84.5175 148.726 84.6743 149.983 84.8259C150.612 84.9017 151.053 84.9761 151.327 85.0289C151.464 85.0553 151.56 85.0763 151.616 85.0894C151.625 85.0914 151.632 85.0932 151.639 85.0948C151.655 85.0985 151.665 85.1011 151.671 85.1027M77.2561 98.1975C77.2542 98.1989 77.2523 98.2003 77.2503 98.2017C77.2509 98.2013 77.2519 98.2006 77.2532 98.1997L77.2547 98.1986" fill="#1D1D1B"/>
<path d="M70.2129 65.0471C70.2129 65.0471 79.7635 55.0899 107.252 50.636C134.74 46.1821 146.528 51.8361 146.528 51.8361L151.39 78.0007L152.189 83.9803C152.189 83.9803 128.618 85.8482 113.731 88.4665C98.7894 91.0946 75.9129 97.4131 75.9129 97.4131L70.2129 65.0471Z" fill="#1D1D1B"/>
<path d="M103.428 69.416C101.219 68.741 98.4415 69.3038 94.7772 71.93C90.8309 74.6097 89.8326 75.8924 87.4018 75.5875C86.4055 75.3389 85.6682 74.5309 85.1767 73.093C84.4985 70.67 84.6262 67.8755 85.9359 64.3832C86.7151 62.5223 87.499 60.8793 89.044 59.7846C90.248 59.0097 90.4566 59.9179 90.3423 60.0854C90.1727 60.154 89.9041 60.2778 89.726 60.4938C89.5764 60.6679 89.2469 61.2407 89.4459 61.7133C89.6984 62.4674 90.5547 61.977 90.8071 61.3824C91.0462 60.7175 91.3815 59.5969 90.5299 58.9563C90.1946 58.7282 89.745 58.6676 89.2583 58.7963C87.6419 59.3213 86.4474 60.5318 85.4073 61.786C83.2593 64.7081 82.2249 68.1118 82.3268 71.1544C82.4554 72.989 83.0497 75.3551 84.8166 76.5877C86.1378 77.3944 87.8056 77.3335 89.3487 76.4215C90.4251 75.7437 91.7015 74.7728 92.5664 74.135C93.3541 73.4755 97.8938 69.8814 100.52 72.3728C100.52 72.3728 100.729 71.1667 102.141 70.7169C103.264 70.2854 105.051 70.2749 106.445 70.8857C105.908 70.3676 104.557 69.7854 103.428 69.416Z" fill="white"/>
<path d="M91.747 62.2981C90.4687 62.1029 88.7599 64.067 87.9798 66.6935C87.2587 69.0537 87.5731 71.2905 88.6713 71.8843C90.142 72.5169 91.2288 70.1604 91.6984 68.9779C91.727 68.936 91.7203 68.9008 91.7422 68.8238C92.0737 68.0684 92.2509 67.2693 92.4281 66.4703C92.4281 66.4703 92.5833 65.7483 92.6119 65.7064C92.8453 65.5893 93.1005 65.3951 93.3911 65.1943C93.3911 65.1943 92.8462 67.521 93.3368 68.3758C93.4958 68.6373 93.8368 69.6662 95.0265 69.5866C96.542 69.2994 97.3307 67.8742 98.0755 66.6031C98.0755 66.6031 98.2184 66.3937 98.2689 66.2748C98.2889 66.3804 98.2803 66.5278 98.2803 66.5278C98.2784 68.0591 98.9528 68.1501 99.3538 68.147C100.515 68.1092 101.407 66.2635 101.407 66.2635C101.5 66.7562 101.503 67.1566 102.12 67.3312C102.675 67.3718 103.109 66.9616 103.414 66.6485C104.56 65.3743 105.373 63.6894 106.084 62.2424C105.838 62.2891 105.732 62.3091 105.485 62.3559C105.485 62.3559 104.449 64.5935 103.626 65.2598C103.626 65.2598 103.47 65.3987 103.351 65.3484C103.19 65.2695 103.192 65.0869 103.235 64.9328C103.158 64.911 105.591 58.2898 105.668 58.3116C104.928 58.4518 104.582 58.5538 103.849 58.7292C103.849 58.7292 103.726 59.0441 103.697 59.086C103.697 59.086 103.649 59.0223 103.614 59.029C102.169 57.9541 100.058 60.6869 98.9652 63.5913C98.5175 64.6968 97.9622 66.0049 97.3183 67.0382C97.3183 67.0382 96.3734 68.6024 95.5285 67.997C95.1866 67.7337 95.0932 67.2411 95.097 66.8759C95.1313 64.9374 95.7781 62.9559 96.8687 61.5828C97.1611 61.1993 97.5926 60.9718 97.8241 61.0373C98.0489 61.0676 98.1727 61.3357 98.1003 61.5317C97.7898 61.627 97.5279 61.786 97.3917 62.0305C97.084 62.5262 97.0868 62.9266 97.2945 63.2518C98.1679 63.8153 98.9405 61.9193 98.6195 60.9959C98.4823 60.6574 98.1823 60.4226 97.8384 60.342C97.305 60.2243 96.5982 60.5405 96.1867 60.8736C95.6409 61.2687 94.8846 62.2868 94.5112 63.0137C94.0302 63.9432 93.1177 65.1003 92.73 65.1737C92.7205 64.7381 93.0739 62.557 91.747 62.2981ZM101.118 62.2357C101.348 61.7181 102.073 60.3415 102.28 60.0836C102.957 59.2262 103.363 59.441 103.438 59.6454C102.938 61.0524 102.366 62.6554 101.879 64.1327L101.706 64.5665C101.488 65.1545 101.229 65.7139 100.732 66.1726C100.668 66.2211 100.534 66.283 100.415 66.2327C100.296 66.1824 100.205 66.0902 100.185 65.9846C100.105 65.5623 100.189 64.2707 101.118 62.2357ZM91.947 66.0511C91.947 66.0511 91.9537 66.0863 91.9604 66.1215L91.6298 67.4599C91.3974 68.1601 91.1279 69.0495 90.6154 69.6205C90.4592 69.7595 90.1972 69.9184 89.9944 69.8111C89.5533 69.603 89.5305 69.0971 89.4924 68.7033C89.4791 68.6329 89.4791 68.6329 89.4657 68.5626C89.4552 67.5439 89.6981 66.5137 89.9544 65.5539L89.9896 65.5472C90.5897 66.0167 91.3917 66.0105 91.927 65.9456C91.9689 65.9741 91.9756 66.0093 91.947 66.0511ZM92.1671 64.5149L92.0956 65.2939C92.0671 65.3358 91.9966 65.3492 91.8908 65.3692C91.8204 65.3826 91.7851 65.3892 91.7499 65.3959C91.2498 65.4542 90.7869 65.3232 90.5506 65.0399C90.1487 64.46 90.564 63.7616 90.764 63.4686C90.9707 63.2107 91.3251 62.9613 91.6337 63.0486C91.8366 63.156 91.9756 63.3119 92.0509 63.5163C92.1461 63.8263 92.1776 64.1849 92.1671 64.5149Z" fill="white"/>
<path d="M114.903 61.1908C114.695 60.8657 114.268 60.728 113.838 60.773C112.435 61.0753 111.212 62.3276 110.745 63.9106C110.497 64.723 110.406 65.3964 110.452 66.4084C110.788 65.8708 111.5 65.0068 112.421 64.4679C112.421 64.4679 112.417 63.4845 112.968 62.5416C113.184 62.1363 113.647 61.5016 114.245 61.5707C114.771 61.6532 114.729 62.9734 114.223 64.3452C113.826 65.3317 113.217 66.3583 112.555 67.1034C111.979 67.7229 111.112 68.5433 110.208 68.2043C109.619 67.9877 109.217 67.4078 109.134 66.5851C108.941 64.216 109.731 62.0251 111.115 59.5029C112.567 57.1499 114.366 54.695 117.096 53.3029C117.661 53.0134 118.19 52.9132 118.653 53.0442C118.653 53.0442 116.071 54.4448 115.096 56.8165C114.844 57.4111 114.526 58.2369 115.005 58.8387C115.248 59.1571 115.649 59.1541 115.966 59.094C117.377 58.6442 118.235 57.3883 118.964 56.2294C119.382 55.3484 119.735 54.516 119.709 53.6096C119.689 53.504 119.698 53.3566 119.678 53.251C120.413 52.893 121.97 53.4 121.934 53.4066C123.155 53.6856 125.65 55.2906 126.477 55.6078C126.875 55.2043 127.57 54.6351 127.989 54.3372C127.786 54.2298 127.66 54.1443 127.457 54.0369C126.562 53.5505 125.644 53.1411 124.685 52.7031C122.613 51.7836 120.864 52.1879 119.974 52.5023C119.635 52.6394 119.324 52.7347 119.324 52.7347C118.634 52.173 117.563 52.303 116.773 52.5621C114.02 53.4483 111.58 55.4052 109.421 58.6573C107.854 61.1778 107.086 63.2916 106.883 65.2986C106.7 66.6455 106.976 68.4886 108.275 69.3724C109.365 70.1136 110.523 69.6755 111.309 69.1985C113.017 68.0001 114.432 65.8364 115.09 63.5248C115.251 62.838 115.36 61.8697 114.903 61.1908ZM119.159 53.7868C119.031 56.5812 116.676 58.4126 116.091 58.5965C115.745 58.6984 115.07 58.6075 115.533 57.3898C116.205 55.7316 117.571 54.2699 119.141 53.4986C119.161 53.6042 119.174 53.6745 119.159 53.7868Z" fill="white"/>
<path d="M134.608 54.3955C133.139 54.9289 131.701 55.2379 129.937 54.9888C129.434 55.4123 128.936 55.8711 128.516 56.3516C130.895 56.958 133.487 55.993 135.065 55.0743C136.714 54.1422 137.712 52.8595 137.712 52.8595C137.712 52.8595 136.387 53.7667 134.608 54.3955Z" fill="white"/>
<path d="M108.692 57.7021C107.987 57.8357 107.635 57.9024 106.93 58.036C106.649 58.6725 106.491 58.994 106.239 59.5886C106.943 59.4551 107.261 59.395 107.965 59.2614C108.253 58.6601 108.411 58.3386 108.692 57.7021Z" fill="white"/>
<path d="M129.37 66.8335C129.208 66.9373 128.969 66.8366 129.07 66.5987C129.316 65.969 130.314 64.6863 130.314 64.6863C131.429 63.0535 132.042 62.2447 133.241 60.669C132.496 60.5914 132.13 60.5878 131.427 60.5387C131.341 60.6643 131.135 60.9222 131.135 60.9222C131.073 60.7881 130.836 60.5048 130.711 60.4193C130.292 60.1342 129.615 60.2259 129.142 60.425C127.127 61.3535 125.685 63.3764 124.635 64.9606C124.635 64.9606 123.547 66.7341 122.919 66.8895C122.454 66.9411 122.482 66.3162 122.49 66.1688C122.656 65.1168 123.053 64.1302 123.499 63.2074C124.406 62.5981 125.462 61.8148 126.441 61.0095C128.585 59.2183 130.589 57.2712 130.868 56.8173C130.868 56.8173 130.579 56.8356 130.213 56.832C128.35 58.7524 124.964 61.6904 123.995 62.1656C124.393 61.1791 127.311 56.5435 130.133 54.478C130.289 54.339 130.388 54.2838 130.586 54.1734C131.259 53.6812 131.968 53.1824 132.51 53.1527C132.58 53.1393 132.622 53.1678 132.678 53.2667C132.68 53.6671 132.445 53.9669 132.217 54.3018C132.074 54.5111 132.017 54.5948 131.867 54.769C131.867 54.769 132.297 54.724 132.579 54.6706C132.928 54.2034 133.342 53.6877 133.25 53.0124C133.21 52.8013 133.064 52.6102 132.798 52.5514C131.998 52.3749 131.093 52.8015 130.357 53.1596L130.322 53.1663C126.047 55.653 123.222 59.4325 121.415 63.3836C121.259 63.5225 120.596 63.6846 120.477 63.6343C120.679 63.1586 120.966 62.5573 121.064 61.919C121.066 61.7364 121.104 61.5471 121.105 61.3645C121.103 60.9641 120.959 60.5904 120.546 60.3405C120.07 60.1391 119.478 60.2878 119.11 60.4668C117.393 61.2297 116.263 62.9747 115.509 64.3932C115.127 65.2675 114.73 66.2541 114.741 67.2727C114.746 68.0736 114.987 68.5747 115.499 68.7694C116.01 68.9641 116.57 68.6394 116.796 68.4871C118.326 67.5047 119.379 65.7378 120.211 64.1585C120.246 64.1518 120.753 64.1287 121.127 63.9848C121.105 64.0619 120.924 64.6431 120.924 64.6431C120.4 66.3098 120.212 67.4389 120.803 68.0558C121.625 68.9209 122.824 67.9282 123.857 66.6388C123.672 68.1683 124.479 68.38 125.078 68.2664C125.777 68.0977 126.586 67.3611 126.956 66.9994C126.818 67.4266 126.859 68.2207 127.498 68.3183C127.919 68.4208 128.273 68.1714 128.676 67.9857C130.048 67.3248 131.915 65.0392 132.442 64.356C132.218 64.3257 132.105 64.3105 131.852 64.3221C131.252 65.2012 130.368 66.3165 129.37 66.8335ZM116.875 66.9776C116.778 66.8502 116.716 66.7161 116.725 66.5687C116.629 65.6757 117.505 63.9422 118.197 62.9726C118.571 63.5944 119.292 63.9317 119.72 64.0694C119.243 65.2167 117.67 67.7019 116.875 66.9776ZM119.992 63.5803C119.928 63.6289 119.044 63.3954 118.792 62.6413C118.595 61.9861 119.072 61.4218 119.532 61.1524C119.723 61.0067 120.034 60.9114 120.265 60.9769C120.468 61.0843 120.55 61.3239 120.562 61.5769C120.553 61.7244 120.551 61.907 120.536 62.0192L120.543 62.0544C120.424 62.5871 120.236 63.1332 119.992 63.5803ZM127.111 66.2774L126.955 66.4164C126.7 66.6106 126.486 66.8332 126.171 66.7107C126.094 66.6889 126.039 66.59 126.019 66.4845C126.018 65.9014 126.283 65.3772 126.556 64.8882C126.584 64.8463 126.613 64.8044 126.641 64.7626C127.442 63.5903 128.378 62.1736 129.815 61.2815C130.042 61.1292 130.317 61.0406 130.555 61.1413C130.604 61.205 130.694 61.2972 130.673 61.3743C130.679 61.4094 130.657 61.4865 130.622 61.4932C130.209 62.0089 129.809 62.595 129.437 63.1393C128.723 64.1859 127.986 65.3096 127.111 66.2774Z" fill="white"/>
<path d="M120.034 126.198C156.901 119.705 184.371 100.725 181.391 83.8042C178.411 66.8834 146.11 58.4295 109.243 64.922C72.3765 71.4145 44.9059 90.3948 47.8858 107.316C50.8657 124.236 83.1676 132.69 120.034 126.198Z" fill="#E3302B"/>
<path d="M119.438 123.224C152.928 117.326 178.052 101.046 175.554 86.8617C173.056 72.6772 143.882 65.9594 110.392 71.8572C76.9026 77.755 51.7789 94.035 54.277 108.22C56.775 122.404 85.9487 129.122 119.438 123.224Z" fill="#9E221F"/>
<path fill-rule="evenodd" clip-rule="evenodd" d="M64.4748 83.4421C53.4683 91.0468 48.0367 99.5228 49.3632 107.055C50.6897 114.588 58.6902 120.698 71.6324 124.085C84.4359 127.436 101.504 127.938 119.774 124.72C138.044 121.503 153.914 115.2 164.803 107.677C175.809 100.073 181.241 91.5967 179.914 84.0642C178.588 76.5317 170.587 70.4212 157.645 67.0341C144.842 63.6832 127.774 63.1816 109.503 66.3991C91.233 69.6167 75.3633 75.9189 64.4748 83.4421ZM62.7694 80.9739C74.0879 73.1537 90.3867 66.7195 108.983 63.4446C127.579 60.1696 145.095 60.6486 158.405 64.1318C171.575 67.5787 181.215 74.1555 182.869 83.5438C184.522 92.9322 177.708 102.407 166.508 110.145C155.189 117.966 138.891 124.4 120.294 127.675C101.698 130.95 84.1819 130.471 70.8728 126.988C57.7025 123.541 48.062 116.964 46.4087 107.576C44.7553 98.1873 51.5689 88.7127 62.7694 80.9739Z" fill="#1D1D1B"/>
<path d="M171.619 115.004C176.2 140.834 156.11 165.996 126.745 171.205C97.3797 176.414 69.8604 159.697 65.2786 133.867C60.6967 108.036 80.7874 82.8741 110.152 77.6653C139.517 72.4565 167.037 89.1735 171.619 115.004Z" fill="#757575"/>
<path d="M172.149 125.574C170.498 147.378 152.07 166.712 126.744 171.205C101.419 175.697 77.4656 163.881 68.416 143.974C59.1524 123.597 72.7723 100.332 87.2674 97.5123C96.8246 95.6532 107.112 104.652 111.122 127.258C114.341 129.177 116.49 130.368 119.409 129.85C122.328 129.333 123.936 127.475 126.299 124.566C122.289 101.959 128.854 89.9718 138.467 88.4304C153.048 86.0927 173.839 103.254 172.149 125.574Z" fill="white"/>
<path d="M97.7135 134.247C100.906 133.681 102.847 129.576 102.049 125.079C101.251 120.582 98.0168 117.395 94.8247 117.962C91.6326 118.528 89.6916 122.633 90.4893 127.13C91.287 131.627 94.5214 134.814 97.7135 134.247Z" fill="#1D1D1B"/>
<path d="M141.038 126.563C144.23 125.997 146.171 121.892 145.373 117.395C144.575 112.897 141.341 109.711 138.149 110.277C134.957 110.843 133.016 114.948 133.814 119.445C134.611 123.942 137.846 127.129 141.038 126.563Z" fill="#1D1D1B"/>
<path d="M148.572 133.919C151.224 135.784 155.504 134.268 158.132 130.532C160.759 126.796 160.74 122.256 158.088 120.391C155.437 118.526 151.157 120.042 148.529 123.778C145.901 127.514 145.921 132.054 148.572 133.919Z" fill="#FFB8B8"/>
<path d="M93.3012 143.723C91.4529 146.387 86.9126 146.435 83.1603 143.831C79.408 141.227 77.8645 136.957 79.7128 134.293C81.5612 131.63 86.1014 131.582 89.8538 134.186C93.6061 136.79 95.1496 141.06 93.3012 143.723Z" fill="#FFB8B8"/>
<path fill-rule="evenodd" clip-rule="evenodd" d="M110.414 79.1424C81.6811 84.2391 62.3486 108.762 66.7552 133.605C71.1617 158.447 97.7494 174.825 126.482 169.728C155.215 164.632 174.548 140.108 170.141 115.266C165.735 90.4236 139.147 74.0456 110.414 79.1424ZM63.8013 134.129C59.0442 107.31 79.8931 81.5094 109.89 76.1885C139.887 70.8675 168.338 87.9237 173.095 114.742C177.852 141.56 157.003 167.361 127.006 172.682C97.0093 178.003 68.5584 160.947 63.8013 134.129Z" fill="#1D1D1B"/>
<path d="M109.185 135.219C112.066 140.269 118.799 151.287 123.052 150.532C127.306 149.778 129.885 137.108 130.852 131.376C131.546 127.257 126.545 126.47 124.405 127.355C123.018 127.928 121.507 126.479 119.834 126.775C118.161 127.072 115.555 127.861 114.055 127.8C111.741 127.706 107.219 131.775 109.185 135.219Z" fill="#FFB419"/>
<path fill-rule="evenodd" clip-rule="evenodd" d="M127.205 148.815C126.303 150.275 125.043 151.702 123.314 152.009C121.583 152.316 119.911 151.407 118.566 150.345C117.156 149.232 115.74 147.661 114.422 145.976C111.777 142.596 109.33 138.501 107.881 135.962C106.454 133.461 107.497 130.892 108.853 129.233C109.552 128.379 110.409 127.654 111.281 127.142C112.121 126.649 113.131 126.261 114.115 126.301C114.648 126.323 115.497 126.186 116.562 125.956C116.896 125.883 117.257 125.801 117.622 125.717C118.307 125.559 119.006 125.399 119.571 125.298C120.762 125.087 121.868 125.463 122.547 125.694C122.601 125.712 122.652 125.729 122.7 125.746C123.55 126.029 123.732 126.009 123.832 125.968C125.301 125.361 127.503 125.363 129.272 126.106C130.19 126.492 131.095 127.12 131.705 128.083C132.331 129.071 132.558 130.276 132.33 131.625C131.843 134.511 130.942 139.199 129.61 143.286C128.946 145.322 128.151 147.284 127.205 148.815ZM126.758 142.355C128.02 138.485 128.892 133.972 129.372 131.126C129.492 130.416 129.354 129.978 129.17 129.688C128.971 129.373 128.623 129.088 128.11 128.872C127.017 128.413 125.648 128.464 124.977 128.741C123.732 129.255 122.507 128.845 121.82 128.615C121.797 128.607 121.774 128.599 121.751 128.591C120.888 128.303 120.483 128.183 120.095 128.252C119.596 128.341 119.038 128.469 118.416 128.613C118.034 128.701 117.628 128.795 117.196 128.888C116.165 129.111 114.961 129.338 113.994 129.299C113.821 129.292 113.398 129.378 112.801 129.729C112.236 130.06 111.651 130.551 111.176 131.132C110.184 132.345 109.949 133.533 110.487 134.475C111.92 136.986 114.279 140.925 116.785 144.128C118.042 145.735 119.287 147.092 120.425 147.99C121.629 148.94 122.394 149.125 122.79 149.055C123.187 148.985 123.845 148.546 124.653 147.238C125.417 146.002 126.124 144.298 126.758 142.355Z" fill="#1D1D1B"/>
<path d="M108.925 133.742C111.593 137.331 117.589 144.9 121.939 144.128C126.29 143.357 129.319 134.187 130.587 129.899C131.498 126.819 126.69 126.159 124.475 126.921C123.04 127.414 121.581 126.419 119.87 126.722C118.159 127.026 115.477 127.74 113.96 127.77C111.618 127.817 107.106 131.294 108.925 133.742Z" fill="#D92520"/>
<path fill-rule="evenodd" clip-rule="evenodd" d="M126.071 143.176C125.048 144.333 123.762 145.328 122.202 145.605C120.641 145.882 119.092 145.39 117.733 144.655C116.357 143.911 115.008 142.829 113.772 141.661C111.295 139.322 109.065 136.444 107.722 134.636C106.94 133.585 106.86 132.4 107.18 131.346C107.482 130.353 108.128 129.481 108.827 128.789C109.539 128.085 110.392 127.481 111.246 127.044C112.076 126.619 113.029 126.289 113.93 126.271C114.532 126.259 115.454 126.102 116.541 125.879C116.898 125.806 117.275 125.725 117.653 125.644C118.346 125.495 119.04 125.346 119.608 125.245C120.711 125.049 121.725 125.253 122.42 125.392C122.471 125.402 122.519 125.412 122.566 125.421C123.365 125.578 123.703 125.6 123.988 125.502C125.424 125.009 127.518 124.993 129.178 125.546C130.019 125.826 130.924 126.311 131.534 127.135C132.197 128.031 132.374 129.146 132.026 130.324C131.387 132.485 130.283 135.954 128.761 139.002C128.002 140.524 127.108 142.004 126.071 143.176ZM126.077 137.662C127.475 134.86 128.52 131.601 129.149 129.474C129.256 129.112 129.174 128.989 129.122 128.919C129.017 128.777 128.753 128.567 128.229 128.392C127.159 128.036 125.742 128.071 124.963 128.339C123.832 128.728 122.741 128.513 122.023 128.371C122.01 128.369 121.998 128.367 121.986 128.364C121.165 128.203 120.661 128.105 120.132 128.199C119.611 128.291 119.019 128.419 118.37 128.558C117.98 128.642 117.571 128.731 117.144 128.818C116.083 129.036 114.905 129.252 113.99 129.27C113.72 129.275 113.231 129.398 112.613 129.714C112.019 130.018 111.419 130.445 110.937 130.922C110.443 131.411 110.156 131.869 110.05 132.218C109.963 132.507 110.001 132.674 110.129 132.847C111.453 134.628 113.555 137.33 115.832 139.48C116.971 140.556 118.104 141.445 119.159 142.016C120.231 142.595 121.063 142.76 121.678 142.651C122.292 142.542 123.017 142.101 123.824 141.188C124.619 140.29 125.377 139.065 126.077 137.662Z" fill="#1D1D1B"/>
<path d="M130.24 127.93C130.433 129.017 124.109 131.048 119.758 131.82C115.408 132.592 108.771 132.86 108.578 131.772C108.461 131.112 111.289 125.946 113.503 125.184C114.939 124.691 116.65 124.247 118.361 123.943C120.072 123.64 121.832 123.468 123.35 123.438C125.691 123.391 130.123 127.27 130.24 127.93Z" fill="#FFB419"/>
<path fill-rule="evenodd" clip-rule="evenodd" d="M118.623 125.42C116.984 125.711 115.348 126.136 113.991 126.603C113.781 126.675 113.392 126.929 112.868 127.478C112.373 127.996 111.871 128.656 111.418 129.342C111.049 129.902 110.729 130.455 110.487 130.924C111.042 130.979 111.758 131.004 112.59 130.994C114.736 130.967 117.401 130.715 119.496 130.343C121.591 129.972 124.181 129.292 126.204 128.579C126.99 128.302 127.653 128.033 128.155 127.79C127.767 127.433 127.276 127.024 126.737 126.625C126.076 126.136 125.377 125.689 124.735 125.373C124.054 125.038 123.601 124.933 123.379 124.938C121.944 124.966 120.262 125.129 118.623 125.42ZM128.969 127.311C128.967 127.312 128.966 127.314 128.964 127.315C128.982 127.294 128.988 127.292 128.969 127.311ZM109.559 130.754C109.534 130.743 109.54 130.743 109.565 130.756C109.562 130.755 109.56 130.755 109.559 130.754ZM113.015 123.766C114.528 123.246 116.316 122.783 118.099 122.466C119.882 122.15 121.72 121.97 123.319 121.938C124.269 121.919 125.247 122.282 126.059 122.681C126.911 123.1 127.766 123.655 128.52 124.213C129.277 124.772 129.967 125.361 130.489 125.868C130.747 126.119 130.984 126.37 131.172 126.601C131.265 126.716 131.363 126.848 131.449 126.988C131.516 127.098 131.659 127.345 131.717 127.668C131.877 128.573 131.318 129.206 131.078 129.444C130.775 129.744 130.392 129.993 130.029 130.196C129.284 130.614 128.282 131.027 127.201 131.408C125.023 132.176 122.276 132.897 120.02 133.297C117.765 133.697 114.936 133.965 112.627 133.993C111.482 134.007 110.398 133.964 109.555 133.828C109.144 133.762 108.699 133.66 108.312 133.482C108.004 133.342 107.261 132.939 107.101 132.034C107.044 131.712 107.093 131.43 107.119 131.304C107.151 131.143 107.198 130.985 107.246 130.845C107.342 130.564 107.478 130.247 107.635 129.921C107.95 129.266 108.396 128.476 108.914 127.69C109.43 126.907 110.043 126.092 110.698 125.406C111.323 124.752 112.117 124.075 113.015 123.766Z" fill="#1D1D1B"/>
<path d="M208.612 97.6655C205.15 97.6655 200.411 103.605 198.335 109.049C195.89 115.459 197.794 125.183 199.958 126.371C202.662 127.855 212.398 123.401 214.561 120.432C216.725 117.462 212.938 97.6655 208.612 97.6655Z" fill="#757575"/>
<path fill-rule="evenodd" clip-rule="evenodd" d="M204.087 102.298C202.326 104.33 200.713 107.024 199.737 109.583C198.633 112.476 198.484 116.238 198.906 119.474C199.115 121.08 199.457 122.489 199.851 123.535C200.049 124.059 200.247 124.457 200.425 124.732C200.59 124.987 200.689 125.059 200.688 125.06C200.688 125.061 200.685 125.059 200.68 125.056C200.729 125.083 200.911 125.153 201.314 125.164C201.701 125.175 202.198 125.128 202.793 125.014C203.983 124.785 205.415 124.314 206.873 123.692C208.325 123.072 209.754 122.322 210.934 121.561C212.15 120.776 212.974 120.062 213.349 119.548C213.348 119.549 213.349 119.548 213.349 119.548C213.353 119.54 213.401 119.463 213.459 119.266C213.518 119.062 213.573 118.785 213.614 118.429C213.696 117.715 213.711 116.788 213.655 115.7C213.542 113.528 213.151 110.861 212.558 108.269C211.963 105.668 211.183 103.223 210.323 101.464C209.89 100.578 209.474 99.9418 209.104 99.5484C208.789 99.2123 208.622 99.1699 208.603 99.1656C208.151 99.1682 207.501 99.373 206.669 99.9269C205.85 100.473 204.967 101.283 204.087 102.298ZM205.006 97.4302C206.096 96.7041 207.333 96.1655 208.612 96.1655C209.75 96.1655 210.651 96.8123 211.292 97.4955C211.95 98.1964 212.521 99.1295 213.018 100.147C214.018 102.192 214.861 104.882 215.482 107.601C216.106 110.329 216.527 113.169 216.651 115.544C216.712 116.729 216.702 117.835 216.594 118.772C216.494 119.645 216.285 120.612 215.773 121.315C215.066 122.286 213.862 123.242 212.56 124.082C211.222 124.945 209.641 125.772 208.051 126.451C206.467 127.128 204.823 127.678 203.359 127.96C202.628 128.1 201.903 128.181 201.232 128.163C200.576 128.145 199.863 128.03 199.236 127.685C198.655 127.367 198.224 126.852 197.908 126.365C197.578 125.855 197.291 125.249 197.044 124.594C196.549 123.282 196.162 121.637 195.931 119.862C195.471 116.337 195.592 112.031 196.934 108.514C198.034 105.629 199.828 102.632 201.82 100.333C202.818 99.1826 203.898 98.1681 205.006 97.4302Z" fill="#1D1D1B"/>
<path d="M134.893 176.848C130.783 176.244 128.494 171.121 131.334 168.089C132.1 167.272 132.938 166.4 133.85 165.477C140.303 158.947 149.798 143.145 157.989 147.29C165.494 151.087 161.681 155.144 163.577 160.799C165.407 166.256 170.249 172.323 165.733 179.419C161.612 185.893 145.613 178.513 136.542 177.098C135.968 177.009 135.418 176.925 134.893 176.848Z" fill="#E3302B"/>
<path fill-rule="evenodd" clip-rule="evenodd" d="M129.125 173.962C128.208 171.786 128.342 169.089 130.24 167.064C131.015 166.237 131.862 165.355 132.783 164.423C134.237 162.952 135.865 160.977 137.662 158.796C137.786 158.646 137.91 158.495 138.035 158.344C139.957 156.014 142.045 153.505 144.201 151.326C146.345 149.16 148.65 147.219 151.034 146.106C153.463 144.972 156.094 144.65 158.666 145.952C160.676 146.969 162.064 148.071 162.976 149.327C163.903 150.604 164.25 151.921 164.379 153.197C164.46 153.995 164.457 154.888 164.454 155.715C164.453 156.098 164.452 156.467 164.459 156.805C164.484 157.965 164.593 159.11 165 160.323C165.374 161.441 165.885 162.59 166.446 163.851C166.527 164.034 166.61 164.218 166.693 164.406C167.334 165.855 168.009 167.431 168.478 169.085C169.435 172.464 169.545 176.223 166.998 180.224C165.618 182.392 163.304 183.263 160.841 183.481C158.391 183.697 155.543 183.298 152.679 182.684C150.109 182.132 147.417 181.381 144.863 180.668C144.556 180.583 144.251 180.498 143.948 180.413C141.094 179.62 138.478 178.918 136.311 178.581C135.741 178.492 135.196 178.409 134.675 178.333C132.041 177.945 130.035 176.122 129.125 173.962ZM131.89 172.797C132.442 174.107 133.636 175.148 135.112 175.365C135.641 175.442 136.195 175.526 136.773 175.616C139.142 175.986 141.927 176.737 144.752 177.523C145.056 177.608 145.361 177.693 145.667 177.778C148.234 178.494 150.834 179.219 153.308 179.75C156.093 180.348 158.585 180.669 160.577 180.492C162.556 180.317 163.787 179.683 164.467 178.614C166.437 175.519 166.383 172.697 165.591 169.904C165.186 168.472 164.589 167.065 163.949 165.62C163.87 165.441 163.79 165.261 163.709 165.079C163.154 163.833 162.579 162.541 162.155 161.276C161.614 159.661 161.488 158.178 161.46 156.869C161.449 156.353 161.451 155.9 161.453 155.482C161.457 154.764 161.46 154.149 161.394 153.499C161.301 152.58 161.076 151.817 160.548 151.089C160.004 150.34 159.054 149.51 157.312 148.629C155.789 147.858 154.161 147.957 152.304 148.824C150.402 149.713 148.394 151.354 146.334 153.436C144.286 155.505 142.279 157.913 140.349 160.253C140.215 160.416 140.08 160.579 139.946 160.742C138.183 162.882 136.471 164.959 134.917 166.532C134.014 167.445 133.186 168.308 132.429 169.115C131.486 170.121 131.344 171.502 131.89 172.797Z" fill="#1D1D1B"/>
<path d="M132.907 177.789C135.853 174.86 134.648 169.379 130.562 168.63C129.46 168.428 128.268 168.225 126.986 168.025C117.916 166.61 100.887 159.547 96.764 167.75C92.9864 175.265 98.4637 176.26 100.301 181.935C102.074 187.41 101.786 195.167 109.636 198.188C116.798 200.945 125.277 185.499 131.73 178.97C132.138 178.557 132.531 178.163 132.907 177.789Z" fill="#E3302B"/>
<path fill-rule="evenodd" clip-rule="evenodd" d="M135.829 172.039C135.273 169.744 133.563 167.655 130.833 167.155C129.718 166.95 128.513 166.745 127.218 166.543C125.174 166.224 122.691 165.604 119.949 164.918C119.761 164.871 119.571 164.824 119.381 164.776C116.45 164.045 113.28 163.269 110.25 162.799C107.238 162.331 104.231 162.141 101.653 162.663C99.0254 163.195 96.7189 164.5 95.4239 167.076C94.4121 169.089 93.951 170.8 93.9647 172.352C93.9787 173.93 94.4823 175.195 95.1372 176.298C95.5465 176.988 96.0797 177.704 96.573 178.367C96.8017 178.675 97.0218 178.971 97.217 179.247C97.8867 180.194 98.48 181.18 98.8738 182.397C99.2371 183.519 99.5092 184.746 99.808 186.094C99.8512 186.289 99.8949 186.486 99.9396 186.686C100.285 188.233 100.68 189.902 101.286 191.511C102.524 194.797 104.671 197.885 109.097 199.588C111.496 200.511 113.874 199.836 115.984 198.547C118.083 197.265 120.136 195.251 122.074 193.054C123.813 191.082 125.531 188.878 127.161 186.787C127.357 186.536 127.551 186.286 127.745 186.038C129.568 183.703 131.255 181.584 132.797 180.024C133.202 179.614 133.591 179.224 133.965 178.853C135.852 176.976 136.381 174.317 135.829 172.039ZM132.914 172.745C133.249 174.127 132.907 175.674 131.849 176.725C131.47 177.103 131.075 177.499 130.663 177.916C128.978 179.621 127.185 181.881 125.38 184.192C125.186 184.441 124.991 184.691 124.796 184.941C123.158 187.042 121.498 189.171 119.824 191.069C117.94 193.205 116.127 194.944 114.42 195.987C112.725 197.022 111.358 197.244 110.175 196.789C106.752 195.471 105.117 193.169 104.093 190.453C103.569 189.06 103.212 187.574 102.867 186.032C102.825 185.841 102.782 185.648 102.739 185.455C102.444 184.122 102.139 182.741 101.728 181.473C101.203 179.852 100.423 178.585 99.667 177.515C99.3692 177.094 99.098 176.731 98.8478 176.396C98.418 175.821 98.0503 175.328 97.7167 174.767C97.2448 173.972 96.9726 173.225 96.9646 172.325C96.9564 171.4 97.2273 170.168 98.1043 168.423C98.8708 166.899 100.239 166.01 102.248 165.604C104.305 165.187 106.895 165.314 109.79 165.763C112.666 166.21 115.712 166.953 118.654 167.687C118.86 167.738 119.065 167.79 119.27 167.841C121.959 168.513 124.571 169.166 126.755 169.507C128.024 169.705 129.203 169.906 130.292 170.105C131.648 170.354 132.583 171.38 132.914 172.745Z" fill="#1D1D1B"/>
<path d="M122.738 173.163C121.405 169.117 124.773 165.343 128.819 164.01V164.01V164.01C132.864 162.677 137.816 163.71 139.149 167.755L140.687 172.422C142.057 176.579 138.89 180.59 134.733 181.96V181.96V181.96C130.576 183.33 125.646 181.986 124.276 177.829L122.738 173.163Z" fill="#E3302B"/>
<path fill-rule="evenodd" clip-rule="evenodd" d="M124.973 168.455C124.017 169.762 123.678 171.22 124.163 172.693L125.701 177.36C126.708 180.416 130.537 181.763 134.264 180.535C137.991 179.307 140.269 175.947 139.263 172.892L137.725 168.225C137.239 166.751 136.101 165.781 134.554 165.298C132.979 164.805 131.052 164.854 129.289 165.435C127.526 166.016 125.947 167.122 124.973 168.455ZM122.551 166.684C123.939 164.785 126.067 163.338 128.35 162.586C130.632 161.834 133.204 161.732 135.449 162.434C137.723 163.145 139.727 164.714 140.574 167.286L142.112 171.953C143.845 177.211 139.79 181.873 135.203 183.385C130.616 184.896 124.584 183.558 122.852 178.299L121.314 173.632C120.467 171.06 121.145 168.608 122.551 166.684Z" fill="#1D1D1B"/>
<path d="M24.1129 133L27.8859 146.49C28.993 150.448 32.0485 153.564 35.9839 154.748L46.2258 157.831L35.8802 160.945C32.0015 162.112 28.9735 165.158 27.8283 169.043L24.1129 181.648L20.3975 169.043C19.2523 165.158 16.2243 162.112 12.3456 160.945L2 157.831L12.2419 154.748C16.1774 153.564 19.2329 150.448 20.3399 146.49L24.1129 133Z" fill="#FFDB5D"/>
<path fill-rule="evenodd" clip-rule="evenodd" d="M24.1129 131.5C24.7857 131.5 25.3762 131.948 25.5575 132.596L29.3305 146.086C30.2991 149.549 32.9727 152.276 36.4162 153.312L46.6581 156.395C47.292 156.585 47.7258 157.169 47.7258 157.831C47.7258 158.493 47.292 159.077 46.6581 159.267L36.3125 162.381C32.9187 163.403 30.2692 166.067 29.2671 169.467L25.5517 182.072C25.3637 182.71 24.778 183.148 24.1129 183.148C23.4478 183.148 22.8621 182.71 22.6741 182.072L18.9587 169.467C17.9566 166.067 15.3071 163.403 11.9133 162.381L1.56768 159.267C0.933857 159.077 0.5 158.493 0.5 157.831C0.5 157.169 0.933857 156.585 1.56768 156.395L11.8096 153.312C15.2531 152.276 17.9267 149.549 18.8953 146.086L22.6684 132.596C22.8496 131.948 23.4401 131.5 24.1129 131.5ZM24.1129 138.569L21.7844 146.894C20.5391 151.346 17.1016 154.852 12.6743 156.185L7.2045 157.831L12.7779 159.508C17.1415 160.822 20.5479 164.248 21.8363 168.619L24.1129 176.343L26.3895 168.619C27.6779 164.248 31.0844 160.822 35.4479 159.508L41.0213 157.831L35.5516 156.185C31.1242 154.852 27.6868 151.346 26.4414 146.894L24.1129 138.569Z" fill="#1D1D1B"/>
<path d="M224 24.0005L228.926 40.7426C230.08 44.6647 233.151 47.7295 237.076 48.875L251 52.9389L236.996 57.0262C233.115 58.1589 230.065 61.1697 228.883 65.0358L224 81.0005L219.117 65.0358C217.935 61.1697 214.885 58.1589 211.004 57.0262L197 52.9389L210.924 48.875C214.849 47.7295 217.92 44.6647 219.074 40.7426L224 24.0005Z" fill="#FFDB5D"/>
<path fill-rule="evenodd" clip-rule="evenodd" d="M224 22.5005C224.665 22.5005 225.251 22.9388 225.439 23.5771L230.365 40.3192C231.375 43.7511 234.062 46.4328 237.496 47.4351L251.42 51.499C252.06 51.6858 252.5 52.2724 252.5 52.9389C252.5 53.6055 252.06 54.1921 251.42 54.3789L237.416 58.4661C234.021 59.4572 231.352 62.0917 230.317 65.4745L225.434 81.4392C225.242 82.0698 224.659 82.5005 224 82.5005C223.341 82.5005 222.758 82.0698 222.566 81.4392L217.683 65.4745C216.648 62.0917 213.979 59.4572 210.584 58.4661L196.58 54.3789C195.94 54.1921 195.5 53.6055 195.5 52.9389C195.5 52.2724 195.94 51.6858 196.58 51.499L210.504 47.4351C213.938 46.4328 216.626 43.7511 217.635 40.3192L222.561 23.5771C222.749 22.9388 223.335 22.5005 224 22.5005ZM224 29.3149L220.513 41.166C219.215 45.5784 215.76 49.0263 211.344 50.3149L202.354 52.9389L211.424 55.5863C215.79 56.8606 219.221 60.2477 220.551 64.5971L224 75.872L227.449 64.597C228.779 60.2477 232.21 56.8606 236.576 55.5863L245.646 52.9389L236.656 50.3149C232.24 49.0263 228.785 45.5784 227.487 41.166L224 29.3149Z" fill="black"/>
</svg>
