<svg width="255" height="303" viewBox="0 0 255 303" fill="none" xmlns="http://www.w3.org/2000/svg">
<path d="M220.272 235.219L216.335 205.289L142.283 148.363L148.364 140.429L222.416 197.355L251.994 193.445L253.298 203.368L233.637 205.96L249.191 217.918L243.11 225.863L227.544 213.905L230.176 233.911L220.272 235.219Z" fill="#785240" stroke="#1D1D1B" stroke-width="3" stroke-miterlimit="10" stroke-linecap="round" stroke-linejoin="round"/>
<path d="M220.272 235.219L216.335 205.289L142.283 148.363L148.364 140.429L222.416 197.355L251.994 193.445L253.298 203.368L233.637 205.96L249.191 217.918L243.11 225.863L227.544 213.905L230.176 233.911L220.272 235.219Z" stroke="#1D1D1B" stroke-width="3" stroke-miterlimit="10" stroke-linecap="round" stroke-linejoin="round"/>
<path d="M226.535 300.272C226.16 300.67 225.729 301.034 225.207 301.329C223.358 302.364 221.202 301.898 219.852 300.397C219.364 300.363 218.865 300.352 218.377 300.329C217.969 300.465 217.549 300.579 217.118 300.624C213.465 301.022 209.823 301.056 206.17 300.738C205.478 300.67 204.842 300.477 204.252 300.181C199.419 300.272 194.586 300.431 189.775 300.488C177.602 300.624 165.428 300.761 153.243 300.92C152.154 300.943 151.258 300.579 150.588 299.999C147.446 300.249 144.314 300.465 141.16 300.613C140.411 300.647 139.753 300.511 139.209 300.261C134.398 300.943 129.463 301.295 124.414 301.295C118.084 301.295 111.923 300.738 105.978 299.681C105.933 299.704 105.876 299.715 105.819 299.738C104.254 300.227 102.756 300.295 101.281 300.181C97.6732 300.42 94.1221 300.295 90.571 299.772C86.7929 300.386 83.3893 301.272 79.3503 300.92C70.013 300.102 60.4375 301.363 51.2023 299.624C51.0321 299.59 50.8846 299.522 50.7371 299.476C43.147 302.329 32.8227 299.954 25.278 301.045C24.4157 301.17 23.6329 301.045 22.9522 300.772C20.286 301.977 16.6668 300.795 17.1093 297.18C18.0283 289.542 23.2698 285.256 30.2473 282.824C37.5537 280.266 43.737 278.231 47.152 272.116C46.9251 270.206 47.6739 268.774 48.8425 267.967C48.9446 267.603 49.0467 267.251 49.1374 266.876C49.1942 266.614 49.2736 266.376 49.3643 266.148C41.5133 255.338 37.0092 242.675 37.0092 229.16C37.0092 221.078 38.6202 213.303 41.5927 206.051C53.2672 177.542 85.9307 157.013 124.414 157.013C172.678 157.013 211.82 189.318 211.82 229.16C211.82 246.233 204.627 261.931 192.6 274.287C192.566 275.003 192.43 275.697 192.169 276.379C192.067 277.186 191.965 278.004 191.863 278.822C191.863 279.118 191.829 279.414 191.761 279.709C191.67 280.437 191.579 281.164 191.489 281.88C192.476 284.654 199.464 286.37 201.427 286.427C205.012 286.541 208.427 285.95 212.069 286.347C215.325 286.711 218.173 287.291 220.726 288.393C221.395 288.268 222.076 288.268 222.734 288.405C224.527 288.791 226.172 290.03 227.125 291.588C227.658 292.463 227.964 293.35 228.1 294.27C228.112 294.293 228.134 294.316 228.157 294.35C229.587 296.225 228.475 299.113 226.535 300.272Z" fill="white"/>
<path d="M126.514 230.024C159.495 227.25 185.589 203.482 185.589 178.372C185.589 168.142 166.302 190.876 166.302 190.876L136.804 212.473L127.728 224.977L126.514 230.024Z" fill="#C7DFF4"/>
<path d="M58.52 190.876C61.05 203.311 80.0763 221.567 92.5563 222.704C99.0799 223.295 82.3454 196.559 82.3454 196.559L61.9576 179.838L54.5264 187.818L58.52 190.876Z" fill="#C7DFF4"/>
<path d="M92.6363 296.384C63.7848 286.506 51.146 269.888 46.1654 261.738C40.1636 251.939 36.7373 240.879 36.7373 229.16C36.7373 189.318 75.9925 157.024 124.415 157.024C172.837 157.024 212.092 189.318 212.092 229.16C212.092 244.721 205.954 259.01 195.914 270.922C192.964 274.423 176.944 291.838 159.994 295.066" stroke="#1D1D1B" stroke-width="3" stroke-miterlimit="10" stroke-linecap="round" stroke-linejoin="round"/>
<path d="M180.461 214.564C183.068 214.564 185.181 212.447 185.181 209.836C185.181 207.224 183.068 205.107 180.461 205.107C177.854 205.107 175.741 207.224 175.741 209.836C175.741 212.447 177.854 214.564 180.461 214.564Z" fill="#1D1D1B"/>
<path d="M187.677 245.699C190.283 245.699 192.396 243.581 192.396 240.97C192.396 238.358 190.283 236.241 187.677 236.241C185.07 236.241 182.957 238.358 182.957 240.97C182.957 243.581 185.07 245.699 187.677 245.699Z" fill="#1D1D1B"/>
<path d="M181.776 172.245C181.776 200.81 154.445 223.954 120.727 223.954C100.282 223.954 82.1974 215.451 71.113 202.379C63.92 193.888 59.6768 183.487 59.6768 172.245C59.6768 152.807 72.3383 135.882 91.0469 127.049C99.8283 122.9 109.948 120.536 120.715 120.536C154.445 120.536 181.776 143.691 181.776 172.245Z" fill="white"/>
<path d="M91.0693 127.049L90.9672 136.382C84.523 139.792 53.5273 171.745 71.9069 202.231C71.646 202.288 71.385 202.333 71.1354 202.39C63.9424 193.899 59.6992 183.498 59.6992 172.256C59.6992 152.807 72.3494 135.882 91.0693 127.049Z" fill="#C7DFF4"/>
<path d="M91.3876 217.713C72.2025 208.994 59.6885 191.978 59.6885 172.245C59.6885 143.691 87.0196 120.536 120.727 120.536C154.434 120.536 181.765 143.691 181.765 172.245C181.765 196.991 161.31 217.94 133.888 223.01" stroke="#1D1D1B" stroke-width="3" stroke-miterlimit="10" stroke-linecap="round" stroke-linejoin="round"/>
<path d="M165.405 173.359C168.012 173.359 170.125 171.242 170.125 168.63C170.125 166.018 168.012 163.901 165.405 163.901C162.799 163.901 160.686 166.018 160.686 168.63C160.686 171.242 162.799 173.359 165.405 173.359Z" fill="#1D1D1B"/>
<path d="M171.747 106.168V106.521C171.498 131.858 148.569 152.171 120.534 151.909C97.9112 151.693 78.8736 138.132 72.4861 119.604C71.8961 119.786 71.2721 119.968 70.6708 120.127C70.7162 120.32 70.7389 120.513 70.7389 120.695C70.8183 124.105 66.9836 125.481 64.3401 123.673C63.7161 123.241 63.2736 122.73 62.9786 122.184C61.6172 120.354 61.9462 117.285 64.0564 115.932C64.1699 115.466 64.3287 115 64.5103 114.546C64.4989 114.227 64.5443 113.875 64.6691 113.511C65.1116 112.272 65.6448 111.283 66.405 110.454C67.5622 108.18 68.9917 106.02 70.2511 103.792C70.4666 99.5752 71.3175 95.4945 72.713 91.6524C79.4068 73.1923 98.7394 59.9497 121.408 60.1657C143.35 60.3817 161.911 73.1355 168.843 90.7999C170.726 95.6081 171.747 100.78 171.747 106.168Z" fill="white"/>
<path d="M171.975 102.212C143.611 102.212 95.9602 85.1617 82.3457 76.068C94.8257 61.2909 98.7399 59.9496 121.408 60.1655C143.35 60.3815 165.054 84.5479 171.975 102.212Z" fill="#C7DFF4"/>
<path d="M71.2383 98.2448C75.3226 76.42 96.1188 59.9264 121.408 60.1652C149.454 60.438 171.986 81.1942 171.748 106.52C171.509 131.846 148.58 152.17 120.534 151.897C97.0832 151.67 77.3535 137.688 71.7034 118.114" stroke="#1D1D1B" stroke-width="3" stroke-miterlimit="10" stroke-linecap="round" stroke-linejoin="round"/>
<path d="M137.722 116.273C138.701 112.403 137.328 108.716 134.656 108.037C131.984 107.358 129.024 109.946 128.044 113.816C127.065 117.686 128.438 121.373 131.11 122.052C133.783 122.731 136.743 120.144 137.722 116.273Z" fill="#1D1D1B"/>
<path d="M162.891 114.064C163.87 110.193 162.497 106.506 159.825 105.827C157.153 105.148 154.192 107.736 153.213 111.606C152.234 115.476 153.607 119.163 156.279 119.842C158.952 120.521 161.912 117.934 162.891 114.064Z" fill="#1D1D1B"/>
<path d="M140.537 139.041C140.537 139.041 135 132.119 140.627 125.151C146.436 117.956 154.083 122.252 154.083 122.252L181.153 156.092C182.605 157.899 181.301 159.514 179.225 158.479L140.537 139.041Z" fill="#FFB419"/>
<path d="M140.537 139.041C140.537 139.041 135 132.119 140.627 125.151C146.436 117.956 154.083 122.252 154.083 122.252L181.153 156.092C182.605 157.899 181.301 159.514 179.225 158.479L140.537 139.041Z" stroke="#1D1D1B" stroke-width="3" stroke-miterlimit="10"/>
<path d="M198.243 97.6831C200.074 91.8239 171.447 77.6247 134.302 65.9682C97.1572 54.3117 65.5603 49.612 63.7287 55.4712C61.897 61.3303 90.5241 75.5295 127.669 87.186C164.814 98.8425 196.411 103.542 198.243 97.6831Z" fill="#E3302B"/>
<path d="M198.243 97.6831C200.074 91.8239 171.447 77.6247 134.302 65.9682C97.1572 54.3117 65.5603 49.612 63.7287 55.4712C61.897 61.3303 90.5241 75.5295 127.669 87.186C164.814 98.8425 196.411 103.542 198.243 97.6831Z" stroke="#1D1D1B" stroke-width="3" stroke-miterlimit="10" stroke-linecap="round" stroke-linejoin="round"/>
<path d="M169.91 84.1277C169.91 84.1277 159.086 87.14 129.951 78.0009C99.7607 68.5321 93.6455 60.2001 93.6455 60.2001L111.56 2.89879C111.56 2.89879 129.735 -1.30702 152.506 5.84286C178.986 14.1522 187.813 26.8264 187.813 26.8264L169.91 84.1277Z" fill="#E3302B"/>
<path d="M103.596 30.0889C112.218 39.1257 165.701 55.9034 178.646 53.5618C176.49 60.4616 172.451 77.6941 172.451 77.6941L168.39 83.6731L149.738 81.9681L124.256 76.3527L103.641 67.4069L93.2715 58.802L103.596 30.0889Z" fill="#1D1D1B"/>
<path d="M139.969 56.4264C139.969 56.4264 138.88 56.5401 137.428 57.2562C135.976 57.9837 134.966 58.9158 135.363 59.3364C135.511 59.4955 135.93 59.6433 136.895 59.2682C137.78 58.9499 138.551 58.4498 139.141 57.8132C139.969 56.9379 139.958 56.4378 139.969 56.4264ZM145.642 59.5183C144.542 58.7339 143.827 57.8928 142.976 57.3017C142.17 56.7333 141.626 56.4605 140.854 56.3923C140.741 56.3809 140.639 56.3809 140.525 56.3923C140.525 56.3923 140.559 57.5631 138.483 58.9613C136.384 60.3821 135.011 59.9729 134.773 59.3819C134.524 58.7567 135.374 57.8814 136.566 57.1766C137.802 56.4378 139.72 55.9945 139.72 55.9945C139.72 55.9945 139.266 55.6307 137.791 55.9149C136.35 56.1877 133.775 56.972 131.086 58.6203C128.408 60.2685 127.637 61.3597 127.058 62.235C126.48 63.1102 126.412 64.2242 127.75 64.6448C129.089 65.0654 131.165 63.9059 131.789 63.4626C132.946 62.6442 134.002 61.1551 132.81 61.0528C132.22 61.0073 131.619 61.3597 131.188 61.7462C130.916 61.9963 130.677 62.2691 130.485 62.5646C130.053 62.576 129.634 62.6328 129.237 62.7351C128.794 62.8374 128.374 62.9738 127.977 63.1443C127.977 63.1443 128.227 62.3714 129.384 61.3597C130.553 60.348 132.152 60.1889 132.981 60.3708C133.718 60.5299 134.512 61.3029 133.139 62.8943C131.767 64.4857 128.726 65.9634 126.253 65.2131C123.972 64.5311 123.201 61.7348 127.637 58.6885C132.538 55.3238 137.19 55.0055 138.619 55.1533C140.049 55.3011 140.344 55.8694 140.344 55.8694C141.263 55.7671 142.204 55.824 143.089 56.0286C144.757 56.4264 145.755 57.6313 147.253 58.6203C146.697 58.9272 146.141 59.2341 145.642 59.5183ZM153.845 58.8362C152.438 59.4273 150.611 59.8365 149.08 59.4728C148.569 59.7683 148.013 60.1207 147.446 60.4958C149.999 61.4279 152.846 60.2457 154.548 59.0067C155.161 58.5634 155.739 58.0519 156.25 57.4836C155.49 58.0292 154.673 58.4838 153.845 58.8362ZM148.047 65.2131C148.081 65.1904 148.104 65.1563 148.127 65.1222C148.149 65.0085 148.07 64.8949 147.945 64.8608C147.696 64.7926 147.332 64.7698 146.141 65.4519C145.154 66.0088 144.258 66.6454 143.464 67.3501C142.692 68.0322 142.295 68.5664 142.533 68.8165C142.613 68.8847 142.726 68.9302 142.828 68.9302C143.044 68.9415 143.316 68.8506 143.77 68.6005C143.986 68.4869 144.235 68.2936 144.53 68.1004C145.381 67.5434 147.605 65.611 148.047 65.2131ZM138.381 63.8491C138.631 63.5649 139.028 62.9852 138.71 62.6328C138.37 62.2577 137.088 62.5874 136.872 63.2125C136.656 63.8491 137.337 64.3606 137.507 64.4516C137.609 64.5084 137.643 64.5084 137.712 64.4516C137.95 64.2697 138.177 64.0651 138.381 63.8491ZM137.178 64.8039C136.94 64.6221 136.736 64.4288 136.554 64.2015C136.373 63.9855 136.248 63.7468 136.169 63.4967C136.157 63.474 136.135 63.4854 136.123 63.4967C136.101 63.5081 136.021 63.5422 135.227 64.0651C134.433 64.588 133.105 65.736 133.82 66.2134C134.285 66.5204 135.363 66.0543 135.976 65.7019C136.395 65.4519 136.804 65.179 137.178 64.8721C137.224 64.838 137.201 64.8153 137.178 64.8039ZM145.721 69.0779C145.404 69.328 144.961 69.8623 145.801 69.6918C146.822 69.4872 148.626 68.0549 148.626 68.0549C148.853 68.1117 148.966 68.1458 149.193 68.2027C148.444 68.8165 147.639 69.3621 146.811 69.8395C145.642 70.4875 144.315 70.9535 143.577 70.6466C142.726 70.2828 143.328 69.3394 143.328 69.3394C143.328 69.3394 141.682 70.1351 140.843 69.7827C139.697 69.3053 140.457 68.1572 140.457 68.1572C140.457 68.1572 138.676 69.1461 137.78 68.8279C136.373 68.3163 137.19 66.9864 137.916 66.077C138.302 65.5883 138.642 65.2131 138.642 65.2131C138.642 65.2131 138.494 65.2018 138.165 65.1563C137.995 65.1336 137.7 65.0654 137.7 65.0654C137.7 65.0654 136.827 65.7701 136.18 66.1452C135.533 66.5204 132.958 67.6798 131.88 66.9523C130.882 66.2816 131.676 65.0426 132.663 64.156C134.104 62.8602 137.485 61.2915 138.937 61.9963C140.434 62.7238 138.109 64.713 138.109 64.713C138.109 64.713 138.109 64.7244 138.12 64.7357C138.154 64.7585 138.233 64.7812 138.426 64.8039C138.631 64.8267 138.846 64.8267 139.05 64.8153C139.05 64.8153 141.535 62.4737 143.929 60.9619C146.323 59.4501 151.054 56.5174 152.222 57.5063C152.506 57.745 152.12 58.4611 151.371 59.2795C151.145 59.3136 150.906 59.3364 150.679 59.3477C151.156 58.8817 151.496 58.4725 151.655 58.1769C152.2 57.1539 148.751 59.0749 146.107 60.9619C144.519 62.0986 143.044 63.2694 141.705 64.497C142.102 64.4061 142.499 64.2924 142.874 64.1446C143.906 63.7468 144.927 63.2807 145.914 62.7465C146.856 62.2463 147.775 61.6666 148.66 61.0301C148.864 61.0528 149.08 61.0755 149.295 61.0755C148.32 61.8144 147.298 62.4737 146.243 63.042C145.268 63.5536 144.212 64.0878 143.339 64.4288C142.556 64.7357 141.751 64.9858 140.934 65.1904C140.934 65.1904 138.404 67.5207 139.232 67.964C139.72 68.2254 141.195 67.1683 141.195 67.1683C141.195 67.1683 143.123 65.7588 144.201 65.1449C145.676 64.3151 146.867 63.8491 147.843 64.0423C148.41 64.156 148.581 64.7585 148.581 64.7585C148.739 64.6334 148.807 64.5652 148.966 64.4402C149.624 64.5766 149.953 64.6334 150.611 64.7698C150.623 64.7698 146.073 68.7938 145.721 69.0779ZM153.833 58.8362C152.427 59.4273 150.6 59.8365 149.068 59.4728C148.558 59.7683 148.002 60.1207 147.435 60.4958C149.987 61.4279 152.835 60.2457 154.537 59.0067C155.15 58.5634 155.728 58.0519 156.239 57.4836C155.49 58.0292 154.673 58.4838 153.833 58.8362ZM129.94 56.2559C129.327 56.074 129.021 55.9717 128.408 55.7785C127.92 56.1081 127.682 56.2786 127.194 56.6197C127.807 56.8129 128.113 56.9152 128.726 57.1084C129.214 56.7674 129.452 56.5969 129.94 56.2559ZM121.522 57.7677C122.384 57.2676 124.948 55.3693 124.948 55.3693C124.959 55.267 124.891 55.1533 124.766 55.1078C124.528 55.0169 124.086 54.9373 123.019 55.483C121.953 56.0286 121.113 56.4719 120.444 57.0061C119.706 57.5859 119.321 58.0519 119.57 58.2906C119.65 58.3588 119.763 58.4043 119.865 58.4156C120.069 58.4384 120.364 58.3702 120.796 58.1656C121 58.0633 121.238 57.9269 121.522 57.7677ZM114.578 51.1748C114.261 50.7202 113.024 50.9248 112.808 51.5841C112.593 52.2661 113.466 52.8685 113.591 52.9254C113.625 52.9481 113.659 52.9481 113.705 52.9481C113.727 52.9481 113.75 52.9367 113.773 52.9254C113.943 52.7776 114.102 52.6185 114.249 52.4479C114.499 52.1751 114.873 51.5954 114.578 51.1748ZM113.251 53.255C112.99 53.0618 112.752 52.8344 112.547 52.5957C112.343 52.357 112.218 52.0728 112.15 51.7773C112.139 51.7546 112.116 51.7546 112.105 51.7773C112.082 51.7887 111.969 51.8455 111.186 52.3684C110.403 52.8913 109.098 54.1189 109.79 54.6759C110.233 55.0396 111.322 54.5622 111.935 54.2212C112.4 53.9484 112.842 53.6529 113.262 53.3346C113.285 53.2891 113.274 53.2777 113.251 53.255ZM125.402 58.1656C125.629 58.2338 125.742 58.2792 125.958 58.3474C125.958 58.3474 122.157 60.6891 120.625 60.0184C119.774 59.6433 120.308 58.8362 120.308 58.8362C120.308 58.8362 118.708 59.6092 117.653 58.984C116.7 58.4156 117.8 57.2107 117.8 57.2107C117.676 57.2107 114.805 58.5521 113.421 57.4836C111.969 56.3582 113.364 54.835 113.841 54.4031C114.238 54.0393 114.669 53.7097 114.669 53.7097C114.669 53.7097 114.408 53.6756 114.238 53.6415C114.068 53.6074 113.829 53.5619 113.829 53.5619C113.829 53.5619 112.74 54.3576 112.105 54.7327C111.47 55.1078 108.894 56.3127 107.85 55.483C106.807 54.6532 107.578 53.1982 108.599 52.2547C110.256 50.7202 113.432 49.5266 114.816 50.5156C116.223 51.5159 114.306 53.1641 114.306 53.1641C114.306 53.1641 114.601 53.3232 115.463 53.1754C116.7 52.9708 118.595 51.891 120.035 52.6639C120.716 53.0277 121.193 53.8802 119.933 54.6986C119.525 54.9601 118.935 55.1192 118.674 54.6418C118.504 54.3462 118.821 54.0507 119.139 53.8916C119.4 53.7552 119.74 53.7552 120.047 53.8916C120.047 53.8916 120.444 53.5165 119.808 53.2777C119.298 53.0845 117.687 53.596 116.643 54.3462C115.679 55.0396 114.158 56.3014 115.077 57.0289C115.917 57.6995 118.265 56.5287 119.389 55.9035C120.501 55.2783 123.042 53.8916 124.664 54.369C125.22 54.5281 125.424 55.051 125.424 55.051C125.527 54.9828 125.583 54.9487 125.685 54.8805C126.332 55.0965 126.65 55.2101 127.296 55.4147C127.296 55.4147 123.019 58.4611 122.69 58.6998C122.429 58.8817 122.021 59.3364 122.792 59.2568C123.518 59.1659 125.402 58.1656 125.402 58.1656ZM122.509 64.3833C121.533 63.3489 120.217 62.5646 118.776 62.1554C117.982 61.9167 117.154 62.0076 116.541 62.4055C116.201 61.3256 115.168 60.3821 113.296 59.7797C110.278 58.8135 106.909 59.0863 104.538 58.3247C102.268 57.5972 101.054 55.6307 101.905 53.1072C103.403 48.6741 108.168 46.5143 111.322 46.2302C113.137 46.071 114.51 46.4575 115.327 46.9463C115.928 47.31 116.473 48.2876 115.713 49.0265C114.59 50.095 113.671 49.5607 113.909 48.9014C114.068 48.4695 114.465 48.3444 114.748 48.299C114.93 48.2762 115.214 48.3785 115.35 48.4354C115.52 48.3899 115.849 47.6852 114.669 47.401C113.489 47.1282 111.855 47.4692 110.176 48.208C108.497 48.9469 105.706 50.6633 104.333 53.2891C103.698 54.5054 103.097 56.9607 106.307 57.9951C109.019 58.8703 113.489 58.6544 117.142 59.9161C118.56 60.4049 119.706 61.1324 120.523 61.9281C121.317 62.7351 122.248 63.7809 122.509 64.3833Z" fill="white"/>
<path d="M111.402 4.31982C110.857 13.6749 182.31 36.1021 186.928 28.0315" stroke="#1D1D1B" stroke-width="2.5239" stroke-miterlimit="10" stroke-linecap="round" stroke-linejoin="round"/>
<path d="M169.91 84.1278C169.91 84.1278 159.086 87.14 129.951 78.0009C99.7607 68.5322 93.6455 60.2001 93.6455 60.2001L111.56 2.89885C111.56 2.89885 128.589 -1.21602 152.506 5.84292C180.835 14.1977 187.813 26.8265 187.813 26.8265L169.91 84.1278Z" stroke="#1D1D1B" stroke-width="3" stroke-miterlimit="10" stroke-linecap="round" stroke-linejoin="round"/>
<path d="M31.6201 210.904L1.70215 214.439L2.87073 224.374L22.8727 221.998L10.7331 237.423L18.5728 243.618L30.7124 228.193L33.0382 247.938L42.9542 246.767L39.4598 217.088L76.6732 169.832C78.3781 167.667 78.0079 164.53 75.8457 162.821V162.821C73.6782 161.108 70.5321 161.48 68.8232 163.65L31.6201 210.904Z" fill="#785240"/>
<path d="M31.6201 210.904L1.70215 214.439L2.87073 224.374L22.8727 221.998L10.7331 237.423L18.5728 243.618L30.7124 228.193L33.0382 247.938L42.9542 246.767L39.4598 217.088L76.6732 169.832C78.3781 167.667 78.0079 164.53 75.8457 162.821V162.821C73.6782 161.108 70.5321 161.48 68.8232 163.65L31.6201 210.904Z" stroke="#1D1D1B" stroke-width="3" stroke-miterlimit="10" stroke-linecap="round" stroke-linejoin="round"/>
<path d="M122.055 136.314C127.16 133.472 133.253 136.586 134.467 140.428" stroke="#1D1D1B" stroke-width="3" stroke-miterlimit="10" stroke-linecap="round" stroke-linejoin="round"/>
<path d="M91.387 217.713C97.0597 222.26 86.1 232.933 94.2574 238.049C103.334 243.732 109.608 234.07 107.872 225.545C113.545 224.408 114.634 232.206 113.545 235.775C108.995 250.723 130.563 253.269 126.705 236.241C124.051 224.567 133.898 223.01 133.898 223.01" stroke="#1D1D1B" stroke-width="3" stroke-miterlimit="10" stroke-linecap="round" stroke-linejoin="round"/>
<path d="M199.067 269.797C197.445 271.65 196.026 273.707 195.119 275.889C194.211 278.038 193.859 280.425 194.767 281.971C195.618 283.539 197.819 284.381 200.156 284.631C202.516 284.926 204.989 284.619 207.723 284.494C210.401 284.403 213.101 284.449 215.813 284.767C218.513 285.108 221.27 285.665 223.879 286.904C226.477 288.075 228.973 290.11 230.346 292.883C231.038 294.259 231.413 295.759 231.56 297.26C231.617 298.01 231.617 298.76 231.56 299.499C231.492 300.272 231.401 300.931 231.163 301.795C230.959 302.522 230.301 303 229.586 303H229.541H18.0391H18.0278C17.2449 303 16.5756 302.466 16.394 301.727C15.7247 299.135 15.5204 296.316 16.1444 293.588C16.7457 290.871 18.1639 288.359 20.0132 286.37C23.7572 282.369 28.8513 280.198 34.0248 279.436C35.4203 279.254 36.4301 279.197 37.5079 278.913C38.5744 278.663 39.5955 278.265 40.5371 277.754C42.4318 276.742 43.9294 275.185 44.8144 273.309C45.722 271.422 45.9376 269.228 45.7333 267.023C45.6199 265.921 45.393 264.807 45.0753 263.704C44.7463 262.601 44.2584 261.567 44.3265 260.226V260.169C44.3605 259.521 44.9051 259.021 45.5518 259.055C45.8128 259.066 46.0397 259.169 46.2325 259.316C47.333 260.214 47.7755 261.476 48.1953 262.715C48.6037 263.965 48.9214 265.273 49.1029 266.614C49.4773 269.285 49.1823 272.195 47.9684 274.787C46.7544 277.379 44.6215 279.493 42.1595 280.789C40.9342 281.448 39.6295 281.925 38.3021 282.232C36.9974 282.562 35.5338 282.653 34.49 282.801C29.9745 283.449 25.5158 285.426 22.4979 288.677C21.0003 290.292 19.9225 292.235 19.446 294.338C18.9695 296.441 19.1056 298.68 19.6615 300.852L18.0164 299.578H229.529L227.907 300.783C228.02 300.397 228.123 299.749 228.157 299.215C228.202 298.658 228.202 298.089 228.157 297.532C228.054 296.43 227.771 295.35 227.294 294.384C226.319 292.451 224.571 290.939 222.427 289.973C220.306 288.962 217.866 288.45 215.404 288.132C212.931 287.836 210.39 287.779 207.848 287.882L203.957 288.098C202.584 288.155 201.188 288.166 199.77 287.984C198.352 287.814 196.9 287.507 195.47 286.859C194.052 286.233 192.657 285.12 191.794 283.619C191.363 282.869 191.102 282.05 190.944 281.232C190.819 280.425 190.785 279.618 190.853 278.845C190.978 277.299 191.42 275.878 191.965 274.548C193.077 271.888 194.676 269.592 196.503 267.512C197.127 266.807 198.193 266.739 198.908 267.353C199.623 267.967 199.691 269.081 199.067 269.797Z" fill="#1D1D1B"/>
<path d="M71.2379 98.2456C69.2979 108.465 55.2749 123.742 65.8942 125.515C72.7015 126.652 71.7031 118.127 71.7031 118.127" stroke="#1D1D1B" stroke-width="3" stroke-miterlimit="10" stroke-linecap="round" stroke-linejoin="round"/>
</svg>
