<svg viewBox="0 0 12 13" fill="none" xmlns="http://www.w3.org/2000/svg">
<path d="M0.304688 12.3672C0.398438 12.4609 0.510417 12.5234 0.640625 12.5547C0.770833 12.5911 0.898438 12.5911 1.02344 12.5547C1.15365 12.5234 1.26823 12.4609 1.36719 12.3672L5.99219 7.73438L10.6328 12.3672C10.7734 12.5078 10.9479 12.5781 11.1562 12.5781C11.3646 12.5833 11.5417 12.513 11.6875 12.3672C11.8333 12.2214 11.9062 12.0443 11.9062 11.8359C11.9062 11.6224 11.8359 11.4453 11.6953 11.3047L7.05469 6.67188L11.6953 2.04688C11.8359 1.90625 11.9062 1.72917 11.9062 1.51562C11.9062 1.30208 11.8333 1.125 11.6875 0.984375C11.5417 0.84375 11.3646 0.773438 11.1562 0.773438C10.9479 0.773438 10.7734 0.84375 10.6328 0.984375L5.99219 5.61719L1.36719 0.984375C1.26823 0.890625 1.15365 0.828125 1.02344 0.796875C0.898438 0.760417 0.770833 0.757812 0.640625 0.789062C0.510417 0.820312 0.398438 0.885417 0.304688 0.984375C0.210938 1.08333 0.148438 1.19792 0.117188 1.32812C0.0859375 1.45312 0.0859375 1.58073 0.117188 1.71094C0.148438 1.84115 0.210938 1.95312 0.304688 2.04688L4.92969 6.67188L0.304688 11.3047C0.210938 11.3984 0.145833 11.5104 0.109375 11.6406C0.078125 11.7708 0.078125 11.901 0.109375 12.0312C0.140625 12.1615 0.205729 12.2734 0.304688 12.3672Z" />
</svg>
