<svg viewBox="0 0 14 14" fill="none" xmlns="http://www.w3.org/2000/svg">
<path d="M5.45312 13.2188C5.80729 13.2188 6.08333 13.0729 6.28125 12.7812L13.2422 1.86719C13.3151 1.7526 13.3672 1.64844 13.3984 1.55469C13.4297 1.45573 13.4453 1.35938 13.4453 1.26562C13.4453 1.03646 13.3724 0.851562 13.2266 0.710938C13.0859 0.565104 12.901 0.492188 12.6719 0.492188C12.5052 0.492188 12.3672 0.526042 12.2578 0.59375C12.1536 0.65625 12.0495 0.765625 11.9453 0.921875L5.42188 11.2969L2.05469 6.92969C1.86198 6.66927 1.6276 6.53906 1.35156 6.53906C1.11198 6.53906 0.916667 6.61458 0.765625 6.76562C0.614583 6.91146 0.539062 7.09896 0.539062 7.32812C0.539062 7.43229 0.557292 7.53646 0.59375 7.64062C0.635417 7.73958 0.700521 7.84115 0.789062 7.94531L4.60938 12.7734C4.84896 13.0703 5.13021 13.2188 5.45312 13.2188Z" />
</svg>
