<svg width="42" height="32" viewBox="0 0 42 32" fill="none" xmlns="http://www.w3.org/2000/svg">
<path d="M0 3.50541C0 1.56943 1.51901 0 3.39281 0H38.6072C40.481 0 42 1.56943 42 3.50541V28.4946C42 30.4306 40.481 32 38.6072 32H3.39281C1.51901 32 0 30.4306 0 28.4946V3.50541Z" fill="#EA003D"/>
<path d="M23.6294 22.9267L25.7253 19.2817H21.5324L23.6294 22.9267Z" fill="white"/>
<path d="M18.4166 22.9267L20.5125 19.2817H16.3207L18.4166 22.9267Z" fill="white"/>
<path d="M21.0234 19.4946L23.1204 23.1396H18.9275L21.0234 19.4946Z" fill="white"/>
<path d="M26.2427 18.3839L28.3386 14.739H24.1458L26.2427 18.3839Z" fill="white"/>
<path d="M23.7185 15.0894L25.8144 18.7343H21.6226L23.7185 15.0894Z" fill="white"/>
<path d="M15.8035 18.3849L13.7076 14.74H17.9005L15.8035 18.3849Z" fill="white"/>
<path d="M18.3289 15.0894L16.2319 18.7343H20.4248L18.3289 15.0894Z" fill="white"/>
<path d="M11.6307 16.0224L8 13.9172V18.1265L11.6307 16.0224Z" fill="white"/>
<path d="M11.6307 21.4913L8 19.3872V23.5954L11.6307 21.4913Z" fill="white"/>
<path d="M8.00049 18.7562L11.6301 16.6521V20.8603L8.00049 18.7562Z" fill="white"/>
<path d="M11.6307 10.5232L8 8.41797V12.6273L11.6307 10.5232Z" fill="white"/>
<path d="M34.4667 16.0224L30.8359 13.9172V18.1265L34.4667 16.0224Z" fill="white"/>
<path d="M34.4667 21.4913L30.8359 19.3872V23.5954L34.4667 21.4913Z" fill="white"/>
<path d="M30.8357 18.7562L34.4653 16.6521V20.8603L30.8357 18.7562Z" fill="white"/>
<path d="M34.4667 10.5232L30.8359 8.41797V12.6273L34.4667 10.5232Z" fill="white"/>
</svg>
