<svg viewBox="0 0 75 24" fill="none" xmlns="http://www.w3.org/2000/svg">
<g clip-path="url(#stroke_1)">
<path fill-rule="evenodd" clip-rule="evenodd" d="M13.1094 18.5684C13.0697 18.1962 13.2961 16.3639 13.2961 16.3639C13.2961 16.3639 13.7513 16.4399 14.1904 16.4883C14.6296 16.5367 15.3362 16.575 15.3362 16.575C15.3362 16.575 14.9552 17.9498 15.1765 18.2636C15.6879 18.9889 18.4833 20.7802 19.1243 21.4991C19.4465 21.8188 19.7736 22.1288 20.1738 22.4081C20.4567 22.648 21.3697 22.6755 21.6098 22.9154C21.7703 23.0886 21.9667 23.5935 21.8682 23.6849C21.8009 23.7472 20.4174 23.7774 20.1738 23.7338C19.9097 23.7338 19.5935 23.4799 19.5935 23.4799C19.5935 23.4799 19.3971 23.6849 19.1243 23.5398C18.6435 23.3009 18.7153 22.808 18.4347 22.4081C18.2742 22.2484 15.9249 20.7074 14.411 19.8556C13.1123 19.1248 13.17 19.1353 13.1094 18.5684ZM3.76781 13.8252C3.48634 13.5757 2.44639 14.4636 2.1491 14.3996C1.85181 14.3355 2.14258 13.6021 1.87921 13.6468C1.52208 13.7074 1.42682 14.541 1.10605 14.6058C0.588746 14.7997 0.294678 14.0271 0.294678 13.1049C0.294678 12.1826 0.623554 11.1776 1.7437 10.5342C2.86385 9.89068 4.52262 9.72675 5.80972 10.1574C7.03109 9.50528 8.638 7.61247 12.2169 7.524C15.7959 7.43553 17.1359 9.21944 17.8966 8.79232C18.6573 8.3652 18.9148 7.40219 18.7493 6.68277C18.4323 5.30476 17.8174 4.55548 17.3253 3.3284C17.0163 2.55846 16.9994 1.54144 17.3886 0.795616C17.5632 0.464346 17.9873 0.0779317 18.6268 0.00667119C19.2663 -0.0645893 19.4347 0.471512 19.8823 0.617753C20.3299 0.763993 21.2865 0.854014 21.3612 1.19422C21.4359 1.53444 20.2881 1.80188 20.0279 1.77401C19.4184 1.70889 19.0338 2.1179 19.0669 2.84055C19.1062 3.75953 19.3228 4.08768 20.172 5.3958C21.0212 6.70391 21.0135 8.87895 19.9289 10.3966C19.5869 10.84 19.2228 11.2166 18.9815 11.7235C18.787 12.1296 18.9815 11.3112 18.9815 12.9321C18.9815 14.553 18.1623 15.3333 17.0919 15.6758C15.6508 16.137 14.4063 15.9645 13.1336 15.8148C11.3725 15.6077 9.99444 15.632 9.27514 15.8148C8.65182 15.9739 6.70093 17.072 6.46085 17.583C6.33342 17.8588 5.64489 20.7299 5.51871 21.3605C5.46711 21.6201 5.49619 22.1368 5.37567 22.3669C5.24384 22.6224 3.63848 23.6323 3.0935 23.8395C2.84241 23.9353 2.33539 24.0578 2.27517 23.9701C1.91997 23.5622 1.9212 23.4678 2.95337 22.7245C2.59285 21.9785 3.63301 21.7964 3.93886 21.4285C4.2727 21.0283 4.87824 16.6715 5.08583 16.1041C5.29342 15.5368 6.10372 15.3414 6.43221 14.8367C6.27681 14.6577 6.06161 14.7532 5.49241 14.9123C5.00407 15.0494 3.98428 15.412 3.76781 15.2307C3.55134 15.0494 4.04928 14.0748 3.76781 13.8252Z" fill="white"/>
<path fill-rule="evenodd" clip-rule="evenodd" d="M31.8381 11.2533H28.5292V2.82487H31.8256C34.4451 2.82487 36.2625 4.5055 36.2625 7.03276C36.2625 9.58529 34.4451 11.2533 31.8381 11.2533ZM31.8256 9.67375C33.48 9.67375 34.4451 8.4733 34.4451 7.03276C34.4451 5.55431 33.5427 4.40441 31.8381 4.40441H30.309V9.67375H31.8256ZM40.336 11.4049C38.4935 11.4049 37.1023 10.1539 37.1023 8.1953C37.1023 6.42621 38.4058 4.99831 40.2357 4.99831C42.0531 4.99831 43.2689 6.36303 43.2689 8.34693V8.72602H38.7693C38.8821 9.47156 39.4837 10.0907 40.5115 10.0907C41.0254 10.0907 41.7273 9.87593 42.1158 9.49684L42.8302 10.5583C42.2286 11.1143 41.276 11.4049 40.336 11.4049ZM41.7398 7.61403C41.6897 7.03276 41.2886 6.31249 40.2357 6.31249C39.2456 6.31249 38.8194 7.00748 38.7568 7.61403H41.7398ZM46.1266 11.4049C45.0111 11.4049 44.422 10.8236 44.422 9.72429V2.82487H46.0138V9.29466C46.0138 9.68638 46.2144 9.97702 46.5653 9.97702C46.8034 9.97702 47.0291 9.88856 47.1168 9.78747L47.4552 11.0132C47.2171 11.228 46.7784 11.4049 46.1266 11.4049ZM48.9467 4.49286C48.4328 4.49286 48.0067 4.06323 48.0067 3.5325C48.0067 3.00178 48.4328 2.58478 48.9467 2.58478C49.4731 2.58478 49.8993 3.00178 49.8993 3.5325C49.8993 4.06323 49.4731 4.49286 48.9467 4.49286ZM49.7489 11.2533H48.1571V5.14995H49.7489V11.2533ZM54.612 11.2533H52.8949L50.4633 5.14995H52.1679L53.7472 9.39575L55.339 5.14995H57.0435L54.612 11.2533ZM60.6031 11.4049C58.7607 11.4049 57.3694 10.1539 57.3694 8.1953C57.3694 6.42621 58.6729 4.99831 60.5029 4.99831C62.3203 4.99831 63.536 6.36303 63.536 8.34693V8.72602H59.0364C59.1492 9.47156 59.7508 10.0907 60.7786 10.0907C61.2925 10.0907 61.9944 9.87593 62.3829 9.49684L63.0974 10.5583C62.4957 11.1143 61.5432 11.4049 60.6031 11.4049ZM62.0069 7.61403C61.9568 7.03276 61.5557 6.31249 60.5029 6.31249C59.5127 6.31249 59.0866 7.00748 59.0239 7.61403H62.0069ZM66.2809 11.2533H64.6892V5.14995H66.2809V5.97131C66.7196 5.44058 67.4591 4.99831 68.2111 4.99831V6.56521C68.0983 6.53994 67.9605 6.52731 67.7725 6.52731C67.246 6.52731 66.5442 6.83058 66.2809 7.2223V11.2533ZM71.6579 13.73C70.6427 13.73 69.828 13.4394 69.1261 12.8202L69.8405 11.6703C70.2792 12.201 71.0187 12.4158 71.6579 12.4158C72.6857 12.4158 73.2873 11.7082 73.2873 10.8489V10.2171C72.8737 10.672 72.1468 11.1396 71.1566 11.1396C69.828 11.1396 69.2013 10.4067 69.2013 9.21884V5.14995H70.7931V8.58702C70.7931 9.43366 71.2318 9.71165 71.9086 9.71165C72.5228 9.71165 73.0116 9.37047 73.2873 9.01666V5.14995H74.8791V10.8489C74.8791 12.6812 73.5881 13.73 71.6579 13.73ZM32.4488 22.8925C29.9296 22.8925 27.9868 21.1234 27.9868 18.5329C27.9868 15.9299 29.9296 14.1734 32.4488 14.1734C34.2788 14.1734 35.3441 15.1717 35.9332 16.2331L34.4041 16.9913C34.0532 16.309 33.3011 15.7656 32.4488 15.7656C30.9197 15.7656 29.8167 16.9408 29.8167 18.5329C29.8167 20.1251 30.9197 21.3003 32.4488 21.3003C33.3011 21.3003 34.0532 20.7569 34.4041 20.0746L35.9332 20.8201C35.3441 21.8689 34.2788 22.8925 32.4488 22.8925ZM38.8069 22.8925C37.6914 22.8925 37.1023 22.3112 37.1023 21.2118V14.3124H38.6941V20.7822C38.6941 21.1739 38.8946 21.4646 39.2456 21.4646C39.4837 21.4646 39.7093 21.3761 39.7971 21.275L40.1355 22.5007C39.8973 22.7156 39.4586 22.8925 38.8069 22.8925ZM46.5152 22.7408H44.9234V21.97C44.5098 22.4249 43.7828 22.8925 42.7926 22.8925C41.4641 22.8925 40.8374 22.1596 40.8374 20.9718V16.6375H42.4292V20.3399C42.4292 21.1866 42.8678 21.4646 43.5447 21.4646C44.1588 21.4646 44.6476 21.1234 44.9234 20.7696V16.6375H46.5152V22.7408ZM49.6862 20.7822C49.962 21.1739 50.5385 21.4646 51.0649 21.4646C51.9799 21.4646 52.5941 20.7443 52.5941 19.6828C52.5941 18.634 51.9799 17.9138 51.0649 17.9138C50.5385 17.9138 49.962 18.217 49.6862 18.6214V20.7822ZM49.6862 22.7408H48.0944V14.3124H49.6862V17.4209C50.1625 16.7891 50.8393 16.4859 51.5538 16.4859C53.0954 16.4859 54.236 17.6989 54.236 19.6828C54.236 21.7299 53.0829 22.8925 51.5538 22.8925C50.8268 22.8925 50.1625 22.5639 49.6862 21.9574V22.7408Z" fill="white"/>
</g>
<defs>
<clipPath id="stroke_1">
<rect width="74.5846" height="24" fill="white" transform="translate(0.294678 0.000183105)"/>
</clipPath>
</defs>
</svg>
