<svg width="74" height="24" viewBox="0 0 74 24" fill="none" xmlns="http://www.w3.org/2000/svg">
<path d="M28.1456 20.9357C25.4182 19.179 21.717 18.8709 15.7477 20.5264C9.38398 22.0218 7.26255 22.9807 4.476 21.0563C3.40551 20.1111 3.02203 18.5891 3.30837 16.3967C3.9729 12.8225 5.7693 9.38314 8.95985 5.56792C10.7408 3.58331 12.3928 1.88014 14.5742 1.19625C16.2461 0.767237 16.0899 2.08106 15.8876 2.26889C15.674 2.26889 15.3155 2.30251 15.0384 2.4835C14.8134 2.65823 14.1958 3.22113 14.163 3.9789C14.1151 5.13871 15.3155 4.89733 15.8333 4.26054C16.3913 3.54285 17.2159 2.16863 16.5674 0.887832C16.2953 0.431843 15.8255 0.11697 15.2421 0.00947143C13.2447 -0.104477 11.3844 0.847569 9.66758 1.90008C5.91296 4.50838 2.90945 8.12267 1.21 12.0788C0.230005 14.4659 -0.655977 17.8849 0.672507 20.6675C1.7 22.5984 3.83335 23.6241 6.37813 23.4099C8.163 23.2221 10.3214 22.6453 11.7732 22.2968C13.2252 21.9481 20.6561 19.3936 23.0977 23.8395C23.0977 23.8395 23.9096 22.2636 25.9387 22.2298C27.6069 22.076 30.0135 22.7131 31.7659 24.0002C31.1819 23.122 29.5266 21.8279 28.1456 20.9357Z" fill="white"/>
<path d="M16.5059 6.01756C15.116 5.10558 12.3227 6.84881 10.0851 9.83922C8.03894 12.5216 7.15569 15.6392 8.11712 17.0807C9.54724 18.7768 12.2023 16.31 13.3316 14.9892L13.4774 14.8346C14.2451 14.01 14.8383 13.0175 15.4124 12.0654C15.4124 12.0654 15.9399 11.1937 15.9651 11.1534C16.2915 11.0932 16.6844 10.9994 17.1269 10.872C17.1206 10.8921 15.4331 13.7285 15.6053 15.1364C15.6588 15.5658 15.6178 17.135 17.1497 17.6108C19.1914 17.9528 20.8217 16.37 22.2598 14.9618C22.2598 14.9618 22.5051 14.7275 22.6437 14.5938C22.6085 14.7339 22.5628 14.9216 22.5628 14.9216C21.9651 17.0004 22.7707 17.4362 23.275 17.5969C24.7981 18.04 26.6178 15.8267 26.6237 15.8267C26.5765 16.5239 26.4388 17.1006 27.1735 17.5633C27.8669 17.8115 28.5688 17.4331 29.1024 17.0778C31.024 15.7233 32.572 13.604 33.8225 11.7715H33.0249C33.0155 11.7715 31.0569 14.6104 29.7847 15.2274C29.7827 15.2274 29.5513 15.3465 29.418 15.2523C29.2529 15.1113 29.318 14.8186 29.42 14.6112C29.4264 14.5981 34.3313 6.09124 34.3313 6.09124H32.0154C32.0154 6.09124 31.7623 6.50052 31.7419 6.5271C31.7263 6.514 31.6892 6.44345 31.6636 6.40963C30.2288 4.42502 26.9798 7.47778 24.5337 11.018C23.5918 12.3793 22.3927 13.9118 21.1496 15.0181C21.1496 15.0181 19.3079 16.7068 18.5208 15.4936C18.2331 14.9841 18.3216 14.2385 18.4841 13.7494C19.4003 11.1411 20.9792 8.77401 22.7758 7.34546C23.283 6.95045 23.8344 6.83611 24.1076 7.00361C24.3681 7.15802 24.4104 7.53973 24.2454 7.80144C23.8269 7.78835 23.4919 7.9152 23.2193 8.19684C22.6824 8.76014 22.4957 9.3033 22.6663 9.81303C23.4956 10.993 25.1496 8.65987 25.0694 7.23835C25.0409 6.72861 24.7688 6.24585 24.3633 6.01111C23.7583 5.64913 22.836 5.74295 22.2389 6.03143C21.4395 6.33302 20.1743 7.38552 19.4357 8.20368C18.5058 9.2298 16.9113 10.3695 16.4127 10.2419C16.5761 9.80561 17.9227 7.04974 16.5059 6.01756ZM27.6705 10.0941C28.121 9.4706 29.4323 7.80125 29.7515 7.5196C30.8264 6.57401 31.2562 6.99012 31.2936 7.28467C30.2903 9.08146 29.1063 11.1402 27.9926 12.9909C27.9951 12.9842 27.6441 13.5206 27.6441 13.5206C27.1525 14.2715 26.6573 14.9151 25.8497 15.3644C25.7347 15.3981 25.5448 15.4114 25.4185 15.3175C25.2666 15.2167 25.2064 15.0492 25.2234 14.8746C25.2721 14.2981 25.8592 12.5349 27.6705 10.0941ZM15.0727 11.1736C15.0727 11.1736 15.0523 11.2342 15.0426 11.2541C15.04 11.2541 14.0329 12.8969 14.0329 12.8969C13.4252 13.7078 12.6661 14.7273 11.7175 15.2167C11.4365 15.3103 11.0475 15.3709 10.8497 15.1231C10.4301 14.62 10.6463 13.9224 10.8222 13.3595L10.8841 13.1584C11.3884 11.7908 12.1882 10.5839 12.9665 9.46415C12.9764 9.45751 12.9979 9.45086 13.0059 9.45086C13.0077 9.4577 13.0106 9.4577 13.0122 9.47099C13.5008 10.4096 14.4167 10.8452 15.1014 11.0469C15.1055 11.0469 15.1102 11.0536 15.1102 11.0672C15.1106 11.0864 15.0992 11.1134 15.0727 11.1736ZM16.0267 9.23606C16.0226 9.24935 15.5783 10.2684 15.5783 10.2684C15.514 10.322 15.4124 10.2954 15.2963 10.2684L15.0969 10.2348C14.4707 10.0405 13.9985 9.62481 13.853 9.12876C13.6523 8.16342 14.4771 7.40565 14.8405 7.13065C15.1891 6.88908 15.7315 6.76164 16.046 7.00987C16.2401 7.23796 16.3138 7.53289 16.3138 7.8548C16.3138 8.29046 16.1793 8.78007 16.0267 9.23606Z" fill="white"/>
<path d="M45.3027 12.3469C45.0789 11.8641 44.5494 11.5559 43.9843 11.5893C42.1498 11.7568 40.3556 13.2655 39.4133 15.4311C38.919 16.5438 38.6491 17.4628 38.4724 18.9244C39.0427 18.2677 40.2063 17.1878 41.5265 16.5977C41.5265 16.5977 41.7064 15.1965 42.6224 13.9496C42.969 13.4326 43.663 12.6017 44.4421 12.8226C45.1227 13.0509 44.8834 14.9352 43.9791 16.7584C43.3095 18.0994 42.2853 19.4412 41.2486 20.3662C40.3323 21.1439 38.9767 22.0825 37.7909 21.3584C37.0441 20.9159 36.6629 19.9906 36.7434 18.7972C37.1005 15.4112 38.6415 12.5279 40.8473 9.24231C43.1218 6.1917 45.6289 3.06037 49.0061 1.39063C49.6947 1.04194 50.333 0.961414 50.8842 1.17622C50.8842 1.17622 47.7138 2.91945 46.2025 6.1446C45.8181 6.96295 45.2833 8.06882 45.822 9.04783C46.103 9.55718 46.603 9.59764 47.0052 9.57067C48.8577 9.14146 50.0547 7.41171 51.0323 5.82933C51.5993 4.62906 52.1032 3.43564 52.1032 2.10813C52.1032 1.94727 52.095 1.73267 52.0811 1.57181C52.9663 1.10253 54.7809 1.93379 54.7809 1.93379C56.1991 2.40326 59.2184 4.71682 60.2373 5.15913C60.7342 4.58255 61.5508 3.71103 62.0103 3.27498L61.3449 2.86589C60.2795 2.21543 59.1532 1.59859 58.0444 0.988582C55.5269 -0.385834 53.478 0.0967368 52.4349 0.472199C52.0246 0.619765 51.6502 0.747199 51.6502 0.747199C50.876 -0.097738 49.6067 -0.017408 48.6717 0.210684C45.3077 1.17602 42.185 3.52945 38.8369 7.61302C36.3754 10.8114 34.8484 13.5739 34.0347 16.3028C33.4073 18.1397 33.2165 20.842 34.7477 22.4445C36.0496 23.8054 37.7756 23.5105 38.9947 23.0215C41.6358 21.7203 44.0094 18.9178 45.1918 15.6924C45.4772 14.7341 45.794 13.3796 45.3027 12.3469ZM51.3755 2.2426C51.0259 6.25229 47.9094 8.60592 47.138 8.79355C46.6706 8.88717 45.8732 8.67941 46.5848 6.99677C47.6334 4.73031 49.4232 2.80628 51.3441 1.82042C51.3908 1.98793 51.3894 2.09484 51.3755 2.2426Z" fill="white"/>
<path d="M69.8635 2.75187C68.1871 3.7043 66.4491 4.32095 64.3453 4.10635C63.7624 4.76365 63.1947 5.4407 62.6716 6.13807C65.6241 6.88899 68.7547 5.21944 70.5004 3.63062C72.3473 2.02811 73.2944 0.0100708 73.2944 0.0100708C73.2944 0.0100708 71.91 1.59206 69.8635 2.75187Z" fill="white"/>
<path d="M38.1797 6.09064H35.9805L34.74 8.10633H36.9388L38.1797 6.09064Z" fill="white"/>
<path d="M64.3366 21.1223C64.0999 21.2834 63.7678 21.1595 63.8919 20.7912C64.2015 19.8523 65.4315 17.9394 65.4315 17.9394L68.8578 11.8628H66.5108C66.3992 12.0461 66.1606 12.4664 66.1606 12.4664C66.0521 12.2858 65.7274 11.8837 65.5937 11.7967C65.0205 11.4344 64.1794 11.6056 63.5992 11.9341C61.0763 13.4092 59.2351 16.3242 57.7831 18.5975C57.7831 18.5975 56.2551 21.1243 55.4066 21.3121C54.7442 21.3659 54.8128 20.4738 54.8412 20.2657C55.0974 18.7636 55.6922 17.3358 56.2912 16.0414C57.5097 15.197 58.9007 14.0906 60.1643 12.877C62.9069 10.255 65.2194 7.28474 65.5576 6.62098C65.5576 6.62098 65.1917 6.69467 64.7596 6.70796C62.6497 9.65166 58.3313 13.9293 57.0224 14.5665C57.6023 13.1715 61.3493 6.51348 64.5377 3.3286L65.0392 2.84564C65.8154 2.08807 66.6189 1.31036 67.2453 1.18293C67.3116 1.17609 67.3968 1.18293 67.4703 1.33734C67.4982 1.92741 67.2787 2.36326 67.0264 2.85932L66.6732 3.58366C66.6732 3.58366 67.1734 3.48985 67.5017 3.38215C67.8829 2.66504 68.3047 1.86017 68.1493 0.901676C68.0971 0.593058 67.8741 0.358516 67.5825 0.304962C66.6314 0.123778 65.5943 0.8276 64.7605 1.39773L64.7265 1.41767C60.4387 4.7769 56.818 9.61804 53.6526 16.2292C53.4232 16.4033 52.5368 16.6113 52.3863 16.5104C52.699 15.8668 53.0925 15.0016 53.2895 14.0632C53.3237 13.7948 53.3553 13.5204 53.3553 13.2521C53.3553 12.6753 53.2168 12.1321 52.6998 11.7569C52.0935 11.4551 51.3445 11.596 50.8393 11.8239C48.5765 12.7629 46.8855 15.0829 45.6649 16.9932C45.0088 18.2076 44.354 19.5073 44.1728 20.9961C44.0452 22.1627 44.3049 22.9136 44.9681 23.2891C45.6502 23.6376 46.5087 23.2754 46.8458 23.1013C49.1383 21.8942 50.74 19.4737 52.0026 17.261C52.0528 17.2545 52.7418 17.2342 53.2633 17.1003C53.2701 17.1003 53.2732 17.1003 53.2848 17.1072C53.2549 17.2076 52.9853 18.0123 52.9853 18.0123C52.1852 20.3589 51.8154 21.9549 52.571 22.9002C53.6511 24.2347 55.4392 22.8536 56.8938 21.0293C56.5813 23.2152 57.7145 23.5576 58.5778 23.39C59.5697 23.1218 60.675 22.0621 61.1881 21.5191C61.0231 22.1563 61.0682 23.2961 61.9703 23.4099C62.5887 23.5244 63.0515 23.188 63.587 22.8996C65.5083 21.8535 67.808 18.3674 68.4049 17.3597H67.6221C66.775 18.6426 65.695 20.3241 64.3366 21.1223ZM47.0923 20.8891C46.9703 20.7078 46.9301 20.5104 46.9258 20.2961C46.9023 18.9811 48.3166 16.6271 49.3155 15.3444C49.3177 15.3444 49.3177 15.3444 49.3177 15.3444C49.7362 16.2607 50.6835 16.8496 51.2556 17.0974C50.5451 18.68 48.1088 22.0691 47.0923 20.8891ZM51.6565 16.3904C51.5887 16.4373 50.394 16.0353 50.1632 14.9287C49.9672 13.9762 50.6231 13.2319 51.2577 12.8567C51.5304 12.6421 51.9405 12.5684 52.2413 12.6753C52.5206 12.8635 52.596 13.1987 52.596 13.5601C52.596 13.7819 52.5671 14.0098 52.5409 14.2174C52.5409 14.2174 52.536 14.2579 52.5352 14.2643C52.3361 15.0084 52.0315 15.7394 51.6565 16.3904ZM61.2393 20.467C61.2385 20.467 61.0127 20.6677 61.0127 20.6677C60.6904 20.9564 60.3588 21.2644 59.9583 21.1104C59.8477 21.0699 59.7697 20.9226 59.7509 20.8082C59.7327 19.9836 60.1043 19.2194 60.4643 18.4749L60.5566 18.2806C61.5926 16.5505 62.7968 14.5125 64.5655 13.0977C64.8633 12.8827 65.187 12.7019 65.5283 12.8428C65.6068 12.9163 65.6983 13.0437 65.6983 13.1713C65.6983 13.2114 65.6623 13.3187 65.6416 13.3523C65.1481 14.1506 64.6775 14.9885 64.2201 15.7931C63.3263 17.3826 62.3989 19.0247 61.2393 20.467Z" fill="white"/>
</svg>
