<svg viewBox="0 0 26 25" fill="none" xmlns="http://www.w3.org/2000/svg">
<path d="M4.62109 18.6875H7.65625V16.3438H4.79688C4.30469 16.3438 3.92578 16.2148 3.66016 15.957C3.40234 15.6992 3.27344 15.3086 3.27344 14.7852V3.91016C3.27344 3.38672 3.40234 2.99609 3.66016 2.73828C3.92578 2.48047 4.30469 2.35156 4.79688 2.35156H15.7188C16.2109 2.35156 16.5898 2.48047 16.8555 2.73828C17.1211 2.99609 17.2539 3.38672 17.2539 3.91016V6.30078H19.5977V3.67578C19.5977 2.48047 19.2812 1.57031 18.6484 0.945312C18.0234 0.320313 17.1055 0.0078125 15.8945 0.0078125H4.62109C3.40234 0.0078125 2.48047 0.320313 1.85547 0.945312C1.23047 1.5625 0.917969 2.47266 0.917969 3.67578V15.0195C0.917969 16.2148 1.23047 17.125 1.85547 17.75C2.48047 18.375 3.40234 18.6875 4.62109 18.6875ZM10.2109 24.0195H21.4727C22.6836 24.0195 23.6016 23.707 24.2266 23.082C24.8594 22.457 25.1758 21.5469 25.1758 20.3516V9.00781C25.1758 7.8125 24.8594 6.90234 24.2266 6.27734C23.6016 5.65234 22.6836 5.33984 21.4727 5.33984H10.2109C8.99219 5.33984 8.06641 5.65234 7.43359 6.27734C6.80859 6.89453 6.49609 7.80469 6.49609 9.00781V20.3516C6.49609 21.5469 6.80859 22.457 7.43359 23.082C8.06641 23.707 8.99219 24.0195 10.2109 24.0195ZM10.375 21.6758C9.875 21.6758 9.49219 21.543 9.22656 21.2773C8.96875 21.0195 8.83984 20.6328 8.83984 20.1172V9.24219C8.83984 8.71875 8.96875 8.32812 9.22656 8.07031C9.49219 7.8125 9.875 7.68359 10.375 7.68359H21.2969C21.7891 7.68359 22.168 7.8125 22.4336 8.07031C22.6992 8.32812 22.832 8.71875 22.832 9.24219V20.1172C22.832 20.6328 22.6992 21.0195 22.4336 21.2773C22.168 21.543 21.7891 21.6758 21.2969 21.6758H10.375Z" fill="#C92B27"/>
</svg>
