<svg viewBox="0 0 18 18" fill="none" xmlns="http://www.w3.org/2000/svg">
<path d="M9 17.54C10.166 17.54 11.2646 17.3145 12.2959 16.8633C13.3271 16.418 14.2354 15.8027 15.0205 15.0176C15.8057 14.2324 16.4209 13.3271 16.8662 12.3018C17.3115 11.2705 17.5342 10.1689 17.5342 8.99707C17.5342 7.83105 17.3086 6.73242 16.8574 5.70117C16.4121 4.66992 15.7969 3.76172 15.0117 2.97656C14.2266 2.19141 13.3184 1.57617 12.2871 1.13086C11.2559 0.685547 10.1572 0.462891 8.99121 0.462891C7.8252 0.462891 6.72656 0.685547 5.69531 1.13086C4.66992 1.57617 3.76172 2.19141 2.9707 2.97656C2.18555 3.76172 1.57031 4.66992 1.125 5.70117C0.679688 6.73242 0.457031 7.83105 0.457031 8.99707C0.457031 10.1689 0.679688 11.2705 1.125 12.3018C1.57617 13.3271 2.19434 14.2324 2.97949 15.0176C3.76465 15.8027 4.66992 16.418 5.69531 16.8633C6.72656 17.3145 7.82812 17.54 9 17.54ZM9 15.9756C8.0332 15.9756 7.12793 15.7939 6.28418 15.4307C5.44043 15.0732 4.69922 14.5752 4.06055 13.9365C3.42188 13.2979 2.92383 12.5566 2.56641 11.7129C2.20898 10.8691 2.03027 9.96387 2.03027 8.99707C2.03027 8.03027 2.20898 7.125 2.56641 6.28125C2.92383 5.4375 3.42188 4.69629 4.06055 4.05762C4.69922 3.41895 5.4375 2.9209 6.27539 2.56348C7.11914 2.20605 8.02441 2.02734 8.99121 2.02734C9.95801 2.02734 10.8633 2.20605 11.707 2.56348C12.5508 2.9209 13.292 3.41895 13.9307 4.05762C14.5693 4.69629 15.0674 5.4375 15.4248 6.28125C15.7881 7.125 15.9697 8.03027 15.9697 8.99707C15.9756 9.96387 15.7969 10.8691 15.4336 11.7129C15.0762 12.5566 14.5781 13.2979 13.9395 13.9365C13.3066 14.5752 12.5654 15.0732 11.7158 15.4307C10.8721 15.7939 9.9668 15.9756 9 15.9756ZM6.21387 12.5039C6.4248 12.5039 6.59473 12.4307 6.72363 12.2842L8.99121 10.0166L11.2764 12.2842C11.417 12.4307 11.5869 12.5039 11.7861 12.5039C11.9795 12.5039 12.1465 12.4336 12.2871 12.293C12.4277 12.1523 12.498 11.9854 12.498 11.792C12.498 11.5986 12.4248 11.4287 12.2783 11.2822L10.002 9.00586L12.2871 6.71191C12.4336 6.57715 12.5068 6.41602 12.5068 6.22852C12.5068 6.02344 12.4365 5.85352 12.2959 5.71875C12.1553 5.58398 11.9883 5.5166 11.7949 5.5166C11.6074 5.5166 11.4404 5.58691 11.2939 5.72754L8.99121 8.0127L6.70605 5.73633C6.57715 5.5957 6.41309 5.52539 6.21387 5.52539C6.01465 5.52539 5.84473 5.59277 5.7041 5.72754C5.56934 5.8623 5.50195 6.0293 5.50195 6.22852C5.50195 6.42188 5.5752 6.58594 5.72168 6.7207L7.99805 9.00586L5.72168 11.291C5.5752 11.4258 5.50195 11.5928 5.50195 11.792C5.50195 11.9854 5.56934 12.1523 5.7041 12.293C5.84473 12.4336 6.01465 12.5039 6.21387 12.5039Z" fill="#5D5F61" fill-opacity="0.5"/>
</svg>
