<svg width="32" height="32" viewBox="0 0 32 32" fill="none" xmlns="http://www.w3.org/2000/svg">
<path d="M10.0634 29.0017C22.1389 29.0017 28.7437 18.9972 28.7437 10.3213C28.7437 10.0372 28.7437 9.75431 28.7245 9.47271C30.0094 8.54331 31.1185 7.39255 32 6.07431C30.8019 6.60551 29.5307 6.95371 28.2291 7.10726C29.5998 6.28685 30.6255 4.99631 31.1155 3.4759C29.8268 4.24072 28.4168 4.77967 26.9466 5.06951C25.9567 4.01694 24.6475 3.31996 23.2216 3.08642C21.7957 2.85287 20.3326 3.09579 19.0586 3.77758C17.7847 4.45936 16.771 5.542 16.1743 6.85797C15.5777 8.17394 15.4314 9.64986 15.7581 11.0573C13.1479 10.9264 10.5943 10.2481 8.26327 9.06631C5.9322 7.88457 3.87569 6.22585 2.2272 4.19782C1.38764 5.64315 1.1305 7.35413 1.50813 8.98239C1.88577 10.6106 2.86979 12.0338 4.25984 12.962C3.21498 12.9314 2.19286 12.6495 1.28 12.1402V12.2234C1.28041 13.7392 1.80513 15.2082 2.76516 16.3812C3.72519 17.5543 5.06141 18.3591 6.5472 18.6593C5.58064 18.9229 4.5665 18.9614 3.58272 18.7719C4.00242 20.0763 4.81924 21.217 5.91899 22.0345C7.01873 22.852 8.34644 23.3053 9.71648 23.3313C8.35525 24.4012 6.79642 25.1923 5.12917 25.6593C3.46191 26.1262 1.71895 26.2599 0 26.0525C3.00244 27.9792 6.4959 29.0012 10.0634 28.9965" fill="#1DA1F2"/>
</svg>
