<svg width="32" height="32" viewBox="0 0 32 32" fill="none" xmlns="http://www.w3.org/2000/svg">
<path d="M0 15.3333C0 8.1056 0 4.49067 2.24533 2.24533C4.49067 0 8.10667 0 15.3333 0H16.6667C23.8944 0 27.5093 0 29.7547 2.24533C32 4.49067 32 8.10667 32 15.3333V16.6667C32 23.8944 32 27.5093 29.7547 29.7547C27.5093 32 23.8933 32 16.6667 32H15.3333C8.1056 32 4.49067 32 2.24533 29.7547C0 27.5093 0 23.8933 0 16.6667V15.3333Z" fill="#2787F5"/>
<path fill-rule="evenodd" clip-rule="evenodd" d="M8.66674 10H6.33394C5.66727 10 5.53394 10.3136 5.53394 10.6603C5.53394 11.2779 6.32434 14.3435 9.21713 18.3968C11.1446 21.1659 13.8614 22.6667 16.3329 22.6667C17.8166 22.6667 18.0001 22.3328 18.0001 21.76V19.6672C18.0001 19.0005 18.1409 18.8672 18.6102 18.8672C18.9569 18.8672 19.5489 19.04 20.9345 20.3744C22.5163 21.9573 22.7766 22.6667 23.6662 22.6667H26.0001C26.6667 22.6667 27.0006 22.3328 26.8075 21.6747C26.5974 21.0197 25.8422 20.0683 24.8395 18.9408C24.2955 18.2987 23.4806 17.6064 23.2331 17.2597C22.8865 16.8149 22.9857 16.6176 23.2331 16.2219C23.2331 16.2219 26.0758 12.2176 26.3723 10.8576C26.5217 10.3637 26.3723 10 25.6662 10H23.3334C22.7403 10 22.4662 10.3136 22.3179 10.6603C22.3179 10.6603 21.1318 13.552 19.4507 15.4304C18.9067 15.9744 18.6593 16.1483 18.3627 16.1483C18.2145 16.1483 18.0001 15.9744 18.0001 15.4805V10.8576C18.0001 10.2645 17.8283 10 17.3334 10H13.6662C13.2961 10 13.0731 10.2752 13.0731 10.5365C13.0731 11.0987 13.9137 11.2288 14.0001 12.8107V16.2464C14.0001 17.0005 13.8646 17.1371 13.567 17.1371C12.7766 17.1371 10.8523 14.2315 9.711 10.9077C9.487 10.2613 9.263 10 8.66674 10Z" fill="white"/>
</svg>
