<svg width="304" height="244" viewBox="0 0 304 244" fill="none" xmlns="http://www.w3.org/2000/svg">
<path d="M63.4214 195.435C67.2137 210.536 56.8575 221.12 41.7562 224.912C26.6548 228.705 12.5269 224.269 8.7346 209.168C4.94225 194.067 14.2421 179.276 29.3434 175.484C44.4447 171.692 59.629 180.334 63.4214 195.435Z" fill="#FF833D"/>
<path d="M63.4217 195.435C67.2141 210.536 56.8579 221.12 41.7565 224.912C26.6552 228.705 11.9058 222.749 8.11348 207.648C7.84972 206.597 13.2445 218.965 27.8638 219.874C49.0249 221.19 60.3113 211.41 63.4217 195.435Z" fill="#E36823"/>
<path d="M25.7796 185.578C24.9616 185.447 24.1923 186.004 24.0612 186.822C23.9302 187.64 24.4871 188.409 25.3051 188.541L25.7796 185.578ZM35.1472 184.297C35.7323 183.71 35.7313 182.76 35.1449 182.175C34.5585 181.59 33.6088 181.591 33.0236 182.177L35.1472 184.297ZM61.9666 195.8C63.7514 202.908 62.2053 208.845 58.5022 213.478C54.7602 218.159 48.7225 221.616 41.3908 223.458L42.1215 226.367C49.8912 224.416 56.5823 220.685 60.8456 215.351C65.1479 209.969 66.8837 203.063 64.8762 195.07L61.9666 195.8ZM41.3908 223.458C34.0592 225.299 27.1046 225.105 21.5947 222.746C16.1421 220.413 11.9743 215.91 10.1894 208.803L7.27977 209.533C9.28726 217.527 14.0795 222.793 20.4143 225.504C26.6918 228.191 34.3518 228.318 42.1215 226.367L41.3908 223.458ZM10.1894 208.803C6.60806 194.542 15.3737 180.539 29.7087 176.939L28.978 174.029C13.1104 178.014 3.27644 193.592 7.27977 209.533L10.1894 208.803ZM29.7087 176.939C44.0438 173.339 58.3852 181.539 61.9666 195.8L64.8762 195.07C60.8729 179.128 44.8457 170.044 28.978 174.029L29.7087 176.939ZM25.3051 188.541C27.1936 188.843 31.2746 188.177 35.1472 184.297L33.0236 182.177C29.7505 185.458 26.6091 185.711 25.7796 185.578L25.3051 188.541Z" fill="#1D1D1B"/>
<path d="M93.9373 36.4797L77.8224 59.5923L111.639 101.39L114.268 102.397C125.437 106.672 137.26 108.989 149.217 109.245L153.703 109.342L165.175 94.8396L93.9373 36.4797Z" fill="#6116C0" stroke="#1D1D1B" stroke-width="3" stroke-linejoin="round"/>
<path d="M131.358 53.0418L93.9367 36.4797L127.754 78.2776L165.175 94.8396L131.358 53.0418Z" fill="#9345F7" stroke="#1D1D1B" stroke-width="3" stroke-linejoin="round"/>
<path d="M126.405 83.7891L107.823 104.969" stroke="#1D1D1B" stroke-width="3"/>
<path d="M133.698 135.643L192.357 144.377L222.262 88.4233L133.57 35.1057L103.695 91.0018L133.698 135.643Z" fill="#08679C" stroke="#1D1D1B" stroke-width="3" stroke-linejoin="round"/>
<path d="M163.601 79.6889L222.261 88.4232L192.188 43.6769L133.599 35.0478L163.601 79.6889Z" fill="#08679C" stroke="#1D1D1B" stroke-width="3" stroke-linejoin="round"/>
<path d="M163.604 79.6899L133.699 135.644" stroke="#1D1D1B" stroke-width="3"/>
<path d="M154.311 96.3347L217.864 105.798L228.137 86.5759L132.046 28.8103L121.806 47.9695L154.311 96.3347Z" fill="#08679C" stroke="#1D1D1B" stroke-width="3" stroke-linejoin="round"/>
<path d="M164.583 77.1133L228.136 86.5763L195.554 38.0971L132.078 28.748L164.583 77.1133Z" fill="#44A7DF" stroke="#1D1D1B" stroke-width="3" stroke-linejoin="round"/>
<path d="M165.126 76.1042L154.313 96.3358" stroke="#1D1D1B" stroke-width="3"/>
<path d="M67.569 90.9061L71.8444 84.3981L55.0614 82.5554L65.4845 70.9033L72.0402 56.7105L80.3952 71.3822L84.6706 64.8742L155.337 111.298L138.235 137.33L67.569 90.9061Z" fill="#66984E"/>
<path d="M80.3952 71.3822L84.6706 64.8742L155.337 111.298L138.235 137.33L67.569 90.9061L71.8444 84.3981M80.3952 71.3822L72.0402 56.7105L65.4845 70.9033L55.0614 82.5554L71.8444 84.3981M80.3952 71.3822L71.8444 84.3981" stroke="#1D1D1B" stroke-width="3" stroke-linejoin="round"/>
<path d="M108.852 126.362L123.832 97.044L132.752 106.12L117.771 135.438L108.852 126.362Z" fill="#FFD600" stroke="#1D1D1B" stroke-width="3" stroke-linejoin="round"/>
<circle cx="130" cy="103.617" r="27.5" fill="#FFDB5D" stroke="#1D1D1B" stroke-width="3"/>
<path d="M56.0836 224.71L59.5735 216.518C47.6785 205.614 46.7546 179.615 48.0003 163.617C50.8102 127.53 72.5002 124.117 77.5 96.1169C99.4486 126.216 184.857 111.617 217.5 92.6169C211 108.617 235.884 121.8 241 158.117C242.764 170.636 238.188 194.189 233.254 205.935C233.624 210.042 243.43 216.617 241 224.117C239.891 227.54 215.272 226.117 212.5 226.117C179 252.117 137.5 240.117 120.5 228.117C110 236.2 82.4922 232.315 77.5 226.617L62.1852 231.439C58.1125 232.721 54.4101 228.638 56.0836 224.71Z" fill="#D92521"/>
<g clip-path="url(#clip0_711_2427)">
<path d="M208.316 135.692C206.76 135.312 205.184 135.821 203.126 137.441C200.882 139 200.192 139.64 198.471 138.96C197.745 138.611 197.169 137.887 196.723 136.799C196.051 135.022 195.918 133.209 196.29 131.02C196.514 129.856 196.768 128.839 197.505 128.238C198.089 127.82 198.373 128.476 198.337 128.594C198.245 128.612 198.108 128.687 198.052 128.816C198.015 128.934 197.904 129.287 198.077 129.647C198.36 130.208 198.795 129.936 198.853 129.579C198.902 129.161 198.871 128.365 198.261 127.855C198.026 127.659 197.754 127.581 197.465 127.61C196.6 127.793 196.062 128.479 195.596 129.158C194.685 130.83 194.323 132.851 194.632 134.892C194.824 136.12 195.344 137.85 196.689 139.095C197.67 139.954 198.862 140.273 199.915 139.922C200.633 139.657 201.412 139.131 201.945 138.806C202.491 138.505 204.903 136.235 207.076 137.967C207.076 137.967 206.99 137.072 207.792 136.728C208.437 136.374 209.56 136.244 210.58 136.528C210.119 136.197 209.104 135.877 208.316 135.692Z" fill="white"/>
<path d="M199.606 130.303C198.777 130.043 198.067 131.247 197.914 132.957C197.757 134.474 198.208 136.08 198.999 136.686C200.081 137.359 200.555 135.863 200.682 135.077C200.688 135.042 200.693 135.006 200.699 134.97C200.813 134.485 200.781 133.917 200.762 133.374C200.762 133.374 200.751 132.893 200.757 132.857C200.874 132.792 201.016 132.682 201.178 132.56C201.178 132.56 201.235 134.188 201.664 134.83C201.793 135.019 202.2 135.804 202.964 135.806C203.909 135.676 204.143 134.669 204.36 133.77C204.36 133.77 204.403 133.616 204.414 133.545C204.436 133.63 204.458 133.716 204.458 133.716C204.793 134.833 205.242 134.911 205.473 134.914C206.223 134.892 206.343 133.492 206.343 133.492C206.502 133.828 206.595 134.134 207.025 134.223C207.38 134.223 207.538 133.908 207.67 133.64C208.082 132.633 208.118 131.312 208.106 130.181C207.989 130.245 207.93 130.278 207.794 130.353C207.794 130.353 207.774 132.12 207.457 132.652C207.457 132.652 207.387 132.756 207.32 132.727C207.221 132.684 207.158 132.524 207.155 132.427C207.155 132.427 206.818 127.377 206.804 127.352C206.453 127.545 206.264 127.617 205.912 127.81L205.925 128.063C205.925 128.063 205.878 128.024 205.858 128.035C204.776 127.362 204.282 129.422 204.258 131.549C204.25 132.367 204.152 133.299 203.945 134.031C203.945 134.031 203.64 135.141 202.99 134.653C202.722 134.443 202.569 134.072 202.504 133.815C202.196 132.423 202.224 131.042 202.578 130.067C202.677 129.785 202.878 129.641 203.03 129.688C203.169 129.709 203.299 129.898 203.309 130.055C203.139 130.116 203.03 130.241 203.001 130.419C202.943 130.777 203.002 131.069 203.198 131.287C203.854 131.739 203.888 130.322 203.484 129.634C203.327 129.395 203.092 129.199 202.867 129.16C202.523 129.089 202.172 129.282 202.012 129.5C201.755 129.771 201.533 130.479 201.433 130.989C201.329 131.632 200.957 132.389 200.707 132.396C200.642 132.14 200.463 130.612 199.606 130.303ZM205.242 130.52C205.267 130.149 205.329 129.106 205.383 128.881C205.56 128.232 205.826 128.345 205.927 128.485C206.004 129.548 206.091 130.769 206.128 131.854L206.129 132.179C206.126 132.636 206.115 133.032 205.899 133.379C205.86 133.4 205.782 133.443 205.716 133.415C205.63 133.397 205.555 133.308 205.514 133.233C205.396 132.972 205.177 132.019 205.242 130.52ZM200.378 133C200.378 133 200.392 133.025 200.372 133.036L200.38 133.975C200.338 134.453 200.299 135.028 200.01 135.382C199.926 135.46 199.77 135.546 199.61 135.439C199.303 135.25 199.202 134.883 199.123 134.601C199.11 134.576 199.115 134.54 199.088 134.49C198.94 133.759 198.958 133.098 198.99 132.463L199.009 132.452C199.459 132.855 199.962 132.936 200.298 132.947C200.37 132.939 200.364 132.975 200.378 133ZM200.249 131.933L200.334 132.504C200.328 132.54 200.276 132.536 200.223 132.533C200.17 132.529 200.17 132.529 200.131 132.551C199.814 132.53 199.515 132.402 199.319 132.184C198.98 131.753 199.128 131.281 199.196 131.081C199.277 130.906 199.473 130.799 199.658 130.859C199.805 130.941 199.907 131.08 199.989 131.23C200.132 131.444 200.198 131.701 200.249 131.933Z" fill="white"/>
<path d="M212.58 127.916C212.378 127.734 212.095 127.727 211.894 127.87C211.26 128.381 210.989 129.506 211.228 130.773C211.335 131.43 211.484 131.933 211.81 132.664C211.847 132.222 212.007 131.45 212.336 130.847C212.336 130.847 212.043 130.129 212.032 129.323C212.031 128.998 212.051 128.434 212.405 128.337C212.713 128.297 213.143 129.264 213.286 130.356C213.404 131.17 213.384 132.059 213.241 132.723C213.109 133.316 212.863 134.069 212.202 133.977C211.799 133.939 211.416 133.564 211.106 132.954C210.336 131.231 210.152 129.511 210.099 127.426C210.12 125.431 210.23 123.321 210.977 121.674C211.121 121.335 211.334 121.121 211.589 121.077C211.589 121.077 210.929 122.742 211.242 124.651C211.333 125.186 211.44 125.843 211.896 126.21C212.131 126.406 212.326 126.299 212.455 126.163C213.006 125.502 212.98 124.345 212.898 123.317C212.783 122.6 212.635 121.868 212.291 121.244C212.25 121.169 212.195 121.069 212.154 120.995C212.335 120.537 213.202 120.451 213.202 120.451C213.831 120.3 215.444 120.551 215.903 120.461C215.919 120.029 215.937 119.369 215.976 119.023C215.851 119.026 215.778 119.034 215.64 119.012C215.106 119.013 214.586 119.039 214.033 119.05C212.816 119.102 212.228 119.881 211.975 120.345C211.874 120.531 211.778 120.681 211.778 120.681C211.279 120.467 210.846 120.836 210.577 121.179C209.619 122.486 209.101 124.365 208.945 127.085C208.874 129.173 209.016 130.819 209.418 132.289C209.664 133.292 210.314 134.658 211.325 135.11C212.184 135.516 212.765 135.001 213.096 134.494C213.754 133.286 213.869 131.369 213.439 129.524C213.303 129.046 213.049 128.308 212.58 127.916ZM212.073 121.494C213.021 123.542 212.531 125.47 212.307 125.756C212.173 125.928 211.819 126.025 211.625 125.025C211.398 123.687 211.518 122.288 211.944 121.305C212.004 121.37 212.032 121.419 212.073 121.494Z" fill="white"/>
<path d="M218.313 116.339C218.045 117.332 217.676 118.185 216.93 118.725C216.922 119.218 216.913 119.71 216.938 120.217C218.105 119.705 218.631 117.888 218.739 116.56C218.873 115.185 218.62 113.893 218.62 113.893C218.639 113.883 218.634 115.121 218.313 116.339Z" fill="white"/>
<path d="M208.274 126.511C207.942 126.694 207.766 126.79 207.434 126.973C207.459 127.479 207.458 127.708 207.502 128.204C207.833 128.022 208.009 127.925 208.341 127.742C208.311 127.271 208.298 127.018 208.274 126.511Z" fill="white"/>
<path d="M221.463 126.965C221.42 127.119 221.289 127.158 221.218 126.937C221.074 126.398 220.966 125.092 220.966 125.092C220.746 123.489 220.662 122.69 220.428 121.062C220.131 121.356 219.983 121.502 219.687 121.795C219.703 121.917 219.729 122.195 219.729 122.195C219.648 122.141 219.449 122.056 219.363 122.038C219.08 122.032 218.863 122.378 218.772 122.721C218.338 124.196 218.52 126.145 218.613 127.654C218.613 127.654 218.769 129.325 218.526 129.621C218.313 129.836 218.085 129.376 218.05 129.265C217.736 128.462 217.572 127.609 217.415 126.817C217.609 126.06 217.793 125.146 217.877 124.189C218.087 122.122 218.045 119.966 217.97 119.552C217.97 119.552 217.875 119.702 217.746 119.838C217.852 121.926 217.564 125.239 217.277 125.918C217.093 125.075 216.595 120.796 216.756 118.269C216.765 118.101 216.777 118.029 216.8 117.887C216.845 117.276 216.891 116.666 217.043 116.387C217.062 116.376 217.088 116.33 217.148 116.394C217.319 116.658 217.359 116.961 217.398 117.265C217.422 117.447 217.444 117.532 217.481 117.739C217.481 117.739 217.622 117.532 217.698 117.393C217.614 116.918 217.537 116.408 217.231 115.991C217.129 115.851 217.01 115.819 216.893 115.884C216.556 116.102 216.412 116.766 216.292 117.288C216.292 117.288 216.292 117.288 216.287 117.323C215.757 120.704 215.962 124.267 216.546 127.686C216.523 127.828 216.254 128.171 216.168 128.154C216.106 127.765 216.015 127.229 215.832 126.712C215.783 126.576 215.701 126.427 215.632 126.302C215.481 126.027 215.285 125.81 215.008 125.767C214.719 125.796 214.5 126.046 214.374 126.278C213.831 127.325 213.832 128.853 213.9 130.084C213.975 130.823 214.079 131.612 214.418 132.368C214.695 132.964 214.985 133.26 215.335 133.295C215.671 133.305 215.893 132.923 215.975 132.748C216.482 131.591 216.401 130.01 216.257 128.593C216.276 128.582 216.502 128.392 216.662 128.174C216.67 128.235 216.792 128.688 216.792 128.688C217.126 130.034 217.428 130.908 217.955 131.171C218.68 131.52 218.938 130.37 218.949 129.096C219.422 130.234 219.906 130.098 220.156 129.766C220.417 129.362 220.503 128.502 220.533 128.095C220.653 128.451 220.975 128.99 221.293 128.783C221.527 128.654 221.593 128.357 221.678 128.05C222.016 126.954 221.817 124.559 221.735 123.856C221.632 123.945 221.587 124.002 221.484 124.092C221.583 125.013 221.695 126.187 221.463 126.965ZM215.515 131.635C215.435 131.582 215.36 131.492 215.305 131.392C214.962 130.768 214.83 129.28 214.849 128.391C215.239 128.73 215.747 128.775 216.003 128.732C216.15 129.692 216.194 131.945 215.515 131.635ZM215.934 128.283C215.928 128.318 215.391 128.451 215.024 127.97C214.699 127.563 214.733 127.024 214.857 126.695C214.886 126.517 215.015 126.381 215.146 126.342C215.285 126.363 215.406 126.491 215.502 126.666C215.557 126.766 215.606 126.901 215.661 127.001L215.675 127.026C215.803 127.444 215.892 127.883 215.934 128.283ZM220.278 127.584L220.268 127.752C220.247 127.991 220.207 128.241 220.043 128.267C220.004 128.288 219.924 128.235 219.896 128.185C219.676 127.785 219.593 127.31 219.51 126.836C219.502 126.775 219.502 126.775 219.494 126.714C219.377 125.576 219.221 124.23 219.418 123.016C219.466 122.827 219.515 122.638 219.665 122.588C219.718 122.591 219.765 122.63 219.806 122.705C219.82 122.73 219.828 122.791 219.841 122.816C219.893 123.373 219.965 123.919 220.042 124.429C220.138 125.482 220.287 126.538 220.278 127.584Z" fill="white"/>
</g>
<path d="M56.0836 224.71L59.5735 216.518C47.6785 205.614 46.7546 179.615 48.0003 163.617C51.8277 184.617 55.6168 192.664 69.6227 205.935C84.5781 220.105 116.952 228.85 105 212.117C104.487 211.399 105.719 212.574 108.511 214.631C119.333 222.608 153.597 243.863 200.5 219.617C209.95 214.732 217.492 207.268 223.431 198.905C233.103 185.282 238.521 169.27 241 158.117C242.764 170.636 238.188 194.189 233.254 205.935C233.624 210.042 243.43 216.617 241 224.117C239.891 227.54 215.272 226.117 212.5 226.117C179 252.117 137.5 240.117 120.5 228.117C110 236.2 82.4922 232.315 77.5 226.617L62.1852 231.439C58.1125 232.721 54.4101 228.638 56.0836 224.71Z" fill="#9E221F"/>
<path d="M100.5 130.117C88.319 134.925 75.8333 125.284 69 118.617C69.3333 116.117 70.2 111.017 71 110.617C71.8 110.217 86 110.45 93 110.617L136 115.117H169L192.5 99.6169L217 103.117L221.5 116.117C212.5 108.617 209 116.617 192.5 125.117C179.3 131.917 153.667 124.95 142.5 120.617C138.9 119.417 119.5 122.617 100.5 130.117Z" fill="#9E221F"/>
<path d="M77 97.1169L78.212 96.2331C77.8579 95.7477 77.2484 95.5203 76.6629 95.6553C76.0774 95.7904 75.629 96.2618 75.5234 96.8533L77 97.1169ZM59.5735 216.518L60.9535 217.106C61.2028 216.521 61.056 215.842 60.5871 215.412L59.5735 216.518ZM77.5 226.617L78.6283 225.629C78.5241 225.51 78.4018 225.408 78.2658 225.327L77.5 226.617ZM241 224.117L242.427 224.579L242.427 224.579L241 224.117ZM233.254 205.935L231.871 205.354C231.776 205.58 231.738 205.825 231.76 206.069L233.254 205.935ZM217.5 92.6169L218.89 93.1815C219.131 92.587 218.968 91.9047 218.483 91.4841C217.999 91.0635 217.3 90.9977 216.745 91.3206L217.5 92.6169ZM241 158.117L239.515 158.326L241 158.117ZM120.5 228.117L121.365 226.891L120.5 228.117ZM48.0003 163.617L46.5048 163.5L48.0003 163.617ZM108.302 211.373C107.891 210.653 106.975 210.404 106.256 210.815C105.537 211.226 105.287 212.142 105.698 212.861L108.302 211.373ZM70.7747 218.656C70.2441 218.02 69.2982 217.934 68.662 218.465C68.0258 218.996 67.9402 219.941 68.4708 220.578L70.7747 218.656ZM224.995 198.242C225.064 197.416 224.45 196.691 223.625 196.622C222.799 196.553 222.074 197.167 222.005 197.992L224.995 198.242ZM56.0836 224.71L54.7036 224.122L56.0836 224.71ZM62.1852 231.439L61.7347 230.008L62.1852 231.439ZM58.1935 215.93L54.7036 224.122L57.4636 225.298L60.9535 217.106L58.1935 215.93ZM62.6357 232.87L77.9505 228.048L77.0495 225.186L61.7347 230.008L62.6357 232.87ZM212.5 227.617C213.165 227.617 215.157 227.704 217.923 227.785C220.646 227.865 224.041 227.937 227.39 227.9C230.727 227.864 234.071 227.721 236.675 227.359C237.969 227.18 239.155 226.937 240.089 226.593C240.555 226.422 241.02 226.203 241.415 225.913C241.808 225.624 242.228 225.194 242.427 224.579L239.573 223.655C239.634 223.467 239.731 223.428 239.64 223.494C239.552 223.559 239.371 223.661 239.053 223.778C238.417 224.012 237.477 224.219 236.263 224.388C233.852 224.722 230.661 224.865 227.358 224.901C224.067 224.936 220.718 224.866 218.011 224.786C215.346 224.708 213.221 224.617 212.5 224.617V227.617ZM242.427 224.579C243.886 220.076 241.608 215.999 239.401 212.886C238.834 212.087 238.248 211.319 237.699 210.603C237.143 209.878 236.632 209.213 236.184 208.584C235.236 207.252 234.8 206.374 234.748 205.8L231.76 206.069C231.893 207.549 232.822 209.034 233.74 210.324C234.226 211.006 234.773 211.717 235.318 212.428C235.868 213.146 236.423 213.873 236.953 214.621C239.134 217.697 240.544 220.658 239.573 223.655L242.427 224.579ZM216.745 91.3206C200.668 100.678 171.261 109.286 143.107 111.785C129.045 113.033 115.389 112.748 103.934 110.316C92.4518 107.879 83.3876 103.331 78.212 96.2331L75.788 98.0007C81.5867 105.953 91.4918 110.742 103.311 113.251C115.156 115.766 129.133 116.037 143.372 114.773C171.82 112.248 201.689 103.555 218.255 93.9133L216.745 91.3206ZM234.637 206.516C237.163 200.504 239.565 191.56 241.117 182.571C242.665 173.603 243.4 164.401 242.485 157.908L239.515 158.326C240.364 164.352 239.693 173.186 238.161 182.061C236.632 190.915 234.28 199.62 231.871 205.354L234.637 206.516ZM242.485 157.908C239.881 139.42 232.233 126.819 226.172 116.962C223.119 111.998 220.553 107.857 219.117 103.974C217.708 100.163 217.444 96.7407 218.89 93.1815L216.11 92.0524C214.306 96.4932 214.715 100.719 216.303 105.014C217.865 109.238 220.621 113.663 223.616 118.534C229.651 128.348 237.003 140.497 239.515 158.326L242.485 157.908ZM76.3717 227.605C77.1735 228.521 78.3377 229.308 79.6705 229.986C81.0208 230.673 82.6333 231.291 84.4151 231.828C87.979 232.903 92.3224 233.687 96.8204 234.031C101.318 234.374 106.021 234.281 110.298 233.574C114.553 232.87 118.515 231.538 121.415 229.306L119.585 226.928C117.235 228.737 113.821 229.951 109.809 230.614C105.82 231.274 101.365 231.369 97.0488 231.039C92.7333 230.71 88.6075 229.959 85.2815 228.956C83.6183 228.454 82.1807 227.897 81.0302 227.312C79.862 226.718 79.0746 226.138 78.6283 225.629L76.3717 227.605ZM119.635 229.342C128.365 235.505 143.252 241.593 160.2 242.863C177.182 244.135 196.321 240.573 213.42 227.302L211.58 224.932C195.179 237.661 176.818 241.099 160.425 239.871C143.998 238.641 129.635 232.729 121.365 226.891L119.635 229.342ZM75.5234 96.8533C73.0956 110.45 66.7908 117.768 60.4664 126.451C54.0978 135.196 47.9389 145.083 46.5048 163.5L49.4958 163.733C50.8716 146.063 56.7127 136.701 62.8915 128.217C69.1145 119.673 75.9047 111.784 78.4766 97.3806L75.5234 96.8533ZM46.5048 163.5C45.8762 171.574 45.7914 182.198 47.3776 192.213C48.9541 202.166 52.2268 211.818 58.5599 217.624L60.5871 215.412C55.0253 210.314 51.8884 201.515 50.3407 191.743C48.8026 182.033 48.8787 171.658 49.4958 163.733L46.5048 163.5ZM121.365 226.891C117.097 223.879 112.231 218.248 108.302 211.373L105.698 212.861C109.769 219.986 114.903 226.002 119.635 229.342L121.365 226.891ZM78.2658 225.327C76.3212 224.173 73.5 221.924 70.7747 218.656L68.4708 220.578C71.3948 224.084 74.4715 226.563 76.7342 227.907L78.2658 225.327ZM213.606 227.131C219.34 220.875 223.768 212.959 224.995 198.242L222.005 197.992C220.832 212.075 216.66 219.359 211.394 225.103L213.606 227.131ZM54.7036 224.122C52.5281 229.229 57.3412 234.537 62.6357 232.87L61.7347 230.008C58.8838 230.906 56.2921 228.048 57.4636 225.298L54.7036 224.122Z" fill="#1D1D1B"/>
<path d="M222.316 111.254C229.291 107.924 231.697 90.0537 218.661 84.0247C218.661 84.0247 209.943 80.8572 204.181 84.0247C172.631 101.368 162.092 107.737 149.333 109.693C135.034 111.885 110.5 112.179 97.0001 106.617C90.2125 103.82 82 100.117 77.5002 98.1169C72.4699 95.8812 62.4116 105.245 70.2223 112.179C75.1995 116.598 84.0895 124.819 119.549 119.293C142.782 116.781 145.784 124.819 165.96 127.331C185.224 129.73 189.457 116.507 200.823 106.652C205.857 102.287 213.193 103.453 218.257 107.783L222.316 111.254Z" fill="#FF514D" stroke="#1D1D1B" stroke-width="3" stroke-linejoin="round"/>
<path d="M143.672 203.794C144.31 203.794 144.852 203.554 145.299 203.076C145.746 202.597 145.969 202.055 145.969 201.449C145.969 200.843 145.746 200.316 145.299 199.87C144.852 199.391 144.31 199.152 143.672 199.152C143.034 199.152 142.476 199.391 141.997 199.87C141.551 200.316 141.327 200.843 141.327 201.449C141.327 202.055 141.551 202.597 141.997 203.076C142.476 203.554 143.034 203.794 143.672 203.794ZM156.448 171.063C163.052 167.044 166.354 161.876 166.354 155.559C166.354 150.455 163.977 146.452 159.224 143.549C157.725 142.655 156.05 141.922 154.199 141.347C158.091 144.92 160.037 149.849 160.037 156.134C160.037 162.29 158.841 167.267 156.448 171.063ZM151.041 201.449C151.041 202.438 150.834 203.379 150.419 204.272C150.036 205.165 149.51 205.947 148.84 206.617C147.405 208.052 145.682 208.77 143.672 208.77C141.662 208.77 139.94 208.052 138.504 206.617C137.069 205.181 136.351 203.443 136.351 201.401C136.351 198.243 137.85 196.026 140.849 194.75C141.742 194.367 142.683 194.176 143.672 194.176C145.65 194.176 147.373 194.877 148.84 196.281C150.308 197.685 151.041 199.407 151.041 201.449ZM140.083 189.582L139.988 187.907C139.988 185.195 140.498 182.962 141.519 181.208C143.05 178.528 144.884 176.215 147.022 174.269C148.043 173.28 149.031 172.275 149.989 171.255C150.977 170.234 151.855 169.038 152.62 167.666C154.247 164.667 155.061 160.823 155.061 156.134C155.061 151.667 153.577 147.983 150.611 145.08C147.771 142.273 144.23 140.869 139.988 140.869C137.085 140.869 134.437 142.017 132.044 144.314C129.684 146.643 128.503 149.147 128.503 151.827C128.503 153.741 128.79 155.161 129.365 156.086C129.971 156.979 130.401 157.537 130.656 157.76C130.944 157.952 131.103 158.064 131.135 158.095C132.188 158.797 132.714 159.547 132.714 160.344C132.714 161.11 132.475 161.748 131.996 162.259C131.55 162.769 131.087 163.024 130.609 163.024C129.811 163.024 129.285 162.928 129.03 162.737C128.806 162.546 128.423 162.274 127.881 161.924C127.339 161.541 126.749 160.935 126.111 160.105C124.388 157.872 123.527 155.24 123.527 152.21C123.527 149.179 124.181 146.611 125.489 144.506C126.828 142.4 128.535 140.646 130.609 139.242C134.788 136.467 139.573 135.079 144.964 135.079C152.716 135.079 159.048 136.977 163.961 140.773C168.874 144.601 171.33 149.53 171.33 155.559C171.33 164.524 166.338 171.622 156.353 176.853C154.917 177.587 153.545 178.273 152.238 178.911C150.962 179.549 149.861 180.139 148.936 180.681C148.011 181.224 147.261 181.814 146.687 182.452C145.602 183.664 145.06 185.514 145.06 188.003V189.295C145.06 189.933 144.837 190.507 144.39 191.017C143.975 191.496 143.417 191.751 142.715 191.783C142.045 191.815 141.455 191.623 140.945 191.209C140.434 190.762 140.147 190.22 140.083 189.582Z" fill="#1D1D1B"/>
<path d="M275 151.617L279.926 168.359C281.08 172.281 284.151 175.346 288.076 176.491L302 180.555L287.996 184.643C284.115 185.775 281.065 188.786 279.883 192.652L275 208.617L270.117 192.652C268.935 188.786 265.885 185.775 262.004 184.643L248 180.555L261.924 176.491C265.849 175.346 268.92 172.281 270.074 168.359L275 151.617Z" fill="#FFDB5D" stroke="black" stroke-width="3" stroke-linejoin="round"/>
<path d="M22 108.617L25.2426 120.21C26.3497 124.168 29.4052 127.284 33.3406 128.469L42 131.075L33.2369 133.713C29.3582 134.88 26.3302 137.926 25.185 141.811L22 152.617L18.815 141.811C17.6698 137.926 14.6418 134.88 10.7631 133.713L2 131.075L10.6594 128.469C14.5948 127.284 17.6503 124.168 18.7574 120.21L22 108.617Z" fill="#FFDB5D" stroke="black" stroke-width="3" stroke-linejoin="round"/>
<path d="M256 94.6169L258.354 102.528C258.923 104.438 260.402 105.94 262.302 106.539L269 108.649L262.382 110.734C260.438 111.347 258.938 112.904 258.399 114.87L256 123.617L253.601 114.87C253.062 112.904 251.562 111.347 249.618 110.734L243 108.649L249.698 106.539C251.598 105.94 253.077 104.438 253.646 102.528L256 94.6169Z" fill="#FFDB5D" stroke="black" stroke-width="3" stroke-linejoin="round"/>
<path d="M195.502 64.2846C209.311 75.5304 219.902 72.3204 225.483 67.4647C228.241 65.0648 228.507 61.2589 227.564 57.8386L225.855 51.6375C222.644 55.809 214.274 62.7113 206.138 61.3608C197.963 60.004 192.249 52.6762 191.195 47.6601C187.997 50.221 192.734 59.8102 195.502 64.2846Z" fill="#66984E" stroke="#1D1D1B" stroke-width="3" stroke-linejoin="round"/>
<path d="M222.369 44.4561C210.181 31.8145 189.687 33.7085 181.976 42.0021L194.484 58.9909C198.096 55.7136 207.26 49.5181 215.124 50.7039C223.869 52.0225 227.994 57.3859 228.263 62.737C228.774 57.9594 227.231 49.4995 222.369 44.4561Z" fill="#B1E372" stroke="#1D1D1B" stroke-width="3" stroke-linejoin="round"/>
<path d="M162.451 47.9889C147.691 47.1701 142.136 34.5629 141.838 24.4065C141.713 20.1718 144.982 17.1198 148.947 16.3259L157.281 14.657C156.605 19.7007 155.777 30.3728 160.504 37.1318C165.253 43.9226 174.328 45.9187 179.308 44.7078C178.376 48.697 167.682 48.5573 162.451 47.9889Z" fill="#66984E" stroke="#1D1D1B" stroke-width="3" stroke-linejoin="round"/>
<path d="M166.279 14.3973C182.94 19.9438 190.159 38.9789 186.001 49.5129L168 49.5129C169.4 44.8408 169.765 32.9821 165.304 26.3977C160.344 19.0757 151.897 14.5253 146.953 16.5899C151.044 14.0691 159.632 12.1846 166.279 14.3973Z" fill="#B1E372" stroke="#1D1D1B" stroke-width="3" stroke-linejoin="round"/>
<path d="M133.5 69.6169C140.5 60.1169 167.841 58.8727 176.542 64.0401L166.528 47.8939C152.506 43.8344 133.466 44.5149 129.857 52.4741C127.24 58.2457 131 66.6169 133.5 69.6169Z" fill="#B1E372" stroke="#1D1D1B" stroke-width="3" stroke-linejoin="round"/>
<path d="M186.024 100.887C194.478 83.1956 179.5 68.6168 174 59.6168L180.5 47.617L194.5 59.6168C200 69.1169 210.526 82.5817 203.512 98.4585L186.024 100.887Z" fill="#B1E372" stroke="#1D1D1B" stroke-width="3" stroke-linejoin="round"/>
<path d="M195 60.6169L192.023 52.9656C190.287 48.5037 186.391 45.2384 181.694 44.3088L168.825 41.7617C168.825 41.7617 167.216 44.7108 166.529 47.8942L175.984 63.251C184 58.6169 191 60.1169 195 60.6169Z" fill="#B1E372" stroke="#1D1D1B" stroke-width="3" stroke-linejoin="round"/>
<defs>
<clipPath id="clip0_711_2427">
<rect width="31.6734" height="15.93" fill="white" transform="translate(190.887 129.146) rotate(-28.8106)"/>
</clipPath>
</defs>
</svg>
