<svg width="295" height="251" viewBox="0 0 295 251" fill="none" xmlns="http://www.w3.org/2000/svg">
<g clip-path="url(#clip0_711_2483)">
<path d="M1.5 167.45V74.5401L3.13 65.9401L10.3 55.8901L17.8 50.8001L30.96 46.3601L166.76 54.2701L177.17 54.6501L187.93 58.0601L194.44 62.1801L200.77 68.7801L204.66 75.4701L206.94 83.1301L207.73 179.38L138.5 202.59L1.5 167.45Z" fill="#E3302B"/>
<path d="M126.1 199.18V211.21L152.46 221.2L173.12 227.24L197 232.54L225.04 236.4L251.19 237.26L270.38 235.48L288.57 230.54L293.54 227.5V217.68L286.85 211.2L274.59 204.81L256 198.11L229.84 190.74L205.08 184.85L197.83 182.2L138.38 202.21L126.1 199.18Z" fill="#E3302B"/>
<path d="M66.6799 184.05V249.23L94.1799 248.49V191.05L66.6799 184.05Z" fill="#E3302B"/>
<path d="M94.1801 203.39L66.8601 194.82V184.05H94.1801V203.39Z" fill="#9E221F"/>
<path d="M206.94 83.1301L207.74 178.8L138.38 202.21L138.6 92.8401C138.63 87.0501 141.14 76.5001 141.14 76.5001L147.53 66.2201L157.75 57.5801L167.01 55.2001L178.56 55.0801L189.46 58.8201L198.38 65.7901L204.31 74.5301L206.17 79.2401L206.94 83.1301Z" fill="#9E221F"/>
<path d="M126.1 201.64C135.68 207.49 161.22 214.17 161.22 214.17L198.37 222.94C198.37 222.94 259.66 231.55 242.34 209.73C208.06 166.55 127.51 180.24 127.51 180.24L126.1 201.64Z" fill="#9E221F"/>
<path d="M196.1 182.8C204.7 185.03 292.8 202.59 292.8 219.03" stroke="#1D1D1B" stroke-width="3" stroke-miterlimit="10" stroke-linecap="round" stroke-linejoin="round"/>
<path d="M207.02 82.49L207.73 178.8L138.5 202.59V93.57" stroke="#1D1D1B" stroke-width="3" stroke-miterlimit="10" stroke-linejoin="round"/>
<path d="M292.8 228.6V219.02C258.52 239.04 171.52 221.75 126.09 201.63V211.21C179.38 234.53 257.2 246.77 292.8 228.6Z" stroke="#1D1D1B" stroke-width="3" stroke-miterlimit="10" stroke-linecap="round" stroke-linejoin="round"/>
<path d="M269.6 175.3L122.05 191.15L106.36 99.08L264.45 81.26L269.6 175.3Z" fill="#FFF5EE"/>
<path d="M191.35 89.5C185.55 90.15 173.97 96.2 177.41 103.2C168.64 102.34 138.38 99.36 138.38 99.36L138.5 94.57L191.35 89.5Z" fill="#FFDFCA"/>
<path d="M158.9 143.06C164.13 146.4 186.57 160.17 189.23 160.03C191.89 159.89 262.89 89.4999 264.65 86.0199C266.41 82.5399 262.55 82.1799 262.55 82.1799L203.92 139.97L169.57 143.77L137.15 125.62L158.9 143.06Z" fill="#FFDFCA"/>
<path d="M269.6 175.3L122.05 191.15L106.36 99.08L264.45 81.26L269.6 175.3Z" stroke="#1D1D1B" stroke-width="2.8541" stroke-miterlimit="10" stroke-linecap="round" stroke-linejoin="round"/>
<path d="M264.45 81.26L199.91 146.81L105.41 99.24" stroke="#1D1D1B" stroke-width="2.8541" stroke-miterlimit="10" stroke-linecap="round" stroke-linejoin="round"/>
<path d="M194.08 203.04C199.71 167.71 193.54 141.5 197.33 135.13C201.12 128.76 201.72 130.18 203.5 123.98C205.28 117.79 206.07 94.2601 190.5 96.9101C174.93 99.5601 182.84 122.05 187.05 125.66C191.25 129.27 199.08 135 199.08 135C199.08 135 213.59 183.18 222.82 197.82" stroke="#17560A" stroke-width="3.165" stroke-miterlimit="10" stroke-linecap="round"/>
<path d="M186.89 123.42C188.89 122.54 190.66 118.74 195.02 118C199.05 117.31 201.47 121.18 204.02 121.69C206.57 122.2 210.87 121.6 213.04 123.05C215.21 124.5 215.67 128.81 216.4 129.95C217.13 131.09 218.85 131.74 219.33 134.52C220.06 138.84 218.34 140.86 218.34 142.68C218.34 144.5 221.05 150.93 217.4 155.19C213.75 159.45 207.57 158.76 204.24 159.96C200.91 161.16 196.53 165.63 192.76 165.08C188.98 164.54 187.96 159.88 184.7 156.95C181.44 154.02 177.56 151.52 176.67 147.23C175.78 142.94 177.74 140.87 178.25 138.02C178.76 135.16 175.91 131.06 178.71 127.65C181.5 124.25 184.82 124.32 186.89 123.42Z" fill="#E3302B"/>
<path d="M186.89 123.42C188.89 122.54 190.66 118.74 195.02 118C199.05 117.31 201.47 121.18 204.02 121.69C206.57 122.2 210.87 121.6 213.04 123.05C215.21 124.5 215.67 128.81 216.4 129.95C217.13 131.09 218.85 131.74 219.33 134.52C220.06 138.84 218.34 140.86 218.34 142.68C218.34 144.5 221.05 150.93 217.4 155.19C213.75 159.45 207.57 158.76 204.24 159.96C200.91 161.16 196.53 165.63 192.76 165.08C188.98 164.54 187.96 159.88 184.7 156.95C181.44 154.02 177.56 151.52 176.67 147.23C175.78 142.94 177.74 140.87 178.25 138.02C178.76 135.16 175.91 131.06 178.71 127.65C181.5 124.25 184.82 124.32 186.89 123.42Z" stroke="#1D1D1B" stroke-width="1.0135" stroke-miterlimit="10"/>
<path d="M195.47 124.22C186.37 125.77 180.29 134.64 181.89 144.03C183.49 153.42 192.17 159.77 201.27 158.22C210.37 156.67 216.46 147.8 214.86 138.41C213.26 129.02 204.58 122.67 195.47 124.22ZM200.9 156.07C192.95 157.42 185.37 151.88 183.97 143.67C182.57 135.47 187.89 127.72 195.84 126.37C203.79 125.02 211.37 130.56 212.77 138.77C214.17 146.97 208.85 154.71 200.9 156.07Z" fill="white"/>
<path d="M201.26 158.223C210.363 156.672 216.447 147.806 214.848 138.42C213.25 129.034 204.574 122.682 195.471 124.232C186.368 125.783 180.284 134.649 181.883 144.035C183.482 153.421 192.157 159.773 201.26 158.223Z" stroke="#1D1D1B" stroke-width="1.4036" stroke-miterlimit="10" stroke-linejoin="round"/>
<path d="M200.896 156.083C208.85 154.729 214.166 146.979 212.768 138.774C211.371 130.57 203.79 125.017 195.835 126.371C187.881 127.726 182.566 135.476 183.963 143.68C185.361 151.885 192.942 157.438 200.896 156.083Z" stroke="#1D1D1B" stroke-width="1.2263" stroke-miterlimit="10" stroke-linejoin="round"/>
<path d="M202.58 136.12C202.58 136.12 202.14 136.4 201.69 137.12C201.24 137.84 201.04 138.61 201.31 138.76C201.41 138.82 201.63 138.79 201.95 138.37C202.25 137.99 202.46 137.55 202.56 137.07C202.71 136.4 202.58 136.13 202.58 136.12ZM205.81 136.74C205.14 136.52 204.62 136.2 204.11 136.03C203.62 135.87 203.32 135.82 202.96 135.93C202.91 135.95 202.86 135.97 202.82 135.99C202.82 135.99 203.12 136.61 202.56 137.84C202 139.08 201.32 139.19 201.07 138.92C200.81 138.63 200.96 137.93 201.3 137.26C201.65 136.57 202.37 135.92 202.37 135.92C202.37 135.92 202.09 135.8 201.52 136.28C200.97 136.74 200.06 137.78 199.32 139.38C198.58 140.99 198.52 141.81 198.49 142.46C198.46 143.11 198.7 143.75 199.37 143.64C200.04 143.53 200.64 142.34 200.8 141.94C201.09 141.19 201.18 140.1 200.65 140.33C200.39 140.45 200.22 140.8 200.13 141.12C200.07 141.33 200.04 141.54 200.03 141.76C199.85 141.88 199.69 142.02 199.54 142.18C199.38 142.35 199.23 142.54 199.1 142.74C199.1 142.74 199.02 142.24 199.27 141.37C199.52 140.5 200.16 140.01 200.56 139.91C200.92 139.82 201.44 140.05 201.24 141.29C201.04 142.52 200.11 144.14 198.88 144.37C197.75 144.58 196.75 143.21 197.88 140.33C199.14 137.14 201.05 135.91 201.7 135.7C202.35 135.49 202.62 135.75 202.62 135.75C202.99 135.51 203.41 135.36 203.85 135.32C204.67 135.24 205.41 135.73 206.31 136C206.13 136.24 205.96 136.5 205.81 136.74ZM209.3 135.14C208.8 135.61 208.07 136.08 207.31 136.14C207.15 136.37 206.99 136.64 206.83 136.93C208.18 136.97 209.18 135.95 209.66 135.14C209.84 134.85 209.98 134.53 210.08 134.2C209.87 134.55 209.6 134.87 209.3 135.14ZM208.21 139.22C208.22 139.2 208.22 139.18 208.22 139.16C208.2 139.1 208.14 139.06 208.08 139.06C207.95 139.08 207.79 139.13 207.43 139.71C207.13 140.19 206.9 140.71 206.72 141.25C206.55 141.77 206.51 142.15 206.67 142.21C206.72 142.23 206.78 142.22 206.83 142.2C206.92 142.16 207.02 142.04 207.16 141.81C207.22 141.7 207.29 141.55 207.37 141.38C207.6 140.93 208.11 139.51 208.21 139.22ZM203.7 140.56C203.74 140.35 203.77 139.94 203.55 139.82C203.31 139.69 202.84 140.17 202.9 140.56C202.96 140.96 203.38 141.08 203.47 141.09C203.52 141.1 203.54 141.09 203.56 141.04C203.62 140.89 203.66 140.72 203.7 140.56ZM203.42 141.36C203.28 141.32 203.14 141.26 203.01 141.18C202.88 141.1 202.77 141 202.67 140.88C202.66 140.87 202.65 140.88 202.65 140.89C202.64 140.9 202.62 140.94 202.4 141.42C202.19 141.9 201.9 142.87 202.32 142.96C202.59 143.01 202.94 142.48 203.12 142.14C203.24 141.9 203.35 141.65 203.43 141.4C203.45 141.37 203.43 141.37 203.42 141.36ZM208.11 141.63C208.03 141.83 207.97 142.19 208.29 141.92C208.68 141.59 209.13 140.51 209.13 140.51L209.41 140.46C209.22 140.91 209 141.34 208.76 141.76C208.41 142.34 207.95 142.89 207.56 142.91C207.11 142.93 207.15 142.31 207.15 142.31C207.15 142.31 206.64 143.11 206.19 143.14C205.59 143.17 205.64 142.39 205.64 142.39C205.64 142.39 205.12 143.35 204.66 143.4C203.94 143.48 203.97 142.55 204.06 141.89C204.11 141.53 204.16 141.25 204.16 141.25C204.16 141.25 204.09 141.28 203.94 141.33C203.86 141.36 203.72 141.39 203.72 141.39C203.72 141.39 203.51 141.98 203.33 142.35C203.15 142.72 202.33 144.01 201.69 143.89C201.1 143.78 201.14 142.88 201.34 142.13C201.64 141.04 202.7 139.37 203.49 139.44C204.31 139.5 203.79 141.11 203.79 141.11C203.79 141.11 203.79 141.12 203.8 141.12C203.82 141.12 203.86 141.12 203.95 141.09C204.04 141.05 204.14 141.01 204.22 140.95C204.22 140.95 204.72 139.11 205.4 137.84C206.08 136.58 207.5 134.36 208.26 134.7C208.44 134.79 208.44 135.19 208.29 135.71C208.19 135.76 208.1 135.81 208 135.85C208.1 135.54 208.16 135.29 208.16 135.12C208.16 134.53 207.07 135.96 206.36 137.43C205.93 138.31 205.58 139.23 205.29 140.18C205.44 140.05 205.58 139.9 205.71 139.74C206.07 139.31 206.4 138.87 206.7 138.4C206.99 137.96 207.26 137.5 207.5 137.03C207.6 137.01 207.7 136.98 207.79 136.95C207.53 137.49 207.24 138 206.91 138.49C206.6 138.94 206.27 139.43 205.97 139.79C205.7 140.12 205.42 140.43 205.11 140.71C205.11 140.71 204.58 142.55 205.05 142.58C205.32 142.6 205.7 141.69 205.7 141.69C205.7 141.69 206.19 140.52 206.52 139.97C206.96 139.23 207.37 138.77 207.85 138.68C208.13 138.63 208.34 138.9 208.34 138.9L208.43 138.67L209.23 138.53C209.24 138.53 208.19 141.41 208.11 141.63ZM209.3 135.14C208.8 135.61 208.07 136.08 207.31 136.14C207.15 136.38 206.99 136.64 206.83 136.93C208.18 136.97 209.18 135.95 209.66 135.14C209.84 134.85 209.98 134.53 210.08 134.2C209.87 134.55 209.6 134.87 209.3 135.14ZM198.26 138.35L197.5 138.48L197.19 139.27L197.95 139.14L198.26 138.35ZM195.07 141.45C195.32 140.94 195.94 139.17 195.94 139.17C195.92 139.11 195.86 139.07 195.8 139.07C195.67 139.09 195.48 139.16 195.16 139.76C194.84 140.36 194.59 140.84 194.44 141.31C194.27 141.83 194.21 142.19 194.38 142.26C194.43 142.28 194.49 142.27 194.54 142.25C194.63 142.21 194.74 142.09 194.87 141.86C194.92 141.77 194.99 141.62 195.07 141.45ZM190.6 139.98C190.36 139.85 189.89 140.33 189.95 140.72C190.02 141.12 190.52 141.16 190.59 141.16C190.61 141.16 190.63 141.15 190.64 141.14C190.65 141.13 190.66 141.12 190.66 141.11C190.7 140.98 190.73 140.86 190.75 140.73C190.8 140.51 190.83 140.1 190.6 139.98ZM190.52 141.42C190.37 141.4 190.22 141.36 190.07 141.29C189.93 141.23 189.81 141.13 189.72 141C189.71 140.99 189.7 141 189.7 141.01C189.69 141.02 189.66 141.09 189.45 141.57C189.24 142.05 188.96 143.01 189.39 143.1C189.66 143.16 190.01 142.62 190.19 142.28C190.32 142.01 190.44 141.74 190.55 141.45C190.55 141.43 190.54 141.42 190.52 141.42ZM196.8 140.62L197.08 140.57C197.08 140.57 196.04 142.9 195.23 142.94C194.78 142.96 194.81 142.38 194.81 142.38C194.81 142.38 194.32 143.23 193.72 143.18C193.18 143.13 193.36 142.19 193.36 142.19C193.31 142.22 192.41 143.72 191.57 143.54C190.69 143.35 190.93 142.19 191.03 141.84C191.12 141.54 191.22 141.25 191.22 141.25C191.22 141.25 191.1 141.31 191.02 141.34C190.94 141.37 190.83 141.42 190.83 141.42C190.83 141.42 190.55 142.14 190.37 142.5C190.19 142.87 189.37 144.16 188.73 144.04C188.1 143.92 188.1 143.03 188.32 142.29C188.67 141.09 189.73 139.51 190.54 139.59C191.36 139.66 190.93 141.08 190.93 141.08C190.93 141.08 191.09 141.07 191.42 140.75C191.89 140.28 192.43 139.14 193.22 139.13C193.59 139.12 193.99 139.45 193.66 140.25C193.55 140.51 193.34 140.76 193.12 140.58C192.98 140.47 193.04 140.22 193.14 140.04C193.22 139.89 193.36 139.79 193.52 139.77C193.52 139.77 193.6 139.45 193.27 139.51C193.01 139.56 192.45 140.3 192.19 141C191.95 141.64 191.6 142.72 192.15 142.85C192.66 142.97 193.38 141.7 193.7 141.05C194.02 140.4 194.76 138.91 195.55 138.72C195.82 138.65 196.03 138.89 196.03 138.89L196.1 138.72L196.9 138.58C196.9 138.58 195.83 141.45 195.74 141.66C195.67 141.83 195.61 142.2 195.92 141.95C196.25 141.69 196.8 140.62 196.8 140.62ZM197.07 144.88C196.41 144.56 195.66 144.47 194.94 144.62C194.55 144.7 194.22 144.97 194.05 145.34C193.65 144.84 192.98 144.6 192.05 144.77C190.54 145.05 189.16 146.02 187.97 146.22C186.83 146.41 185.87 145.82 185.67 144.5C185.33 142.19 186.86 139.79 188.11 138.61C188.83 137.93 189.48 137.66 189.94 137.64C190.27 137.62 190.73 137.94 190.58 138.55C190.36 139.44 189.85 139.46 189.8 139.06C189.77 138.8 189.91 138.61 190.02 138.5C190.09 138.43 190.23 138.39 190.3 138.38C190.36 138.31 190.34 137.84 189.78 138.09C189.23 138.34 188.62 139.05 188.09 139.92C187.55 140.79 186.76 142.41 186.76 143.96C186.76 144.68 187.06 145.94 188.66 145.65C190.02 145.41 191.88 144.14 193.73 143.84C194.45 143.73 195.11 143.82 195.65 144.04C196.17 144.26 196.82 144.61 197.07 144.88Z" fill="white"/>
<path d="M241.38 217.12L78.6299 186.34L87.7699 93.3901L255.37 109.87L241.38 217.12Z" fill="#FFF5EE"/>
<path d="M161.05 139.2C163.21 138.88 165.92 135.68 170.32 136.11C174.39 136.51 175.71 140.87 178.02 142.04C180.34 143.21 184.66 143.76 186.36 145.73C188.06 147.7 187.38 151.98 187.79 153.27C188.19 154.56 189.69 155.64 189.41 158.45C188.98 162.81 186.78 164.31 186.3 166.06C185.82 167.82 186.74 174.73 182.1 177.88C177.46 181.03 171.68 178.74 168.15 179.02C164.62 179.3 159.22 182.45 155.72 180.93C152.22 179.41 152.46 174.65 150.09 170.97C147.72 167.29 144.63 163.85 144.91 159.48C145.19 155.12 147.61 153.63 148.86 151.01C150.11 148.39 148.44 143.68 152.04 141.13C155.64 138.59 158.81 139.53 161.05 139.2Z" fill="#FFDFCA"/>
<path d="M138.5 145.81C142.8 150.28 161.38 168.94 163.99 169.43C166.61 169.92 252.14 118.16 254.67 115.19C257.2 112.22 253.53 110.97 253.53 110.97L182.98 153.39L148.7 149.02L121.44 123.76L138.5 145.81Z" fill="#FFDFCA"/>
<path d="M166.06 101.08C145.59 102.32 144.98 126.87 144.29 198.75C139.89 198.33 125.11 193.71 125.11 193.71L132.72 98.96L156.11 100.1L166.06 101.08Z" fill="#FFDFCA"/>
<path d="M241.38 217.12L78.6299 186.34L87.7699 93.3901L255.37 109.87L241.38 217.12Z" stroke="#1D1D1B" stroke-width="2.8541" stroke-miterlimit="10" stroke-linecap="round" stroke-linejoin="round"/>
<path d="M255.37 109.87L165.43 164.1L86.8098 93.29" stroke="#1D1D1B" stroke-width="2.8541" stroke-miterlimit="10" stroke-linecap="round" stroke-linejoin="round"/>
<path d="M144.99 216.79C159.73 184.19 160.69 157.28 166.03 152.14C171.36 147 171.57 148.52 174.92 143.01C178.27 137.51 185.23 115.02 169.52 113.47C153.8 111.92 155.51 135.7 158.61 140.29C161.71 144.88 167.76 152.47 167.76 152.47C167.76 152.47 169.05 202.77 174.1 219.33" stroke="#17560A" stroke-width="3.165" stroke-miterlimit="10" stroke-linecap="round"/>
<path d="M159.03 138.09C161.19 137.77 163.9 134.57 168.3 135C172.37 135.4 173.69 139.76 176 140.93C178.32 142.1 182.64 142.65 184.34 144.62C186.05 146.59 185.36 150.87 185.77 152.16C186.17 153.45 187.67 154.53 187.39 157.34C186.96 161.7 184.76 163.2 184.28 164.95C183.8 166.71 184.72 173.62 180.08 176.77C175.44 179.92 169.66 177.63 166.13 177.91C162.61 178.19 157.2 181.34 153.7 179.82C150.2 178.3 150.44 173.54 148.07 169.86C145.7 166.18 142.61 162.74 142.89 158.37C143.17 154.01 145.59 152.52 146.84 149.9C148.09 147.28 146.42 142.57 150.02 140.02C153.62 137.48 156.8 138.42 159.03 138.09Z" fill="#BA2525"/>
<path d="M159.03 138.09C161.19 137.77 163.9 134.57 168.3 135C172.37 135.4 173.69 139.76 176 140.93C178.32 142.1 182.64 142.65 184.34 144.62C186.05 146.59 185.36 150.87 185.77 152.16C186.17 153.45 187.67 154.53 187.39 157.34C186.96 161.7 184.76 163.2 184.28 164.95C183.8 166.71 184.72 173.62 180.08 176.77C175.44 179.92 169.66 177.63 166.13 177.91C162.61 178.19 157.2 181.34 153.7 179.82C150.2 178.3 150.44 173.54 148.07 169.86C145.7 166.18 142.61 162.74 142.89 158.37C143.17 154.01 145.59 152.52 146.84 149.9C148.09 147.28 146.42 142.57 150.02 140.02C153.62 137.48 156.8 138.42 159.03 138.09Z" stroke="#1D1D1B" stroke-width="1.0135" stroke-miterlimit="10"/>
<path d="M159.54 139.75C161.52 139.46 164 136.52 168.04 136.92C171.77 137.29 172.98 141.29 175.1 142.36C177.22 143.43 181.18 143.94 182.74 145.74C184.3 147.55 183.68 151.46 184.05 152.65C184.42 153.84 185.79 154.82 185.53 157.4C185.14 161.39 183.12 162.77 182.68 164.38C182.24 165.99 183.08 172.32 178.83 175.21C174.57 178.1 169.28 176 166.05 176.25C162.82 176.51 157.87 179.4 154.66 178C151.45 176.6 151.67 172.24 149.5 168.87C147.33 165.5 144.5 162.34 144.75 158.34C145 154.34 147.23 152.98 148.37 150.58C149.51 148.18 147.99 143.86 151.28 141.52C154.58 139.19 157.49 140.05 159.54 139.75Z" fill="#E3302B"/>
<path d="M167.1 141.13C157.91 140.23 149.71 147.18 148.78 156.66C147.85 166.14 154.54 174.55 163.73 175.46C172.92 176.36 181.12 169.41 182.06 159.93C182.99 150.45 176.29 142.03 167.1 141.13ZM163.94 173.28C155.91 172.49 150.06 165.14 150.88 156.86C151.69 148.58 158.86 142.51 166.89 143.3C174.92 144.09 180.77 151.44 179.95 159.72C179.14 168 171.97 174.07 163.94 173.28Z" fill="#7A1010"/>
<path d="M182.062 159.93C182.994 150.455 176.3 142.04 167.11 141.136C157.92 140.232 149.715 147.181 148.783 156.656C147.85 166.132 154.545 174.547 163.734 175.451C172.924 176.355 181.13 169.406 182.062 159.93Z" stroke="#1D1D1B" stroke-width="1.4036" stroke-miterlimit="10" stroke-linejoin="round"/>
<path d="M179.962 159.724C180.777 151.441 174.928 144.086 166.898 143.296C158.867 142.506 151.697 148.58 150.882 156.863C150.068 165.146 155.917 172.501 163.947 173.291C171.977 174.081 179.147 168.007 179.962 159.724Z" stroke="#1D1D1B" stroke-width="1.2263" stroke-miterlimit="10" stroke-linejoin="round"/>
<path d="M170.82 154.49C170.82 154.49 170.32 154.64 169.7 155.22C169.08 155.8 168.68 156.48 168.9 156.7C168.99 156.78 169.2 156.82 169.62 156.49C170.01 156.2 170.33 155.83 170.56 155.4C170.87 154.79 170.82 154.49 170.82 154.49ZM173.77 155.93C173.18 155.54 172.77 155.09 172.32 154.8C171.89 154.52 171.61 154.39 171.24 154.4C171.19 154.4 171.14 154.41 171.09 154.42C171.09 154.42 171.21 155.1 170.36 156.14C169.49 157.19 168.81 157.12 168.64 156.79C168.47 156.44 168.8 155.8 169.3 155.25C169.82 154.68 170.69 154.24 170.69 154.24C170.69 154.24 170.45 154.05 169.78 154.36C169.12 154.66 167.97 155.42 166.84 156.77C165.71 158.12 165.43 158.9 165.23 159.52C165.03 160.14 165.09 160.82 165.77 160.89C166.45 160.96 167.34 159.97 167.6 159.62C168.08 158.97 168.45 157.94 167.88 158.03C167.6 158.07 167.34 158.37 167.17 158.66C167.06 158.85 166.97 159.05 166.91 159.25C166.71 159.31 166.51 159.41 166.33 159.53C166.13 159.65 165.94 159.8 165.76 159.95C165.76 159.95 165.81 159.45 166.28 158.67C166.75 157.89 167.5 157.59 167.91 157.6C168.28 157.61 168.72 157.97 168.2 159.11C167.68 160.25 166.36 161.56 165.11 161.45C163.96 161.35 163.36 159.77 165.22 157.29C167.28 154.55 169.44 153.86 170.12 153.83C170.8 153.8 170.99 154.12 170.99 154.12C171.41 153.99 171.86 153.96 172.29 154.03C173.11 154.17 173.68 154.83 174.48 155.34C174.21 155.53 173.98 155.74 173.77 155.93ZM177.56 155.31C176.95 155.63 176.13 155.9 175.38 155.75C175.17 155.94 174.94 156.15 174.71 156.39C176 156.79 177.23 156.06 177.92 155.41C178.17 155.17 178.39 154.91 178.57 154.62C178.26 154.89 177.93 155.12 177.56 155.31ZM175.44 158.96C175.45 158.94 175.46 158.92 175.47 158.91C175.47 158.85 175.42 158.79 175.36 158.78C175.24 158.76 175.06 158.77 174.56 159.24C174.15 159.63 173.78 160.06 173.47 160.54C173.17 161 173.03 161.35 173.17 161.46C173.22 161.49 173.27 161.5 173.32 161.49C173.42 161.48 173.54 161.39 173.74 161.2C173.83 161.11 173.93 160.98 174.05 160.84C174.39 160.45 175.27 159.21 175.44 158.96ZM170.73 159.06C170.82 158.87 170.96 158.48 170.78 158.3C170.58 158.11 170 158.45 169.96 158.84C169.92 159.25 170.28 159.47 170.37 159.5C170.42 159.52 170.44 159.52 170.47 159.48C170.57 159.35 170.65 159.21 170.73 159.06ZM170.25 159.76C170.12 159.68 170 159.59 169.9 159.48C169.8 159.37 169.71 159.24 169.66 159.1C169.65 159.09 169.65 159.1 169.64 159.11C169.63 159.12 169.59 159.15 169.26 159.56C168.93 159.97 168.4 160.83 168.78 161.02C169.03 161.14 169.5 160.72 169.76 160.44C169.94 160.24 170.11 160.03 170.26 159.81C170.27 159.77 170.26 159.77 170.25 159.76ZM174.7 161.25C174.57 161.42 174.41 161.75 174.79 161.57C175.25 161.35 175.98 160.44 175.98 160.44L176.26 160.47C175.96 160.85 175.64 161.21 175.29 161.55C174.8 162.01 174.21 162.42 173.83 162.34C173.39 162.24 173.59 161.65 173.59 161.65C173.59 161.65 172.88 162.29 172.45 162.19C171.86 162.06 172.12 161.32 172.12 161.32C172.12 161.32 171.36 162.11 170.9 162.04C170.18 161.93 170.45 161.04 170.72 160.42C170.86 160.09 170.99 159.83 170.99 159.83C170.99 159.83 170.92 159.84 170.76 159.85C170.68 159.85 170.53 159.85 170.53 159.85C170.53 159.85 170.18 160.37 169.9 160.67C169.63 160.97 168.5 162.01 167.92 161.72C167.39 161.46 167.66 160.6 168.05 159.93C168.62 158.96 170.09 157.63 170.84 157.9C171.61 158.18 170.69 159.59 170.69 159.59C170.69 159.59 170.69 159.6 170.7 159.6C170.72 159.61 170.76 159.62 170.85 159.61C170.95 159.6 171.05 159.58 171.15 159.55C171.15 159.55 172.12 157.91 173.11 156.87C174.1 155.83 176.05 154.06 176.69 154.6C176.85 154.73 176.73 155.12 176.46 155.58C176.35 155.6 176.25 155.62 176.14 155.64C176.32 155.37 176.44 155.14 176.49 154.98C176.65 154.41 175.21 155.51 174.14 156.73C173.49 157.47 172.91 158.26 172.39 159.1C172.57 159.01 172.74 158.91 172.91 158.79C173.37 158.47 173.8 158.13 174.22 157.76C174.62 157.41 175 157.04 175.36 156.65C175.46 156.65 175.56 156.65 175.66 156.65C175.27 157.1 174.85 157.52 174.4 157.91C173.99 158.26 173.54 158.65 173.15 158.92C172.81 159.17 172.45 159.39 172.08 159.59C172.08 159.59 171.09 161.22 171.53 161.38C171.79 161.47 172.39 160.7 172.39 160.7C172.39 160.7 173.17 159.7 173.63 159.26C174.25 158.66 174.77 158.33 175.25 158.37C175.53 158.39 175.66 158.72 175.66 158.72L175.81 158.52L176.62 158.6C176.61 158.57 174.84 161.06 174.7 161.25ZM177.56 155.31C176.95 155.63 176.13 155.9 175.38 155.75C175.17 155.94 174.94 156.15 174.71 156.39C176 156.79 177.23 156.06 177.92 155.41C178.17 155.17 178.39 154.91 178.57 154.62C178.26 154.89 177.93 155.12 177.56 155.31ZM166.06 155.5L165.29 155.42L164.78 156.1L165.55 156.18L166.06 155.5ZM162.17 157.65C162.54 157.22 163.61 155.68 163.61 155.68C163.61 155.62 163.56 155.56 163.5 155.55C163.38 155.53 163.16 155.55 162.7 156.05C162.23 156.54 161.87 156.94 161.59 157.36C161.29 157.82 161.14 158.15 161.28 158.26C161.33 158.29 161.38 158.3 161.43 158.29C161.53 158.27 161.66 158.19 161.86 158C161.94 157.91 162.05 157.79 162.17 157.65ZM158.25 155.05C158.05 154.86 157.47 155.2 157.43 155.59C157.39 156 157.86 156.17 157.93 156.18C157.95 156.18 157.97 156.18 157.98 156.17C157.99 156.16 158 156.15 158.01 156.14C158.08 156.03 158.14 155.91 158.2 155.8C158.3 155.61 158.43 155.22 158.25 155.05ZM157.79 156.42C157.65 156.36 157.51 156.28 157.39 156.18C157.27 156.08 157.18 155.96 157.13 155.81C157.12 155.8 157.11 155.81 157.11 155.82C157.1 155.83 157.05 155.88 156.72 156.29C156.39 156.7 155.87 157.55 156.26 157.75C156.51 157.88 156.99 157.45 157.25 157.17C157.45 156.95 157.64 156.71 157.81 156.47C157.82 156.43 157.81 156.42 157.79 156.42ZM164.06 157.3L164.34 157.33C164.34 157.33 162.72 159.3 161.93 159.12C161.49 159.02 161.68 158.47 161.68 158.47C161.68 158.47 160.98 159.16 160.42 158.95C159.91 158.76 160.34 157.9 160.34 157.9C160.28 157.92 159.02 159.12 158.26 158.73C157.46 158.32 158 157.26 158.19 156.95C158.35 156.68 158.53 156.43 158.53 156.43C158.53 156.43 158.4 156.45 158.32 156.47C158.24 156.49 158.12 156.49 158.12 156.49C158.12 156.49 157.66 157.11 157.39 157.41C157.12 157.71 155.99 158.74 155.41 158.46C154.83 158.18 155.07 157.32 155.47 156.67C156.13 155.61 157.56 154.36 158.32 154.65C159.09 154.94 158.31 156.19 158.31 156.19C158.31 156.19 158.47 156.23 158.87 156C159.45 155.67 160.27 154.71 161.03 154.91C161.39 155 161.69 155.42 161.15 156.11C160.98 156.33 160.71 156.52 160.54 156.29C160.43 156.15 160.56 155.92 160.7 155.78C160.81 155.66 160.98 155.6 161.14 155.62C161.14 155.62 161.3 155.33 160.97 155.3C160.71 155.28 159.98 155.85 159.54 156.45C159.14 157 158.51 157.95 159.02 158.22C159.48 158.47 160.51 157.43 160.99 156.89C161.47 156.35 162.57 155.1 163.39 155.13C163.67 155.14 163.81 155.42 163.81 155.42L163.92 155.28L164.73 155.36C164.73 155.36 162.94 157.84 162.8 158.03C162.69 158.18 162.53 158.51 162.89 158.35C163.24 158.19 164.06 157.3 164.06 157.3ZM163.2 161.48C162.64 160.99 161.95 160.71 161.22 160.66C160.82 160.63 160.43 160.8 160.17 161.12C159.92 160.53 159.34 160.13 158.39 160.04C156.86 159.91 155.27 160.49 154.07 160.37C152.92 160.26 152.15 159.43 152.31 158.1C152.59 155.78 154.7 153.87 156.22 153.06C157.09 152.6 157.8 152.51 158.24 152.6C158.56 152.67 158.92 153.1 158.61 153.65C158.16 154.45 157.67 154.34 157.72 153.94C157.76 153.68 157.94 153.53 158.08 153.45C158.17 153.4 158.31 153.4 158.38 153.4C158.46 153.34 158.56 152.89 157.96 152.98C157.36 153.07 156.59 153.6 155.84 154.3C155.09 155 153.9 156.35 153.49 157.85C153.3 158.54 153.25 159.84 154.88 159.99C156.26 160.11 158.38 159.38 160.25 159.58C160.97 159.66 161.58 159.92 162.04 160.28C162.49 160.65 163.03 161.16 163.2 161.48Z" fill="white"/>
<path d="M1.5 74.54V167.45L138.38 202.21L138.5 93.57L1.5 74.54Z" fill="#E3302B"/>
<path d="M125.01 51.59C124.07 51.37 123.17 51.25 122.41 51.46C119.54 50.94 116.63 51.09 113.85 51.98C113.01 51.03 111.73 50.53 110.24 51.06C109.46 51.34 108.81 51.36 107.97 51.28C107.42 51.21 106.88 51.33 106.39 51.59C105.16 51.29 103.92 50.74 102.95 50.44C100.1 49.58 97.34 49.62 94.41 49.74C88.38 49.99 82.34 49.83 76.33 49.29C75.65 49.23 75.06 49.36 74.55 49.62C71.63 48.69 68.62 48.17 65.49 48.09C64.07 48.06 62.67 48.17 61.27 48.3C58.29 47.57 55.41 47.3 52.4 47.71C51.56 47.6 50.7 47.57 49.85 47.65C44.35 48.22 38.94 52.29 34.98 55.91C31.11 59.46 27.62 63.78 25.37 68.56C22.88 73.87 23.53 80.07 23.68 85.84C23.68 86.29 23.68 86.74 23.7 87.18C23.73 87.71 23.85 88.18 24.05 88.58C23.3 93.34 22.97 98.15 23.59 102.96C23.64 103.37 23.74 103.76 23.89 104.13C23.82 104.3 23.77 104.47 23.73 104.65C23.36 106.45 23.18 108.25 23.32 110.08C23.36 110.62 23.49 111.13 23.69 111.61C23.71 112.38 23.71 113.15 23.67 113.92C23.55 116.21 23.1 118.21 23.5 120.51C23.57 120.93 23.73 121.31 23.96 121.65C23.84 122.33 23.75 123.01 23.66 123.66C23.32 126.28 23.58 128.69 23.79 131.3C23.98 133.81 23.65 136.32 23.5 138.82C23.32 141.75 23.34 144.61 23.54 147.54C23.59 148.31 23.84 149.04 24.24 149.65C23.88 151.85 23.56 154.06 23.62 156.36C23.65 157.43 23.71 158.52 23.8 159.61C22.83 160.67 22.38 161.82 22.32 163.25C22.29 163.98 22.38 164.78 22.65 165.46C22.78 165.93 22.99 166.36 23.26 166.76C23.09 167.44 23.06 168.17 23.19 168.87C23.26 169.26 23.38 169.63 23.55 169.96C24.53 172.52 27.78 173.17 30.35 173.7C35.44 174.75 40.42 176.06 45.33 177.74C50.23 179.41 55.34 180.43 60.37 181.65C63 182.29 65.63 182.97 68.28 183.57C70.03 183.96 72.24 184.68 74.3 184.8C74.74 185 75.24 185.13 75.77 185.16C76.22 185.19 76.67 185.25 77.12 185.33C78.38 185.91 79.65 186.4 80.97 186.83C81.58 187.03 82.16 187.06 82.68 186.97C84.01 187.41 85.34 187.85 86.61 188.4C89.83 189.8 92.97 190.89 96.34 191.06C99.35 194.09 104.63 193.64 103.59 187.11C103.39 185.84 103.06 184.51 103.03 183.22C103.03 183.01 103.03 182.79 103.04 182.58C103.67 181.05 103.57 179.39 103.19 177.75C103.11 177.41 102.98 177.1 102.82 176.81C102.98 175.37 103.1 173.93 103.21 172.48C103.46 169.04 103.61 165.59 103.66 162.14C103.73 157.37 103.6 152.64 102.96 147.96C102.98 147.83 102.99 147.69 102.99 147.54C103.02 146.54 103.05 145.54 103.08 144.54C103.09 144.33 103.07 144.12 103.04 143.93C103.05 142.32 103.03 140.7 103 139.09C102.94 136.27 103.16 133.47 103 130.64C103 130.6 102.99 130.56 102.99 130.53C103.01 130.48 103.03 130.43 103.04 130.38C103.05 130.39 103.07 130.39 103.08 130.4C103.09 130.29 103.1 130.19 103.12 130.08C103.19 129.78 103.23 129.46 103.25 129.14C103.25 129.05 103.26 128.96 103.26 128.87C103.62 125.26 103.57 121.64 103.51 118.01C103.5 117.17 103.24 116.35 102.82 115.62C103.77 111.9 103.56 107.94 103.28 104.14C103.13 102.07 102.95 100.01 102.94 97.94C102.94 95.6 103.59 93.24 103.28 90.95C103.25 90.76 103.2 90.58 103.12 90.4C103.12 90.36 103.13 90.33 103.13 90.3C103.13 90.28 103.13 90.27 103.14 90.24C103.21 89.76 103.27 89.28 103.35 88.8C103.49 87.97 103.68 87.15 103.85 86.33C104.01 85.52 104.2 84.72 104.35 83.91C104.54 82.47 104.59 82.05 104.52 82.67C104.49 82.91 104.5 82.88 104.54 82.55C104.61 82.1 104.68 81.65 104.75 81.2C105.05 79.37 105.44 77.71 106.01 76.13C106.05 76.07 106.09 76.01 106.14 75.95C107.22 74.35 107.74 72.72 108.35 71.22C108.76 70.98 109.15 70.64 109.49 70.17C111.04 68.04 113.05 65.91 114.17 63.53C114.63 62.56 114.8 61.43 114.84 60.25C115.55 59.96 116.27 59.71 117.01 59.49C118.12 59.62 119.24 59.28 120.34 58.85C121.53 58.39 122.02 57.4 121.97 56.45C122.24 56.2 122.48 55.95 122.74 55.68C122.75 55.67 122.76 55.66 122.77 55.64C122.99 55.55 123.23 55.52 123.49 55.54C123.58 55.55 123.68 55.56 123.76 55.57C123.82 55.58 123.87 55.59 123.93 55.6C126.51 56.19 127.63 52.21 125.01 51.59Z" fill="#4F4F4F"/>
<path d="M77.2399 124.76C77.2399 124.76 75.9999 125.06 74.4099 126.39C72.8199 127.72 71.7599 129.33 72.2699 129.88C72.4699 130.09 72.9799 130.2 74.0499 129.47C75.0399 128.83 75.8699 127.96 76.4699 126.94C77.3299 125.5 77.2399 124.77 77.2399 124.76ZM84.2299 128.67C82.8499 127.64 81.8999 126.5 80.8499 125.72C79.8499 124.97 79.1799 124.62 78.2799 124.61C78.1499 124.61 78.0299 124.63 77.8999 124.65C77.8999 124.65 78.1099 126.32 75.8799 128.73C73.6299 131.17 71.9699 130.9 71.6099 130.08C71.2399 129.21 72.1299 127.7 73.4099 126.43C74.7599 125.1 76.9099 124.16 76.9099 124.16C76.9099 124.16 76.3499 123.67 74.6699 124.33C73.0399 124.97 70.1299 126.65 67.1899 129.8C64.2499 132.94 63.4799 134.8 62.8999 136.27C62.3199 137.74 62.3799 139.42 64.0199 139.67C65.6599 139.92 67.9599 137.64 68.6299 136.83C69.8899 135.32 70.9299 132.86 69.5199 133C68.8199 133.07 68.1599 133.75 67.7099 134.43C67.4199 134.87 67.1799 135.34 66.9899 135.83C66.4799 135.96 65.9999 136.16 65.5399 136.42C65.0399 136.69 64.5599 137.01 64.0999 137.37C64.0999 137.37 64.2899 136.15 65.5399 134.33C66.7799 132.51 68.6499 131.88 69.6399 131.94C70.5299 132 71.5599 132.95 70.1499 135.64C68.7399 138.33 65.3399 141.35 62.3199 140.92C59.5399 140.53 58.2799 136.59 63.1399 130.81C68.5099 124.42 73.8599 123.04 75.5299 123.05C77.1999 123.06 77.6099 123.88 77.6099 123.88C78.6599 123.62 79.7399 123.6 80.7899 123.83C82.7599 124.28 84.0699 125.97 85.9499 127.3C85.3499 127.76 84.7599 128.23 84.2299 128.67ZM93.5299 127.68C92.0099 128.38 89.9699 128.91 88.1699 128.45C87.6299 128.87 87.0399 129.37 86.4499 129.92C89.5299 131.06 92.6299 129.46 94.3799 127.96C95.0199 127.42 95.5899 126.81 96.0799 126.13C95.2899 126.74 94.4399 127.27 93.5299 127.68ZM87.8699 136.26C87.8999 136.22 87.9299 136.18 87.9499 136.13C87.9499 135.97 87.8499 135.83 87.6999 135.8C87.3999 135.74 86.9799 135.73 85.6999 136.8C84.6399 137.68 83.6899 138.69 82.8799 139.81C82.0799 140.88 81.6899 141.71 82.0099 141.99C82.1199 142.07 82.2499 142.1 82.3799 142.09C82.6299 142.07 82.9399 141.88 83.4299 141.44C83.6599 141.24 83.9299 140.94 84.2399 140.61C85.1199 139.74 87.4099 136.85 87.8699 136.26ZM76.4099 135.87C76.6699 135.41 77.0399 134.49 76.6199 134.04C76.1699 133.56 74.7099 134.3 74.5599 135.25C74.3999 136.23 75.2599 136.82 75.4799 136.92C75.5999 136.98 75.6499 136.98 75.7199 136.88C75.9699 136.56 76.1999 136.22 76.4099 135.87ZM75.1399 137.5C74.8399 137.3 74.5699 137.05 74.3299 136.77C74.0899 136.49 73.9099 136.17 73.7899 135.82C73.7799 135.79 73.7499 135.81 73.7299 135.83C73.7099 135.85 73.6099 135.92 72.7499 136.87C71.8899 137.82 70.4799 139.84 71.3899 140.36C71.9799 140.69 73.1799 139.73 73.8599 139.07C74.3199 138.61 74.7599 138.12 75.1599 137.59C75.1999 137.54 75.1699 137.52 75.1399 137.5ZM85.7699 141.74C85.4399 142.13 85.0099 142.92 85.9599 142.54C87.1199 142.07 88.9999 139.94 88.9999 139.94L89.6899 140.05C88.9099 140.94 88.0699 141.78 87.1799 142.54C85.9099 143.6 84.4299 144.52 83.5199 144.26C82.4599 143.96 83.0299 142.55 83.0299 142.55C83.0299 142.55 81.2199 144.01 80.1699 143.72C78.7499 143.33 79.4799 141.56 79.4799 141.56C79.4799 141.56 77.5299 143.37 76.4299 143.14C74.6999 142.77 75.4799 140.65 76.1999 139.18C76.5899 138.4 76.9299 137.79 76.9299 137.79C76.9299 137.79 76.7499 137.81 76.3699 137.81C76.1699 137.81 75.8199 137.77 75.8199 137.77C75.8199 137.77 74.8899 138.98 74.1899 139.68C73.4899 140.38 70.5999 142.74 69.2299 141.97C67.9699 141.26 68.7399 139.2 69.7799 137.64C71.2999 135.36 75.0599 132.33 76.8299 133.08C78.6699 133.86 76.2399 137.18 76.2399 137.18C76.2399 137.18 76.2399 137.19 76.2599 137.21C76.2999 137.23 76.3899 137.26 76.6299 137.25C76.8799 137.24 77.1199 137.2 77.3699 137.14C77.3699 137.14 79.9399 133.27 82.4899 130.88C85.0399 128.49 90.0199 124.45 91.5099 125.84C91.8699 126.18 91.5399 127.11 90.8099 128.2C90.5499 128.24 90.2899 128.28 90.0199 128.29C90.4899 127.66 90.8299 127.12 90.9599 126.72C91.4299 125.35 87.7799 127.83 85.0099 130.67C83.3399 132.38 81.8099 134.23 80.4199 136.19C80.8699 135.99 81.3099 135.77 81.7299 135.51C82.8799 134.8 83.9899 134.02 85.0499 133.17C86.0699 132.38 87.0399 131.53 87.9599 130.62C88.1999 130.65 88.4499 130.66 88.6999 130.65C87.6899 131.69 86.6099 132.65 85.4699 133.54C84.4099 134.35 83.2699 135.21 82.2999 135.82C81.4299 136.37 80.5299 136.86 79.6099 137.29C79.6099 137.29 76.9799 141.13 78.0199 141.56C78.6299 141.82 80.1999 140.01 80.1999 140.01C80.1999 140.01 82.2399 137.68 83.4099 136.67C84.9999 135.3 86.3099 134.56 87.4699 134.72C88.1499 134.81 88.4299 135.62 88.4299 135.62L88.8299 135.16L90.7899 135.46C90.7799 135.46 86.1299 141.29 85.7699 141.74ZM93.5299 127.68C92.0099 128.38 89.9699 128.91 88.1699 128.45C87.6299 128.87 87.0399 129.37 86.4499 129.92C89.5299 131.06 92.6299 129.46 94.3799 127.96C95.0199 127.42 95.5899 126.81 96.0799 126.13C95.2899 126.74 94.4399 127.27 93.5299 127.68ZM65.5399 126.57L63.6799 126.28L62.3599 127.87L64.2199 128.16L65.5399 126.57ZM55.7799 131.28C56.7499 130.28 59.5399 126.69 59.5399 126.69C59.5399 126.53 59.4399 126.39 59.2899 126.36C58.9899 126.3 58.4699 126.33 57.2699 127.46C56.0699 128.6 55.1299 129.51 54.3999 130.49C53.5999 131.56 53.1999 132.35 53.5199 132.63C53.6299 132.71 53.7599 132.74 53.8899 132.73C54.1299 132.71 54.4699 132.51 54.9699 132.08C55.1899 131.88 55.4599 131.6 55.7799 131.28ZM46.5999 124.42C46.1499 123.94 44.6899 124.68 44.5399 125.63C44.3799 126.61 45.5199 127.1 45.6699 127.13C45.7099 127.14 45.7599 127.14 45.7999 127.12C45.8299 127.11 45.8599 127.09 45.8699 127.06C46.0499 126.8 46.2199 126.53 46.3799 126.25C46.6499 125.79 47.0299 124.87 46.5999 124.42ZM45.2999 127.69C44.9599 127.52 44.6499 127.31 44.3599 127.05C44.0899 126.8 43.8799 126.48 43.7699 126.11C43.7599 126.08 43.7299 126.1 43.7099 126.12C43.6899 126.15 43.5599 126.26 42.6999 127.22C41.8399 128.18 40.4599 130.18 41.3799 130.7C41.9599 131.04 43.1799 130.07 43.8699 129.41C44.3899 128.89 44.8699 128.35 45.3299 127.77C45.3599 127.73 45.3399 127.71 45.2999 127.69ZM60.4199 130.69L61.0999 130.8C61.0999 130.8 56.8899 135.37 54.9999 134.84C53.9399 134.54 54.4699 133.22 54.4699 133.22C54.4699 133.22 52.6699 134.81 51.3399 134.23C50.1299 133.7 51.2799 131.66 51.2799 131.66C51.1299 131.7 47.9099 134.45 46.0999 133.39C44.2199 132.28 45.6699 129.78 46.1799 129.04C46.6099 128.42 47.0699 127.82 47.0699 127.82C47.0699 127.82 46.7499 127.86 46.5399 127.88C46.3399 127.9 46.0399 127.91 46.0399 127.91C46.0399 127.91 44.8399 129.36 44.1399 130.06C43.4399 130.76 40.5499 133.11 39.1799 132.34C37.8099 131.57 38.4999 129.53 39.5699 127.99C41.3099 125.49 44.9699 122.66 46.7799 123.45C48.6099 124.25 46.5399 127.2 46.5399 127.2C46.5399 127.2 46.9099 127.31 47.9199 126.81C49.3799 126.09 51.4899 123.87 53.3199 124.45C54.1799 124.72 54.8599 125.78 53.4599 127.38C53.0099 127.89 52.3299 128.31 51.9499 127.73C51.7099 127.37 52.0499 126.84 52.4099 126.5C52.6999 126.21 53.0999 126.09 53.4899 126.18C53.4899 126.18 53.9099 125.5 53.1199 125.39C52.4799 125.3 50.6299 126.59 49.4799 128C48.4199 129.29 46.7799 131.52 47.9699 132.25C49.0599 132.92 51.6999 130.54 52.9499 129.28C54.1999 128.02 57.0399 125.15 59.0199 125.33C59.6999 125.39 60.0099 126.09 60.0099 126.09L60.2899 125.75L62.2499 126.05C62.2499 126.05 57.5599 131.85 57.1999 132.28C56.9099 132.62 56.4799 133.42 57.3899 133.08C58.3199 132.73 60.4199 130.69 60.4199 130.69ZM57.7699 140.73C56.4799 139.47 54.8299 138.68 53.0599 138.48C52.0899 138.36 51.1199 138.72 50.4399 139.45C49.8999 137.99 48.5499 136.93 46.2499 136.59C42.5399 136.06 38.5999 137.25 35.6899 136.8C32.8999 136.37 31.1499 134.25 31.7099 131.05C32.6999 125.44 38.0999 121.08 41.8999 119.33C44.0899 118.33 45.8099 118.19 46.8699 118.49C47.6499 118.7 48.4499 119.79 47.6399 121.09C46.4399 122.99 45.2499 122.63 45.4499 121.67C45.5699 121.04 46.0399 120.71 46.3799 120.53C46.5999 120.42 46.9499 120.44 47.1299 120.46C47.3299 120.33 47.6299 119.24 46.1599 119.39C44.6899 119.54 42.7499 120.71 40.8299 122.31C38.9099 123.91 35.8299 127.03 34.6399 130.62C34.0799 132.28 33.7899 135.43 37.7299 136C41.0699 136.49 46.3299 134.98 50.8299 135.73C52.5799 136.02 54.0299 136.74 55.0999 137.68C56.1599 138.62 57.3899 139.92 57.7699 140.73Z" fill="white"/>
<path d="M138.5 202.33L1.5 167.45V74.54L138.6 93.58L138.5 202.33Z" stroke="#1D1D1B" stroke-width="2.8541" stroke-miterlimit="10" stroke-linejoin="round"/>
<path d="M207.02 82.4899C203.62 66.5599 189.69 54.6599 173.12 54.6599C154 54.6599 138.5 70.5299 138.5 90.1099C138.5 91.0299 138.6 92.2899 138.6 93.9499" stroke="#1D1D1B" stroke-width="3" stroke-miterlimit="10" stroke-linecap="round"/>
<path d="M36.12 46.3601C19.43 46.3601 1.5 57.4801 1.5 74.5401" stroke="#1D1D1B" stroke-width="3" stroke-miterlimit="10" stroke-linecap="round"/>
<path d="M130.4 52.6299C115.89 59.1899 104 73.0499 103.74 88.0799V193.47" stroke="#1D1D1B" stroke-width="3" stroke-miterlimit="10" stroke-linecap="round"/>
<path d="M49.39 47.3C35.92 51.44 23.93 63.43 23.55 76.88V173.07" stroke="#1D1D1B" stroke-width="3" stroke-miterlimit="10" stroke-linecap="round"/>
<path d="M36.1201 46.3601L173.12 54.6501" stroke="#1D1D1B" stroke-width="3" stroke-miterlimit="10"/>
<path d="M94.1799 191.05V249.23H66.6799V184.05" stroke="#1D1D1B" stroke-width="3" stroke-miterlimit="10" stroke-linecap="round" stroke-linejoin="round"/>
<path d="M126.12 132.86C126.08 132.43 126.03 132 125.96 131.57C126.11 131.34 126.2 131.03 126.17 130.64C126.08 129.43 125.69 128.46 124.97 127.48C124.95 127.45 124.92 127.42 124.9 127.39C123.71 124.91 121.99 122.35 119.46 122.23C117.91 122.16 117.27 124.47 118.66 125.18C119.21 125.46 119.7 125.81 120.13 126.21C120.41 127.03 121.09 127.67 121.71 128.33C122.51 129.88 122.89 131.7 122.99 133.44C123.1 135.39 122.93 137.37 122.52 139.28C122.13 141.07 121.07 142.09 119.8 143.12C119.56 143.19 119.32 143.34 119.1 143.58C118.99 143.7 118.88 143.83 118.77 143.95C117.39 145.5 119.45 147.47 121.01 146.19C123.08 144.5 124.86 143.09 125.52 140.38C126.12 137.99 126.35 135.35 126.12 132.86Z" fill="#9E221F"/>
<path d="M117.85 147.17C123.185 147.17 127.51 141.564 127.51 134.65C127.51 127.735 123.185 122.13 117.85 122.13C112.515 122.13 108.19 127.735 108.19 134.65C108.19 141.564 112.515 147.17 117.85 147.17Z" stroke="#1D1D1B" stroke-width="3" stroke-miterlimit="10" stroke-linecap="round"/>
<path d="M115 122.69C118.94 124.27 122.75 129.03 122.75 134.66C122.75 140.29 118.94 145.05 115 146.63" stroke="#1D1D1B" stroke-width="3" stroke-miterlimit="10" stroke-linecap="round"/>
<path d="M119.6 1.5V122.13H115.13V26.18L89.95 20.04V1.5H119.6Z" fill="#E3302B"/>
<path d="M119.6 1.5V122.13H115.13V26.18L89.95 20.04V1.5H119.6Z" stroke="#1D1D1B" stroke-width="3" stroke-miterlimit="10" stroke-linecap="round"/>
</g>
<defs>
<clipPath id="clip0_711_2483">
<rect width="294.3" height="250.73" fill="white"/>
</clipPath>
</defs>
</svg>
