<svg width="271" height="231" viewBox="0 0 271 231" fill="none" xmlns="http://www.w3.org/2000/svg">
<path d="M27.7992 150.546C28.1793 159.238 30.1315 168.116 34.5404 175.475C45.2856 193.431 59.2384 200.79 74.0246 196.732C77.2029 195.862 80.4108 194.469 83.6404 192.543C101.914 181.619 104.881 163.068 91.8245 141.254C78.7682 119.44 43.3197 110.59 36.8811 114.436C32.3232 117.164 27.0431 133.487 27.7992 150.546Z" fill="#785240"/>
<path opacity="0.29" d="M28.3975 144.61C28.7445 153.356 30.4814 167.817 34.8119 175.209C45.3658 193.245 58.9428 200.812 73.5597 196.679C80.5 194.717 102.971 180.324 96.9998 177C84.6666 170.136 31.8484 170.383 28.3975 144.61Z" fill="black"/>
<path d="M34.5387 175.48C47.5945 197.293 65.3676 203.451 83.6383 192.537C101.909 181.624 104.887 163.066 91.8217 141.252C78.7564 119.438 43.3189 110.59 36.8806 114.436C29.9964 118.548 21.4829 153.668 34.5387 175.48Z" stroke="#1D1D1B" stroke-width="3" stroke-miterlimit="10" stroke-linecap="round"/>
<path d="M56.0542 196.494L95.0801 149.129" stroke="#1D1D1B" stroke-width="3" stroke-miterlimit="10"/>
<path d="M99.6265 170.131L39.687 181.59" stroke="#1D1D1B" stroke-width="3" stroke-miterlimit="10"/>
<path d="M91.5708 153.932L30.116 158.39" stroke="#1D1D1B" stroke-width="3" stroke-miterlimit="10"/>
<path d="M46.6873 180.074L80.9102 129.2" stroke="#1D1D1B" stroke-width="3" stroke-miterlimit="10"/>
<path d="M74.1128 137.494L26.8807 137.61" stroke="#1D1D1B" stroke-width="3" stroke-miterlimit="10"/>
<path d="M39.5183 158.629L61.2554 117.786" stroke="#1D1D1B" stroke-width="3" stroke-miterlimit="10"/>
<path d="M180.763 159.725C179.433 185.706 198.222 199.622 222.215 200.849C246.207 202.077 266.318 190.152 267.647 164.17C268.977 138.189 250.559 117.036 226.566 115.808C202.573 114.581 182.092 133.743 180.763 159.725Z" fill="#FF833D"/>
<path d="M177.5 127.5C176.17 153.482 176.494 198.51 222.214 200.849C246.207 202.077 273 188.5 266.5 152.5C264.5 178.672 235.711 192.805 216.5 185C184.5 172 187 142 177.5 127.5Z" fill="#E36823"/>
<path d="M235.15 132.119C235.918 131.809 236.792 132.181 237.102 132.949C237.412 133.717 237.041 134.591 236.272 134.901L235.15 132.119ZM220.767 131.284C220.097 130.798 219.947 129.86 220.433 129.189C220.92 128.518 221.857 128.369 222.528 128.855L220.767 131.284ZM182.26 159.801C181.617 172.381 185.831 181.909 193.004 188.462C200.214 195.05 210.546 198.75 222.291 199.351L222.138 202.347C209.89 201.721 198.831 197.85 190.981 190.677C183.094 183.471 178.579 173.049 179.264 159.648L182.26 159.801ZM222.291 199.351C234.036 199.952 244.691 197.325 252.536 191.508C260.34 185.721 265.505 176.674 266.149 164.094L269.145 164.247C268.459 177.648 262.904 187.554 254.323 193.918C245.781 200.252 234.385 202.974 222.138 202.347L222.291 199.351ZM266.149 164.094C267.44 138.864 249.581 118.488 226.489 117.306L226.642 114.31C251.535 115.584 270.513 137.513 269.145 164.247L266.149 164.094ZM226.489 117.306C203.397 116.125 183.551 134.572 182.26 159.801L179.264 159.648C180.632 132.914 201.749 113.036 226.642 114.31L226.489 117.306ZM236.272 134.901C233.737 135.924 227.591 136.231 220.767 131.284L222.528 128.855C228.627 133.277 233.694 132.706 235.15 132.119L236.272 134.901Z" fill="#1D1D1B"/>
<path d="M191.855 149.765C191.855 157.777 168.223 164.272 139.734 164.272C111.246 164.272 87.6138 157.777 87.6138 149.765C87.6138 141.752 111.246 135.257 139.734 135.257C168.223 135.257 191.855 141.752 191.855 149.765Z" fill="#B01612" stroke="#1D1D1B" stroke-width="3" stroke-linejoin="round"/>
<path d="M94.8353 94.4361C89.9121 96.2365 87.6994 95.2888 86.1104 94.4044C93.8478 84.8056 95.005 67.5715 95.005 67.5715C95.005 67.5715 104.935 80.4763 117.246 85.3415C116.112 87.4348 112.922 90.1725 110.5 91C111.289 93.7091 120.597 96.8553 131.037 101.53C127.946 104.634 122.649 107.645 119.241 107.168C122.866 110.888 133.464 117.354 142.879 119.756C141.225 122.809 132.364 127.715 126.653 128.887L125.969 137.059C116.595 139.788 107.847 138.099 105.149 136.313C94.082 143.208 84.3775 139.478 80.5299 137.905C87.9139 132.082 93.4047 119.464 95.4711 114.087C88.5551 117.275 83.8515 115.755 81.862 114.742C85.4852 112.218 92.6901 99.9583 94.8353 94.4361Z" fill="#2F5F28" stroke="#1D1D1B" stroke-width="3" stroke-linejoin="round"/>
<path d="M186.373 93.6849C191.357 95.6636 193.646 94.7563 195.296 93.8964C187.652 83.8641 186.95 66.2077 186.95 66.2077C186.95 66.2077 176.435 79.127 163.709 83.7581C164.81 85.9304 167.546 89.5861 170 90.5C169.118 93.2484 159.96 95.4387 149.154 99.9278C152.228 103.188 157.561 106.416 161.059 106.023C157.248 109.726 146.23 116.041 136.534 118.235C138.14 121.403 147.065 126.667 152.872 128.026L153.343 136.402C162.853 139.455 171.846 137.972 174.655 136.221C185.78 143.581 195.808 140.039 199.787 138.537C192.398 132.376 187.136 119.319 185.173 113.763C192.157 117.217 197.009 115.793 199.072 114.813C195.437 112.131 188.412 99.392 186.373 93.6849Z" fill="#2F5F28" stroke="#1D1D1B" stroke-width="3" stroke-linejoin="round"/>
<path d="M128.455 72.3573C120.078 72.9375 117.1 70.4232 115.052 68.2956C131.247 56.6909 140.74 30 140.74 30C140.74 30 150.234 54.9502 166.987 68.2956C164.307 71.0808 157.68 72.1639 153.585 72.3573C153.585 76.9992 166.987 88.0237 180.948 100.209C174.805 103.69 165.312 106.011 160.286 103.69C164.195 111.233 176.097 126.877 189.5 135C185.591 139.062 171.268 142.179 161.961 141.405L157.252 154C141.615 154 128.92 147.31 125.57 143.249C105.481 149.047 94.7283 140.268 89.5118 136.01L89.5 136C103.461 130.198 115.052 111.233 120.637 103.69C108.574 105.547 102.022 100.982 99.416 98.4679C106.117 96.147 122.684 80.0938 128.455 72.3573Z" fill="#518949" stroke="#1D1D1B" stroke-width="3" stroke-linejoin="round"/>
<circle cx="139.785" cy="83.7244" r="81.7244" fill="#ACACAC" fill-opacity="0.2" stroke="#1D1D1B" stroke-width="3" stroke-linejoin="round"/>
<path d="M87.4329 149.707C87.8063 148.406 89.3522 147.803 90.5478 148.438C96.4128 151.549 113.136 158.922 139.916 158.922C166.574 158.922 183.267 151.616 189.203 148.48C190.422 147.836 192.001 148.477 192.341 149.812L201.921 187.36C202.706 190.435 202.232 193.706 199.683 195.596C193.661 200.061 177.945 207.259 139.197 207.259C100.822 207.259 85.0373 200.199 78.8874 195.725C76.2136 193.78 75.7632 190.363 76.6754 187.185L87.4329 149.707Z" fill="#D92521"/>
<g clip-path="url(#clip0_711_2549)">
<path d="M131.373 186.384C128.979 184.751 125.732 184.349 120.613 185.162C115.223 185.759 113.417 186.167 111.008 183.997C110.049 182.994 109.699 181.572 109.914 179.732C110.364 176.767 111.797 174.132 114.468 171.329C115.934 169.856 117.317 168.61 119.17 168.29C120.583 168.117 120.481 169.238 120.308 169.377C120.13 169.337 119.82 169.346 119.602 169.486C119.428 169.625 118.908 170.042 118.881 170.669C118.864 171.654 119.882 171.581 120.312 171.122C120.784 170.572 121.462 169.434 120.854 168.288C120.62 167.847 120.213 167.545 119.676 167.381C117.982 167.026 116.403 167.606 114.958 168.228C111.814 169.926 109.315 172.501 107.982 175.58C107.191 177.436 106.515 180.229 107.742 182.924C108.682 184.822 110.49 186.114 112.669 186.367C114.18 186.504 116.036 186.318 117.275 186.239C118.515 186.204 124.856 184.731 127.094 188.695C127.094 188.695 127.766 187.379 129.497 187.465C130.959 187.425 133.059 188.037 134.597 189.158C134.087 188.367 132.592 187.2 131.373 186.384Z" fill="white"/>
<path d="M120.976 172.669C119.753 171.719 117.392 172.903 115.55 175.191C113.877 177.206 113.195 179.775 114.032 181.184C115.32 182.893 117.532 181.131 118.479 180.12C118.522 180.075 118.565 180.029 118.608 179.983C119.256 179.383 119.721 178.565 120.187 177.791C120.187 177.791 120.611 177.108 120.654 177.063C120.92 177.055 121.273 177.001 121.67 176.945C121.67 176.945 120.272 179.265 120.439 180.469C120.493 180.825 120.487 182.212 121.832 182.757C123.618 183.244 124.958 181.999 126.168 180.891C126.168 180.891 126.384 180.706 126.47 180.614C126.43 180.75 126.389 180.885 126.389 180.885C125.952 182.687 126.673 183.114 127.076 183.282C128.42 183.782 129.919 181.906 129.919 181.906C129.891 182.488 129.772 182.983 130.448 183.412C131.076 183.663 131.643 183.334 132.123 183.052C133.776 181.933 135.055 180.108 136.074 178.513C135.808 178.521 135.675 178.525 135.365 178.533C135.365 178.533 133.705 180.995 132.656 181.516C132.656 181.516 132.437 181.612 132.346 181.525C132.209 181.395 132.246 181.125 132.331 180.989C132.331 180.989 136.383 173.673 136.382 173.628C135.584 173.65 135.185 173.617 134.387 173.639L134.176 174.003C134.176 174.003 134.129 173.914 134.085 173.916C132.796 172.207 130.03 174.744 128.03 177.708C127.263 178.848 126.234 180.084 125.195 180.963C125.195 180.963 123.636 182.304 122.94 181.16C122.661 180.675 122.732 180.047 122.853 179.641C123.591 177.473 124.912 175.557 126.432 174.441C126.866 174.116 127.352 174.058 127.578 174.231C127.804 174.359 127.858 174.715 127.731 174.942C127.376 174.907 127.068 175.005 126.853 175.235C126.422 175.694 126.258 176.146 126.403 176.59C127.143 177.688 128.506 175.726 128.427 174.475C128.371 174.03 128.137 173.589 127.776 173.375C127.235 173.032 126.438 173.054 125.956 173.247C125.252 173.445 124.211 174.279 123.564 174.924C122.79 175.751 121.438 176.549 120.99 176.382C121.112 175.976 122.201 173.709 120.976 172.669ZM130.712 176.962C131.097 176.459 132.166 175.043 132.469 174.766C133.378 173.98 133.742 174.328 133.793 174.595C132.95 176.139 131.98 177.911 131.048 179.458L130.75 179.914C130.325 180.552 129.941 181.1 129.241 181.432C129.152 181.435 128.975 181.44 128.884 181.353C128.749 181.267 128.7 181.089 128.696 180.955C128.728 180.507 129.218 179.017 130.712 176.962ZM119.855 176.995C119.855 176.995 119.856 177.04 119.812 177.041L118.962 178.362C118.448 179.003 117.849 179.78 117.015 180.072C116.795 180.123 116.44 180.132 116.256 179.869C115.888 179.387 116.049 178.801 116.169 178.35C116.168 178.306 116.211 178.26 116.209 178.17C116.621 177.04 117.26 176.128 117.901 175.26L117.945 175.259C118.368 176.142 119.179 176.611 119.762 176.864C119.897 176.905 119.854 176.951 119.855 176.995ZM120.608 175.408L120.233 176.269C120.19 176.315 120.101 176.273 120.011 176.23C119.921 176.188 119.921 176.188 119.832 176.191C119.294 175.937 118.884 175.546 118.738 175.102C118.538 174.258 119.231 173.702 119.535 173.47C119.84 173.282 120.283 173.27 120.555 173.486C120.738 173.705 120.79 173.972 120.798 174.24C120.853 174.641 120.731 175.047 120.608 175.408Z" fill="white"/>
<path d="M146.046 178.505C145.858 178.108 145.364 177.898 144.878 177.956C143.29 178.224 141.777 179.608 141.034 181.552C140.618 182.548 140.419 183.359 140.321 184.615C140.792 184.02 141.784 183.053 142.92 182.44C142.92 182.44 143.063 181.228 143.785 180.089C144.083 179.633 144.637 178.857 145.35 178.972C145.93 179.135 145.799 180.794 145.047 182.425C144.504 183.648 143.652 184.88 142.789 185.709C142.012 186.447 140.884 187.328 139.803 186.732C139.129 186.392 138.797 185.596 138.811 184.522C139.039 181.563 140.299 179.023 142.122 176.064C143.995 173.283 146.131 170.405 148.963 168.626C149.528 168.252 150.1 168.102 150.591 168.223C150.591 168.223 147.895 170.087 146.69 172.984C146.358 173.799 145.943 174.795 146.409 175.632C146.643 176.073 147.086 176.06 147.438 175.961C149.018 175.425 150.037 173.786 150.837 172.287C151.295 171.201 151.706 170.071 151.675 168.953C151.672 168.819 151.667 168.641 151.663 168.506C152.402 167.994 154.011 168.486 154.011 168.486C155.259 168.72 157.871 170.213 158.763 170.412C159.19 169.819 159.829 168.906 160.215 168.448C159.991 168.365 159.857 168.324 159.632 168.196C158.691 167.819 157.751 167.487 156.765 167.112C154.572 166.323 152.818 166.998 151.944 167.47C151.595 167.658 151.289 167.801 151.289 167.801C150.606 167.149 149.504 167.358 148.714 167.649C145.821 168.803 143.18 171.068 140.402 174.769C138.354 177.645 137.092 180.051 136.448 182.396C135.96 183.975 135.848 186.349 137.215 187.698C138.356 188.875 139.854 188.565 140.905 188.088C143.175 186.862 145.142 184.257 146.081 181.368C146.281 180.601 146.514 179.387 146.046 178.505ZM151.06 169.149C150.848 172.69 148.21 175.045 147.552 175.287C147.157 175.432 146.445 175.318 147.023 173.78C147.853 171.744 149.352 169.868 151.006 168.793C151.054 168.926 151.057 169.015 151.06 169.149Z" fill="white"/>
<path d="M166.805 166.341C165.42 167.543 163.983 168.477 162.173 168.707C161.704 169.391 161.236 170.075 160.813 170.802C163.342 170.911 165.941 168.736 167.354 166.952C168.854 165.121 169.597 163.132 169.597 163.132C169.641 163.13 168.492 164.863 166.805 166.341Z" fill="white"/>
<path d="M139.746 173.49C138.993 173.511 138.595 173.522 137.842 173.543C137.419 174.271 137.206 174.59 136.827 175.316C137.58 175.295 137.979 175.284 138.732 175.263C139.112 174.582 139.323 174.218 139.746 173.49Z" fill="white"/>
<path d="M162.582 183.459C162.365 183.644 162.098 183.607 162.177 183.247C162.419 182.39 163.43 180.483 163.43 180.483C164.516 178.082 165.103 176.902 166.188 174.456C165.396 174.657 165 174.758 164.207 174.958C164.124 175.14 163.913 175.548 163.913 175.548C163.821 175.417 163.548 175.156 163.413 175.07C162.919 174.86 162.219 175.193 161.743 175.608C159.621 177.368 158.149 180.227 156.924 182.409C156.924 182.409 155.662 184.86 154.96 185.103C154.388 185.253 154.41 184.447 154.449 184.267C154.633 182.92 155.129 181.608 155.583 180.388C156.621 179.464 157.785 178.313 158.813 177.032C161.086 174.285 162.996 171.234 163.244 170.601C163.244 170.601 162.938 170.743 162.586 170.843C160.852 173.844 157.297 178.282 156.165 179.029C156.616 177.719 159.676 171.371 162.284 167.943C162.455 167.715 162.541 167.623 162.713 167.439C163.355 166.616 163.997 165.793 164.521 165.51C164.565 165.508 164.653 165.461 164.701 165.594C164.759 166.085 164.55 166.538 164.341 166.991C164.215 167.263 164.175 167.398 164.051 167.715C164.051 167.715 164.488 167.524 164.75 167.382C165.041 166.658 165.374 165.889 165.219 165.088C165.167 164.821 164.986 164.691 164.72 164.699C163.924 164.766 163.061 165.595 162.37 166.24C162.37 166.24 162.37 166.24 162.327 166.286C158.282 170.649 155.366 175.786 153.25 180.989C153.078 181.173 152.288 181.464 152.153 181.378C152.403 180.789 152.735 179.975 152.888 179.12C152.926 178.896 152.919 178.627 152.913 178.404C152.899 177.912 152.754 177.469 152.303 177.213C151.767 177.049 151.152 177.245 150.715 177.481C148.795 178.563 147.392 180.705 146.378 182.478C145.832 183.567 145.288 184.745 145.191 186.045C145.131 187.076 145.37 187.696 145.954 187.992C146.538 188.245 147.281 187.866 147.586 187.679C149.545 186.416 150.856 184.143 151.906 182.056C151.95 182.055 152.523 181.949 153.006 181.757C152.964 181.847 152.762 182.569 152.762 182.569C152.112 184.69 151.842 186.129 152.527 186.87C153.486 187.873 154.997 186.444 156.189 184.666C155.977 186.596 156.956 186.747 157.701 186.458C158.533 186.077 159.476 184.933 159.904 184.384C159.787 184.969 159.859 185.951 160.61 185.885C161.142 185.871 161.531 185.502 161.964 185.132C163.567 183.835 165.42 180.338 165.923 179.295C165.659 179.347 165.527 179.396 165.263 179.448C164.591 180.809 163.709 182.533 162.582 183.459ZM147.799 185.794C147.707 185.662 147.658 185.484 147.653 185.306C147.622 184.188 148.758 182.009 149.61 180.777C149.985 181.527 150.839 181.951 151.33 182.072C150.706 183.521 148.711 186.708 147.799 185.794ZM151.622 181.393C151.579 181.438 150.509 181.244 150.306 180.311C150.107 179.511 150.663 178.78 151.184 178.407C151.399 178.177 151.751 178.078 152.018 178.116C152.243 178.243 152.339 178.509 152.348 178.822C152.353 179.001 152.315 179.226 152.32 179.405L152.321 179.449C152.163 180.125 151.915 180.803 151.622 181.393ZM159.923 183.489L159.753 183.717C159.495 184.037 159.194 184.359 158.882 184.278C158.793 184.28 158.701 184.149 158.698 184.059C158.678 183.344 158.969 182.62 159.259 181.896C159.301 181.806 159.301 181.806 159.342 181.715C160.182 180.036 161.146 178.041 162.61 176.479C162.869 176.248 163.129 176.017 163.44 176.054C163.53 176.096 163.577 176.184 163.58 176.318C163.582 176.363 163.54 176.453 163.541 176.498C163.12 177.315 162.744 178.131 162.411 178.901C161.612 180.444 160.902 182.03 159.923 183.489Z" fill="white"/>
</g>
<path d="M87.4324 149.707L76.6749 187.185C75.7627 190.363 76.2147 193.782 78.8887 195.726C81.2256 197.426 84.9532 199.499 90.7817 201.416C91.9413 201.797 93.1532 201.022 93.3239 199.813L99.7722 154.151C99.9048 153.212 99.3569 152.311 98.4699 151.974C94.9166 150.626 92.2714 149.352 90.5542 148.441C89.3584 147.807 87.8058 148.406 87.4324 149.707Z" fill="#A0221F"/>
<path d="M190.568 149.707L201.325 187.185C202.237 190.363 201.785 193.782 199.111 195.726C196.774 197.426 193.047 199.499 187.218 201.416C186.059 201.797 184.847 201.022 184.676 199.813L178.228 154.151C178.095 153.212 178.643 152.311 179.53 151.974C183.083 150.626 185.729 149.352 187.446 148.441C188.642 147.807 190.194 148.406 190.568 149.707Z" fill="#A0221F"/>
<path d="M87.4329 149.707C87.8063 148.406 89.3522 147.803 90.5478 148.438C96.4128 151.549 113.136 158.922 139.916 158.922C166.574 158.922 183.267 151.616 189.203 148.48C190.422 147.836 192.001 148.477 192.341 149.812L201.921 187.36C202.706 190.435 202.232 193.706 199.683 195.596C193.661 200.061 177.945 207.259 139.197 207.259C100.822 207.259 85.0373 200.199 78.8874 195.725C76.2136 193.78 75.7632 190.363 76.6754 187.185L87.4329 149.707Z" stroke="#1D1D1B" stroke-width="3" stroke-linejoin="round"/>
<path d="M182.72 192.1C173.155 194.582 159.265 196.512 139.197 196.512C117.572 196.512 103.121 194.27 93.5244 191.513" stroke="#1D1D1B" stroke-width="3" stroke-linecap="round" stroke-linejoin="round"/>
<circle cx="119.316" cy="97.6439" r="3.22395" fill="white"/>
<circle cx="94.599" cy="112.689" r="3.22395" fill="white"/>
<circle cx="157.836" cy="103.836" r="4.83593" fill="white"/>
<circle cx="202.601" cy="96.032" r="4.83593" fill="white"/>
<circle cx="77.9419" cy="88.5095" r="4.83593" fill="white"/>
<circle cx="103.196" cy="83.6734" r="3.22395" fill="white"/>
<circle cx="72.0311" cy="75.0762" r="3.22395" fill="white"/>
<circle cx="116.092" cy="125.585" r="3.22395" fill="white"/>
<circle cx="130.224" cy="135.224" r="3.22395" fill="white"/>
<circle cx="171.224" cy="139.224" r="3.22395" fill="white"/>
<circle cx="189.224" cy="142.224" r="3.22395" fill="white"/>
<circle cx="182.72" cy="108.39" r="3.22395" fill="white"/>
<circle cx="147.257" cy="67.5538" r="3.22395" fill="white"/>
<circle cx="145.107" cy="119.137" r="3.22395" fill="white"/>
<circle cx="134.5" cy="94.5" r="2.5" fill="white"/>
<circle cx="163.5" cy="128.5" r="2.5" fill="white"/>
<path d="M169.728 181.816C171.477 179.848 190.954 199.444 191.96 200.459C191.993 200.492 192.021 200.511 192.061 200.534C192.409 200.727 192.404 201.226 192.042 201.391C187.483 203.466 166.277 213.068 165.844 212.327C162.367 206.378 169.728 202 169.728 202C169.728 202 163.5 201.5 164 196.5C164.5 191.5 170.5 192.5 170.5 192.5C170.5 192.5 166.732 185.188 169.728 181.816Z" fill="#367035" stroke="#1D1D1B" stroke-width="3" stroke-linejoin="round"/>
<path d="M246.786 190.526C245.592 188.312 223.556 200.513 220.515 202.21C220.287 202.338 220.133 202.549 220.073 202.803C219.99 203.154 220.104 203.511 220.385 203.737C223.591 206.304 242.937 221.751 243.546 221.112C248.298 216.123 242.142 210.168 242.142 210.168C242.142 210.168 248.318 211.115 248.982 206.134C249.646 201.153 243.577 200.746 243.577 200.746C243.577 200.746 248.926 194.497 246.786 190.526Z" fill="#367035" stroke="#1D1D1B" stroke-width="3" stroke-linejoin="round"/>
<circle cx="181.646" cy="22.4183" r="3.22395" fill="white"/>
<circle cx="156.224" cy="29.224" r="3.22395" fill="white"/>
<circle cx="197.228" cy="59.4939" r="4.83593" fill="white"/>
<circle cx="137.047" cy="14.3584" r="4.83593" fill="white"/>
<circle cx="117.836" cy="50.8359" r="4.83593" fill="white"/>
<circle cx="109.644" cy="22.4183" r="3.22395" fill="white"/>
<circle cx="175.198" cy="55.7325" r="3.22395" fill="white"/>
<circle cx="95.1362" cy="47.6726" r="4.83593" fill="white"/>
<circle cx="205.5" cy="201.5" r="19.5" fill="#FFDB5D"/>
<path d="M225 201.5C225 212.269 216.27 221 205.5 221C194.73 221 186 212.269 186 201.5C186 196.5 188 213.5 204.5 213.5C225.5 213.5 225 190.73 225 201.5Z" fill="#DCB427"/>
<circle cx="205.5" cy="201.5" r="19.5" stroke="#1D1D1B" stroke-width="3"/>
<path d="M65.3077 179.514C69.34 195.571 58.3285 206.825 42.2717 210.857C26.2148 214.889 11.193 210.174 7.16071 194.117C3.12842 178.06 13.0166 162.333 29.0735 158.301C45.1303 154.269 61.2754 163.458 65.3077 179.514Z" fill="#FF833D"/>
<path d="M65.3078 179.514C69.3401 195.571 58.3286 206.825 42.2718 210.857C26.2149 214.889 10.5323 208.557 6.5 192.5C6.21955 191.383 11.9557 204.533 27.5 205.5C50 206.899 62.0005 196.5 65.3078 179.514Z" fill="#E36823"/>
<path d="M25.2692 169.128C24.4512 168.997 23.6819 169.554 23.5508 170.372C23.4198 171.19 23.9767 171.959 24.7947 172.09L25.2692 169.128ZM35.1773 167.604C35.7625 167.018 35.7615 166.068 35.175 165.483C34.5886 164.898 33.6389 164.899 33.0537 165.485L35.1773 167.604ZM63.8529 179.88C65.7577 187.465 64.1078 193.809 60.1514 198.758C56.1561 203.757 49.7157 207.441 41.9063 209.402L42.637 212.312C50.8845 210.241 57.9782 206.282 62.4948 200.632C67.0503 194.932 68.89 187.621 66.7625 179.149L63.8529 179.88ZM41.9063 209.402C34.0969 211.363 26.68 211.159 20.7972 208.641C14.9717 206.148 10.5204 201.336 8.61554 193.751L5.70589 194.482C7.83335 202.954 12.9091 208.528 19.6168 211.399C26.2672 214.246 34.3896 214.383 42.637 212.312L41.9063 209.402ZM8.61554 193.751C4.79423 178.535 14.1483 163.596 29.4388 159.756L28.7081 156.846C11.885 161.071 1.4626 177.585 5.70589 194.482L8.61554 193.751ZM29.4388 159.756C44.7294 155.916 60.0315 164.663 63.8529 179.88L66.7625 179.149C62.5192 162.252 45.5313 152.622 28.7081 156.846L29.4388 159.756ZM24.7947 172.09C26.7692 172.406 31.0787 171.712 35.1773 167.604L33.0537 165.485C29.5545 168.992 26.1847 169.275 25.2692 169.128L24.7947 172.09Z" fill="#1D1D1B"/>
<circle cx="163.5" cy="19.5" r="2.5" fill="white"/>
<circle cx="118.5" cy="32.5" r="2.5" fill="white"/>
<defs>
<clipPath id="clip0_711_2549">
<rect width="63" height="25" fill="white" transform="translate(106.665 164.879) rotate(-1.59047)"/>
</clipPath>
</defs>
</svg>
