<svg width="287" height="219" viewBox="0 0 287 219" fill="none" xmlns="http://www.w3.org/2000/svg">
<g clip-path="url(#clip0_711_1515)">
<path d="M255.97 122.57C246.99 147.37 230.11 157.15 209.35 149.63C188.59 142.11 181.89 123.79 190.88 98.99C199.87 74.19 234.21 58.17 241.52 60.83C249.34 63.66 264.95 97.77 255.97 122.57Z" fill="#593A2C"/>
<path d="M255.97 122.57C246.99 147.37 230.11 157.15 209.35 149.63C188.59 142.11 181.89 123.79 190.88 98.99C199.87 74.19 234.21 58.17 241.52 60.83C249.34 63.66 264.95 97.77 255.97 122.57Z" stroke="#1D1D1B" stroke-width="3" stroke-miterlimit="10" stroke-linecap="round"/>
<path d="M238.91 149.19L189.45 107.61" stroke="#1D1D1B" stroke-width="3" stroke-miterlimit="10"/>
<path d="M186.92 130.35L251.54 130.1" stroke="#1D1D1B" stroke-width="3" stroke-miterlimit="10"/>
<path d="M195.62 112.38L257.52 104.87" stroke="#1D1D1B" stroke-width="3" stroke-miterlimit="10"/>
<path d="M244.17 129.96L201.51 84.5801" stroke="#1D1D1B" stroke-width="3" stroke-miterlimit="10"/>
<path d="M207.09 92.3101L255.93 82.3401" stroke="#1D1D1B" stroke-width="3" stroke-miterlimit="10"/>
<path d="M247.96 107.11L216.06 67.54" stroke="#1D1D1B" stroke-width="3" stroke-miterlimit="10"/>
<path d="M237.51 156.16L124.01 190.04L88.32 200.7L85.01 183.76L81.7 166.81L57.72 43.9899L202.09 9.10986L234.45 143.44L237.51 156.16Z" fill="#E3302B"/>
<path d="M146.95 183.6L88.32 200.7L85.01 183.76L77.95 151.6C84.95 169.6 116.95 192.6 146.95 183.6Z" fill="#9E221F"/>
<path d="M57.73 43.99L88.32 200.7L16.13 161.25L57.73 43.99Z" fill="#891010"/>
<path d="M57.73 43.9899L88.32 200.7L237.52 156.15L202.09 9.09985L57.73 43.9899Z" stroke="#1D1D1B" stroke-width="3" stroke-miterlimit="10" stroke-linecap="round" stroke-linejoin="round"/>
<path d="M68.15 51.05L95.19 189.6L227.1 150.21L195.78 20.21L68.15 51.05Z" fill="white"/>
<path d="M68.0004 50.9964L95.0004 190L101 188L87.2504 119.253L72.5004 50L68.0004 50.9964Z" fill="#C7DFF4"/>
<path d="M57.73 43.99L16.13 161.25L88.32 200.7" stroke="#1D1D1B" stroke-width="3" stroke-miterlimit="10" stroke-linecap="round" stroke-linejoin="round"/>
<path d="M16.13 161.25L77.77 146.67" stroke="#1D1D1B" stroke-width="3" stroke-miterlimit="10" stroke-linecap="round" stroke-linejoin="round"/>
<path d="M65.71 41.3099C65.26 33.7199 71.05 27.1999 78.65 26.7499C86.24 26.2999 92.76 32.0899 93.21 39.6899C93.66 47.2799 87.87 53.7999 80.27 54.2499" stroke="#1D1D1B" stroke-width="3" stroke-miterlimit="10" stroke-linecap="round" stroke-linejoin="round"/>
<path d="M99.52 32.7198C99.07 25.1298 104.86 18.6098 112.46 18.1598C120.05 17.7098 126.57 23.4998 127.02 31.0998C127.47 38.6898 121.68 45.2098 114.08 45.6598" stroke="#1D1D1B" stroke-width="3" stroke-miterlimit="10" stroke-linecap="round" stroke-linejoin="round"/>
<path d="M133.87 24.67C133.42 17.08 139.21 10.56 146.81 10.11C154.4 9.66 160.92 15.45 161.37 23.05C161.82 30.64 156.03 37.16 148.43 37.61" stroke="#1D1D1B" stroke-width="3" stroke-miterlimit="10" stroke-linecap="round" stroke-linejoin="round"/>
<path d="M168.22 16.0899C167.77 8.49992 173.56 1.97992 181.16 1.52992C188.75 1.07992 195.27 6.86992 195.72 14.4699C196.17 22.0699 190.38 28.5799 182.78 29.0299" stroke="#1D1D1B" stroke-width="3" stroke-miterlimit="10" stroke-linecap="round" stroke-linejoin="round"/>
<path d="M152.59 59.0764L140.195 62.5811L163.721 145.782L176.115 142.277L152.59 59.0764Z" fill="#1D1D1B"/>
<path d="M143.974 137.088L147.712 150.31L192.122 137.753L188.384 124.531L143.974 137.088Z" fill="#1D1D1B"/>
<path d="M126.6 101.31L122.98 88.5099C131.37 86.1399 136.94 82.5299 139.55 77.7899C142.76 71.9499 140.84 65.4999 140.12 63.0799L139.95 62.5099L152.75 58.8899L152.87 59.2799C155.68 68.6999 155.12 77.0899 151.21 84.2099C146.82 92.1799 138.54 97.9399 126.6 101.31Z" fill="#1D1D1B"/>
<path d="M92.05 161.25C92.05 161.25 105.76 137.64 113.27 138.71C120.78 139.78 119.31 142.47 120.85 147.83C122.39 153.2 129.37 153.2 130.44 158.56C131.51 163.93 126.68 166.61 126.15 170.37C125.61 174.13 127.22 177.35 123.47 181.1C119.71 184.86 97.12 177.74 97.12 177.74" fill="#66984E"/>
<path d="M96.57 171.33L112.01 168.77" stroke="#1D1D1B" stroke-width="3" stroke-miterlimit="10" stroke-linecap="round"/>
<path d="M94.89 167.03L106.28 156.3" stroke="#1D1D1B" stroke-width="3" stroke-miterlimit="10" stroke-linecap="round"/>
<path d="M92.05 161.25C92.05 161.25 105.76 137.64 113.27 138.71C120.78 139.78 119.31 142.47 120.85 147.83C122.39 153.2 129.37 153.2 130.44 158.56C131.51 163.93 126.68 166.61 126.15 170.37C125.61 174.13 127.22 177.35 123.47 181.1C119.71 184.86 97.12 177.74 97.12 177.74" stroke="#1D1D1B" stroke-width="3" stroke-miterlimit="10"/>
<path d="M35.2 182.43C35.2 182.43 10.55 170.67 4.95999 175.8C-0.630006 180.93 2.08999 182.31 3.84999 187.61C5.60999 192.91 -0.150006 196.85 1.98999 201.88C4.12999 206.91 9.62999 206.41 12.2 209.2C14.77 211.99 15.25 215.57 20.47 216.55C25.69 217.53 40.32 198.9 40.32 198.9" fill="#66984E"/>
<path d="M37.15 193.3L22.96 199.9" stroke="#1D1D1B" stroke-width="3" stroke-miterlimit="10" stroke-linecap="round"/>
<path d="M36.18 188.26L20.59 186.91" stroke="#1D1D1B" stroke-width="3" stroke-miterlimit="10" stroke-linecap="round"/>
<path d="M35.2 182.43C35.2 182.43 10.55 170.67 4.95999 175.8C-0.630006 180.93 2.08999 182.31 3.84999 187.61C5.60999 192.91 -0.150006 196.85 1.98999 201.88C4.12999 206.91 9.62999 206.41 12.2 209.2C14.77 211.99 15.25 215.57 20.47 216.55C25.69 217.53 40.32 198.9 40.32 198.9" stroke="#1D1D1B" stroke-width="3" stroke-miterlimit="10"/>
<path d="M97.17 179.5C97.17 196.99 82.99 211.17 65.51 211.17C57.68 211.17 50.51 208.32 44.99 203.61C38.16 197.81 33.84 189.16 33.84 179.5C33.84 162.02 48.02 147.84 65.51 147.84C81.3 147.84 94.39 159.4 96.78 174.52C97.04 176.14 97.17 177.81 97.17 179.5Z" fill="#66984E"/>
<path d="M76.51 208.21C102.23 174.46 61.21 169.3 63.09 149.17L53.22 150.3L42.99 157.24C42.17 174.93 81.88 176.01 56.17 209.76H67.4L76.51 208.21Z" fill="#B1E372"/>
<path opacity="0.46" d="M97.17 179.5C97.17 196.99 82.99 211.17 65.51 211.17C57.68 211.17 50.51 208.32 44.99 203.61C66.95 211.6 90.95 199.58 94.95 178.6C95.38 176.35 96 175.05 96.78 174.52C97.04 176.14 97.17 177.81 97.17 179.5Z" fill="black"/>
<path d="M65.51 211.16C82.9953 211.16 97.17 196.985 97.17 179.5C97.17 162.015 82.9953 147.84 65.51 147.84C48.0247 147.84 33.85 162.015 33.85 179.5C33.85 196.985 48.0247 211.16 65.51 211.16Z" stroke="#1D1D1B" stroke-width="3" stroke-miterlimit="10"/>
<path d="M283.3 136.49C281.41 145.32 277.88 154.07 272.1 160.84C258.01 177.36 242.47 182.48 228.05 175.77C224.95 174.33 221.91 172.35 218.94 169.82C202.14 155.48 202.31 135.98 219.43 115.91C236.55 95.84 274.33 92.91 280.25 97.96C284.44 101.54 287.02 119.16 283.3 136.49Z" fill="#785240"/>
<path opacity="0.29" d="M283.95 130.6C282.06 139.43 277.73 153.83 271.95 160.6C257.86 177.12 242.47 182.48 228.05 175.77C239.95 174.6 271.95 168.6 283.95 130.6Z" fill="black"/>
<path d="M272.1 160.84C254.98 180.91 235.74 184.14 218.94 169.81C202.14 155.48 202.3 135.97 219.43 115.9C236.56 95.83 274.33 92.9 280.25 97.95C286.58 103.35 289.22 140.77 272.1 160.84Z" stroke="#1D1D1B" stroke-width="3" stroke-miterlimit="10" stroke-linecap="round"/>
<path d="M246.79 178.78L215.07 123.48" stroke="#1D1D1B" stroke-width="3" stroke-miterlimit="10"/>
<path d="M205.72 143.89L265.31 166.34" stroke="#1D1D1B" stroke-width="3" stroke-miterlimit="10"/>
<path d="M219.18 130.11L279.77 144.81" stroke="#1D1D1B" stroke-width="3" stroke-miterlimit="10"/>
<path d="M258.46 163.62L234.45 106.15" stroke="#1D1D1B" stroke-width="3" stroke-miterlimit="10"/>
<path d="M237.96 115.34L286.13 123.52" stroke="#1D1D1B" stroke-width="3" stroke-miterlimit="10"/>
<path d="M270.03 143.56L254.06 97.3" stroke="#1D1D1B" stroke-width="3" stroke-miterlimit="10"/>
</g>
<defs>
<clipPath id="clip0_711_1515">
<rect width="286.59" height="218.1" fill="white"/>
</clipPath>
</defs>
</svg>
