<svg width="313" height="239" viewBox="0 0 313 239" fill="none" xmlns="http://www.w3.org/2000/svg">
<path d="M296 136L298.072 143.398C298.653 145.474 300.304 147.079 302.396 147.601L308 149L302.396 150.399C300.304 150.921 298.653 152.526 298.072 154.602L296 162L293.928 154.602C293.347 152.526 291.696 150.921 289.604 150.399L284 149L289.604 147.601C291.696 147.079 293.347 145.474 293.928 143.398L296 136Z" fill="#FFDB5D" stroke="black" stroke-width="3" stroke-linejoin="round"/>
<path d="M273 162L275.593 171.023C276.784 175.164 280.103 178.35 284.29 179.368L291 181L284.29 182.632C280.103 183.65 276.784 186.836 275.593 190.977L273 200L270.407 190.977C269.216 186.836 265.897 183.65 261.71 182.632L255 181L261.71 179.368C265.897 178.35 269.216 175.164 270.407 171.023L273 162Z" fill="#FFDB5D" stroke="black" stroke-width="3" stroke-linejoin="round"/>
<path d="M288.066 40.6287C301.325 47.4519 296.709 82.8404 277.755 119.671C258.802 156.502 232.688 180.827 219.429 174.004C214.418 171.425 198.534 163.251 198.534 163.251C198.534 163.251 208.282 165.921 222 154.5C235.719 143.079 251.146 120.848 257.5 108.5C263.654 96.5423 272.868 73.8225 274 57.5C277 34 267.17 29.8756 267.17 29.8756C267.17 29.8756 283.477 38.2671 288.066 40.6287Z" fill="#D1E9FF" stroke="#1D1D1B" stroke-width="3"/>
<path d="M266.726 29.6469C272.896 32.8224 275.195 42.1847 273.98 55C273.917 55.6577 273.081 60.3245 273 61C271.936 59.1207 270.802 47.3924 267.5 44.5C263.775 41.2361 258.5 41.5 253 44.5C245.667 48.5 235.755 58.374 228.5 69C222.282 78.1073 217.652 87.3477 215 92.5C207.894 106.31 196.407 141.695 206 151.5C211 156.611 218.825 154.5 229 147.5C227.5 150 220.755 156.07 218.825 157.5C210.714 163.509 203.379 165.745 198.089 163.023C184.83 156.199 189.447 120.811 208.4 83.9802C227.353 47.1495 253.467 22.8237 266.726 29.6469Z" fill="#82AACF" stroke="#1D1D1B" stroke-width="3"/>
<ellipse cx="236.915" cy="98.1686" rx="62" ry="22.1933" transform="rotate(-62.7692 236.915 98.1686)" fill="white" fill-opacity="0.4" stroke="#1D1D1B" stroke-width="3"/>
<path d="M177.886 216.035C176.726 214.564 176.557 212.543 177.456 210.899L202.24 165.577L216 172.5L191.545 218.082C190.638 219.772 188.829 220.778 186.914 220.655L186.653 220.639C183.209 220.418 180.022 218.745 177.886 216.035V216.035Z" fill="#82AACF" stroke="#1D1D1B" stroke-width="3" stroke-linejoin="round"/>
<path d="M200.242 186.292C191.742 200.292 191.742 211.126 195.742 212.792H198.742C201.987 212.792 205.206 211.722 206.908 208.959C209.945 204.029 212.614 196.253 212.242 191.792L200.242 186.292Z" fill="white" stroke="#1D1D1B" stroke-width="3" stroke-linejoin="round"/>
<path d="M217.242 183.792L207.742 176.792C200.942 171.992 182.743 177.793 176.742 180.292C171.872 187.714 163 194 170.5 202.5L180.242 205.292L183.742 197.792C191.242 198.792 198.242 191.292 197.742 184.792C199.576 186.792 201.242 188.792 207.742 189.792C214.731 190.868 217.576 187.792 217.242 183.792Z" fill="white" stroke="#1D1D1B" stroke-width="3" stroke-linejoin="round"/>
<path d="M172.5 205.5L181 178.5L150.242 173.792L138.742 152.292L122.742 200.792L172.5 205.5Z" fill="#054467" stroke="#1D1D1B" stroke-width="3" stroke-linejoin="round"/>
<path d="M220.626 129.676L224.267 131.481C227.885 133.274 232.265 131.643 233.83 127.921L235.851 123.111L248.85 100.448L253.027 81.3493L243.114 76.4352L230.442 91.3217L220.275 115.389L217.67 119.91C215.654 123.408 217.009 127.882 220.626 129.676Z" fill="#595959"/>
<path d="M247.749 67.0865C248.485 65.6021 250.285 64.9953 251.769 65.7312L256.306 67.9803C257.79 68.7162 258.397 70.5162 257.661 72.0006L256.186 74.977L246.273 70.0629L247.749 67.0865Z" fill="#E3302B"/>
<path d="M230.442 91.3218L220.274 115.389L235.851 123.111L248.85 100.448L230.442 91.3218Z" fill="#E3302B"/>
<path d="M248.471 66.964C249.021 66.1065 250.129 65.8002 251.042 66.2529L256.331 68.8748C257.244 69.3274 257.67 70.3943 257.321 71.3517L256.709 73.0315L253.026 81.3493L249.603 97.0071C249.103 99.2898 248.287 101.491 247.176 103.547L236.242 123.792L234.327 128.35C232.724 132.164 228.179 133.764 224.54 131.793L219.738 129.192C216.275 127.317 215.04 122.955 217.006 119.542L219.742 114.792L228.993 94.4986C229.954 92.3909 231.203 90.4271 232.705 88.6633L243.114 76.4352L247.505 68.4684L248.471 66.964Z" stroke="#1D1D1B" stroke-width="3" stroke-linejoin="round"/>
<path d="M208.325 45.5625L162.242 36.2925L134.742 41.7925C122.409 44.7925 104.142 52.1925 129.742 57.7925C155.342 63.3925 167.409 65.1258 170.242 65.2925C218.443 69.3711 217.031 55.8991 211.788 47.8028C211.01 46.6012 209.729 45.8448 208.325 45.5625Z" fill="#851815" stroke="#1D1D1B" stroke-width="3" stroke-linejoin="round"/>
<path d="M42.1236 123.294C60.1295 122.589 94.4589 121.8 97.5648 125.869L75.242 218.792H22.1048C11.211 218.792 3.50234 208.143 6.90559 197.794L27.8319 134.162C29.8887 127.907 35.5448 123.551 42.1236 123.294Z" fill="#367035" stroke="#1D1D1B" stroke-width="3" stroke-linejoin="round"/>
<path d="M95.2422 134.792L105.742 119.792L111.242 109.292L137.242 119.792L125.742 153.292L95.2422 134.792Z" fill="white" stroke="#1D1D1B" stroke-width="3" stroke-linejoin="round"/>
<path d="M64.8301 141.673C80.5428 126.111 94.2838 124.024 110.242 129.292L124.012 134.136C137.651 138.934 148.756 149.245 153.625 162.859C155.157 167.143 156.618 171.498 157.715 175.309C159.689 182.174 161.487 190.78 162.916 198.52C165.318 211.519 161.765 225.404 149.453 230.215C142.578 232.902 133.278 235 121 235C86.4998 235 76.1393 225.891 68.742 228.792C49.4998 235 32.3796 236.097 26.2418 215.429C20.104 194.761 45.1893 161.125 64.8301 141.673Z" fill="#08679C"/>
<path d="M115 202L72.9998 227.5L83.4998 230.5C83.4998 230.5 109.5 208 115 202Z" fill="#054467"/>
<path d="M68.742 228.792C49.4998 235 32.3796 236.097 26.2418 215.429C20.104 194.761 45.1893 161.125 64.8301 141.673C80.5428 126.111 94.2838 124.024 110.242 129.292L124.012 134.136C137.651 138.934 148.756 149.245 153.625 162.859C155.157 167.143 156.618 171.498 157.715 175.309C159.689 182.174 161.487 190.78 162.916 198.52C165.318 211.519 161.765 225.404 149.453 230.215C142.578 232.902 133.278 235 121 235C86.4998 235 76.1393 225.891 68.742 228.792ZM68.742 228.792C80.742 223.292 108.613 206.02 115.978 201.292L106.742 181.792C93.9209 181.252 64.5983 187.187 56.742 195.292" stroke="#1D1D1B" stroke-width="3" stroke-linecap="round" stroke-linejoin="round"/>
<path d="M182.242 74.7925C182.242 86.5975 178.446 100.196 171.785 110.81C165.11 121.444 155.763 128.792 144.742 128.792C122.046 128.792 100.714 108.273 100.714 84.951C100.714 61.5673 119.135 42.6836 141.77 42.6836C153.356 42.6836 163.496 45.0155 170.699 50.1453C177.822 55.2185 182.242 63.1448 182.242 74.7925Z" fill="white" stroke="#1D1D1B" stroke-width="3"/>
<path d="M87.3476 62.8966C90.5871 51.8593 98.8396 53.2812 104.373 50.2561L150.115 31.4575L181.47 41.1809L185.552 48.4782C193.791 50.3148 192.115 69.4792 184.052 73.9164C169.742 81.7925 159.344 75.4805 148.742 70.7925C146.557 69.8267 141.242 67.9957 137.742 71.2925C131.903 76.7925 131.242 82.2925 130.242 86.7925C128.393 95.1125 125.742 92.7925 123.742 89.2925C121.922 86.1072 120.271 81.7925 116.742 80.2925C101.742 73.9164 100.742 92.7925 106.242 98.7925C111.742 104.792 110.476 112.645 106.242 110.292C92.7421 102.792 82.2419 80.2925 87.3476 62.8966Z" fill="#1D1D1B" stroke="#1D1D1B" stroke-width="3" stroke-linejoin="round"/>
<path d="M167.242 89.2925V101.792H160.742" stroke="#1D1D1B" stroke-width="3" stroke-linecap="round" stroke-linejoin="round"/>
<path d="M146.27 107.645C144.906 111.427 152.742 116.792 158.955 113.319" stroke="#1D1D1B" stroke-width="3" stroke-linecap="round" stroke-linejoin="round"/>
<path d="M157.455 88.193C157.455 89.1414 156.674 89.935 155.681 89.935C154.688 89.935 153.908 89.1414 153.908 88.193C153.908 87.2445 154.688 86.4509 155.681 86.4509C156.674 86.4509 157.455 87.2445 157.455 88.193Z" fill="#1D1D1B" stroke="#1D1D1B" stroke-width="3"/>
<path d="M171.715 89.3881C170.939 89.6789 170.546 90.5436 170.837 91.3193C171.128 92.0949 171.993 92.4879 172.768 92.197L171.715 89.3881ZM178.742 91.7926C179.57 91.7926 180.242 91.121 180.242 90.2926C180.242 89.4642 179.57 88.7926 178.742 88.7926L178.742 91.7926ZM172.768 92.197C175.43 91.1988 176.315 91.7925 178.742 91.7926L178.742 88.7926C177.168 88.7925 175.053 88.1361 171.715 89.3881L172.768 92.197Z" fill="#1D1D1B"/>
<path d="M143.242 169.292C138.242 144.886 118.433 129.11 104.93 125.463C104.93 125.463 98.9559 124.74 95.2424 125.463C91.743 126.144 86.2424 127.792 86.2424 127.792C95.3808 126.982 117.613 132.075 128.742 165.792C139.872 199.51 122.32 230.853 114 234.5H130C148.5 218.5 146.582 185.595 143.242 169.292Z" fill="#367035" stroke="#1D1D1B" stroke-width="3" stroke-linejoin="round"/>
<path d="M114.242 174.792C111.656 177.666 107.242 181.793 107.242 181.793L115.242 201.292C116.742 201.292 124.447 199.433 131.242 200.792C133.742 201.292 141.742 198.759 145.242 197.292C150.97 194.892 151.577 181.388 149.94 173.688C146.812 158.973 131.936 170.446 128.663 166.799C121.843 159.201 118.742 169.792 114.242 174.792Z" fill="white" stroke="#1D1D1B" stroke-width="3" stroke-linejoin="round"/>
<path d="M161.742 35.7925L209.225 46.0723C209.582 46.1367 209.921 46.211 210.242 46.2925L209.225 46.0723C203.813 45.0961 194.265 46.3668 182.436 58.5974C178.308 62.8659 172.738 65.2439 166.902 64.1452C148.313 60.6456 108.742 52.7925 108.742 52.7925C108.742 52.7925 122.408 44.7925 134.742 41.7925L161.742 35.7925Z" fill="#E3302B"/>
<path d="M161.742 35.7925L210.242 46.2925C205.064 44.9761 195.046 45.5594 182.436 58.5974C178.308 62.8659 172.738 65.2439 166.902 64.1452C148.313 60.6456 108.742 52.7925 108.742 52.7925C108.742 52.7925 122.408 44.7925 134.742 41.7925L161.742 35.7925Z" stroke="#1D1D1B" stroke-width="3" stroke-linejoin="round"/>
<path d="M86.2418 82.7923C96.2427 77.7924 100.211 74.6839 127.743 60.2924C149.743 48.7924 175.743 38.7924 175.743 38.7924C175.743 38.7924 165.274 23.2464 157.743 19.2924C137.742 8.79241 121.779 14.2717 105.742 22.7924C84.346 34.1609 76.2417 61.2923 86.2418 82.7923Z" fill="#E3302B"/>
<path d="M86.2418 82.7924C96.2427 77.7924 100.211 74.684 127.743 60.2924C129 59.6353 100.015 74.0364 91.9998 58.5C80.4994 36.2074 121.779 14.2718 105.742 22.7925C84.346 34.1609 76.2417 61.2923 86.2418 82.7924Z" fill="#851815"/>
<path d="M86.2418 82.7923C96.2427 77.7924 100.211 74.6839 127.743 60.2924C149.743 48.7924 175.743 38.7924 175.743 38.7924C175.743 38.7924 165.274 23.2464 157.743 19.2924C137.742 8.79241 121.779 14.2717 105.742 22.7924C84.346 34.1609 76.2417 61.2923 86.2418 82.7923Z" stroke="#1D1D1B" stroke-width="3" stroke-linejoin="round"/>
<path d="M99.3378 67.4528C98.1573 66.9411 96.5637 67.5741 94.1352 69.9658C91.5217 72.3605 90.6757 73.4365 89.4322 72.85C88.9326 72.4788 88.7327 71.5717 88.7695 70.0537C88.9135 67.5478 89.5497 64.9579 90.7926 61.7511C91.4437 60.0713 92.0985 58.6191 93.0087 57.6938C93.6772 57.0759 93.6909 57.9102 93.57 58.0639C93.5096 58.1408 93.3258 58.2197 93.2049 58.3734C93.1458 58.5261 92.8461 59.0621 92.9152 59.5161C92.9276 60.2746 93.4148 59.8873 93.6528 59.3523C93.8896 58.7415 94.1806 57.6746 93.861 56.997C93.7339 56.7715 93.5464 56.6228 93.301 56.7027C92.4437 57.0961 91.7198 58.0942 91.0588 59.1672C89.5579 61.6954 88.4358 64.7485 87.8663 67.6408C87.5248 69.3913 87.2562 71.8235 87.8978 73.3303C88.4086 74.3841 89.3362 74.5206 90.3735 73.8208C91.1049 73.2778 92.0164 72.4283 92.5627 71.8883C93.1708 71.3472 96.2011 68.0353 97.3497 70.3683C97.3497 70.3683 97.6382 69.1497 98.4942 68.6805C99.1652 68.2143 100.212 68.1213 100.96 68.5642C100.707 68.1891 99.9595 67.7461 99.3378 67.4528Z" fill="white"/>
<path d="M93.9771 60.3332C93.3553 60.0399 92.2738 61.8026 91.3884 64.2448C90.6227 66.4575 90.3504 68.6622 90.7945 69.4135C91.4237 70.1619 92.499 68.02 92.9121 66.8752L92.9713 66.7225C93.2685 66.0348 93.5028 65.2723 93.6754 64.5108L93.8492 63.8252C93.9713 63.7473 94.1539 63.5926 94.3351 63.362C94.3351 63.362 93.6928 65.5727 93.831 66.4808C93.8977 66.7832 93.9138 67.7692 94.5306 67.7591C95.3903 67.5174 96.0463 66.1411 96.5815 64.9184C96.5815 64.9184 96.7012 64.6889 96.6999 64.613C96.7012 64.6889 96.7036 64.8406 96.7036 64.8406C96.5435 66.3605 96.8531 66.4313 97.0998 66.4273C97.777 66.3403 98.4256 64.5089 98.4256 64.5089C98.433 64.9639 98.3776 65.3442 98.6884 65.4908C98.9968 65.4858 99.2373 65.1025 99.4778 64.7192C100.258 63.4167 100.847 61.6621 101.255 60.2139L101.073 60.4445C101.073 60.4445 100.371 62.7321 99.8267 63.4238C99.8267 63.4238 99.7058 63.5775 99.7046 63.5016C99.6417 63.4268 99.6392 63.2751 99.6971 63.0466L101.501 56.4166L100.523 56.9636C100.523 56.9636 100.404 57.2691 100.406 57.3449C100.406 57.3449 100.404 57.2691 100.343 57.2701C99.7099 56.2942 98.3965 58.971 97.5186 61.8684C97.166 62.9363 96.6937 64.2338 96.2165 65.2279C96.2165 65.2279 95.5012 66.7569 95.1212 66.1562C94.9929 65.8549 94.9855 65.3998 95.0409 65.0195C95.3182 63.1183 95.9039 61.212 96.6229 59.9105C96.8017 59.5282 97.0459 59.3725 97.1692 59.3705C97.2938 59.4443 97.2975 59.6718 97.2384 59.8246C97.0546 59.9034 96.9337 60.0571 96.8141 60.2867C96.6365 60.7448 96.5206 61.2019 96.6477 61.4274C97.0277 62.0282 97.6751 60.1209 97.5985 59.2117C97.5935 58.9083 97.4652 58.607 97.2789 58.5341C97.031 58.4623 96.603 58.697 96.3612 59.0044C96.0591 59.3887 95.5189 60.3079 95.2847 61.0704C94.9283 61.9108 94.2685 63.0596 94.0835 63.0627C94.1414 62.8341 94.6617 60.7013 93.9771 60.3332ZM98.7914 60.4819C98.9677 59.948 99.4388 58.5746 99.5584 58.3451C99.9764 57.5037 100.164 57.6523 100.168 57.8799C99.82 59.2512 99.3527 60.852 98.9446 62.3002L98.8287 62.7573C98.6536 63.3671 98.4773 63.9011 98.1147 64.3622C98.0543 64.4391 97.9926 64.4401 97.9309 64.4411C97.8692 64.4421 97.8051 64.2914 97.8655 64.2146C97.9197 63.7585 98.1465 62.5409 98.7914 60.4819ZM93.5446 64.0578C93.5458 64.1336 93.1352 65.4301 93.1352 65.4301C92.8997 66.1168 92.605 66.9561 92.2424 67.4173C92.1215 67.571 91.9378 67.6499 91.8748 67.575C91.6861 67.3505 91.7391 66.8186 91.7945 66.4383L91.792 66.2866C91.9609 65.2976 92.2531 64.3065 92.5466 63.3913C92.802 63.9182 93.1733 63.988 93.4816 63.9829C93.605 63.9809 93.605 63.9809 93.5446 64.0578ZM93.8898 62.5348L93.7172 63.2963C93.7184 63.3721 93.6567 63.3731 93.5951 63.3741L93.5334 63.3752C93.2867 63.3792 93.0375 63.2315 92.9708 62.9292C92.8376 62.3244 93.1964 61.6357 93.316 61.4062C93.4357 61.1766 93.6786 60.945 93.8045 61.0947C93.8674 61.1695 93.9328 61.3961 93.9353 61.5478C94.0019 61.8501 93.9465 62.2304 93.8898 62.5348Z" fill="white"/>
<path d="M106.217 58.0845C106.088 57.7831 105.902 57.7103 105.658 57.866C104.927 58.4091 104.209 59.7865 103.865 61.3853C103.694 62.2227 103.581 62.9073 103.598 63.8933C103.836 63.3583 104.251 62.3653 104.795 61.6735C104.795 61.6735 104.841 60.6865 105.194 59.6944C105.312 59.3132 105.607 58.5497 105.916 58.5446C106.224 58.5396 106.184 59.83 105.836 61.2013C105.605 62.1913 105.192 63.3361 104.836 64.1765C104.477 64.8652 103.937 65.7844 103.44 65.565C103.129 65.4183 102.935 64.8904 102.923 64.132C102.947 61.8555 103.528 59.6459 104.348 56.9771C105.17 54.46 106.177 51.864 107.504 50.0215C107.806 49.6372 108.05 49.4814 108.297 49.4774C108.297 49.4774 107.031 51.3189 106.516 53.7551C106.403 54.3639 106.17 55.2023 106.425 55.7292C106.553 56.0306 106.797 55.8748 106.92 55.7969C107.71 55.1012 108.12 53.7289 108.468 52.4334C108.639 51.5202 108.809 50.607 108.795 49.7727C108.794 49.6969 108.791 49.5452 108.789 49.3935C109.15 48.8565 109.954 48.995 109.954 48.995C110.571 48.9849 111.88 49.798 112.313 49.8668C112.491 49.4087 112.786 48.6452 112.965 48.2629L112.654 48.1163C112.157 47.8968 111.723 47.7522 111.227 47.6086C110.111 47.2475 109.26 48.0201 108.837 48.5581C108.658 48.9404 108.537 49.0941 108.537 49.0941C108.161 48.721 107.672 49.0324 107.247 49.4187C105.851 50.8072 104.653 53.027 103.351 56.3865C102.407 58.9815 101.886 61.1143 101.61 63.0913C101.386 64.4606 101.415 66.2051 102.105 66.9524C102.67 67.5501 103.402 67.0071 103.885 66.3922C104.972 64.9329 105.86 62.6424 106.252 60.2082C106.365 59.5994 106.472 58.6114 106.217 58.0845ZM108.431 50.158C108.413 52.8137 107.216 55.0334 106.85 55.3429C106.668 55.4976 106.299 55.5795 106.586 54.2851C106.929 52.6104 107.642 50.9296 108.426 49.8546C108.427 49.9305 108.49 50.0053 108.431 50.158Z" fill="white"/>
<path d="M116.203 46.313C115.541 47.3101 114.813 48.0807 113.954 48.3983C113.716 48.9332 113.541 49.543 113.303 50.078C114.534 49.9061 115.801 48.1404 116.517 46.6872C117.234 45.234 117.579 43.711 117.579 43.711C117.579 43.711 117.048 45.1611 116.203 46.313Z" fill="white"/>
<path d="M103.091 55.5561L102.173 56.0263L101.706 57.6272L102.623 57.157L103.091 55.5561Z" fill="white"/>
<path d="M114.507 59.542C114.387 59.6957 114.263 59.6978 114.32 59.3934C114.432 58.7087 114.901 57.1837 114.901 57.1837L116.119 52.46L115.141 53.0071C115.081 53.1598 115.025 53.4642 115.025 53.4642C114.962 53.3893 114.835 53.1638 114.773 53.1648C114.525 53.093 114.159 53.3266 113.918 53.7099C112.895 55.244 112.254 57.5305 111.728 59.36C111.728 59.36 111.144 61.3421 110.84 61.6505C110.535 61.8073 110.586 61.1995 110.585 61.1236C110.629 60.0608 110.859 58.9949 111.029 58.0817C111.508 57.2393 112.047 56.2442 112.523 55.1742C113.596 52.8806 114.482 50.4384 114.596 49.9054C114.596 49.9054 114.475 50.0591 114.292 50.138C113.528 52.5024 111.862 56.2472 111.318 56.9389C111.486 55.874 112.883 50.768 114.071 47.9415L114.248 47.4834C114.545 46.7957 114.842 46.108 115.147 45.8754C115.147 45.8754 115.209 45.8744 115.272 45.9493C115.278 46.3285 115.221 46.6329 115.104 47.0142L114.989 47.5471C114.989 47.5471 115.172 47.3924 115.355 47.2377C115.469 46.7047 115.644 46.0949 115.573 45.4891C115.569 45.2616 115.444 45.1878 115.321 45.1898C114.89 45.2727 114.532 45.9614 114.17 46.4984C112.494 49.6364 111.14 53.6037 109.989 58.6298C109.868 58.7835 109.565 59.0919 109.441 59.094C109.557 58.6369 109.669 57.9522 109.72 57.2686C109.717 57.1169 109.714 56.8894 109.711 56.7377C109.705 56.3584 109.638 56.0561 109.389 55.9084C109.141 55.8366 108.837 56.0692 108.595 56.3766C107.687 57.4536 107.04 59.3609 106.571 60.8859C106.339 61.8001 106.109 62.7902 106.065 63.8531C106.077 64.6115 106.208 65.0646 106.456 65.1364C106.765 65.2072 107.129 64.8219 107.249 64.5923C108.153 63.2878 108.739 61.3815 109.203 59.6289C109.203 59.6289 109.509 59.4722 109.752 59.2406C109.753 59.3165 109.64 59.9252 109.64 59.9252C109.359 61.5989 109.254 62.7387 109.632 63.1877C110.135 63.7864 110.854 62.4848 111.386 61.0347C111.349 62.5526 111.779 62.4697 112.144 62.1602C112.57 61.7739 112.987 60.8567 113.164 60.3986C113.11 60.8547 113.184 61.6121 113.552 61.4544C113.797 61.3745 113.977 61.0681 114.219 60.7606C115.003 59.6856 115.821 56.8651 116.055 56.1026L115.749 56.2594C115.398 57.4032 115.049 58.6986 114.507 59.542ZM107.288 63.2261C107.225 63.1512 107.223 62.9995 107.22 62.8479C107.145 62.0145 107.67 60.1851 108.085 59.1162C108.278 59.6441 108.712 59.7887 108.96 59.8605C108.609 61.0043 107.729 63.7499 107.288 63.2261ZM109.012 59.2527C109.013 59.3286 108.458 59.3377 108.324 58.6571C108.19 58.0523 108.489 57.4405 108.729 57.0572C108.849 56.8277 109.033 56.7488 109.156 56.7468C109.281 56.8206 109.345 56.9713 109.35 57.2747C109.352 57.4263 109.355 57.578 109.357 57.7297C109.243 58.2627 109.19 58.7946 109.012 59.2527ZM113.154 59.7918L113.095 59.9445C112.975 60.1741 112.857 60.4795 112.672 60.4825C112.61 60.4835 112.609 60.4077 112.546 60.3328C112.538 59.8019 112.651 59.1931 112.766 58.6602L112.825 58.5075C113.172 57.1361 113.64 55.5353 114.359 54.2338C114.478 54.0042 114.599 53.8505 114.723 53.8485C114.784 53.8474 114.785 53.9233 114.787 53.9991C114.787 53.9991 114.788 54.075 114.789 54.1508C114.614 54.7606 114.44 55.4463 114.265 56.0561C113.916 57.3516 113.628 58.5702 113.154 59.7918Z" fill="white"/>
<path d="M73 187C76 184.833 82.5 179.5 84.5 175.5" stroke="#1D1D1B" stroke-width="3" stroke-linecap="round" stroke-linejoin="round"/>
</svg>
