<svg width="237" height="313" viewBox="0 0 237 313" fill="none" xmlns="http://www.w3.org/2000/svg">
<path d="M235.394 107.783L206.975 108.68L146.689 172.75L139.825 166.32L200.111 102.24L199.211 74.1836L208.635 73.8845L209.223 92.5426L221.891 79.0857L228.766 85.5258L216.098 98.9826L235.094 98.3845L235.394 107.783Z" fill="#785240" stroke="#1D1D1B" stroke-width="3" stroke-miterlimit="10" stroke-linecap="round" stroke-linejoin="round"/>
<path d="M235.394 107.783L206.975 108.68L146.689 172.75L139.825 166.32L200.111 102.24L199.211 74.1836L208.635 73.8845L209.223 92.5426L221.891 79.0857L228.766 85.5258L216.098 98.9826L235.094 98.3845L235.394 107.783Z" stroke="#1D1D1B" stroke-width="3" stroke-miterlimit="10" stroke-linecap="round" stroke-linejoin="round"/>
<path d="M210.573 243.612C210.573 261.479 202.156 277.734 188.407 289.835C173.352 303.099 151.893 311.387 128.078 311.387C82.5158 311.387 45.5839 281.045 45.5839 243.612C45.5839 236.018 47.1045 228.713 49.91 221.899C60.9285 195.114 91.7675 175.825 128.078 175.825C173.641 175.836 210.573 206.178 210.573 243.612Z" fill="white"/>
<path d="M188.418 289.846C173.362 303.11 151.904 311.398 128.089 311.398C82.5265 311.398 45.5946 281.056 45.5946 243.622C45.5946 236.029 47.1151 228.724 49.9206 221.91C45.691 286.214 109.875 321.864 187.797 287.848C188.011 288.5 188.214 289.162 188.418 289.846Z" fill="#C7DFF4"/>
<path d="M128.089 311.387C173.791 311.387 210.84 281.042 210.84 243.611C210.84 206.18 173.791 175.835 128.089 175.835C82.3867 175.835 45.3376 206.18 45.3376 243.611C45.3376 281.042 82.3867 311.387 128.089 311.387Z" stroke="#1D1D1B" stroke-width="3" stroke-miterlimit="10" stroke-linecap="round" stroke-linejoin="round"/>
<path d="M185.43 168.787C185.43 195.626 159.635 217.371 127.811 217.371C108.515 217.371 91.4463 209.382 80.9846 197.1C74.1957 189.122 70.1909 179.35 70.1909 168.787C70.1909 150.524 82.141 134.622 99.7985 126.324C108.086 122.425 117.638 120.204 127.8 120.204C159.635 120.204 185.43 141.948 185.43 168.787Z" fill="white"/>
<path d="M99.8199 126.323L99.7235 135.092C93.6414 138.296 64.3871 168.317 81.7341 196.961C81.4878 197.015 81.2415 197.057 81.0059 197.111C74.2171 189.133 70.2123 179.361 70.2123 168.798C70.2123 150.524 82.1624 134.611 99.8199 126.323Z" fill="#C7DFF4"/>
<path d="M127.821 217.371C159.638 217.371 185.43 195.619 185.43 168.787C185.43 141.955 159.638 120.204 127.821 120.204C96.0047 120.204 70.2123 141.955 70.2123 168.787C70.2123 195.619 96.0047 217.371 127.821 217.371Z" stroke="#1D1D1B" stroke-width="3" stroke-miterlimit="10" stroke-linecap="round" stroke-linejoin="round"/>
<path d="M177.314 100.616C177.314 124.411 155.855 143.71 129.385 143.71C102.915 143.71 81.4664 124.411 81.4664 100.616C81.4664 96.0556 82.2588 91.6661 83.7151 87.5436C89.8722 70.1351 107.99 57.522 129.395 57.522C150.105 57.522 167.741 69.3341 174.433 85.8668C176.307 90.4592 177.314 95.4361 177.314 100.616Z" fill="white"/>
<path d="M174.433 85.8568C157.343 92.5532 92.41 89.7016 83.7151 87.5336C89.8722 70.1251 107.99 57.512 129.395 57.512C150.105 57.512 167.741 69.3241 174.433 85.8568Z" fill="#C7DFF4"/>
<path d="M129.395 143.71C155.866 143.71 177.324 124.416 177.324 100.616C177.324 76.8158 155.866 57.522 129.395 57.522C102.925 57.522 81.4664 76.8158 81.4664 100.616C81.4664 124.416 102.925 143.71 129.395 143.71Z" stroke="#1D1D1B" stroke-width="3" stroke-miterlimit="10" stroke-linecap="round" stroke-linejoin="round"/>
<path d="M34.8117 143.508L21.2875 118.559L12.9888 123.034L22.0371 139.706L4.29391 134.43L1.6062 143.444L19.3386 148.72L2.86974 157.605L7.35639 165.882L32.124 152.522L90.9751 170.016L93.6628 161.002L34.8117 143.508Z" fill="#785240"/>
<path d="M34.8117 143.508L21.2875 118.559L12.9888 123.034L22.0371 139.706L4.29391 134.43L1.6062 143.444L19.3386 148.72L2.86974 157.605L7.35639 165.882L32.124 152.522L90.9751 170.016L93.6628 161.002L34.8117 143.508Z" stroke="#1D1D1B" stroke-width="3" stroke-miterlimit="10" stroke-linecap="round" stroke-linejoin="round"/>
<path d="M141.442 114.981C144.044 114.981 146.153 111.94 146.153 108.189C146.153 104.437 144.044 101.396 141.442 101.396C138.84 101.396 136.73 104.437 136.73 108.189C136.73 111.94 138.84 114.981 141.442 114.981Z" fill="#1D1D1B"/>
<path d="M163.961 107.142C166.563 107.142 168.672 104.101 168.672 100.35C168.672 96.5982 166.563 93.5571 163.961 93.5571C161.359 93.5571 159.249 96.5982 159.249 100.35C159.249 104.101 161.359 107.142 163.961 107.142Z" fill="#1D1D1B"/>
<path d="M153.992 128.278C153.992 128.278 147.331 123.258 150.865 115.601C154.516 107.708 162.505 109.855 162.505 109.855L195.1 134.408C196.845 135.722 196.021 137.495 193.89 137.025L153.992 128.278Z" fill="#FFB419"/>
<path d="M153.992 128.278C153.992 128.278 147.331 123.258 150.865 115.601C154.516 107.708 162.505 109.855 162.505 109.855L195.1 134.408C196.845 135.722 196.021 137.495 193.89 137.025L153.992 128.278Z" stroke="#1D1D1B" stroke-width="3" stroke-miterlimit="10"/>
<path d="M126.772 81.542C163.509 81.542 193.29 76.8656 193.29 71.0969C193.29 65.3283 163.509 60.6519 126.772 60.6519C90.035 60.6519 60.2539 65.3283 60.2539 71.0969C60.2539 76.8656 90.035 81.542 126.772 81.542Z" fill="#E3302B"/>
<path d="M126.772 81.542C163.509 81.542 193.29 76.8656 193.29 71.0969C193.29 65.3283 163.509 60.6519 126.772 60.6519C90.035 60.6519 60.2539 65.3283 60.2539 71.0969C60.2539 76.8656 90.035 81.542 126.772 81.542Z" stroke="#1D1D1B" stroke-width="3" stroke-miterlimit="10" stroke-linecap="round" stroke-linejoin="round"/>
<path d="M163.961 66.9213C163.961 66.9213 155.052 72.6671 126.247 72.6671C96.3934 72.6671 88.5337 66.9213 88.5337 66.9213V10.4986C88.5337 10.4986 103.718 1.61279 126.247 1.61279C152.439 1.61279 163.961 10.4986 163.961 10.4986V66.9213Z" fill="#E3302B"/>
<path d="M95.5005 68.5V16.5L92.0005 14.5L88.0005 12.5V52L95.5005 68.5Z" fill="#9E221F"/>
<path d="M89.0155 37.1239C99.3166 42.8057 152.225 42.8057 163.222 37.0598C163.222 43.8523 164.443 60.4384 164.443 60.4384L162.462 66.9426L145.179 70.6699L120.647 72.8059L99.5629 70.5845L87.8055 65.7891L89.0155 37.1239Z" fill="#1D1D1B"/>
<path d="M163.961 66.9211C163.961 66.9211 155.052 72.6669 126.247 72.6669C96.3934 72.6669 88.5337 66.9211 88.5337 66.9211V10.4984C88.5337 10.4984 102.711 2.01845 126.247 1.61261C154.109 1.13201 163.961 10.4984 163.961 10.4984V66.9211Z" stroke="#1D1D1B" stroke-width="3" stroke-miterlimit="10" stroke-linecap="round" stroke-linejoin="round"/>
<path d="M169.989 169.834C172.45 169.834 174.444 167.845 174.444 165.391C174.444 162.937 172.45 160.948 169.989 160.948C167.529 160.948 165.535 162.937 165.535 165.391C165.535 167.845 167.529 169.834 169.989 169.834Z" fill="#1D1D1B"/>
<path d="M180.987 229.909C183.447 229.909 185.441 227.92 185.441 225.466C185.441 223.013 183.447 221.023 180.987 221.023C178.526 221.023 176.532 223.013 176.532 225.466C176.532 227.92 178.526 229.909 180.987 229.909Z" fill="#1D1D1B"/>
<path d="M187.797 259.162C190.257 259.162 192.251 257.173 192.251 254.719C192.251 252.265 190.257 250.276 187.797 250.276C185.337 250.276 183.342 252.265 183.342 254.719C183.342 257.173 185.337 259.162 187.797 259.162Z" fill="#1D1D1B"/>
<path d="M76.0375 108.189C76.0375 108.189 108.965 105.572 135.156 83.1121" stroke="#1D1D1B" stroke-width="3" stroke-miterlimit="10" stroke-linecap="round" stroke-linejoin="round"/>
<path d="M81.4664 139.93C102.154 158.332 137.769 168.125 180.976 155.662" stroke="#1D1D1B" stroke-width="3" stroke-miterlimit="10" stroke-linecap="round" stroke-linejoin="round"/>
<path d="M75.9732 193.341C95.8794 199.087 156.112 201.703 184.916 171.564" stroke="#1D1D1B" stroke-width="3" stroke-miterlimit="10" stroke-linecap="round" stroke-linejoin="round"/>
<path d="M55.4888 209.489C75.9625 267.514 144.579 282.145 202.809 268.475" stroke="#1D1D1B" stroke-width="3" stroke-miterlimit="10" stroke-linecap="round" stroke-linejoin="round"/>
<path d="M80.1601 113.935C83.3417 113.935 85.921 111.362 85.921 108.189C85.921 105.015 83.3417 102.443 80.1601 102.443C76.9784 102.443 74.3992 105.015 74.3992 108.189C74.3992 111.362 76.9784 113.935 80.1601 113.935Z" fill="#C92B27"/>
<path d="M101.116 108.189C104.297 108.189 106.876 105.616 106.876 102.443C106.876 99.2695 104.297 96.697 101.116 96.697C97.9339 96.697 95.3547 99.2695 95.3547 102.443C95.3547 105.616 97.9339 108.189 101.116 108.189Z" fill="#C92B27"/>
<path d="M122.06 98.2564C125.242 98.2564 127.821 95.6839 127.821 92.5105C127.821 89.3372 125.242 86.7646 122.06 86.7646C118.879 86.7646 116.299 89.3372 116.299 92.5105C116.299 95.6839 118.879 98.2564 122.06 98.2564Z" fill="#C92B27"/>
<path d="M81.7341 145.804C84.9158 145.804 87.495 143.231 87.495 140.058C87.495 136.885 84.9158 134.312 81.7341 134.312C78.5525 134.312 75.9732 136.885 75.9732 140.058C75.9732 143.231 78.5525 145.804 81.7341 145.804Z" fill="#C92B27"/>
<path d="M100.066 157.296C103.248 157.296 105.827 154.723 105.827 151.55C105.827 148.376 103.248 145.804 100.066 145.804C96.8845 145.804 94.3053 148.376 94.3053 151.55C94.3053 154.723 96.8845 157.296 100.066 157.296Z" fill="#C92B27"/>
<path d="M121.536 164.601C124.717 164.601 127.297 162.028 127.297 158.855C127.297 155.682 124.717 153.109 121.536 153.109C118.354 153.109 115.775 155.682 115.775 158.855C115.775 162.028 118.354 164.601 121.536 164.601Z" fill="#C92B27"/>
<path d="M145.104 167.217C148.286 167.217 150.865 164.645 150.865 161.471C150.865 158.298 148.286 155.726 145.104 155.726C141.922 155.726 139.343 158.298 139.343 161.471C139.343 164.645 141.922 167.217 145.104 167.217Z" fill="#C92B27"/>
<path d="M79.1106 199.087C82.2923 199.087 84.8715 196.514 84.8715 193.341C84.8715 190.167 82.2923 187.595 79.1106 187.595C75.929 187.595 73.3497 190.167 73.3497 193.341C73.3497 196.514 75.929 199.087 79.1106 199.087Z" fill="#C92B27"/>
<path d="M55.5423 217.371C58.724 217.371 61.3032 214.798 61.3032 211.625C61.3032 208.452 58.724 205.879 55.5423 205.879C52.3607 205.879 49.7814 208.452 49.7814 211.625C49.7814 214.798 52.3607 217.371 55.5423 217.371Z" fill="#C92B27"/>
<path d="M67.5888 238.261C70.7705 238.261 73.3497 235.689 73.3497 232.515C73.3497 229.342 70.7705 226.769 67.5888 226.769C64.4072 226.769 61.8279 229.342 61.8279 232.515C61.8279 235.689 64.4072 238.261 67.5888 238.261Z" fill="#C92B27"/>
<path d="M84.8716 254.975C88.0532 254.975 90.6325 252.403 90.6325 249.23C90.6325 246.056 88.0532 243.484 84.8716 243.484C81.6899 243.484 79.1107 246.056 79.1107 249.23C79.1107 252.403 81.6899 254.975 84.8716 254.975Z" fill="#C92B27"/>
<path d="M104.253 267.514C107.435 267.514 110.014 264.941 110.014 261.768C110.014 258.594 107.435 256.022 104.253 256.022C101.071 256.022 98.4921 258.594 98.4921 261.768C98.4921 264.941 101.071 267.514 104.253 267.514Z" fill="#C92B27"/>
<path d="M130.445 275.876C133.626 275.876 136.206 273.304 136.206 270.13C136.206 266.957 133.626 264.385 130.445 264.385C127.263 264.385 124.684 266.957 124.684 270.13C124.684 273.304 127.263 275.876 130.445 275.876Z" fill="#C92B27"/>
<path d="M155.062 279.005C158.244 279.005 160.823 276.433 160.823 273.26C160.823 270.086 158.244 267.514 155.062 267.514C151.881 267.514 149.302 270.086 149.302 273.26C149.302 276.433 151.881 279.005 155.062 279.005Z" fill="#C92B27"/>
<path d="M178.631 279.005C181.812 279.005 184.392 276.433 184.392 273.26C184.392 270.086 181.812 267.514 178.631 267.514C175.449 267.514 172.87 270.086 172.87 273.26C172.87 276.433 175.449 279.005 178.631 279.005Z" fill="#C92B27"/>
<path d="M199.576 274.83C202.757 274.83 205.336 272.257 205.336 269.084C205.336 265.91 202.757 263.338 199.576 263.338C196.394 263.338 193.815 265.91 193.815 269.084C193.815 272.257 196.394 274.83 199.576 274.83Z" fill="#C92B27"/>
<path d="M103.728 202.739C106.91 202.739 109.489 200.167 109.489 196.993C109.489 193.82 106.91 191.248 103.728 191.248C100.547 191.248 97.9674 193.82 97.9674 196.993C97.9674 200.167 100.547 202.739 103.728 202.739Z" fill="#C92B27"/>
<path d="M127.821 201.169C131.003 201.169 133.582 198.597 133.582 195.423C133.582 192.25 131.003 189.677 127.821 189.677C124.64 189.677 122.06 192.25 122.06 195.423C122.06 198.597 124.64 201.169 127.821 201.169Z" fill="#C92B27"/>
<path d="M152.439 196.993C155.621 196.993 158.2 194.421 158.2 191.248C158.2 188.074 155.621 185.502 152.439 185.502C149.257 185.502 146.678 188.074 146.678 191.248C146.678 194.421 149.257 196.993 152.439 196.993Z" fill="#C92B27"/>
<path d="M173.908 186.548C177.09 186.548 179.669 183.976 179.669 180.802C179.669 177.629 177.09 175.057 173.908 175.057C170.727 175.057 168.148 177.629 168.148 180.802C168.148 183.976 170.727 186.548 173.908 186.548Z" fill="#C92B27"/>
<path d="M168.672 164.601C171.854 164.601 174.433 162.028 174.433 158.855C174.433 155.682 171.854 153.109 168.672 153.109C165.491 153.109 162.911 155.682 162.911 158.855C162.911 162.028 165.491 164.601 168.672 164.601Z" fill="#C92B27"/>
<path d="M187.529 159.378C190.711 159.378 193.29 156.806 193.29 153.632C193.29 150.459 190.711 147.886 187.529 147.886C184.347 147.886 181.768 150.459 181.768 153.632C181.768 156.806 184.347 159.378 187.529 159.378Z" fill="#C92B27"/>
<path d="M88.8014 11.8228C90.943 20.3668 161.616 20.3668 163.5 11.8334" stroke="#1D1D1B" stroke-width="2.5239" stroke-miterlimit="10" stroke-linecap="round" stroke-linejoin="round"/>
<path d="M121.623 64.8433C119.57 63.4185 116.773 63.0498 112.354 63.7163C107.702 64.1946 106.142 64.5342 104.079 62.6467C103.26 61.7759 102.968 60.5474 103.166 58.9621C103.573 56.4083 104.827 54.1463 107.149 51.7473C108.423 50.4877 109.624 49.4224 111.224 49.1592C112.444 49.0192 112.348 49.9854 112.198 50.1041C112.044 50.0685 111.777 50.0739 111.588 50.1933C111.438 50.312 110.986 50.6682 110.959 51.2087C110.937 52.0577 111.815 52.0016 112.189 51.6085C112.6 51.1375 113.192 50.1614 112.676 49.1689C112.477 48.7871 112.128 48.5241 111.667 48.379C110.208 48.0608 108.843 48.5509 107.592 49.0772C104.87 50.5199 102.698 52.723 101.528 55.3691C100.833 56.9643 100.232 59.3676 101.271 61.6997C102.068 63.3424 103.619 64.4686 105.496 64.7013C106.798 64.8297 108.399 64.6821 109.468 64.6223C110.537 64.601 116.015 63.3735 117.918 66.8069C117.918 66.8069 118.506 65.6767 119.998 65.7627C121.259 65.7376 123.065 66.2803 124.384 67.2568C123.95 66.5712 122.669 65.5553 121.623 64.8433Z" fill="white"/>
<path d="M112.751 52.9472C111.703 52.1195 109.66 53.1244 108.056 55.0849C106.6 56.8109 105.994 59.0215 106.706 60.2416C107.806 61.7239 109.724 60.2201 110.548 59.3552C110.585 59.3158 110.623 59.2765 110.66 59.2372C111.223 58.7246 111.629 58.0222 112.036 57.3584C112.036 57.3584 112.407 56.7725 112.444 56.7332C112.673 56.7286 112.978 56.684 113.321 56.6386C113.321 56.6386 112.1 58.63 112.235 59.6687C112.279 59.9764 112.265 61.1724 113.421 61.6508C114.958 62.083 116.121 61.0185 117.172 60.0719C117.172 60.0719 117.36 59.9139 117.435 59.8353C117.399 59.9517 117.363 60.0681 117.363 60.0681C116.974 61.6187 117.592 61.9921 117.939 62.1394C119.094 62.5793 120.4 60.9719 120.4 60.9719C120.371 61.4739 120.265 61.9003 120.846 62.2745C121.385 62.4952 121.876 62.2154 122.292 61.9757C123.725 61.0215 124.84 59.4565 125.73 58.0888C125.501 58.0934 125.386 58.0957 125.119 58.101C125.119 58.101 123.67 60.2126 122.762 60.6549C122.762 60.6549 122.573 60.7359 122.495 60.6603C122.378 60.5469 122.412 60.3148 122.486 60.1976C122.486 60.1976 126.029 53.9173 126.028 53.8787C125.341 53.8924 124.996 53.8607 124.309 53.8744L124.124 54.1866C124.124 54.1866 124.084 54.1103 124.046 54.111C122.946 52.6286 120.544 54.7978 118.799 57.3396C118.131 58.3172 117.235 59.3764 116.333 60.1272C116.333 60.1272 114.98 61.2726 114.387 60.2816C114.149 59.8621 114.215 59.3208 114.323 58.9715C114.973 57.1072 116.125 55.4643 117.444 54.5124C117.82 54.2349 118.24 54.188 118.434 54.3384C118.627 54.4503 118.671 54.7579 118.56 54.953C118.254 54.9205 117.988 55.0029 117.801 55.1995C117.427 55.5927 117.282 55.9813 117.404 56.3645C118.034 57.3163 119.224 55.6341 119.164 54.5553C119.118 54.1705 118.919 53.7887 118.61 53.602C118.146 53.3027 117.458 53.3164 117.041 53.479C116.433 53.6454 115.53 54.3576 114.968 54.9088C114.294 55.6164 113.123 56.2954 112.738 56.1488C112.846 55.7995 113.801 53.852 112.751 52.9472ZM121.117 56.7149C121.453 56.284 122.384 55.0698 122.646 54.8331C123.435 54.1617 123.747 54.4641 123.79 54.6947C123.052 56.0207 122.204 57.5419 121.389 58.8695L121.13 59.2603C120.759 59.8077 120.424 60.2772 119.818 60.5592C119.742 60.5608 119.589 60.5638 119.511 60.4882C119.395 60.4134 119.354 60.2599 119.351 60.1443C119.382 59.7579 119.815 58.4765 121.117 56.7149ZM111.755 56.6698C111.755 56.6698 111.756 56.7083 111.718 56.7091L110.976 57.8424C110.529 58.3913 110.007 59.0574 109.286 59.3031C109.096 59.3455 108.79 59.3516 108.633 59.1233C108.319 58.7052 108.461 58.201 108.568 57.8132C108.568 57.7746 108.605 57.7353 108.603 57.6582C108.966 56.6867 109.524 55.9042 110.082 55.1602L110.12 55.1595C110.479 55.9238 111.175 56.3342 111.676 56.5556C111.792 56.5919 111.754 56.6312 111.755 56.6698ZM112.416 55.3067L112.087 56.0461C112.049 56.0854 111.972 56.0483 111.895 56.0113C111.818 55.9743 111.818 55.9743 111.741 55.9758C111.278 55.7536 110.928 55.4134 110.806 55.0301C110.638 54.3006 111.24 53.8258 111.504 53.6277C111.768 53.4682 112.15 53.4606 112.383 53.6488C112.539 53.8385 112.582 54.0691 112.587 54.3004C112.632 54.6467 112.524 54.9959 112.416 55.3067Z" fill="white"/>
<path d="M134.328 58.1494C134.168 57.8055 133.744 57.621 133.325 57.6679C131.954 57.8881 130.64 59.0713 129.985 60.7429C129.62 61.5987 129.443 62.2965 129.35 63.3783C129.76 62.8687 130.623 62.0416 131.606 61.5206C131.606 61.5206 131.738 60.4766 132.368 59.4998C132.628 59.1089 133.111 58.4436 133.724 58.5471C134.224 58.6915 134.1 60.121 133.44 61.5227C132.964 62.5736 132.221 63.6298 131.471 64.3389C130.796 64.9695 129.817 65.7218 128.89 65.2003C128.311 64.9032 128.029 64.2146 128.049 63.2885C128.266 60.7385 129.369 58.5566 130.961 56.0179C132.595 53.6326 134.456 51.1656 136.91 49.6511C137.4 49.3328 137.894 49.2073 138.317 49.3146C138.317 49.3146 135.98 50.9039 134.921 53.3934C134.629 54.0935 134.264 54.9493 134.661 55.6743C134.859 56.056 135.241 56.0484 135.545 55.9652C136.912 55.5138 137.801 54.1076 138.501 52.8208C138.903 51.8871 139.266 50.9156 139.247 49.9518C139.244 49.8361 139.241 49.6819 139.239 49.5662C139.88 49.1292 141.264 49.5645 141.264 49.5645C142.338 49.7745 144.58 51.0799 145.348 51.2575C145.72 50.7487 146.277 49.9662 146.613 49.5738C146.421 49.5005 146.306 49.4642 146.112 49.3523C145.303 49.0213 144.495 48.7288 143.648 48.3985C141.762 47.7032 140.245 48.2734 139.489 48.6741C139.186 48.8344 138.921 48.9554 138.921 48.9554C138.337 48.3885 137.385 48.5617 136.702 48.8067C134.2 49.7822 131.907 51.7177 129.487 54.8901C127.702 57.3555 126.597 59.4218 126.026 61.4388C125.594 62.7973 125.482 64.8438 126.652 66.0162C127.627 67.0382 128.921 66.781 129.83 66.3772C131.796 65.3353 133.509 63.1027 134.339 60.6177C134.517 59.9585 134.725 58.9129 134.328 58.1494ZM138.715 50.1166C138.508 53.1678 136.218 55.1805 135.648 55.3846C135.307 55.5071 134.694 55.4036 135.202 54.0821C135.932 52.3319 137.237 50.7246 138.671 49.8089C138.711 49.9238 138.713 50.001 138.715 50.1166Z" fill="white"/>
<path d="M152.31 47.8018C151.107 48.8285 149.862 49.6247 148.299 49.8101C147.891 50.3967 147.482 50.9834 147.113 51.6079C149.293 51.7188 151.548 49.8611 152.779 48.3324C154.085 46.7636 154.739 45.0535 154.739 45.0535C154.777 45.0527 153.775 46.5384 152.31 47.8018Z" fill="white"/>
<path d="M128.93 53.7823C128.281 53.7953 127.937 53.8021 127.288 53.815C126.918 54.4395 126.732 54.7132 126.401 55.3369C127.05 55.324 127.394 55.3171 128.043 55.3042C128.375 54.7191 128.56 54.4068 128.93 53.7823Z" fill="white"/>
<path d="M148.552 62.5333C148.365 62.6914 148.135 62.6574 148.205 62.3474C148.42 61.6103 149.304 59.9728 149.304 59.9728C150.256 57.9096 150.771 56.8965 151.723 54.7948C151.038 54.9627 150.696 55.0466 150.012 55.2145C149.938 55.3703 149.754 55.7211 149.754 55.7211C149.676 55.6069 149.442 55.3801 149.326 55.3053C148.902 55.1209 148.296 55.4029 147.883 55.7583C146.04 57.2606 144.752 59.7162 143.681 61.5889C143.681 61.5889 142.577 63.6936 141.969 63.8986C141.475 64.0241 141.5 63.3294 141.535 63.1744C141.703 62.0139 142.139 60.8867 142.538 59.8374C143.44 59.048 144.452 58.0636 145.347 56.9659C147.325 54.6123 148.992 51.9949 149.211 51.4506C149.211 51.4506 148.946 51.5715 148.642 51.6547C147.126 54.2305 144.031 58.0334 143.05 58.6701C143.448 57.5436 146.129 52.0904 148.401 49.1524C148.55 48.9566 148.625 48.878 148.774 48.7207C149.334 48.0154 149.893 47.31 150.346 47.0695C150.385 47.0688 150.46 47.0287 150.501 47.1436C150.547 47.5669 150.364 47.9563 150.181 48.3456C150.071 48.5792 150.035 48.6957 149.926 48.9678C149.926 48.9678 150.304 48.806 150.531 48.6858C150.786 48.0636 151.079 47.4021 150.951 46.7104C150.908 46.4798 150.753 46.3672 150.523 46.3717C149.837 46.424 149.087 47.1331 148.486 47.6851C148.486 47.6851 148.486 47.6851 148.449 47.7244C144.932 51.4586 142.383 55.8677 140.523 60.3403C140.373 60.4976 139.691 60.7426 139.574 60.6677C139.794 60.162 140.085 59.4619 140.224 58.7263C140.258 58.5328 140.253 58.3014 140.25 58.1087C140.241 57.6846 140.119 57.3013 139.732 57.0776C139.271 56.9325 138.739 57.0973 138.361 57.2977C136.698 58.2179 135.474 60.0551 134.587 61.577C134.109 62.5122 133.632 63.5245 133.54 64.6448C133.481 65.5331 133.683 66.0691 134.185 66.3291C134.686 66.5506 135.329 66.2292 135.594 66.0697C137.292 64.9945 138.437 63.0432 139.357 61.2506C139.395 61.2499 139.89 61.1629 140.307 61.0003C140.27 61.0782 140.092 61.6989 140.092 61.6989C139.517 63.5231 139.274 64.7622 139.86 65.4062C140.679 66.277 141.993 65.0552 143.032 63.5303C142.836 65.1927 143.679 65.3302 144.324 65.086C145.043 64.7631 145.865 63.7825 146.237 63.3123C146.133 63.8157 146.188 64.6632 146.836 64.6117C147.295 64.6026 147.632 64.2873 148.008 63.9713C149.4 62.8636 151.021 59.8614 151.462 58.9656C151.233 59.0087 151.12 59.0495 150.891 59.0926C150.303 60.2614 149.53 61.7425 148.552 62.5333ZM135.791 64.4458C135.712 64.3316 135.671 64.1782 135.667 64.024C135.648 63.0601 136.643 61.1889 137.386 60.1327C137.704 60.7821 138.438 61.1532 138.86 61.2605C138.312 62.5057 136.57 65.2402 135.791 64.4458ZM139.116 60.6769C139.079 60.7162 138.158 60.5416 137.989 59.735C137.823 59.0441 138.307 58.4173 138.759 58.0998C138.946 57.9032 139.25 57.82 139.48 57.854C139.674 57.9658 139.755 58.1957 139.76 58.4655C139.763 58.6198 139.729 58.8133 139.732 58.9675L139.732 59.0061C139.591 59.5874 139.374 60.1703 139.116 60.6769ZM146.26 62.5404L146.111 62.7362C145.887 63.0106 145.625 63.2859 145.356 63.2141C145.28 63.2156 145.201 63.1014 145.2 63.0243C145.188 62.4074 145.443 61.7852 145.698 61.163C145.734 61.0852 145.734 61.0852 145.771 61.0073C146.507 59.5656 147.351 57.8517 148.624 56.515C148.849 56.3176 149.074 56.1203 149.343 56.1535C149.42 56.1906 149.459 56.2669 149.462 56.3826C149.463 56.4211 149.426 56.499 149.427 56.5375C149.059 57.2391 148.729 57.94 148.436 58.6015C147.736 59.9268 147.114 61.2891 146.26 62.5404Z" fill="white"/>
</svg>
