<svg width="341" height="366" viewBox="0 0 341 366" fill="none" xmlns="http://www.w3.org/2000/svg">
<path d="M287.795 199.115L168.478 164.097L191.196 115.454C200.789 94.9178 223.941 84.4644 245.7 90.8505L262.405 95.7533C284.149 102.135 297.995 123.447 294.968 145.91L287.795 199.115Z" fill="#E3302B"/>
<path d="M287.795 199.116L273.446 195C273.446 195 281.532 166.914 284.446 150.5C288.795 126 277.946 106.5 267.946 102L262.406 95.7534C284.15 102.135 297.996 123.447 294.969 145.91L287.795 199.116Z" fill="#9E221F"/>
<path d="M193.111 303.559L273.823 247.724C256.575 226.496 239.732 214.186 233.467 210.684L145.568 159.272L59.3277 171.434C45.1755 177.183 43.1116 187.097 43.8487 191.336C43.8487 191.336 94.8927 212.543 123.455 233.35C167.47 265.414 193.111 303.559 193.111 303.559Z" fill="#E3302B"/>
<path d="M248.393 220.083L170.445 273.154L192.558 302.453L272.164 247.171C271.28 242.306 255.949 227.085 248.393 220.083Z" fill="white"/>
<path fill-rule="evenodd" clip-rule="evenodd" d="M176.715 279.881C177.49 279.441 178.406 279.23 179.36 279.33L190.796 280.535L193.736 269.418C194.294 267.309 196.306 265.922 198.475 266.15L209.911 267.355L212.851 256.238C213.409 254.129 215.421 252.741 217.59 252.97L229.026 254.175L231.966 243.057C232.524 240.948 234.536 239.561 236.705 239.79L248.141 240.995L251.081 229.877C251.639 227.768 255.82 226.609 255.82 226.609L262.496 236.207L258.663 235.803L255.724 246.921C255.166 249.029 253.154 250.417 250.985 250.188L239.548 248.983L236.609 260.101C236.051 262.21 234.039 263.597 231.87 263.368L220.433 262.164L217.494 273.281C216.936 275.39 214.924 276.777 212.755 276.549L201.318 275.344L198.379 286.461C197.821 288.57 195.809 289.957 193.64 289.729L182.607 288.567C178.486 288.132 176.715 280.535 176.715 279.881Z" fill="#E3302B"/>
<path d="M233.132 184.223C246.066 196.234 238.038 206.911 226.442 218.478C216.184 227.968 193.171 246.238 181.397 246.95C168.032 250.539 164.364 231.692 138.382 215.984C106.006 194.697 50.5407 167.638 44.0304 184.223C43.999 184.308 43.969 184.394 43.9402 184.48C42.4619 189.256 51.5778 195.043 68.7259 202.392C103.554 217.318 156.865 254.069 174.706 278.537L142.149 299.002C122.078 262.521 105.914 248.005 85.8635 230.033C72.119 217.714 39.0346 199.122 43.9402 184.48C43.9668 184.394 43.9969 184.308 44.0304 184.223C44.8253 182.055 46.206 179.83 48.0443 177.591C61.6764 160.986 100.478 143.583 112.268 142.848C140.811 141.068 200.606 154.017 233.132 184.223Z" fill="#E3302B"/>
<path d="M161.6 212.896C130.2 195.648 67.6204 171.987 49.3773 178.068L41.6378 188.019L64.8563 204.051L97.4729 216.213C97.4729 216.213 57.7755 198.448 58.7753 190.783C60.4337 178.068 120.139 205.156 120.139 205.156L143.91 220.635L157.731 231.692L172.104 244.96C175.974 248.461 184.487 252.478 187.583 240.537C190.679 228.596 171.551 217.134 161.6 212.896Z" fill="#590101" fill-opacity="0.66"/>
<path d="M154.414 258.78L126.22 274.259L142.251 299.689L174.315 279.787C171.219 274.922 159.758 263.755 154.414 258.78Z" fill="white"/>
<path d="M131.551 278.415L142.92 280.146L146.369 269.176C147.024 267.095 149.097 265.802 151.254 266.131L162.622 267.862L162.706 264.308L169.923 274.132C169.269 276.212 167.195 277.505 165.038 277.177L153.67 275.446L150.22 286.416C149.566 288.497 147.492 289.79 145.335 289.461L134.369 287.791L131.551 278.415Z" fill="#E3302B"/>
<path d="M162.153 286.421L174.315 279.234L164.917 268.178L139.487 245.512L103.001 220.635L68.7261 201.839L45.5075 190.23C47.166 199.075 64.3035 201.839 98.0257 222.847C137.2 247.25 156.072 275.365 162.153 286.421Z" fill="#590101" fill-opacity="0.66"/>
<path d="M44.0304 184.223C38.646 198.904 72.0384 217.642 85.8635 230.033C105.914 248.005 122.078 262.521 142.149 299.002C142.149 299.002 161.991 286.529 174.706 278.537M44.0304 184.223C44.8253 182.055 46.206 179.83 48.0443 177.591M44.0304 184.223C42.1361 189.048 51.2689 194.911 68.7259 202.392C103.554 217.318 156.865 254.069 174.706 278.537M44.0304 184.223C50.5407 167.638 106.006 194.697 138.382 215.984C164.364 231.692 168.032 250.539 181.397 246.95M174.706 278.537C181.673 288.093 192.546 303.006 192.546 303.006L273.27 247.49C263.9 234.805 247.034 216.182 234.023 210.915M181.397 246.95C183.182 245.688 202.359 233.159 161.326 212.695C124.167 194.164 66.2409 174.066 48.0443 177.591M181.397 246.95C193.171 246.238 216.184 227.968 226.442 218.478C238.038 206.911 246.066 196.234 233.132 184.223C200.606 154.017 140.811 141.068 112.268 142.848C100.478 143.583 61.6764 160.986 48.0443 177.591" stroke="#1D1D1B" stroke-width="3" stroke-linecap="round" stroke-linejoin="round"/>
<path d="M287.795 199.115L168.478 164.097L191.196 115.454C200.789 94.9178 223.941 84.4644 245.7 90.8505L262.405 95.7533C284.149 102.135 297.995 123.447 294.968 145.91L287.795 199.115Z" stroke="#1D1D1B" stroke-width="3" stroke-miterlimit="10"/>
<path d="M296.329 199.928C295.07 204.219 290.721 208.979 286.323 210.176C274.27 213.439 251.412 213.679 219.635 204.353C187.142 194.817 167.352 182.059 160.317 173.311C157.459 169.769 156.207 163.58 157.462 159.305L159.303 153.031C161.616 145.151 171.333 142.049 178.11 147.04C188.594 154.777 204.793 166.713 228.645 173.713C253.015 180.866 272.682 179.689 285.382 178.855C293.837 178.302 300.395 186.131 298.069 194.056L296.345 199.933L296.329 199.928Z" fill="white"/>
<path d="M281.946 211.5C292.446 209.5 295.07 204.219 296.329 199.928L296.344 199.933L298.069 194.056C299.325 189.777 299.033 182.514 293.946 179.5C289.611 176.931 280.836 178.245 276.946 178.5C279.3 186.882 276.946 210.5 258.946 211.5L281.946 211.5Z" fill="#C7DFF4"/>
<path d="M249.68 107.942C265.703 112.645 282.304 104.151 286.759 88.9716C291.214 73.7918 281.836 57.674 265.813 52.9714C249.79 48.2688 233.189 56.7622 228.734 71.9419C224.279 87.1216 233.657 103.239 249.68 107.942Z" fill="white"/>
<path d="M249.68 107.942C265.703 112.645 282.304 104.151 286.759 88.9716C291.214 73.7919 281.836 57.6741 265.813 52.9714C281.548 63.5 279.94 78 277.446 86.5C273.924 98.5 263.446 106 249.68 107.942Z" fill="#C8DFF4"/>
<path d="M249.68 107.942C265.703 112.645 282.304 104.151 286.759 88.9716C291.214 73.7918 281.836 57.674 265.813 52.9714C249.79 48.2688 233.189 56.7622 228.734 71.9419C224.279 87.1216 233.657 103.239 249.68 107.942Z" stroke="#1D1D1B" stroke-width="3" stroke-miterlimit="10" stroke-linecap="round" stroke-linejoin="round"/>
<path d="M296.329 199.928C295.065 206.546 290.721 208.979 286.323 210.176C274.27 213.439 251.411 213.679 219.635 204.353C187.142 194.817 167.352 182.059 160.317 173.311C158.029 170.476 156.415 166.777 156.505 163.221C156.55 161.455 157.294 159.807 158.097 158.233C159.228 156.012 160.939 152.748 162.191 150.767C166.666 143.689 171.656 140.946 178.434 145.937C188.917 153.674 205.117 165.61 228.968 172.61C253.339 179.762 273.006 178.585 285.706 177.752C294.16 177.198 298.24 181.43 297.392 190.447L296.329 199.928Z" stroke="#1D1D1B" stroke-width="3" stroke-miterlimit="10"/>
<path d="M229.67 146.857C227.229 144.035 223.244 142.496 216.12 142.389C208.612 141.978 205.96 142.35 203.508 139.323C202.632 137.933 202.702 136.129 203.728 133.802C205.62 130.073 208.716 126.858 213.473 123.681C216.082 122.068 218.457 120.723 221.086 120.675C223.07 120.743 222.472 122.142 222.188 122.284C221.952 122.215 221.546 122.136 221.181 122.246C220.876 122.366 220.012 122.787 219.731 123.613C219.302 124.877 220.705 125 221.483 124.465C222.331 123.853 223.687 122.604 223.386 120.98C223.233 120.389 222.817 119.889 222.207 119.581C220.04 118.809 217.678 119.257 215.443 119.862C210.454 121.525 205.968 124.541 202.811 128.357C200.956 130.674 198.871 134.16 199.436 137.662C199.944 140.126 201.967 141.949 204.845 142.537C206.875 142.908 209.444 142.97 211.16 143.056C212.875 143.141 221.904 142.729 223.159 148.427C223.159 148.427 224.565 146.95 226.816 147.57C228.707 147.941 231.156 149.424 232.673 151.412C232.313 150.253 230.906 148.289 229.67 146.857Z" fill="white"/>
<path d="M221.656 126.621C220.418 125.165 216.77 126.184 213.332 128.76C210.205 131.057 208.22 134.212 208.814 136.114C209.843 138.45 213.572 136.587 215.247 135.495L215.458 135.372C216.572 134.71 217.548 133.807 218.49 132.942C218.49 132.942 219.355 132.151 219.396 132.115C219.775 132.154 220.239 132.178 220.769 132.18C220.756 132.201 217.974 134.784 217.708 136.394C217.628 136.885 217.075 138.604 218.611 139.625C220.754 140.664 223.066 139.445 225.109 138.357C225.109 138.357 225.456 138.178 225.652 138.075C225.568 138.218 225.457 138.411 225.457 138.411C224.124 140.511 224.872 141.253 225.376 141.594C226.914 142.576 229.639 140.723 229.646 140.725C229.368 141.479 229.029 142.071 229.69 142.82C230.375 143.318 231.272 143.128 231.976 142.909C234.536 142.036 236.931 140.199 238.904 138.581L238.024 138.323C238.014 138.32 234.932 140.819 233.328 141.088C233.326 141.087 233.032 141.143 232.916 140.996C232.779 140.787 232.946 140.485 233.126 140.289C233.137 140.277 241.306 132.477 241.306 132.477L238.75 131.727C238.75 131.727 238.338 132.096 238.307 132.119C238.294 132.1 238.276 132.01 238.258 131.964C237.318 129.309 232.743 131.626 228.897 134.741C227.416 135.938 225.596 137.241 223.866 138.059C223.866 138.059 221.286 139.327 220.81 137.733C220.658 137.077 220.997 136.283 221.335 135.796C223.191 133.214 225.7 131.113 228.146 130.118C228.834 129.846 229.479 129.899 229.727 130.172C229.964 130.427 229.887 130.862 229.62 131.097C229.163 130.947 228.752 130.979 228.36 131.201C227.585 131.649 227.203 132.188 227.226 132.806C227.759 134.377 230.34 132.338 230.712 130.743C230.846 130.171 230.702 129.55 230.33 129.16C229.78 128.564 228.731 128.369 227.979 128.494C226.999 128.568 225.262 129.32 224.182 129.983C222.823 130.815 220.694 131.556 220.185 131.254C220.507 130.825 222.886 128.22 221.656 126.621ZM232.658 134.737C233.357 134.195 235.345 132.777 235.788 132.57C237.281 131.874 237.621 132.473 237.567 132.81C235.877 134.468 233.904 136.357 232.075 138.039C232.08 138.032 231.519 138.51 231.519 138.51C230.733 139.18 229.978 139.73 228.941 139.964C228.803 139.964 228.589 139.917 228.48 139.773C228.345 139.612 228.333 139.408 228.409 139.221C228.649 138.6 229.868 136.844 232.658 134.737ZM218.404 131.848C218.404 131.848 218.362 131.908 218.345 131.927C218.342 131.926 216.698 133.413 216.698 133.413C215.765 134.111 214.597 134.99 213.392 135.223C213.051 135.236 212.602 135.177 212.464 134.839C212.164 134.148 212.628 133.448 213.005 132.884L213.138 132.682C214.138 131.336 215.412 130.263 216.633 129.279C216.646 129.275 216.672 129.274 216.681 129.277C216.681 129.285 216.684 129.286 216.682 129.301C216.917 130.495 217.787 131.273 218.477 131.717C218.481 131.719 218.484 131.728 218.48 131.743C218.474 131.764 218.453 131.79 218.404 131.848ZM220.085 130.018C220.076 130.032 219.255 131.013 219.255 131.013C219.167 131.051 219.064 130.989 218.944 130.921L218.735 130.82C218.107 130.402 217.72 129.791 217.72 129.196C217.812 128.066 218.967 127.496 219.457 127.311C219.921 127.157 220.56 127.192 220.827 127.568C220.967 127.882 220.953 128.232 220.849 128.587C220.708 129.068 220.401 129.565 220.085 130.018Z" fill="white"/>
<path d="M251.389 142.935C251.298 142.33 250.814 141.818 250.179 141.672C248.1 141.263 245.631 142.347 243.89 144.431C242.984 145.499 242.388 146.426 241.72 147.982C242.562 147.442 244.196 146.627 245.844 146.404C245.844 146.404 246.496 144.915 247.911 143.836C248.461 143.378 249.496 142.685 250.285 143.181C250.962 143.654 250.088 145.656 248.499 147.375C247.325 148.638 245.76 149.788 244.317 150.473C243.053 151.034 241.253 151.631 240.179 150.448C239.498 149.717 239.377 148.573 239.853 147.282C241.344 143.66 243.978 140.977 247.477 138.066C250.976 135.435 254.757 132.791 259.025 132.043C259.898 131.881 260.629 131.999 261.167 132.414C261.167 132.414 257.103 133.311 254.391 136.381C253.701 137.16 252.753 138.207 253.03 139.462C253.176 140.115 253.714 140.322 254.167 140.423C256.351 140.549 258.232 139.028 259.824 137.598C260.838 136.457 261.781 135.303 262.211 133.838C262.263 133.66 262.323 133.421 262.36 133.239C263.489 133.007 265.223 134.513 265.223 134.513C266.636 135.49 269.219 139.022 270.2 139.84C270.935 139.364 272.119 138.667 272.767 138.335L272.165 137.668C271.2 136.605 270.157 135.559 269.131 134.526C266.797 132.194 264.38 132.063 263.107 132.14C262.606 132.17 262.152 132.189 262.152 132.189C261.571 131.006 260.144 130.683 259.038 130.632C255.013 130.608 250.804 132.194 245.786 135.616C242.033 138.349 239.453 140.903 237.671 143.651C236.384 145.475 235.298 148.396 236.469 150.661C237.465 152.584 239.465 152.818 240.969 152.673C244.305 152.093 247.833 149.768 250.183 146.592C250.808 145.626 251.596 144.234 251.389 142.935ZM261.364 133.75C259.679 138.063 255.477 139.651 254.565 139.608C254.019 139.56 253.206 139.072 254.537 137.446C256.428 135.284 259.027 133.74 261.466 133.274C261.464 133.474 261.427 133.592 261.364 133.75Z" fill="white"/>
<path d="M245.553 133.723L243.126 133.01L241.104 134.833L243.531 135.546L245.553 133.723Z" fill="white"/>
<path d="M269.553 158.786C269.24 158.887 268.914 158.643 269.17 158.277C269.816 157.341 271.793 155.628 271.793 155.628L277.543 150.031L274.952 149.271C274.77 149.437 274.37 149.823 274.37 149.823C274.309 149.589 274.081 149.04 273.962 148.901C273.446 148.315 272.463 148.232 271.716 148.406C268.453 149.217 265.477 151.838 263.138 153.877C263.138 153.877 260.633 156.17 259.636 156.103C258.887 155.948 259.252 154.985 259.351 154.765C260.12 153.19 261.239 151.807 262.32 150.572C263.938 150.035 265.832 149.264 267.619 148.334C271.495 146.329 275.01 143.8 275.598 143.177C275.598 143.177 275.17 143.139 274.689 143.014C271.407 145.58 265.255 148.902 263.604 149.181C264.696 147.829 270.988 141.695 275.539 139.213L276.249 138.842C277.351 138.257 278.49 137.659 279.222 137.721C279.298 137.735 279.39 137.77 279.421 137.965C279.26 138.625 278.877 139.035 278.438 139.501L277.813 140.186C277.813 140.186 278.396 140.244 278.793 140.232C279.446 139.564 280.172 138.812 280.311 137.704C280.354 137.346 280.183 137.015 279.879 136.862C278.888 136.354 277.515 136.794 276.41 137.154L276.366 137.165C270.546 139.483 264.982 143.653 259.347 149.925C259.037 150.043 257.991 149.985 257.858 149.825C258.411 149.216 259.126 148.388 259.647 147.417C259.772 147.131 259.896 146.839 259.983 146.543C260.17 145.906 260.193 145.262 259.744 144.68C259.172 144.151 258.3 144.064 257.668 144.151C254.867 144.455 252.249 146.468 250.283 148.181C249.166 149.308 248.022 150.531 247.34 152.115C246.821 153.361 246.864 154.274 247.475 154.904C248.115 155.509 249.179 155.387 249.608 155.305C252.529 154.715 255.081 152.562 257.191 150.529C257.249 150.538 258.016 150.739 258.635 150.76C258.642 150.762 258.646 150.763 258.656 150.775C258.591 150.876 258.033 151.677 258.033 151.677C256.389 154.007 255.464 155.649 255.992 156.937C256.752 158.76 259.173 157.815 261.369 156.272C260.316 158.584 261.456 159.329 262.463 159.423C263.644 159.449 265.208 158.637 265.95 158.204C265.561 158.854 265.242 160.127 266.201 160.544C266.846 160.871 267.466 160.65 268.15 160.505C270.61 159.973 274.277 156.87 275.262 155.951L274.398 155.697C273.048 156.839 271.311 158.345 269.553 158.786ZM250.597 152.943C250.521 152.703 250.54 152.472 250.605 152.234C251.005 150.776 253.328 148.636 254.846 147.543C254.849 147.544 254.849 147.544 254.849 147.544C255.014 148.691 255.869 149.648 256.42 150.107C255.123 151.623 251.336 154.574 250.597 152.943ZM257.091 149.456C257.001 149.486 255.813 148.655 255.917 147.359C256.009 146.244 256.974 145.635 257.796 145.427C258.166 145.278 258.643 145.33 258.94 145.545C259.187 145.843 259.162 146.238 259.045 146.637C258.973 146.882 258.867 147.124 258.771 147.344C258.771 147.344 258.753 147.387 258.75 147.394C258.289 148.151 257.716 148.859 257.091 149.456ZM266.347 157.059C266.346 157.059 266.032 157.208 266.032 157.208C265.583 157.422 265.117 157.654 264.725 157.355C264.616 157.274 264.578 157.086 264.594 156.954C264.841 156.038 265.499 155.315 266.137 154.61L266.302 154.425C268.006 152.851 269.995 150.992 272.405 150.003C272.804 149.863 273.219 149.768 273.55 150.034C273.613 150.141 273.673 150.311 273.632 150.452C273.619 150.496 273.544 150.603 273.51 150.633C272.707 151.354 271.916 152.127 271.151 152.867C269.65 154.331 268.094 155.843 266.347 157.059Z" fill="white"/>
<path d="M294.831 238.879L299.314 255.072C300.411 259.032 303.457 262.155 307.389 263.35L319.708 267.096L307.286 270.872C303.411 272.05 300.391 275.104 299.257 278.992L294.831 294.161L290.404 278.992C289.27 275.104 286.25 272.05 282.375 270.872L269.953 267.096L282.272 263.35C286.204 262.155 289.25 259.032 290.347 255.072L294.831 238.879Z" fill="#FFDB5D" stroke="#1D1D1B" stroke-width="3" stroke-linejoin="round"/>
<path d="M53.2469 217.871L57.02 231.361C58.127 235.319 61.1825 238.435 65.1179 239.62L75.3599 242.702L65.0143 245.816C61.1356 246.984 58.1076 250.029 56.9624 253.914L53.2469 266.52L49.5315 253.914C48.3863 250.029 45.3583 246.984 41.4796 245.816L31.134 242.702L41.376 239.62C45.3114 238.435 48.3669 235.319 49.4739 231.361L53.2469 217.871Z" fill="#FFDB5D" stroke="#1D1D1B" stroke-width="3" stroke-linejoin="round"/>
<path d="M315.285 144.899L317.404 152.523C318.504 156.482 321.554 159.603 325.486 160.794L330.764 162.393L325.383 164.023C321.507 165.198 318.484 168.248 317.346 172.135L315.285 179.174L313.224 172.135C312.085 168.248 309.063 165.198 305.187 164.023L299.806 162.393L305.084 160.794C309.016 159.603 312.066 156.482 313.166 152.523L315.285 144.899Z" fill="#FFDB5D" stroke="#1D1D1B" stroke-width="3" stroke-linejoin="round"/>
<path d="M130.002 131.429C134.195 148.126 122.745 159.828 106.048 164.021C89.3517 168.214 73.7312 163.31 69.5382 146.613C65.3453 129.917 75.6275 113.564 92.3243 109.371C109.021 105.178 125.809 114.732 130.002 131.429Z" fill="#FF833D"/>
<path d="M130.003 131.429C134.196 148.126 122.746 159.828 106.049 164.021C89.3521 168.214 73.0445 161.629 68.8515 144.932C68.5599 143.771 74.5246 157.445 90.6884 158.45C114.085 159.905 126.564 149.092 130.003 131.429Z" fill="#E36823"/>
<path d="M88.3589 120.688C87.5409 120.557 86.7716 121.114 86.6405 121.932C86.5095 122.75 87.0664 123.519 87.8844 123.65L88.3589 120.688ZM98.629 119.002C99.2142 118.416 99.2132 117.466 98.6268 116.881C98.0404 116.296 97.0906 116.297 96.5054 116.883L98.629 119.002ZM128.548 131.795C130.533 139.7 128.813 146.315 124.687 151.477C120.522 156.688 113.812 160.525 105.683 162.566L106.414 165.476C114.981 163.324 122.345 159.213 127.031 153.351C131.756 147.439 133.665 139.855 131.457 131.064L128.548 131.795ZM105.683 162.566C97.5537 164.608 89.8271 164.396 83.6946 161.772C77.6194 159.172 72.9782 154.153 70.9931 146.248L68.0834 146.979C70.2912 155.77 75.5568 161.552 82.5142 164.53C89.4144 167.483 97.8464 167.627 106.414 165.476L105.683 162.566ZM70.9931 146.248C67.0111 130.391 76.7592 114.826 92.6896 110.825L91.9589 107.916C74.4959 112.301 63.6794 129.442 68.0834 146.979L70.9931 146.248ZM92.6896 110.825C108.62 106.825 124.566 115.938 128.548 131.795L131.457 131.064C127.053 113.527 109.422 103.53 91.9589 107.916L92.6896 110.825ZM87.8844 123.65C89.9165 123.976 94.379 123.261 98.629 119.002L96.5054 116.883C92.8549 120.542 89.332 120.844 88.3589 120.688L87.8844 123.65Z" fill="#1D1D1B"/>
</svg>
