<svg width="327" height="244" viewBox="0 0 327 244" fill="none" xmlns="http://www.w3.org/2000/svg">
<path d="M289.547 3.01652C289.841 2.08505 291.159 2.08505 291.454 3.01652L294.358 12.2055C294.989 14.8887 297.094 16.9931 299.794 17.6419L308.983 20.5465C309.915 20.8409 309.915 22.1591 308.983 22.4535L299.794 25.3581C297.111 25.9894 295.007 28.0938 294.358 30.7945L291.454 39.9835C291.159 40.915 289.841 40.915 289.547 39.9835L286.642 30.7945C286.011 28.1113 283.906 26.0069 281.206 25.3581L272.017 22.4535C271.085 22.1591 271.085 20.8409 272.017 20.5465L281.206 17.6419C283.889 17.0106 285.993 14.9062 286.642 12.2055L289.547 3.01652Z" fill="#FFDB5D" stroke="#1D1D1B" stroke-width="3" stroke-miterlimit="10" stroke-linejoin="round"/>
<path d="M17.602 111.013C17.8967 110.082 19.2142 110.082 19.5088 111.013L21.8851 118.522C22.43 120.835 24.2461 122.649 26.5769 123.209L34.0907 125.581C35.0225 125.876 35.0225 127.194 34.0907 127.488L26.5769 129.861C24.2613 130.405 22.4451 132.219 21.8851 134.547L19.5088 142.057C19.2142 142.988 17.8967 142.988 17.602 142.057L15.2257 134.547C14.6809 132.234 12.8647 130.42 10.5339 129.861L3.02018 127.488C2.0883 127.194 2.0883 125.876 3.02018 125.581L10.5339 123.209C12.8496 122.665 14.6657 120.85 15.2257 118.522L17.602 111.013Z" fill="#FFDB5D" stroke="#1D1D1B" stroke-width="3" stroke-miterlimit="10" stroke-linejoin="round"/>
<path d="M283.047 172.017C283.341 171.085 284.659 171.085 284.954 172.017L288.307 182.625C289.011 185.62 291.361 187.969 294.375 188.693L304.983 192.047C305.915 192.341 305.915 193.659 304.983 193.954L294.375 197.307C291.38 198.011 289.031 200.361 288.307 203.375L284.954 213.983C284.659 214.915 283.341 214.915 283.047 213.983L279.693 203.375C278.989 200.38 276.639 198.031 273.625 197.307L263.017 193.954C262.085 193.659 262.085 192.341 263.017 192.047L273.625 188.693C276.62 187.989 278.969 185.639 279.693 182.625L283.047 172.017Z" fill="#FFDB5D" stroke="#1D1D1B" stroke-width="3" stroke-miterlimit="10" stroke-linejoin="round"/>
<path d="M40.0465 77.0165C40.3409 76.085 41.6591 76.085 41.9535 77.0165L43.8711 83.0832C44.341 85.0799 45.907 86.646 47.9168 87.1289L53.9835 89.0465C54.9149 89.3409 54.9149 90.6591 53.9835 90.9535L47.9168 92.8711C45.9201 93.3409 44.354 94.907 43.8711 96.9168L41.9535 102.983C41.6591 103.915 40.3409 103.915 40.0465 102.983L38.1289 96.9168C37.659 94.9201 36.093 93.354 34.0832 92.8711L28.0165 90.9535C27.0851 90.6591 27.0851 89.3409 28.0165 89.0465L34.0832 87.1289C36.0799 86.6591 37.646 85.093 38.1289 83.0832L40.0465 77.0165Z" fill="#FFDB5D" stroke="#1D1D1B" stroke-width="3" stroke-miterlimit="10" stroke-linejoin="round"/>
<path d="M306.602 137.013C306.897 136.082 308.214 136.082 308.509 137.013L310.885 144.522C311.43 146.835 313.246 148.649 315.577 149.209L323.091 151.581C324.023 151.876 324.023 153.194 323.091 153.488L315.577 155.861C313.261 156.405 311.445 158.219 310.885 160.547L308.509 168.057C308.214 168.988 306.897 168.988 306.602 168.057L304.226 160.547C303.681 158.234 301.865 156.42 299.534 155.861L292.02 153.488C291.088 153.194 291.088 151.876 292.02 151.581L299.534 149.209C301.85 148.665 303.666 146.85 304.226 144.522L306.602 137.013Z" fill="#FFDB5D" stroke="#1D1D1B" stroke-width="3" stroke-miterlimit="10" stroke-linejoin="round"/>
<g clip-path="url(#clip0_711_1732)">
<path d="M157.44 193.19C157.63 193.66 157.83 194.14 158.04 194.61C158.05 194.63 158.06 194.65 158.07 194.67C158.08 194.4 158.11 194.14 158.16 193.88C157.9 193.67 157.66 193.44 157.44 193.19Z" fill="white"/>
<path d="M149.09 153.08C149.13 152.96 149.18 152.84 149.22 152.72C149.58 149.18 150.16 145.65 150.82 142.17C150.89 141.81 150.96 141.45 151.03 141.1C150.63 141.66 150.33 142.3 150.19 143.01C149.51 146.37 149.15 149.73 149.09 153.08Z" fill="white"/>
<path d="M249.21 241.45C243.31 242.81 237.53 241.8 231.78 240.26C228.08 239.27 224.3 239.52 220.6 238.51C219.01 238.92 216.52 238.84 215 238C211 238.09 207.99 233.47 208.7 229.5C208.85 228.62 208.69 226.91 208.7 225.94C206.33 222.34 206.86 217.11 207.08 213.44C207.15 212.18 205.83 211.5 206.5 210.5C206.44 210.23 205.58 207.29 205.55 207C204.85 201.02 206.52 197.22 205.55 191.26C205.11 190.08 204.73 188.87 204.38 187.65C204.33 187.66 204.29 187.66 204.24 187.66C201.78 187.75 199.18 187.71 196.55 187.49C196.61 187.85 196.66 188.21 196.71 188.58C197.21 189.44 198.38 189.67 198.28 190.72C198.18 191.7 198.29 192.94 198.19 193.93C198.17 196.12 198.68 198.8 198.29 200.99C197.96 204.48 197.12 208.14 196.79 211.64C196.7 212.54 196.41 214.81 196.04 215.61C195.89 218.51 196.15 220.09 196 223C195.95 224.02 194.96 233.78 191.81 236.15C189.89 237.59 187.43 238.01 185.24 237.43C185.07 237.51 184.9 237.59 184.84 237.63C184.38 237.92 183.95 238.21 183.46 238.45C180.87 239.75 178.5 239.42 175.93 239.11C175.74 239.08 175.55 239.07 175.36 239.05C174.7 239.62 173.92 240.05 173.02 240.22C172.11 240.4 171.19 240.58 170.28 240.75C169.44 240.97 168.61 241.23 167.79 241.54C166.94 241.85 166.06 241.9 165.2 241.74C165.11 241.76 165.01 241.78 164.91 241.8C163.31 242.11 161.68 241.9 160.32 241.2C159.14 241.61 157.93 241.93 156.72 242.21C153.45 242.93 150.01 241.22 149.1 237.88C148.16 234.47 150.25 231.37 153.42 230.26C154.36 229.93 155.3 229.61 156.24 229.28C156.54 229.17 156.84 229.11 157.14 229.06C157.37 228.77 157.62 228.5 157.93 228.25C158.19 228.04 158.46 227.82 158.72 227.61C159.57 226.69 160.55 225.92 161.65 225.33C162.06 225.09 162.48 224.88 162.92 224.72C163.05 224.66 163.19 224.59 163.33 224.53C164.08 224.07 164.84 223.6 165.6 223.14C166.12 222.82 165.23 222.37 165.74 222.22C165.48 221.54 165.08 221.75 165 221C164.98 220.73 165.02 220.26 165 220C164.66 219.48 165.96 218.38 165.81 217.74L164.48 212.27C163.75 210.3 162.97 208.34 162.18 206.39C162.16 206.34 162.13 206.31 162.11 206.26L158.75 198.33C158.25 197.13 158 195.87 158.07 194.67C158.08 194.4 158.11 194.14 158.16 193.88C157.9 193.67 157.65 193.44 157.43 193.19C156.83 192.52 156.39 191.71 156.19 190.8C155.73 188.79 155.3 186.78 154.87 184.77C154.61 184.46 154.38 184.13 154.18 183.76C151.91 179.42 150.74 174.83 150.15 170.12C149.47 169.44 148.94 168.56 148.64 167.47C147.98 165.04 148.01 162.71 148.35 160.3C148.27 159.94 148.22 159.58 148.2 159.21C148.07 157.08 148.41 155.04 149.09 153.08C149.13 152.96 149.17 152.83 149.21 152.71C149.57 149.18 150.16 145.64 150.82 142.16C150.89 141.8 150.95 141.44 151.03 141.09C152.74 132.55 155.46 124.33 158.85 116.3C158.98 115.69 159.17 115.09 159.45 114.5C162.39 108.19 164.71 101.49 166.43 94.6401C167.26 91.3501 167.95 88.0101 168.5 84.6701C168.6 84.0501 168.83 83.4801 169.17 82.9701C170.43 81.0001 173.11 79.9001 175.3 80.2301C175.47 80.2501 175.63 80.2901 175.8 80.3201C176.36 80.3101 176.93 80.3801 177.48 80.5301C178.62 80.8401 179.57 81.4501 180.3 82.2401C180.85 82.2301 181.42 82.2901 181.99 82.4501C183.16 82.7701 184.1 83.3901 184.83 84.1801C185.39 84.1001 185.95 84.0901 186.48 84.1701C187.8 84.3701 189.09 85.0301 190.08 85.9801C190.21 85.8901 190.34 85.8001 190.48 85.7101C190.97 85.4101 191.5 85.2001 192.04 85.0601C193.04 83.6401 194.63 82.6101 196.36 82.4101C199.14 82.0801 202.64 83.7701 203.15 86.8501C203.25 87.4101 203.34 87.9801 203.43 88.5401H203.48C203.4 86.2301 204.31 84.0301 206.46 82.7801C208.69 81.4701 212.21 81.6701 213.96 83.7501C214.34 84.2001 214.71 84.6601 215.07 85.1201C215.69 84.6501 216.37 84.2801 217.09 84.0901C220 83.2901 222.48 84.6501 223.94 86.9301C225.2 87.0201 226.4 87.5001 227.39 88.3301C227.93 88.7501 228.4 89.2901 228.81 89.9201C230.4 92.3601 231.98 94.8201 233.49 97.3201C237.11 103.27 240.33 109.47 242.22 116.19C245.1 126.46 243.86 137.12 244.74 147.6C244.83 148.65 244.55 149.66 244.04 150.55C243.62 151.27 243.04 151.91 242.37 152.42C242.18 153.38 241.75 154.18 241.17 154.85C241.17 154.87 241.18 154.89 241.18 154.91C241.53 154.94 241.87 154.99 242.19 155.08C244.91 155.83 246.57 158.32 246.73 161.06C246.76 161.47 246.77 161.88 246.78 162.29C247.32 162.5 247.83 162.77 248.3 163.09C249.61 162.85 251.01 163.04 252.35 163.82C255.14 165.45 256.4 169.48 254.57 172.3C252.85 174.94 253.85 178.32 252.52 181.04C252.52 181.26 250.85 184.52 250.83 184.71C250.2 190.31 240.05 215.48 239 218.5C238.75 219.23 241.83 224.47 243 225C245.21 226.02 247.99 228.73 250.69 230.13C258.72 234.29 254.55 240.22 249.21 241.45Z" fill="#54C7E2"/>
<path d="M195.3 228.99C195.26 232.47 192.75 236.59 189.2 236.51C187.69 237.35 186.07 238.92 184.47 238.51C180.78 239.52 177 239.27 173.3 240.26C167.54 241.8 161.76 243.81 155.87 242.45C152.75 241.74 148.05 238.43 147.91 235.8C152.79 239.32 175.24 238.03 195.3 228.99Z" fill="#16AEC7"/>
<path d="M208.13 228.99C208.17 232.47 210.68 236.59 214.23 236.51C215.74 237.35 217.36 238.92 218.96 238.51C222.65 239.52 226.43 239.27 230.13 240.26C235.89 241.8 241.67 243.81 247.56 242.45C250.68 241.74 255.38 238.43 255.52 235.8C250.64 239.32 228.19 238.03 208.13 228.99Z" fill="#16AEC7"/>
<path d="M255.45 166.82C253.73 169.46 254.88 173.55 253.55 176.27C237.93 178.68 230.75 167.85 230.22 161.28L237.97 150.56H244.04C243.62 151.28 243.04 151.92 242.37 152.43C242.18 153.39 241.75 154.19 241.17 154.86C241.17 154.88 241.18 154.9 241.18 154.92C241.53 154.95 241.87 155 242.19 155.09C244.91 155.84 246.57 158.33 246.73 161.07C246.76 161.48 246.77 161.89 246.78 162.3C247.32 162.51 247.83 162.78 248.3 163.1C249.61 162.86 251.01 163.05 252.35 163.83C255.14 165.45 257.28 164 255.45 166.82Z" fill="#16AEC7"/>
<path d="M168.25 82.1802C168.35 99.9702 147.55 132.59 147.55 157.46C147.55 182.33 165.08 208.43 165.08 221.89C154.89 227.6 146.94 235.62 147.55 237.79C149.95 246.42 193.44 238.84 194.44 235.34C195.87 228.2 199.54 187.63 199.54 187.63" stroke="#1D1D1B" stroke-width="3" stroke-miterlimit="10" stroke-linejoin="round"/>
<path d="M255.45 166.82C252.09 188.66 238.67 210.11 238.67 221.89C248.86 227.6 256.81 235.62 256.2 237.79C253.8 246.42 210.31 238.84 209.31 235.34C207.88 228.2 204.21 187.63 204.21 187.63" stroke="#1D1D1B" stroke-width="3" stroke-miterlimit="10" stroke-linejoin="round"/>
<path d="M179.76 185.41C185.09 187.54 192.6 188.86 200.92 188.86C210.1 188.86 218.3 187.24 223.67 184.72" stroke="#1D1D1B" stroke-width="3" stroke-miterlimit="10" stroke-linecap="round"/>
<path d="M180.3 14.2902C179.87 13.2402 179.32 12.2302 178.65 11.2702C173.42 3.80017 162.69 2.28017 154.68 7.88017C146.67 13.4802 144.42 24.0802 149.64 31.5502C151.74 34.5502 154.73 36.6002 158.07 37.6002" fill="#54C7E2"/>
<path d="M180.3 14.2902C179.87 13.2402 179.32 12.2302 178.65 11.2702C173.42 3.80017 162.69 2.28017 154.68 7.88017C146.67 13.4802 144.42 24.0802 149.64 31.5502C151.74 34.5502 154.73 36.6002 158.07 37.6002" stroke="#1D1D1B" stroke-width="3" stroke-miterlimit="10" stroke-linejoin="round"/>
<path d="M158.47 34.4101C154.87 29.2601 155.52 20.8201 161.04 16.9701C165.86 13.6001 172.12 13.9801 176.02 17.5701L166.71 24.8301L158.47 34.4101Z" fill="#B8FDFF"/>
<path d="M223.76 14.2902C224.19 13.2402 224.74 12.2302 225.41 11.2702C230.64 3.80017 241.37 2.28017 249.38 7.88017C257.39 13.4802 259.64 24.0802 254.42 31.5502C252.32 34.5502 249.33 36.6002 245.99 37.6002" fill="#54C7E2"/>
<path d="M223.76 14.2902C224.19 13.2402 224.74 12.2302 225.41 11.2702C230.64 3.80017 241.37 2.28017 249.38 7.88017C257.39 13.4802 259.64 24.0802 254.42 31.5502C252.32 34.5502 249.33 36.6002 245.99 37.6002" stroke="#1D1D1B" stroke-width="3" stroke-miterlimit="10" stroke-linejoin="round"/>
<path d="M245.58 34.4101C249.18 29.2601 248.53 20.8201 243.01 16.9701C238.19 13.6001 231.93 13.9801 228.03 17.5701L237.34 24.8301L245.58 34.4101Z" fill="#B8FDFF"/>
<path d="M158 97.5L155 83.5L160.5 76L163.5 77.5L165 82L162 88L160.5 95L158 97.5Z" fill="#C7DFF4"/>
<path d="M221.62 91.0402C223.31 93.7302 229.19 114.66 230.73 128.72C232.36 143.6 223.41 170.88 246.22 169.29C288.96 166.31 255.85 97.2302 238.84 79.5502C238.84 79.5502 228.81 71.1102 224.4 73.8602C220 76.6202 221.62 91.0402 221.62 91.0402Z" fill="#54C7E2"/>
<path d="M257.36 107.61C254.61 114.91 249.89 127.76 231.86 129.72L229.16 114.17L245.39 97.6201L252.7 98.6801L257.36 107.61Z" fill="#16AEC7"/>
<path d="M221.62 91.0402C223.31 93.7302 229.19 114.66 230.73 128.72C232.36 143.6 223.41 170.88 246.22 169.29C288.96 166.31 255.85 97.2302 238.84 79.5502C238.84 79.5502 228.81 71.1102 224.4 73.8602C220 76.6202 221.62 91.0402 221.62 91.0402Z" stroke="#1D1D1B" stroke-width="3" stroke-miterlimit="10"/>
<path d="M163.14 102.52C179.3 115.49 237.93 113.67 251.74 101.52C253.2 94.6203 247.35 84.1303 243.26 83.3103C234.29 89.0603 228.22 91.1103 203.21 91.1103C178.2 91.1103 169.94 78.7703 166.43 80.4603C162.92 82.1503 156.95 99.8503 163.14 102.52Z" fill="#E3302B"/>
<path d="M163.14 103.52C182.69 118.55 243.18 111.78 251.74 101.52C253.2 94.6203 247.35 84.1303 243.26 83.3103C234.29 89.0603 228.22 91.1103 203.21 91.1103C178.2 91.1103 169.94 78.7703 166.43 80.4603C162.92 82.1503 156.95 100.85 163.14 103.52Z" stroke="#1D1D1B" stroke-width="3" stroke-miterlimit="10" stroke-linecap="round"/>
<path d="M232.68 78.4702C231.03 88.7202 215.84 95.0102 215.84 109.23C215.84 116.18 226.42 131.06 244.28 118.16C265.84 102.59 238.66 61.7102 234.36 59.1802C230.06 56.6502 232.68 78.4702 232.68 78.4702Z" fill="white"/>
<path d="M232.68 78.4702C231.03 88.7202 215.84 95.0102 215.84 109.23C215.84 116.18 226.42 131.06 244.28 118.16C265.84 102.59 238.66 61.7102 234.36 59.1802C230.06 56.6502 232.68 78.4702 232.68 78.4702Z" stroke="#1D1D1B" stroke-width="3" stroke-miterlimit="10" stroke-linecap="round"/>
<path d="M249.9 52.6702C249.9 56.2202 249.4 59.6702 248.46 62.9602C245.4 73.6302 237.72 82.6702 227.39 88.3302C220.08 92.3402 211.44 94.6602 202.19 94.6602C189.37 94.6602 177.75 90.2102 169.17 82.9702C167.11 81.2402 165.23 79.3402 163.55 77.3002C157.84 70.3802 154.48 61.8702 154.48 52.6702C154.48 29.4702 175.84 10.6702 202.19 10.6702C228.54 10.6702 249.9 29.4702 249.9 52.6702Z" fill="#54C7E2"/>
<path d="M202.19 94.6702C228.54 94.6702 249.9 75.8661 249.9 52.6702C249.9 29.4742 228.54 10.6702 202.19 10.6702C175.841 10.6702 154.48 29.4742 154.48 52.6702C154.48 75.8661 175.841 94.6702 202.19 94.6702Z" stroke="#1E1E1E" stroke-width="3" stroke-miterlimit="10"/>
<path d="M173.53 85.6502C167.54 94.8102 169.52 137.59 169.52 137.59L185.05 138.55C185.71 123.25 181.33 95.3202 191.2 92.4102C195.27 91.2102 177.08 80.2202 173.53 85.6502Z" fill="#E3302B"/>
<path d="M173.205 109.208C173.205 109.208 173.388 109.772 174.085 110.457C174.759 111.141 175.551 111.568 175.786 111.312C175.88 111.218 175.905 110.96 175.534 110.489C175.186 110.065 174.767 109.71 174.255 109.473C173.555 109.14 173.205 109.208 173.205 109.208ZM174.721 105.792C174.296 106.47 173.802 106.96 173.495 107.497C173.189 107.988 173.046 108.316 173.091 108.738C173.09 108.809 173.113 108.856 173.113 108.903C173.113 108.903 173.885 108.743 175.095 109.665C176.327 110.611 176.253 111.385 175.901 111.594C175.526 111.803 174.78 111.446 174.129 110.903C173.455 110.336 172.923 109.371 172.923 109.371C172.923 109.371 172.711 109.651 173.104 110.404C173.473 111.133 174.377 112.429 175.959 113.658C177.54 114.888 178.426 115.175 179.126 115.39C179.826 115.605 180.598 115.493 180.649 114.719C180.701 113.945 179.538 112.976 179.142 112.692C178.398 112.172 177.208 111.789 177.321 112.447C177.389 112.776 177.715 113.036 178.064 113.225C178.274 113.344 178.507 113.439 178.74 113.511C178.832 113.746 178.924 113.958 179.063 114.17C179.202 114.382 179.388 114.594 179.574 114.806C179.574 114.806 179.013 114.756 178.105 114.258C177.196 113.76 176.828 112.913 176.83 112.444C176.833 112.022 177.21 111.508 178.515 112.055C179.821 112.603 181.354 114.066 181.299 115.473C181.244 116.787 179.464 117.527 176.578 115.515C173.39 113.291 172.54 110.846 172.475 110.072C172.41 109.297 172.785 109.065 172.785 109.065C172.624 108.595 172.557 108.078 172.63 107.586C172.753 106.648 173.481 105.972 174.024 105.037C174.256 105.297 174.512 105.556 174.721 105.792ZM173.882 101.494C174.275 102.177 174.597 103.094 174.451 103.961C174.66 104.197 174.916 104.456 175.195 104.692C175.601 103.217 174.721 101.828 173.954 101.096C173.676 100.813 173.373 100.576 173.024 100.386C173.372 100.717 173.651 101.094 173.882 101.494ZM178.098 103.772C178.075 103.748 178.051 103.748 178.028 103.748C177.958 103.747 177.887 103.817 177.887 103.888C177.863 104.028 177.885 104.216 178.442 104.782C178.907 105.231 179.395 105.633 179.954 105.964C180.489 106.296 180.886 106.439 181.004 106.276C181.027 106.229 181.051 106.159 181.028 106.088C181.006 105.971 180.913 105.829 180.68 105.617C180.588 105.523 180.425 105.404 180.262 105.262C179.82 104.908 178.377 103.961 178.098 103.772ZM178.393 109.122C178.16 109.027 177.716 108.883 177.528 109.093C177.317 109.327 177.733 109.963 178.177 110.012C178.644 110.038 178.88 109.618 178.904 109.524C178.928 109.454 178.928 109.454 178.882 109.406C178.719 109.312 178.556 109.217 178.393 109.122ZM179.207 109.643C179.137 109.783 179.019 109.923 178.901 110.04C178.784 110.157 178.643 110.25 178.479 110.342C178.455 110.342 178.479 110.366 178.479 110.366C178.502 110.366 178.525 110.413 178.99 110.768C179.456 111.122 180.457 111.691 180.67 111.247C180.812 110.966 180.301 110.447 179.976 110.14C179.743 109.951 179.487 109.762 179.231 109.596C179.208 109.62 179.207 109.643 179.207 109.643ZM180.71 104.538C180.896 104.68 181.293 104.846 181.062 104.423C180.808 103.905 179.737 103.125 179.737 103.125L179.763 102.796C180.205 103.127 180.623 103.482 181.018 103.859C181.552 104.402 182.039 105.062 181.967 105.484C181.87 105.999 181.194 105.784 181.194 105.784C181.194 105.784 181.937 106.563 181.864 107.055C181.743 107.735 180.903 107.471 180.903 107.471C180.903 107.471 181.833 108.298 181.759 108.837C181.661 109.658 180.634 109.394 179.935 109.108C179.562 108.965 179.259 108.822 179.259 108.822C179.259 108.822 179.282 108.916 179.281 109.08C179.28 109.174 179.279 109.338 179.279 109.338C179.279 109.338 179.885 109.717 180.233 110.025C180.582 110.332 181.79 111.559 181.505 112.237C181.221 112.846 180.241 112.582 179.473 112.155C178.355 111.538 176.799 109.934 177.061 109.067C177.347 108.177 178.977 109.172 178.977 109.172C178.977 109.149 179 109.102 178.978 109.008C178.955 108.891 178.932 108.773 178.886 108.679C178.886 108.679 176.976 107.636 175.768 106.549C174.559 105.463 172.469 103.315 173.058 102.568C173.199 102.381 173.642 102.501 174.178 102.786C174.201 102.904 174.223 103.021 174.246 103.138C173.943 102.949 173.664 102.807 173.477 102.758C172.824 102.59 174.123 104.193 175.565 105.352C176.425 106.06 177.356 106.699 178.311 107.245C178.195 107.033 178.079 106.845 177.94 106.656C177.569 106.161 177.152 105.666 176.71 105.218C176.292 104.769 175.874 104.368 175.409 103.967C175.41 103.849 175.411 103.732 175.388 103.614C175.9 104.04 176.411 104.512 176.852 105.007C177.27 105.456 177.711 105.951 178.035 106.375C178.337 106.752 178.592 107.153 178.823 107.576C178.823 107.576 180.709 108.643 180.876 108.128C180.971 107.824 180.063 107.185 180.063 107.185C180.063 107.185 178.9 106.333 178.389 105.838C177.692 105.153 177.298 104.588 177.325 104.025C177.35 103.697 177.702 103.535 177.702 103.535L177.469 103.369L177.521 102.454C177.592 102.455 180.501 104.372 180.71 104.538ZM173.882 101.494C174.275 102.177 174.597 103.094 174.451 103.961C174.66 104.197 174.916 104.456 175.195 104.692C175.601 103.217 174.721 101.828 173.954 101.096C173.676 100.813 173.373 100.576 173.024 100.386C173.372 100.717 173.651 101.094 173.882 101.494ZM174.528 114.565L174.476 115.432L175.267 115.977L175.319 115.109L174.528 114.565ZM177.119 118.92C176.607 118.518 174.838 117.358 174.838 117.358C174.768 117.358 174.697 117.428 174.697 117.498C174.673 117.639 174.718 117.874 175.299 118.393C175.88 118.913 176.345 119.314 176.834 119.599C177.37 119.931 177.743 120.074 177.861 119.91C177.884 119.863 177.908 119.793 177.885 119.746C177.862 119.629 177.77 119.487 177.537 119.275C177.421 119.18 177.281 119.062 177.119 118.92ZM174.334 123.478C174.122 123.711 174.539 124.347 174.983 124.397C175.45 124.423 175.617 123.885 175.641 123.814C175.641 123.791 175.641 123.768 175.641 123.744C175.641 123.721 175.618 123.72 175.618 123.72C175.478 123.649 175.361 123.578 175.222 123.507C174.965 123.388 174.522 123.268 174.334 123.478ZM175.897 123.957C175.826 124.121 175.755 124.284 175.637 124.424C175.543 124.565 175.402 124.681 175.238 124.75C175.214 124.75 175.237 124.774 175.237 124.774C175.261 124.774 175.307 124.845 175.796 125.199C176.284 125.554 177.262 126.123 177.475 125.679C177.617 125.398 177.106 124.855 176.781 124.572C176.525 124.359 176.246 124.146 175.967 123.957C175.897 123.91 175.897 123.933 175.897 123.957ZM176.664 116.783L176.69 116.455C176.69 116.455 178.992 118.228 178.823 119.118C178.727 119.634 178.097 119.442 178.097 119.442C178.097 119.442 178.91 120.221 178.696 120.853C178.506 121.439 177.504 120.987 177.504 120.987C177.526 121.058 178.944 122.45 178.518 123.316C178.092 124.228 176.857 123.658 176.507 123.468C176.204 123.302 175.902 123.112 175.902 123.112C175.902 123.112 175.924 123.253 175.947 123.347C175.97 123.441 175.992 123.582 175.992 123.582C175.992 123.582 176.714 124.079 177.063 124.386C177.411 124.693 178.619 125.92 178.334 126.599C178.027 127.277 177.07 127.037 176.301 126.61C175.067 125.899 173.604 124.318 173.89 123.452C174.176 122.562 175.643 123.416 175.643 123.416C175.643 123.416 175.667 123.228 175.413 122.781C175.02 122.145 173.903 121.247 174.096 120.357C174.192 119.935 174.661 119.586 175.452 120.177C175.708 120.366 175.94 120.673 175.682 120.859C175.517 120.975 175.261 120.856 175.098 120.691C174.959 120.573 174.89 120.385 174.914 120.197C174.914 120.197 174.588 120.031 174.563 120.406C174.561 120.711 175.21 121.513 175.932 121.986C176.584 122.413 177.678 123.099 177.962 122.515C178.222 121.977 177.014 120.843 176.386 120.323C175.758 119.804 174.293 118.598 174.299 117.66C174.301 117.332 174.606 117.169 174.606 117.169L174.443 117.051L174.495 116.113C174.495 116.113 177.381 118.054 177.59 118.196C177.753 118.314 178.15 118.481 177.942 118.081C177.687 117.68 176.664 116.783 176.664 116.783ZM181.426 117.609C180.908 118.263 180.6 119.059 180.571 119.903C180.545 120.348 180.753 120.795 181.125 121.079C180.469 121.38 180.044 122.058 179.968 123.137C179.887 124.872 180.601 126.659 180.499 128.043C180.421 129.356 179.504 130.265 178.009 130.139C175.37 129.912 173.118 127.576 172.146 125.881C171.591 124.916 171.456 124.118 171.552 123.602C171.625 123.227 172.095 122.808 172.724 123.14C173.655 123.615 173.535 124.177 173.092 124.128C172.788 124.102 172.626 123.89 172.533 123.749C172.463 123.655 172.464 123.49 172.465 123.397C172.395 123.302 171.882 123.205 172.018 123.886C172.154 124.568 172.78 125.416 173.593 126.242C174.406 127.068 175.987 128.368 177.714 128.777C178.507 128.969 179.979 128.978 180.084 127.125C180.163 125.554 179.266 123.156 179.419 121.045C179.471 120.225 179.756 119.523 180.156 118.986C180.51 118.448 181.051 117.818 181.426 117.609Z" fill="white"/>
<path d="M173.53 85.6502C167.28 94.6402 169.52 137.59 169.52 137.59L186.05 138.55C186.71 123.25 181.33 95.3202 191.2 92.4102C195.27 91.2102 176.94 80.7402 173.53 85.6502Z" stroke="#1E1E1E" stroke-width="3" stroke-miterlimit="10" stroke-linecap="round" stroke-linejoin="round"/>
<path d="M223.76 58.1102C226.389 58.1102 228.52 55.106 228.52 51.4002C228.52 47.6944 226.389 44.6902 223.76 44.6902C221.131 44.6902 219 47.6944 219 51.4002C219 55.106 221.131 58.1102 223.76 58.1102Z" fill="#1D1D1B"/>
<path d="M180.3 58.1102C182.929 58.1102 185.06 55.106 185.06 51.4002C185.06 47.6944 182.929 44.6902 180.3 44.6902C177.671 44.6902 175.54 47.6944 175.54 51.4002C175.54 55.106 177.671 58.1102 180.3 58.1102Z" fill="#1D1D1B"/>
<path d="M201.75 61.3002C206.588 61.3002 210.51 59.8182 210.51 57.9902C210.51 56.1621 206.588 54.6802 201.75 54.6802C196.912 54.6802 192.99 56.1621 192.99 57.9902C192.99 59.8182 196.912 61.3002 201.75 61.3002Z" fill="#1D1D1B"/>
<path d="M201.75 67.2503V59.3103" stroke="#1D1D1B" stroke-width="3" stroke-miterlimit="10" stroke-linecap="round"/>
<path d="M216.69 66.3901C212.5 74.0001 201.75 69.9201 201.75 66.3901" stroke="#1D1D1B" stroke-width="3" stroke-miterlimit="10" stroke-linecap="round"/>
<path d="M186.81 66.3901C191 74.0001 201.75 69.9201 201.75 66.3901" stroke="#1D1D1B" stroke-width="3" stroke-miterlimit="10" stroke-linecap="round"/>
<path d="M166.5 193C166.28 193.25 166.76 193.72 166.5 193.93C166.55 194.19 166.49 194.73 166.5 195C166.56 196.2 165.11 197.13 164.6 198.33L161.24 206.26C161.22 206.31 161.2 206.34 161.18 206.39C160.38 208.34 159.61 210.3 158.87 212.27L157.55 217.74C157.4 218.38 157.13 218.96 156.79 219.48C156.76 219.74 156.73 220.01 156.7 220.28C156.63 221.03 157.88 221.54 157.62 222.22C158.13 222.37 157.24 222.82 157.76 223.14C158.52 223.6 159.28 224.07 160.03 224.53C160.17 224.59 160.3 224.66 160.44 224.72C160.87 224.88 161.3 225.09 161.7 225.33C162.8 225.92 163.78 226.69 164.64 227.61C164.9 227.82 165.17 228.04 165.43 228.25C165.73 228.5 165.99 228.77 166.21 229.06C166.52 229.11 166.82 229.17 167.12 229.28C168.05 229.61 168.99 229.93 169.93 230.26C173.1 231.37 175.2 234.47 174.26 237.88C173.34 241.22 169.9 242.93 166.64 242.21C165.43 241.93 164.21 241.61 163.04 241.2C161.68 241.9 160.05 242.11 158.45 241.8C158.35 241.78 158.25 241.76 158.15 241.74C157.3 241.9 156.41 241.85 155.57 241.54C154.74 241.23 153.91 240.97 153.08 240.75C152.16 240.58 151.25 240.4 150.33 240.22C149.44 240.05 148.65 239.62 148 239.05C147.81 239.07 147.62 239.08 147.43 239.11C144.86 239.42 142.48 239.75 139.89 238.45C139.41 238.21 138.97 237.92 138.52 237.63C138.45 237.59 138.28 237.51 138.12 237.43C135.92 238.01 133.47 237.59 131.55 236.15C128.39 233.78 129.07 223.8 129.02 222.78C128.87 219.87 127.47 218.51 127.31 215.61C126.94 214.81 126.65 212.54 126.57 211.64C126.24 208.14 125.4 204.48 125.07 200.99C124.67 198.8 125.18 196.12 125.16 193.93C125.07 192.94 125.17 191.7 125.08 190.72C124.98 189.67 126.15 189.44 126.64 188.58C126.69 188.21 126.75 187.85 126.8 187.49C124.18 187.71 121.58 187.75 119.11 187.66C119.07 187.66 119.02 187.66 118.98 187.65C118.63 188.87 118.24 190.08 117.81 191.26C116.84 197.22 115.99 203.16 115.29 209.14C115.26 209.43 115.21 209.71 115.15 209.98C115.81 210.98 116.2 212.18 116.28 213.44C116.5 217.11 117.03 222.34 114.66 225.94C114.67 226.91 114.84 228.12 115 229C115.08 229.45 114.67 231.05 114.66 231.5C114.62 234.98 111.55 238.08 108 238C106.49 238.84 104.35 238.92 102.75 238.51C99.06 239.52 95.28 239.27 91.58 240.26C85.82 241.8 80.04 242.81 74.15 241.45C68.0004 240.5 68.33 238.43 68.19 235.8C68.09 233.92 69.31 231.87 72.67 230.13C75.36 228.73 77.7804 225.52 80.0004 224.5C81.1704 223.97 84.7604 219.73 84.5004 219C83.8104 216.99 79.64 204.5 75.99 195.27C74.16 190.62 72.74 186.59 72.53 184.71C72.51 184.52 70.84 181.26 70.84 181.04C70.28 179.9 70.13 178.66 70.03 177.39C69.87 175.63 69.79 173.84 68.78 172.3C66.95 169.48 68.22 165.45 71.01 163.82C72.34 163.04 73.74 162.85 75.06 163.09C75.52 162.77 76.04 162.5 76.57 162.29C76.59 161.88 76.6 161.47 76.62 161.06C76.78 158.32 78.44 155.83 81.17 155.08C81.49 154.99 81.83 154.94 82.18 154.91C82.18 154.89 82.18 154.87 82.19 154.85C81.6 154.18 81.18 153.38 80.99 152.42C79.5 151.28 78.45 149.51 78.61 147.6C79.5 137.12 78.26 126.46 81.14 116.19C83.82 106.64 89.18 98.1598 94.54 89.9198C95.7 88.1298 97.48 87.0698 99.42 86.9298C100.88 84.6498 103.35 83.2898 106.27 84.0898C106.98 84.2798 107.67 84.6498 108.28 85.1198C108.64 84.6598 109.02 84.1998 109.4 83.7498C111.15 81.6698 114.67 81.4698 116.9 82.7798C119.05 84.0298 119.96 86.2298 119.88 88.5398H119.93C120.02 87.9798 120.11 87.4098 120.2 86.8498C120.72 83.7698 124.21 82.0798 127 82.4098C128.73 82.6098 130.32 83.6398 131.32 85.0598C131.86 85.1998 132.39 85.4098 132.88 85.7098C133.02 85.7998 133.14 85.8898 133.28 85.9798C134.26 85.0298 135.55 84.3698 136.88 84.1698C137.41 84.0898 137.97 84.0998 138.53 84.1798C139.25 83.3898 140.2 82.7698 141.37 82.4498C141.94 82.2898 142.5 82.2298 143.06 82.2398C143.79 81.4498 144.74 80.8398 145.87 80.5298C146.43 80.3798 146.99 80.3098 147.56 80.3198C147.72 80.2898 147.89 80.2498 148.06 80.2298C150.81 79.8098 154.35 81.6698 154.85 84.6698C156.56 94.9598 159.56 105.15 163.91 114.5C164.18 115.09 164.38 115.69 164.5 116.3C167.9 124.33 170.62 132.55 172.33 141.09C172.4 141.44 172.47 141.8 172.54 142.16C173.2 145.64 174.64 148.47 175 152C175.04 152.12 176.39 153.419 175.16 153.5C175.83 155.46 175.28 157.08 175.16 159.21C175.14 159.58 175.08 159.94 175 160.3C175.34 162.71 175.37 165.04 174.71 167.47C174.41 168.56 174.68 169.82 174 170.5C173.4 175.21 173.27 179.16 171 183.5C170.8 183.87 171.26 185.19 171 185.5C170.57 187.51 167.62 188.79 167.17 190.8C166.96 191.71 167.1 192.33 166.5 193Z" fill="white"/>
<path d="M114.58 228.99C114.54 232.47 114.02 237.989 108.5 237C106.99 237.84 105.35 238.92 103.75 238.51C100.06 239.52 96.2799 239.27 92.5799 240.26C86.8199 241.8 81.39 243.36 75.5 242C72.38 241.29 67.3299 238.43 67.1899 235.8C72.0699 239.32 94.5299 238.03 114.58 228.99Z" fill="#C7DFF4"/>
<path d="M127.42 228.99C127.46 232.47 129.97 236.59 133.52 236.51C135.03 237.35 136.65 238.92 138.25 238.51C141.94 239.52 145.72 239.27 149.42 240.26C155.18 241.8 160.96 243.81 166.85 242.45C174.81 240.612 174.67 238.43 174.81 235.8C169.93 239.32 147.48 238.03 127.42 228.99Z" fill="#C7DFF4"/>
<path d="M97.34 163.58C87.57 184.71 76.84 179.71 76.2 194.67C76.19 194.89 76.08 195.08 75.99 195.27C74.16 190.62 72.74 186.59 72.53 184.71C72.51 184.52 70.84 181.26 70.84 181.04C70.28 179.9 70.13 178.66 70.03 177.39L71.43 175.32L100.14 150.55L97.34 163.58Z" fill="#C4C4C4"/>
<path d="M91.12 96.6799C120.58 110.57 150.96 97.1399 158.18 93.9999C157.35 90.7099 156.66 87.3699 156.11 84.0299C156.01 83.4099 155.78 82.8399 155.44 82.3299C154.18 80.3599 98.21 86.8599 97.22 87.6899C96.68 88.1099 96.21 88.6499 95.8 89.2799C94.21 91.7199 92.63 94.1799 91.12 96.6799Z" fill="#C7DFF4"/>
<path d="M155.11 82.1799C155.01 99.9699 175.81 132.59 175.81 157.46C175.81 182.33 158.28 208.43 158.28 221.89C168.47 227.6 176.42 235.62 175.81 237.79C173.41 246.42 129.92 238.84 128.92 235.34C127.49 228.2 123.82 187.63 123.82 187.63" stroke="#1D1D1B" stroke-width="3" stroke-miterlimit="10" stroke-linejoin="round"/>
<path d="M67.91 166.82C71.27 188.66 84.69 210.11 84.69 221.89C74.5 227.6 66.55 235.62 67.16 237.79C69.56 246.42 113.05 238.84 114.05 235.34C115.48 228.2 119.15 187.63 119.15 187.63" stroke="#1D1D1B" stroke-width="3" stroke-miterlimit="10" stroke-linejoin="round"/>
<path d="M143.6 185.41C138.27 187.54 130.76 188.86 122.44 188.86C113.26 188.86 105.06 187.24 99.6899 184.72" stroke="#1D1D1B" stroke-width="3" stroke-miterlimit="10" stroke-linecap="round"/>
<path d="M141 14.788C141.43 13.738 141.98 12.728 142.65 11.768C147.88 4.29797 158.61 2.77797 166.62 8.37797C174.63 13.978 176.88 24.578 171.66 32.048C169.56 35.048 166.57 37.098 163.23 38.098" fill="white"/>
<path d="M141 14.788C141.43 13.738 141.98 12.728 142.65 11.768C147.88 4.29797 158.61 2.77797 166.62 8.37797C174.63 13.978 176.88 24.578 171.66 32.048C169.56 35.048 166.57 37.098 163.23 38.098" stroke="#1D1D1B" stroke-width="3" stroke-miterlimit="10" stroke-linejoin="round"/>
<path d="M162.82 34.9079C166.42 29.7579 165.77 21.3179 160.25 17.4679C155.43 14.0979 149.17 14.4779 145.27 18.0679L154.58 25.3279L162.82 34.9079Z" fill="#C7DFF4"/>
<path d="M99.61 14.2899C99.18 13.2399 98.63 12.2299 97.96 11.2699C92.73 3.79993 82 2.27993 73.99 7.87993C65.98 13.4799 63.73 24.0799 68.95 31.5499C71.05 34.5499 74.04 36.5999 77.38 37.5999" fill="white"/>
<path d="M99.61 14.2899C99.18 13.2399 98.63 12.2299 97.96 11.2699C92.73 3.79993 82 2.27993 73.99 7.87993C65.98 13.4799 63.73 24.0799 68.95 31.5499C71.05 34.5499 74.04 36.5999 77.38 37.5999" stroke="#1D1D1B" stroke-width="3" stroke-miterlimit="10" stroke-linejoin="round"/>
<path d="M77.78 34.4099C74.18 29.2599 74.83 20.8199 80.35 16.9699C85.17 13.5999 91.43 13.9799 95.33 17.5699L86.02 24.8299L77.78 34.4099Z" fill="#C7DFF4"/>
<path d="M90.72 171.09C84.9 176.38 79.5 179.75 77.48 181.9C75 184.54 74.78 187.06 71.49 190.55C68.2 194.04 63.26 190.3 60.36 187.57C57.47 184.84 53.44 180.13 56.73 176.64C60.02 173.15 62.53 172.78 65.01 170.15C67.03 168.01 70.07 162.42 75.01 156.3C76.15 154.89 77.39 153.45 78.74 152.01C81.04 149.57 83.8 147.68 86.52 146.18C91.9 143.2 97.13 141.71 98.41 140.35C100.35 138.29 102.34 136.34 102.34 136.34C101.3 135.36 103.72 133.81 105.01 133.46C106.61 134.92 108.37 136.63 108.37 136.63C108.37 136.63 110.19 138.29 111.74 139.8C111.47 141.11 110.06 143.61 109.02 142.63C109.02 142.63 107.19 144.74 105.25 146.79C103.96 148.15 102.78 153.47 100.13 159.01C98.79 161.82 97.07 164.68 94.77 167.13C93.43 168.54 92.06 169.86 90.72 171.09Z" fill="#E3302B"/>
<path d="M94.78 167.11C93.43 168.54 92.06 169.87 90.72 171.09L75.02 156.29C76.16 154.88 77.4 153.44 78.75 152C81.05 149.56 83.81 147.67 86.53 146.17L100.14 159C98.8 161.8 97.08 164.66 94.78 167.11Z" fill="#1D1D1B"/>
<path d="M92.24 158.96C92.24 158.96 91.9 158.85 91.32 158.94C90.74 159.03 90.25 159.27 90.29 159.48C90.31 159.56 90.42 159.66 90.78 159.64C91.11 159.63 91.44 159.54 91.74 159.38C92.15 159.15 92.23 158.96 92.24 158.96ZM93.36 160.93C93.17 160.48 93.11 160.06 92.97 159.72C92.84 159.39 92.72 159.21 92.51 159.08C92.48 159.06 92.45 159.05 92.41 159.03C92.41 159.03 92.22 159.47 91.33 159.73C90.43 160 90.06 159.69 90.1 159.44C90.14 159.18 90.57 158.94 91.07 158.82C91.59 158.69 92.25 158.78 92.25 158.78C92.25 158.78 92.18 158.58 91.68 158.5C91.19 158.42 90.24 158.41 89.07 158.74C87.9 159.08 87.44 159.42 87.09 159.69C86.74 159.96 86.51 160.38 86.87 160.68C87.23 160.98 88.12 160.76 88.4 160.66C88.93 160.48 89.54 160.03 89.17 159.86C88.99 159.78 88.73 159.84 88.52 159.94C88.39 160 88.26 160.08 88.14 160.18C88 160.14 87.85 160.12 87.7 160.11C87.54 160.1 87.37 160.11 87.21 160.13C87.21 160.13 87.43 159.86 88 159.6C88.57 159.34 89.11 159.46 89.34 159.62C89.55 159.77 89.66 160.14 88.92 160.59C88.18 161.04 86.92 161.28 86.25 160.74C85.63 160.24 85.9 159.1 87.92 158.4C90.15 157.63 91.66 158.07 92.06 158.32C92.46 158.57 92.44 158.83 92.44 158.83C92.73 158.92 93 159.07 93.22 159.28C93.63 159.67 93.71 160.28 93.97 160.87C93.77 160.87 93.56 160.9 93.36 160.93ZM95.77 162.04C95.3 161.99 94.73 161.82 94.35 161.45C94.16 161.47 93.94 161.51 93.72 161.56C94.3 162.28 95.29 162.35 95.93 162.24C96.16 162.2 96.39 162.13 96.61 162.04C96.33 162.07 96.05 162.07 95.77 162.04ZM93.14 163.3C93.15 163.29 93.17 163.29 93.18 163.28C93.2 163.24 93.2 163.19 93.17 163.16C93.11 163.1 93 163.04 92.54 163.11C92.15 163.17 91.78 163.28 91.42 163.43C91.07 163.57 90.85 163.72 90.89 163.84C90.9 163.87 90.93 163.9 90.97 163.92C91.03 163.95 91.14 163.95 91.32 163.92C91.41 163.9 91.51 163.87 91.64 163.84C91.97 163.75 92.95 163.38 93.14 163.3ZM90.42 161.54C90.55 161.47 90.77 161.3 90.74 161.13C90.7 160.95 90.24 160.91 90.06 161.13C89.88 161.35 90 161.61 90.04 161.67C90.06 161.7 90.07 161.71 90.11 161.7C90.21 161.64 90.31 161.59 90.42 161.54ZM89.87 161.75C89.83 161.66 89.8 161.56 89.78 161.45C89.76 161.35 89.77 161.24 89.79 161.14C89.79 161.13 89.78 161.13 89.77 161.13C89.76 161.13 89.73 161.13 89.38 161.24C89.03 161.34 88.4 161.63 88.54 161.89C88.63 162.06 89.07 162 89.33 161.94C89.51 161.9 89.69 161.84 89.86 161.77C89.88 161.77 89.88 161.76 89.87 161.75ZM91.84 164.33C91.7 164.38 91.48 164.51 91.77 164.55C92.12 164.6 92.89 164.36 92.89 164.36L93.04 164.49C92.72 164.59 92.4 164.67 92.07 164.73C91.61 164.8 91.11 164.81 90.93 164.62C90.72 164.39 91.06 164.13 91.06 164.13C91.06 164.13 90.41 164.22 90.2 164C89.91 163.7 90.35 163.37 90.35 163.37C90.35 163.37 89.61 163.53 89.38 163.31C89.01 162.97 89.51 162.57 89.9 162.32C90.11 162.19 90.28 162.09 90.28 162.09C90.28 162.09 90.23 162.07 90.14 162.01C90.09 161.98 90.01 161.92 90.01 161.92C90.01 161.92 89.61 162.08 89.34 162.15C89.07 162.22 88.02 162.37 87.8 161.98C87.6 161.62 88.08 161.24 88.56 161.01C89.26 160.68 90.61 160.49 90.94 160.93C91.28 161.39 90.2 161.84 90.2 161.84C90.2 161.84 90.2 161.84 90.2 161.85C90.21 161.86 90.23 161.88 90.29 161.91C90.35 161.94 90.42 161.97 90.48 161.99C90.48 161.99 91.67 161.42 92.64 161.21C93.61 161 95.4 160.74 95.56 161.3C95.6 161.44 95.38 161.61 95.05 161.77C94.98 161.74 94.91 161.71 94.85 161.68C95.06 161.6 95.22 161.51 95.31 161.44C95.62 161.18 94.38 161.25 93.29 161.53C92.64 161.7 91.99 161.93 91.37 162.2C91.51 162.22 91.65 162.23 91.79 162.22C92.17 162.21 92.56 162.19 92.94 162.14C93.3 162.1 93.66 162.03 94.02 161.94C94.08 161.98 94.13 162.02 94.19 162.06C93.79 162.16 93.39 162.24 92.99 162.29C92.62 162.33 92.21 162.38 91.89 162.38C91.6 162.39 91.31 162.38 91.02 162.35C91.02 162.35 89.82 162.9 90.01 163.16C90.12 163.31 90.76 163.1 90.76 163.1C90.76 163.1 91.59 162.83 92.03 162.75C92.62 162.65 93.04 162.66 93.3 162.87C93.45 162.99 93.4 163.23 93.4 163.23L93.56 163.18L93.99 163.54C93.97 163.53 91.99 164.27 91.84 164.33ZM95.77 162.04C95.3 161.99 94.73 161.82 94.35 161.45C94.16 161.47 93.94 161.51 93.72 161.56C94.3 162.28 95.29 162.35 95.93 162.24C96.16 162.2 96.39 162.13 96.61 162.04C96.33 162.07 96.05 162.07 95.77 162.04ZM89.13 157.7L88.72 157.36L88.17 157.55L88.58 157.89L89.13 157.7ZM86.07 157.42C86.45 157.32 87.65 156.85 87.65 156.85C87.67 156.81 87.67 156.76 87.64 156.73C87.58 156.67 87.45 156.6 86.99 156.7C86.53 156.8 86.17 156.89 85.85 157.02C85.5 157.16 85.29 157.3 85.33 157.41C85.34 157.44 85.37 157.47 85.41 157.49C85.47 157.52 85.58 157.52 85.77 157.49C85.84 157.48 85.95 157.46 86.07 157.42ZM84.84 154.42C84.8 154.24 84.34 154.2 84.16 154.41C83.98 154.63 84.18 154.91 84.22 154.94C84.23 154.95 84.24 154.96 84.25 154.96C84.26 154.96 84.27 154.96 84.28 154.96C84.36 154.92 84.44 154.88 84.52 154.84C84.65 154.76 84.87 154.59 84.84 154.42ZM84.05 155.03C83.99 154.94 83.95 154.84 83.92 154.74C83.89 154.64 83.89 154.53 83.91 154.43C83.91 154.42 83.9 154.42 83.89 154.42C83.88 154.42 83.83 154.43 83.48 154.54C83.13 154.65 82.51 154.93 82.65 155.19C82.74 155.36 83.18 155.3 83.44 155.24C83.64 155.19 83.84 155.13 84.03 155.05C84.05 155.04 84.05 155.04 84.05 155.03ZM87.28 157.96L87.43 158.08C87.43 158.08 85.74 158.58 85.36 158.17C85.15 157.94 85.47 157.7 85.47 157.7C85.47 157.7 84.8 157.83 84.56 157.49C84.34 157.19 84.92 156.86 84.92 156.86C84.88 156.85 83.69 157.05 83.41 156.53C83.11 155.99 83.83 155.59 84.06 155.48C84.25 155.39 84.45 155.31 84.45 155.31C84.45 155.31 84.37 155.27 84.31 155.25C84.25 155.23 84.18 155.18 84.18 155.18C84.18 155.18 83.68 155.36 83.41 155.43C83.14 155.5 82.09 155.65 81.87 155.26C81.65 154.87 82.11 154.48 82.6 154.26C83.39 153.91 84.69 153.75 85.01 154.21C85.34 154.67 84.41 155.09 84.41 155.09C84.41 155.09 84.48 155.17 84.8 155.2C85.26 155.24 86.1 155.01 86.46 155.41C86.63 155.6 86.64 155.96 86.07 156.14C85.89 156.2 85.66 156.2 85.65 156.01C85.64 155.89 85.8 155.81 85.94 155.78C86.05 155.75 86.17 155.78 86.25 155.86C86.25 155.86 86.45 155.76 86.28 155.61C86.14 155.5 85.5 155.54 85.02 155.71C84.58 155.87 83.85 156.17 84.04 156.52C84.21 156.84 85.19 156.65 85.68 156.52C86.17 156.39 87.27 156.11 87.73 156.44C87.89 156.55 87.86 156.77 87.86 156.77L87.98 156.73L88.41 157.09C88.41 157.09 86.43 157.82 86.28 157.87C86.16 157.91 85.94 158.04 86.21 158.09C86.48 158.15 87.28 157.96 87.28 157.96ZM85.18 160.01C85.05 159.52 84.76 159.09 84.36 158.78C84.14 158.61 83.85 158.56 83.58 158.64C83.66 158.21 83.49 157.75 82.98 157.34C82.16 156.67 81.02 156.39 80.38 155.86C79.77 155.35 79.65 154.58 80.25 153.88C81.31 152.66 83.25 152.39 84.43 152.51C85.11 152.58 85.55 152.8 85.76 153.03C85.92 153.19 85.96 153.58 85.57 153.77C85 154.06 84.77 153.8 84.95 153.59C85.07 153.46 85.23 153.44 85.34 153.45C85.41 153.46 85.49 153.51 85.53 153.54C85.6 153.54 85.83 153.32 85.45 153.14C85.07 152.96 84.43 152.96 83.73 153.08C83.03 153.19 81.83 153.5 81.02 154.2C80.64 154.52 80.11 155.25 80.99 155.96C81.73 156.56 83.23 156.96 84.21 157.8C84.59 158.12 84.84 158.51 84.96 158.9C85.1 159.26 85.21 159.76 85.18 160.01Z" fill="white"/>
<path d="M111.75 139.78C111.87 141.2 110.07 143.59 109.03 142.61C109.03 142.61 106.96 144.7 105.26 146.77C104.07 148.22 102.79 153.45 100.14 158.99C98.8 161.8 97.08 164.66 94.78 167.11C93.43 168.54 92.06 169.87 90.72 171.09C84.9 176.38 79.5 179.75 77.48 181.9C75 184.54 74.78 187.06 71.49 190.55C68.2 194.04 63.26 190.3 60.36 187.57C57.47 184.84 53.44 180.13 56.73 176.64C60.02 173.15 62.53 172.78 65.01 170.15C67.03 168.01 70.07 162.42 75.01 156.3C76.15 154.89 77.39 153.45 78.74 152.01C81.04 149.57 83.8 147.68 86.52 146.18C91.9 143.2 97.13 141.71 98.41 140.35C100.35 138.29 102.34 136.34 102.34 136.34C101.3 135.36 103.72 133.81 105.01 133.46" stroke="#1D1D1B" stroke-width="3" stroke-miterlimit="10" stroke-linecap="round" stroke-linejoin="round"/>
<path d="M104.21 132.86C104.67 133.29 112.37 140.55 112.37 140.55C112.37 140.55 115.39 139.69 110.15 134.75C104.92 129.83 104.21 132.86 104.21 132.86Z" fill="#1D1D1B"/>
<path d="M101.74 91.04C100.05 93.73 94.1701 114.66 92.6301 128.72C91.0001 143.6 99.95 170.88 77.14 169.29C34.4 166.31 67.51 97.23 84.5201 79.55C84.5201 79.55 94.55 71.11 98.96 73.86C103.36 76.62 101.74 91.04 101.74 91.04Z" fill="white"/>
<path d="M67.13 106.61C69.88 113.91 74.6 126.76 92.63 128.72L95.33 113.17L79.1 96.6099L71.79 97.6699L67.13 106.61Z" fill="#C7DFF4"/>
<path d="M101.74 91.04C100.05 93.73 94.1701 114.66 92.6301 128.72C91.0001 143.6 99.95 170.88 77.14 169.29C34.4 166.31 67.51 97.23 84.5201 79.55C84.5201 79.55 94.55 71.11 98.96 73.86C103.36 76.62 101.74 91.04 101.74 91.04Z" stroke="#1D1D1B" stroke-width="3" stroke-miterlimit="10"/>
<path d="M93.41 78.47C95.06 88.72 110.25 95.01 110.25 109.23C110.25 116.18 99.67 131.06 81.81 118.16C60.25 102.59 87.43 61.71 91.73 59.18C96.03 56.65 93.41 78.47 93.41 78.47Z" fill="#54C7E2"/>
<path d="M93.41 78.47C95.06 88.72 110.25 95.01 110.25 109.23C110.25 116.18 99.67 131.06 81.81 118.16C60.25 102.59 87.43 61.71 91.73 59.18C96.03 56.65 93.41 78.47 93.41 78.47Z" stroke="#1D1D1B" stroke-width="3" stroke-miterlimit="10" stroke-linecap="round"/>
<path d="M121.17 94.6699C147.519 94.6699 168.88 75.8659 168.88 52.6699C168.88 29.474 147.519 10.6699 121.17 10.6699C94.8205 10.6699 73.46 29.474 73.46 52.6699C73.46 75.8659 94.8205 94.6699 121.17 94.6699Z" fill="white"/>
<path d="M121.17 94.6699C147.519 94.6699 168.88 75.8659 168.88 52.6699C168.88 29.474 147.519 10.6699 121.17 10.6699C94.8205 10.6699 73.46 29.474 73.46 52.6699C73.46 75.8659 94.8205 94.6699 121.17 94.6699Z" stroke="#1D1D1B" stroke-width="3" stroke-miterlimit="10"/>
<path d="M99.61 58.1099C102.239 58.1099 104.37 55.1058 104.37 51.3999C104.37 47.6941 102.239 44.6899 99.61 44.6899C96.9811 44.6899 94.85 47.6941 94.85 51.3999C94.85 55.1058 96.9811 58.1099 99.61 58.1099Z" fill="#1D1D1B"/>
<path d="M143.07 58.1099C145.699 58.1099 147.83 55.1058 147.83 51.3999C147.83 47.6941 145.699 44.6899 143.07 44.6899C140.441 44.6899 138.31 47.6941 138.31 51.3999C138.31 55.1058 140.441 58.1099 143.07 58.1099Z" fill="#1D1D1B"/>
<path d="M121.61 61.2999C126.448 61.2999 130.37 59.818 130.37 57.9899C130.37 56.1619 126.448 54.6799 121.61 54.6799C116.772 54.6799 112.85 56.1619 112.85 57.9899C112.85 59.818 116.772 61.2999 121.61 61.2999Z" fill="#1D1D1B"/>
<path d="M121.61 67.2501V59.3101" stroke="#1D1D1B" stroke-width="3" stroke-miterlimit="10" stroke-linecap="round"/>
<path d="M106.67 66.3899C110.86 73.9999 121.61 69.9199 121.61 66.3899" stroke="#1D1D1B" stroke-width="3" stroke-miterlimit="10" stroke-linecap="round"/>
<path d="M136.55 66.3899C132.36 73.9999 121.61 69.9199 121.61 66.3899" stroke="#1D1D1B" stroke-width="3" stroke-miterlimit="10" stroke-linecap="round"/>
</g>
<defs>
<clipPath id="clip0_711_1732">
<rect width="215.69" height="240.27" fill="white" transform="translate(54 3)"/>
</clipPath>
</defs>
</svg>
