<svg width="255" height="247" viewBox="0 0 255 247" fill="none" xmlns="http://www.w3.org/2000/svg">
<path d="M178.94 242.398L247.685 217.847V139.755L120.471 133.334V211.345L178.94 242.398Z" fill="#234830"/>
<path d="M248.598 162.446L225.071 172.565L185.771 240.206L213.939 230.619L248.598 168.304V162.446Z" fill="#346D48"/>
<path d="M248.065 194.935L249.13 179.489L223.565 224.761L233.852 221.186L248.065 194.935Z" fill="#346D48"/>
<path d="M133.554 171.5L171.04 237.011L149.532 226.565L135.685 202.924L133.554 171.5Z" fill="#173421"/>
<path d="M216.921 173.825L211.061 173.825L179.105 226.02L179.638 234.009L216.921 173.825Z" fill="#346D48"/>
<path d="M178.94 242.398L247.685 217.847V139.755L120.471 133.334V211.345L178.94 242.398Z" stroke="#1D1D1B" stroke-width="3" stroke-linejoin="round"/>
<path d="M178.94 164.307L247.685 139.755L189.078 108.629L120.471 133.254L178.94 164.307Z" fill="#E3302B" stroke="#1D1D1B" stroke-width="3" stroke-linejoin="round"/>
<path d="M178.943 164.307L178.943 242.398" stroke="#1D1D1B" stroke-width="3"/>
<path d="M178.512 187.767L252.992 161.167V134.34L115.165 127.384V154.124L178.512 187.767Z" fill="#234830" stroke="#1D1D1B" stroke-width="3" stroke-linejoin="round"/>
<path d="M178.512 160.94L252.992 134.34L189.496 100.617L115.165 127.297L178.512 160.94Z" fill="#367035" stroke="#1D1D1B" stroke-width="3" stroke-linejoin="round"/>
<path d="M137.38 138.339L211.523 111.674" stroke="black" stroke-width="3"/>
<path d="M225.831 121.429L152.728 148.065L135.429 138.339L208.271 111.674L225.831 121.429Z" fill="#EDF4F4" stroke="#1D1D1B" stroke-width="3" stroke-linejoin="round"/>
<path d="M145.082 116.877L204.915 151.997L225.727 144.192L163.292 110.373L145.082 116.877Z" fill="#EDF4F4" stroke="#1D1D1B" stroke-width="3" stroke-linejoin="round"/>
<path d="M178.514 159.531L178.514 187.767" stroke="#1D1D1B" stroke-width="3"/>
<path d="M133.298 137.413V164.044L153.46 174.449V147.819L133.298 137.413Z" fill="#9DA8A0" stroke="#1D1D1B" stroke-width="3" stroke-linejoin="round"/>
<path d="M227.858 143.804V170.391L207.046 177.514V151.609L227.858 143.804Z" fill="#9DA8A0" stroke="#1D1D1B" stroke-width="3" stroke-linejoin="round"/>
<path d="M65.775 244.999L134.52 220.448V142.356L7.30566 135.936V213.946L65.775 244.999Z" fill="#08679C"/>
<path d="M37.9514 176.826L15.3156 217.837L17.9786 221.032L31.2101 227.424L54.9082 184.815L37.9514 176.826Z" fill="#117DB9"/>
<path d="M66.7123 190.141L61.3654 185.347L35.8002 230.619L43.8101 231.684L66.7123 190.141Z" fill="#117DB9"/>
<path d="M128.274 164.576L93.6091 232.751L111.586 227.956L133.6 185.824L135.685 166.706L128.274 164.576Z" fill="#034B74"/>
<path d="M65.775 244.999L134.52 220.448V142.356L7.30566 135.936V213.946L65.775 244.999Z" stroke="#1D1D1B" stroke-width="3" stroke-linejoin="round"/>
<path d="M65.7755 166.908L134.52 142.356L75.9134 111.23L7.30615 135.855L65.7755 166.908Z" fill="#E3302B" stroke="#1D1D1B" stroke-width="3" stroke-linejoin="round"/>
<path d="M65.7766 166.908L65.7766 244.999" stroke="#1D1D1B" stroke-width="3"/>
<path d="M65.3471 190.368L139.827 163.768V136.942L2 129.985V156.725L65.3471 190.368Z" fill="#08679C" stroke="#1D1D1B" stroke-width="3" stroke-linejoin="round"/>
<path d="M65.3473 163.542L139.827 136.942L76.331 103.219L2.00024 129.898L65.3473 163.542Z" fill="#44A8DF" stroke="#1D1D1B" stroke-width="3" stroke-linejoin="round"/>
<path d="M24.2156 140.94L98.3579 114.275" stroke="black" stroke-width="3"/>
<path d="M112.666 124.03L42.4262 151.346L22.2646 140.94L95.1062 114.275L112.666 124.03Z" fill="#FFDB5D" stroke="#1D1D1B" stroke-width="3" stroke-linejoin="round"/>
<path d="M31.9172 119.478L91.7504 154.598L112.562 146.793L50.1276 112.974L31.9172 119.478Z" fill="#FFDB5D" stroke="#1D1D1B" stroke-width="3" stroke-linejoin="round"/>
<path d="M65.3492 162.132L65.3492 190.368" stroke="#1D1D1B" stroke-width="3"/>
<path d="M22.2646 140.94V167.496L42.4262 177.902V151.346L22.2646 140.94Z" fill="#EB7407" stroke="#1D1D1B" stroke-width="3" stroke-linejoin="round"/>
<path d="M112.563 146.793V173.38L91.7512 180.503V154.598L112.563 146.793Z" fill="#EB7407" stroke="#1D1D1B" stroke-width="3" stroke-linejoin="round"/>
<path d="M123.656 158.477L192.401 133.926V55.8342L65.1864 49.4136V127.424L123.656 158.477Z" fill="#E3302B"/>
<path d="M153.385 130.602C151.369 129.732 148.506 130.445 143.991 133.566C139.151 136.67 137.552 138.103 135.434 137.119C134.597 136.53 134.343 135.213 134.569 133.053C135.089 129.496 136.48 125.879 139.003 121.454C140.324 119.137 141.627 117.144 143.322 115.933C144.561 115.131 144.496 116.323 144.268 116.527C144.153 116.63 143.823 116.72 143.594 116.925C143.474 117.136 142.891 117.865 142.964 118.52C142.905 119.603 143.801 119.109 144.276 118.374C144.756 117.532 145.38 116.045 144.892 115.041C144.693 114.704 144.38 114.47 143.941 114.554C142.395 115.013 141.019 116.35 139.745 117.802C136.842 121.228 134.549 125.448 133.242 129.504C132.456 131.96 131.726 135.396 132.691 137.621C133.474 139.184 135.087 139.49 136.981 138.615C138.322 137.928 140.012 136.825 141.028 136.12C142.152 135.421 147.821 131.059 149.587 134.523C149.587 134.523 150.223 132.819 151.775 132.252C153.001 131.667 154.848 131.659 156.113 132.38C155.709 131.815 154.445 131.094 153.385 130.602Z" fill="white"/>
<path d="M144.74 119.812C143.681 119.319 141.596 121.704 139.782 125.081C138.203 128.145 137.491 131.256 138.19 132.381C139.214 133.523 141.329 130.597 142.175 129.013L142.295 128.803C142.89 127.858 143.382 126.798 143.766 125.733L144.144 124.776C144.366 124.679 144.703 124.48 145.046 124.173C145.046 124.173 143.683 127.249 143.829 128.56C143.914 129 143.837 130.407 144.92 130.466C146.454 130.224 147.752 128.34 148.821 126.66C148.821 126.66 149.055 126.347 149.061 126.239C149.055 126.347 149.043 126.563 149.043 126.563C148.6 128.712 149.136 128.85 149.569 128.873C150.766 128.83 152.099 126.295 152.099 126.295C152.064 126.945 151.926 127.481 152.456 127.727C152.997 127.756 153.46 127.239 153.923 126.721C155.431 124.956 156.65 122.524 157.52 120.508L157.177 120.815C157.177 120.815 155.701 123.993 154.673 124.915C154.673 124.915 154.444 125.12 154.45 125.012C154.348 124.897 154.36 124.681 154.486 124.362L158.356 115.123L156.582 115.786C156.582 115.786 156.342 116.208 156.336 116.316C156.336 116.316 156.342 116.208 156.234 116.202C155.227 114.735 152.638 118.395 150.79 122.422C150.057 123.903 149.09 125.697 148.147 127.058C148.147 127.058 146.73 129.153 146.127 128.251C145.934 127.806 145.969 127.156 146.107 126.621C146.796 123.943 148.027 121.294 149.427 119.524C149.781 119 150.226 118.807 150.443 118.819C150.653 118.939 150.636 119.264 150.516 119.475C150.185 119.565 149.956 119.77 149.722 120.083C149.362 120.715 149.11 121.353 149.309 121.69C149.911 122.592 151.25 119.949 151.213 118.644C151.236 118.21 151.043 117.765 150.724 117.639C150.297 117.508 149.521 117.791 149.064 118.201C148.493 118.713 147.448 119.959 146.956 121.019C146.241 122.175 144.961 123.734 144.636 123.716C144.762 123.397 145.902 120.418 144.74 119.812ZM153.17 120.597C153.536 119.856 154.509 117.954 154.743 117.641C155.566 116.491 155.879 116.725 155.862 117.05C155.106 118.964 154.115 121.191 153.245 123.208L152.993 123.846C152.621 124.695 152.255 125.435 151.569 126.049C151.455 126.152 151.347 126.146 151.239 126.14C151.13 126.134 151.034 125.912 151.148 125.809C151.292 125.165 151.819 123.456 153.17 120.597ZM143.585 125.071C143.579 125.18 142.72 126.979 142.72 126.979C142.234 127.93 141.628 129.092 140.943 129.707C140.714 129.911 140.383 130.002 140.281 129.888C139.974 129.545 140.123 128.793 140.261 128.257L140.273 128.041C140.675 126.651 141.293 125.272 141.905 124.002C142.297 124.784 142.941 124.927 143.482 124.957C143.699 124.969 143.699 124.969 143.585 125.071ZM144.353 122.941L143.969 124.006C143.963 124.114 143.854 124.108 143.746 124.102L143.638 124.097C143.205 124.073 142.783 123.833 142.699 123.394C142.529 122.515 143.232 121.576 143.466 121.263C143.701 120.95 144.152 120.649 144.356 120.877C144.459 120.991 144.549 121.322 144.538 121.539C144.622 121.978 144.484 122.513 144.353 122.941Z" fill="white"/>
<path d="M166.451 118.062C166.258 117.617 165.939 117.491 165.494 117.684C164.153 118.371 162.748 120.25 161.974 122.489C161.584 123.662 161.314 124.625 161.238 126.033C161.712 125.299 162.547 123.932 163.575 123.01C163.575 123.01 163.76 121.608 164.486 120.236C164.732 119.706 165.333 118.653 165.874 118.682C166.416 118.712 166.207 120.547 165.451 122.461C164.941 123.845 164.095 125.428 163.38 126.584C162.677 127.524 161.632 128.77 160.783 128.398C160.253 128.152 159.97 127.376 160.029 126.293C160.314 123.05 161.568 119.968 163.291 116.26C165.002 112.769 167.044 109.187 169.568 106.718C170.139 106.206 170.584 106.013 171.017 106.036C171.017 106.036 168.601 108.512 167.438 111.924C167.174 112.779 166.676 113.946 167.068 114.728C167.261 115.173 167.706 114.98 167.928 114.884C169.389 113.986 170.253 112.078 171.003 110.272C171.399 108.99 171.795 107.708 171.86 106.517C171.866 106.408 171.878 106.192 171.889 105.975C172.58 105.253 173.977 105.546 173.977 105.546C175.06 105.605 177.269 106.92 178.021 107.07C178.381 106.438 178.982 105.384 179.336 104.86L178.807 104.614C177.958 104.242 177.212 103.984 176.357 103.72C174.437 103.073 172.862 104.073 172.063 104.79C171.708 105.314 171.48 105.518 171.48 105.518C170.859 104.942 169.969 105.328 169.182 105.828C166.585 107.641 164.248 110.664 161.605 115.3C159.672 118.887 158.532 121.867 157.837 124.653C157.298 126.579 157.162 129.07 158.294 130.218C159.222 131.137 160.563 130.45 161.476 129.631C163.538 127.679 165.339 124.519 166.286 121.094C166.55 120.24 166.843 118.844 166.451 118.062ZM171.18 107.023C170.866 110.807 168.529 113.83 167.855 114.228C167.518 114.427 166.863 114.5 167.505 112.688C168.284 110.341 169.714 108.029 171.204 106.59C171.198 106.698 171.301 106.812 171.18 107.023Z" fill="white"/>
<path d="M185.224 102.466C183.956 103.809 182.597 104.821 181.058 105.171C180.583 105.906 180.211 106.755 179.736 107.489C181.914 107.391 184.324 105.024 185.736 103.037C187.148 101.05 187.916 98.9192 187.916 98.9192C187.916 98.9192 186.829 100.924 185.224 102.466Z" fill="white"/>
<path d="M161.237 114.085L159.577 114.646L158.587 116.873L160.247 116.312L161.237 114.085Z" fill="white"/>
<path d="M180.84 121.127C180.611 121.332 180.395 121.32 180.527 120.893C180.796 119.93 181.781 117.811 181.781 117.811L184.421 111.22L182.647 111.884C182.527 112.095 182.395 112.522 182.395 112.522C182.292 112.408 182.094 112.071 181.985 112.065C181.558 111.933 180.89 112.223 180.428 112.741C178.469 114.806 177.1 117.991 175.984 120.537C175.984 120.537 174.748 123.293 174.182 123.697C173.629 123.884 173.785 123.024 173.791 122.915C173.981 121.405 174.497 119.913 174.893 118.631C175.824 117.487 176.876 116.132 177.825 114.663C179.951 111.52 181.765 108.143 182.022 107.397C182.022 107.397 181.794 107.601 181.463 107.692C179.872 110.973 176.551 116.114 175.523 117.036C175.931 115.537 178.925 108.423 181.309 104.534L181.67 103.901C182.264 102.956 182.859 102.011 183.418 101.716C183.418 101.716 183.526 101.722 183.629 101.836C183.599 102.377 183.467 102.805 183.221 103.334L182.963 104.081C182.963 104.081 183.3 103.882 183.637 103.683C183.895 102.936 184.267 102.088 184.206 101.215C184.223 100.891 184.013 100.77 183.796 100.759C183.032 100.826 182.329 101.765 181.638 102.488C178.364 106.763 175.566 112.259 173.011 119.288C172.782 119.493 172.217 119.897 172 119.885C172.252 119.247 172.522 118.284 172.684 117.315C172.695 117.099 172.713 116.774 172.725 116.557C172.754 116.016 172.67 115.577 172.248 115.336C171.821 115.205 171.262 115.5 170.805 115.91C169.098 117.337 167.759 119.98 166.775 122.099C166.271 123.375 165.761 124.759 165.57 126.269C165.511 127.352 165.692 128.014 166.119 128.146C166.655 128.284 167.334 127.777 167.568 127.464C169.293 125.712 170.524 123.063 171.526 120.62C171.526 120.62 172.079 120.433 172.53 120.131C172.524 120.24 172.26 121.094 172.26 121.094C171.589 123.447 171.284 125.06 171.898 125.745C172.718 126.659 174.118 124.888 175.204 122.884C174.978 125.044 175.742 124.977 176.415 124.579C177.203 124.079 178.032 122.821 178.392 122.189C178.249 122.832 178.298 123.921 178.959 123.74C179.399 123.655 179.747 123.24 180.204 122.83C181.694 121.391 183.429 117.466 183.921 116.407L183.368 116.594C182.63 118.183 181.879 119.989 180.84 121.127ZM167.783 125.521C167.681 125.407 167.692 125.19 167.704 124.973C167.661 123.776 168.777 121.23 169.618 119.755C169.901 120.531 170.648 120.789 171.075 120.921C170.337 122.51 168.5 126.32 167.783 125.521ZM171.231 120.06C171.225 120.169 170.25 120.116 170.086 119.129C169.917 118.251 170.506 117.414 170.968 116.896C171.203 116.583 171.534 116.492 171.75 116.504C171.961 116.624 172.057 116.847 172.034 117.28C172.022 117.497 172.01 117.713 171.998 117.93C171.74 118.676 171.591 119.428 171.231 120.06ZM178.439 121.322L178.319 121.533C178.085 121.846 177.845 122.267 177.52 122.25C177.412 122.244 177.418 122.135 177.315 122.021C177.356 121.263 177.62 120.409 177.878 119.662L177.998 119.452C178.754 117.538 179.745 115.31 181.145 113.54C181.379 113.227 181.607 113.022 181.824 113.034C181.932 113.04 181.926 113.148 181.92 113.257C181.92 113.257 181.914 113.365 181.909 113.473C181.536 114.322 181.158 115.279 180.786 116.128C180.036 117.933 179.4 119.637 178.439 121.322Z" fill="white"/>
<path d="M123.656 114.477L192.401 89.9257V58.8342L65.1864 52.4136V83.4244L123.656 114.477Z" fill="#9E221F"/>
<path d="M123.656 158.477L192.401 133.926V55.8342L65.1864 49.4136V127.424L123.656 158.477Z" stroke="#1D1D1B" stroke-width="3" stroke-linejoin="round"/>
<path d="M123.656 80.3858L192.401 55.834L133.794 24.7078L65.1865 49.3327L123.656 80.3858Z" fill="#E3302B" stroke="#1D1D1B" stroke-width="3" stroke-linejoin="round"/>
<path d="M123.658 80.3857L123.658 158.477" stroke="#1D1D1B" stroke-width="3"/>
<path d="M123.228 103.846L197.708 77.2463V50.4196L59.8806 43.4634V70.2027L123.228 103.846Z" fill="#E3302B" stroke="#1D1D1B" stroke-width="3" stroke-linejoin="round"/>
<path d="M123.228 77.0195L197.708 50.4195L134.212 16.6965L59.881 43.3758L123.228 77.0195Z" fill="#F3605C" stroke="#1D1D1B" stroke-width="3" stroke-linejoin="round"/>
<path d="M123.23 75.6101L123.23 103.846" stroke="#1D1D1B" stroke-width="3"/>
<path d="M170.444 60.2717L149.632 68.0762" stroke="#1D1D1B" stroke-width="3" stroke-linejoin="round"/>
<path d="M150.019 43.5894C172.581 47.9899 182.078 37.1858 184.838 28.4138C185.932 24.9382 184.402 21.4836 181.959 18.9114L175.63 12.2501C174.565 18.6414 169.484 30.9902 159.868 34.2447C150.207 37.5146 139.753 32.8751 135.697 28.0418C133.712 32.677 144.418 40.3382 150.019 43.5894Z" fill="#66984E" stroke="#1D1D1B" stroke-width="3" stroke-linejoin="round"/>
<path d="M167.68 6.47716C147.115 -0.174636 125.967 13.7712 122.407 27.2487L145.843 38.4336C147.862 32.7803 154.215 20.7382 163.44 17.4628C173.698 13.8204 181.288 17.2493 184.685 22.9022C182.467 17.4195 175.884 9.13091 167.68 6.47716Z" fill="#B1E372" stroke="#1D1D1B" stroke-width="3" stroke-linejoin="round"/>
<path d="M104.684 45.0768C89.8053 51.9987 76.8073 43.2839 69.5969 33.2338C65.1392 27.0205 68.1277 19.3972 74.2533 15.4365L79.7334 11.8931C81.9258 17.7605 87.2189 29.826 96.2713 34.4209C105.366 39.0375 116.376 35.939 121.08 31.7347C122.383 36.606 110.692 42.6591 104.684 45.0768Z" fill="#66984E" stroke="#1D1D1B" stroke-width="3" stroke-linejoin="round"/>
<path d="M89.3493 6.39117C110.654 2.74556 126.632 20.7717 128.23 34.6195L110.654 45.8043C109.462 39.9205 103.916 24.5433 95.2538 19.9836C85.621 14.913 73.812 14.8739 69.6428 19.9836C72.6208 14.8739 80.8499 7.84559 89.3493 6.39117Z" fill="#B1E372" stroke="#1D1D1B" stroke-width="3" stroke-linejoin="round"/>
<path d="M127.695 54.326L139.412 39.413C166.575 50.0652 180.423 61.25 182.021 82.5544L164.445 95.337C163.358 71.2275 140.085 59.4519 127.695 54.326Z" fill="#B1E372" stroke="#1D1D1B" stroke-width="3" stroke-linejoin="round"/>
<path d="M85.5125 91.5853C81.5543 78.8606 116.85 53.7647 129.293 54.3262L109.054 42.6088C91.4782 46.3371 69.6128 60.3687 70.3129 71.1027C70.8207 78.8864 81.5264 86.5805 85.5125 91.5853Z" fill="#B1E372" stroke="#1D1D1B" stroke-width="3" stroke-linejoin="round"/>
<path d="M146.87 38.8805L132.49 27.163C124.771 26.1338 107.989 34.6195 107.989 34.6195C107.989 34.6195 107.954 38.7544 109.055 42.6088L128.229 53.7935C128.229 40.5848 140.124 39.2355 146.87 38.8805Z" fill="#66984E" stroke="#1D1D1B" stroke-width="3" stroke-linejoin="round"/>
<path d="M125.421 24.6968C142.263 22.4176 148.439 40.6511 149 42.3605L128.79 54.3261C128.79 40.1951 114.568 35.9027 107.457 35.5228L125.421 24.6968Z" fill="#B1E372" stroke="#1D1D1B" stroke-width="3" stroke-linejoin="round"/>
</svg>
