<svg width="272" height="262" viewBox="0 0 272 262" fill="none" xmlns="http://www.w3.org/2000/svg">
<g clip-path="url(#clip0_711_2025)">
<path d="M201.39 119.9C203.21 115.65 208.14 113.68 212.39 115.51L241.28 127.91C245.53 129.73 247.5 134.66 245.67 138.91C243.85 143.16 238.92 145.13 234.67 143.3L205.78 130.9C201.53 129.07 199.57 124.15 201.39 119.9Z" fill="#E3302B"/>
<path d="M201.39 119.9C203.21 115.65 208.14 113.68 212.39 115.51L241.28 127.91C245.53 129.73 247.5 134.66 245.67 138.91C243.85 143.16 238.92 145.13 234.67 143.3L205.78 130.9C201.53 129.07 199.57 124.15 201.39 119.9Z" stroke="#1D1D1B" stroke-width="3" stroke-miterlimit="10"/>
<path d="M207.03 131.87C193.47 134.12 186.27 90.66 199.83 88.42C213.39 86.18 260.38 67.23 265.78 99.82C270.71 129.57 220.6 129.63 207.03 131.87Z" fill="#E3302B"/>
<path d="M252.61 83.3298L249.66 87.4598L256.5 93.6098L251.97 101.4L258.75 107.2L254.32 115.57L258.74 119.29" stroke="#407039" stroke-width="2.3938" stroke-miterlimit="10" stroke-linecap="round" stroke-linejoin="round"/>
<path d="M237.87 82.1799L234.85 86.4299L243.2 93.9299L237.67 103.43L245.95 110.51L240.53 120.72L244.91 124.69" stroke="white" stroke-width="4.3088" stroke-miterlimit="10" stroke-linecap="round" stroke-linejoin="round"/>
<path d="M220.62 84.47L217 89.53L225.39 97.06L219.83 106.6L228.15 113.71L222.71 123.97L228.13 128.52" stroke="#407039" stroke-width="2.9335" stroke-miterlimit="10" stroke-linecap="round" stroke-linejoin="round"/>
<path d="M208.44 86.45L204.82 91.5099L213.21 99.04L207.65 108.58L215.97 115.69L210.53 125.95L215.95 130.5" stroke="white" stroke-width="2.9335" stroke-miterlimit="10" stroke-linecap="round" stroke-linejoin="round"/>
<path d="M207.03 131.87C193.47 134.12 186.27 90.66 199.83 88.42C213.39 86.18 260.38 67.23 265.78 99.82C270.71 129.57 220.6 129.63 207.03 131.87Z" stroke="#1D1D1B" stroke-width="3" stroke-miterlimit="10"/>
<path d="M192.46 137.68C190.72 137.97 189 137.08 188.24 135.49C186.48 131.8 183.47 124.39 181.74 113.98C179.98 103.34 180.44 95.5201 180.93 91.5301C181.14 89.7801 182.48 88.3801 184.22 88.0901L195.66 86.1901C198.19 85.7701 200.44 87.8301 200.26 90.3901C199.93 95.1301 199.77 102.67 201.11 110.77C202.51 119.25 205 126.12 206.8 130.34C207.81 132.7 206.34 135.38 203.8 135.8L192.46 137.68Z" fill="white"/>
<path d="M191.08 117.57L189.34 107.1C188.89 104.36 190.74 101.77 193.48 101.31L194.89 101.08C197.63 100.63 200.22 102.48 200.68 105.22L202.42 115.69C202.87 118.43 201.02 121.02 198.28 121.48L196.87 121.71C194.12 122.17 191.53 120.32 191.08 117.57Z" fill="#E3302B"/>
<path d="M198.1 114.43C198.1 114.43 197.92 114.12 197.43 113.81C196.94 113.5 196.44 113.35 196.34 113.54C196.3 113.61 196.32 113.76 196.6 113.98C196.85 114.19 197.15 114.34 197.47 114.41C197.91 114.51 198.09 114.43 198.1 114.43ZM197.69 116.64C197.84 116.18 198.05 115.83 198.16 115.48C198.27 115.15 198.3 114.94 198.23 114.69C198.22 114.66 198.2 114.62 198.19 114.59C198.19 114.59 197.77 114.79 196.96 114.4C196.13 114.01 196.06 113.54 196.24 113.37C196.43 113.19 196.9 113.3 197.34 113.54C197.8 113.79 198.23 114.28 198.23 114.28C198.23 114.28 198.31 114.09 197.99 113.69C197.68 113.31 196.99 112.67 195.92 112.16C194.85 111.64 194.3 111.6 193.87 111.57C193.44 111.54 193.01 111.7 193.08 112.16C193.16 112.62 193.95 113.04 194.22 113.15C194.72 113.36 195.45 113.42 195.29 113.06C195.21 112.88 194.98 112.76 194.76 112.7C194.62 112.66 194.48 112.64 194.33 112.63C194.25 112.51 194.16 112.39 194.05 112.29C193.94 112.18 193.81 112.08 193.68 111.99C193.68 111.99 194.01 111.94 194.59 112.11C195.17 112.29 195.5 112.73 195.57 113C195.63 113.24 195.47 113.6 194.65 113.46C193.83 113.32 192.75 112.66 192.6 111.82C192.46 111.04 193.37 110.36 195.3 111.16C197.42 112.05 198.25 113.36 198.39 113.81C198.53 114.26 198.35 114.44 198.35 114.44C198.51 114.7 198.61 114.99 198.64 115.29C198.7 115.86 198.37 116.36 198.19 116.97C198.02 116.86 197.85 116.74 197.69 116.64ZM198.75 119.05C198.44 118.7 198.12 118.2 198.08 117.68C197.92 117.57 197.74 117.46 197.55 117.35C197.52 118.27 198.21 118.97 198.75 119.31C198.94 119.43 199.15 119.53 199.37 119.61C199.15 119.44 198.94 119.25 198.75 119.05ZM196.03 118.27C196.04 118.27 196.06 118.28 196.07 118.28C196.11 118.27 196.14 118.23 196.13 118.18C196.12 118.09 196.08 117.98 195.7 117.73C195.38 117.52 195.03 117.36 194.67 117.23C194.32 117.11 194.07 117.08 194.03 117.19C194.02 117.23 194.02 117.26 194.04 117.3C194.07 117.37 194.14 117.43 194.3 117.53C194.37 117.57 194.47 117.62 194.58 117.68C194.89 117.84 195.84 118.2 196.03 118.27ZM195.14 115.17C195.28 115.2 195.55 115.22 195.63 115.07C195.71 114.91 195.4 114.58 195.14 114.62C194.87 114.66 194.79 114.94 194.79 115.01C194.79 115.05 194.79 115.06 194.82 115.07C194.92 115.11 195.03 115.14 195.14 115.17ZM194.61 114.97C194.64 114.87 194.68 114.78 194.73 114.69C194.78 114.6 194.85 114.52 194.93 114.46C194.94 114.45 194.93 114.45 194.92 114.45C194.91 114.45 194.89 114.43 194.57 114.28C194.25 114.13 193.6 113.93 193.55 114.22C193.51 114.41 193.87 114.65 194.1 114.77C194.26 114.85 194.43 114.93 194.6 114.99C194.6 114.99 194.6 114.98 194.61 114.97ZM194.43 118.18C194.3 118.13 194.06 118.08 194.24 118.3C194.46 118.57 195.18 118.89 195.18 118.89L195.21 119.08C194.91 118.95 194.62 118.8 194.35 118.62C193.96 118.37 193.6 118.05 193.59 117.79C193.58 117.48 193.99 117.51 193.99 117.51C193.99 117.51 193.46 117.15 193.44 116.85C193.42 116.44 193.94 116.48 193.94 116.48C193.94 116.48 193.3 116.11 193.27 115.8C193.22 115.3 193.83 115.33 194.28 115.4C194.52 115.44 194.7 115.47 194.7 115.47C194.7 115.47 194.68 115.42 194.65 115.32C194.63 115.27 194.61 115.17 194.61 115.17C194.61 115.17 194.22 115.03 193.97 114.9C193.73 114.77 192.86 114.2 192.95 113.77C193.03 113.37 193.63 113.4 194.12 113.54C194.84 113.75 195.96 114.49 195.92 115.04C195.88 115.6 194.81 115.24 194.81 115.24C194.81 115.24 194.81 115.24 194.8 115.25C194.8 115.26 194.8 115.29 194.82 115.35C194.84 115.42 194.88 115.48 194.91 115.54C194.91 115.54 196.14 115.89 196.98 116.37C197.82 116.85 199.3 117.83 199.07 118.35C199.01 118.48 198.74 118.47 198.4 118.37C198.37 118.3 198.34 118.24 198.31 118.17C198.52 118.24 198.68 118.28 198.8 118.29C199.2 118.3 198.24 117.53 197.26 117.04C196.67 116.74 196.06 116.49 195.43 116.29C195.52 116.39 195.62 116.49 195.72 116.58C196 116.83 196.3 117.06 196.62 117.27C196.91 117.47 197.22 117.66 197.53 117.83C197.54 117.9 197.56 117.96 197.58 118.03C197.22 117.85 196.88 117.64 196.55 117.41C196.25 117.2 195.92 116.97 195.68 116.76C195.46 116.58 195.26 116.38 195.06 116.17C195.06 116.17 193.84 115.8 193.81 116.11C193.8 116.3 194.4 116.56 194.4 116.56C194.4 116.56 195.18 116.91 195.55 117.13C196.05 117.44 196.35 117.72 196.41 118.05C196.44 118.24 196.26 118.39 196.26 118.39L196.41 118.46L196.5 119.01C196.5 118.98 194.58 118.24 194.43 118.18ZM198.75 119.05C198.44 118.7 198.12 118.2 198.08 117.68C197.92 117.57 197.74 117.46 197.55 117.35C197.52 118.27 198.21 118.97 198.75 119.31C198.94 119.43 199.15 119.53 199.37 119.61C199.15 119.44 198.94 119.25 198.75 119.05ZM196.61 111.44L196.52 110.92L196 110.7L196.09 111.22L196.61 111.44ZM194.54 109.24C194.88 109.41 196.06 109.85 196.06 109.85C196.1 109.84 196.13 109.8 196.12 109.76C196.11 109.67 196.06 109.54 195.66 109.31C195.26 109.09 194.94 108.91 194.62 108.8C194.27 108.68 194.03 108.64 193.99 108.75C193.98 108.79 193.98 108.82 194 108.86C194.03 108.92 194.11 109 194.26 109.09C194.33 109.13 194.43 109.18 194.54 109.24ZM195.53 106.18C195.62 106.02 195.3 105.69 195.04 105.73C194.77 105.77 194.74 106.12 194.75 106.16C194.75 106.17 194.76 106.19 194.76 106.2C194.77 106.21 194.77 106.21 194.78 106.21C194.86 106.24 194.95 106.26 195.03 106.28C195.17 106.31 195.45 106.33 195.53 106.18ZM194.56 106.11C194.57 106 194.6 105.9 194.64 105.8C194.68 105.7 194.75 105.62 194.83 105.56C194.84 105.55 194.83 105.55 194.82 105.55C194.81 105.55 194.77 105.52 194.45 105.37C194.13 105.22 193.49 105.03 193.43 105.32C193.39 105.51 193.75 105.75 193.98 105.88C194.16 105.97 194.34 106.06 194.53 106.13C194.56 106.13 194.56 106.13 194.56 106.11ZM195.1 110.43L195.13 110.62C195.13 110.62 193.58 109.89 193.55 109.33C193.54 109.02 193.92 109.05 193.92 109.05C193.92 109.05 193.35 108.71 193.39 108.3C193.42 107.93 194.05 108.06 194.05 108.06C194.03 108.02 193.03 107.4 193.15 106.82C193.27 106.22 194.05 106.39 194.29 106.46C194.49 106.52 194.68 106.59 194.68 106.59C194.68 106.59 194.64 106.51 194.62 106.45C194.6 106.39 194.57 106.32 194.57 106.32C194.57 106.32 194.09 106.12 193.85 106C193.61 105.87 192.75 105.3 192.83 104.87C192.91 104.44 193.5 104.44 193.99 104.6C194.79 104.85 195.84 105.59 195.79 106.14C195.74 106.7 194.79 106.4 194.79 106.4C194.79 106.4 194.79 106.51 195.01 106.74C195.32 107.07 196.08 107.44 196.09 107.98C196.09 108.24 195.88 108.51 195.34 108.27C195.17 108.19 195 108.05 195.12 107.9C195.19 107.8 195.36 107.85 195.48 107.92C195.58 107.97 195.65 108.07 195.66 108.18C195.66 108.18 195.87 108.23 195.83 108.01C195.8 107.83 195.3 107.45 194.84 107.26C194.41 107.09 193.69 106.84 193.61 107.22C193.53 107.57 194.38 108.07 194.81 108.3C195.24 108.53 196.24 109.04 196.36 109.59C196.4 109.78 196.25 109.92 196.25 109.92L196.36 109.97L196.45 110.52C196.45 110.52 194.54 109.77 194.39 109.71C194.28 109.66 194.03 109.62 194.2 109.83C194.38 110.04 195.1 110.43 195.1 110.43ZM192.26 110.59C192.47 110.14 192.54 109.62 192.44 109.13C192.39 108.86 192.21 108.63 191.96 108.51C192.29 108.24 192.45 107.78 192.34 107.14C192.16 106.1 191.5 105.15 191.37 104.33C191.24 103.55 191.64 102.89 192.52 102.76C194.06 102.54 195.66 103.61 196.45 104.48C196.9 104.98 197.08 105.43 197.1 105.74C197.11 105.97 196.9 106.28 196.49 106.17C195.89 106.01 195.88 105.66 196.15 105.63C196.32 105.61 196.45 105.71 196.53 105.78C196.58 105.83 196.6 105.92 196.61 105.97C196.66 106.01 196.97 106 196.8 105.62C196.63 105.24 196.16 104.82 195.58 104.45C195 104.08 193.92 103.52 192.89 103.51C192.41 103.5 191.57 103.7 191.76 104.8C191.92 105.74 192.77 107.02 192.97 108.29C193.05 108.78 192.98 109.24 192.83 109.6C192.67 109.97 192.44 110.42 192.26 110.59Z" fill="white"/>
<path d="M192.46 137.68C190.72 137.97 189 137.08 188.24 135.49C186.48 131.8 183.47 124.39 181.74 113.98C179.98 103.34 180.44 95.5201 180.93 91.5301C181.14 89.7801 182.48 88.3801 184.22 88.0901L195.66 86.1901C198.19 85.7701 200.44 87.8301 200.26 90.3901C199.93 95.1301 199.77 102.67 201.11 110.77C202.51 119.25 205 126.12 206.8 130.34C207.81 132.7 206.34 135.38 203.8 135.8L192.46 137.68Z" stroke="#1D1D1B" stroke-width="3" stroke-miterlimit="10"/>
<path d="M173.33 100.93C171.34 96.76 173.11 91.76 177.28 89.77L205.65 76.24C209.82 74.25 214.82 76.02 216.81 80.19C218.8 84.36 217.03 89.36 212.86 91.35L184.49 104.88C180.32 106.87 175.32 105.1 173.33 100.93Z" fill="#E3302B"/>
<path d="M173.33 100.93C171.34 96.76 173.11 91.76 177.28 89.77L205.65 76.24C209.82 74.25 214.82 76.02 216.81 80.19C218.8 84.36 217.03 89.36 212.86 91.35L184.49 104.88C180.32 106.87 175.32 105.1 173.33 100.93Z" stroke="#1D1D1B" stroke-width="3" stroke-miterlimit="10"/>
<path d="M186.05 104.58C178.79 116.26 141.38 93.0099 148.64 81.3299C155.9 69.6499 172.65 21.8499 200.71 39.2899C226.32 55.2099 193.31 92.9099 186.05 104.58Z" fill="#E3302B"/>
<path d="M179.63 38.3098L180.79 43.2498L189.92 42.1598L192.78 50.7098L201.62 49.4398L204.98 58.2898L210.7 57.4198" stroke="#407039" stroke-width="2.3938" stroke-miterlimit="10" stroke-linecap="round" stroke-linejoin="round"/>
<path d="M169.04 48.6299L170.24 53.6999L181.39 52.3699L184.88 62.7999L195.67 61.2499L199.77 72.0499L205.63 71.3799" stroke="white" stroke-width="4.3088" stroke-miterlimit="10" stroke-linecap="round" stroke-linejoin="round"/>
<path d="M159.38 63.0999L160.8 69.1599L171.99 67.8199L175.5 78.2899L186.33 76.7399L190.45 87.5899L197.45 86.5199" stroke="#407039" stroke-width="2.9335" stroke-miterlimit="10" stroke-linecap="round" stroke-linejoin="round"/>
<path d="M152.83 73.5598L154.25 79.6198L165.44 78.2798L168.95 88.7498L179.78 87.1998L183.9 98.0498L190.9 96.9798" stroke="white" stroke-width="2.9335" stroke-miterlimit="10" stroke-linecap="round" stroke-linejoin="round"/>
<path d="M186.05 104.58C178.79 116.26 141.38 93.0099 148.64 81.3299C155.9 69.6499 172.65 21.8499 200.71 39.2899C226.32 55.2099 193.31 92.9099 186.05 104.58Z" stroke="#1D1D1B" stroke-width="3" stroke-miterlimit="10"/>
<path d="M180.8 119.37C179.87 120.86 178.07 121.57 176.37 121.09C172.44 119.98 164.88 117.36 155.91 111.78C146.75 106.09 141.17 100.58 138.5 97.5799C137.33 96.2599 137.15 94.3399 138.08 92.8399L144.22 82.9999C145.57 80.8199 148.6 80.4899 150.41 82.3099C153.75 85.6899 159.32 90.7799 166.29 95.1099C173.59 99.6499 180.39 102.31 184.75 103.74C187.19 104.54 188.23 107.41 186.88 109.59L180.8 119.37Z" fill="white"/>
<path d="M164.78 107.14L155.76 101.53C153.4 100.06 152.68 96.9599 154.14 94.5999L154.89 93.3899C156.36 91.0299 159.46 90.3099 161.82 91.7699L170.84 97.3799C173.2 98.8499 173.92 101.95 172.46 104.31L171.71 105.52C170.24 107.89 167.14 108.61 164.78 107.14Z" fill="#E3302B"/>
<path d="M167.32 99.9498C167.32 99.9498 166.97 99.8898 166.41 100.04C165.86 100.2 165.41 100.49 165.49 100.68C165.52 100.75 165.64 100.84 165.99 100.78C166.31 100.73 166.62 100.6 166.89 100.41C167.26 100.15 167.31 99.9598 167.32 99.9498ZM168.71 101.72C168.46 101.31 168.34 100.91 168.15 100.6C167.97 100.3 167.83 100.14 167.6 100.03C167.57 100.02 167.53 100.01 167.5 99.9998C167.5 99.9998 167.38 100.44 166.55 100.8C165.71 101.16 165.31 100.91 165.3 100.66C165.3 100.4 165.69 100.12 166.15 99.9398C166.64 99.7598 167.3 99.7598 167.3 99.7598C167.3 99.7598 167.21 99.5698 166.7 99.5498C166.21 99.5298 165.28 99.6298 164.19 100.09C163.1 100.55 162.7 100.94 162.39 101.24C162.08 101.55 161.92 101.98 162.32 102.22C162.72 102.47 163.55 102.15 163.81 102.02C164.3 101.78 164.83 101.28 164.45 101.15C164.26 101.09 164.02 101.19 163.83 101.31C163.71 101.39 163.6 101.48 163.49 101.58C163.35 101.56 163.2 101.55 163.05 101.57C162.89 101.58 162.73 101.61 162.58 101.65C162.58 101.65 162.76 101.37 163.27 101.04C163.79 100.72 164.34 100.77 164.58 100.9C164.8 101.02 164.97 101.37 164.32 101.89C163.67 102.41 162.47 102.79 161.73 102.35C161.05 101.94 161.14 100.81 163.01 99.8898C165.08 98.8798 166.61 99.1298 167.04 99.3198C167.47 99.5098 167.49 99.7598 167.49 99.7598C167.79 99.8098 168.07 99.9298 168.32 100.1C168.78 100.43 168.94 101.01 169.29 101.55C169.1 101.62 168.89 101.67 168.71 101.72ZM171.22 102.51C170.75 102.52 170.17 102.42 169.75 102.11C169.57 102.16 169.36 102.22 169.15 102.29C169.83 102.92 170.8 102.86 171.41 102.68C171.63 102.62 171.84 102.52 172.04 102.41C171.78 102.47 171.5 102.51 171.22 102.51ZM168.85 104.04C168.86 104.03 168.87 104.03 168.88 104.02C168.9 103.98 168.89 103.93 168.85 103.91C168.78 103.86 168.67 103.81 168.23 103.94C167.86 104.04 167.51 104.19 167.18 104.38C166.86 104.56 166.67 104.73 166.72 104.83C166.74 104.86 166.77 104.89 166.81 104.9C166.88 104.92 166.98 104.91 167.15 104.85C167.23 104.82 167.33 104.78 167.45 104.73C167.77 104.61 168.67 104.14 168.85 104.04ZM165.92 102.66C166.04 102.57 166.23 102.38 166.17 102.22C166.1 102.05 165.65 102.07 165.51 102.3C165.36 102.53 165.53 102.77 165.57 102.82C165.6 102.85 165.61 102.85 165.64 102.84C165.74 102.79 165.83 102.73 165.92 102.66ZM165.42 102.93C165.36 102.84 165.32 102.75 165.29 102.66C165.26 102.56 165.24 102.46 165.25 102.36C165.25 102.35 165.24 102.35 165.23 102.36C165.22 102.36 165.19 102.37 164.87 102.51C164.55 102.65 163.97 103.01 164.15 103.24C164.27 103.39 164.68 103.28 164.93 103.19C165.1 103.13 165.26 103.05 165.42 102.96C165.43 102.95 165.43 102.94 165.42 102.93ZM167.72 105.19C167.59 105.25 167.4 105.4 167.68 105.41C168.03 105.42 168.74 105.09 168.74 105.09L168.91 105.19C168.61 105.33 168.31 105.44 168 105.54C167.56 105.67 167.08 105.73 166.87 105.57C166.63 105.38 166.92 105.08 166.92 105.08C166.92 105.08 166.3 105.25 166.06 105.06C165.73 104.8 166.11 104.44 166.11 104.44C166.11 104.44 165.41 104.68 165.15 104.5C164.74 104.21 165.17 103.76 165.51 103.48C165.69 103.33 165.85 103.21 165.85 103.21C165.85 103.21 165.8 103.2 165.7 103.15C165.65 103.13 165.56 103.08 165.56 103.08C165.56 103.08 165.19 103.28 164.93 103.38C164.67 103.48 163.68 103.75 163.4 103.4C163.15 103.08 163.57 102.65 164 102.37C164.64 101.96 165.93 101.62 166.31 102.01C166.7 102.41 165.72 102.98 165.72 102.98C165.72 102.98 165.72 102.98 165.72 102.99C165.73 103 165.75 103.02 165.81 103.04C165.88 103.06 165.94 103.08 166.01 103.1C166.01 103.1 167.09 102.41 168 102.09C168.91 101.77 170.63 101.31 170.87 101.83C170.93 101.96 170.74 102.15 170.44 102.35C170.37 102.33 170.3 102.31 170.23 102.29C170.42 102.18 170.56 102.08 170.64 102C170.91 101.71 169.7 101.92 168.68 102.33C168.07 102.58 167.47 102.87 166.91 103.21C167.05 103.21 167.19 103.2 167.32 103.18C167.69 103.13 168.06 103.06 168.43 102.96C168.78 102.87 169.12 102.77 169.45 102.64C169.51 102.67 169.57 102.7 169.64 102.73C169.27 102.88 168.89 103 168.5 103.1C168.14 103.19 167.75 103.28 167.44 103.32C167.16 103.36 166.87 103.39 166.59 103.39C166.59 103.39 165.5 104.06 165.73 104.29C165.86 104.42 166.46 104.14 166.46 104.14C166.46 104.14 167.24 103.78 167.65 103.66C168.21 103.49 168.62 103.45 168.91 103.62C169.08 103.72 169.06 103.95 169.06 103.95L169.21 103.88L169.68 104.18C169.69 104.16 167.86 105.12 167.72 105.19ZM171.22 102.51C170.75 102.52 170.17 102.42 169.75 102.11C169.57 102.16 169.36 102.22 169.15 102.29C169.83 102.92 170.8 102.86 171.41 102.68C171.63 102.62 171.84 102.52 172.04 102.41C171.78 102.47 171.5 102.51 171.22 102.51ZM164.1 99.0998L163.65 98.8198L163.14 99.0698L163.59 99.3498L164.1 99.0998ZM161.07 99.1998C161.43 99.0598 162.53 98.4598 162.53 98.4598C162.55 98.4198 162.54 98.3698 162.5 98.3498C162.43 98.2998 162.29 98.2498 161.86 98.3998C161.43 98.5498 161.09 98.6798 160.79 98.8398C160.47 99.0198 160.28 99.1698 160.34 99.2798C160.36 99.3098 160.39 99.3298 160.43 99.3498C160.5 99.3698 160.6 99.3598 160.78 99.3098C160.85 99.2898 160.95 99.2498 161.07 99.1998ZM159.42 96.4498C159.35 96.2798 158.9 96.2998 158.76 96.5298C158.61 96.7598 158.86 97.0098 158.89 97.0298C158.9 97.0398 158.91 97.0398 158.93 97.0398C158.94 97.0398 158.95 97.0398 158.96 97.0298C159.04 96.9798 159.11 96.9398 159.18 96.8798C159.29 96.7998 159.48 96.6098 159.42 96.4498ZM158.74 97.1298C158.67 97.0498 158.61 96.9598 158.57 96.8698C158.53 96.7798 158.51 96.6698 158.52 96.5698C158.52 96.5598 158.51 96.5598 158.5 96.5698C158.49 96.5698 158.45 96.5898 158.12 96.7298C157.79 96.8698 157.23 97.2298 157.41 97.4598C157.52 97.6098 157.94 97.4998 158.19 97.4098C158.38 97.3398 158.56 97.2498 158.74 97.1598C158.75 97.1398 158.75 97.1298 158.74 97.1298ZM162.33 99.5698L162.5 99.6698C162.5 99.6698 160.93 100.35 160.49 100.01C160.25 99.8198 160.53 99.5398 160.53 99.5398C160.53 99.5398 159.9 99.7398 159.61 99.4398C159.35 99.1698 159.87 98.7898 159.87 98.7898C159.83 98.7798 158.7 99.1198 158.35 98.6498C157.98 98.1598 158.62 97.6898 158.83 97.5598C159.01 97.4498 159.19 97.3498 159.19 97.3498C159.19 97.3498 159.1 97.3198 159.05 97.3098C159 97.2898 158.92 97.2598 158.92 97.2598C158.92 97.2598 158.46 97.4898 158.2 97.5898C157.94 97.6898 156.95 97.9598 156.67 97.6098C156.39 97.2598 156.79 96.8198 157.23 96.5598C157.95 96.1198 159.19 95.8198 159.58 96.2198C159.97 96.6298 159.12 97.1398 159.12 97.1398C159.12 97.1398 159.2 97.2098 159.52 97.1998C159.97 97.1798 160.76 96.8598 161.17 97.2098C161.36 97.3798 161.43 97.7198 160.9 97.9698C160.73 98.0498 160.51 98.0798 160.47 97.8898C160.45 97.7698 160.59 97.6798 160.72 97.6298C160.82 97.5898 160.94 97.6098 161.03 97.6698C161.03 97.6698 161.21 97.5498 161.02 97.4298C160.86 97.3398 160.25 97.4498 159.8 97.6798C159.39 97.8898 158.73 98.2698 158.96 98.5798C159.17 98.8698 160.11 98.5698 160.56 98.3898C161.02 98.2098 162.06 97.8098 162.55 98.0698C162.72 98.1598 162.73 98.3698 162.73 98.3698L162.84 98.3198L163.32 98.6198C163.32 98.6198 161.49 99.5598 161.35 99.6298C161.24 99.6798 161.04 99.8398 161.31 99.8498C161.58 99.8598 162.33 99.5698 162.33 99.5698ZM160.58 101.81C160.38 101.35 160.04 100.97 159.6 100.72C159.36 100.58 159.07 100.56 158.82 100.67C158.84 100.24 158.6 99.8198 158.04 99.4798C157.14 98.9298 155.99 98.7898 155.29 98.3498C154.61 97.9298 154.39 97.1998 154.87 96.4498C155.72 95.1498 157.58 94.6498 158.75 94.6298C159.42 94.6198 159.88 94.7798 160.13 94.9698C160.31 95.1098 160.4 95.4798 160.05 95.7098C159.54 96.0498 159.27 95.8298 159.42 95.6098C159.52 95.4698 159.68 95.4298 159.78 95.4298C159.85 95.4298 159.94 95.4698 159.98 95.4998C160.04 95.4898 160.24 95.2498 159.84 95.1198C159.44 94.9898 158.82 95.0698 158.15 95.2598C157.48 95.4498 156.36 95.8898 155.67 96.6598C155.35 97.0198 154.94 97.7798 155.9 98.3598C156.71 98.8598 158.23 99.0598 159.32 99.7498C159.74 100.02 160.04 100.36 160.22 100.72C160.39 101.1 160.57 101.56 160.58 101.81Z" fill="white"/>
<path d="M180.8 119.37C179.87 120.86 178.07 121.57 176.37 121.09C172.44 119.98 164.88 117.36 155.91 111.78C146.75 106.09 141.17 100.58 138.5 97.5799C137.33 96.2599 137.15 94.3399 138.08 92.8399L144.22 82.9999C145.57 80.8199 148.6 80.4899 150.41 82.3099C153.75 85.6899 159.32 90.7799 166.29 95.1099C173.59 99.6499 180.39 102.31 184.75 103.74C187.19 104.54 188.23 107.41 186.88 109.59L180.8 119.37Z" stroke="#1D1D1B" stroke-width="3" stroke-miterlimit="10"/>
</g>
<g clip-path="url(#clip1_711_2025)">
<path d="M211.932 244.705L152.959 193.441L178.68 171.611C189.54 162.395 205.503 162.491 216.257 171.84L224.514 179.017C235.261 188.359 237.585 204.16 229.97 216.197L211.932 244.705Z" fill="#E3302B"/>
<path d="M184.59 168.639L184.937 173.604L193.951 173.981L195.397 182.697L204.148 182.844L205.933 191.856" stroke="#407039" stroke-width="2.3477" stroke-miterlimit="10" stroke-linecap="round" stroke-linejoin="round"/>
<path d="M205.24 186.709L207.086 191.612L205.978 190.676L214.902 190.974C215.47 190.991 215.933 191.419 216.02 191.959L217.466 200.675L216.327 199.699L225.078 199.846C225.638 199.856 226.099 200.256 226.207 200.787L228.083 209.878L226.947 208.944L232.614 208.994C233.26 208.999 233.779 209.529 233.782 210.181C233.777 210.827 233.246 211.346 232.595 211.349L226.927 211.298C226.36 211.296 225.9 210.895 225.792 210.364L223.916 201.274L225.045 202.215L216.295 202.069C215.72 202.059 215.243 201.632 215.156 201.092L213.71 192.375L214.828 193.36L205.904 193.063L205.734 193.061C205.222 193.04 204.818 192.636 204.79 192.134L204.545 186.899C204.537 186.694 204.696 186.527 204.887 186.521C205.047 186.474 205.188 186.571 205.24 186.709Z" fill="#407039"/>
<path d="M175.498 177.086L175.866 182.256L185.25 182.634L186.757 191.723L195.876 191.872L197.738 201.268" stroke="#407039" stroke-width="3.9131" stroke-miterlimit="10" stroke-linecap="round" stroke-linejoin="round"/>
<path d="M197.232 195.86L199.652 200.865L197.799 199.308L207.092 199.608C208.044 199.64 208.809 200.345 208.957 201.242L210.457 210.324L208.556 208.685L217.675 208.834C218.604 208.847 219.374 209.516 219.563 210.396L221.516 219.871L219.613 218.31L225.521 218.358C226.599 218.367 227.476 219.249 227.46 220.334C227.45 221.413 226.569 222.289 225.483 222.273L219.575 222.225C218.639 222.22 217.855 221.552 217.673 220.664L215.72 211.189L217.609 212.751L208.49 212.602C207.524 212.585 206.745 211.881 206.589 210.963L205.089 201.881L206.954 203.516L197.662 203.216L197.249 203.202C196.425 203.175 195.789 202.489 195.81 201.672L195.809 201.658L196.044 196.099C196.063 195.757 196.349 195.489 196.69 195.508C196.94 195.526 197.14 195.661 197.232 195.86Z" fill="#407039"/>
<path d="M214.5 228.5C223.5 216.5 234 200 225.5 188.5H232L234 194.5V209.5L227 222L221.5 230.5C216 232.5 208.539 236.449 214.5 228.5Z" fill="#760F0C" fill-opacity="0.5"/>
<path d="M211.932 244.705L152.959 193.441L178.68 171.611C189.54 162.395 205.503 162.491 216.257 171.84L224.514 179.017C235.261 188.359 237.585 204.16 229.97 216.197L211.932 244.705Z" stroke="#1D1D1B" stroke-width="3" stroke-miterlimit="10"/>
<path d="M216.594 247.406C214.75 249.527 211.019 251.106 208.193 250.638C200.454 249.343 187.336 243.491 171.63 229.838C155.57 215.877 147.61 203.406 145.884 196.566C145.18 193.794 146.086 189.931 147.923 187.818L152.516 182.535C155.901 178.64 162.264 179.415 164.827 184.041C168.787 191.207 174.912 202.269 186.701 212.517C198.746 222.987 210.287 227.468 217.759 230.32C222.734 232.219 224.428 238.409 221.023 242.326L216.601 247.413L216.594 247.406Z" fill="#407039"/>
<path d="M189.888 222.31C189.888 222.31 189.176 222.062 187.974 222.21C186.773 222.357 185.748 222.805 185.835 223.238C185.867 223.399 186.096 223.624 186.853 223.606C187.54 223.608 188.224 223.447 188.84 223.134C189.696 222.699 189.881 222.317 189.888 222.31ZM192.191 226.458C191.806 225.514 191.682 224.651 191.398 223.941C191.123 223.251 190.898 222.87 190.452 222.575C190.393 222.537 190.32 222.499 190.254 222.468C190.254 222.468 189.847 223.347 188.002 223.824C186.129 224.302 185.381 223.638 185.45 223.116C185.526 222.572 186.437 222.119 187.471 221.904C188.547 221.687 189.917 221.911 189.917 221.911C189.917 221.911 189.781 221.488 188.745 221.277C187.732 221.071 185.768 220.967 183.329 221.563C180.897 222.166 179.937 222.828 179.209 223.361C178.48 223.894 177.986 224.737 178.733 225.386C179.473 226.029 181.325 225.652 181.908 225.469C182.997 225.131 184.269 224.262 183.519 223.875C183.151 223.688 182.607 223.811 182.174 224.004C181.892 224.13 181.626 224.284 181.383 224.457C181.086 224.357 180.791 224.3 180.478 224.279C180.143 224.253 179.81 224.255 179.465 224.286C179.465 224.286 179.93 223.75 181.115 223.256C182.3 222.762 183.418 223.046 183.896 223.395C184.323 223.712 184.548 224.505 183.014 225.37C181.487 226.243 178.863 226.625 177.477 225.46C176.203 224.379 176.778 222.057 180.97 220.771C185.606 219.355 188.712 220.386 189.543 220.923C190.374 221.46 190.334 221.995 190.334 221.995C190.937 222.201 191.492 222.538 191.941 222.981C192.794 223.829 192.931 225.074 193.472 226.326C193.028 226.364 192.592 226.409 192.191 226.458ZM197.156 228.932C196.182 228.788 194.999 228.396 194.234 227.598C193.833 227.634 193.39 227.686 192.921 227.768C194.113 229.308 196.162 229.512 197.496 229.334C197.974 229.272 198.447 229.154 198.903 228.98C198.326 229.035 197.737 229.026 197.156 228.932ZM191.703 231.334C191.73 231.318 191.758 231.316 191.785 231.3C191.837 231.225 191.83 231.126 191.761 231.053C191.632 230.928 191.417 230.794 190.454 230.911C189.653 231.009 188.865 231.199 188.113 231.486C187.387 231.756 186.939 232.043 187.013 232.278C187.039 232.355 187.1 232.407 187.173 232.444C187.306 232.52 187.519 232.519 187.897 232.465C188.08 232.438 188.303 232.38 188.554 232.319C189.265 232.156 191.287 231.476 191.703 231.334ZM186.075 227.488C186.342 227.349 186.815 227.018 186.74 226.662C186.657 226.285 185.707 226.174 185.339 226.597C184.958 227.021 185.218 227.591 185.289 227.706C185.337 227.774 185.352 227.787 185.421 227.768C185.642 227.682 185.863 227.595 186.075 227.488ZM184.94 227.88C184.848 227.681 184.791 227.472 184.762 227.261C184.733 227.051 184.739 226.831 184.774 226.622C184.78 226.601 184.759 226.609 184.745 226.61C184.724 226.619 184.66 226.616 183.937 226.809C183.213 227.001 181.889 227.533 182.19 228.086C182.377 228.435 183.286 228.35 183.825 228.248C184.195 228.173 184.563 228.069 184.923 227.945C184.957 227.921 184.949 227.9 184.94 227.88ZM188.973 233.346C188.688 233.43 188.231 233.682 188.82 233.797C189.546 233.937 191.138 233.493 191.138 233.493L191.447 233.762C190.78 233.95 190.11 234.096 189.428 234.179C188.465 234.296 187.442 234.269 187.073 233.855C186.635 233.368 187.344 232.858 187.344 232.858C187.344 232.858 185.992 232.995 185.555 232.522C184.964 231.876 185.87 231.245 185.87 231.245C185.87 231.245 184.343 231.508 183.857 231.046C183.104 230.312 184.148 229.523 184.95 229.041C185.386 228.784 185.741 228.589 185.741 228.589C185.741 228.589 185.646 228.546 185.453 228.418C185.349 228.354 185.184 228.224 185.184 228.224C185.184 228.224 184.347 228.517 183.781 228.634C183.215 228.752 181.048 228.988 180.594 228.169C180.179 227.412 181.19 226.66 182.188 226.229C183.647 225.603 186.455 225.314 187.115 226.246C187.8 227.212 185.57 228.07 185.57 228.07C185.57 228.07 185.563 228.077 185.571 228.084C185.58 228.104 185.618 228.151 185.744 228.22C185.869 228.29 186.008 228.358 186.146 228.398C186.146 228.398 188.616 227.325 190.625 226.965C192.634 226.605 196.364 226.216 196.685 227.37C196.761 227.648 196.311 227.999 195.616 228.296C195.47 228.235 195.33 228.167 195.197 228.091C195.626 227.933 195.962 227.775 196.15 227.62C196.801 227.1 194.217 227.146 191.963 227.651C190.602 227.952 189.27 228.371 187.981 228.893C188.268 228.944 188.553 228.967 188.845 228.982C189.64 228.997 190.432 228.97 191.221 228.901C191.975 228.841 192.719 228.732 193.46 228.581C193.579 228.672 193.692 228.756 193.818 228.84C192.994 229.025 192.16 229.147 191.322 229.227C190.546 229.281 189.707 229.347 189.04 229.337C188.437 229.329 187.838 229.286 187.237 229.201C187.237 229.201 184.744 230.24 185.136 230.779C185.363 231.097 186.698 230.72 186.698 230.72C186.698 230.72 188.436 230.23 189.327 230.103C190.542 229.941 191.425 229.992 191.96 230.444C192.276 230.705 192.168 231.195 192.168 231.195L192.508 231.093L193.399 231.867C193.399 231.867 189.291 233.239 188.973 233.346ZM197.156 228.932C196.182 228.788 194.999 228.396 194.234 227.598C193.833 227.634 193.39 227.686 192.921 227.768C194.113 229.308 196.162 229.512 197.496 229.334C197.981 229.279 198.447 229.154 198.903 228.98C198.326 229.035 197.737 229.026 197.156 228.932ZM183.466 219.47L182.621 218.735L181.476 219.091L182.321 219.826L183.466 219.47ZM177.136 218.658C177.925 218.482 180.416 217.613 180.416 217.613C180.467 217.539 180.46 217.44 180.399 217.373C180.27 217.248 179.996 217.09 179.045 217.27C178.093 217.45 177.345 217.594 176.682 217.839C175.956 218.109 175.513 218.36 175.594 218.602C175.627 218.671 175.681 218.731 175.754 218.768C175.886 218.83 176.114 218.843 176.486 218.795C176.655 218.769 176.877 218.711 177.136 218.658ZM174.634 212.375C174.551 211.998 173.6 211.887 173.233 212.31C172.859 212.74 173.277 213.342 173.345 213.401C173.367 213.421 173.382 213.434 173.418 213.438C173.44 213.444 173.454 213.443 173.475 213.434C173.64 213.366 173.812 213.29 173.983 213.2C174.235 213.062 174.701 212.725 174.634 212.375ZM172.98 213.561C172.868 213.371 172.768 213.165 172.704 212.95C172.646 212.741 172.645 212.514 172.694 212.305C172.699 212.284 172.679 212.292 172.665 212.293C172.644 212.302 172.546 212.323 171.822 212.501C171.098 212.693 169.796 213.231 170.097 213.784C170.284 214.132 171.193 214.048 171.731 213.946C172.151 213.86 172.554 213.747 172.963 213.612C172.99 213.596 172.989 213.582 172.98 213.561ZM179.636 219.851L179.946 220.12C179.946 220.12 176.436 221.017 175.653 220.151C175.214 219.664 175.883 219.185 175.883 219.185C175.883 219.185 174.494 219.395 174.004 218.678C173.555 218.036 174.758 217.399 174.758 217.399C174.671 217.363 172.213 217.691 171.64 216.597C171.035 215.448 172.528 214.691 173.003 214.495C173.402 214.326 173.824 214.176 173.824 214.176C173.824 214.176 173.648 214.089 173.545 214.039C173.443 213.99 173.287 213.894 173.287 213.894C173.287 213.894 172.247 214.222 171.681 214.34C171.115 214.457 168.948 214.694 168.494 213.875C168.047 213.063 169.006 212.28 170.012 211.869C171.653 211.201 174.345 210.985 175.015 211.952C175.693 212.925 173.749 213.713 173.749 213.713C173.749 213.713 173.903 213.886 174.561 213.968C175.512 214.079 177.248 213.667 177.989 214.536C178.336 214.945 178.36 215.68 177.164 216.019C176.782 216.124 176.313 216.114 176.299 215.704C176.288 215.456 176.618 215.306 176.905 215.25C177.135 215.199 177.374 215.274 177.549 215.439C177.549 215.439 177.974 215.239 177.606 214.932C177.312 214.69 175.989 214.719 174.984 215.051C174.062 215.35 172.556 215.909 172.934 216.648C173.278 217.318 175.326 217.005 176.339 216.785C177.351 216.566 179.649 216.072 180.592 216.786C180.921 217.032 180.859 217.469 180.859 217.469L181.109 217.395L182 218.169C182 218.169 177.883 219.506 177.564 219.613C177.314 219.687 176.857 219.939 177.411 220.063C177.958 220.181 179.636 219.851 179.636 219.851ZM175.25 223.922C174.987 222.898 174.405 221.982 173.579 221.316C173.128 220.951 172.531 220.816 171.967 220.961C172.145 220.07 171.788 219.124 170.74 218.226C169.038 216.786 166.708 216.112 165.387 214.964C164.12 213.862 163.888 212.269 165.151 210.876C167.356 208.447 171.396 208.037 173.831 208.391C175.227 208.598 176.133 209.081 176.585 209.566C176.915 209.919 176.984 210.708 176.181 211.083C175 211.634 174.515 211.079 174.904 210.662C175.162 210.396 175.494 210.38 175.723 210.406C175.866 210.425 176.03 210.541 176.119 210.606C176.261 210.61 176.741 210.165 175.955 209.774C175.175 209.374 173.847 209.333 172.399 209.505C170.951 209.677 168.451 210.22 166.761 211.6C165.969 212.237 164.872 213.682 166.667 215.215C168.189 216.512 171.289 217.457 173.315 219.258C174.101 219.954 174.611 220.769 174.859 221.581C175.085 222.374 175.306 223.4 175.25 223.922Z" fill="white"/>
<path d="M216.594 247.406C214.75 249.527 211.019 251.106 208.193 250.638C200.454 249.343 187.336 243.491 171.63 229.838C155.57 215.877 147.61 203.406 145.884 196.566C145.18 193.794 146.086 189.931 147.923 187.818L152.516 182.535C155.901 178.64 162.264 179.415 164.827 184.041C168.787 191.207 174.912 202.269 186.701 212.517C198.746 222.987 210.287 227.468 217.759 230.32C222.734 232.219 224.428 238.409 221.023 242.326L216.601 247.413L216.594 247.406Z" stroke="#1D1D1B" stroke-width="3" stroke-miterlimit="10"/>
<path d="M214.477 182.562C222.388 189.439 233.598 189.496 239.514 182.689C245.431 175.883 243.815 164.79 235.903 157.913C227.992 151.036 216.783 150.979 210.866 157.785C204.949 164.592 206.565 175.684 214.477 182.562Z" fill="#E3302B"/>
<path d="M214.477 182.562C222.388 189.439 233.598 189.496 239.514 182.689C245.431 175.883 243.815 164.79 235.903 157.913C227.992 151.036 216.783 150.979 210.866 157.785C204.949 164.592 206.565 175.684 214.477 182.562Z" stroke="#1D1D1B" stroke-width="3" stroke-miterlimit="10" stroke-linecap="round" stroke-linejoin="round"/>
</g>
<g clip-path="url(#clip2_711_2025)">
<path d="M105.48 217.79C108.15 221.53 114.4 225.83 117.22 225.26C119.89 224.73 119.22 222.39 120.96 222.06C122.7 221.73 125.38 223.46 127.36 221.53C129.34 219.6 127.51 217.71 128.43 216.19C129.34 214.67 131.63 215.12 131.63 212.45C131.63 210.85 119.35 205.51 116.69 204.98C114.02 204.45 110.27 211.78 110.27 211.78L105.48 217.79Z" fill="#757575"/>
<path d="M105.48 217.79C108.15 221.53 114.4 225.83 117.22 225.26C119.89 224.73 119.22 222.39 120.96 222.06C122.7 221.73 125.38 223.46 127.36 221.53C129.34 219.6 127.51 217.71 128.43 216.19C129.34 214.67 131.63 215.12 131.63 212.45C131.63 210.85 119.35 205.51 116.69 204.98C114.02 204.45 110.27 211.78 110.27 211.78L105.48 217.79Z" stroke="#1D1D1B" stroke-width="3" stroke-miterlimit="10"/>
<path d="M60.6301 224.73C64.3801 232.2 70.7901 243.41 77.1901 243.41C83.5901 243.41 83.5901 240.74 86.8001 240.74C90.0101 240.74 95.0101 245.01 98.6501 243.41C102.28 241.81 101.56 238.43 103.35 237.01C105.14 235.58 107.62 237.54 109.08 234.25C110.05 232.08 101.75 222.6 97.4801 221.53C93.2101 220.46 82.0901 223.97 82.0901 223.97L60.6301 224.73Z" fill="#757575"/>
<path d="M60.6301 224.73C64.3801 232.2 70.7901 243.41 77.1901 243.41C83.5901 243.41 83.5901 240.74 86.8001 240.74C90.0101 240.74 95.0101 245.01 98.6501 243.41C102.28 241.81 101.56 238.43 103.35 237.01C105.14 235.58 107.62 237.54 109.08 234.25C110.05 232.08 101.75 222.6 97.4801 221.53C93.2101 220.46 82.0901 223.97 82.0901 223.97L60.6301 224.73Z" stroke="#1D1D1B" stroke-width="3" stroke-miterlimit="10"/>
<path d="M107.37 123.85C121.78 156.94 142.6 176.69 138.86 182.56C133.36 191.21 95.7801 182.56 82.1001 138.79C89.7601 136.12 97.3201 131.71 97.3201 131.71L107.37 123.85Z" fill="#5B5B5B" stroke="#1D1D1B" stroke-width="3"/>
<path d="M119.89 179.37C119.89 198.19 115.21 212.37 99.2301 219.53C91.7001 222.91 81.6401 224.73 68.3801 224.73C37.5401 224.73 23.9401 210.98 21.1701 188.73C20.8001 185.76 20.6201 182.64 20.6201 179.37C20.6201 151.66 39.3501 127.59 68.3801 127.59C97.4101 127.59 119.89 151.65 119.89 179.37Z" fill="#757575"/>
<path d="M58.36 150.89C51.58 164.95 35.03 215.12 73.99 223.66C84.13 223.66 95.69 220.94 95.69 220.94L110.91 211.07L119.9 191.8L118.1 165.91L108.95 144.53L99.09 143.07L77.74 151.26L61.73 150.01L58.36 150.89Z" fill="white"/>
<path opacity="0.42" d="M99.2302 219.53C91.7002 222.91 81.6402 224.73 68.3802 224.73C37.5402 224.73 23.9402 210.98 21.1702 188.73L31.5802 189.34C35.8502 208.93 60.5602 227.68 99.2302 219.53Z" fill="#1D1D1B"/>
<path d="M119.89 179.36C119.89 207.07 109.75 224.73 68.3901 224.73C33.4301 224.73 20.6201 207.07 20.6201 179.36C20.6201 151.65 39.3501 127.59 68.3901 127.59C97.4301 127.59 119.89 151.65 119.89 179.36Z" stroke="#1D1D1B" stroke-width="3" stroke-miterlimit="10" stroke-linecap="round" stroke-linejoin="round"/>
<path d="M94.37 146.44C94.37 146.44 68.94 149.8 68.26 151.5C67.58 153.21 73.45 153.9 72.92 157.29C72.39 160.68 72.47 174.02 79.63 176.16C86.79 178.29 99.6 163.88 100.67 159.61C101.74 155.34 101.74 148.4 101.74 148.4L94.37 146.44Z" fill="#E3302B"/>
<path d="M94.37 146.44C94.37 146.44 68.94 149.8 68.26 151.5C67.58 153.21 73.45 153.9 72.92 157.29C72.39 160.68 72.47 174.02 79.63 176.16C86.79 178.29 99.6 163.88 100.67 159.61C101.74 155.34 101.74 148.4 101.74 148.4L94.37 146.44Z" stroke="#1D1D1B" stroke-width="3" stroke-miterlimit="10"/>
<path d="M112.42 155.64C116.16 156.41 131.1 160.15 133.24 158.02C135.37 155.89 136.86 149.82 133.98 146.45C131.1 143.08 131.1 136.14 128.97 134.54C126.84 132.94 123.63 129.43 119.9 130.65C116.17 131.87 104.05 139.91 104.24 142.3C104.41 144.67 112.42 155.64 112.42 155.64Z" fill="#E3302B"/>
<path d="M112.42 155.64C116.16 156.41 131.1 160.15 133.24 158.02C135.37 155.89 136.86 149.82 133.98 146.45C131.1 143.08 131.1 136.14 128.97 134.54C126.84 132.94 123.63 129.43 119.9 130.65C116.17 131.87 104.05 139.91 104.24 142.3C104.41 144.67 112.42 155.64 112.42 155.64Z" stroke="#1D1D1B" stroke-width="3" stroke-miterlimit="10"/>
<path d="M94.37 146.44C98.16 149.94 100.68 156.41 100.68 159.61C100.68 162.81 114.27 159.9 114.15 155.75C114.02 151.6 107.62 142 106.02 140.93C104.41 139.87 93.4 145.54 94.37 146.44Z" fill="#E3302B"/>
<path d="M94.37 146.44C98.16 149.94 100.68 156.41 100.68 159.61C100.68 162.81 114.27 159.9 114.15 155.75C114.02 151.6 107.62 142 106.02 140.93C104.41 139.87 93.4 145.54 94.37 146.44Z" stroke="#1D1D1B" stroke-width="3" stroke-miterlimit="10"/>
<path d="M33.43 135.6C19.02 168.69 -1.80005 188.43 1.93995 194.31C7.43995 202.96 45.02 194.31 58.7 150.54C51.04 147.87 43.48 143.46 43.48 143.46L33.43 135.6Z" fill="#757575" stroke="#1D1D1B" stroke-width="3"/>
<path d="M120.96 105.71C120.96 131.06 98.86 151.61 71.59 151.61C57.27 151.61 44.38 145.94 35.37 136.89C27.21 128.7 22.22 117.75 22.22 105.7C22.22 98.13 24.19 91 27.67 84.71C29.45 81.49 31.63 78.5 34.15 75.78C34.24 75.67 34.35 75.57 34.44 75.46C43.5 65.86 56.78 59.8 71.59 59.8C86.14 59.8 99.21 65.6501 108.24 74.9401C111.11 77.9001 113.57 81.19 115.54 84.77C119.01 91.06 120.96 98.17 120.96 105.71Z" fill="#757575"/>
<path d="M92.8599 114.84C92.8599 106.25 87.8699 87.0301 63.3199 87.0301C38.7699 87.0301 28.1799 109.98 28.1799 127.59C31.8299 132.93 35.3699 136.89 35.3699 136.89L46.8399 145.42L62.8399 150.88L79.6399 151.6L95.5499 146.43L107.62 138.27L120.96 114.31L118.68 91.8701L114.15 82.4301C114.15 82.4301 101.18 75.7501 102.8 107.54C98.0099 111.04 92.8599 114.84 92.8599 114.84Z" fill="white"/>
<path opacity="0.42" d="M114.69 83.0799C99.86 86.9999 60.25 87.1999 39.33 84.8699C28.69 98.8299 25.24 115.35 35.37 136.89C28.19 128.83 22.22 117.75 22.22 105.7C22.22 97.4299 24.56 89.6799 28.68 82.9799C30.14 80.5999 31.82 78.3599 33.69 76.2699C33.84 76.1099 34 75.9499 34.15 75.7799L36.6 75.8799L60.57 76.8399L108.25 74.9399C111.11 77.9099 112.72 79.4999 114.69 83.0799Z" fill="#1D1D1B"/>
<path opacity="0.42" d="M36.5901 75.89L34.1401 75.79C34.2301 75.68 34.3401 75.58 34.4301 75.47L36.5901 75.89Z" fill="#1D1D1B"/>
<path opacity="0.42" d="M33.6899 76.28C31.8199 78.37 30.1399 80.61 28.6799 82.99C28.5099 82.93 28.3399 82.88 28.1899 82.82C29.8499 79.8 31.4199 78.65 33.6899 76.28Z" fill="#1D1D1B"/>
<path d="M71.59 151.61C98.8563 151.61 120.96 131.06 120.96 105.71C120.96 80.3602 98.8563 59.8101 71.59 59.8101C44.3237 59.8101 22.22 80.3602 22.22 105.71C22.22 131.06 44.3237 151.61 71.59 151.61Z" stroke="#1D1D1B" stroke-width="3" stroke-miterlimit="10" stroke-linecap="round" stroke-linejoin="round"/>
<path d="M137.55 128.92C137.59 130.62 136.42 132.33 134.36 132.5L96.7601 135.67C96.4401 135.7 96.1301 135.61 95.8701 135.43C94.9701 134.78 92.8701 133.01 91.6501 129.72V129.71C90.7501 127.26 90.3301 123.97 91.2601 119.67C93.5301 109.19 100.19 107.61 101.99 107.37C102.26 107.34 102.54 107.4 102.79 107.53L135.76 125.98C136.97 126.66 137.53 127.79 137.55 128.92Z" fill="#FFB419"/>
<path d="M137.26 128.83C137.3 130.53 136.42 132.32 134.36 132.49L96.7601 135.66C96.4401 135.69 96.1301 135.6 95.8701 135.42C94.9701 134.77 92.4501 132.97 91.2301 129.68L90.3801 124.57C95.5001 132.24 132.14 131.39 137.26 128.83Z" fill="#D69013"/>
<path d="M96.7601 135.67C96.4401 135.7 96.1301 135.61 95.8701 135.43C94.3001 134.31 89.0901 129.74 91.2601 119.68C93.5301 109.19 100.19 107.62 101.99 107.38C102.27 107.34 102.55 107.4 102.8 107.54L135.77 125.99C138.77 127.67 137.79 132.21 134.36 132.5L96.7601 135.67Z" stroke="#1D1D1B" stroke-width="3" stroke-miterlimit="10"/>
<path d="M78.7999 116.91C82.0418 116.91 84.6699 113.208 84.6699 108.64C84.6699 104.073 82.0418 100.37 78.7999 100.37C75.558 100.37 72.9299 104.073 72.9299 108.64C72.9299 113.208 75.558 116.91 78.7999 116.91Z" fill="#1D1D1B"/>
<path d="M110.82 106.78C113.471 106.78 115.62 103.552 115.62 99.5701C115.62 95.5881 113.471 92.3601 110.82 92.3601C108.169 92.3601 106.02 95.5881 106.02 99.5701C106.02 103.552 108.169 106.78 110.82 106.78Z" fill="#1D1D1B"/>
<path d="M72.03 82.9301C109.464 82.9301 139.81 78.153 139.81 72.2601C139.81 66.3672 109.464 61.5901 72.03 61.5901C34.5961 61.5901 4.25 66.3672 4.25 72.2601C4.25 78.153 34.5961 82.9301 72.03 82.9301Z" fill="#E3302B"/>
<path d="M72.03 82.9301C109.464 82.9301 139.81 78.153 139.81 72.2601C139.81 66.3672 109.464 61.5901 72.03 61.5901C34.5961 61.5901 4.25 66.3672 4.25 72.2601C4.25 78.153 34.5961 82.9301 72.03 82.9301Z" stroke="#1D1D1B" stroke-width="3" stroke-miterlimit="10" stroke-linecap="round" stroke-linejoin="round"/>
<path d="M109.92 67.99C109.92 67.99 100.85 73.86 71.4901 73.86C41.0701 73.86 33.0601 67.99 33.0601 67.99V10.35C33.0601 10.35 48.5401 1.28003 71.4901 1.28003C98.1801 1.28003 109.92 10.35 109.92 10.35V67.99V67.99Z" fill="#E3302B"/>
<path d="M40.5 67.0002V15.0002L37 13.0002L33 11.0002V50.5002L40.5 67.0002Z" fill="#9E221F"/>
<path d="M109.92 67.99C109.92 67.99 100.85 73.86 71.4901 73.86C41.0701 73.86 33.0601 67.99 33.0601 67.99V10.35C33.0601 10.35 45.6401 1.28003 71.4901 1.28003C98.1801 1.28003 109.92 10.35 109.92 10.35V67.99Z" stroke="#1D1D1B" stroke-width="3" stroke-miterlimit="10" stroke-linecap="round" stroke-linejoin="round"/>
<path d="M32.53 39.1599C43.03 44.9599 98.78 45.2299 109.98 39.3599C109.98 46.2999 110.23 62.9799 110.23 62.9799L109.98 68.3299L89.76 73.4299H64.76L43.28 71.1599L32.53 68.3299L32.53 39.1599Z" fill="#1D1D1B"/>
<path d="M33.0701 10.3501C33.0701 19.3301 109.93 19.3301 109.93 10.3501" stroke="#1D1D1B" stroke-width="3" stroke-miterlimit="10" stroke-linecap="round" stroke-linejoin="round"/>
<g clip-path="url(#clip3_711_2025)">
<path d="M65.5396 65.8951C63.6245 64.5384 61.0019 64.1667 56.8464 64.752C52.4738 65.1585 51.0061 65.4631 49.0866 63.6719C48.3248 62.8467 48.062 61.6905 48.2622 60.2037C48.6684 57.8095 49.8667 55.697 52.0683 53.4656C53.2761 52.2945 54.4141 51.3052 55.9185 51.0727C57.0652 50.9524 56.9668 51.8587 56.8244 51.9688C56.6806 51.9341 56.4295 51.9366 56.2512 52.0471C56.1088 52.1572 55.6817 52.4874 55.651 52.9947C55.6232 53.7917 56.4478 53.7471 56.8029 53.3814C57.193 52.9429 57.7578 52.0318 57.2819 51.0951C57.0989 50.7348 56.7735 50.4846 56.3416 50.3441C54.9752 50.032 53.6882 50.4797 52.5093 50.9624C49.9398 52.2921 47.8799 54.341 46.757 56.8149C46.0905 58.3064 45.5034 60.5576 46.4585 62.757C47.1917 64.3067 48.6375 65.3785 50.3977 65.6141C51.6188 65.7466 53.1243 65.6227 54.1283 65.5763C55.1327 65.5661 60.2874 64.4636 62.0423 67.7051C62.0423 67.7051 62.6055 66.6492 64.0056 66.7436C65.1893 66.7316 66.8808 67.2577 68.1099 68.1868C67.7087 67.539 66.5151 66.5733 65.5396 65.8951Z" fill="white"/>
<path d="M57.3177 54.6436C56.3411 53.8568 54.4133 54.7817 52.8892 56.6078C51.5064 58.2152 50.9175 60.2854 51.5749 61.4376C52.5936 62.8396 54.4091 61.445 55.1902 60.6404C55.2257 60.6038 55.2612 60.5673 55.2967 60.5307C55.83 60.0545 56.2179 59.3987 56.6063 58.7792C56.6063 58.7792 56.9595 58.2324 56.995 58.1958C57.2102 58.1936 57.4968 58.1545 57.8193 58.115C57.8193 58.115 56.6543 59.9737 56.7718 60.9503C56.8106 61.2396 56.7861 62.3625 57.867 62.8223C59.3062 63.2423 60.4083 62.2533 61.4039 61.3741C61.4039 61.3741 61.5818 61.2275 61.6528 61.1543C61.618 61.2633 61.5832 61.3723 61.5832 61.3723C61.2033 62.8247 61.7809 63.181 62.1053 63.3225C63.1858 63.7461 64.4262 62.2488 64.4262 62.2488C64.3951 62.7199 64.2915 63.1193 64.8333 63.4759C65.3377 63.6881 65.8014 63.4299 66.1938 63.2087C67.5481 62.3258 68.6095 60.8665 69.4575 59.5904C69.2423 59.5926 69.1347 59.5937 68.8836 59.5962C68.8836 59.5962 67.5045 61.5658 66.6476 61.9728C66.6476 61.9728 66.469 62.047 66.3965 61.9753C66.2878 61.8678 66.3215 61.6502 66.3921 61.5408C66.3921 61.5408 69.7766 55.6761 69.7762 55.6399C69.1306 55.6464 68.8073 55.6135 68.1617 55.6201L67.9853 55.9116C67.9853 55.9116 67.9487 55.8395 67.9128 55.8399C66.8941 54.4379 64.6186 56.4527 62.9565 58.8234C62.32 59.7352 61.469 60.7216 60.6151 61.4183C60.6151 61.4183 59.3344 62.4815 58.7868 61.5455C58.5675 61.1494 58.6341 60.6417 58.7384 60.3147C59.3665 58.5701 60.4631 57.038 61.7097 56.1562C62.0659 55.8991 62.4601 55.8589 62.6409 56.002C62.8213 56.1088 62.8602 56.3981 62.7544 56.5802C62.467 56.5469 62.2167 56.6219 62.0392 56.8048C61.6841 57.1705 61.5443 57.534 61.6556 57.8951C62.2387 58.7945 63.3708 57.2258 63.3246 56.2123C63.2851 55.8506 63.1021 55.4903 62.8133 55.3121C62.3799 55.0268 61.7342 55.0334 61.3411 55.1822C60.7686 55.3329 59.9143 55.9934 59.3814 56.5058C58.7424 57.1641 57.6366 57.7909 57.2764 57.6497C57.3807 57.3228 58.295 55.5028 57.3177 54.6436ZM65.1391 58.2581C65.4579 57.8565 66.3433 56.7249 66.5922 56.5051C67.3392 55.8819 67.6291 56.1687 67.6672 56.3856C66.9623 57.624 66.1516 59.0445 65.3749 60.2837L65.1275 60.6483C64.7739 61.1589 64.4555 61.5967 63.8841 61.856C63.8124 61.8567 63.6689 61.8581 63.5964 61.7864C63.4881 61.7151 63.4507 61.5706 63.4496 61.462C63.4818 61.0995 63.9001 59.9003 65.1391 58.2581ZM56.3486 58.1299C56.3486 58.1299 56.3489 58.1661 56.3131 58.1665L55.6063 59.2239C55.181 59.7352 54.685 60.3558 54.0057 60.58C53.8267 60.618 53.5397 60.6209 53.3941 60.4051C53.1031 60.0097 53.2418 59.5375 53.3457 59.1744C53.3453 59.1381 53.3808 59.1016 53.3801 59.0292C53.7296 58.1203 54.2604 57.3906 54.7914 56.6972L54.8273 56.6968C55.1575 57.4177 55.8072 57.8095 56.2757 58.022C56.3837 58.0571 56.3482 58.0937 56.3486 58.1299ZM56.9814 56.856L56.6655 57.5473C56.63 57.5839 56.5579 57.5484 56.4858 57.5129C56.4137 57.4774 56.4137 57.4774 56.342 57.4782C55.9093 57.2653 55.5832 56.9426 55.4719 56.5816C55.3214 55.8951 55.891 55.4548 56.1402 55.2712C56.3898 55.1238 56.7485 55.1201 56.9656 55.299C57.1109 55.4786 57.149 55.6955 57.1512 55.9128C57.1904 56.2383 57.0861 56.5653 56.9814 56.856Z" fill="white"/>
<path d="M77.5306 59.7256C77.3838 59.4012 76.9874 59.2242 76.5932 59.2644C75.3037 59.4585 74.0592 60.5575 73.4293 62.1211C73.0787 62.9214 72.9059 63.575 72.8086 64.5899C73.1984 64.1152 74.0157 63.3464 74.9436 62.8662C74.9436 62.8662 75.0772 61.8871 75.6778 60.9757C75.9252 60.611 76.3853 59.9907 76.9603 60.0936C77.4281 60.2337 77.2982 61.5749 76.6658 62.885C76.2093 63.8674 75.5018 64.8523 74.791 65.5114C74.1512 66.0973 73.2256 66.7947 72.3595 66.2965C71.8185 66.0123 71.5608 65.3631 71.5879 64.4937C71.8148 62.1013 72.8703 60.0626 74.3889 57.6933C75.9448 55.4685 77.7152 53.1691 80.0329 51.7695C80.4963 51.4751 80.9615 51.3617 81.3572 51.4663C81.3572 51.4663 79.1479 52.9373 78.1311 55.2653C77.8507 55.92 77.5001 56.7202 77.8658 57.4046C78.0488 57.7648 78.4075 57.7612 78.6938 57.6859C79.9811 57.2745 80.8287 55.9622 81.4982 54.7604C81.8839 53.8873 82.2335 52.9784 82.2243 52.0732C82.2232 51.9646 82.2217 51.8197 82.2206 51.7111C82.8264 51.3066 84.1221 51.728 84.1221 51.728C85.1287 51.9351 87.2221 53.1813 87.9413 53.3551C88.2953 52.8808 88.826 52.1511 89.1451 51.7857C88.965 51.7151 88.8571 51.68 88.6766 51.5732C87.92 51.2549 87.1638 50.9729 86.3713 50.655C84.6067 49.9849 83.177 50.5063 82.4633 50.8757C82.1778 51.0235 81.9278 51.1346 81.9278 51.1346C81.3842 50.5969 80.4889 50.7509 79.8454 50.9747C77.4868 51.8677 75.3167 53.6642 73.0148 56.6208C71.3161 58.9195 70.2595 60.8496 69.7046 62.7383C69.287 64.01 69.163 65.9306 70.2505 67.0422C71.1572 68.0108 72.3746 67.7811 73.2318 67.4103C75.0876 66.4499 76.7167 64.3692 77.5182 62.0434C77.6913 61.426 77.8966 60.4462 77.5306 59.7256ZM81.7236 52.2231C81.5015 55.0862 79.3321 56.9551 78.7959 57.1416C78.4741 57.2535 77.8991 57.1507 78.3888 55.9145C79.0897 54.2778 80.3301 52.7804 81.6848 51.9338C81.7217 52.0421 81.7225 52.1145 81.7236 52.2231Z" fill="white"/>
<path d="M94.51 50.1742C93.3717 51.1273 92.1953 51.8635 90.7261 52.0232C90.337 52.5704 89.948 53.1175 89.5951 53.7005C91.6412 53.8246 93.7762 52.101 94.9456 50.6768C96.1864 49.2156 96.8159 47.6159 96.8159 47.6159C96.8518 47.6155 95.8973 49.0013 94.51 50.1742Z" fill="white"/>
<path d="M72.502 55.576C71.8922 55.5822 71.5693 55.5854 70.9595 55.5916C70.6067 56.1746 70.4299 56.4299 70.113 57.0125C70.7228 57.0063 71.0456 57.0031 71.6554 56.9969C71.9727 56.4505 72.1491 56.159 72.502 55.576Z" fill="white"/>
<path d="M90.8472 63.9725C90.6693 64.1192 90.4537 64.0851 90.5225 63.7947C90.7308 63.1046 91.5763 61.575 91.5763 61.575C92.4894 59.6464 92.9821 58.6999 93.8949 56.7351C93.2507 56.8865 92.9286 56.9622 92.2844 57.1136C92.2141 57.2591 92.0381 57.5868 92.0381 57.5868C91.9652 57.4789 91.7478 57.2639 91.6394 57.1925C91.243 57.0155 90.6717 57.2748 90.2804 57.6047C88.5367 58.9985 87.3043 61.2924 86.2817 63.041C86.2817 63.041 85.2254 65.0073 84.6533 65.1941C84.1881 65.3075 84.2174 64.6554 84.2518 64.5102C84.4201 63.422 84.8399 62.3676 85.2246 61.3859C86.0781 60.653 87.0375 59.7379 87.8881 58.7153C89.7672 56.5235 91.3568 54.081 91.5669 53.5719C91.5669 53.5719 91.3169 53.6831 91.0306 53.7584C89.5842 56.1632 86.6425 59.7057 85.7157 60.2945C86.0997 59.2404 88.6668 54.1445 90.8274 51.4066C90.9691 51.2241 91.0401 51.1509 91.1821 51.0046C91.7135 50.3474 92.245 49.6902 92.6732 49.4685C92.7091 49.4682 92.7805 49.4312 92.8174 49.5395C92.8574 49.9375 92.6817 50.3014 92.506 50.6653C92.4006 50.8836 92.3658 50.9926 92.2608 51.2472C92.2608 51.2472 92.618 51.0987 92.8321 50.9879C93.0774 50.406 93.3581 49.7875 93.2439 49.1368C93.2058 48.9199 93.0612 48.8128 92.846 48.8149C92.2007 48.8577 91.4899 49.5168 90.9211 50.0295C90.9211 50.0295 90.9211 50.0295 90.8856 50.0661C87.5486 53.5402 85.115 57.657 83.3278 61.8397C83.1858 61.986 82.5423 62.2098 82.434 62.1385C82.6445 61.6656 82.9248 61.0109 83.0613 60.3214C83.0954 60.14 83.0931 59.9228 83.0913 59.7417C83.0873 59.3434 82.976 58.9824 82.6151 58.7688C82.1832 58.6283 81.6824 58.7782 81.3256 58.9629C79.7557 59.8118 78.5892 61.5256 77.7426 62.9465C77.2851 63.8203 76.8284 64.7665 76.7314 65.8177C76.6681 66.6512 76.8526 67.1563 77.3215 67.4051C77.79 67.6176 78.3969 67.3218 78.6465 67.1744C80.2508 66.1803 81.3444 64.3586 82.2243 62.6838C82.2602 62.6835 82.7257 62.6063 83.1188 62.4575C83.0837 62.5303 82.9102 63.1114 82.9102 63.1114C82.3536 64.8191 82.1142 65.9804 82.6585 66.5905C83.4202 67.4157 84.6643 66.2804 85.6544 64.8581C85.455 66.4173 86.2456 66.5541 86.8532 66.3307C87.5318 66.0341 88.3118 65.1208 88.6661 64.6827C88.5632 65.1545 88.6072 65.9508 89.2166 65.9084C89.6471 65.904 89.967 65.611 90.3227 65.3177C91.6397 64.2904 93.1897 61.4862 93.6117 60.649C93.3969 60.6874 93.2896 60.7247 93.0748 60.7631C92.5118 61.8552 91.7725 63.2389 90.8472 63.9725ZM78.8463 65.6514C78.7735 65.5435 78.7361 65.399 78.7347 65.2542C78.7255 64.3489 79.6764 62.601 80.3839 61.6161C80.6771 62.2287 81.3623 62.5839 81.758 62.6886C81.2317 63.8527 79.5714 66.4045 78.8463 65.6514ZM82.0036 62.1429C81.968 62.1794 81.1053 62.0071 80.9541 61.2482C80.804 60.5978 81.2645 60.0137 81.692 59.7197C81.8695 59.5368 82.1557 59.4615 82.3713 59.4955C82.5518 59.6023 82.6257 59.8189 82.6283 60.0723C82.6298 60.2172 82.5957 60.3986 82.5972 60.5434L82.5976 60.5796C82.4596 61.1243 82.2499 61.6696 82.0036 62.1429ZM88.6946 63.9581L88.5529 64.1406C88.3403 64.3963 88.0918 64.6523 87.8399 64.5824C87.7682 64.5831 87.6954 64.4752 87.6946 64.4028C87.6887 63.8235 87.934 63.2416 88.1792 62.6597C88.2143 62.5869 88.2143 62.5869 88.2495 62.5141C88.9533 61.1671 89.7622 59.5654 90.9693 58.3219C91.1827 58.1387 91.3961 57.9555 91.6475 57.9891C91.7196 58.0246 91.7562 58.0967 91.7573 58.2053C91.7577 58.2415 91.7226 58.3143 91.7229 58.3505C91.3708 59.0059 91.0546 59.661 90.7739 60.2795C90.1048 61.5175 89.5079 62.791 88.6946 63.9581Z" fill="white"/>
</g>
</g>
<defs>
<clipPath id="clip0_711_2025">
<rect width="131.62" height="111.48" fill="white" transform="translate(136 34)"/>
</clipPath>
<clipPath id="clip1_711_2025">
<rect width="94.21" height="99.6" fill="white" transform="translate(200.344 125) rotate(41)"/>
</clipPath>
<clipPath id="clip2_711_2025">
<rect width="141.09" height="245.05" fill="white"/>
</clipPath>
<clipPath id="clip3_711_2025">
<rect width="51.0108" height="20.2424" fill="white" transform="translate(45.8435 48.1328) rotate(-0.580922)"/>
</clipPath>
</defs>
</svg>
