<svg width="305" height="323" viewBox="0 0 305 323" fill="none" xmlns="http://www.w3.org/2000/svg">
<path d="M139.783 229.152C139.121 237.76 123.949 250.926 114.058 258.643C108.577 262.919 102.31 266.295 95.4009 267.055C53.331 271.681 12.5614 225.351 26.7165 190.752C30.3061 181.978 55.5165 158.752 60.317 160.352C67.2476 168.695 139.871 228.01 139.783 229.152Z" fill="white"/>
<path d="M139.784 229.152C139.1 238.034 122.967 251.77 113.129 259.364C108.24 263.138 102.731 266.186 96.6183 267.065C85.268 268.698 75.2219 266.5 75.2219 266.5C75.2219 266.5 96.0262 260.162 110.722 248C125.222 236 140.829 215.572 139.784 229.152Z" fill="#C7DFF4"/>
<path d="M52.1152 234.098L41.7219 244.292C54.3031 258.433 73.3057 265.079 82.0606 266.837C82.6072 266.947 83.1708 266.808 83.6152 266.472L93.8443 258.717C95.9889 257.091 95.0753 253.618 92.4364 253.09C76.578 249.914 66.3029 243.402 58.1376 234.371C56.5495 232.614 53.8056 232.44 52.1152 234.098Z" fill="#D92520"/>
<path d="M61.4595 254.09C60.6654 252.719 59.1252 251.76 56.1615 251.15C53.062 250.381 51.9261 250.325 51.1437 248.868C50.889 248.218 51.0615 247.471 51.6746 246.582C52.76 245.177 54.3073 244.082 56.5444 243.135C57.7609 242.669 58.8585 242.297 59.9592 242.485C60.7815 242.672 60.4209 243.208 60.2911 243.244C60.1982 243.197 60.0349 243.132 59.8741 243.148C59.7374 243.174 59.3434 243.281 59.1603 243.603C58.881 244.097 59.4566 244.259 59.8236 244.098C60.2261 243.91 60.8908 243.497 60.8943 242.796C60.8777 242.537 60.7436 242.295 60.514 242.118C59.6711 241.624 58.6503 241.623 57.6695 241.698C55.4561 241.995 53.3451 242.897 51.7247 244.238C50.7667 245.057 49.6197 246.346 49.577 247.851C49.5933 248.92 50.2921 249.841 51.446 250.315C52.2637 250.631 53.3305 250.861 54.0393 251.033C54.7481 251.205 58.5475 251.751 58.6181 254.228C58.6181 254.228 59.3222 253.724 60.2118 254.161C60.9712 254.466 61.8753 255.279 62.3503 256.229C62.2921 255.717 61.861 254.786 61.4595 254.09Z" fill="white"/>
<path d="M59.7239 245.012C59.323 244.305 57.7202 244.441 56.0812 245.242C54.5939 245.952 53.5152 247.11 53.6119 247.951C53.8556 249.007 55.5594 248.526 56.3447 248.204L56.4425 248.169C56.96 247.982 57.439 247.683 57.9007 247.397C57.9007 247.397 58.3243 247.135 58.3442 247.124C58.4995 247.17 58.6912 247.217 58.912 247.26C58.9048 247.267 57.5391 248.124 57.3002 248.775C57.2278 248.973 56.8602 249.646 57.4201 250.194C58.2314 250.798 59.2928 250.473 60.2318 250.182C60.2318 250.182 60.3906 250.135 60.4806 250.107C60.4341 250.16 60.3724 250.232 60.3724 250.232C59.6493 251.002 59.9024 251.371 60.0858 251.553C60.6492 252.086 61.9334 251.529 61.9359 251.53C61.7601 251.823 61.5717 252.043 61.7879 252.408C62.034 252.67 62.4235 252.662 62.7346 252.626C63.8718 252.466 65.017 251.89 65.9689 251.372L65.6222 251.194C65.6181 251.192 64.1341 251.989 63.4435 251.974C63.4427 251.974 63.3156 251.974 63.2786 251.903C63.2382 251.805 63.3318 251.692 63.4223 251.625C63.4281 251.621 67.4559 249.016 67.4559 249.016L66.4492 248.5C66.4492 248.5 66.248 248.621 66.2333 248.628C66.2294 248.619 66.229 248.58 66.2254 248.56C66.0439 247.377 63.9513 247.98 62.0991 248.974C61.3863 249.356 60.5235 249.755 59.7366 249.959C59.7366 249.959 58.5597 250.282 58.4879 249.58C58.4764 249.294 58.6811 248.99 58.8607 248.813C59.8402 247.884 61.0541 247.207 62.1534 246.986C62.4619 246.927 62.7271 247.001 62.8085 247.134C62.8873 247.259 62.8206 247.435 62.6906 247.512C62.5116 247.413 62.3377 247.393 62.1564 247.455C61.7975 247.58 61.5953 247.775 61.5559 248.034C61.6534 248.732 62.8923 248.086 63.1743 247.451C63.2755 247.223 63.2648 246.952 63.1408 246.76C62.9585 246.468 62.5367 246.303 62.2128 246.295C61.7981 246.248 61.0136 246.424 60.5102 246.615C59.8773 246.854 58.9302 246.994 58.7419 246.827C58.9102 246.674 60.1097 245.776 59.7239 245.012ZM63.6685 249.272C64.0033 249.101 64.9453 248.668 65.1468 248.616C65.8248 248.445 65.9189 248.721 65.8695 248.858C65.033 249.415 64.0595 250.046 63.163 250.603C63.1656 250.6 62.8934 250.755 62.8934 250.755C62.5124 250.972 62.1537 251.141 61.7025 251.157C61.6451 251.146 61.5595 251.109 61.5255 251.04C61.482 250.963 61.4932 250.876 61.5394 250.804C61.6891 250.565 62.3372 249.929 63.6685 249.272ZM57.9518 246.933C57.9518 246.933 57.9295 246.955 57.9208 246.962C57.9197 246.961 57.1158 247.451 57.1158 247.451C56.6709 247.668 56.1137 247.942 55.5924 247.943C55.4493 247.921 55.2667 247.861 55.236 247.709C55.1657 247.397 55.4151 247.142 55.617 246.936L55.6888 246.863C56.2128 246.381 56.8294 246.034 57.4172 245.721C57.423 245.72 57.4339 245.722 57.4374 245.724C57.4366 245.727 57.4379 245.728 57.4356 245.734C57.4388 246.251 57.7399 246.644 57.9925 246.885C57.9943 246.886 57.9949 246.89 57.9918 246.896C57.9877 246.904 57.9768 246.913 57.9518 246.933ZM58.7983 246.304C58.7935 246.309 58.3733 246.653 58.3733 246.653C58.3334 246.662 58.2952 246.627 58.2507 246.59L58.1716 246.531C57.9426 246.307 57.83 246.021 57.8774 245.773C58.0052 245.308 58.5326 245.163 58.7519 245.124C58.9573 245.097 59.2214 245.162 59.3028 245.34C59.3364 245.483 59.3027 245.627 59.2309 245.767C59.1338 245.957 58.9663 246.14 58.7983 246.304Z" fill="white"/>
<path d="M70.8312 254.181C70.8415 253.921 70.68 253.669 70.427 253.557C69.5922 253.221 68.476 253.477 67.5838 254.209C67.121 254.582 66.7988 254.922 66.3963 255.518C66.7906 255.359 67.537 255.149 68.2424 255.187C68.2424 255.187 68.6328 254.618 69.309 254.28C69.5748 254.132 70.0617 253.926 70.3511 254.196C70.596 254.446 70.0721 255.212 69.2727 255.803C68.6828 256.237 67.9386 256.592 67.2818 256.763C66.7102 256.897 65.9117 257.003 65.5576 256.424C65.3316 256.065 65.3721 255.578 65.6731 255.077C66.5829 253.685 67.8953 252.775 69.5864 251.838C71.2549 251.019 73.0425 250.216 74.8827 250.243C75.2597 250.245 75.5551 250.352 75.7468 250.569C75.7468 250.569 73.9802 250.62 72.6045 251.685C72.2551 251.955 71.7762 252.317 71.7921 252.862C71.8008 253.146 72.0091 253.275 72.19 253.353C73.0909 253.579 73.9967 253.094 74.7743 252.624C75.2882 252.229 75.7732 251.822 76.069 251.245C76.1049 251.175 76.1492 251.08 76.179 251.007C76.6683 251.001 77.2719 251.766 77.2719 251.766C77.7837 252.286 78.5806 253.965 78.9249 254.384C79.2694 254.244 79.8186 254.048 80.1155 253.96L79.9175 253.634C79.5993 253.114 79.2471 252.595 78.9011 252.083C78.1131 250.924 77.1149 250.677 76.5778 250.608C76.3666 250.581 76.1754 250.553 76.1754 250.553C76.0272 250.013 75.4575 249.765 75.0002 249.656C73.3229 249.326 71.441 249.653 69.0756 250.682C67.2928 251.524 66.0134 252.384 65.0515 253.389C64.3694 254.048 63.6843 255.18 63.9928 256.218C64.2554 257.099 65.0714 257.356 65.7103 257.415C67.1483 257.438 68.8047 256.749 70.0374 255.61C70.375 255.257 70.8146 254.739 70.8312 254.181ZM75.7228 251.142C74.6772 252.807 72.798 253.135 72.4208 253.045C72.1968 252.981 71.8965 252.713 72.5808 252.141C73.5417 251.389 74.7485 250.952 75.8032 250.951C75.7862 251.034 75.7617 251.081 75.7228 251.142Z" fill="white"/>
<path d="M69.1293 249.873L68.1733 249.383L67.1848 249.983L68.1406 250.473L69.1293 249.873Z" fill="white"/>
<path d="M77.149 262.237C77.0103 262.254 76.8935 262.126 77.0295 261.994C77.3734 261.655 78.3343 261.097 78.3343 261.097L81.1779 259.219L80.1577 258.696C80.0683 258.751 79.8709 258.881 79.8709 258.881C79.864 258.778 79.8125 258.531 79.7738 258.463C79.6053 258.178 79.2016 258.065 78.8761 258.079C77.4507 258.157 76.0008 259.014 74.863 259.679C74.863 259.679 73.6357 260.437 73.225 260.329C72.9251 260.205 73.1537 259.833 73.2124 259.748C73.6585 259.153 74.2352 258.664 74.7841 258.235C75.5019 258.14 76.3532 257.969 77.1729 257.723C78.9494 257.194 80.6166 256.419 80.9115 256.205C80.9115 256.205 80.736 256.156 80.5452 256.065C78.972 256.875 76.1416 257.772 75.4306 257.757C75.9936 257.28 79.1061 255.221 81.2019 254.547L81.5275 254.449C82.0337 254.292 82.5563 254.133 82.857 254.218C82.8873 254.229 82.9229 254.251 82.9204 254.335C82.801 254.598 82.6085 254.738 82.3883 254.898L82.0733 255.134C82.0733 255.134 82.3116 255.204 82.4784 255.231C82.8039 255.004 83.1666 254.748 83.3126 254.297C83.3587 254.151 83.314 253.999 83.1992 253.911C82.8262 253.62 82.2185 253.695 81.729 253.757L81.7098 253.758C79.0973 254.263 76.4446 255.56 73.5953 257.729C73.4567 257.753 73.0251 257.646 72.9822 257.569C73.2615 257.359 73.6254 257.07 73.9201 256.706C73.9948 256.597 74.0697 256.485 74.1295 256.369C74.2581 256.118 74.3189 255.851 74.1778 255.572C73.9815 255.306 73.6245 255.201 73.3541 255.187C72.1613 255.091 70.9092 255.723 69.9529 256.281C69.397 256.663 68.8228 257.082 68.4122 257.688C68.0967 258.167 68.0423 258.551 68.2469 258.862C68.4658 259.166 68.9196 259.2 69.105 259.199C70.3705 259.185 71.6062 258.49 72.6481 257.81C72.6714 257.818 72.9754 257.963 73.2319 258.021C73.2349 258.022 73.2363 258.023 73.2397 258.029C73.2044 258.066 72.9079 258.355 72.9079 258.355C72.0371 259.197 71.5207 259.808 71.6385 260.388C71.8106 261.208 72.8956 261.007 73.9345 260.538C73.3115 261.418 73.7278 261.82 74.1404 261.939C74.6313 262.044 75.348 261.829 75.692 261.708C75.4783 261.948 75.2439 262.453 75.6106 262.704C75.8539 262.891 76.1301 262.848 76.4272 262.842C77.4954 262.816 79.272 261.813 79.756 261.508L79.4158 261.333C78.7616 261.702 77.9174 262.193 77.149 262.237ZM69.7051 258.293C69.6925 258.186 69.719 258.092 69.7649 257.998C70.0477 257.421 71.1871 256.713 71.9072 256.378C71.9081 256.378 71.9081 256.378 71.9081 256.378C71.8858 256.87 72.1664 257.337 72.3599 257.572C71.6983 258.102 69.884 259.032 69.7051 258.293ZM72.6917 257.354C72.6517 257.359 72.222 256.918 72.3683 256.386C72.4954 255.928 72.9464 255.751 73.3059 255.729C73.4722 255.697 73.6669 255.756 73.7738 255.87C73.8533 256.014 73.8114 256.176 73.7308 256.333C73.6814 256.43 73.618 256.522 73.5604 256.607C73.5604 256.607 73.5492 256.623 73.5475 256.626C73.2951 256.905 72.9998 257.155 72.6917 257.354ZM75.9487 261.262C75.9484 261.262 75.8055 261.298 75.8055 261.298C75.6011 261.352 75.3883 261.412 75.2485 261.256C75.2094 261.214 75.2084 261.132 75.2257 261.078C75.4016 260.716 75.7334 260.466 76.0558 260.223L76.1392 260.159C76.9751 259.638 77.9527 259.02 79.0369 258.8C79.2143 258.773 79.3952 258.766 79.5122 258.903C79.53 258.953 79.5413 259.029 79.5129 259.084C79.5039 259.102 79.4644 259.14 79.4479 259.15C79.0555 259.387 78.6642 259.646 78.286 259.894C77.5433 260.386 76.7742 260.893 75.9487 261.262Z" fill="white"/>
<path d="M139.783 229.152C139.121 237.76 123.949 250.926 114.058 258.643C108.578 262.919 102.311 266.295 95.4011 267.055C53.3313 271.681 12.5617 225.351 26.7168 190.752C30.3063 181.978 55.5167 158.752 60.3172 160.352C67.2478 168.695 139.871 228.01 139.783 229.152Z" stroke="#1D1D1B" stroke-width="3"/>
<path d="M74.9449 107.353C75.4836 115.993 69.4261 138.091 67.2503 146.907C65.989 152.017 60.0911 162.463 55.1536 170.702C47.1526 189.611 65.2654 196.792 73.0569 199.082C98.1974 197.944 105.577 184.106 106.189 156.933C106.313 151.441 106.815 141.153 106.512 136.293C113.723 88.5464 72.487 67.9386 74.9449 107.353Z" fill="#B71C1C"/>
<path d="M75.0003 103.915C75.0009 112.448 69.0847 136.477 66.3736 144.982L58.9069 160.982C58.9069 160.982 52.3642 170.438 50.9069 178.049C46.1069 203.115 66.0595 224.519 83.7192 233.5C92.2707 237.849 95.5646 244.131 111.219 240.5C147.219 232.151 160.769 222.5 179.441 196.715C184.017 190.396 205.383 148.982 197.041 141.782C193.859 134.517 159.488 123.969 105.84 137.515C117.464 95.6249 74.9971 64.9848 75.0003 103.915Z" fill="#D92520"/>
<path d="M90.2217 200C92.2217 194.5 92.7206 188.501 92.7207 183.501C103.12 179.101 140.722 197 149.222 209C121.222 217.5 102.055 197.334 90.2217 200Z" fill="#9B1D1A"/>
<path d="M75.0003 103.915C75.0009 112.448 69.0847 136.477 66.3736 144.982L58.9069 160.982C58.9069 160.982 53.2507 170.663 50.9069 178.049C41.7192 207 77.7192 238 105.84 241C115.38 242.018 124.719 237.8 133.719 234.5C148.719 229 160.769 222.5 179.441 196.715C184.017 190.396 205.383 148.982 197.041 141.782C193.859 134.517 159.488 123.969 105.84 137.515C117.464 95.6249 74.9971 64.9848 75.0003 103.915Z" stroke="#1D1D1B" stroke-width="3"/>
<rect x="147.041" y="26.4736" width="74.2015" height="165.974" rx="11" transform="rotate(25.2759 147.041 26.4736)" fill="#82AACF" stroke="#1D1D1B" stroke-width="3" stroke-linejoin="round"/>
<rect x="149.382" y="35.6638" width="61.5737" height="151.353" rx="7" transform="rotate(25.2759 149.382 35.6638)" fill="#D1E9FF"/>
<circle cx="135.026" cy="170.954" r="12.5" transform="rotate(1.94098 135.026 170.954)" fill="#78B45B"/>
<path d="M130.925 168.031L132.782 174.298L142.182 171.512" stroke="white" stroke-width="3" stroke-linecap="round" stroke-linejoin="round"/>
<circle cx="109.414" cy="160.046" r="12.5" transform="rotate(1.94098 109.414 160.046)" fill="#E14340"/>
<rect x="140.614" y="54.7031" width="61.5737" height="91.548" rx="7" transform="rotate(25.2759 140.614 54.7031)" fill="#FAFCFF"/>
<path d="M156.571 147.028C159.07 148.204 162.109 147.131 162.715 144.437C163.752 139.831 163.367 134.929 161.544 130.336C159.082 124.13 154.196 118.995 147.963 116.061C141.73 113.128 134.659 112.636 128.307 114.694C123.606 116.217 119.583 119.043 116.695 122.779C115.006 124.963 116.116 127.988 118.614 129.164L137.593 138.096L156.571 147.028Z" fill="#82AACF"/>
<ellipse cx="154.395" cy="97.0701" rx="13.103" ry="16.0147" transform="rotate(25.2029 154.395 97.0701)" fill="#82AACF"/>
<path d="M202.336 116.415C212.469 135.615 191.668 177.215 186.622 184.161C175.575 197.927 167.444 204.617 161.432 207.5C152.888 211.598 148.627 208.003 146.37 206.098L146.283 206.024C129.22 155.5 163.936 126.548 176.203 116.948C181.822 112.682 197.728 107.684 202.336 116.415Z" fill="#D92520"/>
<path d="M199.221 113.5C212.721 119.5 199.557 158 193.223 172.5C180.827 200.015 171.721 204 162.221 215C157.221 219.5 153.221 223 149.721 225.5C161.798 208.895 174.381 195.151 184.221 172.5C193.695 150.695 197.421 128.286 199.221 113.5Z" fill="#9B1D1A"/>
<path d="M169.719 209C177.214 201.921 183.948 189.406 185.99 185.418C186.42 184.578 186.841 183.749 187.27 182.909C191.215 175.186 211.504 133.787 202.335 116.415C197.727 107.684 182.738 112.967 176.22 116.415C155.719 127.26 129.719 179.5 146.282 206.024L149.719 209" stroke="#1D1D1B" stroke-width="3" stroke-linecap="round"/>
<path d="M92.4678 176.149C92.0411 162.496 84.4677 143.641 80.7344 140.085C58.5476 153.312 71.4899 194.816 80.7344 209.749C90.3344 205.482 93.0011 193.216 92.4678 176.149Z" fill="#D92520"/>
<path d="M87.5171 151.818C90.8949 162.841 96.3082 190.122 88.2015 205.482" stroke="#1D1D1B" stroke-width="3" stroke-linecap="round"/>
<path d="M106.685 155.372L111.428 165.296" stroke="white" stroke-width="3" stroke-linecap="round"/>
<path d="M114.019 157.962L104.094 162.706" stroke="white" stroke-width="3" stroke-linecap="round"/>
<path d="M254.084 181.202C251.367 179.057 247.578 178.903 244.695 180.82L186.811 219.331C184.546 220.837 184.413 224.115 186.548 225.801L215.312 248.509C218.029 250.655 221.818 250.809 224.7 248.891L282.585 210.381C284.849 208.874 284.983 205.596 282.848 203.911L254.084 181.202Z" fill="#D1E9FF" stroke="#1D1D1B" stroke-width="3"/>
<g opacity="0.8">
<path d="M207.265 222.211L207.671 223.376C208.997 227.189 213.267 229.093 216.99 227.53L220.058 226.243L241.455 220.223L255.369 211.11L252.276 202.22L235.711 203.713L215.198 212.273L211.993 213.168C208.104 214.255 205.938 218.397 207.265 222.211Z" fill="#595959"/>
<path d="M260.238 199.45C261.803 198.906 263.513 199.733 264.057 201.298L265.178 204.521C265.723 206.086 264.896 207.796 263.331 208.34L261.084 209.122L257.991 200.232L260.238 199.45Z" fill="#E3302B"/>
<path d="M235.711 203.713L215.198 212.273L220.058 226.243L241.455 220.223L235.711 203.713Z" fill="#E3302B"/>
<path d="M260.912 199.718C261.905 199.492 262.91 200.048 263.245 201.011L264.72 205.25C265.055 206.212 264.612 207.272 263.693 207.712L262.561 208.252L255.369 211.11L244.401 218.293C242.446 219.573 240.322 220.573 238.089 221.263L219.889 226.89L217.074 228.071C213.259 229.672 208.894 227.631 207.676 223.676L206.964 221.362C205.804 217.599 207.977 213.62 211.77 212.56L215.229 211.594L232.452 204.966C234.614 204.134 236.881 203.607 239.188 203.399L252.276 202.22L259.689 199.997L260.912 199.718Z" stroke="#1D1D1B" stroke-width="3" stroke-linejoin="round"/>
</g>
<path d="M95.0522 55.8179C99.3328 59.1972 105.631 66.1358 111.028 75.5" stroke="#D1E9FF" stroke-width="3" stroke-linecap="round"/>
<path d="M88.8956 68.4219C88.1373 68.0883 87.2521 68.4326 86.9185 69.1908C86.5849 69.9491 86.9291 70.8343 87.6874 71.1679L88.8956 68.4219ZM119.485 116.675C119.546 117.501 120.265 118.121 121.091 118.06C121.917 117.999 122.538 117.279 122.476 116.453L119.485 116.675ZM87.6874 71.1679C92.0512 73.0879 99.5661 78.1627 106.22 85.9618C112.859 93.7424 118.555 104.133 119.485 116.675L122.476 116.453C121.488 103.11 115.433 92.1369 108.503 84.0146C101.588 75.9108 93.7175 70.5435 88.8956 68.4219L87.6874 71.1679Z" fill="#D1E9FF"/>
<rect width="84.0485" height="67.2004" rx="6" transform="matrix(-0.743145 0.669131 0.669131 0.743145 259.182 58)" fill="#D1E9FF" stroke="#1D1D1B" stroke-width="3"/>
<g opacity="0.9">
<path d="M227.685 129.716L250.175 141.849L270.49 123.557L242.362 88.958L222.067 107.231L227.685 129.716Z" fill="#E3302B"/>
<path d="M239.131 119.409L261.621 131.542L269.71 124.26L241.581 89.6609L233.514 96.9248L239.131 119.409Z" fill="#9E221F"/>
<path d="M227.685 129.716L250.175 141.849L270.49 123.557L242.362 88.958L222.067 107.231L227.685 129.716Z" stroke="#1D1D1B" stroke-width="2" stroke-linejoin="round"/>
<path d="M248 111.424L270.49 123.557L264.859 101.019L242.383 88.939L248 111.424Z" fill="#E3302B" stroke="#1D1D1B" stroke-width="2" stroke-linejoin="round"/>
<path d="M248.001 111.424L227.685 129.716" stroke="#1D1D1B" stroke-width="2"/>
<path d="M241.797 116.808L266.163 129.953L273.142 123.669L242.667 86.1838L235.711 92.4472L241.797 116.808Z" fill="#E3302B" stroke="#1D1D1B" stroke-width="2" stroke-linejoin="round"/>
<path d="M248.775 110.524L273.141 123.669L267.041 99.2511L242.689 86.1634L248.775 110.524Z" fill="#F3605C" stroke="#1D1D1B" stroke-width="2" stroke-linejoin="round"/>
<path d="M249.143 110.194L241.797 116.808" stroke="#1D1D1B" stroke-width="2"/>
<path d="M264.192 118.884L257.287 115.298" stroke="#1D1D1B" stroke-width="2" stroke-linejoin="round"/>
<path d="M261.072 101.627L254.047 99.6689C258.722 91 238.696 84.4837 258.722 84.5C266.383 85.329 264.448 97.8069 261.072 101.627Z" fill="#B1E372" stroke="#1D1D1B" stroke-width="2" stroke-linejoin="round"/>
<path d="M261.722 101.5L262.428 108.536C274.382 107.563 276.856 119.55 278.131 111.574C280.221 98.5 266.749 100.657 261.722 101.5Z" fill="#B1E372" stroke="#1D1D1B" stroke-width="2" stroke-linejoin="round"/>
<path d="M255.725 106.37L262.349 105.925C265.941 115.487 266.275 121.709 261.107 127.115L253.665 125.537C259.682 119.607 257.294 110.794 255.725 106.37Z" fill="#B1E372" stroke="#1D1D1B" stroke-width="2" stroke-linejoin="round"/>
<path d="M236.152 104.124C238.535 100.114 253.331 103.417 256.1 106.786L254.407 98.7761C249.32 95.077 240.548 92.6754 237.92 95.3719C236.014 97.3272 236.52 101.915 236.152 104.124Z" fill="#B1E372" stroke="#1D1D1B" stroke-width="2" stroke-linejoin="round"/>
<path d="M263.915 108.5C263.915 108.5 264.262 104.249 262.722 102C260.605 98.908 257.723 97.4999 254.407 98.7761L255.989 106.384C259.723 106.384 261.402 107.143 263.915 108.5Z" fill="#B1E372" stroke="#1D1D1B" stroke-width="2" stroke-linejoin="round"/>
</g>
<path d="M57.0227 86.8198C60.0084 87.3801 63.0539 86.201 64.8839 83.7762L103.366 32.7851C105.166 30.4005 103.811 26.9562 100.869 26.4365L67.902 20.614C65.013 20.1037 62.0764 21.2157 60.25 23.5117L20.145 73.9266C18.2689 76.2849 19.5757 79.7923 22.5376 80.3481L57.0227 86.8198Z" fill="#FFB8B8" stroke="#1D1D1B" stroke-width="3"/>
<ellipse cx="67.9862" cy="45.612" rx="6.50032" ry="10.8797" transform="rotate(48.1623 67.9862 45.612)" fill="#C26868"/>
<path d="M63.8777 70.8157L36.2261 65.3373C35.5415 65.2016 35.2104 64.431 35.658 63.8956C39.6277 59.1468 50.1129 53.9281 60.7279 57.0269C70.6522 59.9241 68.2223 67.5433 64.6718 70.6177C64.4545 70.806 64.1597 70.8716 63.8777 70.8157Z" fill="#C26868"/>
</svg>
