<svg width="352" height="293" viewBox="0 0 352 293" fill="none" xmlns="http://www.w3.org/2000/svg">
<path d="M204.467 213.567L259.402 193.98V131.678L157.743 126.556V188.793L204.467 213.567Z" fill="#E3302B"/>
<path d="M228.224 191.328C226.613 190.634 224.325 191.203 220.717 193.693C216.849 196.17 215.572 197.314 213.879 196.529C213.21 196.059 213.007 195.008 213.188 193.285C213.604 190.447 214.716 187.561 216.732 184.03C217.788 182.181 218.829 180.591 220.184 179.625C221.174 178.985 221.122 179.936 220.939 180.099C220.848 180.181 220.584 180.253 220.401 180.417C220.305 180.585 219.839 181.166 219.898 181.689C219.85 182.553 220.566 182.159 220.945 181.573C221.329 180.9 221.828 179.714 221.438 178.913C221.279 178.644 221.029 178.457 220.678 178.525C219.443 178.891 218.343 179.958 217.325 181.116C215.006 183.85 213.173 187.217 212.128 190.454C211.5 192.413 210.916 195.154 211.687 196.93C212.313 198.177 213.602 198.42 215.116 197.722C216.187 197.174 217.537 196.294 218.349 195.731C219.247 195.174 223.777 191.693 225.188 194.456C225.188 194.456 225.697 193.097 226.937 192.645C227.917 192.178 229.393 192.171 230.403 192.746C230.08 192.295 229.07 191.721 228.224 191.328Z" fill="white"/>
<path d="M221.316 182.72C220.47 182.327 218.804 184.23 217.354 186.925C216.092 189.369 215.523 191.852 216.081 192.749C216.899 193.66 218.589 191.325 219.266 190.062L219.362 189.894C219.837 189.139 220.231 188.294 220.537 187.444L220.84 186.681C221.017 186.604 221.286 186.445 221.56 186.2C221.56 186.2 220.471 188.654 220.588 189.7C220.655 190.051 220.594 191.174 221.459 191.221C222.685 191.027 223.722 189.524 224.576 188.184C224.576 188.184 224.764 187.934 224.768 187.847C224.764 187.934 224.754 188.107 224.754 188.107C224.4 189.821 224.828 189.931 225.174 189.949C226.131 189.915 227.196 187.893 227.196 187.893C227.168 188.411 227.058 188.838 227.481 189.035C227.913 189.058 228.283 188.645 228.653 188.232C229.858 186.824 230.832 184.883 231.528 183.274L231.254 183.52C231.254 183.52 230.074 186.056 229.253 186.791C229.253 186.791 229.07 186.954 229.075 186.868C228.993 186.777 229.002 186.604 229.103 186.349L232.197 178.978L230.779 179.507C230.779 179.507 230.587 179.843 230.582 179.93C230.582 179.93 230.587 179.843 230.5 179.839C229.696 178.668 227.627 181.589 226.15 184.802C225.564 185.984 224.792 187.415 224.038 188.501C224.038 188.501 222.905 190.173 222.424 189.453C222.27 189.098 222.298 188.58 222.408 188.152C222.959 186.016 223.942 183.902 225.061 182.49C225.344 182.072 225.7 181.918 225.873 181.927C226.041 182.023 226.027 182.282 225.931 182.45C225.667 182.523 225.484 182.686 225.297 182.936C225.009 183.44 224.808 183.949 224.967 184.218C225.448 184.938 226.518 182.829 226.488 181.787C226.507 181.442 226.353 181.087 226.098 180.986C225.757 180.881 225.137 181.107 224.772 181.434C224.315 181.843 223.48 182.837 223.086 183.683C222.515 184.605 221.493 185.849 221.233 185.835C221.334 185.581 222.245 183.204 221.316 182.72ZM228.052 183.346C228.345 182.755 229.122 181.237 229.309 180.987C229.967 180.07 230.217 180.257 230.203 180.516C229.599 182.043 228.807 183.82 228.112 185.429L227.91 185.938C227.613 186.615 227.32 187.206 226.773 187.696C226.682 187.778 226.595 187.773 226.508 187.768C226.422 187.764 226.345 187.586 226.436 187.505C226.551 186.991 226.973 185.627 228.052 183.346ZM220.393 186.916C220.388 187.003 219.702 188.439 219.702 188.439C219.313 189.198 218.829 190.125 218.281 190.615C218.099 190.778 217.834 190.851 217.752 190.76C217.507 190.486 217.627 189.886 217.737 189.459L217.746 189.286C218.067 188.177 218.561 187.077 219.051 186.063C219.364 186.687 219.878 186.802 220.311 186.825C220.484 186.835 220.484 186.835 220.393 186.916ZM221.006 185.216L220.7 186.066C220.695 186.153 220.608 186.148 220.522 186.143L220.435 186.139C220.089 186.12 219.752 185.928 219.685 185.578C219.549 184.877 220.111 184.128 220.298 183.878C220.486 183.628 220.846 183.388 221.01 183.57C221.091 183.661 221.164 183.925 221.154 184.098C221.222 184.448 221.112 184.875 221.006 185.216Z" fill="white"/>
<path d="M238.666 181.324C238.511 180.969 238.257 180.868 237.901 181.022C236.83 181.571 235.706 183.07 235.088 184.856C234.776 185.792 234.561 186.561 234.499 187.684C234.878 187.098 235.546 186.008 236.367 185.272C236.367 185.272 236.515 184.154 237.095 183.058C237.292 182.636 237.772 181.795 238.205 181.819C238.637 181.842 238.471 183.307 237.866 184.834C237.459 185.938 236.782 187.201 236.211 188.124C235.649 188.873 234.814 189.868 234.136 189.571C233.712 189.375 233.486 188.756 233.533 187.892C233.761 185.304 234.764 182.845 236.14 179.887C237.508 177.101 239.139 174.243 241.157 172.273C241.613 171.864 241.968 171.71 242.315 171.729C242.315 171.729 240.384 173.704 239.454 176.427C239.243 177.109 238.845 178.04 239.158 178.664C239.312 179.019 239.668 178.865 239.846 178.788C241.013 178.071 241.704 176.549 242.303 175.108C242.62 174.086 242.936 173.063 242.988 172.112C242.993 172.026 243.002 171.853 243.012 171.68C243.564 171.104 244.679 171.337 244.679 171.337C245.545 171.384 247.31 172.434 247.911 172.553C248.199 172.049 248.679 171.208 248.962 170.79L248.539 170.594C247.861 170.297 247.264 170.091 246.582 169.881C245.048 169.364 243.789 170.162 243.15 170.734C242.867 171.152 242.684 171.316 242.684 171.316C242.189 170.856 241.478 171.164 240.848 171.563C238.773 173.01 236.905 175.422 234.794 179.12C233.249 181.983 232.338 184.36 231.782 186.583C231.351 188.12 231.242 190.107 232.147 191.023C232.888 191.756 233.959 191.208 234.69 190.554C236.337 188.997 237.777 186.475 238.533 183.743C238.744 183.061 238.979 181.948 238.666 181.324ZM242.445 172.516C242.193 175.536 240.326 177.947 239.788 178.265C239.519 178.424 238.995 178.482 239.508 177.036C240.131 175.164 241.273 173.319 242.464 172.17C242.459 172.257 242.541 172.348 242.445 172.516Z" fill="white"/>
<path d="M253.666 168.881C252.653 169.953 251.568 170.76 250.337 171.04C249.958 171.626 249.661 172.303 249.281 172.889C251.022 172.811 252.947 170.922 254.076 169.337C255.204 167.751 255.817 166.051 255.817 166.051C255.817 166.051 254.949 167.651 253.666 168.881Z" fill="white"/>
<path d="M234.499 178.151L233.173 178.599L232.381 180.376L233.708 179.928L234.499 178.151Z" fill="white"/>
<path d="M250.162 183.768C249.98 183.932 249.807 183.922 249.912 183.581C250.128 182.813 250.914 181.123 250.914 181.123L253.024 175.864L251.607 176.394C251.511 176.562 251.405 176.903 251.405 176.903C251.324 176.812 251.165 176.543 251.078 176.538C250.737 176.433 250.203 176.664 249.834 177.077C248.268 178.726 247.175 181.266 246.282 183.298C246.282 183.298 245.294 185.497 244.843 185.819C244.401 185.969 244.525 185.282 244.53 185.196C244.682 183.991 245.095 182.8 245.411 181.777C246.155 180.864 246.995 179.783 247.754 178.611C249.453 176.103 250.902 173.409 251.108 172.813C251.108 172.813 250.926 172.977 250.661 173.049C249.39 175.667 246.736 179.769 245.914 180.504C246.24 179.309 248.633 173.632 250.539 170.529L250.827 170.025C251.302 169.271 251.777 168.517 252.224 168.281C252.224 168.281 252.31 168.286 252.392 168.377C252.369 168.809 252.263 169.15 252.066 169.572L251.86 170.168C251.86 170.168 252.129 170.009 252.398 169.85C252.605 169.255 252.902 168.578 252.853 167.882C252.867 167.623 252.699 167.527 252.526 167.517C251.915 167.571 251.354 168.32 250.801 168.897C248.185 172.308 245.949 176.693 243.907 182.302C243.724 182.465 243.273 182.787 243.1 182.778C243.301 182.269 243.517 181.501 243.646 180.728C243.655 180.555 243.669 180.296 243.679 180.123C243.702 179.691 243.635 179.341 243.298 179.149C242.957 179.044 242.51 179.279 242.145 179.606C240.781 180.746 239.711 182.854 238.924 184.545C238.521 185.563 238.114 186.667 237.961 187.872C237.914 188.736 238.058 189.264 238.4 189.369C238.828 189.479 239.371 189.075 239.558 188.825C240.936 187.427 241.92 185.314 242.72 183.364C242.72 183.364 243.163 183.215 243.523 182.974C243.518 183.061 243.307 183.743 243.307 183.743C242.771 185.62 242.527 186.907 243.018 187.453C243.672 188.182 244.791 186.77 245.659 185.17C245.478 186.894 246.089 186.84 246.627 186.523C247.256 186.124 247.919 185.12 248.207 184.615C248.092 185.129 248.131 185.998 248.66 185.853C249.011 185.786 249.289 185.454 249.654 185.127C250.845 183.979 252.231 180.848 252.625 180.002L252.183 180.152C251.592 181.419 250.993 182.86 250.162 183.768ZM239.729 187.275C239.648 187.184 239.657 187.011 239.666 186.838C239.632 185.883 240.524 183.851 241.196 182.675C241.422 183.294 242.019 183.499 242.36 183.605C241.77 184.872 240.302 187.913 239.729 187.275ZM242.484 182.918C242.48 183.004 241.701 182.962 241.57 182.175C241.435 181.474 241.906 180.807 242.275 180.393C242.462 180.144 242.727 180.071 242.9 180.081C243.068 180.176 243.145 180.354 243.126 180.7C243.117 180.872 243.108 181.045 243.098 181.218C242.892 181.813 242.772 182.414 242.484 182.918ZM248.244 183.924L248.148 184.092C247.961 184.342 247.769 184.678 247.51 184.664C247.423 184.66 247.428 184.573 247.346 184.482C247.379 183.877 247.59 183.195 247.796 182.6L247.892 182.432C248.496 180.905 249.288 179.128 250.406 177.715C250.594 177.465 250.776 177.302 250.949 177.311C251.036 177.316 251.031 177.402 251.026 177.489C251.026 177.489 251.021 177.575 251.017 177.662C250.719 178.339 250.417 179.102 250.12 179.78C249.52 181.22 249.012 182.579 248.244 183.924Z" fill="white"/>
<path d="M204.467 178.464L259.402 158.877V134.072L157.743 128.949V153.69L204.467 178.464Z" fill="#9E221F"/>
<path d="M204.467 213.568L259.402 193.98V131.679L157.743 126.556V188.793L204.467 213.568Z" stroke="#1D1D1B" stroke-width="3" stroke-linejoin="round"/>
<path d="M204.467 151.266L259.402 131.678L212.568 106.846L157.743 126.492L204.467 151.266Z" fill="#E3302B" stroke="#1D1D1B" stroke-width="3" stroke-linejoin="round"/>
<path d="M204.469 151.266L204.469 213.567" stroke="#1D1D1B" stroke-width="3"/>
<path d="M204.125 169.982L263.643 148.761V127.358L153.503 121.809V143.141L204.125 169.982Z" fill="#E3302B" stroke="#1D1D1B" stroke-width="3" stroke-linejoin="round"/>
<path d="M204.125 148.58L263.643 127.358L212.902 100.454L153.503 121.739L204.125 148.58Z" fill="#F3605C" stroke="#1D1D1B" stroke-width="3" stroke-linejoin="round"/>
<path d="M204.126 147.456L204.126 169.982" stroke="#1D1D1B" stroke-width="3"/>
<path d="M241.856 135.219L225.225 141.445" stroke="#1D1D1B" stroke-width="3" stroke-linejoin="round"/>
<path d="M225.534 121.909C242.646 125.241 250.353 117.646 252.979 110.881C254.303 107.47 252.738 103.987 250.293 101.417L246 96.9062C245.149 102.005 241.089 111.857 233.405 114.454C225.684 117.062 217.33 113.361 214.09 109.505C212.503 113.203 221.058 119.315 225.534 121.909Z" fill="#66984E" stroke="#1D1D1B" stroke-width="3" stroke-linejoin="round"/>
<path d="M239.647 92.3005C223.213 86.9937 206.314 98.1198 203.469 108.872L222.197 117.795C223.811 113.285 228.887 103.678 236.259 101.065C244.457 98.159 250.522 100.895 253.236 105.404C251.464 101.03 246.203 94.4177 239.647 92.3005Z" fill="#B1E372" stroke="#1D1D1B" stroke-width="3" stroke-linejoin="round"/>
<path d="M189.307 123.095C178.436 128.144 168.821 122.765 162.849 115.678C157.906 109.811 160.908 102.083 167.039 98.1247L169.368 96.6214C171.12 101.302 175.35 110.928 182.584 114.594C189.852 118.277 198.65 115.805 202.409 112.451C203.45 116.337 194.108 121.167 189.307 123.095Z" fill="#66984E" stroke="#1D1D1B" stroke-width="3" stroke-linejoin="round"/>
<path d="M177.052 92.2325C194.077 89.3241 206.845 103.705 208.122 114.753L194.077 123.676C193.125 118.982 188.692 106.714 181.77 103.077C174.073 99.0313 164.636 99.0001 161.304 103.077C163.684 99.0001 170.26 93.3929 177.052 92.2325Z" fill="#B1E372" stroke="#1D1D1B" stroke-width="3" stroke-linejoin="round"/>
<path d="M207.695 130.474L217.058 118.577C238.765 127.075 249.831 135.998 251.107 152.995L237.062 163.193C236.194 143.958 217.595 134.564 207.695 130.474Z" fill="#B1E372" stroke="#1D1D1B" stroke-width="3" stroke-linejoin="round"/>
<path d="M173.986 160.2C170.823 150.048 199.028 130.027 208.971 130.475L192.798 121.126C178.753 124.101 161.28 135.295 161.84 143.859C162.245 150.069 170.8 156.207 173.986 160.2Z" fill="#B1E372" stroke="#1D1D1B" stroke-width="3" stroke-linejoin="round"/>
<path d="M223.017 118.152L211.526 108.804C205.357 107.983 191.947 114.753 191.947 114.753C191.947 114.753 191.919 118.052 192.799 121.127L208.121 130.05C208.121 119.512 217.626 118.435 223.017 118.152Z" fill="#66984E" stroke="#1D1D1B" stroke-width="3" stroke-linejoin="round"/>
<path d="M205.877 106.837C219.336 105.018 224.271 119.565 224.719 120.929L208.569 130.475C208.569 119.201 197.204 115.777 191.522 115.474L205.877 106.837Z" fill="#B1E372" stroke="#1D1D1B" stroke-width="3" stroke-linejoin="round"/>
<path opacity="0.16" d="M208.049 239.612C258.258 239.612 298.96 198.977 298.96 148.851C298.96 98.7246 258.258 58.0894 208.049 58.0894C157.841 58.0894 117.139 98.7246 117.139 148.851C117.139 198.977 157.841 239.612 208.049 239.612Z" fill="white"/>
<path d="M290.997 92.0282C259.583 46.2863 196.947 34.6584 151.128 66.0385C105.308 97.4186 93.6795 159.948 125.094 205.671C127.948 209.79 131.033 213.66 134.35 217.241C134.389 217.279 134.427 217.337 134.466 217.375C135.43 218.415 136.394 219.397 137.378 220.379C171.01 253.569 224.524 259.344 264.963 231.66C282.3 219.801 294.738 203.457 301.815 185.245V185.225C301.815 185.206 301.835 185.187 301.835 185.168C302.818 182.607 303.705 179.989 304.477 177.332C312.827 149.34 308.835 117.979 290.997 92.0282ZM255.533 217.895C227.918 236.82 192.975 236.993 165.842 221.226C155.428 215.181 146.191 206.806 138.921 196.237C112.713 158.1 122.432 105.986 160.615 79.8227C198.798 53.6597 251.001 63.3433 277.228 101.481C298.807 132.842 296.03 173.713 273.082 201.782C268.145 207.827 262.282 213.256 255.533 217.895Z" fill="#878787"/>
<path d="M306.233 168.213C304.999 189.218 287.655 218.017 265.127 231.515C223.135 256.686 171.237 253.364 137.628 220.264L126.836 210.318C191.915 258.471 268 253 306.233 168.213Z" fill="#545454"/>
<path d="M208.05 249.293C263.614 249.293 308.657 204.323 308.657 148.851C308.657 93.3778 263.614 48.4082 208.05 48.4082C152.485 48.4082 107.442 93.3778 107.442 148.851C107.442 204.323 152.485 249.293 208.05 249.293Z" stroke="#1D1D1B" stroke-width="3" stroke-miterlimit="10"/>
<path d="M208.05 233.561C254.911 233.561 292.899 195.906 292.899 149.456C292.899 103.006 254.911 65.3503 208.05 65.3503C161.188 65.3503 123.2 103.006 123.2 149.456C123.2 195.906 161.188 233.561 208.05 233.561Z" stroke="#1D1D1B" stroke-width="3" stroke-miterlimit="10"/>
<path d="M140.082 211.133C139.767 213.526 138.578 215.767 136.597 217.244L48.7648 283.104C45.0241 285.892 39.9315 284.861 37.3677 280.774C34.8039 276.687 35.7479 271.111 39.4886 268.323L127.321 202.463C131.062 199.662 136.166 200.693 138.73 204.78C139.569 206.104 140.023 207.606 140.14 209.121V209.134C140.187 209.796 140.163 210.484 140.082 211.133Z" fill="#878787"/>
<path d="M140.081 211.132C139.767 213.526 138.578 215.767 136.597 217.244L48.7645 283.103C45.0237 285.892 43.0892 286.999 40.5371 282.912C52.412 273.211 135.886 211.756 139.848 208.522C139.895 209.184 140.163 210.483 140.081 211.132Z" fill="#545454"/>
<path d="M37.3678 280.787C34.804 276.713 35.7596 271.124 39.4887 268.323L127.321 202.463C131.05 199.662 136.166 200.706 138.73 204.78C141.294 208.854 140.338 214.443 136.609 217.244L48.7765 283.104C45.0358 285.905 39.9315 284.861 37.3678 280.787Z" stroke="#1D1D1B" stroke-width="3" stroke-miterlimit="10"/>
<path d="M328.048 194.945C328.347 194.022 329.653 194.022 329.952 194.945L333.127 204.773C333.803 207.581 336.054 209.783 338.943 210.462L348.91 213.545C349.85 213.835 349.85 215.165 348.91 215.455L338.943 218.538C336.073 219.198 333.821 221.4 333.127 224.227L329.952 234.055C329.653 234.978 328.347 234.978 328.048 234.055L324.873 224.227C324.197 221.419 321.946 219.217 319.057 218.538L309.09 215.455C308.15 215.165 308.15 213.835 309.09 213.545L319.057 210.462C321.927 209.802 324.179 207.6 324.873 204.773L328.048 194.945Z" fill="#FFDB5D" stroke="#1D1D1B" stroke-width="3" stroke-miterlimit="10" stroke-linejoin="round"/>
<path d="M64.549 163.924C64.8485 163.003 66.1515 163.003 66.451 163.924L68.8252 171.224C69.3764 173.477 71.1768 175.228 73.4916 175.765L80.8958 178.044C81.8368 178.334 81.8368 179.666 80.8958 179.956L73.4916 182.235C71.1768 182.772 69.3764 184.523 68.8252 186.776L66.451 194.076C66.1515 194.997 64.8485 194.997 64.549 194.076L62.1748 186.776C61.6236 184.523 59.8232 182.772 57.5084 182.235L50.1042 179.956C49.1632 179.666 49.1632 178.334 50.1042 178.044L57.5084 175.765C59.8232 175.228 61.6236 173.477 62.1748 171.224L64.549 163.924Z" fill="#FFDB5D" stroke="#1D1D1B" stroke-width="3" stroke-miterlimit="10" stroke-linejoin="round"/>
<path d="M287.045 3.07112C287.337 2.13366 288.663 2.13366 288.955 3.07112L293.739 18.4588C294.696 22.5282 297.818 25.6994 301.825 26.6709L317.031 31.5478C317.957 31.8448 317.957 33.1552 317.031 33.4522L301.825 38.3291C297.818 39.3006 294.696 42.4718 293.739 46.5412L288.955 61.9289C288.663 62.8663 287.337 62.8663 287.045 61.9289L282.261 46.5412C281.304 42.4718 278.182 39.3006 274.175 38.3291L258.969 33.4522C258.043 33.1552 258.043 31.8448 258.969 31.5478L274.175 26.6709C278.182 25.6994 281.304 22.5282 282.261 18.4588L287.045 3.07112Z" fill="#FFDB5D" stroke="#1D1D1B" stroke-width="3" stroke-miterlimit="10" stroke-linejoin="round"/>
<path d="M82.0466 130.012C82.3413 129.081 83.6587 129.081 83.9534 130.012L85.6964 135.518C86.1429 137.393 87.6071 138.857 89.4821 139.304L94.9884 141.047C95.9193 141.341 95.9193 142.659 94.9884 142.953L89.4821 144.696C87.6071 145.143 86.1429 146.607 85.6964 148.482L83.9534 153.988C83.6587 154.919 82.3413 154.919 82.0466 153.988L80.3036 148.482C79.8571 146.607 78.3929 145.143 76.5179 144.696L71.0116 142.953C70.0807 142.659 70.0807 141.341 71.0116 141.047L76.5179 139.304C78.3929 138.857 79.8571 137.393 80.3036 135.518L82.0466 130.012Z" fill="#FFDB5D" stroke="#1D1D1B" stroke-width="3" stroke-miterlimit="10" stroke-linejoin="round"/>
<path d="M326.547 58.013C326.841 57.0819 328.159 57.0819 328.453 58.013L330.825 65.5084C331.376 67.8232 333.177 69.6236 335.492 70.1748L342.987 72.5466C343.918 72.8412 343.918 74.1588 342.987 74.4534L335.492 76.8252C333.177 77.3764 331.376 79.1768 330.825 81.4916L328.453 88.987C328.159 89.9181 326.841 89.9181 326.547 88.987L324.175 81.4916C323.624 79.1768 321.823 77.3764 319.508 76.8252L312.013 74.4534C311.082 74.1588 311.082 72.8412 312.013 72.5466L319.508 70.1748C321.823 69.6236 323.624 67.8232 324.175 65.5084L326.547 58.013Z" fill="#FFDB5D" stroke="#1D1D1B" stroke-width="3" stroke-miterlimit="10" stroke-linejoin="round"/>
</svg>
