<svg width="459" height="251" viewBox="0 0 459 251" fill="none" xmlns="http://www.w3.org/2000/svg">
<path d="M244 208L245.81 214.19L252 216L245.81 217.81L244 224L242.19 217.81L236 216L242.19 214.19L244 208Z" fill="#F2F1F1"/>
<path d="M384 185L385.81 191.19L392 193L385.81 194.81L384 201L382.19 194.81L376 193L382.19 191.19L384 185Z" fill="#F2F1F1"/>
<path d="M431 117L432.81 123.19L439 125L432.81 126.81L431 133L429.19 126.81L423 125L429.19 123.19L431 117Z" fill="#F2F1F1"/>
<path d="M389 62L390.81 68.1898L397 70L390.81 71.8102L389 78L387.19 71.8102L381 70L387.19 68.1898L389 62Z" fill="#F2F1F1"/>
<path d="M234 0L235.81 6.18981L242 8L235.81 9.81019L234 16L232.19 9.81019L226 8L232.19 6.18981L234 0Z" fill="#F2F1F1"/>
<path d="M226 73L227.81 79.1898L234 81L227.81 82.8102L226 89L224.19 82.8102L218 81L224.19 79.1898L226 73Z" fill="#F2F1F1"/>
<path d="M58 45L59.8102 51.1898L66 53L59.8102 54.8102L58 61L56.1898 54.8102L50 53L56.1898 51.1898L58 45Z" fill="#F2F1F1"/>
<path d="M122 24L123.81 30.1898L130 32L123.81 33.8102L122 40L120.19 33.8102L114 32L120.19 30.1898L122 24Z" fill="#F2F1F1"/>
<path d="M28 145L29.8102 151.19L36 153L29.8102 154.81L28 161L26.1898 154.81L20 153L26.1898 151.19L28 145Z" fill="#F2F1F1"/>
<path d="M156 216L157.81 222.19L164 224L157.81 225.81L156 232L154.19 225.81L148 224L154.19 222.19L156 216Z" fill="#F2F1F1"/>
<path d="M56 193L57.8102 199.19L64 201L57.8102 202.81L56 209L54.1898 202.81L48 201L54.1898 199.19L56 193Z" fill="#F2F1F1"/>
<path d="M327 224L328.81 230.19L335 232L328.81 233.81L327 240L325.19 233.81L319 232L325.19 230.19L327 224Z" fill="#F2F1F1"/>
<path d="M12 213L13.5443 223.456L24 225L13.5443 226.544L12 237L10.4557 226.544L0 225L10.4557 223.456L12 213Z" fill="#EBEBEB"/>
<path d="M91 220L92.5443 230.456L103 232L92.5443 233.544L91 244L89.4557 233.544L79 232L89.4557 230.456L91 220Z" fill="#EBEBEB"/>
<path d="M24 101L25.5443 111.456L36 113L25.5443 114.544L24 125L22.4557 114.544L12 113L22.4557 111.456L24 101Z" fill="#EBEBEB"/>
<path d="M438 54L439.544 64.4557L450 66L439.544 67.5443L438 78L436.456 67.5443L426 66L436.456 64.4557L438 54Z" fill="#EBEBEB"/>
<path d="M181 16L182.544 26.4557L193 28L182.544 29.5443L181 40L179.456 29.5443L169 28L179.456 26.4557L181 16Z" fill="#EBEBEB"/>
<path d="M401 227L402.544 237.456L413 239L402.544 240.544L401 251L399.456 240.544L389 239L399.456 237.456L401 227Z" fill="#EBEBEB"/>
<path d="M447 161L448.544 171.456L459 173L448.544 174.544L447 185L445.456 174.544L435 173L445.456 171.456L447 161Z" fill="#EBEBEB"/>
<path d="M302 49L303.544 59.4557L314 61L303.544 62.5443L302 73L300.456 62.5443L290 61L300.456 59.4557L302 49Z" fill="#EBEBEB"/>
</svg>
