<svg width="325" height="517" viewBox="0 0 325 517" fill="none" xmlns="http://www.w3.org/2000/svg">
<path d="M123 56L124.81 62.1898L131 64L124.81 65.8102L123 72L121.19 65.8102L115 64L121.19 62.1898L123 56Z" fill="#F2F1F1"/>
<path d="M183 174L184.81 180.19L191 182L184.81 183.81L183 190L181.19 183.81L175 182L181.19 180.19L183 174Z" fill="#F2F1F1"/>
<path d="M285 95L286.81 101.19L293 103L286.81 104.81L285 111L283.19 104.81L277 103L283.19 101.19L285 95Z" fill="#F2F1F1"/>
<path d="M26 0L27.8102 6.18981L34 8L27.8102 9.81019L26 16L24.1898 9.81019L18 8L24.1898 6.18981L26 0Z" fill="#F2F1F1"/>
<path d="M257 3L258.81 9.18981L265 11L258.81 12.8102L257 19L255.19 12.8102L249 11L255.19 9.18981L257 3Z" fill="#F2F1F1"/>
<path d="M24 158L25.8102 164.19L32 166L25.8102 167.81L24 174L22.1898 167.81L16 166L22.1898 164.19L24 158Z" fill="#F2F1F1"/>
<path d="M302 177L303.81 183.19L310 185L303.81 186.81L302 193L300.19 186.81L294 185L300.19 183.19L302 177Z" fill="#F2F1F1"/>
<path d="M8 337L9.81019 343.19L16 345L9.81019 346.81L8 353L6.18981 346.81L0 345L6.18981 343.19L8 337Z" fill="#F2F1F1"/>
<path d="M306 372L307.81 378.19L314 380L307.81 381.81L306 388L304.19 381.81L298 380L304.19 378.19L306 372Z" fill="#F2F1F1"/>
<path d="M139 422L140.81 428.19L147 430L140.81 431.81L139 438L137.19 431.81L131 430L137.19 428.19L139 422Z" fill="#F2F1F1"/>
<path d="M191 353L192.81 359.19L199 361L192.81 362.81L191 369L189.19 362.81L183 361L189.19 359.19L191 353Z" fill="#F2F1F1"/>
<path d="M21 445L22.8102 451.19L29 453L22.8102 454.81L21 461L19.1898 454.81L13 453L19.1898 451.19L21 445Z" fill="#F2F1F1"/>
<path d="M237 495L238.81 501.19L245 503L238.81 504.81L237 511L235.19 504.81L229 503L235.19 501.19L237 495Z" fill="#F2F1F1"/>
<path d="M310 462L311.81 468.19L318 470L311.81 471.81L310 478L308.19 471.81L302 470L308.19 468.19L310 462Z" fill="#F2F1F1"/>
<path d="M94 337L95.8102 343.19L102 345L95.8102 346.81L94 353L92.1898 346.81L86 345L92.1898 343.19L94 337Z" fill="#F2F1F1"/>
<path d="M142 501L143.81 507.19L150 509L143.81 510.81L142 517L140.19 510.81L134 509L140.19 507.19L142 501Z" fill="#F2F1F1"/>
<path d="M122 126L123.81 132.19L130 134L123.81 135.81L122 142L120.19 135.81L114 134L120.19 132.19L122 126Z" fill="#F2F1F1"/>
<path d="M50 64L51.5443 74.4557L62 76L51.5443 77.5443L50 88L48.4557 77.5443L38 76L48.4557 74.4557L50 64Z" fill="#EBEBEB"/>
<path d="M187 81L188.544 91.4557L199 93L188.544 94.5443L187 105L185.456 94.5443L175 93L185.456 91.4557L187 81Z" fill="#EBEBEB"/>
<path d="M313 20L314.544 30.4557L325 32L314.544 33.5443L313 44L311.456 33.5443L301 32L311.456 30.4557L313 20Z" fill="#EBEBEB"/>
<path d="M22 382L23.5443 392.456L34 394L23.5443 395.544L22 406L20.4557 395.544L10 394L20.4557 392.456L22 382Z" fill="#EBEBEB"/>
<path d="M207 410L208.544 420.456L219 422L208.544 423.544L207 434L205.456 423.544L195 422L205.456 420.456L207 410Z" fill="#EBEBEB"/>
<path d="M28 483L29.5443 493.456L40 495L29.5443 496.544L28 507L26.4557 496.544L16 495L26.4557 493.456L28 483Z" fill="#EBEBEB"/>
</svg>
