<svg width="65" height="80" viewBox="0 0 65 80" fill="none" xmlns="http://www.w3.org/2000/svg">
<rect x="0.25" y="0.25" width="64.5" height="79.5" rx="7.75" fill="#B81D1A" stroke="#951816" stroke-width="0.5"/>
<path d="M32.4492 45.4961C32.8555 45.4961 33.1602 45.3789 33.3633 45.1445C33.5664 44.9102 33.6758 44.6094 33.6914 44.2422C33.6914 44.1875 33.6914 44.1328 33.6914 44.0781C33.6914 44.0156 33.6914 43.9531 33.6914 43.8906C33.707 43.4297 33.7852 43.0352 33.9258 42.707C34.0742 42.3789 34.3125 42.0625 34.6406 41.7578C34.9766 41.4453 35.4414 41.0898 36.0352 40.6914C37.0039 40.043 37.7617 39.332 38.3086 38.5586C38.8633 37.7852 39.1406 36.8633 39.1406 35.793C39.1406 34.6758 38.8672 33.7227 38.3203 32.9336C37.7734 32.1445 37.0312 31.5469 36.0938 31.1406C35.1562 30.7266 34.1094 30.5195 32.9531 30.5195C32.0938 30.5195 31.2852 30.6484 30.5273 30.9062C29.7773 31.1562 29.1133 31.5273 28.5352 32.0195C27.9648 32.5039 27.5195 33.0977 27.1992 33.8008C27.082 34.0586 26.9961 34.3164 26.9414 34.5742C26.8867 34.8242 26.8594 35.0586 26.8594 35.2773C26.8594 35.6211 26.9609 35.9062 27.1641 36.1328C27.3672 36.3516 27.6562 36.4609 28.0312 36.4609C28.3359 36.4609 28.5938 36.3789 28.8047 36.2148C29.0156 36.0508 29.168 35.8242 29.2617 35.5352C29.4492 34.8711 29.7148 34.3398 30.0586 33.9414C30.4102 33.5352 30.8203 33.2422 31.2891 33.0625C31.7656 32.875 32.2891 32.7812 32.8594 32.7812C33.5469 32.7812 34.168 32.9062 34.7227 33.1562C35.2773 33.4062 35.7148 33.7539 36.0352 34.1992C36.3633 34.6445 36.5273 35.1758 36.5273 35.793C36.5273 36.3164 36.4258 36.7695 36.2227 37.1523C36.0273 37.5352 35.75 37.8906 35.3906 38.2188C35.0312 38.5391 34.6055 38.8672 34.1133 39.2031C33.543 39.5938 33.0352 40.0039 32.5898 40.4336C32.1523 40.8633 31.8047 41.332 31.5469 41.8398C31.2969 42.3477 31.1719 42.918 31.1719 43.5508C31.1719 43.6602 31.1719 43.7656 31.1719 43.8672C31.1719 43.9688 31.1719 44.0742 31.1719 44.1836C31.1719 44.5742 31.2812 44.8906 31.5 45.1328C31.7188 45.375 32.0352 45.4961 32.4492 45.4961ZM32.4609 51.6367C32.7734 51.6367 33.0586 51.5586 33.3164 51.4023C33.5742 51.2539 33.7773 51.0508 33.9258 50.793C34.082 50.5352 34.1602 50.2539 34.1602 49.9492C34.1602 49.6367 34.082 49.3516 33.9258 49.0938C33.7773 48.8438 33.5742 48.6445 33.3164 48.4961C33.0586 48.3398 32.7734 48.2617 32.4609 48.2617C32.1484 48.2617 31.8633 48.3398 31.6055 48.4961C31.3477 48.6445 31.1406 48.8438 30.9844 49.0938C30.8281 49.3516 30.75 49.6367 30.75 49.9492C30.75 50.2539 30.8281 50.5352 30.9844 50.793C31.1406 51.0508 31.3477 51.2539 31.6055 51.4023C31.8633 51.5586 32.1484 51.6367 32.4609 51.6367Z" fill="white"/>
</svg>
